<svg xmlns="http://www.w3.org/2000/svg" width="420mm" height="297mm" viewBox="0 0 420 297"><rect width="420" height="297" fill="white"/><g font-family="Arial,Helvetica,sans-serif"><path d="M 16 31 H 404 M 16 271 H 404" stroke="#25372f" stroke-width=".35"/><text x="17.0000" y="17.0000" fill="#25372f" font-size="5.2" text-anchor="start">FLOORFORGE</text><text x="17.0000" y="25.0000" fill="#25372f" font-size="3.1" text-anchor="start">Ground floor</text><text x="403.0000" y="18.0000" fill="#25372f" font-size="5" text-anchor="end">A-101</text><text x="403.0000" y="25.0000" fill="#25372f" font-size="2.6" text-anchor="end">REV A / PRELIMINARY</text><polygon points="130.3067,159.7867 130.3067,196.7200 127.2400,196.7200 91.2667,196.7200 91.2667,162.8533 91.2667,160.7867 123.6667,160.7867 125.6667,160.7867 125.6667,159.7867" fill="#fafaf6" stroke="none" stroke-width="0.2"/><polygon points="130.3067,159.7867 140.3333,159.7867 140.3333,160.7867 141.3333,160.7867 142.3333,160.7867 174.7333,160.7867 174.7333,162.8533 174.7333,196.7200 133.3733,196.7200 130.3067,196.7200" fill="#fafaf6" stroke="none" stroke-width="0.2"/><polygon points="125.6667,159.7867 125.6667,158.7867 125.6667,126.1200 140.3333,126.1200 140.3333,140.0667 140.3333,141.0667 140.3333,142.0667 140.3333,158.7867 140.3333,159.7867" fill="#fafaf6" stroke="none" stroke-width="0.2"/><polygon points="91.2667,158.7867 91.2667,156.7200 91.2667,128.1867 91.2667,126.1200 123.6667,126.1200 123.6667,158.7867" fill="#fafaf6" stroke="none" stroke-width="0.2"/><polygon points="142.3333,142.0667 174.7333,142.0667 174.7333,144.1333 174.7333,156.7200 174.7333,158.7867 142.3333,158.7867" fill="#f0f3ef" stroke="none" stroke-width="0.2"/><polygon points="174.7333,138.0000 174.7333,140.0667 142.3333,140.0667 142.3333,126.1200 174.7333,126.1200 174.7333,128.1867" fill="#f0f3ef" stroke="none" stroke-width="0.2"/><polygon points="91.2667,84.6133 174.7333,84.6133 174.7333,122.0533 174.7333,124.1200 142.3333,124.1200 141.3333,124.1200 140.3333,124.1200 125.6667,124.1200 124.6667,124.1200 123.6667,124.1200 91.2667,124.1200 91.2667,122.0533" fill="#fafaf6" stroke="none" stroke-width="0.2"/><polygon points="91.2667,163.7867 88.2000,163.7867 88.2000,156.7200 91.2667,156.7200 91.2667,163.7867" fill="#25372f" stroke="#25372f" stroke-width="0.25"/><polygon points="91.2667,199.7867 88.2000,199.7867 88.2000,195.7867 91.2667,195.7867 91.2667,199.7867" fill="#25372f" stroke="#25372f" stroke-width="0.25"/><polygon points="133.3733,199.7867 117.2533,199.7867 117.2533,196.7200 130.3067,196.7200 133.3733,196.7200 133.3733,199.7867" fill="#25372f" stroke="#25372f" stroke-width="0.25"/><polygon points="88.2000,199.7867 88.2000,196.7200 101.2533,196.7200 101.2533,199.7867 88.2000,199.7867" fill="#25372f" stroke="#25372f" stroke-width="0.25"/><polygon points="91.2667,132.9200 88.2000,132.9200 88.2000,122.0533 91.2667,122.0533 91.2667,132.9200" fill="#25372f" stroke="#25372f" stroke-width="0.25"/><polygon points="91.2667,159.7867 91.2667,162.8533 88.2000,162.8533 88.2000,151.9867 91.2667,151.9867 91.2667,159.7867" fill="#25372f" stroke="#25372f" stroke-width="0.25"/><polygon points="125.6667,160.7867 116.4400,160.7867 116.4400,158.7867 124.6667,158.7867 125.6667,158.7867 125.6667,160.7867" fill="#25372f" stroke="#25372f" stroke-width="0.25"/><polygon points="88.2000,160.7867 88.2000,158.7867 96.4400,158.7867 96.4400,160.7867 88.2000,160.7867" fill="#25372f" stroke="#25372f" stroke-width="0.25"/><polygon points="91.2667,128.1867 88.2000,128.1867 88.2000,116.8400 91.2667,116.8400 91.2667,125.1200 91.2667,128.1867" fill="#25372f" stroke="#25372f" stroke-width="0.25"/><polygon points="88.2000,81.5467 91.2667,81.5467 91.2667,89.8267 88.2000,89.8267 88.2000,81.5467" fill="#25372f" stroke="#25372f" stroke-width="0.25"/><polygon points="125.6667,124.1200 125.6667,126.1200 88.2000,126.1200 88.2000,124.1200 124.6667,124.1200 125.6667,124.1200" fill="#25372f" stroke="#25372f" stroke-width="0.25"/><polygon points="88.2000,81.5467 114.3333,81.5467 114.3333,84.6133 88.2000,84.6133 88.2000,81.5467" fill="#25372f" stroke="#25372f" stroke-width="0.25"/><polygon points="177.8000,81.5467 177.8000,84.6133 151.6667,84.6133 151.6667,81.5467 177.8000,81.5467" fill="#25372f" stroke="#25372f" stroke-width="0.25"/><polygon points="123.6667,124.1200 125.6667,124.1200 125.6667,159.7867 125.6667,160.7867 123.6667,160.7867 123.6667,125.1200 123.6667,124.1200" fill="#25372f" stroke="#25372f" stroke-width="0.25"/><polygon points="142.3333,126.1200 139.3333,126.1200 139.3333,124.1200 141.3333,124.1200 142.3333,124.1200 142.3333,126.1200" fill="#25372f" stroke="#25372f" stroke-width="0.25"/><polygon points="124.6667,126.1200 123.6667,126.1200 123.6667,124.1200 126.6667,124.1200 126.6667,126.1200 124.6667,126.1200" fill="#25372f" stroke="#25372f" stroke-width="0.25"/><polygon points="134.3067,196.7200 134.3067,199.7867 127.2400,199.7867 127.2400,196.7200 134.3067,196.7200" fill="#25372f" stroke="#25372f" stroke-width="0.25"/><polygon points="177.8000,196.7200 177.8000,199.7867 173.8000,199.7867 173.8000,196.7200 177.8000,196.7200" fill="#25372f" stroke="#25372f" stroke-width="0.25"/><polygon points="142.3333,140.0667 142.3333,144.7600 140.3333,144.7600 140.3333,141.0667 140.3333,140.0667 142.3333,140.0667" fill="#25372f" stroke="#25372f" stroke-width="0.25"/><polygon points="142.3333,159.7867 142.3333,160.7867 140.3333,160.7867 140.3333,156.0933 142.3333,156.0933 142.3333,159.7867" fill="#25372f" stroke="#25372f" stroke-width="0.25"/><polygon points="141.3333,160.7867 140.3333,160.7867 140.3333,158.7867 177.8000,158.7867 177.8000,160.7867 141.3333,160.7867" fill="#25372f" stroke="#25372f" stroke-width="0.25"/><polygon points="142.3333,124.1200 142.3333,127.4267 140.3333,127.4267 140.3333,125.1200 140.3333,124.1200 142.3333,124.1200" fill="#25372f" stroke="#25372f" stroke-width="0.25"/><polygon points="142.3333,141.0667 142.3333,142.0667 140.3333,142.0667 140.3333,138.7600 142.3333,138.7600 142.3333,141.0667" fill="#25372f" stroke="#25372f" stroke-width="0.25"/><polygon points="141.3333,142.0667 140.3333,142.0667 140.3333,140.0667 177.8000,140.0667 177.8000,142.0667 141.3333,142.0667" fill="#25372f" stroke="#25372f" stroke-width="0.25"/><polygon points="141.3333,126.1200 140.3333,126.1200 140.3333,124.1200 177.8000,124.1200 177.8000,126.1200 141.3333,126.1200" fill="#25372f" stroke="#25372f" stroke-width="0.25"/><polygon points="177.8000,156.7200 177.8000,163.7867 174.7333,163.7867 174.7333,159.7867 174.7333,156.7200 177.8000,156.7200" fill="#25372f" stroke="#25372f" stroke-width="0.25"/><polygon points="177.8000,199.7867 174.7333,199.7867 174.7333,195.7867 177.8000,195.7867 177.8000,199.7867" fill="#25372f" stroke="#25372f" stroke-width="0.25"/><polygon points="174.7333,138.0000 177.8000,138.0000 177.8000,162.8533 174.7333,162.8533 174.7333,141.0667 174.7333,138.0000" fill="#25372f" stroke="#25372f" stroke-width="0.25"/><polygon points="174.7333,122.0533 177.8000,122.0533 177.8000,144.1333 174.7333,144.1333 174.7333,125.1200 174.7333,122.0533" fill="#25372f" stroke="#25372f" stroke-width="0.25"/><polygon points="174.7333,116.8400 177.8000,116.8400 177.8000,128.1867 174.7333,128.1867 174.7333,116.8400" fill="#25372f" stroke="#25372f" stroke-width="0.25"/><polygon points="174.7333,81.5467 177.8000,81.5467 177.8000,89.8267 174.7333,89.8267 174.7333,81.5467" fill="#25372f" stroke="#25372f" stroke-width="0.25"/><path d="M 89.4000 195.7867 L 89.4000 163.7867" fill="none" stroke="#657e77" stroke-width="0.16"/><path d="M 90.0667 195.7867 L 90.0667 163.7867" fill="none" stroke="#657e77" stroke-width="0.16"/><path d="M 101.2533 198.2533 L 101.2533 182.2533" fill="none" stroke="#25372f" stroke-width="0.18"/><polyline points="117.2533,198.2533 117.1987,196.9321 117.0351,195.6198 116.7637,194.3256 116.3864,193.0581 115.9057,191.8262 115.3249,190.6382 114.6480,189.5022 113.8796,188.4259 113.0249,187.4168 112.0898,186.4818 111.0807,185.6271 110.0045,184.8587 108.8685,184.1818 107.6805,183.6010 106.4485,183.1203 105.1811,182.7429 103.8868,182.4716 102.5746,182.3080 101.2533,182.2533" fill="none" stroke="#a8afa4" stroke-width="0.13"/><text x="109.2533" y="201.7200" fill="#25372f" font-size="2.066666666666667" text-anchor="middle">D002</text><path d="M 89.4000 151.9867 L 89.4000 132.9200" fill="none" stroke="#657e77" stroke-width="0.16"/><path d="M 90.0667 151.9867 L 90.0667 132.9200" fill="none" stroke="#657e77" stroke-width="0.16"/><text x="106.4400" y="163.2533" fill="#25372f" font-size="2.066666666666667" text-anchor="middle">D004</text><path d="M 89.4000 116.8400 L 89.4000 89.8267" fill="none" stroke="#657e77" stroke-width="0.16"/><path d="M 90.0667 116.8400 L 90.0667 89.8267" fill="none" stroke="#657e77" stroke-width="0.16"/><path d="M 114.3333 82.7467 L 151.6667 82.7467" fill="none" stroke="#657e77" stroke-width="0.16"/><path d="M 114.3333 83.4133 L 151.6667 83.4133" fill="none" stroke="#657e77" stroke-width="0.16"/><path d="M 126.6667 125.1200 L 126.6667 112.4533" fill="none" stroke="#25372f" stroke-width="0.18"/><polyline points="139.3333,125.1200 139.2901,124.0740 139.1606,123.0351 138.9457,122.0105 138.6470,121.0071 138.2665,120.0319 137.8067,119.0913 137.2708,118.1920 136.6624,117.3400 135.9858,116.5411 135.2456,115.8008 134.4467,115.1242 133.5947,114.5159 132.6953,113.9800 131.7548,113.5202 130.7795,113.1396 129.7761,112.8409 128.7515,112.6261 127.7127,112.4966 126.6667,112.4533" fill="none" stroke="#a8afa4" stroke-width="0.13"/><text x="133.0000" y="128.5867" fill="#25372f" font-size="2.066666666666667" text-anchor="middle">D007</text><path d="M 134.3067 198.5867 L 173.8000 198.5867" fill="none" stroke="#657e77" stroke-width="0.16"/><path d="M 134.3067 197.9200 L 173.8000 197.9200" fill="none" stroke="#657e77" stroke-width="0.16"/><path d="M 141.3333 156.0933 L 130.0000 156.0933" fill="none" stroke="#25372f" stroke-width="0.18"/><polyline points="141.3333,144.7600 140.3974,144.7987 139.4679,144.9146 138.5512,145.1068 137.6534,145.3741 136.7808,145.7146 135.9393,146.1260 135.1346,146.6054 134.3723,147.1497 133.6575,147.7551 132.9951,148.4175 132.3897,149.1323 131.8454,149.8946 131.3660,150.6993 130.9546,151.5408 130.6141,152.4134 130.3468,153.3112 130.1546,154.2279 130.0387,155.1574 130.0000,156.0933" fill="none" stroke="#a8afa4" stroke-width="0.13"/><text x="144.8000" y="150.4267" fill="#25372f" font-size="2.066666666666667" text-anchor="middle">D009</text><path d="M 141.3333 138.7600 L 130.0000 138.7600" fill="none" stroke="#25372f" stroke-width="0.18"/><polyline points="141.3333,127.4267 140.3974,127.4654 139.4679,127.5812 138.5512,127.7735 137.6534,128.0407 136.7808,128.3812 135.9393,128.7926 135.1346,129.2721 134.3723,129.8164 133.6575,130.4218 132.9951,131.0841 132.3897,131.7989 131.8454,132.5613 131.3660,133.3659 130.9546,134.2075 130.6141,135.0801 130.3468,135.9778 130.1546,136.8946 130.0387,137.8241 130.0000,138.7600" fill="none" stroke="#a8afa4" stroke-width="0.13"/><text x="144.8000" y="133.0933" fill="#25372f" font-size="2.066666666666667" text-anchor="middle">D010</text><path d="M 176.6000 195.7867 L 176.6000 163.7867" fill="none" stroke="#657e77" stroke-width="0.16"/><path d="M 175.9333 195.7867 L 175.9333 163.7867" fill="none" stroke="#657e77" stroke-width="0.16"/><path d="M 176.6000 155.1067 L 176.6000 145.7467" fill="none" stroke="#657e77" stroke-width="0.16" stroke-dasharray="1.2 .6"/><path d="M 175.9333 155.1067 L 175.9333 145.7467" fill="none" stroke="#657e77" stroke-width="0.16" stroke-dasharray="1.2 .6"/><path d="M 176.6000 137.4800 L 176.6000 128.7067" fill="none" stroke="#657e77" stroke-width="0.16" stroke-dasharray="1.2 .6"/><path d="M 175.9333 137.4800 L 175.9333 128.7067" fill="none" stroke="#657e77" stroke-width="0.16" stroke-dasharray="1.2 .6"/><path d="M 176.6000 116.8400 L 176.6000 89.8267" fill="none" stroke="#657e77" stroke-width="0.16"/><path d="M 175.9333 116.8400 L 175.9333 89.8267" fill="none" stroke="#657e77" stroke-width="0.16"/><polygon points="90.4400,211.7867 128.0667,211.7867 128.0667,199.7867 90.4400,199.7867" fill="none" stroke="#9e653f" stroke-width="0.3"/><text x="109.2533" y="213.3867" fill="#25372f" font-size="1.7333333333333334" text-anchor="middle">PORCH</text><polygon points="151.0000,200.7200 176.7333,200.7200 176.7333,199.7867 151.0000,199.7867" fill="none" stroke="#9e653f" stroke-width="0.3"/><text x="163.8667" y="202.3200" fill="#25372f" font-size="1.7333333333333334" text-anchor="middle">FEATURE_WALL</text><polygon points="126.1744,191.7387 126.1744,167.2053 104.7685,167.2053 104.7685,191.7387" fill="none" stroke="#a9afa6" stroke-width="0.12"/><polygon points="171.9333,193.2533 171.9333,163.4533 159.0000,163.4533 159.0000,193.2533" fill="none" stroke="#a9afa6" stroke-width="0.12"/><polygon points="154.4000,184.8087 154.4000,170.1420 144.4000,170.1420 144.4000,184.8087" fill="none" stroke="#a9afa6" stroke-width="0.12"/><polygon points="123.0000,157.9867 123.0000,148.9200 91.8000,148.9200 91.8000,157.9867" fill="none" stroke="#a9afa6" stroke-width="0.12"/><polygon points="168.8667,152.3333 168.8667,145.6667 159.2667,145.6667 159.2667,152.3333" fill="none" stroke="#a9afa6" stroke-width="0.12"/><polygon points="170.4667,158.2533 170.4667,147.9867 164.3333,147.9867 164.3333,158.2533" fill="none" stroke="#a9afa6" stroke-width="0.12"/><polygon points="173.4667,135.3200 173.4667,127.3200 164.8000,127.3200 164.8000,135.3200" fill="none" stroke="#a9afa6" stroke-width="0.12"/><polygon points="141.6667,123.0533 141.6667,94.2533 119.0000,94.2533 119.0000,123.0533" fill="none" stroke="#a9afa6" stroke-width="0.12"/><polygon points="114.6000,93.1467 114.6000,85.1467 91.9333,85.1467 91.9333,93.1467" fill="none" stroke="#a9afa6" stroke-width="0.12"/><text x="110.7867" y="178.0533" fill="#25372f" font-size="3.2666666666666666" text-anchor="middle">Dining</text><text x="110.7867" y="181.7867" fill="#25372f" font-size="2.3333333333333335" text-anchor="middle">7.9 m² | 85 ft²</text><text x="152.5200" y="178.0533" fill="#25372f" font-size="3.2666666666666666" text-anchor="middle">Living</text><text x="152.5200" y="181.7867" fill="#25372f" font-size="2.3333333333333335" text-anchor="middle">9.0 m² | 97 ft²</text><text x="133.0000" y="148.6933" fill="#25372f" font-size="3.2666666666666666" text-anchor="middle">Hall</text><text x="133.0000" y="152.4267" fill="#25372f" font-size="2.3333333333333335" text-anchor="middle">2.8 m² | 30 ft²</text><text x="107.4667" y="140.7200" fill="#25372f" font-size="3.2666666666666666" text-anchor="middle">Kitchen</text><text x="107.4667" y="144.4533" fill="#25372f" font-size="2.3333333333333335" text-anchor="middle">6.0 m² | 64 ft²</text><text x="107.4667" y="147.6533" fill="#25372f" font-size="2.1333333333333333" text-anchor="middle">2.43 × 2.45 m</text><text x="158.5333" y="148.6933" fill="#25372f" font-size="3.2666666666666666" text-anchor="middle">Bathroom</text><text x="158.5333" y="152.4267" fill="#25372f" font-size="2.3333333333333335" text-anchor="middle">3.0 m² | 33 ft²</text><text x="158.5333" y="155.6267" fill="#25372f" font-size="2.1333333333333333" text-anchor="middle">2.43 × 1.25 m</text><text x="158.5333" y="131.3600" fill="#25372f" font-size="3.2666666666666666" text-anchor="middle">Utility</text><text x="158.5333" y="135.0933" fill="#25372f" font-size="2.3333333333333335" text-anchor="middle">2.5 m² | 27 ft²</text><text x="133.0000" y="101.6000" fill="#25372f" font-size="3.2666666666666666" text-anchor="middle">Bedroom 1</text><text x="133.0000" y="105.3333" fill="#25372f" font-size="2.3333333333333335" text-anchor="middle">18.5 m² | 200 ft²</text><text x="133.0000" y="108.5333" fill="#25372f" font-size="2.1333333333333333" text-anchor="middle">6.26 × 2.96 m</text><path d="M 88.2000 199.7867 L 88.2000 209.1200" fill="none" stroke="#a8afa4" stroke-width="0.12"/><path d="M 177.8000 199.7867 L 177.8000 209.1200" fill="none" stroke="#a8afa4" stroke-width="0.12"/><path d="M 88.2000 209.1200 L 177.8000 209.1200" fill="none" stroke="#25372f" stroke-width="0.15"/><path d="M 87.4000 209.9200 L 89.0000 208.3200" fill="none" stroke="#25372f" stroke-width="0.2"/><path d="M 177.0000 209.9200 L 178.6000 208.3200" fill="none" stroke="#25372f" stroke-width="0.2"/><text x="133.0000" y="207.1200" fill="#25372f" font-size="2.6666666666666665" text-anchor="middle">6720</text><path d="M 177.8000 199.7867 L 189.1333 199.7867" fill="none" stroke="#a8afa4" stroke-width="0.12"/><path d="M 177.8000 81.5467 L 189.1333 81.5467" fill="none" stroke="#a8afa4" stroke-width="0.12"/><path d="M 189.1333 199.7867 L 189.1333 81.5467" fill="none" stroke="#25372f" stroke-width="0.15"/><path d="M 188.3333 200.5867 L 189.9333 198.9867" fill="none" stroke="#25372f" stroke-width="0.2"/><path d="M 188.3333 82.3467 L 189.9333 80.7467" fill="none" stroke="#25372f" stroke-width="0.2"/><text x="191.1333" y="140.6667" fill="#25372f" font-size="2.6666666666666665" text-anchor="start">8868</text><path d="M 88.2000 199.7867 L 88.2000 216.4533" fill="none" stroke="#a8afa4" stroke-width="0.12"/><path d="M 101.2533 199.7867 L 101.2533 216.4533" fill="none" stroke="#a8afa4" stroke-width="0.12"/><path d="M 88.2000 216.4533 L 101.2533 216.4533" fill="none" stroke="#25372f" stroke-width="0.15"/><path d="M 87.4000 217.2533 L 89.0000 215.6533" fill="none" stroke="#25372f" stroke-width="0.2"/><path d="M 100.4533 217.2533 L 102.0533 215.6533" fill="none" stroke="#25372f" stroke-width="0.2"/><text x="94.7267" y="214.4533" fill="#25372f" font-size="2.6666666666666665" text-anchor="middle">979</text><path d="M 101.2533 199.7867 L 101.2533 216.4533" fill="none" stroke="#a8afa4" stroke-width="0.12"/><path d="M 117.2533 199.7867 L 117.2533 216.4533" fill="none" stroke="#a8afa4" stroke-width="0.12"/><path d="M 101.2533 216.4533 L 117.2533 216.4533" fill="none" stroke="#25372f" stroke-width="0.15"/><path d="M 100.4533 217.2533 L 102.0533 215.6533" fill="none" stroke="#25372f" stroke-width="0.2"/><path d="M 116.4533 217.2533 L 118.0533 215.6533" fill="none" stroke="#25372f" stroke-width="0.2"/><text x="109.2533" y="214.4533" fill="#25372f" font-size="2.6666666666666665" text-anchor="middle">1200</text><path d="M 117.2533 199.7867 L 117.2533 216.4533" fill="none" stroke="#a8afa4" stroke-width="0.12"/><path d="M 134.3067 199.7867 L 134.3067 216.4533" fill="none" stroke="#a8afa4" stroke-width="0.12"/><path d="M 117.2533 216.4533 L 134.3067 216.4533" fill="none" stroke="#25372f" stroke-width="0.15"/><path d="M 116.4533 217.2533 L 118.0533 215.6533" fill="none" stroke="#25372f" stroke-width="0.2"/><path d="M 133.5067 217.2533 L 135.1067 215.6533" fill="none" stroke="#25372f" stroke-width="0.2"/><text x="125.7800" y="214.4533" fill="#25372f" font-size="2.6666666666666665" text-anchor="middle">1279</text><path d="M 134.3067 199.7867 L 134.3067 216.4533" fill="none" stroke="#a8afa4" stroke-width="0.12"/><path d="M 173.8000 199.7867 L 173.8000 216.4533" fill="none" stroke="#a8afa4" stroke-width="0.12"/><path d="M 134.3067 216.4533 L 173.8000 216.4533" fill="none" stroke="#25372f" stroke-width="0.15"/><path d="M 133.5067 217.2533 L 135.1067 215.6533" fill="none" stroke="#25372f" stroke-width="0.2"/><path d="M 173.0000 217.2533 L 174.6000 215.6533" fill="none" stroke="#25372f" stroke-width="0.2"/><text x="154.0533" y="214.4533" fill="#25372f" font-size="2.6666666666666665" text-anchor="middle">2962</text><path d="M 173.8000 199.7867 L 173.8000 216.4533" fill="none" stroke="#a8afa4" stroke-width="0.12"/><path d="M 177.8000 199.7867 L 177.8000 216.4533" fill="none" stroke="#a8afa4" stroke-width="0.12"/><path d="M 173.8000 216.4533 L 177.8000 216.4533" fill="none" stroke="#25372f" stroke-width="0.15"/><path d="M 173.0000 217.2533 L 174.6000 215.6533" fill="none" stroke="#25372f" stroke-width="0.2"/><path d="M 177.0000 217.2533 L 178.6000 215.6533" fill="none" stroke="#25372f" stroke-width="0.2"/><text x="175.8000" y="214.4533" fill="#25372f" font-size="2.6666666666666665" text-anchor="middle">300</text><path d="M 88.2000 81.5467 L 88.2000 72.8800" fill="none" stroke="#a8afa4" stroke-width="0.12"/><path d="M 177.8000 81.5467 L 177.8000 72.8800" fill="none" stroke="#a8afa4" stroke-width="0.12"/><path d="M 88.2000 72.8800 L 177.8000 72.8800" fill="none" stroke="#25372f" stroke-width="0.15"/><path d="M 87.4000 73.6800 L 89.0000 72.0800" fill="none" stroke="#25372f" stroke-width="0.2"/><path d="M 177.0000 73.6800 L 178.6000 72.0800" fill="none" stroke="#25372f" stroke-width="0.2"/><text x="133.0000" y="70.8800" fill="#25372f" font-size="2.6666666666666665" text-anchor="middle">6720</text><path d="M 72.2000 88.2133 L 72.2000 77.5467" fill="none" stroke="#25372f" stroke-width="0.45"/><text x="72.2000" y="73.5467" fill="#25372f" font-size="3.7333333333333334" text-anchor="middle">N</text><path d="M 250 42 V 256" stroke="#c9d0c7" stroke-width=".2"/><text x="261.0000" y="46.0000" fill="#25372f" font-size="3.8" text-anchor="start">The Verandah House</text><text x="261.0000" y="57.0000" fill="#25372f" font-size="2.35" text-anchor="start">SPACE</text><text x="330.0000" y="57.0000" fill="#25372f" font-size="2.35" text-anchor="start">CLEAR AREA</text><text x="367.0000" y="57.0000" fill="#25372f" font-size="2.35" text-anchor="start">SIZE / m</text><text x="261.0000" y="63.3000" fill="#25372f" font-size="2.2" text-anchor="start">Dining</text><text x="330.0000" y="63.3000" fill="#25372f" font-size="2.2" text-anchor="start">7.92 m2</text><text x="367.0000" y="63.3000" fill="#25372f" font-size="2.2" text-anchor="start">2.93 x 2.77</text><text x="261.0000" y="69.6000" fill="#25372f" font-size="2.2" text-anchor="start">Living</text><text x="330.0000" y="69.6000" fill="#25372f" font-size="2.2" text-anchor="start">9.04 m2</text><text x="367.0000" y="69.6000" fill="#25372f" font-size="2.2" text-anchor="start">3.33 x 2.77</text><text x="261.0000" y="75.9000" fill="#25372f" font-size="2.2" text-anchor="start">Hall</text><text x="330.0000" y="75.9000" fill="#25372f" font-size="2.2" text-anchor="start">2.78 m2</text><text x="367.0000" y="75.9000" fill="#25372f" font-size="2.2" text-anchor="start">1.10 x 2.52</text><text x="261.0000" y="82.2000" fill="#25372f" font-size="2.2" text-anchor="start">Kitchen</text><text x="330.0000" y="82.2000" fill="#25372f" font-size="2.2" text-anchor="start">5.95 m2</text><text x="367.0000" y="82.2000" fill="#25372f" font-size="2.2" text-anchor="start">2.43 x 2.45</text><text x="261.0000" y="88.5000" fill="#25372f" font-size="2.2" text-anchor="start">Bathroom</text><text x="330.0000" y="88.5000" fill="#25372f" font-size="2.2" text-anchor="start">3.05 m2</text><text x="367.0000" y="88.5000" fill="#25372f" font-size="2.2" text-anchor="start">2.43 x 1.25</text><text x="261.0000" y="94.8000" fill="#25372f" font-size="2.2" text-anchor="start">Utility</text><text x="330.0000" y="94.8000" fill="#25372f" font-size="2.2" text-anchor="start">2.54 m2</text><text x="367.0000" y="94.8000" fill="#25372f" font-size="2.2" text-anchor="start">2.43 x 1.05</text><text x="261.0000" y="101.1000" fill="#25372f" font-size="2.2" text-anchor="start">Bedroom 1</text><text x="330.0000" y="101.1000" fill="#25372f" font-size="2.2" text-anchor="start">18.55 m2</text><text x="367.0000" y="101.1000" fill="#25372f" font-size="2.2" text-anchor="start">6.26 x 2.96</text><text x="261.0000" y="150.0000" fill="#25372f" font-size="2.7" text-anchor="start">DRAWING NOTES</text><text x="261.0000" y="158.0000" fill="#25372f" font-size="2.25" text-anchor="start">All plan dimensions are millimetres.</text><text x="261.0000" y="164.8000" fill="#25372f" font-size="2.25" text-anchor="start">Clear areas exclude walls; open zones are named separately.</text><text x="261.0000" y="171.6000" fill="#25372f" font-size="2.25" text-anchor="start">Nominal door widths are not finished accessible clear</text><text x="261.0000" y="175.9000" fill="#25372f" font-size="2.25" text-anchor="start">widths.</text><text x="261.0000" y="182.7000" fill="#25372f" font-size="2.25" text-anchor="start">Above-cut windows are dashed. Furniture is schematic at</text><text x="261.0000" y="187.0000" fill="#25372f" font-size="2.25" text-anchor="start">true scale.</text><text x="261.0000" y="193.8000" fill="#25372f" font-size="2.25" text-anchor="start">No certified IS 962 or local code compliance is claimed.</text><text x="261.0000" y="244.0000" fill="#25372f" font-size="2.4" text-anchor="start">SCALE 1:75 AT A3 / CUT +1200 mm</text><text x="261.0000" y="251.0000" fill="#25372f" font-size="2.2" text-anchor="start">Dimensions govern; do not scale from a screen.</text><path d="M 22 259 H 75.33333333333334" stroke="#25372f" stroke-width=".6"/><path d="M 22.0 258 V 260" stroke="#25372f" stroke-width=".2"/><text x="22.0000" y="264.0000" fill="#25372f" font-size="1.9" text-anchor="middle">0 m</text><path d="M 48.66666666666667 258 V 260" stroke="#25372f" stroke-width=".2"/><text x="48.6667" y="264.0000" fill="#25372f" font-size="1.9" text-anchor="middle">2 m</text><path d="M 75.33333333333334 258 V 260" stroke="#25372f" stroke-width=".2"/><text x="75.3333" y="264.0000" fill="#25372f" font-size="1.9" text-anchor="middle">4 m</text><text x="17.0000" y="279.0000" fill="#8a4933" font-size="2.65" text-anchor="start">PRELIMINARY - ENGINEER TO REVIEW - NOT FOR CONSTRUCTION</text><text x="17.0000" y="286.0000" fill="#25372f" font-size="2.15" text-anchor="start">Reference design screen only. Survey, structure, services, byelaws and professional approval remain outstanding.</text><text x="403.0000" y="283.0000" fill="#25372f" font-size="2.35" text-anchor="end">A-101  |  420 x 297 mm</text></g></svg>