<svg xmlns="http://www.w3.org/2000/svg" width="420mm" height="297mm" viewBox="0 0 420 297"><rect width="420" height="297" fill="white"/><g font-family="Arial,Helvetica,sans-serif"><path d="M 16 31 H 404 M 16 271 H 404" stroke="#25372f" stroke-width=".35"/><text x="17.0000" y="17.0000" fill="#25372f" font-size="5.2" text-anchor="start">FLOORFORGE</text><text x="17.0000" y="25.0000" fill="#25372f" font-size="3.1" text-anchor="start">Right elevation</text><text x="403.0000" y="18.0000" fill="#25372f" font-size="5" text-anchor="end">A-204</text><text x="403.0000" y="25.0000" fill="#25372f" font-size="2.6" text-anchor="end">REV A / PRELIMINARY</text><polygon points="31.3200,184.5000 208.6800,184.5000 208.6800,100.5000 31.3200,100.5000" fill="#f2f0e7" stroke="#25372f" stroke-width="0.25"/><path d="M 31.3200 175.5000 L 208.6800 175.5000" fill="none" stroke="#25372f" stroke-width="0.35"/><path d="M 31.3200 112.5000 L 208.6800 112.5000" fill="none" stroke="#25372f" stroke-width="0.35"/><polygon points="37.3200,175.5000 85.3200,175.5000 85.3200,121.5000 37.3200,121.5000" fill="#dfe8e7" stroke="#25372f" stroke-width="0.25"/><path d="M 61.3200 175.5000 L 61.3200 121.5000" fill="none" stroke="#25372f" stroke-width="0.15"/><polygon points="98.3400,142.5000 112.3800,142.5000 112.3800,128.5000 98.3400,128.5000" fill="#dfe8e7" stroke="#25372f" stroke-width="0.25"/><polygon points="124.7800,140.5000 137.9400,140.5000 137.9400,128.5000 124.7800,128.5000" fill="#dfe8e7" stroke="#25372f" stroke-width="0.25"/><polygon points="155.7400,166.5000 196.2600,166.5000 196.2600,121.5000 155.7400,121.5000" fill="#dfe8e7" stroke="#25372f" stroke-width="0.25"/><path d="M 176.0000 166.5000 L 176.0000 121.5000" fill="none" stroke="#25372f" stroke-width="0.15"/><polygon points="29.9200,175.5000 31.3200,175.5000 31.3200,114.9000 29.9200,114.9000" fill="none" stroke="#9e653f" stroke-width="0.3"/><text x="30.6200" y="112.3000" fill="#25372f" font-size="2.6" text-anchor="middle">FEATURE_WALL</text><path d="M 31.3200 175.5000 L 31.3200 192.5000" fill="none" stroke="#a8afa4" stroke-width="0.12"/><path d="M 208.6800 175.5000 L 208.6800 192.5000" fill="none" stroke="#a8afa4" stroke-width="0.12"/><path d="M 31.3200 192.5000 L 208.6800 192.5000" fill="none" stroke="#25372f" stroke-width="0.15"/><path d="M 30.1200 193.7000 L 32.5200 191.3000" fill="none" stroke="#25372f" stroke-width="0.2"/><path d="M 207.4800 193.7000 L 209.8800 191.3000" fill="none" stroke="#25372f" stroke-width="0.2"/><text x="120.0000" y="189.5000" fill="#25372f" font-size="4.0" text-anchor="middle">8868</text><path d="M 208.6800 175.5000 L 222.6800 175.5000" fill="none" stroke="#a8afa4" stroke-width="0.12"/><path d="M 208.6800 112.5000 L 222.6800 112.5000" fill="none" stroke="#a8afa4" stroke-width="0.12"/><path d="M 222.6800 175.5000 L 222.6800 112.5000" fill="none" stroke="#25372f" stroke-width="0.15"/><path d="M 221.4800 176.7000 L 223.8800 174.3000" fill="none" stroke="#25372f" stroke-width="0.2"/><path d="M 221.4800 113.7000 L 223.8800 111.3000" fill="none" stroke="#25372f" stroke-width="0.2"/><text x="225.6800" y="144.0000" fill="#25372f" font-size="4.0" text-anchor="start">3150</text><path d="M 250 42 V 256" stroke="#c9d0c7" stroke-width=".2"/><text x="261.0000" y="46.0000" fill="#25372f" font-size="3.8" text-anchor="start">The Verandah House</text><text x="261.0000" y="150.0000" fill="#25372f" font-size="2.7" text-anchor="start">DRAWING NOTES</text><text x="261.0000" y="158.0000" fill="#25372f" font-size="2.25" text-anchor="start">Wall and opening heights derive from the building model.</text><text x="261.0000" y="164.8000" fill="#25372f" font-size="2.25" text-anchor="start">This elevation records the primary wall plane.</text><text x="261.0000" y="171.6000" fill="#25372f" font-size="2.25" text-anchor="start">Decorative facade accessories are coordinated in 3D, not</text><text x="261.0000" y="175.9000" fill="#25372f" font-size="2.25" text-anchor="start">fully detailed here.</text><text x="261.0000" y="182.7000" fill="#25372f" font-size="2.25" text-anchor="start">No cladding anchors or construction joints are designed.</text><text x="261.0000" y="244.0000" fill="#25372f" font-size="2.4" text-anchor="start">SCALE 1:50 AT A3 / CUT +1200 mm</text><text x="261.0000" y="251.0000" fill="#25372f" font-size="2.2" text-anchor="start">Dimensions govern; do not scale from a screen.</text><path d="M 22 259 H 102.0" stroke="#25372f" stroke-width=".6"/><path d="M 22.0 258 V 260" stroke="#25372f" stroke-width=".2"/><text x="22.0000" y="264.0000" fill="#25372f" font-size="1.9" text-anchor="middle">0 m</text><path d="M 62.0 258 V 260" stroke="#25372f" stroke-width=".2"/><text x="62.0000" y="264.0000" fill="#25372f" font-size="1.9" text-anchor="middle">2 m</text><path d="M 102.0 258 V 260" stroke="#25372f" stroke-width=".2"/><text x="102.0000" y="264.0000" fill="#25372f" font-size="1.9" text-anchor="middle">4 m</text><text x="17.0000" y="279.0000" fill="#8a4933" font-size="2.65" text-anchor="start">PRELIMINARY - ENGINEER TO REVIEW - NOT FOR CONSTRUCTION</text><text x="17.0000" y="286.0000" fill="#25372f" font-size="2.15" text-anchor="start">Reference design screen only. Survey, structure, services, byelaws and professional approval remain outstanding.</text><text x="403.0000" y="283.0000" fill="#25372f" font-size="2.35" text-anchor="end">A-204  |  420 x 297 mm</text></g></svg>