ISO-10303-21;
HEADER;
FILE_DESCRIPTION(('ViewDefinition [DesignTransferView]','PRELIMINARY - ENGINEER TO REVIEW'),'2;1');
FILE_NAME('FloorForge.ifc','2026-09-06T00:00:00',('FloorForge'),('FloorForge'),'FloorForge 0.2','FloorForge','');
FILE_SCHEMA(('IFC4'));
ENDSEC;
DATA;
#1=IFCCARTESIANPOINT((0.,0.,0.));
#2=IFCAXIS2PLACEMENT3D(#1,$,$);
#3=IFCLOCALPLACEMENT($,#2);
#4=IFCCARTESIANPOINT((0.,0.,0.));
#5=IFCAXIS2PLACEMENT3D(#4,$,$);
#6=IFCGEOMETRICREPRESENTATIONCONTEXT($,'Model',3,0.00001,#5,$);
#7=IFCSIUNIT(*,.LENGTHUNIT.,.MILLI.,.METRE.);
#8=IFCSIUNIT(*,.AREAUNIT.,$,.SQUARE_METRE.);
#9=IFCSIUNIT(*,.VOLUMEUNIT.,$,.CUBIC_METRE.);
#10=IFCSIUNIT(*,.PLANEANGLEUNIT.,$,.RADIAN.);
#11=IFCUNITASSIGNMENT((#7,#8,#9,#10));
#12=IFCPROJECT('2a2_X_ZHvSyuOfiZys31j4',$,'The Verandah House','PRELIMINARY - ENGINEER TO REVIEW - NOT FOR CONSTRUCTION',$,$,$,(#6),#11);
#13=IFCSITE('0IND1MtDfK1AbQ2nKV0Yfj',$,'Unsurveyed plot',$,$,#3,$,$,.ELEMENT.,$,$,$,$,$);
#14=IFCBUILDING('3d_qio$hPPbRLetmFAJFuc',$,'Preliminary house',$,$,#3,$,$,.ELEMENT.,$,$,$);
#15=IFCRELAGGREGATES('1ZAPOA5gXUm96CSQ6hMnFI',$,$,$,#12,(#13));
#16=IFCRELAGGREGATES('37xmt9XwzNWfTTFBKnonrr',$,$,$,#13,(#14));
#17=IFCCARTESIANPOINT((0.,0.,0.));
#18=IFCAXIS2PLACEMENT3D(#17,$,$);
#19=IFCLOCALPLACEMENT(#3,#18);
#20=IFCBUILDINGSTOREY('0HSym5oLvSJeN0iAUrC7hc',$,'Ground floor',$,$,#19,$,$,.ELEMENT.,0.);
#21=IFCRELAGGREGATES('0kttugR8vVchF2bevvlRNq',$,$,$,#14,(#20));
#22=IFCCARTESIANPOINT((230.,3680.));
#23=IFCCARTESIANPOINT((230.,0.));
#24=IFCCARTESIANPOINT((0.,0.));
#25=IFCCARTESIANPOINT((0.,3680.));
#26=IFCCARTESIANPOINT((230.,3680.));
#27=IFCPOLYLINE((#22,#23,#24,#25,#26));
#28=IFCARBITRARYCLOSEDPROFILEDEF(.AREA.,$,#27);
#29=IFCCARTESIANPOINT((0.,0.,0.));
#30=IFCAXIS2PLACEMENT3D(#29,$,$);
#31=IFCDIRECTION((0.,0.,1.));
#32=IFCEXTRUDEDAREASOLID(#28,#30,#31,3000.);
#33=IFCSHAPEREPRESENTATION(#6,'Body','SweptSolid',(#32));
#34=IFCPRODUCTDEFINITIONSHAPE($,$,(#33));
#35=IFCWALL('0IVxmT9WHJCvmO4yTMhDq6',$,'F0-W001','Nominal wall; structural role unverified',$,#19,#34,'F0-W001',.NOTDEFINED.);
#36=IFCCARTESIANPOINT((6720.,230.));
#37=IFCCARTESIANPOINT((6720.,0.));
#38=IFCCARTESIANPOINT((0.,0.));
#39=IFCCARTESIANPOINT((0.,230.));
#40=IFCCARTESIANPOINT((6720.,230.));
#41=IFCPOLYLINE((#36,#37,#38,#39,#40));
#42=IFCARBITRARYCLOSEDPROFILEDEF(.AREA.,$,#41);
#43=IFCCARTESIANPOINT((0.,0.,0.));
#44=IFCAXIS2PLACEMENT3D(#43,$,$);
#45=IFCDIRECTION((0.,0.,1.));
#46=IFCEXTRUDEDAREASOLID(#42,#44,#45,3000.);
#47=IFCSHAPEREPRESENTATION(#6,'Body','SweptSolid',(#46));
#48=IFCPRODUCTDEFINITIONSHAPE($,$,(#47));
#49=IFCWALL('0TSQyhba1V0PFSkMjjDO_o',$,'F0-W002','Nominal wall; structural role unverified',$,#19,#48,'F0-W002',.NOTDEFINED.);
#50=IFCCARTESIANPOINT((230.,7598.));
#51=IFCCARTESIANPOINT((230.,3450.));
#52=IFCCARTESIANPOINT((230.,3220.));
#53=IFCCARTESIANPOINT((0.,3220.));
#54=IFCCARTESIANPOINT((0.,7598.));
#55=IFCCARTESIANPOINT((230.,7598.));
#56=IFCPOLYLINE((#50,#51,#52,#53,#54,#55));
#57=IFCARBITRARYCLOSEDPROFILEDEF(.AREA.,$,#56);
#58=IFCCARTESIANPOINT((0.,0.,0.));
#59=IFCAXIS2PLACEMENT3D(#58,$,$);
#60=IFCDIRECTION((0.,0.,1.));
#61=IFCEXTRUDEDAREASOLID(#57,#59,#60,3000.);
#62=IFCSHAPEREPRESENTATION(#6,'Body','SweptSolid',(#61));
#63=IFCPRODUCTDEFINITIONSHAPE($,$,(#62));
#64=IFCWALL('3QVSBFFy9Us8E4XRB73Gwu',$,'F0-W003','Nominal wall; structural role unverified',$,#19,#63,'F0-W003',.NOTDEFINED.);
#65=IFCCARTESIANPOINT((2475.,3525.));
#66=IFCCARTESIANPOINT((2475.,3375.));
#67=IFCCARTESIANPOINT((0.,3375.));
#68=IFCCARTESIANPOINT((0.,3525.));
#69=IFCCARTESIANPOINT((2400.,3525.));
#70=IFCCARTESIANPOINT((2475.,3525.));
#71=IFCPOLYLINE((#65,#66,#67,#68,#69,#70));
#72=IFCARBITRARYCLOSEDPROFILEDEF(.AREA.,$,#71);
#73=IFCCARTESIANPOINT((0.,0.,0.));
#74=IFCAXIS2PLACEMENT3D(#73,$,$);
#75=IFCDIRECTION((0.,0.,1.));
#76=IFCEXTRUDEDAREASOLID(#72,#74,#75,3000.);
#77=IFCSHAPEREPRESENTATION(#6,'Body','SweptSolid',(#76));
#78=IFCPRODUCTDEFINITIONSHAPE($,$,(#77));
#79=IFCWALL('0PJjSfGODNdebqIYecH63i',$,'F0-W004','Nominal wall; structural role unverified',$,#19,#78,'F0-W004',.NOTDEFINED.);
#80=IFCCARTESIANPOINT((230.,7368.));
#81=IFCCARTESIANPOINT((230.,7138.));
#82=IFCCARTESIANPOINT((0.,7138.));
#83=IFCCARTESIANPOINT((0.,8868.));
#84=IFCCARTESIANPOINT((230.,8868.));
#85=IFCCARTESIANPOINT((230.,7368.));
#86=IFCPOLYLINE((#80,#81,#82,#83,#84,#85));
#87=IFCARBITRARYCLOSEDPROFILEDEF(.AREA.,$,#86);
#88=IFCCARTESIANPOINT((0.,0.,0.));
#89=IFCAXIS2PLACEMENT3D(#88,$,$);
#90=IFCDIRECTION((0.,0.,1.));
#91=IFCEXTRUDEDAREASOLID(#87,#89,#90,3000.);
#92=IFCSHAPEREPRESENTATION(#6,'Body','SweptSolid',(#91));
#93=IFCPRODUCTDEFINITIONSHAPE($,$,(#92));
#94=IFCWALL('3LMoYkeEzIL8GVdf85a_8L',$,'F0-W005','Nominal wall; structural role unverified',$,#19,#93,'F0-W005',.NOTDEFINED.);
#95=IFCCARTESIANPOINT((2475.,7443.));
#96=IFCCARTESIANPOINT((2475.,7293.));
#97=IFCCARTESIANPOINT((0.,7293.));
#98=IFCCARTESIANPOINT((0.,7443.));
#99=IFCCARTESIANPOINT((2400.,7443.));
#100=IFCCARTESIANPOINT((2475.,7443.));
#101=IFCPOLYLINE((#95,#96,#97,#98,#99,#100));
#102=IFCARBITRARYCLOSEDPROFILEDEF(.AREA.,$,#101);
#103=IFCCARTESIANPOINT((0.,0.,0.));
#104=IFCAXIS2PLACEMENT3D(#103,$,$);
#105=IFCDIRECTION((0.,0.,1.));
#106=IFCEXTRUDEDAREASOLID(#102,#104,#105,3000.);
#107=IFCSHAPEREPRESENTATION(#6,'Body','SweptSolid',(#106));
#108=IFCPRODUCTDEFINITIONSHAPE($,$,(#107));
#109=IFCWALL('3iOL1wIJDQswl$iiP3TE9s',$,'F0-W006','Nominal wall; structural role unverified',$,#19,#108,'F0-W006',.NOTDEFINED.);
#110=IFCCARTESIANPOINT((2630.,8638.));
#111=IFCCARTESIANPOINT((0.,8638.));
#112=IFCCARTESIANPOINT((0.,8868.));
#113=IFCCARTESIANPOINT((2630.,8868.));
#114=IFCCARTESIANPOINT((2630.,8638.));
#115=IFCPOLYLINE((#110,#111,#112,#113,#114));
#116=IFCARBITRARYCLOSEDPROFILEDEF(.AREA.,$,#115);
#117=IFCCARTESIANPOINT((0.,0.,0.));
#118=IFCAXIS2PLACEMENT3D(#117,$,$);
#119=IFCDIRECTION((0.,0.,1.));
#120=IFCEXTRUDEDAREASOLID(#116,#118,#119,3000.);
#121=IFCSHAPEREPRESENTATION(#6,'Body','SweptSolid',(#120));
#122=IFCPRODUCTDEFINITIONSHAPE($,$,(#121));
#123=IFCWALL('1fz8kV1F5UFP48E8Tc36oe',$,'F0-W007','Nominal wall; structural role unverified',$,#19,#122,'F0-W007',.NOTDEFINED.);
#124=IFCCARTESIANPOINT((2325.,6275.));
#125=IFCCARTESIANPOINT((2475.,6275.));
#126=IFCCARTESIANPOINT((2475.,3450.));
#127=IFCCARTESIANPOINT((2475.,3375.));
#128=IFCCARTESIANPOINT((2325.,3375.));
#129=IFCCARTESIANPOINT((2325.,6200.));
#130=IFCCARTESIANPOINT((2325.,6275.));
#131=IFCPOLYLINE((#124,#125,#126,#127,#128,#129,#130));
#132=IFCARBITRARYCLOSEDPROFILEDEF(.AREA.,$,#131);
#133=IFCCARTESIANPOINT((0.,0.,0.));
#134=IFCAXIS2PLACEMENT3D(#133,$,$);
#135=IFCDIRECTION((0.,0.,1.));
#136=IFCEXTRUDEDAREASOLID(#132,#134,#135,3000.);
#137=IFCSHAPEREPRESENTATION(#6,'Body','SweptSolid',(#136));
#138=IFCPRODUCTDEFINITIONSHAPE($,$,(#137));
#139=IFCWALL('3ju1qNjfrGGPYcuMRH7tIr',$,'F0-W008','Nominal wall; structural role unverified',$,#19,#138,'F0-W008',.NOTDEFINED.);
#140=IFCCARTESIANPOINT((2325.,7443.));
#141=IFCCARTESIANPOINT((2475.,7443.));
#142=IFCCARTESIANPOINT((2475.,6200.));
#143=IFCCARTESIANPOINT((2475.,6125.));
#144=IFCCARTESIANPOINT((2325.,6125.));
#145=IFCCARTESIANPOINT((2325.,7368.));
#146=IFCCARTESIANPOINT((2325.,7443.));
#147=IFCPOLYLINE((#140,#141,#142,#143,#144,#145,#146));
#148=IFCARBITRARYCLOSEDPROFILEDEF(.AREA.,$,#147);
#149=IFCCARTESIANPOINT((0.,0.,0.));
#150=IFCAXIS2PLACEMENT3D(#149,$,$);
#151=IFCDIRECTION((0.,0.,1.));
#152=IFCEXTRUDEDAREASOLID(#148,#150,#151,3000.);
#153=IFCSHAPEREPRESENTATION(#6,'Body','SweptSolid',(#152));
#154=IFCPRODUCTDEFINITIONSHAPE($,$,(#153));
#155=IFCWALL('06YW0W7unRDea7jva_Sw3T',$,'F0-W009','Nominal wall; structural role unverified',$,#19,#154,'F0-W009',.NOTDEFINED.);
#156=IFCCARTESIANPOINT((3825.,6275.));
#157=IFCCARTESIANPOINT((3825.,6125.));
#158=IFCCARTESIANPOINT((2400.,6125.));
#159=IFCCARTESIANPOINT((2325.,6125.));
#160=IFCCARTESIANPOINT((2325.,6275.));
#161=IFCCARTESIANPOINT((3750.,6275.));
#162=IFCCARTESIANPOINT((3825.,6275.));
#163=IFCPOLYLINE((#156,#157,#158,#159,#160,#161,#162));
#164=IFCARBITRARYCLOSEDPROFILEDEF(.AREA.,$,#163);
#165=IFCCARTESIANPOINT((0.,0.,0.));
#166=IFCAXIS2PLACEMENT3D(#165,$,$);
#167=IFCDIRECTION((0.,0.,1.));
#168=IFCEXTRUDEDAREASOLID(#164,#166,#167,3000.);
#169=IFCSHAPEREPRESENTATION(#6,'Body','SweptSolid',(#168));
#170=IFCPRODUCTDEFINITIONSHAPE($,$,(#169));
#171=IFCWALL('2tN8NEHAvLD9PsgSlbIGG9',$,'F0-W010','Nominal wall; structural role unverified',$,#19,#170,'F0-W010',.NOTDEFINED.);
#172=IFCCARTESIANPOINT((2475.,7368.));
#173=IFCCARTESIANPOINT((2475.,7293.));
#174=IFCCARTESIANPOINT((2325.,7293.));
#175=IFCCARTESIANPOINT((2325.,8868.));
#176=IFCCARTESIANPOINT((2475.,8868.));
#177=IFCCARTESIANPOINT((2475.,7368.));
#178=IFCPOLYLINE((#172,#173,#174,#175,#176,#177));
#179=IFCARBITRARYCLOSEDPROFILEDEF(.AREA.,$,#178);
#180=IFCCARTESIANPOINT((0.,0.,0.));
#181=IFCAXIS2PLACEMENT3D(#180,$,$);
#182=IFCDIRECTION((0.,0.,1.));
#183=IFCEXTRUDEDAREASOLID(#179,#181,#182,3000.);
#184=IFCSHAPEREPRESENTATION(#6,'Body','SweptSolid',(#183));
#185=IFCPRODUCTDEFINITIONSHAPE($,$,(#184));
#186=IFCWALL('0ivxzn$g5HEhhEmSR1GDGd',$,'F0-W011','Nominal wall; structural role unverified',$,#19,#185,'F0-W011',.NOTDEFINED.);
#187=IFCCARTESIANPOINT((3980.,8638.));
#188=IFCCARTESIANPOINT((2400.,8638.));
#189=IFCCARTESIANPOINT((2170.,8638.));
#190=IFCCARTESIANPOINT((2170.,8868.));
#191=IFCCARTESIANPOINT((3980.,8868.));
#192=IFCCARTESIANPOINT((3980.,8638.));
#193=IFCPOLYLINE((#187,#188,#189,#190,#191,#192));
#194=IFCARBITRARYCLOSEDPROFILEDEF(.AREA.,$,#193);
#195=IFCCARTESIANPOINT((0.,0.,0.));
#196=IFCAXIS2PLACEMENT3D(#195,$,$);
#197=IFCDIRECTION((0.,0.,1.));
#198=IFCEXTRUDEDAREASOLID(#194,#196,#197,3000.);
#199=IFCSHAPEREPRESENTATION(#6,'Body','SweptSolid',(#198));
#200=IFCPRODUCTDEFINITIONSHAPE($,$,(#199));
#201=IFCWALL('16H1kuuQ9ScADYvslbUNxH',$,'F0-W012','Nominal wall; structural role unverified',$,#19,#200,'F0-W012',.NOTDEFINED.);
#202=IFCCARTESIANPOINT((3675.,5025.));
#203=IFCCARTESIANPOINT((3825.,5025.));
#204=IFCCARTESIANPOINT((3825.,3450.));
#205=IFCCARTESIANPOINT((3825.,3375.));
#206=IFCCARTESIANPOINT((3675.,3375.));
#207=IFCCARTESIANPOINT((3675.,4950.));
#208=IFCCARTESIANPOINT((3675.,5025.));
#209=IFCPOLYLINE((#202,#203,#204,#205,#206,#207,#208));
#210=IFCARBITRARYCLOSEDPROFILEDEF(.AREA.,$,#209);
#211=IFCCARTESIANPOINT((0.,0.,0.));
#212=IFCAXIS2PLACEMENT3D(#211,$,$);
#213=IFCDIRECTION((0.,0.,1.));
#214=IFCEXTRUDEDAREASOLID(#210,#212,#213,3000.);
#215=IFCSHAPEREPRESENTATION(#6,'Body','SweptSolid',(#214));
#216=IFCPRODUCTDEFINITIONSHAPE($,$,(#215));
#217=IFCWALL('1ydUaloefQtBYdv9UaoSdn',$,'F0-W013','Nominal wall; structural role unverified',$,#19,#216,'F0-W013',.NOTDEFINED.);
#218=IFCCARTESIANPOINT((3750.,3375.));
#219=IFCCARTESIANPOINT((3675.,3375.));
#220=IFCCARTESIANPOINT((3675.,3525.));
#221=IFCCARTESIANPOINT((6720.,3525.));
#222=IFCCARTESIANPOINT((6720.,3375.));
#223=IFCCARTESIANPOINT((3750.,3375.));
#224=IFCPOLYLINE((#218,#219,#220,#221,#222,#223));
#225=IFCARBITRARYCLOSEDPROFILEDEF(.AREA.,$,#224);
#226=IFCCARTESIANPOINT((0.,0.,0.));
#227=IFCAXIS2PLACEMENT3D(#226,$,$);
#228=IFCDIRECTION((0.,0.,1.));
#229=IFCEXTRUDEDAREASOLID(#225,#227,#228,3000.);
#230=IFCSHAPEREPRESENTATION(#6,'Body','SweptSolid',(#229));
#231=IFCPRODUCTDEFINITIONSHAPE($,$,(#230));
#232=IFCWALL('0S2gSq8H9M0e76hpbjgiTy',$,'F0-W014','Nominal wall; structural role unverified',$,#19,#231,'F0-W014',.NOTDEFINED.);
#233=IFCCARTESIANPOINT((3675.,6275.));
#234=IFCCARTESIANPOINT((3825.,6275.));
#235=IFCCARTESIANPOINT((3825.,4950.));
#236=IFCCARTESIANPOINT((3825.,4875.));
#237=IFCCARTESIANPOINT((3675.,4875.));
#238=IFCCARTESIANPOINT((3675.,6200.));
#239=IFCCARTESIANPOINT((3675.,6275.));
#240=IFCPOLYLINE((#233,#234,#235,#236,#237,#238,#239));
#241=IFCARBITRARYCLOSEDPROFILEDEF(.AREA.,$,#240);
#242=IFCCARTESIANPOINT((0.,0.,0.));
#243=IFCAXIS2PLACEMENT3D(#242,$,$);
#244=IFCDIRECTION((0.,0.,1.));
#245=IFCEXTRUDEDAREASOLID(#241,#243,#244,3000.);
#246=IFCSHAPEREPRESENTATION(#6,'Body','SweptSolid',(#245));
#247=IFCPRODUCTDEFINITIONSHAPE($,$,(#246));
#248=IFCWALL('3ND9WpBWbJZBBeOfT_Whcx',$,'F0-W015','Nominal wall; structural role unverified',$,#19,#247,'F0-W015',.NOTDEFINED.);
#249=IFCCARTESIANPOINT((3750.,4875.));
#250=IFCCARTESIANPOINT((3675.,4875.));
#251=IFCCARTESIANPOINT((3675.,5025.));
#252=IFCCARTESIANPOINT((6720.,5025.));
#253=IFCCARTESIANPOINT((6720.,4875.));
#254=IFCCARTESIANPOINT((3750.,4875.));
#255=IFCPOLYLINE((#249,#250,#251,#252,#253,#254));
#256=IFCARBITRARYCLOSEDPROFILEDEF(.AREA.,$,#255);
#257=IFCCARTESIANPOINT((0.,0.,0.));
#258=IFCAXIS2PLACEMENT3D(#257,$,$);
#259=IFCDIRECTION((0.,0.,1.));
#260=IFCEXTRUDEDAREASOLID(#256,#258,#259,3000.);
#261=IFCSHAPEREPRESENTATION(#6,'Body','SweptSolid',(#260));
#262=IFCPRODUCTDEFINITIONSHAPE($,$,(#261));
#263=IFCWALL('2ijZhWXNvGvx$EwOMaQUYr',$,'F0-W016','Nominal wall; structural role unverified',$,#19,#262,'F0-W016',.NOTDEFINED.);
#264=IFCCARTESIANPOINT((3825.,6200.));
#265=IFCCARTESIANPOINT((3825.,6125.));
#266=IFCCARTESIANPOINT((3675.,6125.));
#267=IFCCARTESIANPOINT((3675.,8868.));
#268=IFCCARTESIANPOINT((3825.,8868.));
#269=IFCCARTESIANPOINT((3825.,6200.));
#270=IFCPOLYLINE((#264,#265,#266,#267,#268,#269));
#271=IFCARBITRARYCLOSEDPROFILEDEF(.AREA.,$,#270);
#272=IFCCARTESIANPOINT((0.,0.,0.));
#273=IFCAXIS2PLACEMENT3D(#272,$,$);
#274=IFCDIRECTION((0.,0.,1.));
#275=IFCEXTRUDEDAREASOLID(#271,#273,#274,3000.);
#276=IFCSHAPEREPRESENTATION(#6,'Body','SweptSolid',(#275));
#277=IFCPRODUCTDEFINITIONSHAPE($,$,(#276));
#278=IFCWALL('26gewieb5JKPPzJu1Do1Ly',$,'F0-W017','Nominal wall; structural role unverified',$,#19,#277,'F0-W017',.NOTDEFINED.);
#279=IFCCARTESIANPOINT((3750.,8638.));
#280=IFCCARTESIANPOINT((3520.,8638.));
#281=IFCCARTESIANPOINT((3520.,8868.));
#282=IFCCARTESIANPOINT((6720.,8868.));
#283=IFCCARTESIANPOINT((6720.,8638.));
#284=IFCCARTESIANPOINT((3750.,8638.));
#285=IFCPOLYLINE((#279,#280,#281,#282,#283,#284));
#286=IFCARBITRARYCLOSEDPROFILEDEF(.AREA.,$,#285);
#287=IFCCARTESIANPOINT((0.,0.,0.));
#288=IFCAXIS2PLACEMENT3D(#287,$,$);
#289=IFCDIRECTION((0.,0.,1.));
#290=IFCEXTRUDEDAREASOLID(#286,#288,#289,3000.);
#291=IFCSHAPEREPRESENTATION(#6,'Body','SweptSolid',(#290));
#292=IFCPRODUCTDEFINITIONSHAPE($,$,(#291));
#293=IFCWALL('1Oq9yWGyXK$hECrhRYMRza',$,'F0-W018','Nominal wall; structural role unverified',$,#19,#292,'F0-W018',.NOTDEFINED.);
#294=IFCCARTESIANPOINT((6490.,3680.));
#295=IFCCARTESIANPOINT((6720.,3680.));
#296=IFCCARTESIANPOINT((6720.,0.));
#297=IFCCARTESIANPOINT((6490.,0.));
#298=IFCCARTESIANPOINT((6490.,3450.));
#299=IFCCARTESIANPOINT((6490.,3680.));
#300=IFCPOLYLINE((#294,#295,#296,#297,#298,#299));
#301=IFCARBITRARYCLOSEDPROFILEDEF(.AREA.,$,#300);
#302=IFCCARTESIANPOINT((0.,0.,0.));
#303=IFCAXIS2PLACEMENT3D(#302,$,$);
#304=IFCDIRECTION((0.,0.,1.));
#305=IFCEXTRUDEDAREASOLID(#301,#303,#304,3000.);
#306=IFCSHAPEREPRESENTATION(#6,'Body','SweptSolid',(#305));
#307=IFCPRODUCTDEFINITIONSHAPE($,$,(#306));
#308=IFCWALL('2cM74skKLVFAYu59P2N9UQ',$,'F0-W019','Nominal wall; structural role unverified',$,#19,#307,'F0-W019',.NOTDEFINED.);
#309=IFCCARTESIANPOINT((6490.,5180.));
#310=IFCCARTESIANPOINT((6720.,5180.));
#311=IFCCARTESIANPOINT((6720.,3220.));
#312=IFCCARTESIANPOINT((6490.,3220.));
#313=IFCCARTESIANPOINT((6490.,4950.));
#314=IFCCARTESIANPOINT((6490.,5180.));
#315=IFCPOLYLINE((#309,#310,#311,#312,#313,#314));
#316=IFCARBITRARYCLOSEDPROFILEDEF(.AREA.,$,#315);
#317=IFCCARTESIANPOINT((0.,0.,0.));
#318=IFCAXIS2PLACEMENT3D(#317,$,$);
#319=IFCDIRECTION((0.,0.,1.));
#320=IFCEXTRUDEDAREASOLID(#316,#318,#319,3000.);
#321=IFCSHAPEREPRESENTATION(#6,'Body','SweptSolid',(#320));
#322=IFCPRODUCTDEFINITIONSHAPE($,$,(#321));
#323=IFCWALL('0pNWN9FzvTIOJuzlKks9tQ',$,'F0-W020','Nominal wall; structural role unverified',$,#19,#322,'F0-W020',.NOTDEFINED.);
#324=IFCCARTESIANPOINT((6490.,4720.));
#325=IFCCARTESIANPOINT((6490.,8868.));
#326=IFCCARTESIANPOINT((6720.,8868.));
#327=IFCCARTESIANPOINT((6720.,4720.));
#328=IFCCARTESIANPOINT((6490.,4720.));
#329=IFCPOLYLINE((#324,#325,#326,#327,#328));
#330=IFCARBITRARYCLOSEDPROFILEDEF(.AREA.,$,#329);
#331=IFCCARTESIANPOINT((0.,0.,0.));
#332=IFCAXIS2PLACEMENT3D(#331,$,$);
#333=IFCDIRECTION((0.,0.,1.));
#334=IFCEXTRUDEDAREASOLID(#330,#332,#333,3000.);
#335=IFCSHAPEREPRESENTATION(#6,'Body','SweptSolid',(#334));
#336=IFCPRODUCTDEFINITIONSHAPE($,$,(#335));
#337=IFCWALL('2zSG5dLnfR0B16O$sDmNHN',$,'F0-W021','Nominal wall; structural role unverified',$,#19,#336,'F0-W021',.NOTDEFINED.);
#338=IFCCARTESIANPOINT((3675.,3450.));
#339=IFCCARTESIANPOINT((3675.,3375.));
#340=IFCCARTESIANPOINT((3750.,3375.));
#341=IFCCARTESIANPOINT((3825.,3375.));
#342=IFCCARTESIANPOINT((6490.,3375.));
#343=IFCCARTESIANPOINT((6490.,3220.));
#344=IFCCARTESIANPOINT((6490.,230.));
#345=IFCCARTESIANPOINT((230.,230.));
#346=IFCCARTESIANPOINT((230.,3220.));
#347=IFCCARTESIANPOINT((230.,3375.));
#348=IFCCARTESIANPOINT((2325.,3375.));
#349=IFCCARTESIANPOINT((2475.,3375.));
#350=IFCCARTESIANPOINT((2475.,3450.));
#351=IFCCARTESIANPOINT((3675.,3450.));
#352=IFCPOLYLINE((#338,#339,#340,#341,#342,#343,#344,#345,#346,#347,#348,#349,#350,#351));
#353=IFCARBITRARYCLOSEDPROFILEDEF(.AREA.,$,#352);
#354=IFCCARTESIANPOINT((0.,0.,0.));
#355=IFCAXIS2PLACEMENT3D(#354,$,$);
#356=IFCDIRECTION((0.,0.,1.));
#357=IFCEXTRUDEDAREASOLID(#353,#355,#356,3000.);
#358=IFCSHAPEREPRESENTATION(#6,'Body','SweptSolid',(#357));
#359=IFCPRODUCTDEFINITIONSHAPE($,$,(#358));
#360=IFCSPACE('1iUUA1MxXRXRgbMX6a5t7r',$,'Living & dining','Clear-space study volume',$,#19,#359,'F0-living',.ELEMENT.,.NOTDEFINED.,$);
#361=IFCCARTESIANPOINT((2475.,3450.));
#362=IFCCARTESIANPOINT((2475.,3525.));
#363=IFCCARTESIANPOINT((2475.,6125.));
#364=IFCCARTESIANPOINT((3675.,6125.));
#365=IFCCARTESIANPOINT((3675.,5025.));
#366=IFCCARTESIANPOINT((3675.,4950.));
#367=IFCCARTESIANPOINT((3675.,4875.));
#368=IFCCARTESIANPOINT((3675.,3525.));
#369=IFCCARTESIANPOINT((3675.,3450.));
#370=IFCCARTESIANPOINT((2475.,3450.));
#371=IFCPOLYLINE((#361,#362,#363,#364,#365,#366,#367,#368,#369,#370));
#372=IFCARBITRARYCLOSEDPROFILEDEF(.AREA.,$,#371);
#373=IFCCARTESIANPOINT((0.,0.,0.));
#374=IFCAXIS2PLACEMENT3D(#373,$,$);
#375=IFCDIRECTION((0.,0.,1.));
#376=IFCEXTRUDEDAREASOLID(#372,#374,#375,3000.);
#377=IFCSHAPEREPRESENTATION(#6,'Body','SweptSolid',(#376));
#378=IFCPRODUCTDEFINITIONSHAPE($,$,(#377));
#379=IFCSPACE('3syy0l4frVtQFGMQtu9JVj',$,'Hall','Clear-space study volume',$,#19,#378,'F0-hall',.ELEMENT.,.NOTDEFINED.,$);
#380=IFCCARTESIANPOINT((2325.,6125.));
#381=IFCCARTESIANPOINT((2325.,3525.));
#382=IFCCARTESIANPOINT((230.,3525.));
#383=IFCCARTESIANPOINT((230.,3680.));
#384=IFCCARTESIANPOINT((230.,7138.));
#385=IFCCARTESIANPOINT((230.,7293.));
#386=IFCCARTESIANPOINT((2325.,7293.));
#387=IFCCARTESIANPOINT((2325.,6275.));
#388=IFCCARTESIANPOINT((2325.,6200.));
#389=IFCCARTESIANPOINT((2325.,6125.));
#390=IFCPOLYLINE((#380,#381,#382,#383,#384,#385,#386,#387,#388,#389));
#391=IFCARBITRARYCLOSEDPROFILEDEF(.AREA.,$,#390);
#392=IFCCARTESIANPOINT((0.,0.,0.));
#393=IFCAXIS2PLACEMENT3D(#392,$,$);
#394=IFCDIRECTION((0.,0.,1.));
#395=IFCEXTRUDEDAREASOLID(#391,#393,#394,3000.);
#396=IFCSHAPEREPRESENTATION(#6,'Body','SweptSolid',(#395));
#397=IFCPRODUCTDEFINITIONSHAPE($,$,(#396));
#398=IFCSPACE('1CHRqV8bTJpOO7SSK0k3zZ',$,'Kitchen','Clear-space study volume',$,#19,#397,'F0-kitchen',.ELEMENT.,.NOTDEFINED.,$);
#399=IFCCARTESIANPOINT((230.,7443.));
#400=IFCCARTESIANPOINT((230.,7598.));
#401=IFCCARTESIANPOINT((230.,8638.));
#402=IFCCARTESIANPOINT((2170.,8638.));
#403=IFCCARTESIANPOINT((2325.,8638.));
#404=IFCCARTESIANPOINT((2325.,7443.));
#405=IFCCARTESIANPOINT((230.,7443.));
#406=IFCPOLYLINE((#399,#400,#401,#402,#403,#404,#405));
#407=IFCARBITRARYCLOSEDPROFILEDEF(.AREA.,$,#406);
#408=IFCCARTESIANPOINT((0.,0.,0.));
#409=IFCAXIS2PLACEMENT3D(#408,$,$);
#410=IFCDIRECTION((0.,0.,1.));
#411=IFCEXTRUDEDAREASOLID(#407,#409,#410,3000.);
#412=IFCSHAPEREPRESENTATION(#6,'Body','SweptSolid',(#411));
#413=IFCPRODUCTDEFINITIONSHAPE($,$,(#412));
#414=IFCSPACE('3wbK3RxKnHfg5hY43y9prE',$,'Utility','Clear-space study volume',$,#19,#413,'F0-utility',.ELEMENT.,.NOTDEFINED.,$);
#415=IFCCARTESIANPOINT((3825.,3525.));
#416=IFCCARTESIANPOINT((3825.,4875.));
#417=IFCCARTESIANPOINT((6490.,4875.));
#418=IFCCARTESIANPOINT((6490.,4720.));
#419=IFCCARTESIANPOINT((6490.,3680.));
#420=IFCCARTESIANPOINT((6490.,3525.));
#421=IFCCARTESIANPOINT((3825.,3525.));
#422=IFCPOLYLINE((#415,#416,#417,#418,#419,#420,#421));
#423=IFCARBITRARYCLOSEDPROFILEDEF(.AREA.,$,#422);
#424=IFCCARTESIANPOINT((0.,0.,0.));
#425=IFCAXIS2PLACEMENT3D(#424,$,$);
#426=IFCDIRECTION((0.,0.,1.));
#427=IFCEXTRUDEDAREASOLID(#423,#425,#426,3000.);
#428=IFCSHAPEREPRESENTATION(#6,'Body','SweptSolid',(#427));
#429=IFCPRODUCTDEFINITIONSHAPE($,$,(#428));
#430=IFCSPACE('1xfocFzIXLkRe4QNPF6IgP',$,'Common bath','Clear-space study volume',$,#19,#429,'F0-cbath',.ELEMENT.,.NOTDEFINED.,$);
#431=IFCCARTESIANPOINT((3825.,6275.));
#432=IFCCARTESIANPOINT((3825.,8638.));
#433=IFCCARTESIANPOINT((3980.,8638.));
#434=IFCCARTESIANPOINT((6490.,8638.));
#435=IFCCARTESIANPOINT((6490.,5180.));
#436=IFCCARTESIANPOINT((6490.,5025.));
#437=IFCCARTESIANPOINT((3825.,5025.));
#438=IFCCARTESIANPOINT((3825.,6125.));
#439=IFCCARTESIANPOINT((3825.,6200.));
#440=IFCCARTESIANPOINT((3825.,6275.));
#441=IFCPOLYLINE((#431,#432,#433,#434,#435,#436,#437,#438,#439,#440));
#442=IFCARBITRARYCLOSEDPROFILEDEF(.AREA.,$,#441);
#443=IFCCARTESIANPOINT((0.,0.,0.));
#444=IFCAXIS2PLACEMENT3D(#443,$,$);
#445=IFCDIRECTION((0.,0.,1.));
#446=IFCEXTRUDEDAREASOLID(#442,#444,#445,3000.);
#447=IFCSHAPEREPRESENTATION(#6,'Body','SweptSolid',(#446));
#448=IFCPRODUCTDEFINITIONSHAPE($,$,(#447));
#449=IFCSPACE('1FNxVE3RnRIxXv8Dx6bZ$3',$,'Master bedroom','Clear-space study volume',$,#19,#448,'F0-bed-m',.ELEMENT.,.NOTDEFINED.,$);
#450=IFCCARTESIANPOINT((2630.,8638.));
#451=IFCCARTESIANPOINT((3520.,8638.));
#452=IFCCARTESIANPOINT((3675.,8638.));
#453=IFCCARTESIANPOINT((3675.,6275.));
#454=IFCCARTESIANPOINT((2475.,6275.));
#455=IFCCARTESIANPOINT((2475.,7293.));
#456=IFCCARTESIANPOINT((2475.,7368.));
#457=IFCCARTESIANPOINT((2475.,7443.));
#458=IFCCARTESIANPOINT((2475.,8638.));
#459=IFCCARTESIANPOINT((2630.,8638.));
#460=IFCPOLYLINE((#450,#451,#452,#453,#454,#455,#456,#457,#458,#459));
#461=IFCARBITRARYCLOSEDPROFILEDEF(.AREA.,$,#460);
#462=IFCCARTESIANPOINT((0.,0.,0.));
#463=IFCAXIS2PLACEMENT3D(#462,$,$);
#464=IFCDIRECTION((0.,0.,1.));
#465=IFCEXTRUDEDAREASOLID(#461,#463,#464,3000.);
#466=IFCSHAPEREPRESENTATION(#6,'Body','SweptSolid',(#465));
#467=IFCPRODUCTDEFINITIONSHAPE($,$,(#466));
#468=IFCSPACE('1QS31UddTPLv8AtQ9UIc6r',$,'Master bath','Clear-space study volume',$,#19,#467,'F0-bath-m',.ELEMENT.,.NOTDEFINED.,$);
#469=IFCCARTESIANPOINT((4200.,7159.));
#470=IFCCARTESIANPOINT((4200.,7909.));
#471=IFCCARTESIANPOINT((3300.,7909.));
#472=IFCCARTESIANPOINT((3300.,7159.));
#473=IFCCARTESIANPOINT((4200.,7159.));
#474=IFCPOLYLINE((#469,#470,#471,#472,#473));
#475=IFCARBITRARYCLOSEDPROFILEDEF(.AREA.,$,#474);
#476=IFCCARTESIANPOINT((0.,0.,0.));
#477=IFCAXIS2PLACEMENT3D(#476,$,$);
#478=IFCDIRECTION((0.,0.,1.));
#479=IFCEXTRUDEDAREASOLID(#475,#477,#478,2100.);
#480=IFCSHAPEREPRESENTATION(#6,'Body','SweptSolid',(#479));
#481=IFCPRODUCTDEFINITIONSHAPE($,$,(#480));
#482=IFCOPENINGELEMENT('1xW1t1f1DMpuTSXL9IYfJp',$,'F0-D001','Nominal door aperture',$,#19,#481,'F0-D001',.OPENING.);
#483=IFCRELVOIDSELEMENT('1WtEEe77DMHvgRO_qPW65r',$,$,$,#278,#482);
#484=IFCCARTESIANPOINT((4200.,5100.));
#485=IFCCARTESIANPOINT((4200.,6000.));
#486=IFCCARTESIANPOINT((3300.,6000.));
#487=IFCCARTESIANPOINT((3300.,5100.));
#488=IFCCARTESIANPOINT((4200.,5100.));
#489=IFCPOLYLINE((#484,#485,#486,#487,#488));
#490=IFCARBITRARYCLOSEDPROFILEDEF(.AREA.,$,#489);
#491=IFCCARTESIANPOINT((0.,0.,0.));
#492=IFCAXIS2PLACEMENT3D(#491,$,$);
#493=IFCDIRECTION((0.,0.,1.));
#494=IFCEXTRUDEDAREASOLID(#490,#492,#493,2100.);
#495=IFCSHAPEREPRESENTATION(#6,'Body','SweptSolid',(#494));
#496=IFCPRODUCTDEFINITIONSHAPE($,$,(#495));
#497=IFCOPENINGELEMENT('25P_f5R$DJA8a$BVn965V9',$,'F0-D002','Nominal door aperture',$,#19,#496,'F0-D002',.OPENING.);
#498=IFCRELVOIDSELEMENT('20NTvaOR9SGOdGbAkawkUT',$,$,$,#248,#497);
#499=IFCCARTESIANPOINT((4200.,3600.));
#500=IFCCARTESIANPOINT((4200.,4350.));
#501=IFCCARTESIANPOINT((3300.,4350.));
#502=IFCCARTESIANPOINT((3300.,3600.));
#503=IFCCARTESIANPOINT((4200.,3600.));
#504=IFCPOLYLINE((#499,#500,#501,#502,#503));
#505=IFCARBITRARYCLOSEDPROFILEDEF(.AREA.,$,#504);
#506=IFCCARTESIANPOINT((0.,0.,0.));
#507=IFCAXIS2PLACEMENT3D(#506,$,$);
#508=IFCDIRECTION((0.,0.,1.));
#509=IFCEXTRUDEDAREASOLID(#505,#507,#508,2100.);
#510=IFCSHAPEREPRESENTATION(#6,'Body','SweptSolid',(#509));
#511=IFCPRODUCTDEFINITIONSHAPE($,$,(#510));
#512=IFCOPENINGELEMENT('0u5tgTaLLRWxI1lgmK27jB',$,'F0-D003','Nominal door aperture',$,#19,#511,'F0-D003',.OPENING.);
#513=IFCRELVOIDSELEMENT('2v5INTrOjPqvLN0$$SOsLE',$,$,$,#217,#512);
#514=IFCCARTESIANPOINT((450.,3000.));
#515=IFCCARTESIANPOINT((1950.,3000.));
#516=IFCCARTESIANPOINT((1950.,3900.));
#517=IFCCARTESIANPOINT((450.,3900.));
#518=IFCCARTESIANPOINT((450.,3000.));
#519=IFCPOLYLINE((#514,#515,#516,#517,#518));
#520=IFCARBITRARYCLOSEDPROFILEDEF(.AREA.,$,#519);
#521=IFCCARTESIANPOINT((0.,0.,0.));
#522=IFCAXIS2PLACEMENT3D(#521,$,$);
#523=IFCDIRECTION((0.,0.,1.));
#524=IFCEXTRUDEDAREASOLID(#520,#522,#523,2100.);
#525=IFCSHAPEREPRESENTATION(#6,'Body','SweptSolid',(#524));
#526=IFCPRODUCTDEFINITIONSHAPE($,$,(#525));
#527=IFCOPENINGELEMENT('0nlfNBW09MbQa_MMZWa91N',$,'F0-D004','Nominal cased aperture',$,#19,#526,'F0-D004',.OPENING.);
#528=IFCRELVOIDSELEMENT('0bhaqcqEPO99GXETE$ks7e',$,$,$,#79,#527);
#529=IFCCARTESIANPOINT((1500.,6918.));
#530=IFCCARTESIANPOINT((2250.,6918.));
#531=IFCCARTESIANPOINT((2250.,7818.));
#532=IFCCARTESIANPOINT((1500.,7818.));
#533=IFCCARTESIANPOINT((1500.,6918.));
#534=IFCPOLYLINE((#529,#530,#531,#532,#533));
#535=IFCARBITRARYCLOSEDPROFILEDEF(.AREA.,$,#534);
#536=IFCCARTESIANPOINT((0.,0.,0.));
#537=IFCAXIS2PLACEMENT3D(#536,$,$);
#538=IFCDIRECTION((0.,0.,1.));
#539=IFCEXTRUDEDAREASOLID(#535,#537,#538,2100.);
#540=IFCSHAPEREPRESENTATION(#6,'Body','SweptSolid',(#539));
#541=IFCPRODUCTDEFINITIONSHAPE($,$,(#540));
#542=IFCOPENINGELEMENT('2hnI07_GvR5Oq3$AVau8yV',$,'F0-D005','Nominal door aperture',$,#19,#541,'F0-D005',.OPENING.);
#543=IFCRELVOIDSELEMENT('0JvVEVokLO4uPe1pxnstts',$,$,$,#109,#542);
#544=IFCCARTESIANPOINT((645.,375.));
#545=IFCCARTESIANPOINT((645.,3075.));
#546=IFCCARTESIANPOINT((-415.,3075.));
#547=IFCCARTESIANPOINT((-415.,375.));
#548=IFCCARTESIANPOINT((645.,375.));
#549=IFCPOLYLINE((#544,#545,#546,#547,#548));
#550=IFCARBITRARYCLOSEDPROFILEDEF(.AREA.,$,#549);
#551=IFCCARTESIANPOINT((0.,0.,0.));
#552=IFCAXIS2PLACEMENT3D(#551,$,$);
#553=IFCDIRECTION((0.,0.,1.));
#554=IFCEXTRUDEDAREASOLID(#550,#552,#553,2700.);
#555=IFCSHAPEREPRESENTATION(#6,'Body','SweptSolid',(#554));
#556=IFCPRODUCTDEFINITIONSHAPE($,$,(#555));
#557=IFCOPENINGELEMENT('2EJ2VQbM9S_OFFHkAISNwY',$,'F0-N006','Nominal window aperture',$,#19,#556,'F0-N006',.OPENING.);
#558=IFCRELVOIDSELEMENT('2lSg_QAQXVKAJLLrcglmDl',$,$,$,#35,#557);
#559=IFCCARTESIANPOINT((700.,-415.));
#560=IFCCARTESIANPOINT((1900.,-415.));
#561=IFCCARTESIANPOINT((1900.,645.));
#562=IFCCARTESIANPOINT((700.,645.));
#563=IFCCARTESIANPOINT((700.,-415.));
#564=IFCPOLYLINE((#559,#560,#561,#562,#563));
#565=IFCARBITRARYCLOSEDPROFILEDEF(.AREA.,$,#564);
#566=IFCCARTESIANPOINT((0.,0.,0.));
#567=IFCAXIS2PLACEMENT3D(#566,$,$);
#568=IFCDIRECTION((0.,0.,1.));
#569=IFCEXTRUDEDAREASOLID(#565,#567,#568,2600.);
#570=IFCSHAPEREPRESENTATION(#6,'Body','SweptSolid',(#569));
#571=IFCPRODUCTDEFINITIONSHAPE($,$,(#570));
#572=IFCOPENINGELEMENT('3OAX6MsYHKqfcA4uoyNfm9',$,'F0-D007','Nominal entry aperture',$,#19,#571,'F0-D007',.OPENING.);
#573=IFCRELVOIDSELEMENT('1lgTzEWB1Li827QHb8kftF',$,$,$,#49,#572);
#574=IFCCARTESIANPOINT((2210.,-415.));
#575=IFCCARTESIANPOINT((6410.,-415.));
#576=IFCCARTESIANPOINT((6410.,645.));
#577=IFCCARTESIANPOINT((2210.,645.));
#578=IFCCARTESIANPOINT((2210.,-415.));
#579=IFCPOLYLINE((#574,#575,#576,#577,#578));
#580=IFCARBITRARYCLOSEDPROFILEDEF(.AREA.,$,#579);
#581=IFCCARTESIANPOINT((0.,0.,0.));
#582=IFCAXIS2PLACEMENT3D(#581,$,$);
#583=IFCDIRECTION((0.,0.,1.));
#584=IFCEXTRUDEDAREASOLID(#580,#582,#583,2700.);
#585=IFCSHAPEREPRESENTATION(#6,'Body','SweptSolid',(#584));
#586=IFCPRODUCTDEFINITIONSHAPE($,$,(#585));
#587=IFCOPENINGELEMENT('0QyD$u_CjQ$8aae5SFfE9e',$,'F0-N008','Nominal window aperture',$,#19,#586,'F0-N008',.OPENING.);
#588=IFCRELVOIDSELEMENT('0lak4DdPjGYexNY$mjRlqC',$,$,$,#49,#587);
#589=IFCCARTESIANPOINT((645.,4360.));
#590=IFCCARTESIANPOINT((645.,6460.));
#591=IFCCARTESIANPOINT((-415.,6460.));
#592=IFCCARTESIANPOINT((-415.,4360.));
#593=IFCCARTESIANPOINT((645.,4360.));
#594=IFCPOLYLINE((#589,#590,#591,#592,#593));
#595=IFCARBITRARYCLOSEDPROFILEDEF(.AREA.,$,#594);
#596=IFCCARTESIANPOINT((0.,0.,1000.));
#597=IFCAXIS2PLACEMENT3D(#596,$,$);
#598=IFCDIRECTION((0.,0.,1.));
#599=IFCEXTRUDEDAREASOLID(#595,#597,#598,1350.);
#600=IFCSHAPEREPRESENTATION(#6,'Body','SweptSolid',(#599));
#601=IFCPRODUCTDEFINITIONSHAPE($,$,(#600));
#602=IFCOPENINGELEMENT('3sBOlYwHTQ_hEGGHGDzF2I',$,'F0-N009','Nominal window aperture',$,#19,#601,'F0-N009',.OPENING.);
#603=IFCRELVOIDSELEMENT('3L$gJjXU5O3xC7fImM6TAn',$,$,$,#64,#602);
#604=IFCCARTESIANPOINT((645.,7668.));
#605=IFCCARTESIANPOINT((645.,8568.));
#606=IFCCARTESIANPOINT((-415.,8568.));
#607=IFCCARTESIANPOINT((-415.,7668.));
#608=IFCCARTESIANPOINT((645.,7668.));
#609=IFCPOLYLINE((#604,#605,#606,#607,#608));
#610=IFCARBITRARYCLOSEDPROFILEDEF(.AREA.,$,#609);
#611=IFCCARTESIANPOINT((0.,0.,1000.));
#612=IFCAXIS2PLACEMENT3D(#611,$,$);
#613=IFCDIRECTION((0.,0.,1.));
#614=IFCEXTRUDEDAREASOLID(#610,#612,#613,1050.);
#615=IFCSHAPEREPRESENTATION(#6,'Body','SweptSolid',(#614));
#616=IFCPRODUCTDEFINITIONSHAPE($,$,(#615));
#617=IFCOPENINGELEMENT('1N3kexIj5TLAd0znQ$hiAT',$,'F0-N010','Nominal window aperture',$,#19,#616,'F0-N010',.OPENING.);
#618=IFCRELVOIDSELEMENT('2Ul4A6jHjPighISLFeORk2',$,$,$,#94,#617);
#619=IFCCARTESIANPOINT((600.,8223.));
#620=IFCCARTESIANPOINT((1800.,8223.));
#621=IFCCARTESIANPOINT((1800.,9283.));
#622=IFCCARTESIANPOINT((600.,9283.));
#623=IFCCARTESIANPOINT((600.,8223.));
#624=IFCPOLYLINE((#619,#620,#621,#622,#623));
#625=IFCARBITRARYCLOSEDPROFILEDEF(.AREA.,$,#624);
#626=IFCCARTESIANPOINT((0.,0.,1000.));
#627=IFCAXIS2PLACEMENT3D(#626,$,$);
#628=IFCDIRECTION((0.,0.,1.));
#629=IFCEXTRUDEDAREASOLID(#625,#627,#628,1050.);
#630=IFCSHAPEREPRESENTATION(#6,'Body','SweptSolid',(#629));
#631=IFCPRODUCTDEFINITIONSHAPE($,$,(#630));
#632=IFCOPENINGELEMENT('2T6a8YDyjVI8U1LZuC8fIg',$,'F0-N011','Nominal window aperture',$,#19,#631,'F0-N011',.OPENING.);
#633=IFCRELVOIDSELEMENT('2mNXRFuVLO48NoIVRut5AV',$,$,$,#123,#632);
#634=IFCCARTESIANPOINT((2776.,8223.));
#635=IFCCARTESIANPOINT((3376.,8223.));
#636=IFCCARTESIANPOINT((3376.,9283.));
#637=IFCCARTESIANPOINT((2776.,9283.));
#638=IFCCARTESIANPOINT((2776.,8223.));
#639=IFCPOLYLINE((#634,#635,#636,#637,#638));
#640=IFCARBITRARYCLOSEDPROFILEDEF(.AREA.,$,#639);
#641=IFCCARTESIANPOINT((0.,0.,1650.));
#642=IFCAXIS2PLACEMENT3D(#641,$,$);
#643=IFCDIRECTION((0.,0.,1.));
#644=IFCEXTRUDEDAREASOLID(#640,#642,#643,700.);
#645=IFCSHAPEREPRESENTATION(#6,'Body','SweptSolid',(#644));
#646=IFCPRODUCTDEFINITIONSHAPE($,$,(#645));
#647=IFCOPENINGELEMENT('1IoNDEewvS5gLpbSxJPx5t',$,'F0-N012','Nominal window aperture',$,#19,#646,'F0-N012',.OPENING.);
#648=IFCRELVOIDSELEMENT('1PNJCicmTQKwE_vNx9GtRS',$,$,$,#201,#647);
#649=IFCCARTESIANPOINT((4334.,8223.));
#650=IFCCARTESIANPOINT((6134.,8223.));
#651=IFCCARTESIANPOINT((6134.,9283.));
#652=IFCCARTESIANPOINT((4334.,9283.));
#653=IFCCARTESIANPOINT((4334.,8223.));
#654=IFCPOLYLINE((#649,#650,#651,#652,#653));
#655=IFCARBITRARYCLOSEDPROFILEDEF(.AREA.,$,#654);
#656=IFCCARTESIANPOINT((0.,0.,450.));
#657=IFCAXIS2PLACEMENT3D(#656,$,$);
#658=IFCDIRECTION((0.,0.,1.));
#659=IFCEXTRUDEDAREASOLID(#655,#657,#658,2250.);
#660=IFCSHAPEREPRESENTATION(#6,'Body','SweptSolid',(#659));
#661=IFCPRODUCTDEFINITIONSHAPE($,$,(#660));
#662=IFCOPENINGELEMENT('2iLQEC3wzMoA4ZrrJJt0ny',$,'F0-N013','Nominal window aperture',$,#19,#661,'F0-N013',.OPENING.);
#663=IFCRELVOIDSELEMENT('3$KqL1RSnNtxHC$xOhZSlm',$,$,$,#293,#662);
#664=IFCCARTESIANPOINT((7135.,375.));
#665=IFCCARTESIANPOINT((7135.,3075.));
#666=IFCCARTESIANPOINT((6075.,3075.));
#667=IFCCARTESIANPOINT((6075.,375.));
#668=IFCCARTESIANPOINT((7135.,375.));
#669=IFCPOLYLINE((#664,#665,#666,#667,#668));
#670=IFCARBITRARYCLOSEDPROFILEDEF(.AREA.,$,#669);
#671=IFCCARTESIANPOINT((0.,0.,0.));
#672=IFCAXIS2PLACEMENT3D(#671,$,$);
#673=IFCDIRECTION((0.,0.,1.));
#674=IFCEXTRUDEDAREASOLID(#670,#672,#673,2700.);
#675=IFCSHAPEREPRESENTATION(#6,'Body','SweptSolid',(#674));
#676=IFCPRODUCTDEFINITIONSHAPE($,$,(#675));
#677=IFCOPENINGELEMENT('18_l48zj9PjPVjw4tyxE3p',$,'F0-N014','Nominal window aperture',$,#19,#676,'F0-N014',.OPENING.);
#678=IFCRELVOIDSELEMENT('3_rslvviPSdRiCONLUaLo$',$,$,$,#308,#677);
#679=IFCCARTESIANPOINT((7135.,3825.));
#680=IFCCARTESIANPOINT((7135.,4575.));
#681=IFCCARTESIANPOINT((6075.,4575.));
#682=IFCCARTESIANPOINT((6075.,3825.));
#683=IFCCARTESIANPOINT((7135.,3825.));
#684=IFCPOLYLINE((#679,#680,#681,#682,#683));
#685=IFCARBITRARYCLOSEDPROFILEDEF(.AREA.,$,#684);
#686=IFCCARTESIANPOINT((0.,0.,1650.));
#687=IFCAXIS2PLACEMENT3D(#686,$,$);
#688=IFCDIRECTION((0.,0.,1.));
#689=IFCEXTRUDEDAREASOLID(#685,#687,#688,700.);
#690=IFCSHAPEREPRESENTATION(#6,'Body','SweptSolid',(#689));
#691=IFCPRODUCTDEFINITIONSHAPE($,$,(#690));
#692=IFCOPENINGELEMENT('1k4yxYFGnH_f0Fbbn2CRyU',$,'F0-N015','Nominal window aperture',$,#19,#691,'F0-N015',.OPENING.);
#693=IFCRELVOIDSELEMENT('1owWzTLaPIMexbSfZiXLa3',$,$,$,#323,#692);
#694=IFCCARTESIANPOINT((7135.,5708.));
#695=IFCCARTESIANPOINT((7135.,8108.));
#696=IFCCARTESIANPOINT((6075.,8108.));
#697=IFCCARTESIANPOINT((6075.,5708.));
#698=IFCCARTESIANPOINT((7135.,5708.));
#699=IFCPOLYLINE((#694,#695,#696,#697,#698));
#700=IFCARBITRARYCLOSEDPROFILEDEF(.AREA.,$,#699);
#701=IFCCARTESIANPOINT((0.,0.,450.));
#702=IFCAXIS2PLACEMENT3D(#701,$,$);
#703=IFCDIRECTION((0.,0.,1.));
#704=IFCEXTRUDEDAREASOLID(#700,#702,#703,2250.);
#705=IFCSHAPEREPRESENTATION(#6,'Body','SweptSolid',(#704));
#706=IFCPRODUCTDEFINITIONSHAPE($,$,(#705));
#707=IFCOPENINGELEMENT('2_tY91NxnLlxRtL6eTlQ6M',$,'F0-N016','Nominal window aperture',$,#19,#706,'F0-N016',.OPENING.);
#708=IFCRELVOIDSELEMENT('10OB0SbBrRow9sfTMeRWc7',$,$,$,#337,#707);
#709=IFCCARTESIANPOINT((6720.,0.));
#710=IFCCARTESIANPOINT((6720.,8868.));
#711=IFCCARTESIANPOINT((0.,8868.));
#712=IFCCARTESIANPOINT((0.,0.));
#713=IFCCARTESIANPOINT((6720.,0.));
#714=IFCPOLYLINE((#709,#710,#711,#712,#713));
#715=IFCARBITRARYCLOSEDPROFILEDEF(.AREA.,$,#714);
#716=IFCCARTESIANPOINT((0.,0.,-150.));
#717=IFCAXIS2PLACEMENT3D(#716,$,$);
#718=IFCDIRECTION((0.,0.,1.));
#719=IFCEXTRUDEDAREASOLID(#715,#717,#718,150.);
#720=IFCSHAPEREPRESENTATION(#6,'Body','SweptSolid',(#719));
#721=IFCPRODUCTDEFINITIONSHAPE($,$,(#720));
#722=IFCSLAB('1v9wu8f99G2AwTaXePbR7m',$,'Floor slab / thickness assumption',$,$,#19,#721,'SL-0',.FLOOR.);
#723=IFCPROPERTYSINGLEVALUE('ReviewStatus',$,IFCLABEL('PRELIMINARY - NOT FOR CONSTRUCTION'),$);
#724=IFCPROPERTYSET('2fnf7uDhTRvhcppHLMqrf9',$,'FloorForge_Review',$,(#723));
#725=IFCRELDEFINESBYPROPERTIES('1Nc1YnL2HLvwvkSgTlLwjB',$,$,$,(#722),#724);
#726=IFCCARTESIANPOINT((6720.,0.));
#727=IFCCARTESIANPOINT((6720.,8868.));
#728=IFCCARTESIANPOINT((0.,8868.));
#729=IFCCARTESIANPOINT((0.,0.));
#730=IFCCARTESIANPOINT((6720.,0.));
#731=IFCPOLYLINE((#726,#727,#728,#729,#730));
#732=IFCARBITRARYCLOSEDPROFILEDEF(.AREA.,$,#731);
#733=IFCCARTESIANPOINT((0.,0.,3000.));
#734=IFCAXIS2PLACEMENT3D(#733,$,$);
#735=IFCDIRECTION((0.,0.,1.));
#736=IFCEXTRUDEDAREASOLID(#732,#734,#735,150.);
#737=IFCSHAPEREPRESENTATION(#6,'Body','SweptSolid',(#736));
#738=IFCPRODUCTDEFINITIONSHAPE($,$,(#737));
#739=IFCSLAB('3fUPM_OEHR8hHF6eYV3ROx',$,'Roof / thickness assumption',$,$,#19,#738,'ROOF',.ROOF.);
#740=IFCRELCONTAINEDINSPATIALSTRUCTURE('2HKaWjR0bOKOUO4b13xbHD',$,$,$,(#35,#49,#64,#79,#94,#109,#123,#139,#155,#171,#186,#201,#217,#232,#248,#263,#278,#293,#308,#323,#337,#722,#739),#20);
#741=IFCRELAGGREGATES('0rPXE1JNzQUAbNN65eEx6H',$,$,$,#20,(#360,#379,#398,#414,#430,#449,#468));
#742=IFCPROPERTYSINGLEVALUE('ReviewStatus',$,IFCLABEL('PRELIMINARY - NOT FOR CONSTRUCTION'),$);
#743=IFCPROPERTYSET('2$0IFeFQLN4fOLNU0u0DsJ',$,'FloorForge_Review',$,(#742));
#744=IFCRELDEFINESBYPROPERTIES('2Ws3_YXaDOWhF57XpEg3fr',$,$,$,(#14),#743);
ENDSEC;
END-ISO-10303-21;
