<svg xmlns="http://www.w3.org/2000/svg" width="420mm" height="297mm" viewBox="0 0 420 297"><metadata>planHash:9bdd75bf2ea4a15314ae6a886c801c8d1d01f7572e2e002ab2ad73d238ef7a80</metadata><rect width="420" height="297" fill="white"/><g font-family="Arial,Helvetica,sans-serif"><path d="M 16 31 H 404 M 16 271 H 404" stroke="#25372f" stroke-width=".35"/><text x="17.0000" y="17.0000" fill="#25372f" font-size="5.2" text-anchor="start">FLOORFORGE</text><text x="17.0000" y="25.0000" fill="#25372f" font-size="3.1" text-anchor="start">Site plan</text><text x="403.0000" y="18.0000" fill="#25372f" font-size="5" text-anchor="end">A-001</text><text x="403.0000" y="25.0000" fill="#25372f" font-size="2.6" text-anchor="end">REV A / PRELIMINARY</text><polygon points="163.4500,181.5900 163.4500,74.9100 87.2500,74.9100 87.2500,181.5900 163.4500,181.5900" fill="#f0f3eb" stroke="#25372f" stroke-width="0.35"/><polygon points="158.9500,169.5900 158.9500,80.9100 91.7500,80.9100 91.7500,169.5900" fill="#dadfd6" stroke="#25372f" stroke-width="0.4"/><polygon points="77.2500,226.5900 173.4500,226.5900 173.4500,183.5900 77.2500,183.5900" fill="#e8e8e2" stroke="#a8afa4" stroke-width="0.2"/><text x="125.3500" y="207.5900" fill="#25372f" font-size="2.3" text-anchor="middle">ROAD / WIDTH TO BE SURVEYED</text><polygon points="116.7500,180.3900 116.7500,179.0900 92.7500,179.0900 92.7500,180.3900" fill="#e5e0d3" stroke="#819076" stroke-width="0.18"/><polygon points="159.9500,176.5900 159.9500,172.0900 119.2500,172.0900 119.2500,176.5900" fill="#b9ad91" stroke="#819076" stroke-width="0.18"/><polygon points="113.2500,169.5900 113.1826,170.9622 112.9810,172.3213 112.6472,173.6540 112.1843,174.9476 111.5969,176.1896 110.8906,177.3680 110.0721,178.4715 109.1495,179.4895 108.1315,180.4121 107.0280,181.2306 105.8496,181.9369 104.6076,182.5243 103.3140,182.9872 101.9813,183.3210 100.6222,183.5226 99.2500,183.5900 97.8778,183.5226 96.5187,183.3210 95.1860,182.9872 93.8924,182.5243 92.6504,181.9369 91.4720,181.2306 90.3685,180.4121 89.3505,179.4895 88.4279,178.4715 87.6094,177.3680 86.9031,176.1896 86.3157,174.9476 85.8528,173.6540 85.5190,172.3213 85.3174,170.9622 85.2500,169.5900 85.3174,168.2178 85.5190,166.8587 85.8528,165.5260 86.3157,164.2324 86.9031,162.9904 87.6094,161.8120 88.4279,160.7085 89.3505,159.6905 90.3685,158.7679 91.4720,157.9494 92.6504,157.2431 93.8924,156.6557 95.1860,156.1928 96.5187,155.8590 97.8778,155.6574 99.2500,155.5900 100.6222,155.6574 101.9813,155.8590 103.3140,156.1928 104.6076,156.6557 105.8496,157.2431 107.0280,157.9494 108.1315,158.7679 109.1495,159.6905 110.0721,160.7085 110.8906,161.8120 111.5969,162.9904 112.1843,164.2324 112.6472,165.5260 112.9810,166.8587 113.1826,168.2178 113.2500,169.5900" fill="#c8d4ba" stroke="#819076" stroke-width="0.18"/><polygon points="148.7500,169.5900 148.6826,170.9622 148.4810,172.3213 148.1472,173.6540 147.6843,174.9476 147.0969,176.1896 146.3906,177.3680 145.5721,178.4715 144.6495,179.4895 143.6315,180.4121 142.5280,181.2306 141.3496,181.9369 140.1076,182.5243 138.8140,182.9872 137.4813,183.3210 136.1222,183.5226 134.7500,183.5900 133.3778,183.5226 132.0187,183.3210 130.6860,182.9872 129.3924,182.5243 128.1504,181.9369 126.9720,181.2306 125.8685,180.4121 124.8505,179.4895 123.9279,178.4715 123.1094,177.3680 122.4031,176.1896 121.8157,174.9476 121.3528,173.6540 121.0190,172.3213 120.8174,170.9622 120.7500,169.5900 120.8174,168.2178 121.0190,166.8587 121.3528,165.5260 121.8157,164.2324 122.4031,162.9904 123.1094,161.8120 123.9279,160.7085 124.8505,159.6905 125.8685,158.7679 126.9720,157.9494 128.1504,157.2431 129.3924,156.6557 130.6860,156.1928 132.0187,155.8590 133.3778,155.6574 134.7500,155.5900 136.1222,155.6574 137.4813,155.8590 138.8140,156.1928 140.1076,156.6557 141.3496,157.2431 142.5280,157.9494 143.6315,158.7679 144.6495,159.6905 145.5721,160.7085 146.3906,161.8120 147.0969,162.9904 147.6843,164.2324 148.1472,165.5260 148.4810,166.8587 148.6826,168.2178 148.7500,169.5900" fill="#c8d4ba" stroke="#819076" stroke-width="0.18"/><polygon points="99.2500,173.0900 99.2331,173.4331 99.1827,173.7728 99.0993,174.1060 98.9836,174.4294 98.8367,174.7399 98.6601,175.0345 98.4555,175.3104 98.2249,175.5649 97.9704,175.7955 97.6945,176.0001 97.3999,176.1767 97.0894,176.3236 96.7660,176.4393 96.4328,176.5227 96.0931,176.5731 95.7500,176.5900 95.4069,176.5731 95.0672,176.5227 94.7340,176.4393 94.4106,176.3236 94.1001,176.1767 93.8055,176.0001 93.5296,175.7955 93.2751,175.5649 93.0445,175.3104 92.8399,175.0345 92.6633,174.7399 92.5164,174.4294 92.4007,174.1060 92.3173,173.7728 92.2669,173.4331 92.2500,173.0900 92.2669,172.7469 92.3173,172.4072 92.4007,172.0740 92.5164,171.7506 92.6633,171.4401 92.8399,171.1455 93.0445,170.8696 93.2751,170.6151 93.5296,170.3845 93.8055,170.1799 94.1001,170.0033 94.4106,169.8564 94.7340,169.7407 95.0672,169.6573 95.4069,169.6069 95.7500,169.5900 96.0931,169.6069 96.4328,169.6573 96.7660,169.7407 97.0894,169.8564 97.3999,170.0033 97.6945,170.1799 97.9704,170.3845 98.2249,170.6151 98.4555,170.8696 98.6601,171.1455 98.8367,171.4401 98.9836,171.7506 99.0993,172.0740 99.1827,172.4072 99.2331,172.7469 99.2500,173.0900" fill="#c8d4ba" stroke="#819076" stroke-width="0.18"/><polygon points="111.8000,173.0900 111.7831,173.4331 111.7327,173.7728 111.6493,174.1060 111.5336,174.4294 111.3867,174.7399 111.2101,175.0345 111.0055,175.3104 110.7749,175.5649 110.5204,175.7955 110.2445,176.0001 109.9499,176.1767 109.6394,176.3236 109.3160,176.4393 108.9828,176.5227 108.6431,176.5731 108.3000,176.5900 107.9569,176.5731 107.6172,176.5227 107.2840,176.4393 106.9606,176.3236 106.6501,176.1767 106.3555,176.0001 106.0796,175.7955 105.8251,175.5649 105.5945,175.3104 105.3899,175.0345 105.2133,174.7399 105.0664,174.4294 104.9507,174.1060 104.8673,173.7728 104.8169,173.4331 104.8000,173.0900 104.8169,172.7469 104.8673,172.4072 104.9507,172.0740 105.0664,171.7506 105.2133,171.4401 105.3899,171.1455 105.5945,170.8696 105.8251,170.6151 106.0796,170.3845 106.3555,170.1799 106.6501,170.0033 106.9606,169.8564 107.2840,169.7407 107.6172,169.6573 107.9569,169.6069 108.3000,169.5900 108.6431,169.6069 108.9828,169.6573 109.3160,169.7407 109.6394,169.8564 109.9499,170.0033 110.2445,170.1799 110.5204,170.3845 110.7749,170.6151 111.0055,170.8696 111.2101,171.1455 111.3867,171.4401 111.5336,171.7506 111.6493,172.0740 111.7327,172.4072 111.7831,172.7469 111.8000,173.0900" fill="#c8d4ba" stroke="#819076" stroke-width="0.18"/><polygon points="124.3500,173.0900 124.3331,173.4331 124.2827,173.7728 124.1993,174.1060 124.0836,174.4294 123.9367,174.7399 123.7601,175.0345 123.5555,175.3104 123.3249,175.5649 123.0704,175.7955 122.7945,176.0001 122.4999,176.1767 122.1894,176.3236 121.8660,176.4393 121.5328,176.5227 121.1931,176.5731 120.8500,176.5900 120.5069,176.5731 120.1672,176.5227 119.8340,176.4393 119.5106,176.3236 119.2001,176.1767 118.9055,176.0001 118.6296,175.7955 118.3751,175.5649 118.1445,175.3104 117.9399,175.0345 117.7633,174.7399 117.6164,174.4294 117.5007,174.1060 117.4173,173.7728 117.3669,173.4331 117.3500,173.0900 117.3669,172.7469 117.4173,172.4072 117.5007,172.0740 117.6164,171.7506 117.7633,171.4401 117.9399,171.1455 118.1445,170.8696 118.3751,170.6151 118.6296,170.3845 118.9055,170.1799 119.2001,170.0033 119.5106,169.8564 119.8340,169.7407 120.1672,169.6573 120.5069,169.6069 120.8500,169.5900 121.1931,169.6069 121.5328,169.6573 121.8660,169.7407 122.1894,169.8564 122.4999,170.0033 122.7945,170.1799 123.0704,170.3845 123.3249,170.6151 123.5555,170.8696 123.7601,171.1455 123.9367,171.4401 124.0836,171.7506 124.1993,172.0740 124.2827,172.4072 124.3331,172.7469 124.3500,173.0900" fill="#c8d4ba" stroke="#819076" stroke-width="0.18"/><polygon points="136.9000,173.0900 136.8831,173.4331 136.8327,173.7728 136.7493,174.1060 136.6336,174.4294 136.4867,174.7399 136.3101,175.0345 136.1055,175.3104 135.8749,175.5649 135.6204,175.7955 135.3445,176.0001 135.0499,176.1767 134.7394,176.3236 134.4160,176.4393 134.0828,176.5227 133.7431,176.5731 133.4000,176.5900 133.0569,176.5731 132.7172,176.5227 132.3840,176.4393 132.0606,176.3236 131.7501,176.1767 131.4555,176.0001 131.1796,175.7955 130.9251,175.5649 130.6945,175.3104 130.4899,175.0345 130.3133,174.7399 130.1664,174.4294 130.0507,174.1060 129.9673,173.7728 129.9169,173.4331 129.9000,173.0900 129.9169,172.7469 129.9673,172.4072 130.0507,172.0740 130.1664,171.7506 130.3133,171.4401 130.4899,171.1455 130.6945,170.8696 130.9251,170.6151 131.1796,170.3845 131.4555,170.1799 131.7501,170.0033 132.0606,169.8564 132.3840,169.7407 132.7172,169.6573 133.0569,169.6069 133.4000,169.5900 133.7431,169.6069 134.0828,169.6573 134.4160,169.7407 134.7394,169.8564 135.0499,170.0033 135.3445,170.1799 135.6204,170.3845 135.8749,170.6151 136.1055,170.8696 136.3101,171.1455 136.4867,171.4401 136.6336,171.7506 136.7493,172.0740 136.8327,172.4072 136.8831,172.7469 136.9000,173.0900" fill="#c8d4ba" stroke="#819076" stroke-width="0.18"/><polygon points="149.4500,173.0900 149.4331,173.4331 149.3827,173.7728 149.2993,174.1060 149.1836,174.4294 149.0367,174.7399 148.8601,175.0345 148.6555,175.3104 148.4249,175.5649 148.1704,175.7955 147.8945,176.0001 147.5999,176.1767 147.2894,176.3236 146.9660,176.4393 146.6328,176.5227 146.2931,176.5731 145.9500,176.5900 145.6069,176.5731 145.2672,176.5227 144.9340,176.4393 144.6106,176.3236 144.3001,176.1767 144.0055,176.0001 143.7296,175.7955 143.4751,175.5649 143.2445,175.3104 143.0399,175.0345 142.8633,174.7399 142.7164,174.4294 142.6007,174.1060 142.5173,173.7728 142.4669,173.4331 142.4500,173.0900 142.4669,172.7469 142.5173,172.4072 142.6007,172.0740 142.7164,171.7506 142.8633,171.4401 143.0399,171.1455 143.2445,170.8696 143.4751,170.6151 143.7296,170.3845 144.0055,170.1799 144.3001,170.0033 144.6106,169.8564 144.9340,169.7407 145.2672,169.6573 145.6069,169.6069 145.9500,169.5900 146.2931,169.6069 146.6328,169.6573 146.9660,169.7407 147.2894,169.8564 147.5999,170.0033 147.8945,170.1799 148.1704,170.3845 148.4249,170.6151 148.6555,170.8696 148.8601,171.1455 149.0367,171.4401 149.1836,171.7506 149.2993,172.0740 149.3827,172.4072 149.4331,172.7469 149.4500,173.0900" fill="#c8d4ba" stroke="#819076" stroke-width="0.18"/><text x="125.3500" y="175.5900" fill="#25372f" font-size="1.7" text-anchor="middle">FRONT SETBACK</text><text x="125.3500" y="77.9100" fill="#25372f" font-size="1.7" text-anchor="middle">REAR YARD</text><path d="M 99.2500 180.0900 L 99.2500 169.0900" fill="none" stroke="#9e653f" stroke-width="0.35"/><polyline points="110.2500,180.0900 110.0829,178.1799 109.5866,176.3278 108.7763,174.5900 107.6765,173.0193 106.3207,171.6635 104.7500,170.5637 103.0122,169.7534 101.1601,169.2571 99.2500,169.0900" fill="none" stroke="#9e653f" stroke-width="0.15"/><polygon points="110.2500,182.1900 115.4500,182.1900 115.4500,179.4900 110.2500,179.4900" fill="#8f8a80" stroke="#25372f" stroke-width="0.2"/><path d="M 87.2500 73.7100 L 87.2500 64.7100" fill="none" stroke="#a8afa4" stroke-width="0.12"/><path d="M 163.4500 73.7100 L 163.4500 64.7100" fill="none" stroke="#a8afa4" stroke-width="0.12"/><path d="M 87.2500 65.9100 L 163.4500 65.9100" fill="none" stroke="#25372f" stroke-width="0.15"/><path d="M 86.7000 66.4600 L 87.8000 65.3600" fill="none" stroke="#25372f" stroke-width="0.28"/><path d="M 162.9000 66.4600 L 164.0000 65.3600" fill="none" stroke="#25372f" stroke-width="0.28"/><text x="125.3500" y="65.2100" fill="#25372f" font-size="1.8" text-anchor="middle">7620</text><path d="M 164.6500 181.5900 L 179.6500 181.5900" fill="none" stroke="#a8afa4" stroke-width="0.12"/><path d="M 164.6500 74.9100 L 179.6500 74.9100" fill="none" stroke="#a8afa4" stroke-width="0.12"/><path d="M 178.4500 181.5900 L 178.4500 74.9100" fill="none" stroke="#25372f" stroke-width="0.15"/><path d="M 177.9000 182.1400 L 179.0000 181.0400" fill="none" stroke="#25372f" stroke-width="0.28"/><path d="M 177.9000 75.4600 L 179.0000 74.3600" fill="none" stroke="#25372f" stroke-width="0.28"/><text x="180.9500" y="128.2500" fill="#25372f" font-size="1.8" text-anchor="middle" transform="rotate(-90.0 180.9500 128.2500)">10668</text><path d="M 91.7500 170.7900 L 91.7500 188.7900" fill="none" stroke="#a8afa4" stroke-width="0.12"/><path d="M 158.9500 170.7900 L 158.9500 188.7900" fill="none" stroke="#a8afa4" stroke-width="0.12"/><path d="M 91.7500 187.5900 L 158.9500 187.5900" fill="none" stroke="#25372f" stroke-width="0.15"/><path d="M 91.2000 188.1400 L 92.3000 187.0400" fill="none" stroke="#25372f" stroke-width="0.28"/><path d="M 158.4000 188.1400 L 159.5000 187.0400" fill="none" stroke="#25372f" stroke-width="0.28"/><text x="125.3500" y="190.0900" fill="#25372f" font-size="1.8" text-anchor="middle">6720</text><path d="M 90.5500 181.5900 L 84.5500 181.5900" fill="none" stroke="#a8afa4" stroke-width="0.12"/><path d="M 90.5500 169.5900 L 84.5500 169.5900" fill="none" stroke="#a8afa4" stroke-width="0.12"/><path d="M 85.7500 181.5900 L 85.7500 169.5900" fill="none" stroke="#25372f" stroke-width="0.15"/><path d="M 85.2000 182.1400 L 86.3000 181.0400" fill="none" stroke="#25372f" stroke-width="0.28"/><path d="M 85.2000 170.1400 L 86.3000 169.0400" fill="none" stroke="#25372f" stroke-width="0.28"/><text x="85.0500" y="175.5900" fill="#25372f" font-size="1.8" text-anchor="middle" transform="rotate(-90.0 85.0500 175.5900)">1200</text><path d="M 126.5500 80.9100 L 130.0500 80.9100" fill="none" stroke="#a8afa4" stroke-width="0.12"/><path d="M 126.5500 74.9100 L 130.0500 74.9100" fill="none" stroke="#a8afa4" stroke-width="0.12"/><path d="M 128.8500 80.9100 L 128.8500 74.9100" fill="none" stroke="#25372f" stroke-width="0.15"/><path d="M 128.3000 81.4600 L 129.4000 80.3600" fill="none" stroke="#25372f" stroke-width="0.28"/><path d="M 128.3000 75.4600 L 129.4000 74.3600" fill="none" stroke="#25372f" stroke-width="0.28"/><text x="131.3500" y="77.9100" fill="#25372f" font-size="1.8" text-anchor="middle" transform="rotate(-90.0 131.3500 77.9100)">600</text><path d="M 87.2500 124.0500 L 87.2500 120.8500" fill="none" stroke="#a8afa4" stroke-width="0.12"/><path d="M 91.7500 124.0500 L 91.7500 120.8500" fill="none" stroke="#a8afa4" stroke-width="0.12"/><path d="M 87.2500 122.0500 L 91.7500 122.0500" fill="none" stroke="#25372f" stroke-width="0.15"/><path d="M 86.7000 122.6000 L 87.8000 121.5000" fill="none" stroke="#25372f" stroke-width="0.28"/><path d="M 91.2000 122.6000 L 92.3000 121.5000" fill="none" stroke="#25372f" stroke-width="0.28"/><text x="89.5000" y="121.3500" fill="#25372f" font-size="1.8" text-anchor="middle">450</text><path d="M 158.9500 124.0500 L 158.9500 120.8500" fill="none" stroke="#a8afa4" stroke-width="0.12"/><path d="M 163.4500 124.0500 L 163.4500 120.8500" fill="none" stroke="#a8afa4" stroke-width="0.12"/><path d="M 158.9500 122.0500 L 163.4500 122.0500" fill="none" stroke="#25372f" stroke-width="0.15"/><path d="M 158.4000 122.6000 L 159.5000 121.5000" fill="none" stroke="#25372f" stroke-width="0.28"/><path d="M 162.9000 122.6000 L 164.0000 121.5000" fill="none" stroke="#25372f" stroke-width="0.28"/><text x="161.2000" y="121.3500" fill="#25372f" font-size="1.8" text-anchor="middle">450</text><path d="M 160.1500 169.5900 L 171.6500 169.5900" fill="none" stroke="#a8afa4" stroke-width="0.12"/><path d="M 160.1500 80.9100 L 171.6500 80.9100" fill="none" stroke="#a8afa4" stroke-width="0.12"/><path d="M 170.4500 169.5900 L 170.4500 80.9100" fill="none" stroke="#25372f" stroke-width="0.15"/><path d="M 169.9000 170.1400 L 171.0000 169.0400" fill="none" stroke="#25372f" stroke-width="0.28"/><path d="M 169.9000 81.4600 L 171.0000 80.3600" fill="none" stroke="#25372f" stroke-width="0.28"/><text x="172.9500" y="125.2500" fill="#25372f" font-size="1.8" text-anchor="middle" transform="rotate(-90.0 172.9500 125.2500)">8868</text><polygon points="90.1500,192.6900 92.3500,192.6900 91.2500,194.5900" fill="#25372f" stroke="#25372f" stroke-width="0.15"/><path d="M 87.4500 194.5900 L 95.0500 194.5900" fill="none" stroke="#25372f" stroke-width="0.15"/><text x="92.9500" y="193.9900" fill="#25372f" font-size="1.6" text-anchor="start">ROAD -0.150 (assumed)</text><polygon points="136.3500,170.6900 138.5500,170.6900 137.4500,172.5900" fill="#25372f" stroke="#25372f" stroke-width="0.15"/><path d="M 133.6500 172.5900 L 141.2500 172.5900" fill="none" stroke="#25372f" stroke-width="0.15"/><text x="139.1500" y="171.9900" fill="#25372f" font-size="1.6" text-anchor="start">NGL ±0.000</text><polygon points="133.2500,129.3500 135.4500,129.3500 134.3500,131.2500" fill="#25372f" stroke="#25372f" stroke-width="0.15"/><path d="M 130.5500 131.2500 L 138.1500 131.2500" fill="none" stroke="#25372f" stroke-width="0.15"/><text x="136.0500" y="130.6500" fill="#25372f" font-size="1.6" text-anchor="start">PL / FFL +0.450</text><circle cx="96.2500" cy="85.9100" r="5.5000" fill="none" stroke="#25372f" stroke-width="0.2"/><polygon points="96.2500,80.8500 94.7100,88.9350 96.2500,87.0100" fill="#25372f" stroke="#25372f" stroke-width="0.15"/><polygon points="96.2500,80.8500 97.7900,88.9350 96.2500,87.0100" fill="none" stroke="#25372f" stroke-width="0.15"/><text x="96.2500" y="78.7100" fill="#25372f" font-size="2.6" text-anchor="middle">N</text><path d="M 250 42 V 256" stroke="#c9d0c7" stroke-width=".2"/><text x="261.0000" y="46.0000" fill="#25372f" font-size="3.8" text-anchor="start">The Quiet Studio</text><text x="261.0000" y="57.0000" fill="#25372f" font-size="2.35" text-anchor="start">AREA STATEMENT</text><text x="322.0000" y="57.0000" fill="#25372f" font-size="2.35" text-anchor="start">VALUE</text><text x="372.0000" y="57.0000" fill="#25372f" font-size="2.35" text-anchor="start">UNIT</text><text x="261.0000" y="62.4000" fill="#25372f" font-size="2.2" text-anchor="start">Plot</text><text x="322.0000" y="62.4000" fill="#25372f" font-size="2.2" text-anchor="start">81.29</text><text x="372.0000" y="62.4000" fill="#25372f" font-size="2.2" text-anchor="start">m2</text><text x="261.0000" y="67.8000" fill="#25372f" font-size="2.2" text-anchor="start">Footprint</text><text x="322.0000" y="67.8000" fill="#25372f" font-size="2.2" text-anchor="start">59.593</text><text x="372.0000" y="67.8000" fill="#25372f" font-size="2.2" text-anchor="start">m2</text><text x="261.0000" y="73.2000" fill="#25372f" font-size="2.2" text-anchor="start">Gross floors</text><text x="322.0000" y="73.2000" fill="#25372f" font-size="2.2" text-anchor="start">59.593</text><text x="372.0000" y="73.2000" fill="#25372f" font-size="2.2" text-anchor="start">m2</text><text x="261.0000" y="78.6000" fill="#25372f" font-size="2.2" text-anchor="start">Coverage</text><text x="322.0000" y="78.6000" fill="#25372f" font-size="2.2" text-anchor="start">73.31</text><text x="372.0000" y="78.6000" fill="#25372f" font-size="2.2" text-anchor="start">percent</text><text x="261.0000" y="84.0000" fill="#25372f" font-size="2.2" text-anchor="start">Geometric FAR</text><text x="322.0000" y="84.0000" fill="#25372f" font-size="2.2" text-anchor="start">0.733</text><text x="372.0000" y="84.0000" fill="#25372f" font-size="2.2" text-anchor="start">ratio</text><text x="261.0000" y="150.0000" fill="#25372f" font-size="2.7" text-anchor="start">DRAWING NOTES</text><text x="261.0000" y="157.0000" fill="#25372f" font-size="2.1" text-anchor="start">Setbacks shown are design assumptions, not verified byelaws.</text><text x="261.0000" y="162.7000" fill="#25372f" font-size="2.1" text-anchor="start">Road width, property line and levels need a survey.</text><text x="261.0000" y="168.4000" fill="#25372f" font-size="2.1" text-anchor="start">No surveyed drainage fall or flood datum supplied.</text><text x="261.0000" y="174.1000" fill="#25372f" font-size="2.1" text-anchor="start">Default steps are not a step-free route.</text><text x="261.0000" y="244.0000" fill="#25372f" font-size="2.4" text-anchor="start">SCALE 1:100 AT A3 / CUT +1200 mm</text><text x="261.0000" y="251.0000" fill="#25372f" font-size="2.2" text-anchor="start">Dimensions govern; do not scale from a screen.</text><path d="M 22 259 H 62.0" stroke="#25372f" stroke-width=".6"/><path d="M 22.0 258 V 260" stroke="#25372f" stroke-width=".2"/><text x="22.0000" y="264.0000" fill="#25372f" font-size="1.9" text-anchor="middle">0 m</text><path d="M 42.0 258 V 260" stroke="#25372f" stroke-width=".2"/><text x="42.0000" y="264.0000" fill="#25372f" font-size="1.9" text-anchor="middle">2 m</text><path d="M 62.0 258 V 260" stroke="#25372f" stroke-width=".2"/><text x="62.0000" y="264.0000" fill="#25372f" font-size="1.9" text-anchor="middle">4 m</text><text x="17.0000" y="279.0000" fill="#8a4933" font-size="2.65" text-anchor="start">PRELIMINARY - ENGINEER TO REVIEW - NOT FOR CONSTRUCTION</text><text x="17.0000" y="286.0000" fill="#25372f" font-size="2.15" text-anchor="start">Reference design screen only. Survey, structure, services, byelaws and professional approval remain outstanding.</text><text x="403.0000" y="283.0000" fill="#25372f" font-size="2.35" text-anchor="end">A-001  |  420 x 297 mm</text></g></svg>