<svg xmlns="http://www.w3.org/2000/svg" width="420mm" height="297mm" viewBox="0 0 420 297"><rect width="420" height="297" fill="white"/><g font-family="Arial,Helvetica,sans-serif"><path d="M 16 31 H 404 M 16 271 H 404" stroke="#25372f" stroke-width=".35"/><text x="17.0000" y="17.0000" fill="#25372f" font-size="5.2" text-anchor="start">FLOORFORGE</text><text x="17.0000" y="25.0000" fill="#25372f" font-size="3.1" text-anchor="start">Right elevation</text><text x="403.0000" y="18.0000" fill="#25372f" font-size="5" text-anchor="end">A-204</text><text x="403.0000" y="25.0000" fill="#25372f" font-size="2.6" text-anchor="end">REV A / PRELIMINARY</text><polygon points="31.4133,192.3333 215.2533,192.3333 215.2533,94.3333 31.4133,94.3333" fill="#f2f0e7" stroke="#25372f" stroke-width="0.25"/><path d="M 31.4133 186.3333 L 215.2533 186.3333" fill="none" stroke="#25372f" stroke-width="0.35"/><path d="M 31.4133 144.3333 L 215.2533 144.3333" fill="none" stroke="#25372f" stroke-width="0.35"/><path d="M 31.4133 102.3333 L 215.2533 102.3333" fill="none" stroke="#25372f" stroke-width="0.35"/><polygon points="35.4133,186.3333 62.2133,186.3333 62.2133,150.3333 35.4133,150.3333" fill="#dfe8e7" stroke="#25372f" stroke-width="0.25"/><path d="M 48.8133 186.3333 L 48.8133 150.3333" fill="none" stroke="#25372f" stroke-width="0.15"/><polygon points="70.2133,186.3333 87.4133,186.3333 87.4133,150.3333 70.2133,150.3333" fill="#dfe8e7" stroke="#25372f" stroke-width="0.25"/><path d="M 78.8133 186.3333 L 78.8133 150.3333" fill="none" stroke="#25372f" stroke-width="0.15"/><polygon points="96.4533,164.3333 106.5333,164.3333 106.5333,155.0000 96.4533,155.0000" fill="#dfe8e7" stroke="#25372f" stroke-width="0.25"/><polygon points="115.4400,163.0000 124.8800,163.0000 124.8800,155.0000 115.4400,155.0000" fill="#dfe8e7" stroke="#25372f" stroke-width="0.25"/><polygon points="158.0000,175.0000 186.0000,175.0000 186.0000,155.6667 158.0000,155.6667" fill="#dfe8e7" stroke="#25372f" stroke-width="0.25"/><path d="M 172.0000 175.0000 L 172.0000 155.6667" fill="none" stroke="#25372f" stroke-width="0.15"/><polygon points="56.0800,144.3333 87.4133,144.3333 87.4133,108.3333 56.0800,108.3333" fill="#dfe8e7" stroke="#25372f" stroke-width="0.25"/><path d="M 71.7467 144.3333 L 71.7467 108.3333" fill="none" stroke="#25372f" stroke-width="0.15"/><polygon points="96.0800,122.3333 105.4133,122.3333 105.4133,113.0000 96.0800,113.0000" fill="#dfe8e7" stroke="#25372f" stroke-width="0.25"/><polygon points="114.7467,122.3333 124.0800,122.3333 124.0800,113.0000 114.7467,113.0000" fill="#dfe8e7" stroke="#25372f" stroke-width="0.25"/><polygon points="153.3333,138.3333 190.6667,138.3333 190.6667,108.3333 153.3333,108.3333" fill="#dfe8e7" stroke="#25372f" stroke-width="0.25"/><path d="M 172.0000 138.3333 L 172.0000 108.3333" fill="none" stroke="#25372f" stroke-width="0.15"/><polygon points="10.7467,145.9333 31.4133,145.9333 31.4133,129.6667 10.7467,129.6667" fill="none" stroke="#9e653f" stroke-width="0.3"/><text x="21.0800" y="127.9333" fill="#25372f" font-size="1.7333333333333334" text-anchor="middle">BALCONY</text><path d="M 31.4133 186.3333 L 31.4133 197.6667" fill="none" stroke="#a8afa4" stroke-width="0.12"/><path d="M 215.2533 186.3333 L 215.2533 197.6667" fill="none" stroke="#a8afa4" stroke-width="0.12"/><path d="M 31.4133 197.6667 L 215.2533 197.6667" fill="none" stroke="#25372f" stroke-width="0.15"/><path d="M 30.6133 198.4667 L 32.2133 196.8667" fill="none" stroke="#25372f" stroke-width="0.2"/><path d="M 214.4533 198.4667 L 216.0533 196.8667" fill="none" stroke="#25372f" stroke-width="0.2"/><text x="123.3333" y="195.6667" fill="#25372f" font-size="2.6666666666666665" text-anchor="middle">13788</text><path d="M 215.2533 186.3333 L 224.5867 186.3333" fill="none" stroke="#a8afa4" stroke-width="0.12"/><path d="M 215.2533 102.3333 L 224.5867 102.3333" fill="none" stroke="#a8afa4" stroke-width="0.12"/><path d="M 224.5867 186.3333 L 224.5867 102.3333" fill="none" stroke="#25372f" stroke-width="0.15"/><path d="M 223.7867 187.1333 L 225.3867 185.5333" fill="none" stroke="#25372f" stroke-width="0.2"/><path d="M 223.7867 103.1333 L 225.3867 101.5333" fill="none" stroke="#25372f" stroke-width="0.2"/><text x="226.5867" y="144.3333" fill="#25372f" font-size="2.6666666666666665" text-anchor="start">6300</text><path d="M 250 42 V 256" stroke="#c9d0c7" stroke-width=".2"/><text x="261.0000" y="46.0000" fill="#25372f" font-size="3.8" text-anchor="start">The Verandah House</text><text x="261.0000" y="150.0000" fill="#25372f" font-size="2.7" text-anchor="start">DRAWING NOTES</text><text x="261.0000" y="158.0000" fill="#25372f" font-size="2.25" text-anchor="start">Wall and opening heights derive from the building model.</text><text x="261.0000" y="164.8000" fill="#25372f" font-size="2.25" text-anchor="start">This elevation records the primary wall plane.</text><text x="261.0000" y="171.6000" fill="#25372f" font-size="2.25" text-anchor="start">Decorative facade accessories are coordinated in 3D, not</text><text x="261.0000" y="175.9000" fill="#25372f" font-size="2.25" text-anchor="start">fully detailed here.</text><text x="261.0000" y="182.7000" fill="#25372f" font-size="2.25" text-anchor="start">No cladding anchors or construction joints are designed.</text><text x="261.0000" y="244.0000" fill="#25372f" font-size="2.4" text-anchor="start">SCALE 1:75 AT A3 / CUT +1200 mm</text><text x="261.0000" y="251.0000" fill="#25372f" font-size="2.2" text-anchor="start">Dimensions govern; do not scale from a screen.</text><path d="M 22 259 H 75.33333333333334" stroke="#25372f" stroke-width=".6"/><path d="M 22.0 258 V 260" stroke="#25372f" stroke-width=".2"/><text x="22.0000" y="264.0000" fill="#25372f" font-size="1.9" text-anchor="middle">0 m</text><path d="M 48.66666666666667 258 V 260" stroke="#25372f" stroke-width=".2"/><text x="48.6667" y="264.0000" fill="#25372f" font-size="1.9" text-anchor="middle">2 m</text><path d="M 75.33333333333334 258 V 260" stroke="#25372f" stroke-width=".2"/><text x="75.3333" y="264.0000" fill="#25372f" font-size="1.9" text-anchor="middle">4 m</text><text x="17.0000" y="279.0000" fill="#8a4933" font-size="2.65" text-anchor="start">PRELIMINARY - ENGINEER TO REVIEW - NOT FOR CONSTRUCTION</text><text x="17.0000" y="286.0000" fill="#25372f" font-size="2.15" text-anchor="start">Reference design screen only. Survey, structure, services, byelaws and professional approval remain outstanding.</text><text x="403.0000" y="283.0000" fill="#25372f" font-size="2.35" text-anchor="end">A-204  |  420 x 297 mm</text></g></svg>