<svg xmlns="http://www.w3.org/2000/svg" width="420mm" height="297mm" viewBox="0 0 420 297"><rect width="420" height="297" fill="white"/><g font-family="Arial,Helvetica,sans-serif"><path d="M 16 31 H 404 M 16 271 H 404" stroke="#25372f" stroke-width=".35"/><text x="17.0000" y="17.0000" fill="#25372f" font-size="5.2" text-anchor="start">FLOORFORGE</text><text x="17.0000" y="25.0000" fill="#25372f" font-size="3.1" text-anchor="start">Section A-A / x = 0.75 m</text><text x="403.0000" y="18.0000" fill="#25372f" font-size="5" text-anchor="end">A-301</text><text x="403.0000" y="25.0000" fill="#25372f" font-size="2.6" text-anchor="end">REV A / PRELIMINARY</text><path d="M 177.3480 178.5234 L 46.8350 178.5234" fill="none" stroke="#25372f" stroke-width="0.25"/><path d="M 46.8350 181.5234 L 177.3480 181.5234" fill="none" stroke="#25372f" stroke-width="0.25"/><path d="M 177.3480 178.5234 L 187.7150 178.5234" fill="none" stroke="#25372f" stroke-width="0.25"/><path d="M 187.7150 181.5234 L 177.3480 181.5234" fill="none" stroke="#25372f" stroke-width="0.25"/><path d="M 187.7150 181.5234 L 187.7150 178.7442" fill="none" stroke="#25372f" stroke-width="0.25"/><path d="M 187.7150 178.5234 L 187.7150 178.7442" fill="none" stroke="#25372f" stroke-width="0.25"/><path d="M 46.8350 181.5234 L 46.8350 181.3027" fill="none" stroke="#25372f" stroke-width="0.25"/><path d="M 46.8350 178.5234 L 46.8350 181.3027" fill="none" stroke="#25372f" stroke-width="0.25"/><path d="M 46.8350 177.0234 L 46.6962 177.0234" fill="none" stroke="#25372f" stroke-width="0.25"/><path d="M 46.6962 181.5234 L 46.8350 181.5234" fill="none" stroke="#25372f" stroke-width="0.25"/><path d="M 187.8538 177.0234 L 187.7150 177.0234" fill="none" stroke="#25372f" stroke-width="0.25"/><path d="M 187.7150 181.5234 L 187.8538 181.5234" fill="none" stroke="#25372f" stroke-width="0.25"/><path d="M 46.6850 177.0234 L 46.6962 177.0234" fill="none" stroke="#25372f" stroke-width="0.25"/><path d="M 46.6962 181.5234 L 46.6850 181.5234" fill="none" stroke="#25372f" stroke-width="0.25"/><path d="M 187.8538 177.0234 L 187.8650 177.0234" fill="none" stroke="#25372f" stroke-width="0.25"/><path d="M 187.8650 181.5234 L 187.8538 181.5234" fill="none" stroke="#25372f" stroke-width="0.25"/><path d="M 187.8650 181.1866 L 187.8650 181.5234" fill="none" stroke="#25372f" stroke-width="0.25"/><path d="M 187.8650 181.1866 L 187.8650 177.0234" fill="none" stroke="#25372f" stroke-width="0.25"/><path d="M 46.6850 177.3602 L 46.6850 181.5234" fill="none" stroke="#25372f" stroke-width="0.25"/><path d="M 46.6850 177.3602 L 46.6850 177.0234" fill="none" stroke="#25372f" stroke-width="0.25"/><path d="M 187.7150 177.3546 L 187.7150 181.5234" fill="none" stroke="#25372f" stroke-width="0.25"/><path d="M 187.7150 177.3546 L 187.7150 177.0234" fill="none" stroke="#25372f" stroke-width="0.25"/><path d="M 46.8350 181.1923 L 46.8350 181.5234" fill="none" stroke="#25372f" stroke-width="0.25"/><path d="M 46.8350 181.1923 L 46.8350 177.0234" fill="none" stroke="#25372f" stroke-width="0.25"/><path d="M 177.3480 177.0234 L 46.8350 177.0234" fill="none" stroke="#25372f" stroke-width="0.25"/><path d="M 46.8350 178.5234 L 177.3480 178.5234" fill="none" stroke="#25372f" stroke-width="0.25"/><path d="M 177.3480 177.0234 L 187.7150 177.0234" fill="none" stroke="#25372f" stroke-width="0.25"/><path d="M 187.7150 178.5234 L 177.3480 178.5234" fill="none" stroke="#25372f" stroke-width="0.25"/><path d="M 187.7150 178.5234 L 187.7150 177.1338" fill="none" stroke="#25372f" stroke-width="0.25"/><path d="M 187.7150 177.0234 L 187.7150 177.1338" fill="none" stroke="#25372f" stroke-width="0.25"/><path d="M 46.8350 178.5234 L 46.8350 178.4130" fill="none" stroke="#25372f" stroke-width="0.25"/><path d="M 46.8350 177.0234 L 46.8350 178.4130" fill="none" stroke="#25372f" stroke-width="0.25"/><path d="M 59.8350 145.5234 L 50.8146 145.5234" fill="none" stroke="#25372f" stroke-width="0.25"/><path d="M 50.8146 147.0234 L 59.8350 147.0234" fill="none" stroke="#25372f" stroke-width="0.25"/><path d="M 157.9048 145.5234 L 90.3350 145.5234" fill="none" stroke="#25372f" stroke-width="0.25"/><path d="M 90.3350 147.0234 L 157.9048 147.0234" fill="none" stroke="#25372f" stroke-width="0.25"/><path d="M 46.8350 145.5234 L 50.8146 145.5234" fill="none" stroke="#25372f" stroke-width="0.25"/><path d="M 50.8146 147.0234 L 46.8350 147.0234" fill="none" stroke="#25372f" stroke-width="0.25"/><path d="M 157.9048 145.5234 L 187.7150 145.5234" fill="none" stroke="#25372f" stroke-width="0.25"/><path d="M 187.7150 147.0234 L 157.9048 147.0234" fill="none" stroke="#25372f" stroke-width="0.25"/><path d="M 187.7150 146.9130 L 187.7150 147.0234" fill="none" stroke="#25372f" stroke-width="0.25"/><path d="M 187.7150 146.9130 L 187.7150 145.5234" fill="none" stroke="#25372f" stroke-width="0.25"/><path d="M 46.8350 145.6338 L 46.8350 147.0234" fill="none" stroke="#25372f" stroke-width="0.25"/><path d="M 46.8350 145.6338 L 46.8350 145.5234" fill="none" stroke="#25372f" stroke-width="0.25"/><path d="M 90.3350 145.8643 L 90.3350 147.0234" fill="none" stroke="#25372f" stroke-width="0.25"/><path d="M 90.3350 145.8643 L 90.3350 145.5234" fill="none" stroke="#25372f" stroke-width="0.25"/><path d="M 59.8350 146.6825 L 59.8350 147.0234" fill="none" stroke="#25372f" stroke-width="0.25"/><path d="M 59.8350 146.6825 L 59.8350 145.5234" fill="none" stroke="#25372f" stroke-width="0.25"/><path d="M 170.6177 114.0234 L 187.7150 114.0234" fill="none" stroke="#25372f" stroke-width="0.25"/><path d="M 187.7150 115.5234 L 170.6177 115.5234" fill="none" stroke="#25372f" stroke-width="0.25"/><path d="M 46.8350 114.0234 L 48.9486 114.0234" fill="none" stroke="#25372f" stroke-width="0.25"/><path d="M 48.9486 115.5234 L 46.8350 115.5234" fill="none" stroke="#25372f" stroke-width="0.25"/><path d="M 170.6177 114.0234 L 48.9486 114.0234" fill="none" stroke="#25372f" stroke-width="0.25"/><path d="M 48.9486 115.5234 L 170.6177 115.5234" fill="none" stroke="#25372f" stroke-width="0.25"/><path d="M 187.7150 115.4130 L 187.7150 115.5234" fill="none" stroke="#25372f" stroke-width="0.25"/><path d="M 187.7150 115.4130 L 187.7150 114.0234" fill="none" stroke="#25372f" stroke-width="0.25"/><path d="M 46.8350 114.2280 L 46.8350 115.5234" fill="none" stroke="#25372f" stroke-width="0.25"/><path d="M 46.8350 114.2280 L 46.8350 114.0234" fill="none" stroke="#25372f" stroke-width="0.25"/><path d="M 163.6223 113.7234 L 91.3350 113.7234" fill="none" stroke="#25372f" stroke-width="0.25"/><path d="M 91.3350 114.0234 L 163.6223 114.0234" fill="none" stroke="#25372f" stroke-width="0.25"/><path d="M 163.6223 113.7234 L 185.5150 113.7234" fill="none" stroke="#25372f" stroke-width="0.25"/><path d="M 185.5150 114.0234 L 163.6223 114.0234" fill="none" stroke="#25372f" stroke-width="0.25"/><path d="M 185.5150 114.0071 L 185.5150 114.0234" fill="none" stroke="#25372f" stroke-width="0.25"/><path d="M 185.5150 114.0071 L 185.5150 113.7234" fill="none" stroke="#25372f" stroke-width="0.25"/><path d="M 91.3350 113.7932 L 91.3350 114.0234" fill="none" stroke="#25372f" stroke-width="0.25"/><path d="M 91.3350 113.7932 L 91.3350 113.7234" fill="none" stroke="#25372f" stroke-width="0.25"/><path d="M 164.3695 111.4224 L 164.4328 111.7203" fill="none" stroke="#25372f" stroke-width="0.25"/><path d="M 164.4328 111.7203 L 178.5592 108.7176" fill="none" stroke="#25372f" stroke-width="0.25"/><path d="M 180.5972 107.9266 L 166.4708 110.9292" fill="none" stroke="#25372f" stroke-width="0.25"/><path d="M 164.3695 111.4224 L 164.3600 111.3779" fill="none" stroke="#25372f" stroke-width="0.25"/><path d="M 164.3600 111.3779 L 166.4708 110.9292" fill="none" stroke="#25372f" stroke-width="0.25"/><path d="M 180.6605 108.2244 L 180.5972 107.9266" fill="none" stroke="#25372f" stroke-width="0.25"/><path d="M 180.6700 108.2689 L 178.5592 108.7176" fill="none" stroke="#25372f" stroke-width="0.25"/><path d="M 180.6605 108.2244 L 180.6700 108.2689" fill="none" stroke="#25372f" stroke-width="0.25"/><path d="M 164.2835 111.6989 L 164.3194 111.8677" fill="none" stroke="#25372f" stroke-width="0.25"/><path d="M 164.3194 111.8677 L 178.4967 108.8542" fill="none" stroke="#25372f" stroke-width="0.25"/><path d="M 180.7106 108.1791 L 166.5333 111.1926" fill="none" stroke="#25372f" stroke-width="0.25"/><path d="M 164.2835 111.6989 L 164.2778 111.6721" fill="none" stroke="#25372f" stroke-width="0.25"/><path d="M 164.2778 111.6721 L 166.5333 111.1926" fill="none" stroke="#25372f" stroke-width="0.25"/><path d="M 180.7465 108.3479 L 180.7106 108.1791" fill="none" stroke="#25372f" stroke-width="0.25"/><path d="M 180.7522 108.3748 L 178.4967 108.8542" fill="none" stroke="#25372f" stroke-width="0.25"/><path d="M 180.7465 108.3479 L 180.7522 108.3748" fill="none" stroke="#25372f" stroke-width="0.25"/><path d="M 143.8695 111.4224 L 143.9328 111.7203" fill="none" stroke="#25372f" stroke-width="0.25"/><path d="M 143.9328 111.7203 L 158.0592 108.7176" fill="none" stroke="#25372f" stroke-width="0.25"/><path d="M 160.0972 107.9266 L 145.9708 110.9292" fill="none" stroke="#25372f" stroke-width="0.25"/><path d="M 143.8695 111.4224 L 143.8600 111.3779" fill="none" stroke="#25372f" stroke-width="0.25"/><path d="M 143.8600 111.3779 L 145.9708 110.9292" fill="none" stroke="#25372f" stroke-width="0.25"/><path d="M 160.1605 108.2244 L 160.0972 107.9266" fill="none" stroke="#25372f" stroke-width="0.25"/><path d="M 160.1700 108.2689 L 158.0592 108.7176" fill="none" stroke="#25372f" stroke-width="0.25"/><path d="M 160.1605 108.2244 L 160.1700 108.2689" fill="none" stroke="#25372f" stroke-width="0.25"/><path d="M 143.7835 111.6989 L 143.8194 111.8677" fill="none" stroke="#25372f" stroke-width="0.25"/><path d="M 143.8194 111.8677 L 157.9967 108.8542" fill="none" stroke="#25372f" stroke-width="0.25"/><path d="M 160.2106 108.1791 L 146.0333 111.1926" fill="none" stroke="#25372f" stroke-width="0.25"/><path d="M 143.7835 111.6989 L 143.7778 111.6721" fill="none" stroke="#25372f" stroke-width="0.25"/><path d="M 143.7778 111.6721 L 146.0333 111.1926" fill="none" stroke="#25372f" stroke-width="0.25"/><path d="M 160.2465 108.3479 L 160.2106 108.1791" fill="none" stroke="#25372f" stroke-width="0.25"/><path d="M 160.2522 108.3748 L 157.9967 108.8542" fill="none" stroke="#25372f" stroke-width="0.25"/><path d="M 160.2465 108.3479 L 160.2522 108.3748" fill="none" stroke="#25372f" stroke-width="0.25"/><path d="M 49.1350 147.0234 L 47.3619 147.0234" fill="none" stroke="#25372f" stroke-width="0.25"/><path d="M 47.3619 177.0234 L 49.1350 177.0234" fill="none" stroke="#25372f" stroke-width="0.25"/><path d="M 46.8350 147.0234 L 47.3619 147.0234" fill="none" stroke="#25372f" stroke-width="0.25"/><path d="M 47.3619 177.0234 L 46.8350 177.0234" fill="none" stroke="#25372f" stroke-width="0.25"/><path d="M 46.8350 153.2634 L 46.8350 177.0234" fill="none" stroke="#25372f" stroke-width="0.25"/><path d="M 46.8350 153.2634 L 46.8350 147.0234" fill="none" stroke="#25372f" stroke-width="0.25"/><path d="M 49.1350 170.1512 L 49.1350 177.0234" fill="none" stroke="#25372f" stroke-width="0.25"/><path d="M 49.1350 170.1512 L 49.1350 147.0234" fill="none" stroke="#25372f" stroke-width="0.25"/><path d="M 91.5068 147.0234 L 90.9286 147.0234" fill="none" stroke="#25372f" stroke-width="0.25"/><path d="M 90.9286 177.0234 L 91.5068 177.0234" fill="none" stroke="#25372f" stroke-width="0.25"/><path d="M 92.0850 147.0234 L 91.5068 147.0234" fill="none" stroke="#25372f" stroke-width="0.25"/><path d="M 91.5068 177.0234 L 92.0850 177.0234" fill="none" stroke="#25372f" stroke-width="0.25"/><path d="M 90.5850 147.0234 L 90.9286 147.0234" fill="none" stroke="#25372f" stroke-width="0.25"/><path d="M 90.9286 177.0234 L 90.5850 177.0234" fill="none" stroke="#25372f" stroke-width="0.25"/><path d="M 90.5850 153.6759 L 90.5850 177.0234" fill="none" stroke="#25372f" stroke-width="0.25"/><path d="M 90.5850 153.6759 L 90.5850 147.0234" fill="none" stroke="#25372f" stroke-width="0.25"/><path d="M 92.0850 170.1512 L 92.0850 177.0234" fill="none" stroke="#25372f" stroke-width="0.25"/><path d="M 92.0850 170.1512 L 92.0850 147.0234" fill="none" stroke="#25372f" stroke-width="0.25"/><path d="M 120.5850 156.0234 L 119.9620 156.0234" fill="none" stroke="#25372f" stroke-width="0.25"/><path d="M 119.9620 177.0234 L 120.5850 177.0234" fill="none" stroke="#25372f" stroke-width="0.25"/><path d="M 119.7080 156.0234 L 119.0850 156.0234" fill="none" stroke="#25372f" stroke-width="0.25"/><path d="M 119.0850 177.0234 L 119.7080 177.0234" fill="none" stroke="#25372f" stroke-width="0.25"/><path d="M 119.7080 156.0234 L 119.9620 156.0234" fill="none" stroke="#25372f" stroke-width="0.25"/><path d="M 119.9620 177.0234 L 119.7080 177.0234" fill="none" stroke="#25372f" stroke-width="0.25"/><path d="M 120.5850 173.4664 L 120.5850 177.0234" fill="none" stroke="#25372f" stroke-width="0.25"/><path d="M 120.5850 173.4664 L 120.5850 156.0234" fill="none" stroke="#25372f" stroke-width="0.25"/><path d="M 119.0850 159.5804 L 119.0850 177.0234" fill="none" stroke="#25372f" stroke-width="0.25"/><path d="M 119.0850 159.5804 L 119.0850 156.0234" fill="none" stroke="#25372f" stroke-width="0.25"/><path d="M 119.9332 147.0234 L 119.2815 147.0234" fill="none" stroke="#25372f" stroke-width="0.25"/><path d="M 119.2815 156.0234 L 119.9332 156.0234" fill="none" stroke="#25372f" stroke-width="0.25"/><path d="M 120.5850 147.0234 L 119.9332 147.0234" fill="none" stroke="#25372f" stroke-width="0.25"/><path d="M 119.9332 156.0234 L 120.5850 156.0234" fill="none" stroke="#25372f" stroke-width="0.25"/><path d="M 119.0850 147.0234 L 119.2815 147.0234" fill="none" stroke="#25372f" stroke-width="0.25"/><path d="M 119.2815 156.0234 L 119.0850 156.0234" fill="none" stroke="#25372f" stroke-width="0.25"/><path d="M 119.0850 148.1804 L 119.0850 156.0234" fill="none" stroke="#25372f" stroke-width="0.25"/><path d="M 119.0850 148.1804 L 119.0850 147.0234" fill="none" stroke="#25372f" stroke-width="0.25"/><path d="M 120.5850 154.8446 L 120.5850 156.0234" fill="none" stroke="#25372f" stroke-width="0.25"/><path d="M 120.5850 154.8446 L 120.5850 147.0234" fill="none" stroke="#25372f" stroke-width="0.25"/><path d="M 135.0436 147.0234 L 134.5021 147.0234" fill="none" stroke="#25372f" stroke-width="0.25"/><path d="M 134.5021 177.0234 L 135.0436 177.0234" fill="none" stroke="#25372f" stroke-width="0.25"/><path d="M 135.5850 147.0234 L 135.0436 147.0234" fill="none" stroke="#25372f" stroke-width="0.25"/><path d="M 135.0436 177.0234 L 135.5850 177.0234" fill="none" stroke="#25372f" stroke-width="0.25"/><path d="M 134.0850 147.0234 L 134.5021 147.0234" fill="none" stroke="#25372f" stroke-width="0.25"/><path d="M 134.5021 177.0234 L 134.0850 177.0234" fill="none" stroke="#25372f" stroke-width="0.25"/><path d="M 134.0850 155.0440 L 134.0850 177.0234" fill="none" stroke="#25372f" stroke-width="0.25"/><path d="M 134.0850 155.0440 L 134.0850 147.0234" fill="none" stroke="#25372f" stroke-width="0.25"/><path d="M 135.5850 168.6812 L 135.5850 177.0234" fill="none" stroke="#25372f" stroke-width="0.25"/><path d="M 135.5850 168.6812 L 135.5850 147.0234" fill="none" stroke="#25372f" stroke-width="0.25"/><path d="M 159.0436 147.0234 L 158.5021 147.0234" fill="none" stroke="#25372f" stroke-width="0.25"/><path d="M 158.5021 177.0234 L 159.0436 177.0234" fill="none" stroke="#25372f" stroke-width="0.25"/><path d="M 159.5850 147.0234 L 159.0436 147.0234" fill="none" stroke="#25372f" stroke-width="0.25"/><path d="M 159.0436 177.0234 L 159.5850 177.0234" fill="none" stroke="#25372f" stroke-width="0.25"/><path d="M 158.0850 147.0234 L 158.5021 147.0234" fill="none" stroke="#25372f" stroke-width="0.25"/><path d="M 158.5021 177.0234 L 158.0850 177.0234" fill="none" stroke="#25372f" stroke-width="0.25"/><path d="M 158.0850 155.0440 L 158.0850 177.0234" fill="none" stroke="#25372f" stroke-width="0.25"/><path d="M 158.0850 155.0440 L 158.0850 147.0234" fill="none" stroke="#25372f" stroke-width="0.25"/><path d="M 159.5850 168.6812 L 159.5850 177.0234" fill="none" stroke="#25372f" stroke-width="0.25"/><path d="M 159.5850 168.6812 L 159.5850 147.0234" fill="none" stroke="#25372f" stroke-width="0.25"/><path d="M 187.7150 167.0234 L 185.9845 167.0234" fill="none" stroke="#25372f" stroke-width="0.25"/><path d="M 185.9845 177.0234 L 187.7150 177.0234" fill="none" stroke="#25372f" stroke-width="0.25"/><path d="M 185.4150 167.0234 L 185.9845 167.0234" fill="none" stroke="#25372f" stroke-width="0.25"/><path d="M 185.9845 177.0234 L 185.4150 177.0234" fill="none" stroke="#25372f" stroke-width="0.25"/><path d="M 187.7150 174.5472 L 187.7150 177.0234" fill="none" stroke="#25372f" stroke-width="0.25"/><path d="M 187.7150 174.5472 L 187.7150 167.0234" fill="none" stroke="#25372f" stroke-width="0.25"/><path d="M 185.4150 169.4996 L 185.4150 177.0234" fill="none" stroke="#25372f" stroke-width="0.25"/><path d="M 185.4150 169.4996 L 185.4150 167.0234" fill="none" stroke="#25372f" stroke-width="0.25"/><path d="M 187.7150 147.0234 L 185.9845 147.0234" fill="none" stroke="#25372f" stroke-width="0.25"/><path d="M 185.9845 155.0234 L 187.7150 155.0234" fill="none" stroke="#25372f" stroke-width="0.25"/><path d="M 185.4150 147.0234 L 185.9845 147.0234" fill="none" stroke="#25372f" stroke-width="0.25"/><path d="M 185.9845 155.0234 L 185.4150 155.0234" fill="none" stroke="#25372f" stroke-width="0.25"/><path d="M 187.7150 153.0425 L 187.7150 155.0234" fill="none" stroke="#25372f" stroke-width="0.25"/><path d="M 187.7150 153.0425 L 187.7150 147.0234" fill="none" stroke="#25372f" stroke-width="0.25"/><path d="M 185.4150 149.0044 L 185.4150 155.0234" fill="none" stroke="#25372f" stroke-width="0.25"/><path d="M 185.4150 149.0044 L 185.4150 147.0234" fill="none" stroke="#25372f" stroke-width="0.25"/><path d="M 49.1350 115.5234 L 47.3619 115.5234" fill="none" stroke="#25372f" stroke-width="0.25"/><path d="M 47.3619 145.5234 L 49.1350 145.5234" fill="none" stroke="#25372f" stroke-width="0.25"/><path d="M 46.8350 115.5234 L 47.3619 115.5234" fill="none" stroke="#25372f" stroke-width="0.25"/><path d="M 47.3619 145.5234 L 46.8350 145.5234" fill="none" stroke="#25372f" stroke-width="0.25"/><path d="M 46.8350 121.7634 L 46.8350 145.5234" fill="none" stroke="#25372f" stroke-width="0.25"/><path d="M 46.8350 121.7634 L 46.8350 115.5234" fill="none" stroke="#25372f" stroke-width="0.25"/><path d="M 49.1350 138.6512 L 49.1350 145.5234" fill="none" stroke="#25372f" stroke-width="0.25"/><path d="M 49.1350 138.6512 L 49.1350 115.5234" fill="none" stroke="#25372f" stroke-width="0.25"/><path d="M 91.5068 115.5234 L 90.9286 115.5234" fill="none" stroke="#25372f" stroke-width="0.25"/><path d="M 90.9286 145.5234 L 91.5068 145.5234" fill="none" stroke="#25372f" stroke-width="0.25"/><path d="M 92.0850 115.5234 L 91.5068 115.5234" fill="none" stroke="#25372f" stroke-width="0.25"/><path d="M 91.5068 145.5234 L 92.0850 145.5234" fill="none" stroke="#25372f" stroke-width="0.25"/><path d="M 90.5850 115.5234 L 90.9286 115.5234" fill="none" stroke="#25372f" stroke-width="0.25"/><path d="M 90.9286 145.5234 L 90.5850 145.5234" fill="none" stroke="#25372f" stroke-width="0.25"/><path d="M 90.5850 122.1759 L 90.5850 145.5234" fill="none" stroke="#25372f" stroke-width="0.25"/><path d="M 90.5850 122.1759 L 90.5850 115.5234" fill="none" stroke="#25372f" stroke-width="0.25"/><path d="M 92.0850 138.6512 L 92.0850 145.5234" fill="none" stroke="#25372f" stroke-width="0.25"/><path d="M 92.0850 138.6512 L 92.0850 115.5234" fill="none" stroke="#25372f" stroke-width="0.25"/><path d="M 160.8947 115.5234 L 160.3244 115.5234" fill="none" stroke="#25372f" stroke-width="0.25"/><path d="M 160.3244 145.5234 L 160.8947 145.5234" fill="none" stroke="#25372f" stroke-width="0.25"/><path d="M 161.4650 115.5234 L 160.8947 115.5234" fill="none" stroke="#25372f" stroke-width="0.25"/><path d="M 160.8947 145.5234 L 161.4650 145.5234" fill="none" stroke="#25372f" stroke-width="0.25"/><path d="M 159.9650 115.5234 L 160.3244 115.5234" fill="none" stroke="#25372f" stroke-width="0.25"/><path d="M 160.3244 145.5234 L 159.9650 145.5234" fill="none" stroke="#25372f" stroke-width="0.25"/><path d="M 159.9650 122.4722 L 159.9650 145.5234" fill="none" stroke="#25372f" stroke-width="0.25"/><path d="M 159.9650 122.4722 L 159.9650 115.5234" fill="none" stroke="#25372f" stroke-width="0.25"/><path d="M 161.4650 138.3345 L 161.4650 145.5234" fill="none" stroke="#25372f" stroke-width="0.25"/><path d="M 161.4650 138.3345 L 161.4650 115.5234" fill="none" stroke="#25372f" stroke-width="0.25"/><path d="M 187.7150 129.0234 L 185.9133 129.0234" fill="none" stroke="#25372f" stroke-width="0.25"/><path d="M 185.9133 145.5234 L 187.7150 145.5234" fill="none" stroke="#25372f" stroke-width="0.25"/><path d="M 185.4150 129.0234 L 185.9133 129.0234" fill="none" stroke="#25372f" stroke-width="0.25"/><path d="M 185.9133 145.5234 L 185.4150 145.5234" fill="none" stroke="#25372f" stroke-width="0.25"/><path d="M 187.7150 141.9484 L 187.7150 145.5234" fill="none" stroke="#25372f" stroke-width="0.25"/><path d="M 187.7150 141.9484 L 187.7150 129.0234" fill="none" stroke="#25372f" stroke-width="0.25"/><path d="M 185.4150 132.5984 L 185.4150 145.5234" fill="none" stroke="#25372f" stroke-width="0.25"/><path d="M 185.4150 132.5984 L 185.4150 129.0234" fill="none" stroke="#25372f" stroke-width="0.25"/><path d="M 187.7150 115.5234 L 185.9133 115.5234" fill="none" stroke="#25372f" stroke-width="0.25"/><path d="M 185.9133 122.0234 L 187.7150 122.0234" fill="none" stroke="#25372f" stroke-width="0.25"/><path d="M 185.4150 115.5234 L 185.9133 115.5234" fill="none" stroke="#25372f" stroke-width="0.25"/><path d="M 185.9133 122.0234 L 185.4150 122.0234" fill="none" stroke="#25372f" stroke-width="0.25"/><path d="M 187.7150 120.6151 L 187.7150 122.0234" fill="none" stroke="#25372f" stroke-width="0.25"/><path d="M 187.7150 120.6151 L 187.7150 115.5234" fill="none" stroke="#25372f" stroke-width="0.25"/><path d="M 185.4150 116.9318 L 185.4150 122.0234" fill="none" stroke="#25372f" stroke-width="0.25"/><path d="M 185.4150 116.9318 L 185.4150 115.5234" fill="none" stroke="#25372f" stroke-width="0.25"/><path d="M 59.8350 176.1484 L 59.8350 177.0234" fill="none" stroke="#25372f" stroke-width="0.25"/><path d="M 59.8350 177.0234 L 61.0850 177.0234" fill="none" stroke="#25372f" stroke-width="0.25"/><path d="M 62.3350 175.2734 L 61.0850 175.2734" fill="none" stroke="#25372f" stroke-width="0.25"/><path d="M 59.8350 176.1484 L 59.8350 175.2734" fill="none" stroke="#25372f" stroke-width="0.25"/><path d="M 59.8350 175.2734 L 61.0850 175.2734" fill="none" stroke="#25372f" stroke-width="0.25"/><path d="M 62.3350 176.1484 L 62.3350 175.2734" fill="none" stroke="#25372f" stroke-width="0.25"/><path d="M 62.3350 177.0234 L 61.0850 177.0234" fill="none" stroke="#25372f" stroke-width="0.25"/><path d="M 62.3350 176.1484 L 62.3350 177.0234" fill="none" stroke="#25372f" stroke-width="0.25"/><path d="M 62.3350 174.7984 L 62.3350 176.0734" fill="none" stroke="#25372f" stroke-width="0.25"/><path d="M 62.3350 176.0734 L 63.5850 176.0734" fill="none" stroke="#25372f" stroke-width="0.25"/><path d="M 64.8350 173.5234 L 63.5850 173.5234" fill="none" stroke="#25372f" stroke-width="0.25"/><path d="M 62.3350 174.7984 L 62.3350 173.5234" fill="none" stroke="#25372f" stroke-width="0.25"/><path d="M 62.3350 173.5234 L 63.5850 173.5234" fill="none" stroke="#25372f" stroke-width="0.25"/><path d="M 64.8350 174.7984 L 64.8350 173.5234" fill="none" stroke="#25372f" stroke-width="0.25"/><path d="M 64.8350 176.0734 L 63.5850 176.0734" fill="none" stroke="#25372f" stroke-width="0.25"/><path d="M 64.8350 174.7984 L 64.8350 176.0734" fill="none" stroke="#25372f" stroke-width="0.25"/><path d="M 64.8350 173.0484 L 64.8350 174.3234" fill="none" stroke="#25372f" stroke-width="0.25"/><path d="M 64.8350 174.3234 L 66.0850 174.3234" fill="none" stroke="#25372f" stroke-width="0.25"/><path d="M 67.3350 171.7734 L 66.0850 171.7734" fill="none" stroke="#25372f" stroke-width="0.25"/><path d="M 64.8350 173.0484 L 64.8350 171.7734" fill="none" stroke="#25372f" stroke-width="0.25"/><path d="M 64.8350 171.7734 L 66.0850 171.7734" fill="none" stroke="#25372f" stroke-width="0.25"/><path d="M 67.3350 173.0484 L 67.3350 171.7734" fill="none" stroke="#25372f" stroke-width="0.25"/><path d="M 67.3350 174.3234 L 66.0850 174.3234" fill="none" stroke="#25372f" stroke-width="0.25"/><path d="M 67.3350 173.0484 L 67.3350 174.3234" fill="none" stroke="#25372f" stroke-width="0.25"/><path d="M 67.3350 171.2984 L 67.3350 172.5734" fill="none" stroke="#25372f" stroke-width="0.25"/><path d="M 67.3350 172.5734 L 68.5850 172.5734" fill="none" stroke="#25372f" stroke-width="0.25"/><path d="M 69.8350 170.0234 L 68.5850 170.0234" fill="none" stroke="#25372f" stroke-width="0.25"/><path d="M 67.3350 171.2984 L 67.3350 170.0234" fill="none" stroke="#25372f" stroke-width="0.25"/><path d="M 67.3350 170.0234 L 68.5850 170.0234" fill="none" stroke="#25372f" stroke-width="0.25"/><path d="M 69.8350 171.2984 L 69.8350 170.0234" fill="none" stroke="#25372f" stroke-width="0.25"/><path d="M 69.8350 172.5734 L 68.5850 172.5734" fill="none" stroke="#25372f" stroke-width="0.25"/><path d="M 69.8350 171.2984 L 69.8350 172.5734" fill="none" stroke="#25372f" stroke-width="0.25"/><path d="M 69.8350 169.5484 L 69.8350 170.8234" fill="none" stroke="#25372f" stroke-width="0.25"/><path d="M 69.8350 170.8234 L 71.0850 170.8234" fill="none" stroke="#25372f" stroke-width="0.25"/><path d="M 72.3350 168.2734 L 71.0850 168.2734" fill="none" stroke="#25372f" stroke-width="0.25"/><path d="M 69.8350 169.5484 L 69.8350 168.2734" fill="none" stroke="#25372f" stroke-width="0.25"/><path d="M 69.8350 168.2734 L 71.0850 168.2734" fill="none" stroke="#25372f" stroke-width="0.25"/><path d="M 72.3350 169.5484 L 72.3350 168.2734" fill="none" stroke="#25372f" stroke-width="0.25"/><path d="M 72.3350 170.8234 L 71.0850 170.8234" fill="none" stroke="#25372f" stroke-width="0.25"/><path d="M 72.3350 169.5484 L 72.3350 170.8234" fill="none" stroke="#25372f" stroke-width="0.25"/><path d="M 72.3350 167.7984 L 72.3350 169.0734" fill="none" stroke="#25372f" stroke-width="0.25"/><path d="M 72.3350 169.0734 L 73.5850 169.0734" fill="none" stroke="#25372f" stroke-width="0.25"/><path d="M 74.8350 166.5234 L 73.5850 166.5234" fill="none" stroke="#25372f" stroke-width="0.25"/><path d="M 72.3350 167.7984 L 72.3350 166.5234" fill="none" stroke="#25372f" stroke-width="0.25"/><path d="M 72.3350 166.5234 L 73.5850 166.5234" fill="none" stroke="#25372f" stroke-width="0.25"/><path d="M 74.8350 167.7984 L 74.8350 166.5234" fill="none" stroke="#25372f" stroke-width="0.25"/><path d="M 74.8350 169.0734 L 73.5850 169.0734" fill="none" stroke="#25372f" stroke-width="0.25"/><path d="M 74.8350 167.7984 L 74.8350 169.0734" fill="none" stroke="#25372f" stroke-width="0.25"/><path d="M 74.8350 166.0484 L 74.8350 167.3234" fill="none" stroke="#25372f" stroke-width="0.25"/><path d="M 74.8350 167.3234 L 76.0850 167.3234" fill="none" stroke="#25372f" stroke-width="0.25"/><path d="M 77.3350 164.7734 L 76.0850 164.7734" fill="none" stroke="#25372f" stroke-width="0.25"/><path d="M 74.8350 166.0484 L 74.8350 164.7734" fill="none" stroke="#25372f" stroke-width="0.25"/><path d="M 74.8350 164.7734 L 76.0850 164.7734" fill="none" stroke="#25372f" stroke-width="0.25"/><path d="M 77.3350 166.0484 L 77.3350 164.7734" fill="none" stroke="#25372f" stroke-width="0.25"/><path d="M 77.3350 167.3234 L 76.0850 167.3234" fill="none" stroke="#25372f" stroke-width="0.25"/><path d="M 77.3350 166.0484 L 77.3350 167.3234" fill="none" stroke="#25372f" stroke-width="0.25"/><path d="M 77.3350 164.2984 L 77.3350 165.5734" fill="none" stroke="#25372f" stroke-width="0.25"/><path d="M 77.3350 165.5734 L 78.5850 165.5734" fill="none" stroke="#25372f" stroke-width="0.25"/><path d="M 79.8350 163.0234 L 78.5850 163.0234" fill="none" stroke="#25372f" stroke-width="0.25"/><path d="M 77.3350 164.2984 L 77.3350 163.0234" fill="none" stroke="#25372f" stroke-width="0.25"/><path d="M 77.3350 163.0234 L 78.5850 163.0234" fill="none" stroke="#25372f" stroke-width="0.25"/><path d="M 79.8350 164.2984 L 79.8350 163.0234" fill="none" stroke="#25372f" stroke-width="0.25"/><path d="M 79.8350 165.5734 L 78.5850 165.5734" fill="none" stroke="#25372f" stroke-width="0.25"/><path d="M 79.8350 164.2984 L 79.8350 165.5734" fill="none" stroke="#25372f" stroke-width="0.25"/><path d="M 79.8350 161.6371 L 79.8350 162.8734" fill="none" stroke="#25372f" stroke-width="0.25"/><path d="M 79.8350 162.8734 L 87.9486 162.8734" fill="none" stroke="#25372f" stroke-width="0.25"/><path d="M 90.3350 161.2734 L 82.2214 161.2734" fill="none" stroke="#25372f" stroke-width="0.25"/><path d="M 79.8350 161.6371 L 79.8350 161.2734" fill="none" stroke="#25372f" stroke-width="0.25"/><path d="M 79.8350 161.2734 L 82.2214 161.2734" fill="none" stroke="#25372f" stroke-width="0.25"/><path d="M 90.3350 162.5098 L 90.3350 161.2734" fill="none" stroke="#25372f" stroke-width="0.25"/><path d="M 90.3350 162.8734 L 87.9486 162.8734" fill="none" stroke="#25372f" stroke-width="0.25"/><path d="M 90.3350 162.5098 L 90.3350 162.8734" fill="none" stroke="#25372f" stroke-width="0.25"/><path d="M 49.3350 145.8871 L 49.3350 147.1234" fill="none" stroke="#25372f" stroke-width="0.25"/><path d="M 49.3350 147.1234 L 57.4486 147.1234" fill="none" stroke="#25372f" stroke-width="0.25"/><path d="M 59.8350 145.5234 L 51.7214 145.5234" fill="none" stroke="#25372f" stroke-width="0.25"/><path d="M 49.3350 145.8871 L 49.3350 145.5234" fill="none" stroke="#25372f" stroke-width="0.25"/><path d="M 49.3350 145.5234 L 51.7214 145.5234" fill="none" stroke="#25372f" stroke-width="0.25"/><path d="M 59.8350 146.7598 L 59.8350 145.5234" fill="none" stroke="#25372f" stroke-width="0.25"/><path d="M 59.8350 147.1234 L 57.4486 147.1234" fill="none" stroke="#25372f" stroke-width="0.25"/><path d="M 59.8350 146.7598 L 59.8350 147.1234" fill="none" stroke="#25372f" stroke-width="0.25"/><path d="M 31.8350 181.5234 L 202.7150 181.5234" fill="none" stroke="#25372f" stroke-width="0.5"/><path d="M 188.9150 177.0234 L 195.9150 177.0234" fill="none" stroke="#a8afa4" stroke-width="0.12"/><path d="M 188.9150 145.5234 L 195.9150 145.5234" fill="none" stroke="#a8afa4" stroke-width="0.12"/><path d="M 194.7150 177.0234 L 194.7150 145.5234" fill="none" stroke="#25372f" stroke-width="0.15"/><path d="M 194.1650 177.5734 L 195.2650 176.4734" fill="none" stroke="#25372f" stroke-width="0.28"/><path d="M 194.1650 146.0734 L 195.2650 144.9734" fill="none" stroke="#25372f" stroke-width="0.28"/><text x="197.2150" y="161.2734" fill="#25372f" font-size="1.8" text-anchor="middle" transform="rotate(-90.0 197.2150 161.2734)">3150</text><path d="M 188.9150 145.5234 L 195.9150 145.5234" fill="none" stroke="#a8afa4" stroke-width="0.12"/><path d="M 188.9150 114.0234 L 195.9150 114.0234" fill="none" stroke="#a8afa4" stroke-width="0.12"/><path d="M 194.7150 145.5234 L 194.7150 114.0234" fill="none" stroke="#25372f" stroke-width="0.15"/><path d="M 194.1650 146.0734 L 195.2650 144.9734" fill="none" stroke="#25372f" stroke-width="0.28"/><path d="M 194.1650 114.5734 L 195.2650 113.4734" fill="none" stroke="#25372f" stroke-width="0.28"/><text x="197.2150" y="129.7734" fill="#25372f" font-size="1.8" text-anchor="middle" transform="rotate(-90.0 197.2150 129.7734)">3150</text><path d="M 188.9150 181.5234 L 201.9150 181.5234" fill="none" stroke="#a8afa4" stroke-width="0.12"/><path d="M 188.9150 114.0234 L 201.9150 114.0234" fill="none" stroke="#a8afa4" stroke-width="0.12"/><path d="M 200.7150 181.5234 L 200.7150 114.0234" fill="none" stroke="#25372f" stroke-width="0.15"/><path d="M 200.1650 182.0734 L 201.2650 180.9734" fill="none" stroke="#25372f" stroke-width="0.28"/><path d="M 200.1650 114.5734 L 201.2650 113.4734" fill="none" stroke="#25372f" stroke-width="0.28"/><text x="203.2150" y="147.7734" fill="#25372f" font-size="1.8" text-anchor="middle" transform="rotate(-90.0 203.2150 147.7734)">6750</text><path d="M 208.7150 181.5234 L 215.7150 181.5234" fill="none" stroke="#a8afa4" stroke-width="0.12" stroke-dasharray="1.2 .6"/><polygon points="217.1150,179.6234 219.3150,179.6234 218.2150,181.5234" fill="#25372f" stroke="#25372f" stroke-width="0.15"/><path d="M 214.4150 181.5234 L 222.0150 181.5234" fill="none" stroke="#25372f" stroke-width="0.15"/><text x="219.9150" y="180.9234" fill="#25372f" font-size="1.5" text-anchor="start">NGL ±0.000</text><path d="M 208.7150 177.0234 L 215.7150 177.0234" fill="none" stroke="#a8afa4" stroke-width="0.12" stroke-dasharray="1.2 .6"/><polygon points="217.1150,175.1234 219.3150,175.1234 218.2150,177.0234" fill="#25372f" stroke="#25372f" stroke-width="0.15"/><path d="M 214.4150 177.0234 L 222.0150 177.0234" fill="none" stroke="#25372f" stroke-width="0.15"/><text x="219.9150" y="176.4234" fill="#25372f" font-size="1.5" text-anchor="start">FFL +0.450</text><path d="M 208.7150 145.5234 L 215.7150 145.5234" fill="none" stroke="#a8afa4" stroke-width="0.12" stroke-dasharray="1.2 .6"/><polygon points="217.1150,143.6234 219.3150,143.6234 218.2150,145.5234" fill="#25372f" stroke="#25372f" stroke-width="0.15"/><path d="M 214.4150 145.5234 L 222.0150 145.5234" fill="none" stroke="#25372f" stroke-width="0.15"/><text x="219.9150" y="144.9234" fill="#25372f" font-size="1.5" text-anchor="start">FFL +3.600</text><path d="M 208.7150 114.0234 L 215.7150 114.0234" fill="none" stroke="#a8afa4" stroke-width="0.12" stroke-dasharray="1.2 .6"/><polygon points="217.1150,112.1234 219.3150,112.1234 218.2150,114.0234" fill="#25372f" stroke="#25372f" stroke-width="0.15"/><path d="M 214.4150 114.0234 L 222.0150 114.0234" fill="none" stroke="#25372f" stroke-width="0.15"/><text x="219.9150" y="113.4234" fill="#25372f" font-size="1.5" text-anchor="start">TOS +6.750</text><path d="M 250 42 V 256" stroke="#c9d0c7" stroke-width=".2"/><text x="261.0000" y="46.0000" fill="#25372f" font-size="3.8" text-anchor="start">The Verandah House</text><text x="261.0000" y="150.0000" fill="#25372f" font-size="2.7" text-anchor="start">DRAWING NOTES</text><text x="261.0000" y="157.0000" fill="#25372f" font-size="2.1" text-anchor="start">Actual mesh-plane intersections, not a generic stair</text><text x="261.0000" y="160.9000" fill="#25372f" font-size="2.1" text-anchor="start">illustration.</text><text x="261.0000" y="166.6000" fill="#25372f" font-size="2.1" text-anchor="start">Cut objects: walls, floor slabs, roof, stair and plinth. Levels</text><text x="261.0000" y="170.5000" fill="#25372f" font-size="2.1" text-anchor="start">in metres above NGL.</text><text x="261.0000" y="176.2000" fill="#25372f" font-size="2.1" text-anchor="start">No reinforcement or foundation design is represented.</text><text x="261.0000" y="181.9000" fill="#25372f" font-size="2.1" text-anchor="start">Stair headroom and handrails require a separate professional</text><text x="261.0000" y="185.8000" fill="#25372f" font-size="2.1" text-anchor="start">check.</text><text x="261.0000" y="244.0000" fill="#25372f" font-size="2.4" text-anchor="start">SCALE 1:100 AT A3 / CUT +1200 mm</text><text x="261.0000" y="251.0000" fill="#25372f" font-size="2.2" text-anchor="start">Dimensions govern; do not scale from a screen.</text><path d="M 22 259 H 62.0" stroke="#25372f" stroke-width=".6"/><path d="M 22.0 258 V 260" stroke="#25372f" stroke-width=".2"/><text x="22.0000" y="264.0000" fill="#25372f" font-size="1.9" text-anchor="middle">0 m</text><path d="M 42.0 258 V 260" stroke="#25372f" stroke-width=".2"/><text x="42.0000" y="264.0000" fill="#25372f" font-size="1.9" text-anchor="middle">2 m</text><path d="M 62.0 258 V 260" stroke="#25372f" stroke-width=".2"/><text x="62.0000" y="264.0000" fill="#25372f" font-size="1.9" text-anchor="middle">4 m</text><text x="17.0000" y="279.0000" fill="#8a4933" font-size="2.65" text-anchor="start">PRELIMINARY - ENGINEER TO REVIEW - NOT FOR CONSTRUCTION</text><text x="17.0000" y="286.0000" fill="#25372f" font-size="2.15" text-anchor="start">Reference design screen only. Survey, structure, services, byelaws and professional approval remain outstanding.</text><text x="403.0000" y="283.0000" fill="#25372f" font-size="2.35" text-anchor="end">A-301  |  420 x 297 mm</text></g></svg>