  0
SECTION
  2
HEADER
  9
$ACADVER
  1
AC1032
  9
$ACADMAINTVER
 90
4
  9
$DWGCODEPAGE
  3
ANSI_1252
  9
$LASTSAVEDBY
  1
ezdxf
  9
$REQUIREDVERSIONS
160
0
  9
$INSBASE
 10
0.0
 20
0.0
 30
0.0
  9
$EXTMIN
 10
1e+20
 20
1e+20
 30
1e+20
  9
$EXTMAX
 10
-1e+20
 20
-1e+20
 30
-1e+20
  9
$LIMMIN
 10
0.0
 20
0.0
  9
$LIMMAX
 10
420.0
 20
297.0
  9
$ORTHOMODE
 70
0
  9
$REGENMODE
 70
1
  9
$FILLMODE
 70
1
  9
$QTEXTMODE
 70
0
  9
$MIRRTEXT
 70
1
  9
$LTSCALE
 40
1.0
  9
$ATTMODE
 70
1
  9
$TEXTSIZE
 40
2.5
  9
$TRACEWID
 40
1.0
  9
$TEXTSTYLE
  7
OpenSans
  9
$CLAYER
  8
0
  9
$CELTYPE
  6
ByLayer
  9
$CECOLOR
 62
256
  9
$CELTSCALE
 40
1.0
  9
$DISPSILH
 70
0
  9
$DIMSCALE
 40
1.0
  9
$DIMASZ
 40
0.175
  9
$DIMEXO
 40
0.125
  9
$DIMDLI
 40
3.75
  9
$DIMRND
 40
0.0
  9
$DIMDLE
 40
0.0
  9
$DIMEXE
 40
0.375
  9
$DIMTP
 40
0.0
  9
$DIMTM
 40
0.0
  9
$DIMTXT
 40
0.25
  9
$DIMCEN
 40
2.5
  9
$DIMTSZ
 40
0.0
  9
$DIMTOL
 70
0
  9
$DIMLIM
 70
0
  9
$DIMTIH
 70
0
  9
$DIMTOH
 70
0
  9
$DIMSE1
 70
0
  9
$DIMSE2
 70
0
  9
$DIMTAD
 70
1
  9
$DIMZIN
 70
12
  9
$DIMBLK
  1
ARCHTICK
  9
$DIMASO
 70
1
  9
$DIMSHO
 70
1
  9
$DIMPOST
  1

  9
$DIMAPOST
  1

  9
$DIMALT
 70
0
  9
$DIMALTD
 70
3
  9
$DIMALTF
 40
0.03937007874
  9
$DIMLFAC
 40
100.0
  9
$DIMTOFL
 70
1
  9
$DIMTVP
 40
0.0
  9
$DIMTIX
 70
0
  9
$DIMSOXD
 70
0
  9
$DIMSAH
 70
0
  9
$DIMBLK1
  1

  9
$DIMBLK2
  1

  9
$DIMSTYLE
  2
EZDXF
  9
$DIMCLRD
 70
0
  9
$DIMCLRE
 70
0
  9
$DIMCLRT
 70
0
  9
$DIMTFAC
 40
0.5
  9
$DIMGAP
 40
0.1
  9
$DIMJUST
 70
0
  9
$DIMSD1
 70
0
  9
$DIMSD2
 70
0
  9
$DIMTOLJ
 70
0
  9
$DIMTZIN
 70
8
  9
$DIMALTZ
 70
0
  9
$DIMALTTZ
 70
0
  9
$DIMUPT
 70
1
  9
$DIMDEC
 70
2
  9
$DIMTDEC
 70
2
  9
$DIMALTU
 70
2
  9
$DIMALTTD
 70
3
  9
$DIMTXSTY
  7
OpenSansCondensed-Light
  9
$DIMAUNIT
 70
0
  9
$DIMADEC
 70
2
  9
$DIMALTRND
 40
0.0
  9
$DIMAZIN
 70
3
  9
$DIMDSEP
 70
46
  9
$DIMATFIT
 70
3
  9
$DIMFRAC
 70
0
  9
$DIMLDRBLK
  1

  9
$DIMLUNIT
 70
2
  9
$DIMLWD
 70
-2
  9
$DIMLWE
 70
-2
  9
$DIMTMOVE
 70
2
  9
$DIMFXL
 40
1.0
  9
$DIMFXLON
 70
0
  9
$DIMJOGANG
 40
0.785398163397
  9
$DIMTFILL
 70
0
  9
$DIMTFILLCLR
 70
0
  9
$DIMARCSYM
 70
0
  9
$DIMLTYPE
  6

  9
$DIMLTEX1
  6

  9
$DIMLTEX2
  6

  9
$DIMTXTDIRECTION
 70
0
  9
$LUNITS
 70
2
  9
$LUPREC
 70
4
  9
$SKETCHINC
 40
1.0
  9
$FILLETRAD
 40
10.0
  9
$AUNITS
 70
0
  9
$AUPREC
 70
2
  9
$MENU
  1
.
  9
$ELEVATION
 40
0.0
  9
$PELEVATION
 40
0.0
  9
$THICKNESS
 40
0.0
  9
$LIMCHECK
 70
0
  9
$CHAMFERA
 40
0.0
  9
$CHAMFERB
 40
0.0
  9
$CHAMFERC
 40
0.0
  9
$CHAMFERD
 40
0.0
  9
$SKPOLY
 70
0
  9
$TDCREATE
 40
2451545.0
  9
$TDUCREATE
 40
2451545.0
  9
$TDUPDATE
 40
2451545.0
  9
$TDUUPDATE
 40
2451545.0
  9
$TDINDWG
 40
0.0
  9
$TDUSRTIMER
 40
0.0
  9
$USRTIMER
 70
1
  9
$ANGBASE
 50
0.0
  9
$ANGDIR
 70
0
  9
$PDMODE
 70
0
  9
$PDSIZE
 40
0.0
  9
$PLINEWID
 40
0.0
  9
$SPLFRAME
 70
0
  9
$SPLINETYPE
 70
6
  9
$SPLINESEGS
 70
8
  9
$HANDSEED
  5
424
  9
$SURFTAB1
 70
6
  9
$SURFTAB2
 70
6
  9
$SURFTYPE
 70
6
  9
$SURFU
 70
6
  9
$SURFV
 70
6
  9
$UCSBASE
  2

  9
$UCSNAME
  2

  9
$UCSORG
 10
0.0
 20
0.0
 30
0.0
  9
$UCSXDIR
 10
1.0
 20
0.0
 30
0.0
  9
$UCSYDIR
 10
0.0
 20
1.0
 30
0.0
  9
$UCSORTHOREF
  2

  9
$UCSORTHOVIEW
 70
0
  9
$UCSORGTOP
 10
0.0
 20
0.0
 30
0.0
  9
$UCSORGBOTTOM
 10
0.0
 20
0.0
 30
0.0
  9
$UCSORGLEFT
 10
0.0
 20
0.0
 30
0.0
  9
$UCSORGRIGHT
 10
0.0
 20
0.0
 30
0.0
  9
$UCSORGFRONT
 10
0.0
 20
0.0
 30
0.0
  9
$UCSORGBACK
 10
0.0
 20
0.0
 30
0.0
  9
$PUCSBASE
  2

  9
$PUCSNAME
  2

  9
$PUCSORG
 10
0.0
 20
0.0
 30
0.0
  9
$PUCSXDIR
 10
1.0
 20
0.0
 30
0.0
  9
$PUCSYDIR
 10
0.0
 20
1.0
 30
0.0
  9
$PUCSORTHOREF
  2

  9
$PUCSORTHOVIEW
 70
0
  9
$PUCSORGTOP
 10
0.0
 20
0.0
 30
0.0
  9
$PUCSORGBOTTOM
 10
0.0
 20
0.0
 30
0.0
  9
$PUCSORGLEFT
 10
0.0
 20
0.0
 30
0.0
  9
$PUCSORGRIGHT
 10
0.0
 20
0.0
 30
0.0
  9
$PUCSORGFRONT
 10
0.0
 20
0.0
 30
0.0
  9
$PUCSORGBACK
 10
0.0
 20
0.0
 30
0.0
  9
$USERI1
 70
0
  9
$USERI2
 70
0
  9
$USERI3
 70
0
  9
$USERI4
 70
0
  9
$USERI5
 70
0
  9
$USERR1
 40
0.0
  9
$USERR2
 40
0.0
  9
$USERR3
 40
0.0
  9
$USERR4
 40
0.0
  9
$USERR5
 40
0.0
  9
$WORLDVIEW
 70
1
  9
$SHADEDGE
 70
3
  9
$SHADEDIF
 70
70
  9
$TILEMODE
 70
1
  9
$MAXACTVP
 70
64
  9
$PINSBASE
 10
0.0
 20
0.0
 30
0.0
  9
$PLIMCHECK
 70
0
  9
$PEXTMIN
 10
1e+20
 20
1e+20
 30
1e+20
  9
$PEXTMAX
 10
-1e+20
 20
-1e+20
 30
-1e+20
  9
$PLIMMIN
 10
0.0
 20
0.0
  9
$PLIMMAX
 10
420.0
 20
297.0
  9
$UNITMODE
 70
0
  9
$VISRETAIN
 70
1
  9
$PLINEGEN
 70
0
  9
$PSLTSCALE
 70
1
  9
$TREEDEPTH
 70
3020
  9
$CMLSTYLE
  2
Standard
  9
$CMLJUST
 70
0
  9
$CMLSCALE
 40
20.0
  9
$PROXYGRAPHICS
 70
1
  9
$MEASUREMENT
 70
1
  9
$CELWEIGHT
370
-1
  9
$ENDCAPS
280
0
  9
$JOINSTYLE
280
0
  9
$LWDISPLAY
290
0
  9
$INSUNITS
 70
4
  9
$HYPERLINKBASE
  1

  9
$STYLESHEET
  1

  9
$XEDIT
290
1
  9
$CEPSNTYPE
380
0
  9
$PSTYLEMODE
290
1
  9
$FINGERPRINTGUID
  2
{701AF079-3BBB-5B68-A05D-A1BDD413A081}
  9
$VERSIONGUID
  2
{5D2B8053-8C4E-51FA-943C-87999354E112}
  9
$EXTNAMES
290
1
  9
$PSVPSCALE
 40
0.0
  9
$OLESTARTUP
290
0
  9
$SORTENTS
280
127
  9
$INDEXCTL
280
0
  9
$HIDETEXT
280
1
  9
$XCLIPFRAME
280
1
  9
$HALOGAP
280
0
  9
$OBSCOLOR
 70
257
  9
$OBSLTYPE
280
0
  9
$INTERSECTIONDISPLAY
280
0
  9
$INTERSECTIONCOLOR
 70
257
  9
$DIMASSOC
280
2
  9
$PROJECTNAME
  1

  9
$CAMERADISPLAY
290
0
  9
$LENSLENGTH
 40
50.0
  9
$CAMERAHEIGHT
 40
0.0
  9
$STEPSPERSEC
 40
24.0
  9
$STEPSIZE
 40
100.0
  9
$3DDWFPREC
 40
2.0
  9
$PSOLWIDTH
 40
0.005
  9
$PSOLHEIGHT
 40
0.08
  9
$LOFTANG1
 40
1.570796326795
  9
$LOFTANG2
 40
1.570796326795
  9
$LOFTMAG1
 40
0.0
  9
$LOFTMAG2
 40
0.0
  9
$LOFTPARAM
 70
7
  9
$LOFTNORMALS
280
1
  9
$LATITUDE
 40
37.795
  9
$LONGITUDE
 40
-122.394
  9
$NORTHDIRECTION
 40
0.0
  9
$TIMEZONE
 70
-8000
  9
$LIGHTGLYPHDISPLAY
280
1
  9
$TILEMODELIGHTSYNCH
280
1
  9
$CMATERIAL
347
20
  9
$SOLIDHIST
280
0
  9
$SHOWHIST
280
1
  9
$DWFFRAME
280
2
  9
$DGNFRAME
280
2
  9
$REALWORLDSCALE
290
1
  9
$INTERFERECOLOR
 62
256
  9
$CSHADOW
280
0
  9
$SHADOWPLANELOCATION
 40
0.0
  0
ENDSEC
  0
SECTION
  2
CLASSES
  0
CLASS
  1
ACDBDICTIONARYWDFLT
  2
AcDbDictionaryWithDefault
  3
ObjectDBX Classes
 90
0
 91
0
280
0
281
0
  0
CLASS
  1
SUN
  2
AcDbSun
  3
SCENEOE
 90
1153
 91
0
280
0
281
0
  0
CLASS
  1
VISUALSTYLE
  2
AcDbVisualStyle
  3
ObjectDBX Classes
 90
4095
 91
0
280
0
281
0
  0
CLASS
  1
MATERIAL
  2
AcDbMaterial
  3
ObjectDBX Classes
 90
1153
 91
0
280
0
281
0
  0
CLASS
  1
SCALE
  2
AcDbScale
  3
ObjectDBX Classes
 90
1153
 91
0
280
0
281
0
  0
CLASS
  1
TABLESTYLE
  2
AcDbTableStyle
  3
ObjectDBX Classes
 90
4095
 91
0
280
0
281
0
  0
CLASS
  1
MLEADERSTYLE
  2
AcDbMLeaderStyle
  3
ACDB_MLEADERSTYLE_CLASS
 90
4095
 91
0
280
0
281
0
  0
CLASS
  1
DICTIONARYVAR
  2
AcDbDictionaryVar
  3
ObjectDBX Classes
 90
0
 91
0
280
0
281
0
  0
CLASS
  1
CELLSTYLEMAP
  2
AcDbCellStyleMap
  3
ObjectDBX Classes
 90
1152
 91
0
280
0
281
0
  0
CLASS
  1
MENTALRAYRENDERSETTINGS
  2
AcDbMentalRayRenderSettings
  3
SCENEOE
 90
1024
 91
0
280
0
281
0
  0
CLASS
  1
ACDBDETAILVIEWSTYLE
  2
AcDbDetailViewStyle
  3
ObjectDBX Classes
 90
1025
 91
0
280
0
281
0
  0
CLASS
  1
ACDBSECTIONVIEWSTYLE
  2
AcDbSectionViewStyle
  3
ObjectDBX Classes
 90
1025
 91
0
280
0
281
0
  0
CLASS
  1
RASTERVARIABLES
  2
AcDbRasterVariables
  3
ISM
 90
0
 91
0
280
0
281
0
  0
CLASS
  1
ACDBPLACEHOLDER
  2
AcDbPlaceHolder
  3
ObjectDBX Classes
 90
0
 91
0
280
0
281
0
  0
CLASS
  1
LAYOUT
  2
AcDbLayout
  3
ObjectDBX Classes
 90
0
 91
0
280
0
281
0
  0
ENDSEC
  0
SECTION
  2
TABLES
  0
TABLE
  2
VPORT
  5
8
330
0
100
AcDbSymbolTable
 70
1
  0
VPORT
  5
23
330
8
100
AcDbSymbolTableRecord
100
AcDbViewportTableRecord
  2
*Active
 70
0
 10
0.0
 20
0.0
 11
1.0
 21
1.0
 12
0.0
 22
0.0
 13
0.0
 23
0.0
 14
0.5
 24
0.5
 15
0.5
 25
0.5
 16
0.0
 26
0.0
 36
1.0
 17
0.0
 27
0.0
 37
0.0
 40
1000.0
 41
1.34
 42
50.0
 43
0.0
 44
0.0
 50
0.0
 51
0.0
 71
0
 72
1000
 73
1
 74
3
 75
0
 76
0
 77
0
 78
0
281
0
 65
0
146
0.0
  0
ENDTAB
  0
TABLE
  2
LTYPE
  5
2
330
0
100
AcDbSymbolTable
 70
21
  0
LTYPE
  5
24
330
2
100
AcDbSymbolTableRecord
100
AcDbLinetypeTableRecord
  2
ByBlock
 70
0
  3

 72
65
 73
0
 40
0.0
  0
LTYPE
  5
25
330
2
100
AcDbSymbolTableRecord
100
AcDbLinetypeTableRecord
  2
ByLayer
 70
0
  3

 72
65
 73
0
 40
0.0
  0
LTYPE
  5
26
330
2
100
AcDbSymbolTableRecord
100
AcDbLinetypeTableRecord
  2
Continuous
 70
0
  3

 72
65
 73
0
 40
0.0
  0
LTYPE
  5
2F
330
2
100
AcDbSymbolTableRecord
100
AcDbLinetypeTableRecord
  2
CENTER
 70
0
  3
Center ____ _ ____ _ ____ _ ____ _ ____ _ ____
 72
65
 73
4
 40
5.08
 49
3.175
 74
0
 49
-0.635
 74
0
 49
0.635
 74
0
 49
-0.635
 74
0
  0
LTYPE
  5
30
330
2
100
AcDbSymbolTableRecord
100
AcDbLinetypeTableRecord
  2
CENTERX2
 70
0
  3
Center (2x) ________  __  ________  __  ________
 72
65
 73
4
 40
8.89
 49
6.35
 74
0
 49
-0.635
 74
0
 49
1.27
 74
0
 49
-0.635
 74
0
  0
LTYPE
  5
31
330
2
100
AcDbSymbolTableRecord
100
AcDbLinetypeTableRecord
  2
CENTER2
 70
0
  3
Center (.5x) ____ _ ____ _ ____ _ ____ _ ____
 72
65
 73
4
 40
2.54
 49
1.587
 74
0
 49
-0.318
 74
0
 49
0.318
 74
0
 49
-0.318
 74
0
  0
LTYPE
  5
32
330
2
100
AcDbSymbolTableRecord
100
AcDbLinetypeTableRecord
  2
DASHED
 70
0
  3
Dashed __ __ __ __ __ __ __ __ __ __ __ __ __ _
 72
65
 73
2
 40
1.524
 49
1.27
 74
0
 49
-0.254
 74
0
  0
LTYPE
  5
33
330
2
100
AcDbSymbolTableRecord
100
AcDbLinetypeTableRecord
  2
DASHEDX2
 70
0
  3
Dashed (2x) ____  ____  ____  ____  ____  ____
 72
65
 73
2
 40
3.048
 49
2.54
 74
0
 49
-0.508
 74
0
  0
LTYPE
  5
34
330
2
100
AcDbSymbolTableRecord
100
AcDbLinetypeTableRecord
  2
DASHED2
 70
0
  3
Dashed (.5x) _ _ _ _ _ _ _ _ _ _ _ _ _ _
 72
65
 73
2
 40
0.762
 49
0.635
 74
0
 49
-0.127
 74
0
  0
LTYPE
  5
35
330
2
100
AcDbSymbolTableRecord
100
AcDbLinetypeTableRecord
  2
PHANTOM
 70
0
  3
Phantom ______  __  __  ______  __  __  ______
 72
65
 73
6
 40
6.35
 49
3.175
 74
0
 49
-0.635
 74
0
 49
0.635
 74
0
 49
-0.635
 74
0
 49
0.635
 74
0
 49
-0.635
 74
0
  0
LTYPE
  5
36
330
2
100
AcDbSymbolTableRecord
100
AcDbLinetypeTableRecord
  2
PHANTOMX2
 70
0
  3
Phantom (2x)____________    ____    ____    ____________
 72
65
 73
6
 40
10.795
 49
6.35
 74
0
 49
-0.635
 74
0
 49
1.27
 74
0
 49
-0.635
 74
0
 49
1.27
 74
0
 49
-0.635
 74
0
  0
LTYPE
  5
37
330
2
100
AcDbSymbolTableRecord
100
AcDbLinetypeTableRecord
  2
PHANTOM2
 70
0
  3
Phantom (.5x) ___ _ _ ___ _ _ ___ _ _ ___ _ _ ___
 72
65
 73
6
 40
3.175
 49
1.587
 74
0
 49
-0.318
 74
0
 49
0.318
 74
0
 49
-0.318
 74
0
 49
0.318
 74
0
 49
-0.318
 74
0
  0
LTYPE
  5
38
330
2
100
AcDbSymbolTableRecord
100
AcDbLinetypeTableRecord
  2
DASHDOT
 70
0
  3
Dash dot __ . __ . __ . __ . __ . __ . __ . __
 72
65
 73
4
 40
3.556
 49
2.54
 74
0
 49
-0.508
 74
0
 49
0.0
 74
0
 49
-0.508
 74
0
  0
LTYPE
  5
39
330
2
100
AcDbSymbolTableRecord
100
AcDbLinetypeTableRecord
  2
DASHDOTX2
 70
0
  3
Dash dot (2x) ____  .  ____  .  ____  .  ____
 72
65
 73
4
 40
6.096
 49
5.08
 74
0
 49
-0.508
 74
0
 49
0.0
 74
0
 49
-0.508
 74
0
  0
LTYPE
  5
3A
330
2
100
AcDbSymbolTableRecord
100
AcDbLinetypeTableRecord
  2
DASHDOT2
 70
0
  3
Dash dot (.5x) _ . _ . _ . _ . _ . _ . _ . _
 72
65
 73
4
 40
1.778
 49
1.27
 74
0
 49
-0.254
 74
0
 49
0.0
 74
0
 49
-0.254
 74
0
  0
LTYPE
  5
3B
330
2
100
AcDbSymbolTableRecord
100
AcDbLinetypeTableRecord
  2
DOT
 70
0
  3
Dot .  .  .  .  .  .  .  .  .  .  .  .  .  .  .  .
 72
65
 73
2
 40
0.508
 49
0.0
 74
0
 49
-0.508
 74
0
  0
LTYPE
  5
3C
330
2
100
AcDbSymbolTableRecord
100
AcDbLinetypeTableRecord
  2
DOTX2
 70
0
  3
Dot (2x) .    .    .    .    .    .    .    . 
 72
65
 73
2
 40
1.016
 49
0.0
 74
0
 49
-1.016
 74
0
  0
LTYPE
  5
3D
330
2
100
AcDbSymbolTableRecord
100
AcDbLinetypeTableRecord
  2
DOT2
 70
0
  3
Dot (.5) . . . . . . . . . . . . . . . . . . . 
 72
65
 73
2
 40
0.254
 49
0.0
 74
0
 49
-0.254
 74
0
  0
LTYPE
  5
3E
330
2
100
AcDbSymbolTableRecord
100
AcDbLinetypeTableRecord
  2
DIVIDE
 70
0
  3
Divide __ . . __ . . __ . . __ . . __ . . __
 72
65
 73
6
 40
4.064
 49
2.54
 74
0
 49
-0.508
 74
0
 49
0.0
 74
0
 49
-0.508
 74
0
 49
0.0
 74
0
 49
-0.508
 74
0
  0
LTYPE
  5
3F
330
2
100
AcDbSymbolTableRecord
100
AcDbLinetypeTableRecord
  2
DIVIDEX2
 70
0
  3
Divide (2x) ____  . .  ____  . .  ____  . .  ____
 72
65
 73
6
 40
6.604
 49
5.08
 74
0
 49
-0.508
 74
0
 49
0.0
 74
0
 49
-0.508
 74
0
 49
0.0
 74
0
 49
-0.508
 74
0
  0
LTYPE
  5
40
330
2
100
AcDbSymbolTableRecord
100
AcDbLinetypeTableRecord
  2
DIVIDE2
 70
0
  3
Divide(.5x) _ . _ . _ . _ . _ . _ . _ . _
 72
65
 73
6
 40
2.032
 49
1.27
 74
0
 49
-0.254
 74
0
 49
0.0
 74
0
 49
-0.254
 74
0
 49
0.0
 74
0
 49
-0.254
 74
0
  0
ENDTAB
  0
TABLE
  2
LAYER
  5
1
330
0
100
AcDbSymbolTable
 70
19
  0
LAYER
  5
27
330
1
100
AcDbSymbolTableRecord
100
AcDbLayerTableRecord
  2
0
 70
0
 62
7
  6
Continuous
370
-3
390
13
347
21
  0
LAYER
  5
28
330
1
100
AcDbSymbolTableRecord
100
AcDbLayerTableRecord
  2
Defpoints
 70
0
 62
7
  6
Continuous
290
0
370
-3
390
13
347
21
  0
LAYER
  5
8A
330
1
100
AcDbSymbolTableRecord
100
AcDbLayerTableRecord
  2
A-WALL
 70
0
 62
7
  6
Continuous
370
35
390
13
347
21
  0
LAYER
  5
8B
330
1
100
AcDbSymbolTableRecord
100
AcDbLayerTableRecord
  2
A-WIND
 70
0
 62
4
  6
Continuous
370
18
390
13
347
21
  0
LAYER
  5
8C
330
1
100
AcDbSymbolTableRecord
100
AcDbLayerTableRecord
  2
A-DOOR
 70
0
 62
3
  6
Continuous
370
18
390
13
347
21
  0
LAYER
  5
8D
330
1
100
AcDbSymbolTableRecord
100
AcDbLayerTableRecord
  2
A-FLOR
 70
0
 62
8
  6
Continuous
370
13
390
13
347
21
  0
LAYER
  5
8E
330
1
100
AcDbSymbolTableRecord
100
AcDbLayerTableRecord
  2
A-FURN
 70
0
 62
8
  6
Continuous
370
13
390
13
347
21
  0
LAYER
  5
8F
330
1
100
AcDbSymbolTableRecord
100
AcDbLayerTableRecord
  2
A-ANNO
 70
0
 62
7
  6
Continuous
370
18
390
13
347
21
  0
LAYER
  5
90
330
1
100
AcDbSymbolTableRecord
100
AcDbLayerTableRecord
  2
A-DIMS
 70
0
 62
7
  6
Continuous
370
13
390
13
347
21
  0
LAYER
  5
91
330
1
100
AcDbSymbolTableRecord
100
AcDbLayerTableRecord
  2
A-STAIR
 70
0
 62
7
  6
Continuous
370
18
390
13
347
21
  0
LAYER
  5
92
330
1
100
AcDbSymbolTableRecord
100
AcDbLayerTableRecord
  2
A-SITE
 70
0
 62
8
  6
Continuous
370
18
390
13
347
21
  0
LAYER
  5
93
330
1
100
AcDbSymbolTableRecord
100
AcDbLayerTableRecord
  2
A-TAGS
 70
0
 62
1
  6
Continuous
370
13
390
13
347
21
  0
LAYER
  5
94
330
1
100
AcDbSymbolTableRecord
100
AcDbLayerTableRecord
  2
A-GRID
 70
0
 62
8
  6
Continuous
370
13
390
13
347
21
  0
LAYER
  5
95
330
1
100
AcDbSymbolTableRecord
100
AcDbLayerTableRecord
  2
A-LEVL
 70
0
 62
7
  6
Continuous
370
13
390
13
347
21
  0
LAYER
  5
96
330
1
100
AcDbSymbolTableRecord
100
AcDbLayerTableRecord
  2
A-SECT
 70
0
 62
1
  6
Continuous
370
35
390
13
347
21
  0
LAYER
  5
97
330
1
100
AcDbSymbolTableRecord
100
AcDbLayerTableRecord
  2
A-EXT
 70
0
 62
30
  6
Continuous
370
18
390
13
347
21
  0
LAYER
  5
98
330
1
100
AcDbSymbolTableRecord
100
AcDbLayerTableRecord
  2
A-GATE
 70
0
 62
30
  6
Continuous
370
18
390
13
347
21
  0
LAYER
  5
99
330
1
100
AcDbSymbolTableRecord
100
AcDbLayerTableRecord
  2
A-LAND
 70
0
 62
3
  6
Continuous
370
13
390
13
347
21
  0
LAYER
  5
9A
330
1
100
AcDbSymbolTableRecord
100
AcDbLayerTableRecord
  2
S-GRID
 70
0
 62
8
  6
Continuous
370
13
390
13
347
21
  0
ENDTAB
  0
TABLE
  2
STYLE
  5
5
330
0
100
AcDbSymbolTable
 70
26
  0
STYLE
  5
29
330
5
100
AcDbSymbolTableRecord
100
AcDbTextStyleTableRecord
  2
Standard
 70
0
 40
0.0
 41
1.0
 50
0.0
 71
0
 42
2.5
  3
txt
  4

  0
STYLE
  5
41
330
5
100
AcDbSymbolTableRecord
100
AcDbTextStyleTableRecord
  2
OpenSans-Light
 70
0
 40
0.0
 41
1.0
 50
0.0
 71
0
 42
2.5
  3
OpenSans-Light.ttf
  4

  0
STYLE
  5
42
330
5
100
AcDbSymbolTableRecord
100
AcDbTextStyleTableRecord
  2
OpenSans-Light-Italic
 70
0
 40
0.0
 41
1.0
 50
0.0
 71
0
 42
2.5
  3
OpenSans-LightItalic.ttf
  4

  0
STYLE
  5
43
330
5
100
AcDbSymbolTableRecord
100
AcDbTextStyleTableRecord
  2
OpenSans
 70
0
 40
0.0
 41
1.0
 50
0.0
 71
0
 42
2.5
  3
OpenSans-Regular.ttf
  4

  0
STYLE
  5
44
330
5
100
AcDbSymbolTableRecord
100
AcDbTextStyleTableRecord
  2
OpenSans-Italic
 70
0
 40
0.0
 41
1.0
 50
0.0
 71
0
 42
2.5
  3
OpenSans-Italic.ttf
  4

  0
STYLE
  5
45
330
5
100
AcDbSymbolTableRecord
100
AcDbTextStyleTableRecord
  2
OpenSans-SemiBold
 70
0
 40
0.0
 41
1.0
 50
0.0
 71
0
 42
2.5
  3
OpenSans-SemiBold.ttf
  4

  0
STYLE
  5
46
330
5
100
AcDbSymbolTableRecord
100
AcDbTextStyleTableRecord
  2
OpenSans-SemiBoldItalic
 70
0
 40
0.0
 41
1.0
 50
0.0
 71
0
 42
2.5
  3
OpenSans-SemiBoldItalic.ttf
  4

  0
STYLE
  5
47
330
5
100
AcDbSymbolTableRecord
100
AcDbTextStyleTableRecord
  2
OpenSans-Bold
 70
0
 40
0.0
 41
1.0
 50
0.0
 71
0
 42
2.5
  3
OpenSans-Bold.ttf
  4

  0
STYLE
  5
48
330
5
100
AcDbSymbolTableRecord
100
AcDbTextStyleTableRecord
  2
OpenSans-BoldItalic
 70
0
 40
0.0
 41
1.0
 50
0.0
 71
0
 42
2.5
  3
OpenSans-BoldItalic.ttf
  4

  0
STYLE
  5
49
330
5
100
AcDbSymbolTableRecord
100
AcDbTextStyleTableRecord
  2
OpenSans-ExtraBold
 70
0
 40
0.0
 41
1.0
 50
0.0
 71
0
 42
2.5
  3
OpenSans-ExtraBold.ttf
  4

  0
STYLE
  5
4A
330
5
100
AcDbSymbolTableRecord
100
AcDbTextStyleTableRecord
  2
OpenSans-ExtraBoldItalic
 70
0
 40
0.0
 41
1.0
 50
0.0
 71
0
 42
2.5
  3
OpenSans-ExtraBoldItalic.ttf
  4

  0
STYLE
  5
4B
330
5
100
AcDbSymbolTableRecord
100
AcDbTextStyleTableRecord
  2
OpenSansCondensed-Bold
 70
0
 40
0.0
 41
1.0
 50
0.0
 71
0
 42
2.5
  3
OpenSansCondensed-Bold.ttf
  4

  0
STYLE
  5
4C
330
5
100
AcDbSymbolTableRecord
100
AcDbTextStyleTableRecord
  2
OpenSansCondensed-Light
 70
0
 40
0.0
 41
1.0
 50
0.0
 71
0
 42
2.5
  3
OpenSansCondensed-Light.ttf
  4

  0
STYLE
  5
4D
330
5
100
AcDbSymbolTableRecord
100
AcDbTextStyleTableRecord
  2
OpenSansCondensed-Italic
 70
0
 40
0.0
 41
1.0
 50
0.0
 71
0
 42
2.5
  3
OpenSansCondensed-LightItalic.ttf
  4

  0
STYLE
  5
4E
330
5
100
AcDbSymbolTableRecord
100
AcDbTextStyleTableRecord
  2
LiberationSans
 70
0
 40
0.0
 41
1.0
 50
0.0
 71
0
 42
2.5
  3
LiberationSans-Regular.ttf
  4

  0
STYLE
  5
4F
330
5
100
AcDbSymbolTableRecord
100
AcDbTextStyleTableRecord
  2
LiberationSans-Bold
 70
0
 40
0.0
 41
1.0
 50
0.0
 71
0
 42
2.5
  3
LiberationSans-Bold.ttf
  4

  0
STYLE
  5
50
330
5
100
AcDbSymbolTableRecord
100
AcDbTextStyleTableRecord
  2
LiberationSans-BoldItalic
 70
0
 40
0.0
 41
1.0
 50
0.0
 71
0
 42
2.5
  3
LiberationSans-BoldItalic.ttf
  4

  0
STYLE
  5
51
330
5
100
AcDbSymbolTableRecord
100
AcDbTextStyleTableRecord
  2
LiberationSans-Italic
 70
0
 40
0.0
 41
1.0
 50
0.0
 71
0
 42
2.5
  3
LiberationSans-Italic.ttf
  4

  0
STYLE
  5
52
330
5
100
AcDbSymbolTableRecord
100
AcDbTextStyleTableRecord
  2
LiberationSerif
 70
0
 40
0.0
 41
1.0
 50
0.0
 71
0
 42
2.5
  3
LiberationSerif-Regular.ttf
  4

  0
STYLE
  5
53
330
5
100
AcDbSymbolTableRecord
100
AcDbTextStyleTableRecord
  2
LiberationSerif-Bold
 70
0
 40
0.0
 41
1.0
 50
0.0
 71
0
 42
2.5
  3
LiberationSerif-Bold.ttf
  4

  0
STYLE
  5
54
330
5
100
AcDbSymbolTableRecord
100
AcDbTextStyleTableRecord
  2
LiberationSerif-BoldItalic
 70
0
 40
0.0
 41
1.0
 50
0.0
 71
0
 42
2.5
  3
LiberationSerif-BoldItalic.ttf
  4

  0
STYLE
  5
55
330
5
100
AcDbSymbolTableRecord
100
AcDbTextStyleTableRecord
  2
LiberationSerif-Italic
 70
0
 40
0.0
 41
1.0
 50
0.0
 71
0
 42
2.5
  3
LiberationSerif-Italic.ttf
  4

  0
STYLE
  5
56
330
5
100
AcDbSymbolTableRecord
100
AcDbTextStyleTableRecord
  2
LiberationMono
 70
0
 40
0.0
 41
1.0
 50
0.0
 71
0
 42
2.5
  3
LiberationMono-Regular.ttf
  4

  0
STYLE
  5
57
330
5
100
AcDbSymbolTableRecord
100
AcDbTextStyleTableRecord
  2
LiberationMono-Bold
 70
0
 40
0.0
 41
1.0
 50
0.0
 71
0
 42
2.5
  3
LiberationMono-Bold.ttf
  4

  0
STYLE
  5
58
330
5
100
AcDbSymbolTableRecord
100
AcDbTextStyleTableRecord
  2
LiberationMono-BoldItalic
 70
0
 40
0.0
 41
1.0
 50
0.0
 71
0
 42
2.5
  3
LiberationMono-BoldItalic.ttf
  4

  0
STYLE
  5
59
330
5
100
AcDbSymbolTableRecord
100
AcDbTextStyleTableRecord
  2
LiberationMono-Italic
 70
0
 40
0.0
 41
1.0
 50
0.0
 71
0
 42
2.5
  3
LiberationMono-Italic.ttf
  4

  0
ENDTAB
  0
TABLE
  2
VIEW
  5
7
330
0
100
AcDbSymbolTable
 70
0
  0
ENDTAB
  0
TABLE
  2
UCS
  5
6
330
0
100
AcDbSymbolTable
 70
0
  0
ENDTAB
  0
TABLE
  2
APPID
  5
3
330
0
100
AcDbSymbolTable
 70
4
  0
APPID
  5
2A
330
3
100
AcDbSymbolTableRecord
100
AcDbRegAppTableRecord
  2
ACAD
 70
0
  0
APPID
  5
9C
330
3
100
AcDbSymbolTableRecord
100
AcDbRegAppTableRecord
  2
FLOORFORGE
 70
0
  0
APPID
  5
421
330
3
100
AcDbSymbolTableRecord
100
AcDbRegAppTableRecord
  2
HATCHBACKGROUNDCOLOR
 70
0
  0
APPID
  5
422
330
3
100
AcDbSymbolTableRecord
100
AcDbRegAppTableRecord
  2
EZDXF
 70
0
  0
ENDTAB
  0
TABLE
  2
DIMSTYLE
  5
4
330
0
100
AcDbSymbolTable
 70
13
100
AcDbDimStyleTable
  0
DIMSTYLE
105
2B
330
4
100
AcDbSymbolTableRecord
100
AcDbDimStyleTableRecord
  2
Standard
 70
0
 40
1.0
 41
2.5
 42
0.625
 43
3.75
 44
1.25
 45
0.0
 46
0.0
 47
0.0
 48
0.0
 49
2.5
140
2.5
141
2.5
142
0.0
143
0.03937007874
144
1.0
145
0.0
146
1.0
147
0.625
148
0.0
 69
0
 70
0
 71
0
 72
0
 73
0
 74
0
 75
0
 76
0
 77
1
 78
8
 79
3
170
0
171
3
172
1
173
0
174
0
175
0
176
0
177
0
178
0
179
2
271
2
272
2
273
2
274
3
275
0
276
0
277
2
278
44
279
0
280
0
281
0
282
0
283
0
284
8
285
0
286
0
288
0
289
3
290
0
371
-2
372
-2
  0
DIMSTYLE
105
73
330
4
100
AcDbSymbolTableRecord
100
AcDbDimStyleTableRecord
  2
EZDXF
 70
0
 40
1.0
 41
0.175
 42
0.125
 43
3.75
 44
0.375
 45
0.0
 46
0.0
 47
0.0
 48
0.0
 49
2.5
140
0.25
141
2.5
142
0.0
143
0.03937007874
144
100.0
145
0.0
146
0.5
147
0.1
148
0.0
 69
0
 70
0
 71
0
 72
0
 73
0
 74
0
 75
0
 76
0
 77
1
 78
12
 79
3
170
0
171
3
172
1
173
0
174
0
175
0
176
0
177
0
178
0
179
2
271
2
272
2
273
2
274
3
275
0
276
0
277
2
278
46
279
2
280
0
281
0
282
0
283
0
284
8
285
0
286
0
288
1
289
3
290
0
340
4C
342
74
371
-2
372
-2
  0
DIMSTYLE
105
7C
330
4
100
AcDbSymbolTableRecord
100
AcDbDimStyleTableRecord
  2
EZ_M_100_H25_CM
 70
0
 40
1.0
 41
0.25
 42
0.125
 43
3.75
 44
0.375
 45
0.0
 46
0.0
 47
0.0
 48
0.0
 49
2.5
140
0.25
141
2.5
142
0.125
143
0.03937007874
144
100.0
145
0.0
146
0.5
147
0.1
148
0.0
 69
0
 70
0
 71
0
 72
0
 73
0
 74
0
 75
0
 76
0
 77
1
 78
12
 79
3
170
0
171
3
172
1
173
0
174
0
175
0
176
0
177
0
178
0
179
2
271
2
272
2
273
2
274
3
275
0
276
0
277
2
278
46
279
2
280
0
281
0
282
0
283
0
284
8
285
0
286
0
288
1
289
3
290
0
340
4C
371
-2
372
-2
  0
DIMSTYLE
105
7D
330
4
100
AcDbSymbolTableRecord
100
AcDbDimStyleTableRecord
  2
EZ_M_50_H25_CM
 70
0
 40
1.0
 41
0.125
 42
0.0625
 43
3.75
 44
0.1875
 45
0.0
 46
0.0
 47
0.0
 48
0.0
 49
2.5
140
0.125
141
2.5
142
0.0625
143
0.03937007874
144
100.0
145
0.0
146
0.5
147
0.05
148
0.0
 69
0
 70
0
 71
0
 72
0
 73
0
 74
0
 75
0
 76
0
 77
1
 78
12
 79
3
170
0
171
3
172
1
173
0
174
0
175
0
176
0
177
0
178
0
179
2
271
2
272
2
273
2
274
3
275
0
276
0
277
2
278
46
279
2
280
0
281
0
282
0
283
0
284
8
285
0
286
0
288
1
289
3
290
0
340
4C
371
-2
372
-2
  0
DIMSTYLE
105
7E
330
4
100
AcDbSymbolTableRecord
100
AcDbDimStyleTableRecord
  2
EZ_M_25_H25_CM
 70
0
 40
1.0
 41
0.0625
 42
0.03125
 43
3.75
 44
0.09375
 45
0.0
 46
0.0
 47
0.0
 48
0.0
 49
2.5
140
0.0625
141
2.5
142
0.03125
143
0.03937007874
144
100.0
145
0.0
146
0.5
147
0.025
148
0.0
 69
0
 70
0
 71
0
 72
0
 73
0
 74
0
 75
0
 76
0
 77
1
 78
12
 79
3
170
0
171
3
172
1
173
0
174
0
175
0
176
0
177
0
178
0
179
2
271
2
272
2
273
2
274
3
275
0
276
0
277
2
278
46
279
2
280
0
281
0
282
0
283
0
284
8
285
0
286
0
288
1
289
3
290
0
340
4C
371
-2
372
-2
  0
DIMSTYLE
105
7F
330
4
100
AcDbSymbolTableRecord
100
AcDbDimStyleTableRecord
  2
EZ_M_20_H25_CM
 70
0
 40
1.0
 41
0.05
 42
0.025
 43
3.75
 44
0.07500000000000001
 45
0.0
 46
0.0
 47
0.0
 48
0.0
 49
2.5
140
0.05
141
2.5
142
0.025
143
0.03937007874
144
100.0
145
0.0
146
0.5
147
0.020000000000000004
148
0.0
 69
0
 70
0
 71
0
 72
0
 73
0
 74
0
 75
0
 76
0
 77
1
 78
12
 79
3
170
0
171
3
172
1
173
0
174
0
175
0
176
0
177
0
178
0
179
2
271
2
272
2
273
2
274
3
275
0
276
0
277
2
278
46
279
2
280
0
281
0
282
0
283
0
284
8
285
0
286
0
288
1
289
3
290
0
340
4C
371
-2
372
-2
  0
DIMSTYLE
105
80
330
4
100
AcDbSymbolTableRecord
100
AcDbDimStyleTableRecord
  2
EZ_M_10_H25_CM
 70
0
 40
1.0
 41
0.025
 42
0.0125
 43
3.75
 44
0.037500000000000006
 45
0.0
 46
0.0
 47
0.0
 48
0.0
 49
2.5
140
0.025
141
2.5
142
0.0125
143
0.03937007874
144
100.0
145
0.0
146
0.5
147
0.010000000000000002
148
0.0
 69
0
 70
0
 71
0
 72
0
 73
0
 74
0
 75
0
 76
0
 77
1
 78
12
 79
3
170
0
171
3
172
1
173
0
174
0
175
0
176
0
177
0
178
0
179
2
271
2
272
2
273
2
274
3
275
0
276
0
277
2
278
46
279
2
280
0
281
0
282
0
283
0
284
8
285
0
286
0
288
1
289
3
290
0
340
4C
371
-2
372
-2
  0
DIMSTYLE
105
81
330
4
100
AcDbSymbolTableRecord
100
AcDbDimStyleTableRecord
  2
EZ_M_5_H25_CM
 70
0
 40
1.0
 41
0.0125
 42
0.00625
 43
3.75
 44
0.018750000000000003
 45
0.0
 46
0.0
 47
0.0
 48
0.0
 49
2.5
140
0.0125
141
2.5
142
0.00625
143
0.03937007874
144
100.0
145
0.0
146
0.5
147
0.005000000000000001
148
0.0
 69
0
 70
0
 71
0
 72
0
 73
0
 74
0
 75
0
 76
0
 77
1
 78
12
 79
3
170
0
171
3
172
1
173
0
174
0
175
0
176
0
177
0
178
0
179
2
271
2
272
2
273
2
274
3
275
0
276
0
277
2
278
46
279
2
280
0
281
0
282
0
283
0
284
8
285
0
286
0
288
1
289
3
290
0
340
4C
371
-2
372
-2
  0
DIMSTYLE
105
82
330
4
100
AcDbSymbolTableRecord
100
AcDbDimStyleTableRecord
  2
EZ_M_1_H25_CM
 70
0
 40
1.0
 41
0.0025
 42
0.00125
 43
3.75
 44
0.00375
 45
0.0
 46
0.0
 47
0.0
 48
0.0
 49
2.5
140
0.0025
141
2.5
142
0.00125
143
0.03937007874
144
100.0
145
0.0
146
0.5
147
0.001
148
0.0
 69
0
 70
0
 71
0
 72
0
 73
0
 74
0
 75
0
 76
0
 77
1
 78
12
 79
3
170
0
171
3
172
1
173
0
174
0
175
0
176
0
177
0
178
0
179
2
271
2
272
2
273
2
274
3
275
0
276
0
277
2
278
46
279
2
280
0
281
0
282
0
283
0
284
8
285
0
286
0
288
1
289
3
290
0
340
4C
371
-2
372
-2
  0
DIMSTYLE
105
83
330
4
100
AcDbSymbolTableRecord
100
AcDbDimStyleTableRecord
  2
EZ_RADIUS
 70
0
 40
1.0
 41
0.25
 42
0.125
 43
3.75
 44
0.375
 45
0.0
 46
0.0
 47
0.0
 48
0.0
 49
2.5
140
0.25
141
0.0
142
0.0
143
0.03937007874
144
100.0
145
0.0
146
0.5
147
0.1
148
0.0
 69
0
 70
0
 71
0
 72
0
 73
0
 74
0
 75
0
 76
0
 77
1
 78
12
 79
3
170
0
171
3
172
0
173
0
174
0
175
0
176
0
177
0
178
0
179
2
271
2
272
2
273
2
274
3
275
0
276
0
277
2
278
46
279
1
280
0
281
0
282
0
283
0
284
8
285
0
286
0
288
1
289
3
290
0
340
4C
342
84
371
-2
372
-2
  0
DIMSTYLE
105
88
330
4
100
AcDbSymbolTableRecord
100
AcDbDimStyleTableRecord
  2
EZ_RADIUS_INSIDE
 70
0
 40
1.0
 41
0.25
 42
0.125
 43
3.75
 44
0.375
 45
0.0
 46
0.0
 47
0.0
 48
0.0
 49
2.5
140
0.25
141
0.0
142
0.0
143
0.03937007874
144
100.0
145
0.0
146
0.5
147
0.1
148
0.0
 69
0
 70
0
 71
0
 72
0
 73
0
 74
0
 75
0
 76
0
 77
0
 78
12
 79
3
170
0
171
3
172
0
173
0
174
1
175
0
176
0
177
0
178
0
179
2
271
2
272
2
273
2
274
3
275
0
276
0
277
2
278
46
279
0
280
0
281
0
282
0
283
0
284
8
285
0
286
0
288
1
289
0
290
0
340
4C
342
84
371
-2
372
-2
  0
DIMSTYLE
105
89
330
4
100
AcDbSymbolTableRecord
100
AcDbDimStyleTableRecord
  2
EZ_CURVED
 70
0
 40
1.0
 41
0.25
 42
0.125
 43
3.75
 44
0.375
 45
0.0
 46
0.0
 47
0.0
 48
0.0
 49
2.5
140
0.25
141
2.5
142
0.0
143
0.03937007874
144
100.0
145
0.0
146
0.5
147
0.1
148
0.0
 69
0
 70
0
 71
0
 72
0
 73
0
 74
0
 75
0
 76
0
 77
1
 78
12
 79
2
 90
2
170
0
171
3
172
1
173
0
174
0
175
0
176
0
177
0
178
0
179
2
271
2
272
2
273
2
274
3
275
0
276
0
277
2
278
46
279
2
280
0
281
0
282
0
283
0
284
8
285
0
286
0
288
1
289
3
290
0
340
4C
371
-2
372
-2
  0
DIMSTYLE
105
9B
330
4
100
AcDbSymbolTableRecord
100
AcDbDimStyleTableRecord
  2
FF-ARCH
 70
0
 40
1.0
 41
90.0
 42
120.0
 43
3.75
 44
120.0
 45
0.0
 46
0.0
 47
0.0
 48
0.0
 49
2.5
140
180.0
141
2.5
142
60.0
143
0.03937007874
144
1.0
145
0.0
146
1.0
147
60.0
148
0.0
 69
0
 70
0
 71
0
 72
0
 73
0
 74
0
 75
0
 76
0
 77
1
 78
8
 79
3
170
0
171
3
172
1
173
0
174
0
175
0
176
0
177
0
178
0
179
2
271
0
272
2
273
2
274
3
275
0
276
0
277
2
278
44
279
0
280
0
281
0
282
0
283
0
284
8
285
0
286
0
288
0
289
3
290
0
371
-2
372
-2
  0
ENDTAB
  0
TABLE
  2
BLOCK_RECORD
  5
9
330
0
100
AcDbSymbolTable
 70
49
  0
BLOCK_RECORD
  5
17
330
9
100
AcDbSymbolTableRecord
100
AcDbBlockTableRecord
  2
*Model_Space
340
1A
 70
0
280
1
281
0
  0
BLOCK_RECORD
  5
1B
330
9
100
AcDbSymbolTableRecord
100
AcDbBlockTableRecord
  2
*Paper_Space
340
1E
 70
0
280
1
281
0
  0
BLOCK_RECORD
  5
74
330
9
100
AcDbSymbolTableRecord
100
AcDbBlockTableRecord
  2
_ARCHTICK
340
0
 70
0
280
1
281
0
  0
BLOCK_RECORD
  5
78
330
9
100
AcDbSymbolTableRecord
100
AcDbBlockTableRecord
  2
_CLOSEDFILLED
340
0
 70
0
280
1
281
0
  0
BLOCK_RECORD
  5
84
330
9
100
AcDbSymbolTableRecord
100
AcDbBlockTableRecord
  2
_CLOSEDBLANK
340
0
 70
0
280
1
281
0
  0
BLOCK_RECORD
  5
16F
330
9
100
AcDbSymbolTableRecord
100
AcDbBlockTableRecord
  2
*D1
340
0
 70
0
280
1
281
0
  0
BLOCK_RECORD
  5
174
330
9
100
AcDbSymbolTableRecord
100
AcDbBlockTableRecord
  2
_OBLIQUE
340
0
 70
0
280
1
281
0
  0
BLOCK_RECORD
  5
182
330
9
100
AcDbSymbolTableRecord
100
AcDbBlockTableRecord
  2
*D2
340
0
 70
0
280
1
281
0
  0
BLOCK_RECORD
  5
191
330
9
100
AcDbSymbolTableRecord
100
AcDbBlockTableRecord
  2
*D3
340
0
 70
0
280
1
281
0
  0
BLOCK_RECORD
  5
1A0
330
9
100
AcDbSymbolTableRecord
100
AcDbBlockTableRecord
  2
*D4
340
0
 70
0
280
1
281
0
  0
BLOCK_RECORD
  5
1AF
330
9
100
AcDbSymbolTableRecord
100
AcDbBlockTableRecord
  2
*D5
340
0
 70
0
280
1
281
0
  0
BLOCK_RECORD
  5
1BE
330
9
100
AcDbSymbolTableRecord
100
AcDbBlockTableRecord
  2
*D6
340
0
 70
0
280
1
281
0
  0
BLOCK_RECORD
  5
1CD
330
9
100
AcDbSymbolTableRecord
100
AcDbBlockTableRecord
  2
*D7
340
0
 70
0
280
1
281
0
  0
BLOCK_RECORD
  5
1DC
330
9
100
AcDbSymbolTableRecord
100
AcDbBlockTableRecord
  2
*D8
340
0
 70
0
280
1
281
0
  0
BLOCK_RECORD
  5
1EB
330
9
100
AcDbSymbolTableRecord
100
AcDbBlockTableRecord
  2
*D9
340
0
 70
0
280
1
281
0
  0
BLOCK_RECORD
  5
1FA
330
9
100
AcDbSymbolTableRecord
100
AcDbBlockTableRecord
  2
*D10
340
0
 70
0
280
1
281
0
  0
BLOCK_RECORD
  5
209
330
9
100
AcDbSymbolTableRecord
100
AcDbBlockTableRecord
  2
*D11
340
0
 70
0
280
1
281
0
  0
BLOCK_RECORD
  5
218
330
9
100
AcDbSymbolTableRecord
100
AcDbBlockTableRecord
  2
*D12
340
0
 70
0
280
1
281
0
  0
BLOCK_RECORD
  5
227
330
9
100
AcDbSymbolTableRecord
100
AcDbBlockTableRecord
  2
*D13
340
0
 70
0
280
1
281
0
  0
BLOCK_RECORD
  5
236
330
9
100
AcDbSymbolTableRecord
100
AcDbBlockTableRecord
  2
*D14
340
0
 70
0
280
1
281
0
  0
BLOCK_RECORD
  5
245
330
9
100
AcDbSymbolTableRecord
100
AcDbBlockTableRecord
  2
*D15
340
0
 70
0
280
1
281
0
  0
BLOCK_RECORD
  5
254
330
9
100
AcDbSymbolTableRecord
100
AcDbBlockTableRecord
  2
*D16
340
0
 70
0
280
1
281
0
  0
BLOCK_RECORD
  5
263
330
9
100
AcDbSymbolTableRecord
100
AcDbBlockTableRecord
  2
*D17
340
0
 70
0
280
1
281
0
  0
BLOCK_RECORD
  5
272
330
9
100
AcDbSymbolTableRecord
100
AcDbBlockTableRecord
  2
*D18
340
0
 70
0
280
1
281
0
  0
BLOCK_RECORD
  5
281
330
9
100
AcDbSymbolTableRecord
100
AcDbBlockTableRecord
  2
*D19
340
0
 70
0
280
1
281
0
  0
BLOCK_RECORD
  5
290
330
9
100
AcDbSymbolTableRecord
100
AcDbBlockTableRecord
  2
*D20
340
0
 70
0
280
1
281
0
  0
BLOCK_RECORD
  5
29F
330
9
100
AcDbSymbolTableRecord
100
AcDbBlockTableRecord
  2
*D21
340
0
 70
0
280
1
281
0
  0
BLOCK_RECORD
  5
2AE
330
9
100
AcDbSymbolTableRecord
100
AcDbBlockTableRecord
  2
*D22
340
0
 70
0
280
1
281
0
  0
BLOCK_RECORD
  5
2BD
330
9
100
AcDbSymbolTableRecord
100
AcDbBlockTableRecord
  2
*D23
340
0
 70
0
280
1
281
0
  0
BLOCK_RECORD
  5
2CC
330
9
100
AcDbSymbolTableRecord
100
AcDbBlockTableRecord
  2
*D24
340
0
 70
0
280
1
281
0
  0
BLOCK_RECORD
  5
2DB
330
9
100
AcDbSymbolTableRecord
100
AcDbBlockTableRecord
  2
*D25
340
0
 70
0
280
1
281
0
  0
BLOCK_RECORD
  5
2EA
330
9
100
AcDbSymbolTableRecord
100
AcDbBlockTableRecord
  2
*D26
340
0
 70
0
280
1
281
0
  0
BLOCK_RECORD
  5
2F9
330
9
100
AcDbSymbolTableRecord
100
AcDbBlockTableRecord
  2
*D27
340
0
 70
0
280
1
281
0
  0
BLOCK_RECORD
  5
308
330
9
100
AcDbSymbolTableRecord
100
AcDbBlockTableRecord
  2
*D28
340
0
 70
0
280
1
281
0
  0
BLOCK_RECORD
  5
317
330
9
100
AcDbSymbolTableRecord
100
AcDbBlockTableRecord
  2
*D29
340
0
 70
0
280
1
281
0
  0
BLOCK_RECORD
  5
326
330
9
100
AcDbSymbolTableRecord
100
AcDbBlockTableRecord
  2
*D30
340
0
 70
0
280
1
281
0
  0
BLOCK_RECORD
  5
335
330
9
100
AcDbSymbolTableRecord
100
AcDbBlockTableRecord
  2
*D31
340
0
 70
0
280
1
281
0
  0
BLOCK_RECORD
  5
344
330
9
100
AcDbSymbolTableRecord
100
AcDbBlockTableRecord
  2
*D32
340
0
 70
0
280
1
281
0
  0
BLOCK_RECORD
  5
353
330
9
100
AcDbSymbolTableRecord
100
AcDbBlockTableRecord
  2
*D33
340
0
 70
0
280
1
281
0
  0
BLOCK_RECORD
  5
362
330
9
100
AcDbSymbolTableRecord
100
AcDbBlockTableRecord
  2
*D34
340
0
 70
0
280
1
281
0
  0
BLOCK_RECORD
  5
371
330
9
100
AcDbSymbolTableRecord
100
AcDbBlockTableRecord
  2
*D35
340
0
 70
0
280
1
281
0
  0
BLOCK_RECORD
  5
380
330
9
100
AcDbSymbolTableRecord
100
AcDbBlockTableRecord
  2
*D36
340
0
 70
0
280
1
281
0
  0
BLOCK_RECORD
  5
38F
330
9
100
AcDbSymbolTableRecord
100
AcDbBlockTableRecord
  2
*D37
340
0
 70
0
280
1
281
0
  0
BLOCK_RECORD
  5
39E
330
9
100
AcDbSymbolTableRecord
100
AcDbBlockTableRecord
  2
*D38
340
0
 70
0
280
1
281
0
  0
BLOCK_RECORD
  5
3AD
330
9
100
AcDbSymbolTableRecord
100
AcDbBlockTableRecord
  2
*D39
340
0
 70
0
280
1
281
0
  0
BLOCK_RECORD
  5
3BC
330
9
100
AcDbSymbolTableRecord
100
AcDbBlockTableRecord
  2
*D40
340
0
 70
0
280
1
281
0
  0
BLOCK_RECORD
  5
3CB
330
9
100
AcDbSymbolTableRecord
100
AcDbBlockTableRecord
  2
*D41
340
0
 70
0
280
1
281
0
  0
BLOCK_RECORD
  5
3DA
330
9
100
AcDbSymbolTableRecord
100
AcDbBlockTableRecord
  2
*D42
340
0
 70
0
280
1
281
0
  0
BLOCK_RECORD
  5
41A
330
9
100
AcDbSymbolTableRecord
100
AcDbBlockTableRecord
  2
*Paper_Space0
340
41D
 70
0
280
1
281
0
  0
ENDTAB
  0
ENDSEC
  0
SECTION
  2
BLOCKS
  0
BLOCK
  5
18
330
17
100
AcDbEntity
  8
0
100
AcDbBlockBegin
  2
*Model_Space
 70
0
 10
0.0
 20
0.0
 30
0.0
  3
*Model_Space
  1

  0
ENDBLK
  5
19
330
17
100
AcDbEntity
  8
0
100
AcDbBlockEnd
  0
BLOCK
  5
1C
330
1B
100
AcDbEntity
  8
0
100
AcDbBlockBegin
  2
*Paper_Space
 70
0
 10
0.0
 20
0.0
 30
0.0
  3
*Paper_Space
  1

  0
ENDBLK
  5
1D
330
1B
100
AcDbEntity
  8
0
100
AcDbBlockEnd
  0
BLOCK
  5
75
330
74
100
AcDbEntity
  8
0
100
AcDbBlockBegin
  2
_ARCHTICK
 70
0
 10
0.0
 20
0.0
 30
0.0
  3
_ARCHTICK
  1

  0
LWPOLYLINE
  5
77
330
74
100
AcDbEntity
  8
0
  6
BYBLOCK
 62
0
100
AcDbPolyline
 90
2
 70
0
 43
0.15
 10
-0.5
 20
-0.5
 10
0.5
 20
0.5
  0
ENDBLK
  5
76
330
74
100
AcDbEntity
  8
0
100
AcDbBlockEnd
  0
BLOCK
  5
79
330
78
100
AcDbEntity
  8
0
100
AcDbBlockBegin
  2
_CLOSEDFILLED
 70
0
 10
0.0
 20
0.0
 30
0.0
  3
_CLOSEDFILLED
  1

  0
SOLID
  5
7B
330
78
100
AcDbEntity
  8
0
  6
BYBLOCK
 62
0
100
AcDbTrace
 10
-1.0
 20
0.16439898372402537
 30
0.0
 11
0.0
 21
0.0
 31
0.0
 12
-1.0
 22
-0.16439898372402537
 32
0.0
 13
-1.0
 23
-0.16439898372402537
 33
0.0
  0
ENDBLK
  5
7A
330
78
100
AcDbEntity
  8
0
100
AcDbBlockEnd
  0
BLOCK
  5
85
330
84
100
AcDbEntity
  8
0
100
AcDbBlockBegin
  2
_CLOSEDBLANK
 70
0
 10
0.0
 20
0.0
 30
0.0
  3
_CLOSEDBLANK
  1

  0
LWPOLYLINE
  5
87
330
84
100
AcDbEntity
  8
0
  6
BYBLOCK
 62
0
100
AcDbPolyline
 90
3
 70
1
 10
-1.0
 20
0.16439898372402537
 10
0.0
 20
0.0
 10
-1.0
 20
-0.16439898372402537
  0
ENDBLK
  5
86
330
84
100
AcDbEntity
  8
0
100
AcDbBlockEnd
  0
BLOCK
  5
170
330
16F
100
AcDbEntity
  8
0
100
AcDbBlockBegin
  2
*D1
 70
1
 10
0.0
 20
0.0
 30
0.0
  3
*D1
  1

  0
LINE
  5
172
330
16F
100
AcDbEntity
  8
0
100
AcDbLine
 10
0.0
 20
-119.99999999999999
 30
0.0
 11
0.0
 21
-1570.0
 31
0.0
  0
LINE
  5
173
330
16F
100
AcDbEntity
  8
0
100
AcDbLine
 10
700.0
 20
-119.99999999999999
 30
0.0
 11
700.0
 21
-1570.0
 31
0.0
  0
INSERT
  5
178
330
16F
100
AcDbEntity
  8
A-DIMS
100
AcDbBlockReference
  2
_OBLIQUE
 10
0.0
 20
-1450.0
 30
0.0
 41
120.0
 42
120.0
  0
INSERT
  5
17A
330
16F
100
AcDbEntity
  8
A-DIMS
100
AcDbBlockReference
  2
_OBLIQUE
 10
700.0
 20
-1450.0
 30
0.0
 41
120.0
 42
120.0
  0
LINE
  5
17C
330
16F
100
AcDbEntity
  8
0
100
AcDbLine
 10
0.0
 20
-1450.0
 30
0.0
 11
700.0
 21
-1450.0
 31
0.0
  0
MTEXT
  5
17D
330
16F
100
AcDbEntity
  8
A-DIMS
100
AcDbMText
 10
350.0
 20
-1300.0
 30
0.0
 40
180.0
 71
5
  1
700
  7
OpenSansCondensed-Light
  0
POINT
  5
17E
330
16F
100
AcDbEntity
  8
Defpoints
100
AcDbPoint
 10
0.0
 20
-1450.0
 30
0.0
  0
POINT
  5
17F
330
16F
100
AcDbEntity
  8
Defpoints
100
AcDbPoint
 10
0.0
 20
0.0
 30
0.0
  0
POINT
  5
180
330
16F
100
AcDbEntity
  8
Defpoints
100
AcDbPoint
 10
700.0
 20
0.0
 30
0.0
  0
ENDBLK
  5
171
330
16F
100
AcDbEntity
  8
0
100
AcDbBlockEnd
  0
BLOCK
  5
175
330
174
100
AcDbEntity
  8
0
100
AcDbBlockBegin
  2
_OBLIQUE
 70
0
 10
0.0
 20
0.0
 30
0.0
  3
_OBLIQUE
  1

  0
LINE
  5
177
330
174
100
AcDbEntity
  8
0
  6
BYBLOCK
 62
0
100
AcDbLine
 10
-0.5
 20
-0.5
 30
0.0
 11
0.5
 21
0.5
 31
0.0
  0
ENDBLK
  5
176
330
174
100
AcDbEntity
  8
0
100
AcDbBlockEnd
  0
BLOCK
  5
183
330
182
100
AcDbEntity
  8
0
100
AcDbBlockBegin
  2
*D2
 70
1
 10
0.0
 20
0.0
 30
0.0
  3
*D2
  1

  0
LINE
  5
185
330
182
100
AcDbEntity
  8
0
100
AcDbLine
 10
700.0
 20
-119.99999999999999
 30
0.0
 11
700.0
 21
-1570.0
 31
0.0
  0
LINE
  5
186
330
182
100
AcDbEntity
  8
0
100
AcDbLine
 10
1900.0
 20
-119.99999999999999
 30
0.0
 11
1900.0
 21
-1570.0
 31
0.0
  0
INSERT
  5
187
330
182
100
AcDbEntity
  8
A-DIMS
100
AcDbBlockReference
  2
_OBLIQUE
 10
700.0
 20
-1450.0
 30
0.0
 41
120.0
 42
120.0
  0
INSERT
  5
189
330
182
100
AcDbEntity
  8
A-DIMS
100
AcDbBlockReference
  2
_OBLIQUE
 10
1900.0
 20
-1450.0
 30
0.0
 41
120.0
 42
120.0
  0
LINE
  5
18B
330
182
100
AcDbEntity
  8
0
100
AcDbLine
 10
700.0
 20
-1450.0
 30
0.0
 11
1900.0
 21
-1450.0
 31
0.0
  0
MTEXT
  5
18C
330
182
100
AcDbEntity
  8
A-DIMS
100
AcDbMText
 10
1300.0
 20
-1300.0
 30
0.0
 40
180.0
 71
5
  1
1200
  7
OpenSansCondensed-Light
  0
POINT
  5
18D
330
182
100
AcDbEntity
  8
Defpoints
100
AcDbPoint
 10
700.0
 20
-1450.0
 30
0.0
  0
POINT
  5
18E
330
182
100
AcDbEntity
  8
Defpoints
100
AcDbPoint
 10
700.0
 20
0.0
 30
0.0
  0
POINT
  5
18F
330
182
100
AcDbEntity
  8
Defpoints
100
AcDbPoint
 10
1900.0
 20
0.0
 30
0.0
  0
ENDBLK
  5
184
330
182
100
AcDbEntity
  8
0
100
AcDbBlockEnd
  0
BLOCK
  5
192
330
191
100
AcDbEntity
  8
0
100
AcDbBlockBegin
  2
*D3
 70
1
 10
0.0
 20
0.0
 30
0.0
  3
*D3
  1

  0
LINE
  5
194
330
191
100
AcDbEntity
  8
0
100
AcDbLine
 10
1900.0
 20
-119.99999999999999
 30
0.0
 11
1900.0
 21
-1570.0
 31
0.0
  0
LINE
  5
195
330
191
100
AcDbEntity
  8
0
100
AcDbLine
 10
2222.0
 20
-119.99999999999999
 30
0.0
 11
2222.0
 21
-1570.0
 31
0.0
  0
INSERT
  5
196
330
191
100
AcDbEntity
  8
A-DIMS
100
AcDbBlockReference
  2
_OBLIQUE
 10
1900.0
 20
-1450.0
 30
0.0
 41
120.0
 42
120.0
  0
INSERT
  5
198
330
191
100
AcDbEntity
  8
A-DIMS
100
AcDbBlockReference
  2
_OBLIQUE
 10
2222.0
 20
-1450.0
 30
0.0
 41
120.0
 42
120.0
  0
LINE
  5
19A
330
191
100
AcDbEntity
  8
0
100
AcDbLine
 10
1900.0
 20
-1450.0
 30
0.0
 11
2222.0
 21
-1450.0
 31
0.0
  0
MTEXT
  5
19B
330
191
100
AcDbEntity
  8
A-DIMS
100
AcDbMText
 10
2061.0
 20
-1180.0
 30
0.0
 40
180.0
 71
5
  1
322
  7
OpenSansCondensed-Light
  0
POINT
  5
19C
330
191
100
AcDbEntity
  8
Defpoints
100
AcDbPoint
 10
1900.0
 20
-1450.0
 30
0.0
  0
POINT
  5
19D
330
191
100
AcDbEntity
  8
Defpoints
100
AcDbPoint
 10
1900.0
 20
0.0
 30
0.0
  0
POINT
  5
19E
330
191
100
AcDbEntity
  8
Defpoints
100
AcDbPoint
 10
2222.0
 20
0.0
 30
0.0
  0
ENDBLK
  5
193
330
191
100
AcDbEntity
  8
0
100
AcDbBlockEnd
  0
BLOCK
  5
1A1
330
1A0
100
AcDbEntity
  8
0
100
AcDbBlockBegin
  2
*D4
 70
1
 10
0.0
 20
0.0
 30
0.0
  3
*D4
  1

  0
LINE
  5
1A3
330
1A0
100
AcDbEntity
  8
0
100
AcDbLine
 10
2222.0
 20
-119.99999999999999
 30
0.0
 11
2222.0
 21
-1570.0
 31
0.0
  0
LINE
  5
1A4
330
1A0
100
AcDbEntity
  8
0
100
AcDbLine
 10
7322.0
 20
-119.99999999999999
 30
0.0
 11
7322.0
 21
-1570.0
 31
0.0
  0
INSERT
  5
1A5
330
1A0
100
AcDbEntity
  8
A-DIMS
100
AcDbBlockReference
  2
_OBLIQUE
 10
2222.0
 20
-1450.0
 30
0.0
 41
120.0
 42
120.0
  0
INSERT
  5
1A7
330
1A0
100
AcDbEntity
  8
A-DIMS
100
AcDbBlockReference
  2
_OBLIQUE
 10
7322.0
 20
-1450.0
 30
0.0
 41
120.0
 42
120.0
  0
LINE
  5
1A9
330
1A0
100
AcDbEntity
  8
0
100
AcDbLine
 10
2222.0
 20
-1450.0
 30
0.0
 11
7322.0
 21
-1450.0
 31
0.0
  0
MTEXT
  5
1AA
330
1A0
100
AcDbEntity
  8
A-DIMS
100
AcDbMText
 10
4772.0
 20
-1300.0
 30
0.0
 40
180.0
 71
5
  1
5100
  7
OpenSansCondensed-Light
  0
POINT
  5
1AB
330
1A0
100
AcDbEntity
  8
Defpoints
100
AcDbPoint
 10
2222.0
 20
-1450.0
 30
0.0
  0
POINT
  5
1AC
330
1A0
100
AcDbEntity
  8
Defpoints
100
AcDbPoint
 10
2222.0
 20
0.0
 30
0.0
  0
POINT
  5
1AD
330
1A0
100
AcDbEntity
  8
Defpoints
100
AcDbPoint
 10
7322.0
 20
0.0
 30
0.0
  0
ENDBLK
  5
1A2
330
1A0
100
AcDbEntity
  8
0
100
AcDbBlockEnd
  0
BLOCK
  5
1B0
330
1AF
100
AcDbEntity
  8
0
100
AcDbBlockBegin
  2
*D5
 70
1
 10
0.0
 20
0.0
 30
0.0
  3
*D5
  1

  0
LINE
  5
1B2
330
1AF
100
AcDbEntity
  8
0
100
AcDbLine
 10
7322.0
 20
-119.99999999999999
 30
0.0
 11
7322.0
 21
-1570.0
 31
0.0
  0
LINE
  5
1B3
330
1AF
100
AcDbEntity
  8
0
100
AcDbLine
 10
7644.0
 20
-119.99999999999999
 30
0.0
 11
7644.0
 21
-1570.0
 31
0.0
  0
INSERT
  5
1B4
330
1AF
100
AcDbEntity
  8
A-DIMS
100
AcDbBlockReference
  2
_OBLIQUE
 10
7322.0
 20
-1450.0
 30
0.0
 41
120.0
 42
120.0
  0
INSERT
  5
1B6
330
1AF
100
AcDbEntity
  8
A-DIMS
100
AcDbBlockReference
  2
_OBLIQUE
 10
7644.0
 20
-1450.0
 30
0.0
 41
120.0
 42
120.0
  0
LINE
  5
1B8
330
1AF
100
AcDbEntity
  8
0
100
AcDbLine
 10
7322.0
 20
-1450.0
 30
0.0
 11
7644.0
 21
-1450.0
 31
0.0
  0
MTEXT
  5
1B9
330
1AF
100
AcDbEntity
  8
A-DIMS
100
AcDbMText
 10
7483.0
 20
-1180.0
 30
0.0
 40
180.0
 71
5
  1
322
  7
OpenSansCondensed-Light
  0
POINT
  5
1BA
330
1AF
100
AcDbEntity
  8
Defpoints
100
AcDbPoint
 10
7322.0
 20
-1450.0
 30
0.0
  0
POINT
  5
1BB
330
1AF
100
AcDbEntity
  8
Defpoints
100
AcDbPoint
 10
7322.0
 20
0.0
 30
0.0
  0
POINT
  5
1BC
330
1AF
100
AcDbEntity
  8
Defpoints
100
AcDbPoint
 10
7644.0
 20
0.0
 30
0.0
  0
ENDBLK
  5
1B1
330
1AF
100
AcDbEntity
  8
0
100
AcDbBlockEnd
  0
BLOCK
  5
1BF
330
1BE
100
AcDbEntity
  8
0
100
AcDbBlockBegin
  2
*D6
 70
1
 10
0.0
 20
0.0
 30
0.0
  3
*D6
  1

  0
LINE
  5
1C1
330
1BE
100
AcDbEntity
  8
0
100
AcDbLine
 10
0.0
 20
-120.0
 30
0.0
 11
0.0
 21
-2020.0
 31
0.0
  0
LINE
  5
1C2
330
1BE
100
AcDbEntity
  8
0
100
AcDbLine
 10
7644.0
 20
-120.0
 30
0.0
 11
7644.0
 21
-2020.0
 31
0.0
  0
INSERT
  5
1C3
330
1BE
100
AcDbEntity
  8
A-DIMS
100
AcDbBlockReference
  2
_OBLIQUE
 10
0.0
 20
-1900.0
 30
0.0
 41
120.0
 42
120.0
  0
INSERT
  5
1C5
330
1BE
100
AcDbEntity
  8
A-DIMS
100
AcDbBlockReference
  2
_OBLIQUE
 10
7644.0
 20
-1900.0
 30
0.0
 41
120.0
 42
120.0
  0
LINE
  5
1C7
330
1BE
100
AcDbEntity
  8
0
100
AcDbLine
 10
0.0
 20
-1900.0
 30
0.0
 11
7644.0
 21
-1900.0
 31
0.0
  0
MTEXT
  5
1C8
330
1BE
100
AcDbEntity
  8
A-DIMS
100
AcDbMText
 10
3822.0
 20
-1750.0
 30
0.0
 40
180.0
 71
5
  1
7644
  7
OpenSansCondensed-Light
  0
POINT
  5
1C9
330
1BE
100
AcDbEntity
  8
Defpoints
100
AcDbPoint
 10
0.0
 20
-1900.0
 30
0.0
  0
POINT
  5
1CA
330
1BE
100
AcDbEntity
  8
Defpoints
100
AcDbPoint
 10
0.0
 20
0.0
 30
0.0
  0
POINT
  5
1CB
330
1BE
100
AcDbEntity
  8
Defpoints
100
AcDbPoint
 10
7644.0
 20
0.0
 30
0.0
  0
ENDBLK
  5
1C0
330
1BE
100
AcDbEntity
  8
0
100
AcDbBlockEnd
  0
BLOCK
  5
1CE
330
1CD
100
AcDbEntity
  8
0
100
AcDbBlockBegin
  2
*D7
 70
1
 10
0.0
 20
0.0
 30
0.0
  3
*D7
  1

  0
LINE
  5
1D0
330
1CD
100
AcDbEntity
  8
0
100
AcDbLine
 10
0.0
 20
9612.0
 30
0.0
 11
0.0
 21
10162.0
 31
0.0
  0
LINE
  5
1D1
330
1CD
100
AcDbEntity
  8
0
100
AcDbLine
 10
676.0
 20
9612.0
 30
0.0
 11
676.0
 21
10162.0
 31
0.0
  0
INSERT
  5
1D2
330
1CD
100
AcDbEntity
  8
A-DIMS
100
AcDbBlockReference
  2
_OBLIQUE
 10
0.0
 20
10042.0
 30
0.0
 41
120.0
 42
120.0
  0
INSERT
  5
1D4
330
1CD
100
AcDbEntity
  8
A-DIMS
100
AcDbBlockReference
  2
_OBLIQUE
 10
676.0
 20
10042.0
 30
0.0
 41
120.0
 42
120.0
  0
LINE
  5
1D6
330
1CD
100
AcDbEntity
  8
0
100
AcDbLine
 10
0.0
 20
10042.0
 30
0.0
 11
676.0
 21
10042.0
 31
0.0
  0
MTEXT
  5
1D7
330
1CD
100
AcDbEntity
  8
A-DIMS
100
AcDbMText
 10
338.0
 20
10192.0
 30
0.0
 40
180.0
 71
5
  1
676
  7
OpenSansCondensed-Light
  0
POINT
  5
1D8
330
1CD
100
AcDbEntity
  8
Defpoints
100
AcDbPoint
 10
0.0
 20
10042.0
 30
0.0
  0
POINT
  5
1D9
330
1CD
100
AcDbEntity
  8
Defpoints
100
AcDbPoint
 10
0.0
 20
9492.0
 30
0.0
  0
POINT
  5
1DA
330
1CD
100
AcDbEntity
  8
Defpoints
100
AcDbPoint
 10
676.0
 20
9492.0
 30
0.0
  0
ENDBLK
  5
1CF
330
1CD
100
AcDbEntity
  8
0
100
AcDbBlockEnd
  0
BLOCK
  5
1DD
330
1DC
100
AcDbEntity
  8
0
100
AcDbBlockBegin
  2
*D8
 70
1
 10
0.0
 20
0.0
 30
0.0
  3
*D8
  1

  0
LINE
  5
1DF
330
1DC
100
AcDbEntity
  8
0
100
AcDbLine
 10
676.0
 20
9612.0
 30
0.0
 11
676.0
 21
10162.0
 31
0.0
  0
LINE
  5
1E0
330
1DC
100
AcDbEntity
  8
0
100
AcDbLine
 10
1876.0
 20
9612.0
 30
0.0
 11
1876.0
 21
10162.0
 31
0.0
  0
INSERT
  5
1E1
330
1DC
100
AcDbEntity
  8
A-DIMS
100
AcDbBlockReference
  2
_OBLIQUE
 10
676.0
 20
10042.0
 30
0.0
 41
120.0
 42
120.0
  0
INSERT
  5
1E3
330
1DC
100
AcDbEntity
  8
A-DIMS
100
AcDbBlockReference
  2
_OBLIQUE
 10
1876.0
 20
10042.0
 30
0.0
 41
120.0
 42
120.0
  0
LINE
  5
1E5
330
1DC
100
AcDbEntity
  8
0
100
AcDbLine
 10
676.0
 20
10042.0
 30
0.0
 11
1876.0
 21
10042.0
 31
0.0
  0
MTEXT
  5
1E6
330
1DC
100
AcDbEntity
  8
A-DIMS
100
AcDbMText
 10
1276.0
 20
10192.0
 30
0.0
 40
180.0
 71
5
  1
1200
  7
OpenSansCondensed-Light
  0
POINT
  5
1E7
330
1DC
100
AcDbEntity
  8
Defpoints
100
AcDbPoint
 10
676.0
 20
10042.0
 30
0.0
  0
POINT
  5
1E8
330
1DC
100
AcDbEntity
  8
Defpoints
100
AcDbPoint
 10
676.0
 20
9492.0
 30
0.0
  0
POINT
  5
1E9
330
1DC
100
AcDbEntity
  8
Defpoints
100
AcDbPoint
 10
1876.0
 20
9492.0
 30
0.0
  0
ENDBLK
  5
1DE
330
1DC
100
AcDbEntity
  8
0
100
AcDbBlockEnd
  0
BLOCK
  5
1EC
330
1EB
100
AcDbEntity
  8
0
100
AcDbBlockBegin
  2
*D9
 70
1
 10
0.0
 20
0.0
 30
0.0
  3
*D9
  1

  0
LINE
  5
1EE
330
1EB
100
AcDbEntity
  8
0
100
AcDbLine
 10
1876.0
 20
9612.0
 30
0.0
 11
1876.0
 21
10162.0
 31
0.0
  0
LINE
  5
1EF
330
1EB
100
AcDbEntity
  8
0
100
AcDbLine
 10
2925.0
 20
9612.0
 30
0.0
 11
2925.0
 21
10162.0
 31
0.0
  0
INSERT
  5
1F0
330
1EB
100
AcDbEntity
  8
A-DIMS
100
AcDbBlockReference
  2
_OBLIQUE
 10
1876.0
 20
10042.0
 30
0.0
 41
120.0
 42
120.0
  0
INSERT
  5
1F2
330
1EB
100
AcDbEntity
  8
A-DIMS
100
AcDbBlockReference
  2
_OBLIQUE
 10
2925.0
 20
10042.0
 30
0.0
 41
120.0
 42
120.0
  0
LINE
  5
1F4
330
1EB
100
AcDbEntity
  8
0
100
AcDbLine
 10
1876.0
 20
10042.0
 30
0.0
 11
2925.0
 21
10042.0
 31
0.0
  0
MTEXT
  5
1F5
330
1EB
100
AcDbEntity
  8
A-DIMS
100
AcDbMText
 10
2400.5
 20
10192.0
 30
0.0
 40
180.0
 71
5
  1
1049
  7
OpenSansCondensed-Light
  0
POINT
  5
1F6
330
1EB
100
AcDbEntity
  8
Defpoints
100
AcDbPoint
 10
1876.0
 20
10042.0
 30
0.0
  0
POINT
  5
1F7
330
1EB
100
AcDbEntity
  8
Defpoints
100
AcDbPoint
 10
1876.0
 20
9492.0
 30
0.0
  0
POINT
  5
1F8
330
1EB
100
AcDbEntity
  8
Defpoints
100
AcDbPoint
 10
2925.0
 20
9492.0
 30
0.0
  0
ENDBLK
  5
1ED
330
1EB
100
AcDbEntity
  8
0
100
AcDbBlockEnd
  0
BLOCK
  5
1FB
330
1FA
100
AcDbEntity
  8
0
100
AcDbBlockBegin
  2
*D10
 70
1
 10
0.0
 20
0.0
 30
0.0
  3
*D10
  1

  0
LINE
  5
1FD
330
1FA
100
AcDbEntity
  8
0
100
AcDbLine
 10
2925.0
 20
9612.0
 30
0.0
 11
2925.0
 21
10162.0
 31
0.0
  0
LINE
  5
1FE
330
1FA
100
AcDbEntity
  8
0
100
AcDbLine
 10
3525.0
 20
9612.0
 30
0.0
 11
3525.0
 21
10162.0
 31
0.0
  0
INSERT
  5
1FF
330
1FA
100
AcDbEntity
  8
A-DIMS
100
AcDbBlockReference
  2
_OBLIQUE
 10
2925.0
 20
10042.0
 30
0.0
 41
120.0
 42
120.0
  0
INSERT
  5
201
330
1FA
100
AcDbEntity
  8
A-DIMS
100
AcDbBlockReference
  2
_OBLIQUE
 10
3525.0
 20
10042.0
 30
0.0
 41
120.0
 42
120.0
  0
LINE
  5
203
330
1FA
100
AcDbEntity
  8
0
100
AcDbLine
 10
2925.0
 20
10042.0
 30
0.0
 11
3525.0
 21
10042.0
 31
0.0
  0
MTEXT
  5
204
330
1FA
100
AcDbEntity
  8
A-DIMS
100
AcDbMText
 10
3225.0
 20
10192.0
 30
0.0
 40
180.0
 71
5
  1
600
  7
OpenSansCondensed-Light
  0
POINT
  5
205
330
1FA
100
AcDbEntity
  8
Defpoints
100
AcDbPoint
 10
2925.0
 20
10042.0
 30
0.0
  0
POINT
  5
206
330
1FA
100
AcDbEntity
  8
Defpoints
100
AcDbPoint
 10
2925.0
 20
9492.0
 30
0.0
  0
POINT
  5
207
330
1FA
100
AcDbEntity
  8
Defpoints
100
AcDbPoint
 10
3525.0
 20
9492.0
 30
0.0
  0
ENDBLK
  5
1FC
330
1FA
100
AcDbEntity
  8
0
100
AcDbBlockEnd
  0
BLOCK
  5
20A
330
209
100
AcDbEntity
  8
0
100
AcDbBlockBegin
  2
*D11
 70
1
 10
0.0
 20
0.0
 30
0.0
  3
*D11
  1

  0
LINE
  5
20C
330
209
100
AcDbEntity
  8
0
100
AcDbLine
 10
3525.0
 20
9612.0
 30
0.0
 11
3525.0
 21
10162.0
 31
0.0
  0
LINE
  5
20D
330
209
100
AcDbEntity
  8
0
100
AcDbLine
 10
4722.0
 20
9612.0
 30
0.0
 11
4722.0
 21
10162.0
 31
0.0
  0
INSERT
  5
20E
330
209
100
AcDbEntity
  8
A-DIMS
100
AcDbBlockReference
  2
_OBLIQUE
 10
3525.0
 20
10042.0
 30
0.0
 41
120.0
 42
120.0
  0
INSERT
  5
210
330
209
100
AcDbEntity
  8
A-DIMS
100
AcDbBlockReference
  2
_OBLIQUE
 10
4722.0
 20
10042.0
 30
0.0
 41
120.0
 42
120.0
  0
LINE
  5
212
330
209
100
AcDbEntity
  8
0
100
AcDbLine
 10
3525.0
 20
10042.0
 30
0.0
 11
4722.0
 21
10042.0
 31
0.0
  0
MTEXT
  5
213
330
209
100
AcDbEntity
  8
A-DIMS
100
AcDbMText
 10
4123.5
 20
10192.0
 30
0.0
 40
180.0
 71
5
  1
1197
  7
OpenSansCondensed-Light
  0
POINT
  5
214
330
209
100
AcDbEntity
  8
Defpoints
100
AcDbPoint
 10
3525.0
 20
10042.0
 30
0.0
  0
POINT
  5
215
330
209
100
AcDbEntity
  8
Defpoints
100
AcDbPoint
 10
3525.0
 20
9492.0
 30
0.0
  0
POINT
  5
216
330
209
100
AcDbEntity
  8
Defpoints
100
AcDbPoint
 10
4722.0
 20
9492.0
 30
0.0
  0
ENDBLK
  5
20B
330
209
100
AcDbEntity
  8
0
100
AcDbBlockEnd
  0
BLOCK
  5
219
330
218
100
AcDbEntity
  8
0
100
AcDbBlockBegin
  2
*D12
 70
1
 10
0.0
 20
0.0
 30
0.0
  3
*D12
  1

  0
LINE
  5
21B
330
218
100
AcDbEntity
  8
0
100
AcDbLine
 10
4722.0
 20
9612.0
 30
0.0
 11
4722.0
 21
10162.0
 31
0.0
  0
LINE
  5
21C
330
218
100
AcDbEntity
  8
0
100
AcDbLine
 10
6822.0
 20
9612.0
 30
0.0
 11
6822.0
 21
10162.0
 31
0.0
  0
INSERT
  5
21D
330
218
100
AcDbEntity
  8
A-DIMS
100
AcDbBlockReference
  2
_OBLIQUE
 10
4722.0
 20
10042.0
 30
0.0
 41
120.0
 42
120.0
  0
INSERT
  5
21F
330
218
100
AcDbEntity
  8
A-DIMS
100
AcDbBlockReference
  2
_OBLIQUE
 10
6822.0
 20
10042.0
 30
0.0
 41
120.0
 42
120.0
  0
LINE
  5
221
330
218
100
AcDbEntity
  8
0
100
AcDbLine
 10
4722.0
 20
10042.0
 30
0.0
 11
6822.0
 21
10042.0
 31
0.0
  0
MTEXT
  5
222
330
218
100
AcDbEntity
  8
A-DIMS
100
AcDbMText
 10
5772.0
 20
10192.0
 30
0.0
 40
180.0
 71
5
  1
2100
  7
OpenSansCondensed-Light
  0
POINT
  5
223
330
218
100
AcDbEntity
  8
Defpoints
100
AcDbPoint
 10
4722.0
 20
10042.0
 30
0.0
  0
POINT
  5
224
330
218
100
AcDbEntity
  8
Defpoints
100
AcDbPoint
 10
4722.0
 20
9492.0
 30
0.0
  0
POINT
  5
225
330
218
100
AcDbEntity
  8
Defpoints
100
AcDbPoint
 10
6822.0
 20
9492.0
 30
0.0
  0
ENDBLK
  5
21A
330
218
100
AcDbEntity
  8
0
100
AcDbBlockEnd
  0
BLOCK
  5
228
330
227
100
AcDbEntity
  8
0
100
AcDbBlockBegin
  2
*D13
 70
1
 10
0.0
 20
0.0
 30
0.0
  3
*D13
  1

  0
LINE
  5
22A
330
227
100
AcDbEntity
  8
0
100
AcDbLine
 10
6822.0
 20
9612.0
 30
0.0
 11
6822.0
 21
10162.0
 31
0.0
  0
LINE
  5
22B
330
227
100
AcDbEntity
  8
0
100
AcDbLine
 10
7644.0
 20
9612.0
 30
0.0
 11
7644.0
 21
10162.0
 31
0.0
  0
INSERT
  5
22C
330
227
100
AcDbEntity
  8
A-DIMS
100
AcDbBlockReference
  2
_OBLIQUE
 10
6822.0
 20
10042.0
 30
0.0
 41
120.0
 42
120.0
  0
INSERT
  5
22E
330
227
100
AcDbEntity
  8
A-DIMS
100
AcDbBlockReference
  2
_OBLIQUE
 10
7644.0
 20
10042.0
 30
0.0
 41
120.0
 42
120.0
  0
LINE
  5
230
330
227
100
AcDbEntity
  8
0
100
AcDbLine
 10
6822.0
 20
10042.0
 30
0.0
 11
7644.0
 21
10042.0
 31
0.0
  0
MTEXT
  5
231
330
227
100
AcDbEntity
  8
A-DIMS
100
AcDbMText
 10
7233.0
 20
10192.0
 30
0.0
 40
180.0
 71
5
  1
822
  7
OpenSansCondensed-Light
  0
POINT
  5
232
330
227
100
AcDbEntity
  8
Defpoints
100
AcDbPoint
 10
6822.0
 20
10042.0
 30
0.0
  0
POINT
  5
233
330
227
100
AcDbEntity
  8
Defpoints
100
AcDbPoint
 10
6822.0
 20
9492.0
 30
0.0
  0
POINT
  5
234
330
227
100
AcDbEntity
  8
Defpoints
100
AcDbPoint
 10
7644.0
 20
9492.0
 30
0.0
  0
ENDBLK
  5
229
330
227
100
AcDbEntity
  8
0
100
AcDbBlockEnd
  0
BLOCK
  5
237
330
236
100
AcDbEntity
  8
0
100
AcDbBlockBegin
  2
*D14
 70
1
 10
0.0
 20
0.0
 30
0.0
  3
*D14
  1

  0
LINE
  5
239
330
236
100
AcDbEntity
  8
0
100
AcDbLine
 10
0.0
 20
9612.0
 30
0.0
 11
0.0
 21
10612.0
 31
0.0
  0
LINE
  5
23A
330
236
100
AcDbEntity
  8
0
100
AcDbLine
 10
2550.0
 20
9612.0
 30
0.0
 11
2550.0
 21
10612.0
 31
0.0
  0
INSERT
  5
23B
330
236
100
AcDbEntity
  8
A-DIMS
100
AcDbBlockReference
  2
_OBLIQUE
 10
0.0
 20
10492.0
 30
0.0
 41
120.0
 42
120.0
  0
INSERT
  5
23D
330
236
100
AcDbEntity
  8
A-DIMS
100
AcDbBlockReference
  2
_OBLIQUE
 10
2550.0
 20
10492.0
 30
0.0
 41
120.0
 42
120.0
  0
LINE
  5
23F
330
236
100
AcDbEntity
  8
0
100
AcDbLine
 10
0.0
 20
10492.0
 30
0.0
 11
2550.0
 21
10492.0
 31
0.0
  0
MTEXT
  5
240
330
236
100
AcDbEntity
  8
A-DIMS
100
AcDbMText
 10
1275.0
 20
10642.0
 30
0.0
 40
180.0
 71
5
  1
2550
  7
OpenSansCondensed-Light
  0
POINT
  5
241
330
236
100
AcDbEntity
  8
Defpoints
100
AcDbPoint
 10
0.0
 20
10492.0
 30
0.0
  0
POINT
  5
242
330
236
100
AcDbEntity
  8
Defpoints
100
AcDbPoint
 10
0.0
 20
9492.0
 30
0.0
  0
POINT
  5
243
330
236
100
AcDbEntity
  8
Defpoints
100
AcDbPoint
 10
2550.0
 20
9492.0
 30
0.0
  0
ENDBLK
  5
238
330
236
100
AcDbEntity
  8
0
100
AcDbBlockEnd
  0
BLOCK
  5
246
330
245
100
AcDbEntity
  8
0
100
AcDbBlockBegin
  2
*D15
 70
1
 10
0.0
 20
0.0
 30
0.0
  3
*D15
  1

  0
LINE
  5
248
330
245
100
AcDbEntity
  8
0
100
AcDbLine
 10
2550.0
 20
9612.0
 30
0.0
 11
2550.0
 21
10612.0
 31
0.0
  0
LINE
  5
249
330
245
100
AcDbEntity
  8
0
100
AcDbLine
 10
3900.0
 20
9612.0
 30
0.0
 11
3900.0
 21
10612.0
 31
0.0
  0
INSERT
  5
24A
330
245
100
AcDbEntity
  8
A-DIMS
100
AcDbBlockReference
  2
_OBLIQUE
 10
2550.0
 20
10492.0
 30
0.0
 41
120.0
 42
120.0
  0
INSERT
  5
24C
330
245
100
AcDbEntity
  8
A-DIMS
100
AcDbBlockReference
  2
_OBLIQUE
 10
3900.0
 20
10492.0
 30
0.0
 41
120.0
 42
120.0
  0
LINE
  5
24E
330
245
100
AcDbEntity
  8
0
100
AcDbLine
 10
2550.0
 20
10492.0
 30
0.0
 11
3900.0
 21
10492.0
 31
0.0
  0
MTEXT
  5
24F
330
245
100
AcDbEntity
  8
A-DIMS
100
AcDbMText
 10
3225.0
 20
10642.0
 30
0.0
 40
180.0
 71
5
  1
1350
  7
OpenSansCondensed-Light
  0
POINT
  5
250
330
245
100
AcDbEntity
  8
Defpoints
100
AcDbPoint
 10
2550.0
 20
10492.0
 30
0.0
  0
POINT
  5
251
330
245
100
AcDbEntity
  8
Defpoints
100
AcDbPoint
 10
2550.0
 20
9492.0
 30
0.0
  0
POINT
  5
252
330
245
100
AcDbEntity
  8
Defpoints
100
AcDbPoint
 10
3900.0
 20
9492.0
 30
0.0
  0
ENDBLK
  5
247
330
245
100
AcDbEntity
  8
0
100
AcDbBlockEnd
  0
BLOCK
  5
255
330
254
100
AcDbEntity
  8
0
100
AcDbBlockBegin
  2
*D16
 70
1
 10
0.0
 20
0.0
 30
0.0
  3
*D16
  1

  0
LINE
  5
257
330
254
100
AcDbEntity
  8
0
100
AcDbLine
 10
3900.0
 20
9612.0
 30
0.0
 11
3900.0
 21
10612.0
 31
0.0
  0
LINE
  5
258
330
254
100
AcDbEntity
  8
0
100
AcDbLine
 10
7644.0
 20
9612.0
 30
0.0
 11
7644.0
 21
10612.0
 31
0.0
  0
INSERT
  5
259
330
254
100
AcDbEntity
  8
A-DIMS
100
AcDbBlockReference
  2
_OBLIQUE
 10
3900.0
 20
10492.0
 30
0.0
 41
120.0
 42
120.0
  0
INSERT
  5
25B
330
254
100
AcDbEntity
  8
A-DIMS
100
AcDbBlockReference
  2
_OBLIQUE
 10
7644.0
 20
10492.0
 30
0.0
 41
120.0
 42
120.0
  0
LINE
  5
25D
330
254
100
AcDbEntity
  8
0
100
AcDbLine
 10
3900.0
 20
10492.0
 30
0.0
 11
7644.0
 21
10492.0
 31
0.0
  0
MTEXT
  5
25E
330
254
100
AcDbEntity
  8
A-DIMS
100
AcDbMText
 10
5772.0
 20
10642.0
 30
0.0
 40
180.0
 71
5
  1
3744
  7
OpenSansCondensed-Light
  0
POINT
  5
25F
330
254
100
AcDbEntity
  8
Defpoints
100
AcDbPoint
 10
3900.0
 20
10492.0
 30
0.0
  0
POINT
  5
260
330
254
100
AcDbEntity
  8
Defpoints
100
AcDbPoint
 10
3900.0
 20
9492.0
 30
0.0
  0
POINT
  5
261
330
254
100
AcDbEntity
  8
Defpoints
100
AcDbPoint
 10
7644.0
 20
9492.0
 30
0.0
  0
ENDBLK
  5
256
330
254
100
AcDbEntity
  8
0
100
AcDbBlockEnd
  0
BLOCK
  5
264
330
263
100
AcDbEntity
  8
0
100
AcDbBlockBegin
  2
*D17
 70
1
 10
0.0
 20
0.0
 30
0.0
  3
*D17
  1

  0
LINE
  5
266
330
263
100
AcDbEntity
  8
0
100
AcDbLine
 10
0.0
 20
9612.0
 30
0.0
 11
0.0
 21
11062.0
 31
0.0
  0
LINE
  5
267
330
263
100
AcDbEntity
  8
0
100
AcDbLine
 10
7644.0
 20
9612.0
 30
0.0
 11
7644.0
 21
11062.0
 31
0.0
  0
INSERT
  5
268
330
263
100
AcDbEntity
  8
A-DIMS
100
AcDbBlockReference
  2
_OBLIQUE
 10
0.0
 20
10942.0
 30
0.0
 41
120.0
 42
120.0
  0
INSERT
  5
26A
330
263
100
AcDbEntity
  8
A-DIMS
100
AcDbBlockReference
  2
_OBLIQUE
 10
7644.0
 20
10942.0
 30
0.0
 41
120.0
 42
120.0
  0
LINE
  5
26C
330
263
100
AcDbEntity
  8
0
100
AcDbLine
 10
0.0
 20
10942.0
 30
0.0
 11
7644.0
 21
10942.0
 31
0.0
  0
MTEXT
  5
26D
330
263
100
AcDbEntity
  8
A-DIMS
100
AcDbMText
 10
3822.0
 20
11092.0
 30
0.0
 40
180.0
 71
5
  1
7644
  7
OpenSansCondensed-Light
  0
POINT
  5
26E
330
263
100
AcDbEntity
  8
Defpoints
100
AcDbPoint
 10
0.0
 20
10942.0
 30
0.0
  0
POINT
  5
26F
330
263
100
AcDbEntity
  8
Defpoints
100
AcDbPoint
 10
0.0
 20
9492.0
 30
0.0
  0
POINT
  5
270
330
263
100
AcDbEntity
  8
Defpoints
100
AcDbPoint
 10
7644.0
 20
9492.0
 30
0.0
  0
ENDBLK
  5
265
330
263
100
AcDbEntity
  8
0
100
AcDbBlockEnd
  0
BLOCK
  5
273
330
272
100
AcDbEntity
  8
0
100
AcDbBlockBegin
  2
*D18
 70
1
 10
0.0
 20
0.0
 30
0.0
  3
*D18
  1

  0
LINE
  5
275
330
272
100
AcDbEntity
  8
0
100
AcDbLine
 10
-120.0
 20
0.0
 30
0.0
 11
-670.0
 21
0.0
 31
0.0
  0
LINE
  5
276
330
272
100
AcDbEntity
  8
0
100
AcDbLine
 10
-120.0
 20
375.0
 30
0.0
 11
-670.0
 21
375.0
 31
0.0
  0
INSERT
  5
277
330
272
100
AcDbEntity
  8
A-DIMS
100
AcDbBlockReference
  2
_OBLIQUE
 10
-550.0
 20
0.0
 30
0.0
 41
120.0
 42
120.0
 50
90.0
  0
INSERT
  5
279
330
272
100
AcDbEntity
  8
A-DIMS
100
AcDbBlockReference
  2
_OBLIQUE
 10
-550.0
 20
375.0
 30
0.0
 41
120.0
 42
120.0
 50
90.0
  0
LINE
  5
27B
330
272
100
AcDbEntity
  8
0
100
AcDbLine
 10
-550.0
 20
0.0
 30
0.0
 11
-550.0
 21
375.0
 31
0.0
  0
MTEXT
  5
27C
330
272
100
AcDbEntity
  8
A-DIMS
100
AcDbMText
 10
-820.0
 20
187.5
 30
0.0
 40
180.0
 71
5
  1
375
  7
OpenSansCondensed-Light
 50
90.0
  0
POINT
  5
27D
330
272
100
AcDbEntity
  8
Defpoints
100
AcDbPoint
 10
-550.0
 20
0.0
 30
0.0
  0
POINT
  5
27E
330
272
100
AcDbEntity
  8
Defpoints
100
AcDbPoint
 10
0.0
 20
0.0
 30
0.0
  0
POINT
  5
27F
330
272
100
AcDbEntity
  8
Defpoints
100
AcDbPoint
 10
0.0
 20
375.0
 30
0.0
  0
ENDBLK
  5
274
330
272
100
AcDbEntity
  8
0
100
AcDbBlockEnd
  0
BLOCK
  5
282
330
281
100
AcDbEntity
  8
0
100
AcDbBlockBegin
  2
*D19
 70
1
 10
0.0
 20
0.0
 30
0.0
  3
*D19
  1

  0
LINE
  5
284
330
281
100
AcDbEntity
  8
0
100
AcDbLine
 10
-120.0
 20
375.0
 30
0.0
 11
-670.0
 21
375.0
 31
0.0
  0
LINE
  5
285
330
281
100
AcDbEntity
  8
0
100
AcDbLine
 10
-120.0
 20
3075.0
 30
0.0
 11
-670.0
 21
3075.0
 31
0.0
  0
INSERT
  5
286
330
281
100
AcDbEntity
  8
A-DIMS
100
AcDbBlockReference
  2
_OBLIQUE
 10
-550.0
 20
375.0
 30
0.0
 41
120.0
 42
120.0
 50
90.0
  0
INSERT
  5
288
330
281
100
AcDbEntity
  8
A-DIMS
100
AcDbBlockReference
  2
_OBLIQUE
 10
-550.0
 20
3075.0
 30
0.0
 41
120.0
 42
120.0
 50
90.0
  0
LINE
  5
28A
330
281
100
AcDbEntity
  8
0
100
AcDbLine
 10
-550.0
 20
375.0
 30
0.0
 11
-550.0
 21
3075.0
 31
0.0
  0
MTEXT
  5
28B
330
281
100
AcDbEntity
  8
A-DIMS
100
AcDbMText
 10
-700.0
 20
1725.0
 30
0.0
 40
180.0
 71
5
  1
2700
  7
OpenSansCondensed-Light
 50
90.0
  0
POINT
  5
28C
330
281
100
AcDbEntity
  8
Defpoints
100
AcDbPoint
 10
-550.0
 20
375.0
 30
0.0
  0
POINT
  5
28D
330
281
100
AcDbEntity
  8
Defpoints
100
AcDbPoint
 10
0.0
 20
375.0
 30
0.0
  0
POINT
  5
28E
330
281
100
AcDbEntity
  8
Defpoints
100
AcDbPoint
 10
0.0
 20
3075.0
 30
0.0
  0
ENDBLK
  5
283
330
281
100
AcDbEntity
  8
0
100
AcDbBlockEnd
  0
BLOCK
  5
291
330
290
100
AcDbEntity
  8
0
100
AcDbBlockBegin
  2
*D20
 70
1
 10
0.0
 20
0.0
 30
0.0
  3
*D20
  1

  0
LINE
  5
293
330
290
100
AcDbEntity
  8
0
100
AcDbLine
 10
-120.0
 20
3075.0
 30
0.0
 11
-670.0
 21
3075.0
 31
0.0
  0
LINE
  5
294
330
290
100
AcDbEntity
  8
0
100
AcDbLine
 10
-120.0
 20
4150.0
 30
0.0
 11
-670.0
 21
4150.0
 31
0.0
  0
INSERT
  5
295
330
290
100
AcDbEntity
  8
A-DIMS
100
AcDbBlockReference
  2
_OBLIQUE
 10
-550.0
 20
3075.0
 30
0.0
 41
120.0
 42
120.0
 50
90.0
  0
INSERT
  5
297
330
290
100
AcDbEntity
  8
A-DIMS
100
AcDbBlockReference
  2
_OBLIQUE
 10
-550.0
 20
4150.0
 30
0.0
 41
120.0
 42
120.0
 50
90.0
  0
LINE
  5
299
330
290
100
AcDbEntity
  8
0
100
AcDbLine
 10
-550.0
 20
3075.0
 30
0.0
 11
-550.0
 21
4150.0
 31
0.0
  0
MTEXT
  5
29A
330
290
100
AcDbEntity
  8
A-DIMS
100
AcDbMText
 10
-700.0
 20
3612.5
 30
0.0
 40
180.0
 71
5
  1
1075
  7
OpenSansCondensed-Light
 50
90.0
  0
POINT
  5
29B
330
290
100
AcDbEntity
  8
Defpoints
100
AcDbPoint
 10
-550.0
 20
3075.0
 30
0.0
  0
POINT
  5
29C
330
290
100
AcDbEntity
  8
Defpoints
100
AcDbPoint
 10
0.0
 20
3075.0
 30
0.0
  0
POINT
  5
29D
330
290
100
AcDbEntity
  8
Defpoints
100
AcDbPoint
 10
0.0
 20
4150.0
 30
0.0
  0
ENDBLK
  5
292
330
290
100
AcDbEntity
  8
0
100
AcDbBlockEnd
  0
BLOCK
  5
2A0
330
29F
100
AcDbEntity
  8
0
100
AcDbBlockBegin
  2
*D21
 70
1
 10
0.0
 20
0.0
 30
0.0
  3
*D21
  1

  0
LINE
  5
2A2
330
29F
100
AcDbEntity
  8
0
100
AcDbLine
 10
-120.0
 20
4150.0
 30
0.0
 11
-670.0
 21
4150.0
 31
0.0
  0
LINE
  5
2A3
330
29F
100
AcDbEntity
  8
0
100
AcDbLine
 10
-120.0
 20
5650.0
 30
0.0
 11
-670.0
 21
5650.0
 31
0.0
  0
INSERT
  5
2A4
330
29F
100
AcDbEntity
  8
A-DIMS
100
AcDbBlockReference
  2
_OBLIQUE
 10
-550.0
 20
4150.0
 30
0.0
 41
120.0
 42
120.0
 50
90.0
  0
INSERT
  5
2A6
330
29F
100
AcDbEntity
  8
A-DIMS
100
AcDbBlockReference
  2
_OBLIQUE
 10
-550.0
 20
5650.0
 30
0.0
 41
120.0
 42
120.0
 50
90.0
  0
LINE
  5
2A8
330
29F
100
AcDbEntity
  8
0
100
AcDbLine
 10
-550.0
 20
4150.0
 30
0.0
 11
-550.0
 21
5650.0
 31
0.0
  0
MTEXT
  5
2A9
330
29F
100
AcDbEntity
  8
A-DIMS
100
AcDbMText
 10
-700.0
 20
4900.0
 30
0.0
 40
180.0
 71
5
  1
1500
  7
OpenSansCondensed-Light
 50
90.0
  0
POINT
  5
2AA
330
29F
100
AcDbEntity
  8
Defpoints
100
AcDbPoint
 10
-550.0
 20
4150.0
 30
0.0
  0
POINT
  5
2AB
330
29F
100
AcDbEntity
  8
Defpoints
100
AcDbPoint
 10
0.0
 20
4150.0
 30
0.0
  0
POINT
  5
2AC
330
29F
100
AcDbEntity
  8
Defpoints
100
AcDbPoint
 10
0.0
 20
5650.0
 30
0.0
  0
ENDBLK
  5
2A1
330
29F
100
AcDbEntity
  8
0
100
AcDbBlockEnd
  0
BLOCK
  5
2AF
330
2AE
100
AcDbEntity
  8
0
100
AcDbBlockBegin
  2
*D22
 70
1
 10
0.0
 20
0.0
 30
0.0
  3
*D22
  1

  0
LINE
  5
2B1
330
2AE
100
AcDbEntity
  8
0
100
AcDbLine
 10
-120.0
 20
5650.0
 30
0.0
 11
-670.0
 21
5650.0
 31
0.0
  0
LINE
  5
2B2
330
2AE
100
AcDbEntity
  8
0
100
AcDbLine
 10
-120.0
 20
6650.0
 30
0.0
 11
-670.0
 21
6650.0
 31
0.0
  0
INSERT
  5
2B3
330
2AE
100
AcDbEntity
  8
A-DIMS
100
AcDbBlockReference
  2
_OBLIQUE
 10
-550.0
 20
5650.0
 30
0.0
 41
120.0
 42
120.0
 50
90.0
  0
INSERT
  5
2B5
330
2AE
100
AcDbEntity
  8
A-DIMS
100
AcDbBlockReference
  2
_OBLIQUE
 10
-550.0
 20
6650.0
 30
0.0
 41
120.0
 42
120.0
 50
90.0
  0
LINE
  5
2B7
330
2AE
100
AcDbEntity
  8
0
100
AcDbLine
 10
-550.0
 20
5650.0
 30
0.0
 11
-550.0
 21
6650.0
 31
0.0
  0
MTEXT
  5
2B8
330
2AE
100
AcDbEntity
  8
A-DIMS
100
AcDbMText
 10
-700.0
 20
6150.0
 30
0.0
 40
180.0
 71
5
  1
1000
  7
OpenSansCondensed-Light
 50
90.0
  0
POINT
  5
2B9
330
2AE
100
AcDbEntity
  8
Defpoints
100
AcDbPoint
 10
-550.0
 20
5650.0
 30
0.0
  0
POINT
  5
2BA
330
2AE
100
AcDbEntity
  8
Defpoints
100
AcDbPoint
 10
0.0
 20
5650.0
 30
0.0
  0
POINT
  5
2BB
330
2AE
100
AcDbEntity
  8
Defpoints
100
AcDbPoint
 10
0.0
 20
6650.0
 30
0.0
  0
ENDBLK
  5
2B0
330
2AE
100
AcDbEntity
  8
0
100
AcDbBlockEnd
  0
BLOCK
  5
2BE
330
2BD
100
AcDbEntity
  8
0
100
AcDbBlockBegin
  2
*D23
 70
1
 10
0.0
 20
0.0
 30
0.0
  3
*D23
  1

  0
LINE
  5
2C0
330
2BD
100
AcDbEntity
  8
0
100
AcDbLine
 10
-120.0
 20
6650.0
 30
0.0
 11
-670.0
 21
6650.0
 31
0.0
  0
LINE
  5
2C1
330
2BD
100
AcDbEntity
  8
0
100
AcDbLine
 10
-120.0
 20
7550.0
 30
0.0
 11
-670.0
 21
7550.0
 31
0.0
  0
INSERT
  5
2C2
330
2BD
100
AcDbEntity
  8
A-DIMS
100
AcDbBlockReference
  2
_OBLIQUE
 10
-550.0
 20
6650.0
 30
0.0
 41
120.0
 42
120.0
 50
90.0
  0
INSERT
  5
2C4
330
2BD
100
AcDbEntity
  8
A-DIMS
100
AcDbBlockReference
  2
_OBLIQUE
 10
-550.0
 20
7550.0
 30
0.0
 41
120.0
 42
120.0
 50
90.0
  0
LINE
  5
2C6
330
2BD
100
AcDbEntity
  8
0
100
AcDbLine
 10
-550.0
 20
6650.0
 30
0.0
 11
-550.0
 21
7550.0
 31
0.0
  0
MTEXT
  5
2C7
330
2BD
100
AcDbEntity
  8
A-DIMS
100
AcDbMText
 10
-700.0
 20
7100.0
 30
0.0
 40
180.0
 71
5
  1
900
  7
OpenSansCondensed-Light
 50
90.0
  0
POINT
  5
2C8
330
2BD
100
AcDbEntity
  8
Defpoints
100
AcDbPoint
 10
-550.0
 20
6650.0
 30
0.0
  0
POINT
  5
2C9
330
2BD
100
AcDbEntity
  8
Defpoints
100
AcDbPoint
 10
0.0
 20
6650.0
 30
0.0
  0
POINT
  5
2CA
330
2BD
100
AcDbEntity
  8
Defpoints
100
AcDbPoint
 10
0.0
 20
7550.0
 30
0.0
  0
ENDBLK
  5
2BF
330
2BD
100
AcDbEntity
  8
0
100
AcDbBlockEnd
  0
BLOCK
  5
2CD
330
2CC
100
AcDbEntity
  8
0
100
AcDbBlockBegin
  2
*D24
 70
1
 10
0.0
 20
0.0
 30
0.0
  3
*D24
  1

  0
LINE
  5
2CF
330
2CC
100
AcDbEntity
  8
0
100
AcDbLine
 10
-120.0
 20
7550.0
 30
0.0
 11
-670.0
 21
7550.0
 31
0.0
  0
LINE
  5
2D0
330
2CC
100
AcDbEntity
  8
0
100
AcDbLine
 10
-120.0
 20
8296.0
 30
0.0
 11
-670.0
 21
8296.0
 31
0.0
  0
INSERT
  5
2D1
330
2CC
100
AcDbEntity
  8
A-DIMS
100
AcDbBlockReference
  2
_OBLIQUE
 10
-550.0
 20
7550.0
 30
0.0
 41
120.0
 42
120.0
 50
90.0
  0
INSERT
  5
2D3
330
2CC
100
AcDbEntity
  8
A-DIMS
100
AcDbBlockReference
  2
_OBLIQUE
 10
-550.0
 20
8296.0
 30
0.0
 41
120.0
 42
120.0
 50
90.0
  0
LINE
  5
2D5
330
2CC
100
AcDbEntity
  8
0
100
AcDbLine
 10
-550.0
 20
7550.0
 30
0.0
 11
-550.0
 21
8296.0
 31
0.0
  0
MTEXT
  5
2D6
330
2CC
100
AcDbEntity
  8
A-DIMS
100
AcDbMText
 10
-700.0
 20
7923.0
 30
0.0
 40
180.0
 71
5
  1
746
  7
OpenSansCondensed-Light
 50
90.0
  0
POINT
  5
2D7
330
2CC
100
AcDbEntity
  8
Defpoints
100
AcDbPoint
 10
-550.0
 20
7550.0
 30
0.0
  0
POINT
  5
2D8
330
2CC
100
AcDbEntity
  8
Defpoints
100
AcDbPoint
 10
0.0
 20
7550.0
 30
0.0
  0
POINT
  5
2D9
330
2CC
100
AcDbEntity
  8
Defpoints
100
AcDbPoint
 10
0.0
 20
8296.0
 30
0.0
  0
ENDBLK
  5
2CE
330
2CC
100
AcDbEntity
  8
0
100
AcDbBlockEnd
  0
BLOCK
  5
2DC
330
2DB
100
AcDbEntity
  8
0
100
AcDbBlockBegin
  2
*D25
 70
1
 10
0.0
 20
0.0
 30
0.0
  3
*D25
  1

  0
LINE
  5
2DE
330
2DB
100
AcDbEntity
  8
0
100
AcDbLine
 10
-120.0
 20
8296.0
 30
0.0
 11
-670.0
 21
8296.0
 31
0.0
  0
LINE
  5
2DF
330
2DB
100
AcDbEntity
  8
0
100
AcDbLine
 10
-120.0
 20
9046.0
 30
0.0
 11
-670.0
 21
9046.0
 31
0.0
  0
INSERT
  5
2E0
330
2DB
100
AcDbEntity
  8
A-DIMS
100
AcDbBlockReference
  2
_OBLIQUE
 10
-550.0
 20
8296.0
 30
0.0
 41
120.0
 42
120.0
 50
90.0
  0
INSERT
  5
2E2
330
2DB
100
AcDbEntity
  8
A-DIMS
100
AcDbBlockReference
  2
_OBLIQUE
 10
-550.0
 20
9046.0
 30
0.0
 41
120.0
 42
120.0
 50
90.0
  0
LINE
  5
2E4
330
2DB
100
AcDbEntity
  8
0
100
AcDbLine
 10
-550.0
 20
8296.0
 30
0.0
 11
-550.0
 21
9046.0
 31
0.0
  0
MTEXT
  5
2E5
330
2DB
100
AcDbEntity
  8
A-DIMS
100
AcDbMText
 10
-700.0
 20
8671.0
 30
0.0
 40
180.0
 71
5
  1
750
  7
OpenSansCondensed-Light
 50
90.0
  0
POINT
  5
2E6
330
2DB
100
AcDbEntity
  8
Defpoints
100
AcDbPoint
 10
-550.0
 20
8296.0
 30
0.0
  0
POINT
  5
2E7
330
2DB
100
AcDbEntity
  8
Defpoints
100
AcDbPoint
 10
0.0
 20
8296.0
 30
0.0
  0
POINT
  5
2E8
330
2DB
100
AcDbEntity
  8
Defpoints
100
AcDbPoint
 10
0.0
 20
9046.0
 30
0.0
  0
ENDBLK
  5
2DD
330
2DB
100
AcDbEntity
  8
0
100
AcDbBlockEnd
  0
BLOCK
  5
2EB
330
2EA
100
AcDbEntity
  8
0
100
AcDbBlockBegin
  2
*D26
 70
1
 10
0.0
 20
0.0
 30
0.0
  3
*D26
  1

  0
LINE
  5
2ED
330
2EA
100
AcDbEntity
  8
0
100
AcDbLine
 10
-120.0
 20
9046.0
 30
0.0
 11
-670.0
 21
9046.0
 31
0.0
  0
LINE
  5
2EE
330
2EA
100
AcDbEntity
  8
0
100
AcDbLine
 10
-120.0
 20
9492.0
 30
0.0
 11
-670.0
 21
9492.0
 31
0.0
  0
INSERT
  5
2EF
330
2EA
100
AcDbEntity
  8
A-DIMS
100
AcDbBlockReference
  2
_OBLIQUE
 10
-550.0
 20
9046.0
 30
0.0
 41
120.0
 42
120.0
 50
90.0
  0
INSERT
  5
2F1
330
2EA
100
AcDbEntity
  8
A-DIMS
100
AcDbBlockReference
  2
_OBLIQUE
 10
-550.0
 20
9492.0
 30
0.0
 41
120.0
 42
120.0
 50
90.0
  0
LINE
  5
2F3
330
2EA
100
AcDbEntity
  8
0
100
AcDbLine
 10
-550.0
 20
9046.0
 30
0.0
 11
-550.0
 21
9492.0
 31
0.0
  0
MTEXT
  5
2F4
330
2EA
100
AcDbEntity
  8
A-DIMS
100
AcDbMText
 10
-820.0
 20
9269.0
 30
0.0
 40
180.0
 71
5
  1
446
  7
OpenSansCondensed-Light
 50
90.0
  0
POINT
  5
2F5
330
2EA
100
AcDbEntity
  8
Defpoints
100
AcDbPoint
 10
-550.0
 20
9046.0
 30
0.0
  0
POINT
  5
2F6
330
2EA
100
AcDbEntity
  8
Defpoints
100
AcDbPoint
 10
0.0
 20
9046.0
 30
0.0
  0
POINT
  5
2F7
330
2EA
100
AcDbEntity
  8
Defpoints
100
AcDbPoint
 10
0.0
 20
9492.0
 30
0.0
  0
ENDBLK
  5
2EC
330
2EA
100
AcDbEntity
  8
0
100
AcDbBlockEnd
  0
BLOCK
  5
2FA
330
2F9
100
AcDbEntity
  8
0
100
AcDbBlockBegin
  2
*D27
 70
1
 10
0.0
 20
0.0
 30
0.0
  3
*D27
  1

  0
LINE
  5
2FC
330
2F9
100
AcDbEntity
  8
0
100
AcDbLine
 10
-120.0
 20
0.0
 30
0.0
 11
-1120.0
 21
0.0
 31
0.0
  0
LINE
  5
2FD
330
2F9
100
AcDbEntity
  8
0
100
AcDbLine
 10
-120.0
 20
3450.0
 30
0.0
 11
-1120.0
 21
3450.0
 31
0.0
  0
INSERT
  5
2FE
330
2F9
100
AcDbEntity
  8
A-DIMS
100
AcDbBlockReference
  2
_OBLIQUE
 10
-1000.0
 20
0.0
 30
0.0
 41
120.0
 42
120.0
 50
90.0
  0
INSERT
  5
300
330
2F9
100
AcDbEntity
  8
A-DIMS
100
AcDbBlockReference
  2
_OBLIQUE
 10
-1000.0
 20
3450.0
 30
0.0
 41
120.0
 42
120.0
 50
90.0
  0
LINE
  5
302
330
2F9
100
AcDbEntity
  8
0
100
AcDbLine
 10
-1000.0
 20
0.0
 30
0.0
 11
-1000.0
 21
3450.0
 31
0.0
  0
MTEXT
  5
303
330
2F9
100
AcDbEntity
  8
A-DIMS
100
AcDbMText
 10
-1150.0
 20
1725.0
 30
0.0
 40
180.0
 71
5
  1
3450
  7
OpenSansCondensed-Light
 50
90.0
  0
POINT
  5
304
330
2F9
100
AcDbEntity
  8
Defpoints
100
AcDbPoint
 10
-1000.0
 20
0.0
 30
0.0
  0
POINT
  5
305
330
2F9
100
AcDbEntity
  8
Defpoints
100
AcDbPoint
 10
0.0
 20
0.0
 30
0.0
  0
POINT
  5
306
330
2F9
100
AcDbEntity
  8
Defpoints
100
AcDbPoint
 10
0.0
 20
3450.0
 30
0.0
  0
ENDBLK
  5
2FB
330
2F9
100
AcDbEntity
  8
0
100
AcDbBlockEnd
  0
BLOCK
  5
309
330
308
100
AcDbEntity
  8
0
100
AcDbBlockBegin
  2
*D28
 70
1
 10
0.0
 20
0.0
 30
0.0
  3
*D28
  1

  0
LINE
  5
30B
330
308
100
AcDbEntity
  8
0
100
AcDbLine
 10
-120.0
 20
3450.0
 30
0.0
 11
-1120.0
 21
3450.0
 31
0.0
  0
LINE
  5
30C
330
308
100
AcDbEntity
  8
0
100
AcDbLine
 10
-120.0
 20
6350.0
 30
0.0
 11
-1120.0
 21
6350.0
 31
0.0
  0
INSERT
  5
30D
330
308
100
AcDbEntity
  8
A-DIMS
100
AcDbBlockReference
  2
_OBLIQUE
 10
-1000.0
 20
3450.0
 30
0.0
 41
120.0
 42
120.0
 50
90.0
  0
INSERT
  5
30F
330
308
100
AcDbEntity
  8
A-DIMS
100
AcDbBlockReference
  2
_OBLIQUE
 10
-1000.0
 20
6350.0
 30
0.0
 41
120.0
 42
120.0
 50
90.0
  0
LINE
  5
311
330
308
100
AcDbEntity
  8
0
100
AcDbLine
 10
-1000.0
 20
3450.0
 30
0.0
 11
-1000.0
 21
6350.0
 31
0.0
  0
MTEXT
  5
312
330
308
100
AcDbEntity
  8
A-DIMS
100
AcDbMText
 10
-1150.0
 20
4900.0
 30
0.0
 40
180.0
 71
5
  1
2900
  7
OpenSansCondensed-Light
 50
90.0
  0
POINT
  5
313
330
308
100
AcDbEntity
  8
Defpoints
100
AcDbPoint
 10
-1000.0
 20
3450.0
 30
0.0
  0
POINT
  5
314
330
308
100
AcDbEntity
  8
Defpoints
100
AcDbPoint
 10
0.0
 20
3450.0
 30
0.0
  0
POINT
  5
315
330
308
100
AcDbEntity
  8
Defpoints
100
AcDbPoint
 10
0.0
 20
6350.0
 30
0.0
  0
ENDBLK
  5
30A
330
308
100
AcDbEntity
  8
0
100
AcDbBlockEnd
  0
BLOCK
  5
318
330
317
100
AcDbEntity
  8
0
100
AcDbBlockBegin
  2
*D29
 70
1
 10
0.0
 20
0.0
 30
0.0
  3
*D29
  1

  0
LINE
  5
31A
330
317
100
AcDbEntity
  8
0
100
AcDbLine
 10
-120.0
 20
6350.0
 30
0.0
 11
-1120.0
 21
6350.0
 31
0.0
  0
LINE
  5
31B
330
317
100
AcDbEntity
  8
0
100
AcDbLine
 10
-120.0
 20
7850.0
 30
0.0
 11
-1120.0
 21
7850.0
 31
0.0
  0
INSERT
  5
31C
330
317
100
AcDbEntity
  8
A-DIMS
100
AcDbBlockReference
  2
_OBLIQUE
 10
-1000.0
 20
6350.0
 30
0.0
 41
120.0
 42
120.0
 50
90.0
  0
INSERT
  5
31E
330
317
100
AcDbEntity
  8
A-DIMS
100
AcDbBlockReference
  2
_OBLIQUE
 10
-1000.0
 20
7850.0
 30
0.0
 41
120.0
 42
120.0
 50
90.0
  0
LINE
  5
320
330
317
100
AcDbEntity
  8
0
100
AcDbLine
 10
-1000.0
 20
6350.0
 30
0.0
 11
-1000.0
 21
7850.0
 31
0.0
  0
MTEXT
  5
321
330
317
100
AcDbEntity
  8
A-DIMS
100
AcDbMText
 10
-1150.0
 20
7100.0
 30
0.0
 40
180.0
 71
5
  1
1500
  7
OpenSansCondensed-Light
 50
90.0
  0
POINT
  5
322
330
317
100
AcDbEntity
  8
Defpoints
100
AcDbPoint
 10
-1000.0
 20
6350.0
 30
0.0
  0
POINT
  5
323
330
317
100
AcDbEntity
  8
Defpoints
100
AcDbPoint
 10
0.0
 20
6350.0
 30
0.0
  0
POINT
  5
324
330
317
100
AcDbEntity
  8
Defpoints
100
AcDbPoint
 10
0.0
 20
7850.0
 30
0.0
  0
ENDBLK
  5
319
330
317
100
AcDbEntity
  8
0
100
AcDbBlockEnd
  0
BLOCK
  5
327
330
326
100
AcDbEntity
  8
0
100
AcDbBlockBegin
  2
*D30
 70
1
 10
0.0
 20
0.0
 30
0.0
  3
*D30
  1

  0
LINE
  5
329
330
326
100
AcDbEntity
  8
0
100
AcDbLine
 10
-120.0
 20
7850.0
 30
0.0
 11
-1120.0
 21
7850.0
 31
0.0
  0
LINE
  5
32A
330
326
100
AcDbEntity
  8
0
100
AcDbLine
 10
-120.0
 20
9492.0
 30
0.0
 11
-1120.0
 21
9492.0
 31
0.0
  0
INSERT
  5
32B
330
326
100
AcDbEntity
  8
A-DIMS
100
AcDbBlockReference
  2
_OBLIQUE
 10
-1000.0
 20
7850.0
 30
0.0
 41
120.0
 42
120.0
 50
90.0
  0
INSERT
  5
32D
330
326
100
AcDbEntity
  8
A-DIMS
100
AcDbBlockReference
  2
_OBLIQUE
 10
-1000.0
 20
9492.0
 30
0.0
 41
120.0
 42
120.0
 50
90.0
  0
LINE
  5
32F
330
326
100
AcDbEntity
  8
0
100
AcDbLine
 10
-1000.0
 20
7850.0
 30
0.0
 11
-1000.0
 21
9492.0
 31
0.0
  0
MTEXT
  5
330
330
326
100
AcDbEntity
  8
A-DIMS
100
AcDbMText
 10
-1150.0
 20
8671.0
 30
0.0
 40
180.0
 71
5
  1
1642
  7
OpenSansCondensed-Light
 50
90.0
  0
POINT
  5
331
330
326
100
AcDbEntity
  8
Defpoints
100
AcDbPoint
 10
-1000.0
 20
7850.0
 30
0.0
  0
POINT
  5
332
330
326
100
AcDbEntity
  8
Defpoints
100
AcDbPoint
 10
0.0
 20
7850.0
 30
0.0
  0
POINT
  5
333
330
326
100
AcDbEntity
  8
Defpoints
100
AcDbPoint
 10
0.0
 20
9492.0
 30
0.0
  0
ENDBLK
  5
328
330
326
100
AcDbEntity
  8
0
100
AcDbBlockEnd
  0
BLOCK
  5
336
330
335
100
AcDbEntity
  8
0
100
AcDbBlockBegin
  2
*D31
 70
1
 10
0.0
 20
0.0
 30
0.0
  3
*D31
  1

  0
LINE
  5
338
330
335
100
AcDbEntity
  8
0
100
AcDbLine
 10
-119.99999999999999
 20
0.0
 30
0.0
 11
-1570.0
 21
0.0
 31
0.0
  0
LINE
  5
339
330
335
100
AcDbEntity
  8
0
100
AcDbLine
 10
-119.99999999999999
 20
9492.0
 30
0.0
 11
-1570.0
 21
9492.0
 31
0.0
  0
INSERT
  5
33A
330
335
100
AcDbEntity
  8
A-DIMS
100
AcDbBlockReference
  2
_OBLIQUE
 10
-1450.0
 20
0.0
 30
0.0
 41
120.0
 42
120.0
 50
90.0
  0
INSERT
  5
33C
330
335
100
AcDbEntity
  8
A-DIMS
100
AcDbBlockReference
  2
_OBLIQUE
 10
-1450.0
 20
9492.0
 30
0.0
 41
120.0
 42
120.0
 50
90.0
  0
LINE
  5
33E
330
335
100
AcDbEntity
  8
0
100
AcDbLine
 10
-1450.0
 20
0.0
 30
0.0
 11
-1450.0
 21
9492.0
 31
0.0
  0
MTEXT
  5
33F
330
335
100
AcDbEntity
  8
A-DIMS
100
AcDbMText
 10
-1600.0
 20
4746.0
 30
0.0
 40
180.0
 71
5
  1
9492
  7
OpenSansCondensed-Light
 50
90.0
  0
POINT
  5
340
330
335
100
AcDbEntity
  8
Defpoints
100
AcDbPoint
 10
-1450.0
 20
0.0
 30
0.0
  0
POINT
  5
341
330
335
100
AcDbEntity
  8
Defpoints
100
AcDbPoint
 10
0.0
 20
0.0
 30
0.0
  0
POINT
  5
342
330
335
100
AcDbEntity
  8
Defpoints
100
AcDbPoint
 10
0.0
 20
9492.0
 30
0.0
  0
ENDBLK
  5
337
330
335
100
AcDbEntity
  8
0
100
AcDbBlockEnd
  0
BLOCK
  5
345
330
344
100
AcDbEntity
  8
0
100
AcDbBlockBegin
  2
*D32
 70
1
 10
0.0
 20
0.0
 30
0.0
  3
*D32
  1

  0
LINE
  5
347
330
344
100
AcDbEntity
  8
0
100
AcDbLine
 10
7764.0
 20
0.0
 30
0.0
 11
8314.0
 21
0.0
 31
0.0
  0
LINE
  5
348
330
344
100
AcDbEntity
  8
0
100
AcDbLine
 10
7764.0
 20
375.0
 30
0.0
 11
8314.0
 21
375.0
 31
0.0
  0
INSERT
  5
349
330
344
100
AcDbEntity
  8
A-DIMS
100
AcDbBlockReference
  2
_OBLIQUE
 10
8194.0
 20
0.0
 30
0.0
 41
120.0
 42
120.0
 50
90.0
  0
INSERT
  5
34B
330
344
100
AcDbEntity
  8
A-DIMS
100
AcDbBlockReference
  2
_OBLIQUE
 10
8194.0
 20
375.0
 30
0.0
 41
120.0
 42
120.0
 50
90.0
  0
LINE
  5
34D
330
344
100
AcDbEntity
  8
0
100
AcDbLine
 10
8194.0
 20
0.0
 30
0.0
 11
8194.0
 21
375.0
 31
0.0
  0
MTEXT
  5
34E
330
344
100
AcDbEntity
  8
A-DIMS
100
AcDbMText
 10
7924.0
 20
187.5
 30
0.0
 40
180.0
 71
5
  1
375
  7
OpenSansCondensed-Light
 50
90.0
  0
POINT
  5
34F
330
344
100
AcDbEntity
  8
Defpoints
100
AcDbPoint
 10
8194.0
 20
0.0
 30
0.0
  0
POINT
  5
350
330
344
100
AcDbEntity
  8
Defpoints
100
AcDbPoint
 10
7644.0
 20
0.0
 30
0.0
  0
POINT
  5
351
330
344
100
AcDbEntity
  8
Defpoints
100
AcDbPoint
 10
7644.0
 20
375.0
 30
0.0
  0
ENDBLK
  5
346
330
344
100
AcDbEntity
  8
0
100
AcDbBlockEnd
  0
BLOCK
  5
354
330
353
100
AcDbEntity
  8
0
100
AcDbBlockBegin
  2
*D33
 70
1
 10
0.0
 20
0.0
 30
0.0
  3
*D33
  1

  0
LINE
  5
356
330
353
100
AcDbEntity
  8
0
100
AcDbLine
 10
7764.0
 20
375.0
 30
0.0
 11
8314.0
 21
375.0
 31
0.0
  0
LINE
  5
357
330
353
100
AcDbEntity
  8
0
100
AcDbLine
 10
7764.0
 20
3075.0
 30
0.0
 11
8314.0
 21
3075.0
 31
0.0
  0
INSERT
  5
358
330
353
100
AcDbEntity
  8
A-DIMS
100
AcDbBlockReference
  2
_OBLIQUE
 10
8194.0
 20
375.0
 30
0.0
 41
120.0
 42
120.0
 50
90.0
  0
INSERT
  5
35A
330
353
100
AcDbEntity
  8
A-DIMS
100
AcDbBlockReference
  2
_OBLIQUE
 10
8194.0
 20
3075.0
 30
0.0
 41
120.0
 42
120.0
 50
90.0
  0
LINE
  5
35C
330
353
100
AcDbEntity
  8
0
100
AcDbLine
 10
8194.0
 20
375.0
 30
0.0
 11
8194.0
 21
3075.0
 31
0.0
  0
MTEXT
  5
35D
330
353
100
AcDbEntity
  8
A-DIMS
100
AcDbMText
 10
8044.0
 20
1725.0
 30
0.0
 40
180.0
 71
5
  1
2700
  7
OpenSansCondensed-Light
 50
90.0
  0
POINT
  5
35E
330
353
100
AcDbEntity
  8
Defpoints
100
AcDbPoint
 10
8194.0
 20
375.0
 30
0.0
  0
POINT
  5
35F
330
353
100
AcDbEntity
  8
Defpoints
100
AcDbPoint
 10
7644.0
 20
375.0
 30
0.0
  0
POINT
  5
360
330
353
100
AcDbEntity
  8
Defpoints
100
AcDbPoint
 10
7644.0
 20
3075.0
 30
0.0
  0
ENDBLK
  5
355
330
353
100
AcDbEntity
  8
0
100
AcDbBlockEnd
  0
BLOCK
  5
363
330
362
100
AcDbEntity
  8
0
100
AcDbBlockBegin
  2
*D34
 70
1
 10
0.0
 20
0.0
 30
0.0
  3
*D34
  1

  0
LINE
  5
365
330
362
100
AcDbEntity
  8
0
100
AcDbLine
 10
7764.0
 20
3075.0
 30
0.0
 11
8314.0
 21
3075.0
 31
0.0
  0
LINE
  5
366
330
362
100
AcDbEntity
  8
0
100
AcDbLine
 10
7764.0
 20
4150.0
 30
0.0
 11
8314.0
 21
4150.0
 31
0.0
  0
INSERT
  5
367
330
362
100
AcDbEntity
  8
A-DIMS
100
AcDbBlockReference
  2
_OBLIQUE
 10
8194.0
 20
3075.0
 30
0.0
 41
120.0
 42
120.0
 50
90.0
  0
INSERT
  5
369
330
362
100
AcDbEntity
  8
A-DIMS
100
AcDbBlockReference
  2
_OBLIQUE
 10
8194.0
 20
4150.0
 30
0.0
 41
120.0
 42
120.0
 50
90.0
  0
LINE
  5
36B
330
362
100
AcDbEntity
  8
0
100
AcDbLine
 10
8194.0
 20
3075.0
 30
0.0
 11
8194.0
 21
4150.0
 31
0.0
  0
MTEXT
  5
36C
330
362
100
AcDbEntity
  8
A-DIMS
100
AcDbMText
 10
8044.0
 20
3612.5
 30
0.0
 40
180.0
 71
5
  1
1075
  7
OpenSansCondensed-Light
 50
90.0
  0
POINT
  5
36D
330
362
100
AcDbEntity
  8
Defpoints
100
AcDbPoint
 10
8194.0
 20
3075.0
 30
0.0
  0
POINT
  5
36E
330
362
100
AcDbEntity
  8
Defpoints
100
AcDbPoint
 10
7644.0
 20
3075.0
 30
0.0
  0
POINT
  5
36F
330
362
100
AcDbEntity
  8
Defpoints
100
AcDbPoint
 10
7644.0
 20
4150.0
 30
0.0
  0
ENDBLK
  5
364
330
362
100
AcDbEntity
  8
0
100
AcDbBlockEnd
  0
BLOCK
  5
372
330
371
100
AcDbEntity
  8
0
100
AcDbBlockBegin
  2
*D35
 70
1
 10
0.0
 20
0.0
 30
0.0
  3
*D35
  1

  0
LINE
  5
374
330
371
100
AcDbEntity
  8
0
100
AcDbLine
 10
7764.0
 20
4150.0
 30
0.0
 11
8314.0
 21
4150.0
 31
0.0
  0
LINE
  5
375
330
371
100
AcDbEntity
  8
0
100
AcDbLine
 10
7764.0
 20
5650.0
 30
0.0
 11
8314.0
 21
5650.0
 31
0.0
  0
INSERT
  5
376
330
371
100
AcDbEntity
  8
A-DIMS
100
AcDbBlockReference
  2
_OBLIQUE
 10
8194.0
 20
4150.0
 30
0.0
 41
120.0
 42
120.0
 50
90.0
  0
INSERT
  5
378
330
371
100
AcDbEntity
  8
A-DIMS
100
AcDbBlockReference
  2
_OBLIQUE
 10
8194.0
 20
5650.0
 30
0.0
 41
120.0
 42
120.0
 50
90.0
  0
LINE
  5
37A
330
371
100
AcDbEntity
  8
0
100
AcDbLine
 10
8194.0
 20
4150.0
 30
0.0
 11
8194.0
 21
5650.0
 31
0.0
  0
MTEXT
  5
37B
330
371
100
AcDbEntity
  8
A-DIMS
100
AcDbMText
 10
8044.0
 20
4900.0
 30
0.0
 40
180.0
 71
5
  1
1500
  7
OpenSansCondensed-Light
 50
90.0
  0
POINT
  5
37C
330
371
100
AcDbEntity
  8
Defpoints
100
AcDbPoint
 10
8194.0
 20
4150.0
 30
0.0
  0
POINT
  5
37D
330
371
100
AcDbEntity
  8
Defpoints
100
AcDbPoint
 10
7644.0
 20
4150.0
 30
0.0
  0
POINT
  5
37E
330
371
100
AcDbEntity
  8
Defpoints
100
AcDbPoint
 10
7644.0
 20
5650.0
 30
0.0
  0
ENDBLK
  5
373
330
371
100
AcDbEntity
  8
0
100
AcDbBlockEnd
  0
BLOCK
  5
381
330
380
100
AcDbEntity
  8
0
100
AcDbBlockBegin
  2
*D36
 70
1
 10
0.0
 20
0.0
 30
0.0
  3
*D36
  1

  0
LINE
  5
383
330
380
100
AcDbEntity
  8
0
100
AcDbLine
 10
7764.0
 20
5650.0
 30
0.0
 11
8314.0
 21
5650.0
 31
0.0
  0
LINE
  5
384
330
380
100
AcDbEntity
  8
0
100
AcDbLine
 10
7764.0
 20
7021.0
 30
0.0
 11
8314.0
 21
7021.0
 31
0.0
  0
INSERT
  5
385
330
380
100
AcDbEntity
  8
A-DIMS
100
AcDbBlockReference
  2
_OBLIQUE
 10
8194.0
 20
5650.0
 30
0.0
 41
120.0
 42
120.0
 50
90.0
  0
INSERT
  5
387
330
380
100
AcDbEntity
  8
A-DIMS
100
AcDbBlockReference
  2
_OBLIQUE
 10
8194.0
 20
7021.0
 30
0.0
 41
120.0
 42
120.0
 50
90.0
  0
LINE
  5
389
330
380
100
AcDbEntity
  8
0
100
AcDbLine
 10
8194.0
 20
5650.0
 30
0.0
 11
8194.0
 21
7021.0
 31
0.0
  0
MTEXT
  5
38A
330
380
100
AcDbEntity
  8
A-DIMS
100
AcDbMText
 10
8044.0
 20
6335.5
 30
0.0
 40
180.0
 71
5
  1
1371
  7
OpenSansCondensed-Light
 50
90.0
  0
POINT
  5
38B
330
380
100
AcDbEntity
  8
Defpoints
100
AcDbPoint
 10
8194.0
 20
5650.0
 30
0.0
  0
POINT
  5
38C
330
380
100
AcDbEntity
  8
Defpoints
100
AcDbPoint
 10
7644.0
 20
5650.0
 30
0.0
  0
POINT
  5
38D
330
380
100
AcDbEntity
  8
Defpoints
100
AcDbPoint
 10
7644.0
 20
7021.0
 30
0.0
  0
ENDBLK
  5
382
330
380
100
AcDbEntity
  8
0
100
AcDbBlockEnd
  0
BLOCK
  5
390
330
38F
100
AcDbEntity
  8
0
100
AcDbBlockBegin
  2
*D37
 70
1
 10
0.0
 20
0.0
 30
0.0
  3
*D37
  1

  0
LINE
  5
392
330
38F
100
AcDbEntity
  8
0
100
AcDbLine
 10
7764.0
 20
7021.0
 30
0.0
 11
8314.0
 21
7021.0
 31
0.0
  0
LINE
  5
393
330
38F
100
AcDbEntity
  8
0
100
AcDbLine
 10
7764.0
 20
8821.0
 30
0.0
 11
8314.0
 21
8821.0
 31
0.0
  0
INSERT
  5
394
330
38F
100
AcDbEntity
  8
A-DIMS
100
AcDbBlockReference
  2
_OBLIQUE
 10
8194.0
 20
7021.0
 30
0.0
 41
120.0
 42
120.0
 50
90.0
  0
INSERT
  5
396
330
38F
100
AcDbEntity
  8
A-DIMS
100
AcDbBlockReference
  2
_OBLIQUE
 10
8194.0
 20
8821.0
 30
0.0
 41
120.0
 42
120.0
 50
90.0
  0
LINE
  5
398
330
38F
100
AcDbEntity
  8
0
100
AcDbLine
 10
8194.0
 20
7021.0
 30
0.0
 11
8194.0
 21
8821.0
 31
0.0
  0
MTEXT
  5
399
330
38F
100
AcDbEntity
  8
A-DIMS
100
AcDbMText
 10
8044.0
 20
7921.0
 30
0.0
 40
180.0
 71
5
  1
1800
  7
OpenSansCondensed-Light
 50
90.0
  0
POINT
  5
39A
330
38F
100
AcDbEntity
  8
Defpoints
100
AcDbPoint
 10
8194.0
 20
7021.0
 30
0.0
  0
POINT
  5
39B
330
38F
100
AcDbEntity
  8
Defpoints
100
AcDbPoint
 10
7644.0
 20
7021.0
 30
0.0
  0
POINT
  5
39C
330
38F
100
AcDbEntity
  8
Defpoints
100
AcDbPoint
 10
7644.0
 20
8821.0
 30
0.0
  0
ENDBLK
  5
391
330
38F
100
AcDbEntity
  8
0
100
AcDbBlockEnd
  0
BLOCK
  5
39F
330
39E
100
AcDbEntity
  8
0
100
AcDbBlockBegin
  2
*D38
 70
1
 10
0.0
 20
0.0
 30
0.0
  3
*D38
  1

  0
LINE
  5
3A1
330
39E
100
AcDbEntity
  8
0
100
AcDbLine
 10
7764.0
 20
8821.0
 30
0.0
 11
8314.0
 21
8821.0
 31
0.0
  0
LINE
  5
3A2
330
39E
100
AcDbEntity
  8
0
100
AcDbLine
 10
7764.0
 20
9492.0
 30
0.0
 11
8314.0
 21
9492.0
 31
0.0
  0
INSERT
  5
3A3
330
39E
100
AcDbEntity
  8
A-DIMS
100
AcDbBlockReference
  2
_OBLIQUE
 10
8194.0
 20
8821.0
 30
0.0
 41
120.0
 42
120.0
 50
90.0
  0
INSERT
  5
3A5
330
39E
100
AcDbEntity
  8
A-DIMS
100
AcDbBlockReference
  2
_OBLIQUE
 10
8194.0
 20
9492.0
 30
0.0
 41
120.0
 42
120.0
 50
90.0
  0
LINE
  5
3A7
330
39E
100
AcDbEntity
  8
0
100
AcDbLine
 10
8194.0
 20
8821.0
 30
0.0
 11
8194.0
 21
9492.0
 31
0.0
  0
MTEXT
  5
3A8
330
39E
100
AcDbEntity
  8
A-DIMS
100
AcDbMText
 10
8044.0
 20
9156.5
 30
0.0
 40
180.0
 71
5
  1
671
  7
OpenSansCondensed-Light
 50
90.0
  0
POINT
  5
3A9
330
39E
100
AcDbEntity
  8
Defpoints
100
AcDbPoint
 10
8194.0
 20
8821.0
 30
0.0
  0
POINT
  5
3AA
330
39E
100
AcDbEntity
  8
Defpoints
100
AcDbPoint
 10
7644.0
 20
8821.0
 30
0.0
  0
POINT
  5
3AB
330
39E
100
AcDbEntity
  8
Defpoints
100
AcDbPoint
 10
7644.0
 20
9492.0
 30
0.0
  0
ENDBLK
  5
3A0
330
39E
100
AcDbEntity
  8
0
100
AcDbBlockEnd
  0
BLOCK
  5
3AE
330
3AD
100
AcDbEntity
  8
0
100
AcDbBlockBegin
  2
*D39
 70
1
 10
0.0
 20
0.0
 30
0.0
  3
*D39
  1

  0
LINE
  5
3B0
330
3AD
100
AcDbEntity
  8
0
100
AcDbLine
 10
7764.0
 20
0.0
 30
0.0
 11
8764.0
 21
0.0
 31
0.0
  0
LINE
  5
3B1
330
3AD
100
AcDbEntity
  8
0
100
AcDbLine
 10
7764.0
 20
3450.0
 30
0.0
 11
8764.0
 21
3450.0
 31
0.0
  0
INSERT
  5
3B2
330
3AD
100
AcDbEntity
  8
A-DIMS
100
AcDbBlockReference
  2
_OBLIQUE
 10
8644.0
 20
0.0
 30
0.0
 41
120.0
 42
120.0
 50
90.0
  0
INSERT
  5
3B4
330
3AD
100
AcDbEntity
  8
A-DIMS
100
AcDbBlockReference
  2
_OBLIQUE
 10
8644.0
 20
3450.0
 30
0.0
 41
120.0
 42
120.0
 50
90.0
  0
LINE
  5
3B6
330
3AD
100
AcDbEntity
  8
0
100
AcDbLine
 10
8644.0
 20
0.0
 30
0.0
 11
8644.0
 21
3450.0
 31
0.0
  0
MTEXT
  5
3B7
330
3AD
100
AcDbEntity
  8
A-DIMS
100
AcDbMText
 10
8494.0
 20
1725.0
 30
0.0
 40
180.0
 71
5
  1
3450
  7
OpenSansCondensed-Light
 50
90.0
  0
POINT
  5
3B8
330
3AD
100
AcDbEntity
  8
Defpoints
100
AcDbPoint
 10
8644.0
 20
0.0
 30
0.0
  0
POINT
  5
3B9
330
3AD
100
AcDbEntity
  8
Defpoints
100
AcDbPoint
 10
7644.0
 20
0.0
 30
0.0
  0
POINT
  5
3BA
330
3AD
100
AcDbEntity
  8
Defpoints
100
AcDbPoint
 10
7644.0
 20
3450.0
 30
0.0
  0
ENDBLK
  5
3AF
330
3AD
100
AcDbEntity
  8
0
100
AcDbBlockEnd
  0
BLOCK
  5
3BD
330
3BC
100
AcDbEntity
  8
0
100
AcDbBlockBegin
  2
*D40
 70
1
 10
0.0
 20
0.0
 30
0.0
  3
*D40
  1

  0
LINE
  5
3BF
330
3BC
100
AcDbEntity
  8
0
100
AcDbLine
 10
7764.0
 20
3450.0
 30
0.0
 11
8764.0
 21
3450.0
 31
0.0
  0
LINE
  5
3C0
330
3BC
100
AcDbEntity
  8
0
100
AcDbLine
 10
7764.0
 20
6350.0
 30
0.0
 11
8764.0
 21
6350.0
 31
0.0
  0
INSERT
  5
3C1
330
3BC
100
AcDbEntity
  8
A-DIMS
100
AcDbBlockReference
  2
_OBLIQUE
 10
8644.0
 20
3450.0
 30
0.0
 41
120.0
 42
120.0
 50
90.0
  0
INSERT
  5
3C3
330
3BC
100
AcDbEntity
  8
A-DIMS
100
AcDbBlockReference
  2
_OBLIQUE
 10
8644.0
 20
6350.0
 30
0.0
 41
120.0
 42
120.0
 50
90.0
  0
LINE
  5
3C5
330
3BC
100
AcDbEntity
  8
0
100
AcDbLine
 10
8644.0
 20
3450.0
 30
0.0
 11
8644.0
 21
6350.0
 31
0.0
  0
MTEXT
  5
3C6
330
3BC
100
AcDbEntity
  8
A-DIMS
100
AcDbMText
 10
8494.0
 20
4900.0
 30
0.0
 40
180.0
 71
5
  1
2900
  7
OpenSansCondensed-Light
 50
90.0
  0
POINT
  5
3C7
330
3BC
100
AcDbEntity
  8
Defpoints
100
AcDbPoint
 10
8644.0
 20
3450.0
 30
0.0
  0
POINT
  5
3C8
330
3BC
100
AcDbEntity
  8
Defpoints
100
AcDbPoint
 10
7644.0
 20
3450.0
 30
0.0
  0
POINT
  5
3C9
330
3BC
100
AcDbEntity
  8
Defpoints
100
AcDbPoint
 10
7644.0
 20
6350.0
 30
0.0
  0
ENDBLK
  5
3BE
330
3BC
100
AcDbEntity
  8
0
100
AcDbBlockEnd
  0
BLOCK
  5
3CC
330
3CB
100
AcDbEntity
  8
0
100
AcDbBlockBegin
  2
*D41
 70
1
 10
0.0
 20
0.0
 30
0.0
  3
*D41
  1

  0
LINE
  5
3CE
330
3CB
100
AcDbEntity
  8
0
100
AcDbLine
 10
7764.0
 20
6350.0
 30
0.0
 11
8764.0
 21
6350.0
 31
0.0
  0
LINE
  5
3CF
330
3CB
100
AcDbEntity
  8
0
100
AcDbLine
 10
7764.0
 20
9492.0
 30
0.0
 11
8764.0
 21
9492.0
 31
0.0
  0
INSERT
  5
3D0
330
3CB
100
AcDbEntity
  8
A-DIMS
100
AcDbBlockReference
  2
_OBLIQUE
 10
8644.0
 20
6350.0
 30
0.0
 41
120.0
 42
120.0
 50
90.0
  0
INSERT
  5
3D2
330
3CB
100
AcDbEntity
  8
A-DIMS
100
AcDbBlockReference
  2
_OBLIQUE
 10
8644.0
 20
9492.0
 30
0.0
 41
120.0
 42
120.0
 50
90.0
  0
LINE
  5
3D4
330
3CB
100
AcDbEntity
  8
0
100
AcDbLine
 10
8644.0
 20
6350.0
 30
0.0
 11
8644.0
 21
9492.0
 31
0.0
  0
MTEXT
  5
3D5
330
3CB
100
AcDbEntity
  8
A-DIMS
100
AcDbMText
 10
8494.0
 20
7921.0
 30
0.0
 40
180.0
 71
5
  1
3142
  7
OpenSansCondensed-Light
 50
90.0
  0
POINT
  5
3D6
330
3CB
100
AcDbEntity
  8
Defpoints
100
AcDbPoint
 10
8644.0
 20
6350.0
 30
0.0
  0
POINT
  5
3D7
330
3CB
100
AcDbEntity
  8
Defpoints
100
AcDbPoint
 10
7644.0
 20
6350.0
 30
0.0
  0
POINT
  5
3D8
330
3CB
100
AcDbEntity
  8
Defpoints
100
AcDbPoint
 10
7644.0
 20
9492.0
 30
0.0
  0
ENDBLK
  5
3CD
330
3CB
100
AcDbEntity
  8
0
100
AcDbBlockEnd
  0
BLOCK
  5
3DB
330
3DA
100
AcDbEntity
  8
0
100
AcDbBlockBegin
  2
*D42
 70
1
 10
0.0
 20
0.0
 30
0.0
  3
*D42
  1

  0
LINE
  5
3DD
330
3DA
100
AcDbEntity
  8
0
100
AcDbLine
 10
7764.0
 20
0.0
 30
0.0
 11
9214.0
 21
0.0
 31
0.0
  0
LINE
  5
3DE
330
3DA
100
AcDbEntity
  8
0
100
AcDbLine
 10
7764.0
 20
9492.0
 30
0.0
 11
9214.0
 21
9492.0
 31
0.0
  0
INSERT
  5
3DF
330
3DA
100
AcDbEntity
  8
A-DIMS
100
AcDbBlockReference
  2
_OBLIQUE
 10
9094.0
 20
0.0
 30
0.0
 41
120.0
 42
120.0
 50
90.0
  0
INSERT
  5
3E1
330
3DA
100
AcDbEntity
  8
A-DIMS
100
AcDbBlockReference
  2
_OBLIQUE
 10
9094.0
 20
9492.0
 30
0.0
 41
120.0
 42
120.0
 50
90.0
  0
LINE
  5
3E3
330
3DA
100
AcDbEntity
  8
0
100
AcDbLine
 10
9094.0
 20
0.0
 30
0.0
 11
9094.0
 21
9492.0
 31
0.0
  0
MTEXT
  5
3E4
330
3DA
100
AcDbEntity
  8
A-DIMS
100
AcDbMText
 10
8944.0
 20
4746.0
 30
0.0
 40
180.0
 71
5
  1
9492
  7
OpenSansCondensed-Light
 50
90.0
  0
POINT
  5
3E5
330
3DA
100
AcDbEntity
  8
Defpoints
100
AcDbPoint
 10
9094.0
 20
0.0
 30
0.0
  0
POINT
  5
3E6
330
3DA
100
AcDbEntity
  8
Defpoints
100
AcDbPoint
 10
7644.0
 20
0.0
 30
0.0
  0
POINT
  5
3E7
330
3DA
100
AcDbEntity
  8
Defpoints
100
AcDbPoint
 10
7644.0
 20
9492.0
 30
0.0
  0
ENDBLK
  5
3DC
330
3DA
100
AcDbEntity
  8
0
100
AcDbBlockEnd
  0
BLOCK
  5
41B
330
41A
100
AcDbEntity
  8
0
100
AcDbBlockBegin
  2
*Paper_Space0
 70
0
 10
0.0
 20
0.0
 30
0.0
  3
*Paper_Space0
  1

  0
VIEWPORT
  5
41E
330
41A
100
AcDbEntity
 67
1
  8
VIEWPORTS
100
AcDbViewport
 10
200.0
 20
138.5
 30
0.0
 40
462.00000000000006
 41
326.70000000000005
 68
1
 69
1
 12
200.0
 22
138.5
 13
0.0
 23
0.0
 14
10.0
 24
10.0
 15
10.0
 25
10.0
 16
0.0
 26
0.0
 36
1.0
 17
0.0
 27
0.0
 37
0.0
 42
50.0
 43
0.0
 44
0.0
 45
326.70000000000005
 50
0.0
 51
0.0
 72
100
 90
557088
  1

281
0
 71
0
 74
0
110
0.0
120
0.0
130
0.0
111
1.0
121
0.0
131
0.0
112
0.0
122
1.0
132
0.0
 79
0
146
0.0
282
0
  0
VIEWPORT
  5
41F
330
41A
100
AcDbEntity
 67
1
  8
VIEWPORTS
100
AcDbViewport
 10
140.0
 20
145.0
 30
0.0
 40
240.0
 41
230.0
 68
2
 69
3
 12
3822.0
 22
4746.0
 13
0.0
 23
0.0
 14
10.0
 24
10.0
 15
10.0
 25
10.0
 16
0.0
 26
0.0
 36
1.0
 17
0.0
 27
0.0
 37
0.0
 42
50.0
 43
0.0
 44
0.0
 45
18492.0
 50
0.0
 51
0.0
 72
100
 90
0
  1

281
0
 71
0
 74
0
110
0.0
120
0.0
130
0.0
111
1.0
121
0.0
131
0.0
112
0.0
122
1.0
132
0.0
 79
0
146
0.0
282
0
  0
TEXT
  5
420
330
41A
100
AcDbEntity
 67
1
  8
0
100
AcDbText
 10
268.0
 20
255.0
 30
0.0
 40
4.0
  1
FLOORFORGE / PRELIMINARY
 11
268.0
 21
255.0
 31
0.0
100
AcDbText
  0
ENDBLK
  5
41C
330
41A
100
AcDbEntity
  8
0
100
AcDbBlockEnd
  0
ENDSEC
  0
SECTION
  2
ENTITIES
  0
LWPOLYLINE
  5
9D
330
17
100
AcDbEntity
  8
A-FLOR
100
AcDbPolyline
 90
13
 70
1
 10
3825.0
 20
3450.0
 10
3825.0
 20
3375.0
 10
3900.0
 20
3375.0
 10
3975.0
 20
3375.0
 10
7414.0
 20
3375.0
 10
7414.0
 20
3220.0
 10
7414.0
 20
230.0
 10
230.0
 20
230.0
 10
230.0
 20
3220.0
 10
230.0
 20
3375.0
 10
2475.0
 20
3375.0
 10
2625.0
 20
3375.0
 10
2625.0
 20
3450.0
1001
FLOORFORGE
1000
floor:0
1000
preliminary
  0
LWPOLYLINE
  5
9E
330
17
100
AcDbEntity
  8
A-FLOR
100
AcDbPolyline
 90
17
 70
1
 10
2625.0
 20
3450.0
 10
2625.0
 20
3525.0
 10
2625.0
 20
6275.0
 10
2625.0
 20
6350.0
 10
2625.0
 20
6425.0
 10
2625.0
 20
7775.0
 10
2625.0
 20
7850.0
 10
2625.0
 20
7925.0
 10
2625.0
 20
9262.0
 10
2780.0
 20
9262.0
 10
3670.0
 20
9262.0
 10
3825.0
 20
9262.0
 10
3825.0
 20
6425.0
 10
3825.0
 20
6350.0
 10
3825.0
 20
6275.0
 10
3825.0
 20
3525.0
 10
3825.0
 20
3450.0
1001
FLOORFORGE
1000
floor:0
1000
preliminary
  0
LWPOLYLINE
  5
9F
330
17
100
AcDbEntity
  8
A-FLOR
100
AcDbPolyline
 90
6
 70
1
 10
2475.0
 20
6275.0
 10
2475.0
 20
3525.0
 10
230.0
 20
3525.0
 10
230.0
 20
3680.0
 10
230.0
 20
6120.0
 10
230.0
 20
6275.0
1001
FLOORFORGE
1000
floor:0
1000
preliminary
  0
LWPOLYLINE
  5
A0
330
17
100
AcDbEntity
  8
A-FLOR
100
AcDbPolyline
 90
6
 70
1
 10
230.0
 20
6425.0
 10
230.0
 20
6580.0
 10
230.0
 20
7620.0
 10
230.0
 20
7775.0
 10
2475.0
 20
7775.0
 10
2475.0
 20
6425.0
1001
FLOORFORGE
1000
floor:0
1000
preliminary
  0
LWPOLYLINE
  5
A1
330
17
100
AcDbEntity
  8
A-FLOR
100
AcDbPolyline
 90
6
 70
1
 10
230.0
 20
9262.0
 10
2320.0
 20
9262.0
 10
2475.0
 20
9262.0
 10
2475.0
 20
7925.0
 10
230.0
 20
7925.0
 10
230.0
 20
8080.0
1001
FLOORFORGE
1000
floor:0
1000
preliminary
  0
LWPOLYLINE
  5
A2
330
17
100
AcDbEntity
  8
A-FLOR
100
AcDbPolyline
 90
6
 70
1
 10
3975.0
 20
3525.0
 10
3975.0
 20
6275.0
 10
7414.0
 20
6275.0
 10
7414.0
 20
6120.0
 10
7414.0
 20
3680.0
 10
7414.0
 20
3525.0
1001
FLOORFORGE
1000
floor:0
1000
preliminary
  0
LWPOLYLINE
  5
A3
330
17
100
AcDbEntity
  8
A-FLOR
100
AcDbPolyline
 90
6
 70
1
 10
7414.0
 20
6580.0
 10
7414.0
 20
6425.0
 10
3975.0
 20
6425.0
 10
3975.0
 20
9262.0
 10
4130.0
 20
9262.0
 10
7414.0
 20
9262.0
1001
FLOORFORGE
1000
floor:0
1000
preliminary
  0
LWPOLYLINE
  5
A4
330
17
100
AcDbEntity
  8
A-WALL
100
AcDbPolyline
 90
5
 70
1
 10
230.0
 20
3075.0
 10
0.0
 20
3075.0
 10
0.0
 20
3680.0
 10
230.0
 20
3680.0
 10
230.0
 20
3075.0
1001
FLOORFORGE
1000
floor:0
1000
preliminary
  0
HATCH
  5
A5
330
17
100
AcDbEntity
  8
A-WALL
 62
7
100
AcDbHatch
 10
0.0
 20
0.0
 30
0.0
210
0.0
220
0.0
230
1.0
  2
SOLID
 70
1
 71
0
 91
1
 92
3
 72
0
 73
1
 93
5
 10
230.0
 20
3075.0
 10
0.0
 20
3075.0
 10
0.0
 20
3680.0
 10
230.0
 20
3680.0
 10
230.0
 20
3075.0
 97
0
 75
0
 76
1
 98
0
  0
LWPOLYLINE
  5
A6
330
17
100
AcDbEntity
  8
A-WALL
100
AcDbPolyline
 90
5
 70
1
 10
230.0
 20
0.0
 10
0.0
 20
0.0
 10
0.0
 20
375.0
 10
230.0
 20
375.0
 10
230.0
 20
0.0
1001
FLOORFORGE
1000
floor:0
1000
preliminary
  0
HATCH
  5
A7
330
17
100
AcDbEntity
  8
A-WALL
 62
7
100
AcDbHatch
 10
0.0
 20
0.0
 30
0.0
210
0.0
220
0.0
230
1.0
  2
SOLID
 70
1
 71
0
 91
1
 92
3
 72
0
 73
1
 93
5
 10
230.0
 20
0.0
 10
0.0
 20
0.0
 10
0.0
 20
375.0
 10
230.0
 20
375.0
 10
230.0
 20
0.0
 97
0
 75
0
 76
1
 98
0
  0
LWPOLYLINE
  5
A8
330
17
100
AcDbEntity
  8
A-WALL
100
AcDbPolyline
 90
5
 70
1
 10
7322.0
 20
0.0
 10
7322.0
 20
230.0
 10
7644.0
 20
230.0
 10
7644.0
 20
0.0
 10
7322.0
 20
0.0
1001
FLOORFORGE
1000
floor:0
1000
preliminary
  0
HATCH
  5
A9
330
17
100
AcDbEntity
  8
A-WALL
 62
7
100
AcDbHatch
 10
0.0
 20
0.0
 30
0.0
210
0.0
220
0.0
230
1.0
  2
SOLID
 70
1
 71
0
 91
1
 92
3
 72
0
 73
1
 93
5
 10
7322.0
 20
0.0
 10
7322.0
 20
230.0
 10
7644.0
 20
230.0
 10
7644.0
 20
0.0
 10
7322.0
 20
0.0
 97
0
 75
0
 76
1
 98
0
  0
LWPOLYLINE
  5
AA
330
17
100
AcDbEntity
  8
A-WALL
100
AcDbPolyline
 90
5
 70
1
 10
1900.0
 20
0.0
 10
1900.0
 20
230.0
 10
2222.0
 20
230.0
 10
2222.0
 20
0.0
 10
1900.0
 20
0.0
1001
FLOORFORGE
1000
floor:0
1000
preliminary
  0
HATCH
  5
AB
330
17
100
AcDbEntity
  8
A-WALL
 62
7
100
AcDbHatch
 10
0.0
 20
0.0
 30
0.0
210
0.0
220
0.0
230
1.0
  2
SOLID
 70
1
 71
0
 91
1
 92
3
 72
0
 73
1
 93
5
 10
1900.0
 20
0.0
 10
1900.0
 20
230.0
 10
2222.0
 20
230.0
 10
2222.0
 20
0.0
 10
1900.0
 20
0.0
 97
0
 75
0
 76
1
 98
0
  0
LWPOLYLINE
  5
AC
330
17
100
AcDbEntity
  8
A-WALL
100
AcDbPolyline
 90
5
 70
1
 10
0.0
 20
230.0
 10
700.0
 20
230.0
 10
700.0
 20
0.0
 10
0.0
 20
0.0
 10
0.0
 20
230.0
1001
FLOORFORGE
1000
floor:0
1000
preliminary
  0
HATCH
  5
AD
330
17
100
AcDbEntity
  8
A-WALL
 62
7
100
AcDbHatch
 10
0.0
 20
0.0
 30
0.0
210
0.0
220
0.0
230
1.0
  2
SOLID
 70
1
 71
0
 91
1
 92
3
 72
0
 73
1
 93
5
 10
0.0
 20
230.0
 10
700.0
 20
230.0
 10
700.0
 20
0.0
 10
0.0
 20
0.0
 10
0.0
 20
230.0
 97
0
 75
0
 76
1
 98
0
  0
LWPOLYLINE
  5
AE
330
17
100
AcDbEntity
  8
A-WALL
100
AcDbPolyline
 90
5
 70
1
 10
230.0
 20
5650.0
 10
0.0
 20
5650.0
 10
0.0
 20
6580.0
 10
230.0
 20
6580.0
 10
230.0
 20
5650.0
1001
FLOORFORGE
1000
floor:0
1000
preliminary
  0
HATCH
  5
AF
330
17
100
AcDbEntity
  8
A-WALL
 62
7
100
AcDbHatch
 10
0.0
 20
0.0
 30
0.0
210
0.0
220
0.0
230
1.0
  2
SOLID
 70
1
 71
0
 91
1
 92
3
 72
0
 73
1
 93
5
 10
230.0
 20
5650.0
 10
0.0
 20
5650.0
 10
0.0
 20
6580.0
 10
230.0
 20
6580.0
 10
230.0
 20
5650.0
 97
0
 75
0
 76
1
 98
0
  0
LWPOLYLINE
  5
B0
330
17
100
AcDbEntity
  8
A-WALL
100
AcDbPolyline
 90
6
 70
1
 10
230.0
 20
3450.0
 10
230.0
 20
3220.0
 10
0.0
 20
3220.0
 10
0.0
 20
4150.0
 10
230.0
 20
4150.0
 10
230.0
 20
3450.0
1001
FLOORFORGE
1000
floor:0
1000
preliminary
  0
HATCH
  5
B1
330
17
100
AcDbEntity
  8
A-WALL
 62
7
100
AcDbHatch
 10
0.0
 20
0.0
 30
0.0
210
0.0
220
0.0
230
1.0
  2
SOLID
 70
1
 71
0
 91
1
 92
3
 72
0
 73
1
 93
6
 10
230.0
 20
3450.0
 10
230.0
 20
3220.0
 10
0.0
 20
3220.0
 10
0.0
 20
4150.0
 10
230.0
 20
4150.0
 10
230.0
 20
3450.0
 97
0
 75
0
 76
1
 98
0
  0
LWPOLYLINE
  5
B2
330
17
100
AcDbEntity
  8
A-WALL
100
AcDbPolyline
 90
6
 70
1
 10
2625.0
 20
3375.0
 10
2025.0
 20
3375.0
 10
2025.0
 20
3525.0
 10
2550.0
 20
3525.0
 10
2625.0
 20
3525.0
 10
2625.0
 20
3375.0
1001
FLOORFORGE
1000
floor:0
1000
preliminary
  0
HATCH
  5
B3
330
17
100
AcDbEntity
  8
A-WALL
 62
7
100
AcDbHatch
 10
0.0
 20
0.0
 30
0.0
210
0.0
220
0.0
230
1.0
  2
SOLID
 70
1
 71
0
 91
1
 92
3
 72
0
 73
1
 93
6
 10
2625.0
 20
3375.0
 10
2025.0
 20
3375.0
 10
2025.0
 20
3525.0
 10
2550.0
 20
3525.0
 10
2625.0
 20
3525.0
 10
2625.0
 20
3375.0
 97
0
 75
0
 76
1
 98
0
  0
LWPOLYLINE
  5
B4
330
17
100
AcDbEntity
  8
A-WALL
100
AcDbPolyline
 90
5
 70
1
 10
0.0
 20
3375.0
 10
0.0
 20
3525.0
 10
525.0
 20
3525.0
 10
525.0
 20
3375.0
 10
0.0
 20
3375.0
1001
FLOORFORGE
1000
floor:0
1000
preliminary
  0
HATCH
  5
B5
330
17
100
AcDbEntity
  8
A-WALL
 62
7
100
AcDbHatch
 10
0.0
 20
0.0
 30
0.0
210
0.0
220
0.0
230
1.0
  2
SOLID
 70
1
 71
0
 91
1
 92
3
 72
0
 73
1
 93
5
 10
0.0
 20
3375.0
 10
0.0
 20
3525.0
 10
525.0
 20
3525.0
 10
525.0
 20
3375.0
 10
0.0
 20
3375.0
 97
0
 75
0
 76
1
 98
0
  0
LWPOLYLINE
  5
B6
330
17
100
AcDbEntity
  8
A-WALL
100
AcDbPolyline
 90
5
 70
1
 10
230.0
 20
7550.0
 10
0.0
 20
7550.0
 10
0.0
 20
8080.0
 10
230.0
 20
8080.0
 10
230.0
 20
7550.0
1001
FLOORFORGE
1000
floor:0
1000
preliminary
  0
HATCH
  5
B7
330
17
100
AcDbEntity
  8
A-WALL
 62
7
100
AcDbHatch
 10
0.0
 20
0.0
 30
0.0
210
0.0
220
0.0
230
1.0
  2
SOLID
 70
1
 71
0
 91
1
 92
3
 72
0
 73
1
 93
5
 10
230.0
 20
7550.0
 10
0.0
 20
7550.0
 10
0.0
 20
8080.0
 10
230.0
 20
8080.0
 10
230.0
 20
7550.0
 97
0
 75
0
 76
1
 98
0
  0
LWPOLYLINE
  5
B8
330
17
100
AcDbEntity
  8
A-WALL
100
AcDbPolyline
 90
6
 70
1
 10
230.0
 20
6350.0
 10
230.0
 20
6120.0
 10
0.0
 20
6120.0
 10
0.0
 20
6650.0
 10
230.0
 20
6650.0
 10
230.0
 20
6350.0
1001
FLOORFORGE
1000
floor:0
1000
preliminary
  0
HATCH
  5
B9
330
17
100
AcDbEntity
  8
A-WALL
 62
7
100
AcDbHatch
 10
0.0
 20
0.0
 30
0.0
210
0.0
220
0.0
230
1.0
  2
SOLID
 70
1
 71
0
 91
1
 92
3
 72
0
 73
1
 93
6
 10
230.0
 20
6350.0
 10
230.0
 20
6120.0
 10
0.0
 20
6120.0
 10
0.0
 20
6650.0
 10
230.0
 20
6650.0
 10
230.0
 20
6350.0
 97
0
 75
0
 76
1
 98
0
  0
LWPOLYLINE
  5
BA
330
17
100
AcDbEntity
  8
A-WALL
100
AcDbPolyline
 90
6
 70
1
 10
2625.0
 20
6275.0
 10
2400.0
 20
6275.0
 10
2400.0
 20
6425.0
 10
2550.0
 20
6425.0
 10
2625.0
 20
6425.0
 10
2625.0
 20
6275.0
1001
FLOORFORGE
1000
floor:0
1000
preliminary
  0
HATCH
  5
BB
330
17
100
AcDbEntity
  8
A-WALL
 62
7
100
AcDbHatch
 10
0.0
 20
0.0
 30
0.0
210
0.0
220
0.0
230
1.0
  2
SOLID
 70
1
 71
0
 91
1
 92
3
 72
0
 73
1
 93
6
 10
2625.0
 20
6275.0
 10
2400.0
 20
6275.0
 10
2400.0
 20
6425.0
 10
2550.0
 20
6425.0
 10
2625.0
 20
6425.0
 10
2625.0
 20
6275.0
 97
0
 75
0
 76
1
 98
0
  0
LWPOLYLINE
  5
BC
330
17
100
AcDbEntity
  8
A-WALL
100
AcDbPolyline
 90
5
 70
1
 10
0.0
 20
6275.0
 10
0.0
 20
6425.0
 10
1650.0
 20
6425.0
 10
1650.0
 20
6275.0
 10
0.0
 20
6275.0
1001
FLOORFORGE
1000
floor:0
1000
preliminary
  0
HATCH
  5
BD
330
17
100
AcDbEntity
  8
A-WALL
 62
7
100
AcDbHatch
 10
0.0
 20
0.0
 30
0.0
210
0.0
220
0.0
230
1.0
  2
SOLID
 70
1
 71
0
 91
1
 92
3
 72
0
 73
1
 93
5
 10
0.0
 20
6275.0
 10
0.0
 20
6425.0
 10
1650.0
 20
6425.0
 10
1650.0
 20
6275.0
 10
0.0
 20
6275.0
 97
0
 75
0
 76
1
 98
0
  0
LWPOLYLINE
  5
BE
330
17
100
AcDbEntity
  8
A-WALL
100
AcDbPolyline
 90
6
 70
1
 10
230.0
 20
7850.0
 10
230.0
 20
7620.0
 10
0.0
 20
7620.0
 10
0.0
 20
9492.0
 10
230.0
 20
9492.0
 10
230.0
 20
7850.0
1001
FLOORFORGE
1000
floor:0
1000
preliminary
  0
HATCH
  5
BF
330
17
100
AcDbEntity
  8
A-WALL
 62
7
100
AcDbHatch
 10
0.0
 20
0.0
 30
0.0
210
0.0
220
0.0
230
1.0
  2
SOLID
 70
1
 71
0
 91
1
 92
3
 72
0
 73
1
 93
6
 10
230.0
 20
7850.0
 10
230.0
 20
7620.0
 10
0.0
 20
7620.0
 10
0.0
 20
9492.0
 10
230.0
 20
9492.0
 10
230.0
 20
7850.0
 97
0
 75
0
 76
1
 98
0
  0
LWPOLYLINE
  5
C0
330
17
100
AcDbEntity
  8
A-WALL
100
AcDbPolyline
 90
6
 70
1
 10
2625.0
 20
7925.0
 10
2625.0
 20
7775.0
 10
0.0
 20
7775.0
 10
0.0
 20
7925.0
 10
2550.0
 20
7925.0
 10
2625.0
 20
7925.0
1001
FLOORFORGE
1000
floor:0
1000
preliminary
  0
HATCH
  5
C1
330
17
100
AcDbEntity
  8
A-WALL
 62
7
100
AcDbHatch
 10
0.0
 20
0.0
 30
0.0
210
0.0
220
0.0
230
1.0
  2
SOLID
 70
1
 71
0
 91
1
 92
3
 72
0
 73
1
 93
6
 10
2625.0
 20
7925.0
 10
2625.0
 20
7775.0
 10
0.0
 20
7775.0
 10
0.0
 20
7925.0
 10
2550.0
 20
7925.0
 10
2625.0
 20
7925.0
 97
0
 75
0
 76
1
 98
0
  0
LWPOLYLINE
  5
C2
330
17
100
AcDbEntity
  8
A-WALL
100
AcDbPolyline
 90
5
 70
1
 10
2780.0
 20
9262.0
 10
0.0
 20
9262.0
 10
0.0
 20
9492.0
 10
2780.0
 20
9492.0
 10
2780.0
 20
9262.0
1001
FLOORFORGE
1000
floor:0
1000
preliminary
  0
HATCH
  5
C3
330
17
100
AcDbEntity
  8
A-WALL
 62
7
100
AcDbHatch
 10
0.0
 20
0.0
 30
0.0
210
0.0
220
0.0
230
1.0
  2
SOLID
 70
1
 71
0
 91
1
 92
3
 72
0
 73
1
 93
5
 10
2780.0
 20
9262.0
 10
0.0
 20
9262.0
 10
0.0
 20
9492.0
 10
2780.0
 20
9492.0
 10
2780.0
 20
9262.0
 97
0
 75
0
 76
1
 98
0
  0
LWPOLYLINE
  5
C4
330
17
100
AcDbEntity
  8
A-WALL
100
AcDbPolyline
 90
7
 70
1
 10
2475.0
 20
6425.0
 10
2625.0
 20
6425.0
 10
2625.0
 20
3450.0
 10
2625.0
 20
3375.0
 10
2475.0
 20
3375.0
 10
2475.0
 20
6350.0
 10
2475.0
 20
6425.0
1001
FLOORFORGE
1000
floor:0
1000
preliminary
  0
HATCH
  5
C5
330
17
100
AcDbEntity
  8
A-WALL
 62
7
100
AcDbHatch
 10
0.0
 20
0.0
 30
0.0
210
0.0
220
0.0
230
1.0
  2
SOLID
 70
1
 71
0
 91
1
 92
3
 72
0
 73
1
 93
7
 10
2475.0
 20
6425.0
 10
2625.0
 20
6425.0
 10
2625.0
 20
3450.0
 10
2625.0
 20
3375.0
 10
2475.0
 20
3375.0
 10
2475.0
 20
6350.0
 10
2475.0
 20
6425.0
 97
0
 75
0
 76
1
 98
0
  0
LWPOLYLINE
  5
C6
330
17
100
AcDbEntity
  8
A-WALL
100
AcDbPolyline
 90
7
 70
1
 10
2475.0
 20
7925.0
 10
2625.0
 20
7925.0
 10
2625.0
 20
6350.0
 10
2625.0
 20
6275.0
 10
2475.0
 20
6275.0
 10
2475.0
 20
7850.0
 10
2475.0
 20
7925.0
1001
FLOORFORGE
1000
floor:0
1000
preliminary
  0
HATCH
  5
C7
330
17
100
AcDbEntity
  8
A-WALL
 62
7
100
AcDbHatch
 10
0.0
 20
0.0
 30
0.0
210
0.0
220
0.0
230
1.0
  2
SOLID
 70
1
 71
0
 91
1
 92
3
 72
0
 73
1
 93
7
 10
2475.0
 20
7925.0
 10
2625.0
 20
7925.0
 10
2625.0
 20
6350.0
 10
2625.0
 20
6275.0
 10
2475.0
 20
6275.0
 10
2475.0
 20
7850.0
 10
2475.0
 20
7925.0
 97
0
 75
0
 76
1
 98
0
  0
LWPOLYLINE
  5
C8
330
17
100
AcDbEntity
  8
A-WALL
100
AcDbPolyline
 90
6
 70
1
 10
2625.0
 20
7775.0
 10
2475.0
 20
7775.0
 10
2475.0
 20
8000.0
 10
2625.0
 20
8000.0
 10
2625.0
 20
7850.0
 10
2625.0
 20
7775.0
1001
FLOORFORGE
1000
floor:0
1000
preliminary
  0
HATCH
  5
C9
330
17
100
AcDbEntity
  8
A-WALL
 62
7
100
AcDbHatch
 10
0.0
 20
0.0
 30
0.0
210
0.0
220
0.0
230
1.0
  2
SOLID
 70
1
 71
0
 91
1
 92
3
 72
0
 73
1
 93
6
 10
2625.0
 20
7775.0
 10
2475.0
 20
7775.0
 10
2475.0
 20
8000.0
 10
2625.0
 20
8000.0
 10
2625.0
 20
7850.0
 10
2625.0
 20
7775.0
 97
0
 75
0
 76
1
 98
0
  0
LWPOLYLINE
  5
CA
330
17
100
AcDbEntity
  8
A-WALL
100
AcDbPolyline
 90
5
 70
1
 10
2475.0
 20
9492.0
 10
2625.0
 20
9492.0
 10
2625.0
 20
8750.0
 10
2475.0
 20
8750.0
 10
2475.0
 20
9492.0
1001
FLOORFORGE
1000
floor:0
1000
preliminary
  0
HATCH
  5
CB
330
17
100
AcDbEntity
  8
A-WALL
 62
7
100
AcDbHatch
 10
0.0
 20
0.0
 30
0.0
210
0.0
220
0.0
230
1.0
  2
SOLID
 70
1
 71
0
 91
1
 92
3
 72
0
 73
1
 93
5
 10
2475.0
 20
9492.0
 10
2625.0
 20
9492.0
 10
2625.0
 20
8750.0
 10
2475.0
 20
8750.0
 10
2475.0
 20
9492.0
 97
0
 75
0
 76
1
 98
0
  0
LWPOLYLINE
  5
CC
330
17
100
AcDbEntity
  8
A-WALL
100
AcDbPolyline
 90
5
 70
1
 10
3525.0
 20
9262.0
 10
3525.0
 20
9492.0
 10
4130.0
 20
9492.0
 10
4130.0
 20
9262.0
 10
3525.0
 20
9262.0
1001
FLOORFORGE
1000
floor:0
1000
preliminary
  0
HATCH
  5
CD
330
17
100
AcDbEntity
  8
A-WALL
 62
7
100
AcDbHatch
 10
0.0
 20
0.0
 30
0.0
210
0.0
220
0.0
230
1.0
  2
SOLID
 70
1
 71
0
 91
1
 92
3
 72
0
 73
1
 93
5
 10
3525.0
 20
9262.0
 10
3525.0
 20
9492.0
 10
4130.0
 20
9492.0
 10
4130.0
 20
9262.0
 10
3525.0
 20
9262.0
 97
0
 75
0
 76
1
 98
0
  0
LWPOLYLINE
  5
CE
330
17
100
AcDbEntity
  8
A-WALL
100
AcDbPolyline
 90
6
 70
1
 10
2550.0
 20
9262.0
 10
2320.0
 20
9262.0
 10
2320.0
 20
9492.0
 10
2925.0
 20
9492.0
 10
2925.0
 20
9262.0
 10
2550.0
 20
9262.0
1001
FLOORFORGE
1000
floor:0
1000
preliminary
  0
HATCH
  5
CF
330
17
100
AcDbEntity
  8
A-WALL
 62
7
100
AcDbHatch
 10
0.0
 20
0.0
 30
0.0
210
0.0
220
0.0
230
1.0
  2
SOLID
 70
1
 71
0
 91
1
 92
3
 72
0
 73
1
 93
6
 10
2550.0
 20
9262.0
 10
2320.0
 20
9262.0
 10
2320.0
 20
9492.0
 10
2925.0
 20
9492.0
 10
2925.0
 20
9262.0
 10
2550.0
 20
9262.0
 97
0
 75
0
 76
1
 98
0
  0
LWPOLYLINE
  5
D0
330
17
100
AcDbEntity
  8
A-WALL
100
AcDbPolyline
 90
6
 70
1
 10
3975.0
 20
6425.0
 10
3975.0
 20
4500.0
 10
3825.0
 20
4500.0
 10
3825.0
 20
6350.0
 10
3825.0
 20
6425.0
 10
3975.0
 20
6425.0
1001
FLOORFORGE
1000
floor:0
1000
preliminary
  0
HATCH
  5
D1
330
17
100
AcDbEntity
  8
A-WALL
 62
7
100
AcDbHatch
 10
0.0
 20
0.0
 30
0.0
210
0.0
220
0.0
230
1.0
  2
SOLID
 70
1
 71
0
 91
1
 92
3
 72
0
 73
1
 93
6
 10
3975.0
 20
6425.0
 10
3975.0
 20
4500.0
 10
3825.0
 20
4500.0
 10
3825.0
 20
6350.0
 10
3825.0
 20
6425.0
 10
3975.0
 20
6425.0
 97
0
 75
0
 76
1
 98
0
  0
LWPOLYLINE
  5
D2
330
17
100
AcDbEntity
  8
A-WALL
100
AcDbPolyline
 90
6
 70
1
 10
3975.0
 20
3450.0
 10
3975.0
 20
3375.0
 10
3825.0
 20
3375.0
 10
3825.0
 20
3600.0
 10
3975.0
 20
3600.0
 10
3975.0
 20
3450.0
1001
FLOORFORGE
1000
floor:0
1000
preliminary
  0
HATCH
  5
D3
330
17
100
AcDbEntity
  8
A-WALL
 62
7
100
AcDbHatch
 10
0.0
 20
0.0
 30
0.0
210
0.0
220
0.0
230
1.0
  2
SOLID
 70
1
 71
0
 91
1
 92
3
 72
0
 73
1
 93
6
 10
3975.0
 20
3450.0
 10
3975.0
 20
3375.0
 10
3825.0
 20
3375.0
 10
3825.0
 20
3600.0
 10
3975.0
 20
3600.0
 10
3975.0
 20
3450.0
 97
0
 75
0
 76
1
 98
0
  0
LWPOLYLINE
  5
D4
330
17
100
AcDbEntity
  8
A-WALL
100
AcDbPolyline
 90
6
 70
1
 10
3900.0
 20
3375.0
 10
3825.0
 20
3375.0
 10
3825.0
 20
3525.0
 10
7644.0
 20
3525.0
 10
7644.0
 20
3375.0
 10
3900.0
 20
3375.0
1001
FLOORFORGE
1000
floor:0
1000
preliminary
  0
HATCH
  5
D5
330
17
100
AcDbEntity
  8
A-WALL
 62
7
100
AcDbHatch
 10
0.0
 20
0.0
 30
0.0
210
0.0
220
0.0
230
1.0
  2
SOLID
 70
1
 71
0
 91
1
 92
3
 72
0
 73
1
 93
6
 10
3900.0
 20
3375.0
 10
3825.0
 20
3375.0
 10
3825.0
 20
3525.0
 10
7644.0
 20
3525.0
 10
7644.0
 20
3375.0
 10
3900.0
 20
3375.0
 97
0
 75
0
 76
1
 98
0
  0
LWPOLYLINE
  5
D6
330
17
100
AcDbEntity
  8
A-WALL
100
AcDbPolyline
 90
6
 70
1
 10
3975.0
 20
6275.0
 10
3825.0
 20
6275.0
 10
3825.0
 20
6500.0
 10
3975.0
 20
6500.0
 10
3975.0
 20
6350.0
 10
3975.0
 20
6275.0
1001
FLOORFORGE
1000
floor:0
1000
preliminary
  0
HATCH
  5
D7
330
17
100
AcDbEntity
  8
A-WALL
 62
7
100
AcDbHatch
 10
0.0
 20
0.0
 30
0.0
210
0.0
220
0.0
230
1.0
  2
SOLID
 70
1
 71
0
 91
1
 92
3
 72
0
 73
1
 93
6
 10
3975.0
 20
6275.0
 10
3825.0
 20
6275.0
 10
3825.0
 20
6500.0
 10
3975.0
 20
6500.0
 10
3975.0
 20
6350.0
 10
3975.0
 20
6275.0
 97
0
 75
0
 76
1
 98
0
  0
LWPOLYLINE
  5
D8
330
17
100
AcDbEntity
  8
A-WALL
100
AcDbPolyline
 90
5
 70
1
 10
3825.0
 20
9492.0
 10
3975.0
 20
9492.0
 10
3975.0
 20
7400.0
 10
3825.0
 20
7400.0
 10
3825.0
 20
9492.0
1001
FLOORFORGE
1000
floor:0
1000
preliminary
  0
HATCH
  5
D9
330
17
100
AcDbEntity
  8
A-WALL
 62
7
100
AcDbHatch
 10
0.0
 20
0.0
 30
0.0
210
0.0
220
0.0
230
1.0
  2
SOLID
 70
1
 71
0
 91
1
 92
3
 72
0
 73
1
 93
5
 10
3825.0
 20
9492.0
 10
3975.0
 20
9492.0
 10
3975.0
 20
7400.0
 10
3825.0
 20
7400.0
 10
3825.0
 20
9492.0
 97
0
 75
0
 76
1
 98
0
  0
LWPOLYLINE
  5
DA
330
17
100
AcDbEntity
  8
A-WALL
100
AcDbPolyline
 90
6
 70
1
 10
3900.0
 20
6275.0
 10
3825.0
 20
6275.0
 10
3825.0
 20
6425.0
 10
7644.0
 20
6425.0
 10
7644.0
 20
6275.0
 10
3900.0
 20
6275.0
1001
FLOORFORGE
1000
floor:0
1000
preliminary
  0
HATCH
  5
DB
330
17
100
AcDbEntity
  8
A-WALL
 62
7
100
AcDbHatch
 10
0.0
 20
0.0
 30
0.0
210
0.0
220
0.0
230
1.0
  2
SOLID
 70
1
 71
0
 91
1
 92
3
 72
0
 73
1
 93
6
 10
3900.0
 20
6275.0
 10
3825.0
 20
6275.0
 10
3825.0
 20
6425.0
 10
7644.0
 20
6425.0
 10
7644.0
 20
6275.0
 10
3900.0
 20
6275.0
 97
0
 75
0
 76
1
 98
0
  0
LWPOLYLINE
  5
DC
330
17
100
AcDbEntity
  8
A-WALL
100
AcDbPolyline
 90
6
 70
1
 10
3670.0
 20
9262.0
 10
3670.0
 20
9492.0
 10
4722.0
 20
9492.0
 10
4722.0
 20
9262.0
 10
3900.0
 20
9262.0
 10
3670.0
 20
9262.0
1001
FLOORFORGE
1000
floor:0
1000
preliminary
  0
HATCH
  5
DD
330
17
100
AcDbEntity
  8
A-WALL
 62
7
100
AcDbHatch
 10
0.0
 20
0.0
 30
0.0
210
0.0
220
0.0
230
1.0
  2
SOLID
 70
1
 71
0
 91
1
 92
3
 72
0
 73
1
 93
6
 10
3670.0
 20
9262.0
 10
3670.0
 20
9492.0
 10
4722.0
 20
9492.0
 10
4722.0
 20
9262.0
 10
3900.0
 20
9262.0
 10
3670.0
 20
9262.0
 97
0
 75
0
 76
1
 98
0
  0
LWPOLYLINE
  5
DE
330
17
100
AcDbEntity
  8
A-WALL
100
AcDbPolyline
 90
5
 70
1
 10
7644.0
 20
9492.0
 10
7644.0
 20
9262.0
 10
6822.0
 20
9262.0
 10
6822.0
 20
9492.0
 10
7644.0
 20
9492.0
1001
FLOORFORGE
1000
floor:0
1000
preliminary
  0
HATCH
  5
DF
330
17
100
AcDbEntity
  8
A-WALL
 62
7
100
AcDbHatch
 10
0.0
 20
0.0
 30
0.0
210
0.0
220
0.0
230
1.0
  2
SOLID
 70
1
 71
0
 91
1
 92
3
 72
0
 73
1
 93
5
 10
7644.0
 20
9492.0
 10
7644.0
 20
9262.0
 10
6822.0
 20
9262.0
 10
6822.0
 20
9492.0
 10
7644.0
 20
9492.0
 97
0
 75
0
 76
1
 98
0
  0
LWPOLYLINE
  5
E0
330
17
100
AcDbEntity
  8
A-WALL
100
AcDbPolyline
 90
6
 70
1
 10
7644.0
 20
3680.0
 10
7644.0
 20
3075.0
 10
7414.0
 20
3075.0
 10
7414.0
 20
3450.0
 10
7414.0
 20
3680.0
 10
7644.0
 20
3680.0
1001
FLOORFORGE
1000
floor:0
1000
preliminary
  0
HATCH
  5
E1
330
17
100
AcDbEntity
  8
A-WALL
 62
7
100
AcDbHatch
 10
0.0
 20
0.0
 30
0.0
210
0.0
220
0.0
230
1.0
  2
SOLID
 70
1
 71
0
 91
1
 92
3
 72
0
 73
1
 93
6
 10
7644.0
 20
3680.0
 10
7644.0
 20
3075.0
 10
7414.0
 20
3075.0
 10
7414.0
 20
3450.0
 10
7414.0
 20
3680.0
 10
7644.0
 20
3680.0
 97
0
 75
0
 76
1
 98
0
  0
LWPOLYLINE
  5
E2
330
17
100
AcDbEntity
  8
A-WALL
100
AcDbPolyline
 90
5
 70
1
 10
7644.0
 20
0.0
 10
7414.0
 20
0.0
 10
7414.0
 20
375.0
 10
7644.0
 20
375.0
 10
7644.0
 20
0.0
1001
FLOORFORGE
1000
floor:0
1000
preliminary
  0
HATCH
  5
E3
330
17
100
AcDbEntity
  8
A-WALL
 62
7
100
AcDbHatch
 10
0.0
 20
0.0
 30
0.0
210
0.0
220
0.0
230
1.0
  2
SOLID
 70
1
 71
0
 91
1
 92
3
 72
0
 73
1
 93
5
 10
7644.0
 20
0.0
 10
7414.0
 20
0.0
 10
7414.0
 20
375.0
 10
7644.0
 20
375.0
 10
7644.0
 20
0.0
 97
0
 75
0
 76
1
 98
0
  0
LWPOLYLINE
  5
E4
330
17
100
AcDbEntity
  8
A-WALL
100
AcDbPolyline
 90
6
 70
1
 10
7644.0
 20
6580.0
 10
7644.0
 20
5650.0
 10
7414.0
 20
5650.0
 10
7414.0
 20
6350.0
 10
7414.0
 20
6580.0
 10
7644.0
 20
6580.0
1001
FLOORFORGE
1000
floor:0
1000
preliminary
  0
HATCH
  5
E5
330
17
100
AcDbEntity
  8
A-WALL
 62
7
100
AcDbHatch
 10
0.0
 20
0.0
 30
0.0
210
0.0
220
0.0
230
1.0
  2
SOLID
 70
1
 71
0
 91
1
 92
3
 72
0
 73
1
 93
6
 10
7644.0
 20
6580.0
 10
7644.0
 20
5650.0
 10
7414.0
 20
5650.0
 10
7414.0
 20
6350.0
 10
7414.0
 20
6580.0
 10
7644.0
 20
6580.0
 97
0
 75
0
 76
1
 98
0
  0
LWPOLYLINE
  5
E6
330
17
100
AcDbEntity
  8
A-WALL
100
AcDbPolyline
 90
5
 70
1
 10
7644.0
 20
3220.0
 10
7414.0
 20
3220.0
 10
7414.0
 20
4150.0
 10
7644.0
 20
4150.0
 10
7644.0
 20
3220.0
1001
FLOORFORGE
1000
floor:0
1000
preliminary
  0
HATCH
  5
E7
330
17
100
AcDbEntity
  8
A-WALL
 62
7
100
AcDbHatch
 10
0.0
 20
0.0
 30
0.0
210
0.0
220
0.0
230
1.0
  2
SOLID
 70
1
 71
0
 91
1
 92
3
 72
0
 73
1
 93
5
 10
7644.0
 20
3220.0
 10
7414.0
 20
3220.0
 10
7414.0
 20
4150.0
 10
7644.0
 20
4150.0
 10
7644.0
 20
3220.0
 97
0
 75
0
 76
1
 98
0
  0
LWPOLYLINE
  5
E8
330
17
100
AcDbEntity
  8
A-WALL
100
AcDbPolyline
 90
5
 70
1
 10
7414.0
 20
7021.0
 10
7644.0
 20
7021.0
 10
7644.0
 20
6120.0
 10
7414.0
 20
6120.0
 10
7414.0
 20
7021.0
1001
FLOORFORGE
1000
floor:0
1000
preliminary
  0
HATCH
  5
E9
330
17
100
AcDbEntity
  8
A-WALL
 62
7
100
AcDbHatch
 10
0.0
 20
0.0
 30
0.0
210
0.0
220
0.0
230
1.0
  2
SOLID
 70
1
 71
0
 91
1
 92
3
 72
0
 73
1
 93
5
 10
7414.0
 20
7021.0
 10
7644.0
 20
7021.0
 10
7644.0
 20
6120.0
 10
7414.0
 20
6120.0
 10
7414.0
 20
7021.0
 97
0
 75
0
 76
1
 98
0
  0
LWPOLYLINE
  5
EA
330
17
100
AcDbEntity
  8
A-WALL
100
AcDbPolyline
 90
5
 70
1
 10
7414.0
 20
9492.0
 10
7644.0
 20
9492.0
 10
7644.0
 20
8821.0
 10
7414.0
 20
8821.0
 10
7414.0
 20
9492.0
1001
FLOORFORGE
1000
floor:0
1000
preliminary
  0
HATCH
  5
EB
330
17
100
AcDbEntity
  8
A-WALL
 62
7
100
AcDbHatch
 10
0.0
 20
0.0
 30
0.0
210
0.0
220
0.0
230
1.0
  2
SOLID
 70
1
 71
0
 91
1
 92
3
 72
0
 73
1
 93
5
 10
7414.0
 20
9492.0
 10
7644.0
 20
9492.0
 10
7644.0
 20
8821.0
 10
7414.0
 20
8821.0
 10
7414.0
 20
9492.0
 97
0
 75
0
 76
1
 98
0
  0
LINE
  5
EC
330
17
100
AcDbEntity
  8
A-DOOR
100
AcDbLine
 10
3975.0
 20
3600.0
 30
0.0
 11
4875.0
 21
3600.0
 31
0.0
1001
FLOORFORGE
1000
floor:0
1000
preliminary
  0
LWPOLYLINE
  5
ED
330
17
100
AcDbEntity
  8
A-DOOR
100
AcDbPolyline
 90
18
 70
0
 10
3975.0
 20
4500.0
 10
4058.0415235169717
 20
4496.160758665531
 10
4140.374566034913
 20
4484.675789715511
 10
4221.296691064875
 20
4465.643078855537
 10
4300.117499568438
 20
4439.22500646392
 10
4376.164520198884
 20
4405.646962219556
 10
4448.7889465896205
 20
4365.195422156653
 10
4517.371172741331
 20
4318.215504552216
 10
4581.326079281902
 20
4265.108025498594
 10
4640.108025498594
 20
4206.326079281902
 10
4693.215504552216
 20
4142.371172741331
 10
4740.195422156653
 20
4073.78894658962
 10
4780.646962219556
 20
4001.1645201988845
 10
4814.22500646392
 20
3925.117499568438
 10
4840.643078855537
 20
3846.2966910648747
 10
4859.675789715511
 20
3765.374566034913
 10
4871.160758665531
 20
3683.0415235169717
 10
4875.0
 20
3600.0
1001
FLOORFORGE
1000
floor:0
1000
preliminary
  0
TEXT
  5
EE
330
17
100
AcDbEntity
  8
A-TAGS
100
AcDbText
 10
3575.0
 20
3990.0
 30
0.0
 40
150.0
  1
D1
 72
1
 11
3575.0
 21
3990.0
 31
0.0
100
AcDbText
 73
1
1001
FLOORFORGE
1000
floor:0
1000
preliminary
  0
LINE
  5
EF
330
17
100
AcDbEntity
  8
A-DOOR
100
AcDbLine
 10
3975.0
 20
6500.0
 30
0.0
 11
4875.0
 21
6500.0
 31
0.0
1001
FLOORFORGE
1000
floor:0
1000
preliminary
  0
LWPOLYLINE
  5
F0
330
17
100
AcDbEntity
  8
A-DOOR
100
AcDbPolyline
 90
18
 70
0
 10
3975.0
 20
7400.0
 10
4058.0415235169717
 20
7396.160758665531
 10
4140.374566034913
 20
7384.675789715511
 10
4221.296691064875
 20
7365.643078855537
 10
4300.117499568438
 20
7339.22500646392
 10
4376.164520198884
 20
7305.646962219556
 10
4448.7889465896205
 20
7265.195422156653
 10
4517.371172741331
 20
7218.215504552216
 10
4581.326079281902
 20
7165.108025498594
 10
4640.108025498594
 20
7106.326079281902
 10
4693.215504552216
 20
7042.371172741331
 10
4740.195422156653
 20
6973.7889465896205
 10
4780.646962219556
 20
6901.164520198885
 10
4814.22500646392
 20
6825.117499568438
 10
4840.643078855537
 20
6746.296691064875
 10
4859.675789715511
 20
6665.374566034913
 10
4871.160758665531
 20
6583.041523516972
 10
4875.0
 20
6500.0
1001
FLOORFORGE
1000
floor:0
1000
preliminary
  0
TEXT
  5
F1
330
17
100
AcDbEntity
  8
A-TAGS
100
AcDbText
 10
3575.0
 20
6890.0
 30
0.0
 40
150.0
  1
D1
 72
1
 11
3575.0
 21
6890.0
 31
0.0
100
AcDbText
 73
1
1001
FLOORFORGE
1000
floor:0
1000
preliminary
  0
LINE
  5
F2
330
17
100
AcDbEntity
  8
A-DOOR
100
AcDbLine
 10
2475.0
 20
8000.0
 30
0.0
 11
1725.0
 21
8000.0
 31
0.0
1001
FLOORFORGE
1000
floor:0
1000
preliminary
  0
LWPOLYLINE
  5
F3
330
17
100
AcDbEntity
  8
A-DOOR
100
AcDbPolyline
 90
18
 70
0
 10
2475.0
 20
8750.0
 10
2405.7987304025237
 20
8746.800632221275
 10
2337.187861637572
 20
8737.229824762926
 10
2269.7527574459377
 20
8721.369232379615
 10
2204.0687503596355
 20
8699.354172053267
 10
2140.6962331675963
 20
8671.372468516296
 10
2080.175877841983
 20
8637.662851797211
 10
2023.0240227155577
 20
8598.51292046018
 10
1969.7282672650822
 20
8554.256687915495
 10
1920.7433120845058
 20
8505.271732734918
 10
1876.4870795398203
 20
8451.975977284443
 10
1837.3371482027894
 20
8394.824122158017
 10
1803.6275314837033
 20
8334.303766832403
 10
1775.645827946733
 20
8270.931249640365
 10
1753.6307676203858
 20
8205.247242554062
 10
1737.7701752370735
 20
8137.8121383624275
 10
1728.199367778724
 20
8069.201269597476
 10
1725.0
 20
8000.0
1001
FLOORFORGE
1000
floor:0
1000
preliminary
  0
TEXT
  5
F4
330
17
100
AcDbEntity
  8
A-TAGS
100
AcDbText
 10
2875.0
 20
8315.0
 30
0.0
 40
150.0
  1
D2
 72
1
 11
2875.0
 21
8315.0
 31
0.0
100
AcDbText
 73
1
1001
FLOORFORGE
1000
floor:0
1000
preliminary
  0
LINE
  5
F5
330
17
100
AcDbEntity
  8
A-DOOR
100
AcDbLine
 10
525.0
 20
3375.0
 30
0.0
 11
2025.0
 21
3375.0
 31
0.0
1001
FLOORFORGE
1000
floor:0
1000
preliminary
  0
LINE
  5
F6
330
17
100
AcDbEntity
  8
A-DOOR
100
AcDbLine
 10
525.0
 20
3525.0
 30
0.0
 11
2025.0
 21
3525.0
 31
0.0
1001
FLOORFORGE
1000
floor:0
1000
preliminary
  0
TEXT
  5
F7
330
17
100
AcDbEntity
  8
A-TAGS
100
AcDbText
 10
1275.0
 20
3065.0
 30
0.0
 40
150.0
  1
O1
 72
1
 11
1275.0
 21
3065.0
 31
0.0
100
AcDbText
 73
1
1001
FLOORFORGE
1000
floor:0
1000
preliminary
  0
LINE
  5
F8
330
17
100
AcDbEntity
  8
A-DOOR
100
AcDbLine
 10
2400.0
 20
6425.0
 30
0.0
 11
2400.0
 21
7175.0
 31
0.0
1001
FLOORFORGE
1000
floor:0
1000
preliminary
  0
LWPOLYLINE
  5
F9
330
17
100
AcDbEntity
  8
A-DOOR
100
AcDbPolyline
 90
18
 70
0
 10
1650.0
 20
6425.0
 10
1653.199367778724
 20
6494.201269597476
 10
1662.7701752370735
 20
6562.8121383624275
 10
1678.6307676203858
 20
6630.247242554062
 10
1700.645827946733
 20
6695.9312496403645
 10
1728.6275314837033
 20
6759.303766832404
 10
1762.3371482027892
 20
6819.8241221580165
 10
1801.4870795398203
 20
6876.975977284443
 10
1845.7433120845058
 20
6930.271732734918
 10
1894.7282672650822
 20
6979.256687915495
 10
1948.0240227155577
 20
7023.51292046018
 10
2005.175877841983
 20
7062.66285179721
 10
2065.6962331675963
 20
7096.372468516297
 10
2129.068750359635
 20
7124.354172053267
 10
2194.7527574459377
 20
7146.369232379614
 10
2262.1878616375725
 20
7162.229824762926
 10
2330.7987304025237
 20
7171.800632221276
 10
2400.0
 20
7175.0
1001
FLOORFORGE
1000
floor:0
1000
preliminary
  0
TEXT
  5
FA
330
17
100
AcDbEntity
  8
A-TAGS
100
AcDbText
 10
2025.0
 20
5965.0
 30
0.0
 40
150.0
  1
D2
 72
1
 11
2025.0
 21
5965.0
 31
0.0
100
AcDbText
 73
1
1001
FLOORFORGE
1000
floor:0
1000
preliminary
  0
LINE
  5
FB
330
17
100
AcDbEntity
  8
A-WIND
100
AcDbLine
 10
0.0
 20
375.0
 30
0.0
 11
0.0
 21
3075.0
 31
0.0
1001
FLOORFORGE
1000
floor:0
1000
preliminary
  0
LINE
  5
FC
330
17
100
AcDbEntity
  8
A-WIND
100
AcDbLine
 10
230.0
 20
375.0
 30
0.0
 11
230.0
 21
3075.0
 31
0.0
1001
FLOORFORGE
1000
floor:0
1000
preliminary
  0
LINE
  5
FD
330
17
100
AcDbEntity
  8
A-WIND
100
AcDbLine
 10
97.0
 20
375.0
 30
0.0
 11
97.0
 21
3075.0
 31
0.0
1001
FLOORFORGE
1000
floor:0
1000
preliminary
  0
LINE
  5
FE
330
17
100
AcDbEntity
  8
A-WIND
100
AcDbLine
 10
133.0
 20
375.0
 30
0.0
 11
133.0
 21
3075.0
 31
0.0
1001
FLOORFORGE
1000
floor:0
1000
preliminary
  0
LINE
  5
FF
330
17
100
AcDbEntity
  8
A-WIND
100
AcDbLine
 10
0.0
 20
375.0
 30
0.0
 11
230.0
 21
375.0
 31
0.0
1001
FLOORFORGE
1000
floor:0
1000
preliminary
  0
LINE
  5
100
330
17
100
AcDbEntity
  8
A-WIND
100
AcDbLine
 10
0.0
 20
3075.0
 30
0.0
 11
230.0
 21
3075.0
 31
0.0
1001
FLOORFORGE
1000
floor:0
1000
preliminary
  0
TEXT
  5
101
330
17
100
AcDbEntity
  8
A-TAGS
100
AcDbText
 10
-380.0
 20
1665.0
 30
0.0
 40
150.0
  1
W1
 72
1
 11
-380.0
 21
1665.0
 31
0.0
100
AcDbText
 73
1
1001
FLOORFORGE
1000
floor:0
1000
preliminary
  0
LINE
  5
102
330
17
100
AcDbEntity
  8
A-DOOR
100
AcDbLine
 10
700.0
 20
230.0
 30
0.0
 11
700.0
 21
1430.0
 31
0.0
1001
FLOORFORGE
1000
floor:0
1000
preliminary
  0
LWPOLYLINE
  5
103
330
17
100
AcDbEntity
  8
A-DOOR
100
AcDbPolyline
 90
18
 70
0
 10
1900.0
 20
230.0
 10
1894.8810115540414
 20
340.7220313559624
 10
1879.567719620682
 20
450.49942137988444
 10
1854.1907718073828
 20
558.3955880864994
 10
1818.966675285227
 20
663.4899994245835
 10
1774.1959496260747
 20
764.8860269318459
 10
1720.260562875537
 20
861.7185954528269
 10
1657.6206727362874
 20
953.1615636551077
 10
1586.810700664791
 20
1038.4347723758688
 10
1508.4347723758688
 20
1116.810700664791
 10
1423.1615636551078
 20
1187.6206727362874
 10
1331.718595452827
 20
1250.2605628755368
 10
1234.8860269318461
 20
1304.1959496260747
 10
1133.4899994245836
 20
1348.966675285227
 10
1028.3955880864994
 20
1384.1907718073828
 10
920.4994213798843
 20
1409.567719620682
 10
810.7220313559624
 20
1424.8810115540414
 10
700.0000000000001
 20
1430.0
1001
FLOORFORGE
1000
floor:0
1000
preliminary
  0
TEXT
  5
104
330
17
100
AcDbEntity
  8
A-TAGS
100
AcDbText
 10
1300.0
 20
-310.0
 30
0.0
 40
150.0
  1
D3
 72
1
 11
1300.0
 21
-310.0
 31
0.0
100
AcDbText
 73
1
1001
FLOORFORGE
1000
floor:0
1000
preliminary
  0
LINE
  5
105
330
17
100
AcDbEntity
  8
A-WIND
100
AcDbLine
 10
2222.0
 20
0.0
 30
0.0
 11
7322.0
 21
0.0
 31
0.0
1001
FLOORFORGE
1000
floor:0
1000
preliminary
  0
LINE
  5
106
330
17
100
AcDbEntity
  8
A-WIND
100
AcDbLine
 10
2222.0
 20
230.0
 30
0.0
 11
7322.0
 21
230.0
 31
0.0
1001
FLOORFORGE
1000
floor:0
1000
preliminary
  0
LINE
  5
107
330
17
100
AcDbEntity
  8
A-WIND
100
AcDbLine
 10
2222.0
 20
97.0
 30
0.0
 11
7322.0
 21
97.0
 31
0.0
1001
FLOORFORGE
1000
floor:0
1000
preliminary
  0
LINE
  5
108
330
17
100
AcDbEntity
  8
A-WIND
100
AcDbLine
 10
2222.0
 20
133.0
 30
0.0
 11
7322.0
 21
133.0
 31
0.0
1001
FLOORFORGE
1000
floor:0
1000
preliminary
  0
LINE
  5
109
330
17
100
AcDbEntity
  8
A-WIND
100
AcDbLine
 10
2222.0
 20
0.0
 30
0.0
 11
2222.0
 21
230.0
 31
0.0
1001
FLOORFORGE
1000
floor:0
1000
preliminary
  0
LINE
  5
10A
330
17
100
AcDbEntity
  8
A-WIND
100
AcDbLine
 10
7322.0
 20
0.0
 30
0.0
 11
7322.0
 21
230.0
 31
0.0
1001
FLOORFORGE
1000
floor:0
1000
preliminary
  0
TEXT
  5
10B
330
17
100
AcDbEntity
  8
A-TAGS
100
AcDbText
 10
4772.0
 20
-440.0
 30
0.0
 40
150.0
  1
W2
 72
1
 11
4772.0
 21
-440.0
 31
0.0
100
AcDbText
 73
1
1001
FLOORFORGE
1000
floor:0
1000
preliminary
  0
LINE
  5
10C
330
17
100
AcDbEntity
  8
A-WIND
100
AcDbLine
 10
0.0
 20
4150.0
 30
0.0
 11
0.0
 21
5650.0
 31
0.0
1001
FLOORFORGE
1000
floor:0
1000
preliminary
  0
LINE
  5
10D
330
17
100
AcDbEntity
  8
A-WIND
100
AcDbLine
 10
230.0
 20
4150.0
 30
0.0
 11
230.0
 21
5650.0
 31
0.0
1001
FLOORFORGE
1000
floor:0
1000
preliminary
  0
LINE
  5
10E
330
17
100
AcDbEntity
  8
A-WIND
100
AcDbLine
 10
97.0
 20
4150.0
 30
0.0
 11
97.0
 21
5650.0
 31
0.0
1001
FLOORFORGE
1000
floor:0
1000
preliminary
  0
LINE
  5
10F
330
17
100
AcDbEntity
  8
A-WIND
100
AcDbLine
 10
133.0
 20
4150.0
 30
0.0
 11
133.0
 21
5650.0
 31
0.0
1001
FLOORFORGE
1000
floor:0
1000
preliminary
  0
LINE
  5
110
330
17
100
AcDbEntity
  8
A-WIND
100
AcDbLine
 10
0.0
 20
4150.0
 30
0.0
 11
230.0
 21
4150.0
 31
0.0
1001
FLOORFORGE
1000
floor:0
1000
preliminary
  0
LINE
  5
111
330
17
100
AcDbEntity
  8
A-WIND
100
AcDbLine
 10
0.0
 20
5650.0
 30
0.0
 11
230.0
 21
5650.0
 31
0.0
1001
FLOORFORGE
1000
floor:0
1000
preliminary
  0
TEXT
  5
112
330
17
100
AcDbEntity
  8
A-TAGS
100
AcDbText
 10
-380.0
 20
4840.0
 30
0.0
 40
150.0
  1
W3
 72
1
 11
-380.0
 21
4840.0
 31
0.0
100
AcDbText
 73
1
1001
FLOORFORGE
1000
floor:0
1000
preliminary
  0
LINE
  5
113
330
17
100
AcDbEntity
  8
A-WIND
100
AcDbLine
 10
0.0
 20
6650.0
 30
0.0
 11
0.0
 21
7550.0
 31
0.0
1001
FLOORFORGE
1000
floor:0
1000
preliminary
  0
LINE
  5
114
330
17
100
AcDbEntity
  8
A-WIND
100
AcDbLine
 10
230.0
 20
6650.0
 30
0.0
 11
230.0
 21
7550.0
 31
0.0
1001
FLOORFORGE
1000
floor:0
1000
preliminary
  0
LINE
  5
115
330
17
100
AcDbEntity
  8
A-WIND
100
AcDbLine
 10
97.0
 20
6650.0
 30
0.0
 11
97.0
 21
7550.0
 31
0.0
1001
FLOORFORGE
1000
floor:0
1000
preliminary
  0
LINE
  5
116
330
17
100
AcDbEntity
  8
A-WIND
100
AcDbLine
 10
133.0
 20
6650.0
 30
0.0
 11
133.0
 21
7550.0
 31
0.0
1001
FLOORFORGE
1000
floor:0
1000
preliminary
  0
LINE
  5
117
330
17
100
AcDbEntity
  8
A-WIND
100
AcDbLine
 10
0.0
 20
6650.0
 30
0.0
 11
230.0
 21
6650.0
 31
0.0
1001
FLOORFORGE
1000
floor:0
1000
preliminary
  0
LINE
  5
118
330
17
100
AcDbEntity
  8
A-WIND
100
AcDbLine
 10
0.0
 20
7550.0
 30
0.0
 11
230.0
 21
7550.0
 31
0.0
1001
FLOORFORGE
1000
floor:0
1000
preliminary
  0
TEXT
  5
119
330
17
100
AcDbEntity
  8
A-TAGS
100
AcDbText
 10
-380.0
 20
7040.0
 30
0.0
 40
150.0
  1
W4
 72
1
 11
-380.0
 21
7040.0
 31
0.0
100
AcDbText
 73
1
1001
FLOORFORGE
1000
floor:0
1000
preliminary
  0
LINE
  5
11A
330
17
100
AcDbEntity
  8
A-WIND
100
AcDbLine
 10
0.0
 20
8296.0
 30
0.0
 11
0.0
 21
9046.0
 31
0.0
1001
FLOORFORGE
1000
floor:0
1000
preliminary
  0
LINE
  5
11B
330
17
100
AcDbEntity
  8
A-WIND
100
AcDbLine
 10
230.0
 20
8296.0
 30
0.0
 11
230.0
 21
9046.0
 31
0.0
1001
FLOORFORGE
1000
floor:0
1000
preliminary
  0
LINE
  5
11C
330
17
100
AcDbEntity
  8
A-WIND
100
AcDbLine
 10
97.0
 20
8296.0
 30
0.0
 11
97.0
 21
9046.0
 31
0.0
1001
FLOORFORGE
1000
floor:0
1000
preliminary
  0
LINE
  5
11D
330
17
100
AcDbEntity
  8
A-WIND
100
AcDbLine
 10
133.0
 20
8296.0
 30
0.0
 11
133.0
 21
9046.0
 31
0.0
1001
FLOORFORGE
1000
floor:0
1000
preliminary
  0
LINE
  5
11E
330
17
100
AcDbEntity
  8
A-WIND
100
AcDbLine
 10
0.0
 20
8296.0
 30
0.0
 11
230.0
 21
8296.0
 31
0.0
1001
FLOORFORGE
1000
floor:0
1000
preliminary
  0
LINE
  5
11F
330
17
100
AcDbEntity
  8
A-WIND
100
AcDbLine
 10
0.0
 20
9046.0
 30
0.0
 11
230.0
 21
9046.0
 31
0.0
1001
FLOORFORGE
1000
floor:0
1000
preliminary
  0
TEXT
  5
120
330
17
100
AcDbEntity
  8
A-TAGS
100
AcDbText
 10
-380.0
 20
8611.0
 30
0.0
 40
150.0
  1
V1
 72
1
 11
-380.0
 21
8611.0
 31
0.0
100
AcDbText
 73
1
1001
FLOORFORGE
1000
floor:0
1000
preliminary
  0
LINE
  5
121
330
17
100
AcDbEntity
  8
A-WIND
100
AcDbLine
 10
676.0
 20
9492.0
 30
0.0
 11
1876.0
 21
9492.0
 31
0.0
1001
FLOORFORGE
1000
floor:0
1000
preliminary
  0
LINE
  5
122
330
17
100
AcDbEntity
  8
A-WIND
100
AcDbLine
 10
676.0
 20
9262.0
 30
0.0
 11
1876.0
 21
9262.0
 31
0.0
1001
FLOORFORGE
1000
floor:0
1000
preliminary
  0
LINE
  5
123
330
17
100
AcDbEntity
  8
A-WIND
100
AcDbLine
 10
676.0
 20
9395.0
 30
0.0
 11
1876.0
 21
9395.0
 31
0.0
1001
FLOORFORGE
1000
floor:0
1000
preliminary
  0
LINE
  5
124
330
17
100
AcDbEntity
  8
A-WIND
100
AcDbLine
 10
676.0
 20
9359.0
 30
0.0
 11
1876.0
 21
9359.0
 31
0.0
1001
FLOORFORGE
1000
floor:0
1000
preliminary
  0
LINE
  5
125
330
17
100
AcDbEntity
  8
A-WIND
100
AcDbLine
 10
676.0
 20
9492.0
 30
0.0
 11
676.0
 21
9262.0
 31
0.0
1001
FLOORFORGE
1000
floor:0
1000
preliminary
  0
LINE
  5
126
330
17
100
AcDbEntity
  8
A-WIND
100
AcDbLine
 10
1876.0
 20
9492.0
 30
0.0
 11
1876.0
 21
9262.0
 31
0.0
1001
FLOORFORGE
1000
floor:0
1000
preliminary
  0
TEXT
  5
127
330
17
100
AcDbEntity
  8
A-TAGS
100
AcDbText
 10
1276.0
 20
9812.0
 30
0.0
 40
150.0
  1
V2
 72
1
 11
1276.0
 21
9812.0
 31
0.0
100
AcDbText
 73
1
1001
FLOORFORGE
1000
floor:0
1000
preliminary
  0
LINE
  5
128
330
17
100
AcDbEntity
  8
A-WIND
100
AcDbLine
 10
2925.0
 20
9492.0
 30
0.0
 11
3525.0
 21
9492.0
 31
0.0
1001
FLOORFORGE
1000
floor:0
1000
preliminary
  0
LINE
  5
129
330
17
100
AcDbEntity
  8
A-WIND
100
AcDbLine
 10
2925.0
 20
9262.0
 30
0.0
 11
3525.0
 21
9262.0
 31
0.0
1001
FLOORFORGE
1000
floor:0
1000
preliminary
  0
LINE
  5
12A
330
17
100
AcDbEntity
  8
A-WIND
100
AcDbLine
 10
2925.0
 20
9395.0
 30
0.0
 11
3525.0
 21
9395.0
 31
0.0
1001
FLOORFORGE
1000
floor:0
1000
preliminary
  0
LINE
  5
12B
330
17
100
AcDbEntity
  8
A-WIND
100
AcDbLine
 10
2925.0
 20
9359.0
 30
0.0
 11
3525.0
 21
9359.0
 31
0.0
1001
FLOORFORGE
1000
floor:0
1000
preliminary
  0
LINE
  5
12C
330
17
100
AcDbEntity
  8
A-WIND
100
AcDbLine
 10
2925.0
 20
9492.0
 30
0.0
 11
2925.0
 21
9262.0
 31
0.0
1001
FLOORFORGE
1000
floor:0
1000
preliminary
  0
LINE
  5
12D
330
17
100
AcDbEntity
  8
A-WIND
100
AcDbLine
 10
3525.0
 20
9492.0
 30
0.0
 11
3525.0
 21
9262.0
 31
0.0
1001
FLOORFORGE
1000
floor:0
1000
preliminary
  0
TEXT
  5
12E
330
17
100
AcDbEntity
  8
A-TAGS
100
AcDbText
 10
3225.0
 20
9812.0
 30
0.0
 40
150.0
  1
W5
 72
1
 11
3225.0
 21
9812.0
 31
0.0
100
AcDbText
 73
1
1001
FLOORFORGE
1000
floor:0
1000
preliminary
  0
LINE
  5
12F
330
17
100
AcDbEntity
  8
A-WIND
100
AcDbLine
 10
4722.0
 20
9492.0
 30
0.0
 11
6822.0
 21
9492.0
 31
0.0
1001
FLOORFORGE
1000
floor:0
1000
preliminary
  0
LINE
  5
130
330
17
100
AcDbEntity
  8
A-WIND
100
AcDbLine
 10
4722.0
 20
9262.0
 30
0.0
 11
6822.0
 21
9262.0
 31
0.0
1001
FLOORFORGE
1000
floor:0
1000
preliminary
  0
LINE
  5
131
330
17
100
AcDbEntity
  8
A-WIND
100
AcDbLine
 10
4722.0
 20
9395.0
 30
0.0
 11
6822.0
 21
9395.0
 31
0.0
1001
FLOORFORGE
1000
floor:0
1000
preliminary
  0
LINE
  5
132
330
17
100
AcDbEntity
  8
A-WIND
100
AcDbLine
 10
4722.0
 20
9359.0
 30
0.0
 11
6822.0
 21
9359.0
 31
0.0
1001
FLOORFORGE
1000
floor:0
1000
preliminary
  0
LINE
  5
133
330
17
100
AcDbEntity
  8
A-WIND
100
AcDbLine
 10
4722.0
 20
9492.0
 30
0.0
 11
4722.0
 21
9262.0
 31
0.0
1001
FLOORFORGE
1000
floor:0
1000
preliminary
  0
LINE
  5
134
330
17
100
AcDbEntity
  8
A-WIND
100
AcDbLine
 10
6822.0
 20
9492.0
 30
0.0
 11
6822.0
 21
9262.0
 31
0.0
1001
FLOORFORGE
1000
floor:0
1000
preliminary
  0
TEXT
  5
135
330
17
100
AcDbEntity
  8
A-TAGS
100
AcDbText
 10
5772.0
 20
9812.0
 30
0.0
 40
150.0
  1
W6
 72
1
 11
5772.0
 21
9812.0
 31
0.0
100
AcDbText
 73
1
1001
FLOORFORGE
1000
floor:0
1000
preliminary
  0
LINE
  5
136
330
17
100
AcDbEntity
  8
A-WIND
100
AcDbLine
 10
7644.0
 20
375.0
 30
0.0
 11
7644.0
 21
3075.0
 31
0.0
1001
FLOORFORGE
1000
floor:0
1000
preliminary
  0
LINE
  5
137
330
17
100
AcDbEntity
  8
A-WIND
100
AcDbLine
 10
7414.0
 20
375.0
 30
0.0
 11
7414.0
 21
3075.0
 31
0.0
1001
FLOORFORGE
1000
floor:0
1000
preliminary
  0
LINE
  5
138
330
17
100
AcDbEntity
  8
A-WIND
100
AcDbLine
 10
7547.0
 20
375.0
 30
0.0
 11
7547.0
 21
3075.0
 31
0.0
1001
FLOORFORGE
1000
floor:0
1000
preliminary
  0
LINE
  5
139
330
17
100
AcDbEntity
  8
A-WIND
100
AcDbLine
 10
7511.0
 20
375.0
 30
0.0
 11
7511.0
 21
3075.0
 31
0.0
1001
FLOORFORGE
1000
floor:0
1000
preliminary
  0
LINE
  5
13A
330
17
100
AcDbEntity
  8
A-WIND
100
AcDbLine
 10
7644.0
 20
375.0
 30
0.0
 11
7414.0
 21
375.0
 31
0.0
1001
FLOORFORGE
1000
floor:0
1000
preliminary
  0
LINE
  5
13B
330
17
100
AcDbEntity
  8
A-WIND
100
AcDbLine
 10
7644.0
 20
3075.0
 30
0.0
 11
7414.0
 21
3075.0
 31
0.0
1001
FLOORFORGE
1000
floor:0
1000
preliminary
  0
TEXT
  5
13C
330
17
100
AcDbEntity
  8
A-TAGS
100
AcDbText
 10
8024.0
 20
1665.0
 30
0.0
 40
150.0
  1
W1
 72
1
 11
8024.0
 21
1665.0
 31
0.0
100
AcDbText
 73
1
1001
FLOORFORGE
1000
floor:0
1000
preliminary
  0
LINE
  5
13D
330
17
100
AcDbEntity
  8
A-WIND
100
AcDbLine
 10
7644.0
 20
4150.0
 30
0.0
 11
7644.0
 21
5650.0
 31
0.0
1001
FLOORFORGE
1000
floor:0
1000
preliminary
  0
LINE
  5
13E
330
17
100
AcDbEntity
  8
A-WIND
100
AcDbLine
 10
7414.0
 20
4150.0
 30
0.0
 11
7414.0
 21
5650.0
 31
0.0
1001
FLOORFORGE
1000
floor:0
1000
preliminary
  0
LINE
  5
13F
330
17
100
AcDbEntity
  8
A-WIND
100
AcDbLine
 10
7547.0
 20
4150.0
 30
0.0
 11
7547.0
 21
5650.0
 31
0.0
1001
FLOORFORGE
1000
floor:0
1000
preliminary
  0
LINE
  5
140
330
17
100
AcDbEntity
  8
A-WIND
100
AcDbLine
 10
7511.0
 20
4150.0
 30
0.0
 11
7511.0
 21
5650.0
 31
0.0
1001
FLOORFORGE
1000
floor:0
1000
preliminary
  0
LINE
  5
141
330
17
100
AcDbEntity
  8
A-WIND
100
AcDbLine
 10
7644.0
 20
4150.0
 30
0.0
 11
7414.0
 21
4150.0
 31
0.0
1001
FLOORFORGE
1000
floor:0
1000
preliminary
  0
LINE
  5
142
330
17
100
AcDbEntity
  8
A-WIND
100
AcDbLine
 10
7644.0
 20
5650.0
 30
0.0
 11
7414.0
 21
5650.0
 31
0.0
1001
FLOORFORGE
1000
floor:0
1000
preliminary
  0
TEXT
  5
143
330
17
100
AcDbEntity
  8
A-TAGS
100
AcDbText
 10
8024.0
 20
4840.0
 30
0.0
 40
150.0
  1
W7
 72
1
 11
8024.0
 21
4840.0
 31
0.0
100
AcDbText
 73
1
1001
FLOORFORGE
1000
floor:0
1000
preliminary
  0
LINE
  5
144
330
17
100
AcDbEntity
  8
A-WIND
100
AcDbLine
 10
7644.0
 20
7021.0
 30
0.0
 11
7644.0
 21
8821.0
 31
0.0
1001
FLOORFORGE
1000
floor:0
1000
preliminary
  0
LINE
  5
145
330
17
100
AcDbEntity
  8
A-WIND
100
AcDbLine
 10
7414.0
 20
7021.0
 30
0.0
 11
7414.0
 21
8821.0
 31
0.0
1001
FLOORFORGE
1000
floor:0
1000
preliminary
  0
LINE
  5
146
330
17
100
AcDbEntity
  8
A-WIND
100
AcDbLine
 10
7547.0
 20
7021.0
 30
0.0
 11
7547.0
 21
8821.0
 31
0.0
1001
FLOORFORGE
1000
floor:0
1000
preliminary
  0
LINE
  5
147
330
17
100
AcDbEntity
  8
A-WIND
100
AcDbLine
 10
7511.0
 20
7021.0
 30
0.0
 11
7511.0
 21
8821.0
 31
0.0
1001
FLOORFORGE
1000
floor:0
1000
preliminary
  0
LINE
  5
148
330
17
100
AcDbEntity
  8
A-WIND
100
AcDbLine
 10
7644.0
 20
7021.0
 30
0.0
 11
7414.0
 21
7021.0
 31
0.0
1001
FLOORFORGE
1000
floor:0
1000
preliminary
  0
LINE
  5
149
330
17
100
AcDbEntity
  8
A-WIND
100
AcDbLine
 10
7644.0
 20
8821.0
 30
0.0
 11
7414.0
 21
8821.0
 31
0.0
1001
FLOORFORGE
1000
floor:0
1000
preliminary
  0
TEXT
  5
14A
330
17
100
AcDbEntity
  8
A-TAGS
100
AcDbText
 10
8024.0
 20
7861.0
 30
0.0
 40
150.0
  1
W8
 72
1
 11
8024.0
 21
7861.0
 31
0.0
100
AcDbText
 73
1
1001
FLOORFORGE
1000
floor:0
1000
preliminary
  0
LWPOLYLINE
  5
14B
330
17
100
AcDbEntity
  8
A-FURN
100
AcDbPolyline
 90
4
 70
1
 10
6875.000000000001
 20
2195.0000000000005
 10
6875.000000000001
 20
3175.0
 10
4525.000000000001
 20
3175.0
 10
4525.000000000001
 20
2195.0000000000005
1001
FLOORFORGE
1000
floor:0
1000
preliminary
  0
LWPOLYLINE
  5
14C
330
17
100
AcDbEntity
  8
A-FURN
100
AcDbPolyline
 90
4
 70
1
 10
6250.000000000001
 20
1100.0
 10
6250.000000000001
 20
1850.0
 10
5150.000000000001
 20
1850.0
 10
5150.000000000001
 20
1100.0
1001
FLOORFORGE
1000
floor:0
1000
preliminary
  0
LWPOLYLINE
  5
14D
330
17
100
AcDbEntity
  8
A-FURN
100
AcDbPolyline
 90
4
 70
1
 10
7255.000000000001
 20
2495.0
 10
7255.000000000001
 20
2855.0
 10
6895.000000000001
 20
2855.0
 10
6895.000000000001
 20
2495.0
1001
FLOORFORGE
1000
floor:0
1000
preliminary
  0
LWPOLYLINE
  5
14E
330
17
100
AcDbEntity
  8
A-FURN
100
AcDbPolyline
 90
4
 70
1
 10
3200.0000000000005
 20
1080.0000000000005
 10
3200.0000000000005
 20
2480.0000000000005
 10
1360.0000000000007
 20
2480.0000000000005
 10
1360.0000000000007
 20
1080.0000000000005
1001
FLOORFORGE
1000
floor:0
1000
preliminary
  0
LWPOLYLINE
  5
14F
330
17
100
AcDbEntity
  8
A-FURN
100
AcDbPolyline
 90
4
 70
1
 10
890.0
 20
4135.000000000001
 10
890.0
 20
5995.000000000002
 10
235.00000000000003
 20
5995.000000000002
 10
235.00000000000003
 20
4135.000000000001
1001
FLOORFORGE
1000
floor:0
1000
preliminary
  0
LWPOLYLINE
  5
150
330
17
100
AcDbEntity
  8
A-FURN
100
AcDbPolyline
 90
4
 70
1
 10
2029.9999999999998
 20
7155.0
 10
2029.9999999999998
 20
7755.000000000001
 10
529.9999999999998
 20
7755.000000000001
 10
529.9999999999998
 20
7155.0
1001
FLOORFORGE
1000
floor:0
1000
preliminary
  0
LWPOLYLINE
  5
151
330
17
100
AcDbEntity
  8
A-FURN
100
AcDbPolyline
 90
4
 70
1
 10
860.0
 20
8522.0
 10
860.0
 20
9242.0
 10
400.0
 20
9242.0
 10
400.0
 20
8522.0
1001
FLOORFORGE
1000
floor:0
1000
preliminary
  0
LWPOLYLINE
  5
152
330
17
100
AcDbEntity
  8
A-FURN
100
AcDbPolyline
 90
4
 70
1
 10
1829.9999999999995
 20
8742.0
 10
1829.9999999999995
 20
9242.0
 10
1029.9999999999998
 20
9242.0
 10
1029.9999999999998
 20
8742.0
1001
FLOORFORGE
1000
floor:0
1000
preliminary
  0
LWPOLYLINE
  5
153
330
17
100
AcDbEntity
  8
A-FURN
100
AcDbPolyline
 90
4
 70
1
 10
7374.999999999999
 20
4085.000000000001
 10
7374.999999999999
 20
6255.000000000001
 10
5774.999999999999
 20
6255.000000000001
 10
5774.999999999999
 20
4085.000000000001
1001
FLOORFORGE
1000
floor:0
1000
preliminary
  0
LWPOLYLINE
  5
154
330
17
100
AcDbEntity
  8
A-FURN
100
AcDbPolyline
 90
4
 70
1
 10
5775.0
 20
5675.000000000001
 10
5775.0
 20
6275.0
 10
3975.0
 20
6275.0
 10
3975.0
 20
5675.000000000001
1001
FLOORFORGE
1000
floor:0
1000
preliminary
  0
LWPOLYLINE
  5
155
330
17
100
AcDbEntity
  8
A-FURN
100
AcDbPolyline
 90
4
 70
1
 10
7414.0
 20
6444.999999999999
 10
7414.0
 20
8615.0
 10
5814.0
 20
8615.0
 10
5814.0
 20
6444.999999999999
1001
FLOORFORGE
1000
floor:0
1000
preliminary
  0
LWPOLYLINE
  5
156
330
17
100
AcDbEntity
  8
A-FURN
100
AcDbPolyline
 90
4
 70
1
 10
4575.0
 20
7524.999999999998
 10
4575.0
 20
9024.999999999998
 10
3975.0
 20
9024.999999999998
 10
3975.0
 20
7524.999999999998
1001
FLOORFORGE
1000
floor:0
1000
preliminary
  0
LWPOLYLINE
  5
157
330
17
100
AcDbEntity
  8
A-EXT
100
AcDbPolyline
 90
4
 70
1
 10
0.0
 20
-900.0
 10
3210.0
 20
-900.0
 10
3210.0
 20
0.0
 10
0.0
 20
0.0
1001
FLOORFORGE
1000
floor:0
1000
preliminary
  0
TEXT
  5
158
330
17
100
AcDbEntity
  8
A-EXT
100
AcDbText
 10
1605.0
 20
-780.0
 30
0.0
 40
130.0
  1
PORCH
 72
1
 11
1605.0
 21
-780.0
 31
0.0
100
AcDbText
 73
1
1001
FLOORFORGE
1000
floor:0
1000
preliminary
  0
LWPOLYLINE
  5
159
330
17
100
AcDbEntity
  8
A-EXT
100
AcDbPolyline
 90
4
 70
1
 10
6272.0
 20
-70.0
 10
7564.0
 20
-70.0
 10
7564.0
 20
0.0
 10
6272.0
 20
0.0
1001
FLOORFORGE
1000
floor:0
1000
preliminary
  0
TEXT
  5
15A
330
17
100
AcDbEntity
  8
A-EXT
100
AcDbText
 10
6918.0
 20
-320.0
 30
0.0
 40
130.0
  1
FEATURE WALL
 72
1
 11
6918.0
 21
-320.0
 31
0.0
100
AcDbText
 73
1
1001
FLOORFORGE
1000
floor:0
1000
preliminary
  0
TEXT
  5
15B
330
17
100
AcDbEntity
  8
A-ANNO
100
AcDbText
 10
3323.890625
 20
1924.015625
 30
0.0
 40
220.0
  1
LIVING & DINING
 72
1
 11
3323.890625
 21
1924.015625
 31
0.0
100
AcDbText
 73
1
1001
FLOORFORGE
1000
floor:0
1000
preliminary
  0
TEXT
  5
15C
330
17
100
AcDbEntity
  8
A-ANNO
100
AcDbText
 10
3323.890625
 20
1644.515625
 30
0.0
 40
150.0
  1
7.18 x 3.15*
 72
1
 11
3323.890625
 21
1644.515625
 31
0.0
100
AcDbText
 73
1
1001
FLOORFORGE
1000
floor:0
1000
preliminary
  0
TEXT
  5
15D
330
17
100
AcDbEntity
  8
A-ANNO
100
AcDbText
 10
3323.890625
 20
1434.515625
 30
0.0
 40
150.0
  1
22.7 m2
 72
1
 11
3323.890625
 21
1434.515625
 31
0.0
100
AcDbText
 73
1
1001
FLOORFORGE
1000
floor:0
1000
preliminary
  0
TEXT
  5
15E
330
17
100
AcDbEntity
  8
A-ANNO
100
AcDbText
 10
3225.0
 20
6447.0
 30
0.0
 40
170.0
  1
HALL
 72
1
 11
3225.0
 21
6447.0
 31
0.0
100
AcDbText
 73
1
1001
FLOORFORGE
1000
floor:0
1000
preliminary
  0
TEXT
  5
15F
330
17
100
AcDbEntity
  8
A-ANNO
100
AcDbText
 10
1352.5
 20
4977.0
 30
0.0
 40
220.0
  1
KITCHEN
 72
1
 11
1352.5
 21
4977.0
 31
0.0
100
AcDbText
 73
1
1001
FLOORFORGE
1000
floor:0
1000
preliminary
  0
TEXT
  5
160
330
17
100
AcDbEntity
  8
A-ANNO
100
AcDbText
 10
1352.5
 20
4697.5
 30
0.0
 40
150.0
  1
2.25 x 2.75
 72
1
 11
1352.5
 21
4697.5
 31
0.0
100
AcDbText
 73
1
1001
FLOORFORGE
1000
floor:0
1000
preliminary
  0
TEXT
  5
161
330
17
100
AcDbEntity
  8
A-ANNO
100
AcDbText
 10
1352.5
 20
4487.5
 30
0.0
 40
150.0
  1
6.2 m2
 72
1
 11
1352.5
 21
4487.5
 31
0.0
100
AcDbText
 73
1
1001
FLOORFORGE
1000
floor:0
1000
preliminary
  0
TEXT
  5
162
330
17
100
AcDbEntity
  8
A-ANNO
100
AcDbText
 10
1352.5
 20
7159.5
 30
0.0
 40
170.0
  1
UTILITY
 72
1
 11
1352.5
 21
7159.5
 31
0.0
100
AcDbText
 73
1
1001
FLOORFORGE
1000
floor:0
1000
preliminary
  0
TEXT
  5
163
330
17
100
AcDbEntity
  8
A-ANNO
100
AcDbText
 10
1352.5
 20
6924.5
 30
0.0
 40
130.0
  1
2.25 x 1.35
 72
1
 11
1352.5
 21
6924.5
 31
0.0
100
AcDbText
 73
1
1001
FLOORFORGE
1000
floor:0
1000
preliminary
  0
TEXT
  5
164
330
17
100
AcDbEntity
  8
A-ANNO
100
AcDbText
 10
1352.5
 20
6742.5
 30
0.0
 40
130.0
  1
3.0 m2
 72
1
 11
1352.5
 21
6742.5
 31
0.0
100
AcDbText
 73
1
1001
FLOORFORGE
1000
floor:0
1000
preliminary
  0
TEXT
  5
165
330
17
100
AcDbEntity
  8
A-ANNO
100
AcDbText
 10
1352.5
 20
8653.0
 30
0.0
 40
170.0
  1
COMMON BATH
 72
1
 11
1352.5
 21
8653.0
 31
0.0
100
AcDbText
 73
1
1001
FLOORFORGE
1000
floor:0
1000
preliminary
  0
TEXT
  5
166
330
17
100
AcDbEntity
  8
A-ANNO
100
AcDbText
 10
1352.5
 20
8418.0
 30
0.0
 40
130.0
  1
2.25 x 1.34
 72
1
 11
1352.5
 21
8418.0
 31
0.0
100
AcDbText
 73
1
1001
FLOORFORGE
1000
floor:0
1000
preliminary
  0
TEXT
  5
167
330
17
100
AcDbEntity
  8
A-ANNO
100
AcDbText
 10
1352.5
 20
8236.0
 30
0.0
 40
130.0
  1
3.0 m2
 72
1
 11
1352.5
 21
8236.0
 31
0.0
100
AcDbText
 73
1
1001
FLOORFORGE
1000
floor:0
1000
preliminary
  0
TEXT
  5
168
330
17
100
AcDbEntity
  8
A-ANNO
100
AcDbText
 10
5694.5
 20
4977.0
 30
0.0
 40
220.0
  1
BEDROOM 1
 72
1
 11
5694.5
 21
4977.0
 31
0.0
100
AcDbText
 73
1
1001
FLOORFORGE
1000
floor:0
1000
preliminary
  0
TEXT
  5
169
330
17
100
AcDbEntity
  8
A-ANNO
100
AcDbText
 10
5694.5
 20
4697.5
 30
0.0
 40
150.0
  1
3.44 x 2.75
 72
1
 11
5694.5
 21
4697.5
 31
0.0
100
AcDbText
 73
1
1001
FLOORFORGE
1000
floor:0
1000
preliminary
  0
TEXT
  5
16A
330
17
100
AcDbEntity
  8
A-ANNO
100
AcDbText
 10
5694.5
 20
4487.5
 30
0.0
 40
150.0
  1
9.5 m2
 72
1
 11
5694.5
 21
4487.5
 31
0.0
100
AcDbText
 73
1
1001
FLOORFORGE
1000
floor:0
1000
preliminary
  0
TEXT
  5
16B
330
17
100
AcDbEntity
  8
A-ANNO
100
AcDbText
 10
5694.5
 20
7920.5
 30
0.0
 40
220.0
  1
MASTER BEDROOM
 72
1
 11
5694.5
 21
7920.5
 31
0.0
100
AcDbText
 73
1
1001
FLOORFORGE
1000
floor:0
1000
preliminary
  0
TEXT
  5
16C
330
17
100
AcDbEntity
  8
A-ANNO
100
AcDbText
 10
5694.5
 20
7641.0
 30
0.0
 40
150.0
  1
3.44 x 2.84
 72
1
 11
5694.5
 21
7641.0
 31
0.0
100
AcDbText
 73
1
1001
FLOORFORGE
1000
floor:0
1000
preliminary
  0
TEXT
  5
16D
330
17
100
AcDbEntity
  8
A-ANNO
100
AcDbText
 10
5694.5
 20
7431.0
 30
0.0
 40
150.0
  1
9.8 m2
 72
1
 11
5694.5
 21
7431.0
 31
0.0
100
AcDbText
 73
1
1001
FLOORFORGE
1000
floor:0
1000
preliminary
  0
DIMENSION
  5
16E
330
17
100
AcDbEntity
  8
A-DIMS
100
AcDbDimension
280
0
  2
*D1
  3
FF-ARCH
 10
0.0
 20
-1450.0
 30
0.0
 11
350.0
 21
-1300.0
 31
0.0
 70
32
 71
5
  1
<>
100
AcDbAlignedDimension
 13
0.0
 23
0.0
 33
0.0
 14
700.0
 24
0.0
 34
0.0
 50
0.0
100
AcDbRotatedDimension
1001
FLOORFORGE
1000
floor:0
1000
preliminary
  0
DIMENSION
  5
181
330
17
100
AcDbEntity
  8
A-DIMS
100
AcDbDimension
280
0
  2
*D2
  3
FF-ARCH
 10
700.0
 20
-1450.0
 30
0.0
 11
1300.0
 21
-1300.0
 31
0.0
 70
32
 71
5
  1
<>
100
AcDbAlignedDimension
 13
700.0
 23
0.0
 33
0.0
 14
1900.0
 24
0.0
 34
0.0
 50
0.0
100
AcDbRotatedDimension
1001
FLOORFORGE
1000
floor:0
1000
preliminary
  0
DIMENSION
  5
190
330
17
100
AcDbEntity
  8
A-DIMS
100
AcDbDimension
280
0
  2
*D3
  3
FF-ARCH
 10
1900.0
 20
-1450.0
 30
0.0
 11
2061.0
 21
-1180.0
 31
0.0
 70
32
 71
5
  1
<>
100
AcDbAlignedDimension
 13
1900.0
 23
0.0
 33
0.0
 14
2222.0
 24
0.0
 34
0.0
 50
0.0
100
AcDbRotatedDimension
1001
FLOORFORGE
1000
floor:0
1000
preliminary
  0
DIMENSION
  5
19F
330
17
100
AcDbEntity
  8
A-DIMS
100
AcDbDimension
280
0
  2
*D4
  3
FF-ARCH
 10
2222.0
 20
-1450.0
 30
0.0
 11
4772.0
 21
-1300.0
 31
0.0
 70
32
 71
5
  1
<>
100
AcDbAlignedDimension
 13
2222.0
 23
0.0
 33
0.0
 14
7322.0
 24
0.0
 34
0.0
 50
0.0
100
AcDbRotatedDimension
1001
FLOORFORGE
1000
floor:0
1000
preliminary
  0
DIMENSION
  5
1AE
330
17
100
AcDbEntity
  8
A-DIMS
100
AcDbDimension
280
0
  2
*D5
  3
FF-ARCH
 10
7322.0
 20
-1450.0
 30
0.0
 11
7483.0
 21
-1180.0
 31
0.0
 70
32
 71
5
  1
<>
100
AcDbAlignedDimension
 13
7322.0
 23
0.0
 33
0.0
 14
7644.0
 24
0.0
 34
0.0
 50
0.0
100
AcDbRotatedDimension
1001
FLOORFORGE
1000
floor:0
1000
preliminary
  0
DIMENSION
  5
1BD
330
17
100
AcDbEntity
  8
A-DIMS
100
AcDbDimension
280
0
  2
*D6
  3
FF-ARCH
 10
0.0
 20
-1900.0
 30
0.0
 11
3822.0
 21
-1750.0
 31
0.0
 70
32
 71
5
  1
<>
100
AcDbAlignedDimension
 13
0.0
 23
0.0
 33
0.0
 14
7644.0
 24
0.0
 34
0.0
 50
0.0
100
AcDbRotatedDimension
1001
FLOORFORGE
1000
floor:0
1000
preliminary
  0
DIMENSION
  5
1CC
330
17
100
AcDbEntity
  8
A-DIMS
100
AcDbDimension
280
0
  2
*D7
  3
FF-ARCH
 10
0.0
 20
10042.0
 30
0.0
 11
338.0
 21
10192.0
 31
0.0
 70
32
 71
5
  1
<>
100
AcDbAlignedDimension
 13
0.0
 23
9492.0
 33
0.0
 14
676.0
 24
9492.0
 34
0.0
 50
0.0
100
AcDbRotatedDimension
1001
FLOORFORGE
1000
floor:0
1000
preliminary
  0
DIMENSION
  5
1DB
330
17
100
AcDbEntity
  8
A-DIMS
100
AcDbDimension
280
0
  2
*D8
  3
FF-ARCH
 10
676.0
 20
10042.0
 30
0.0
 11
1276.0
 21
10192.0
 31
0.0
 70
32
 71
5
  1
<>
100
AcDbAlignedDimension
 13
676.0
 23
9492.0
 33
0.0
 14
1876.0
 24
9492.0
 34
0.0
 50
0.0
100
AcDbRotatedDimension
1001
FLOORFORGE
1000
floor:0
1000
preliminary
  0
DIMENSION
  5
1EA
330
17
100
AcDbEntity
  8
A-DIMS
100
AcDbDimension
280
0
  2
*D9
  3
FF-ARCH
 10
1876.0
 20
10042.0
 30
0.0
 11
2400.5
 21
10192.0
 31
0.0
 70
32
 71
5
  1
<>
100
AcDbAlignedDimension
 13
1876.0
 23
9492.0
 33
0.0
 14
2925.0
 24
9492.0
 34
0.0
 50
0.0
100
AcDbRotatedDimension
1001
FLOORFORGE
1000
floor:0
1000
preliminary
  0
DIMENSION
  5
1F9
330
17
100
AcDbEntity
  8
A-DIMS
100
AcDbDimension
280
0
  2
*D10
  3
FF-ARCH
 10
2925.0
 20
10042.0
 30
0.0
 11
3225.0
 21
10192.0
 31
0.0
 70
32
 71
5
  1
<>
100
AcDbAlignedDimension
 13
2925.0
 23
9492.0
 33
0.0
 14
3525.0
 24
9492.0
 34
0.0
 50
0.0
100
AcDbRotatedDimension
1001
FLOORFORGE
1000
floor:0
1000
preliminary
  0
DIMENSION
  5
208
330
17
100
AcDbEntity
  8
A-DIMS
100
AcDbDimension
280
0
  2
*D11
  3
FF-ARCH
 10
3525.0
 20
10042.0
 30
0.0
 11
4123.5
 21
10192.0
 31
0.0
 70
32
 71
5
  1
<>
100
AcDbAlignedDimension
 13
3525.0
 23
9492.0
 33
0.0
 14
4722.0
 24
9492.0
 34
0.0
 50
0.0
100
AcDbRotatedDimension
1001
FLOORFORGE
1000
floor:0
1000
preliminary
  0
DIMENSION
  5
217
330
17
100
AcDbEntity
  8
A-DIMS
100
AcDbDimension
280
0
  2
*D12
  3
FF-ARCH
 10
4722.0
 20
10042.0
 30
0.0
 11
5772.0
 21
10192.0
 31
0.0
 70
32
 71
5
  1
<>
100
AcDbAlignedDimension
 13
4722.0
 23
9492.0
 33
0.0
 14
6822.0
 24
9492.0
 34
0.0
 50
0.0
100
AcDbRotatedDimension
1001
FLOORFORGE
1000
floor:0
1000
preliminary
  0
DIMENSION
  5
226
330
17
100
AcDbEntity
  8
A-DIMS
100
AcDbDimension
280
0
  2
*D13
  3
FF-ARCH
 10
6822.0
 20
10042.0
 30
0.0
 11
7233.0
 21
10192.0
 31
0.0
 70
32
 71
5
  1
<>
100
AcDbAlignedDimension
 13
6822.0
 23
9492.0
 33
0.0
 14
7644.0
 24
9492.0
 34
0.0
 50
0.0
100
AcDbRotatedDimension
1001
FLOORFORGE
1000
floor:0
1000
preliminary
  0
DIMENSION
  5
235
330
17
100
AcDbEntity
  8
A-DIMS
100
AcDbDimension
280
0
  2
*D14
  3
FF-ARCH
 10
0.0
 20
10492.0
 30
0.0
 11
1275.0
 21
10642.0
 31
0.0
 70
32
 71
5
  1
<>
100
AcDbAlignedDimension
 13
0.0
 23
9492.0
 33
0.0
 14
2550.0
 24
9492.0
 34
0.0
 50
0.0
100
AcDbRotatedDimension
1001
FLOORFORGE
1000
floor:0
1000
preliminary
  0
DIMENSION
  5
244
330
17
100
AcDbEntity
  8
A-DIMS
100
AcDbDimension
280
0
  2
*D15
  3
FF-ARCH
 10
2550.0
 20
10492.0
 30
0.0
 11
3225.0
 21
10642.0
 31
0.0
 70
32
 71
5
  1
<>
100
AcDbAlignedDimension
 13
2550.0
 23
9492.0
 33
0.0
 14
3900.0
 24
9492.0
 34
0.0
 50
0.0
100
AcDbRotatedDimension
1001
FLOORFORGE
1000
floor:0
1000
preliminary
  0
DIMENSION
  5
253
330
17
100
AcDbEntity
  8
A-DIMS
100
AcDbDimension
280
0
  2
*D16
  3
FF-ARCH
 10
3900.0
 20
10492.0
 30
0.0
 11
5772.0
 21
10642.0
 31
0.0
 70
32
 71
5
  1
<>
100
AcDbAlignedDimension
 13
3900.0
 23
9492.0
 33
0.0
 14
7644.0
 24
9492.0
 34
0.0
 50
0.0
100
AcDbRotatedDimension
1001
FLOORFORGE
1000
floor:0
1000
preliminary
  0
DIMENSION
  5
262
330
17
100
AcDbEntity
  8
A-DIMS
100
AcDbDimension
280
0
  2
*D17
  3
FF-ARCH
 10
0.0
 20
10942.0
 30
0.0
 11
3822.0
 21
11092.0
 31
0.0
 70
32
 71
5
  1
<>
100
AcDbAlignedDimension
 13
0.0
 23
9492.0
 33
0.0
 14
7644.0
 24
9492.0
 34
0.0
 50
0.0
100
AcDbRotatedDimension
1001
FLOORFORGE
1000
floor:0
1000
preliminary
  0
DIMENSION
  5
271
330
17
100
AcDbEntity
  8
A-DIMS
100
AcDbDimension
280
0
  2
*D18
  3
FF-ARCH
 10
-550.0
 20
0.0
 30
0.0
 11
-820.0
 21
187.5
 31
0.0
 70
32
 71
5
  1
<>
100
AcDbAlignedDimension
 13
0.0
 23
0.0
 33
0.0
 14
0.0
 24
375.0
 34
0.0
 50
90.0
100
AcDbRotatedDimension
1001
FLOORFORGE
1000
floor:0
1000
preliminary
  0
DIMENSION
  5
280
330
17
100
AcDbEntity
  8
A-DIMS
100
AcDbDimension
280
0
  2
*D19
  3
FF-ARCH
 10
-550.0
 20
375.0
 30
0.0
 11
-700.0
 21
1725.0
 31
0.0
 70
32
 71
5
  1
<>
100
AcDbAlignedDimension
 13
0.0
 23
375.0
 33
0.0
 14
0.0
 24
3075.0
 34
0.0
 50
90.0
100
AcDbRotatedDimension
1001
FLOORFORGE
1000
floor:0
1000
preliminary
  0
DIMENSION
  5
28F
330
17
100
AcDbEntity
  8
A-DIMS
100
AcDbDimension
280
0
  2
*D20
  3
FF-ARCH
 10
-550.0
 20
3075.0
 30
0.0
 11
-700.0
 21
3612.5
 31
0.0
 70
32
 71
5
  1
<>
100
AcDbAlignedDimension
 13
0.0
 23
3075.0
 33
0.0
 14
0.0
 24
4150.0
 34
0.0
 50
90.0
100
AcDbRotatedDimension
1001
FLOORFORGE
1000
floor:0
1000
preliminary
  0
DIMENSION
  5
29E
330
17
100
AcDbEntity
  8
A-DIMS
100
AcDbDimension
280
0
  2
*D21
  3
FF-ARCH
 10
-550.0
 20
4150.0
 30
0.0
 11
-700.0
 21
4900.0
 31
0.0
 70
32
 71
5
  1
<>
100
AcDbAlignedDimension
 13
0.0
 23
4150.0
 33
0.0
 14
0.0
 24
5650.0
 34
0.0
 50
90.0
100
AcDbRotatedDimension
1001
FLOORFORGE
1000
floor:0
1000
preliminary
  0
DIMENSION
  5
2AD
330
17
100
AcDbEntity
  8
A-DIMS
100
AcDbDimension
280
0
  2
*D22
  3
FF-ARCH
 10
-550.0
 20
5650.0
 30
0.0
 11
-700.0
 21
6150.0
 31
0.0
 70
32
 71
5
  1
<>
100
AcDbAlignedDimension
 13
0.0
 23
5650.0
 33
0.0
 14
0.0
 24
6650.0
 34
0.0
 50
90.0
100
AcDbRotatedDimension
1001
FLOORFORGE
1000
floor:0
1000
preliminary
  0
DIMENSION
  5
2BC
330
17
100
AcDbEntity
  8
A-DIMS
100
AcDbDimension
280
0
  2
*D23
  3
FF-ARCH
 10
-550.0
 20
6650.0
 30
0.0
 11
-700.0
 21
7100.0
 31
0.0
 70
32
 71
5
  1
<>
100
AcDbAlignedDimension
 13
0.0
 23
6650.0
 33
0.0
 14
0.0
 24
7550.0
 34
0.0
 50
90.0
100
AcDbRotatedDimension
1001
FLOORFORGE
1000
floor:0
1000
preliminary
  0
DIMENSION
  5
2CB
330
17
100
AcDbEntity
  8
A-DIMS
100
AcDbDimension
280
0
  2
*D24
  3
FF-ARCH
 10
-550.0
 20
7550.0
 30
0.0
 11
-700.0
 21
7923.0
 31
0.0
 70
32
 71
5
  1
<>
100
AcDbAlignedDimension
 13
0.0
 23
7550.0
 33
0.0
 14
0.0
 24
8296.0
 34
0.0
 50
90.0
100
AcDbRotatedDimension
1001
FLOORFORGE
1000
floor:0
1000
preliminary
  0
DIMENSION
  5
2DA
330
17
100
AcDbEntity
  8
A-DIMS
100
AcDbDimension
280
0
  2
*D25
  3
FF-ARCH
 10
-550.0
 20
8296.0
 30
0.0
 11
-700.0
 21
8671.0
 31
0.0
 70
32
 71
5
  1
<>
100
AcDbAlignedDimension
 13
0.0
 23
8296.0
 33
0.0
 14
0.0
 24
9046.0
 34
0.0
 50
90.0
100
AcDbRotatedDimension
1001
FLOORFORGE
1000
floor:0
1000
preliminary
  0
DIMENSION
  5
2E9
330
17
100
AcDbEntity
  8
A-DIMS
100
AcDbDimension
280
0
  2
*D26
  3
FF-ARCH
 10
-550.0
 20
9046.0
 30
0.0
 11
-820.0
 21
9269.0
 31
0.0
 70
32
 71
5
  1
<>
100
AcDbAlignedDimension
 13
0.0
 23
9046.0
 33
0.0
 14
0.0
 24
9492.0
 34
0.0
 50
90.0
100
AcDbRotatedDimension
1001
FLOORFORGE
1000
floor:0
1000
preliminary
  0
DIMENSION
  5
2F8
330
17
100
AcDbEntity
  8
A-DIMS
100
AcDbDimension
280
0
  2
*D27
  3
FF-ARCH
 10
-1000.0
 20
0.0
 30
0.0
 11
-1150.0
 21
1725.0
 31
0.0
 70
32
 71
5
  1
<>
100
AcDbAlignedDimension
 13
0.0
 23
0.0
 33
0.0
 14
0.0
 24
3450.0
 34
0.0
 50
90.0
100
AcDbRotatedDimension
1001
FLOORFORGE
1000
floor:0
1000
preliminary
  0
DIMENSION
  5
307
330
17
100
AcDbEntity
  8
A-DIMS
100
AcDbDimension
280
0
  2
*D28
  3
FF-ARCH
 10
-1000.0
 20
3450.0
 30
0.0
 11
-1150.0
 21
4900.0
 31
0.0
 70
32
 71
5
  1
<>
100
AcDbAlignedDimension
 13
0.0
 23
3450.0
 33
0.0
 14
0.0
 24
6350.0
 34
0.0
 50
90.0
100
AcDbRotatedDimension
1001
FLOORFORGE
1000
floor:0
1000
preliminary
  0
DIMENSION
  5
316
330
17
100
AcDbEntity
  8
A-DIMS
100
AcDbDimension
280
0
  2
*D29
  3
FF-ARCH
 10
-1000.0
 20
6350.0
 30
0.0
 11
-1150.0
 21
7100.0
 31
0.0
 70
32
 71
5
  1
<>
100
AcDbAlignedDimension
 13
0.0
 23
6350.0
 33
0.0
 14
0.0
 24
7850.0
 34
0.0
 50
90.0
100
AcDbRotatedDimension
1001
FLOORFORGE
1000
floor:0
1000
preliminary
  0
DIMENSION
  5
325
330
17
100
AcDbEntity
  8
A-DIMS
100
AcDbDimension
280
0
  2
*D30
  3
FF-ARCH
 10
-1000.0
 20
7850.0
 30
0.0
 11
-1150.0
 21
8671.0
 31
0.0
 70
32
 71
5
  1
<>
100
AcDbAlignedDimension
 13
0.0
 23
7850.0
 33
0.0
 14
0.0
 24
9492.0
 34
0.0
 50
90.0
100
AcDbRotatedDimension
1001
FLOORFORGE
1000
floor:0
1000
preliminary
  0
DIMENSION
  5
334
330
17
100
AcDbEntity
  8
A-DIMS
100
AcDbDimension
280
0
  2
*D31
  3
FF-ARCH
 10
-1450.0
 20
0.0
 30
0.0
 11
-1600.0
 21
4746.0
 31
0.0
 70
32
 71
5
  1
<>
100
AcDbAlignedDimension
 13
0.0
 23
0.0
 33
0.0
 14
0.0
 24
9492.0
 34
0.0
 50
90.0
100
AcDbRotatedDimension
1001
FLOORFORGE
1000
floor:0
1000
preliminary
  0
DIMENSION
  5
343
330
17
100
AcDbEntity
  8
A-DIMS
100
AcDbDimension
280
0
  2
*D32
  3
FF-ARCH
 10
8194.0
 20
0.0
 30
0.0
 11
7924.0
 21
187.5
 31
0.0
 70
32
 71
5
  1
<>
100
AcDbAlignedDimension
 13
7644.0
 23
0.0
 33
0.0
 14
7644.0
 24
375.0
 34
0.0
 50
90.0
100
AcDbRotatedDimension
1001
FLOORFORGE
1000
floor:0
1000
preliminary
  0
DIMENSION
  5
352
330
17
100
AcDbEntity
  8
A-DIMS
100
AcDbDimension
280
0
  2
*D33
  3
FF-ARCH
 10
8194.0
 20
375.0
 30
0.0
 11
8044.0
 21
1725.0
 31
0.0
 70
32
 71
5
  1
<>
100
AcDbAlignedDimension
 13
7644.0
 23
375.0
 33
0.0
 14
7644.0
 24
3075.0
 34
0.0
 50
90.0
100
AcDbRotatedDimension
1001
FLOORFORGE
1000
floor:0
1000
preliminary
  0
DIMENSION
  5
361
330
17
100
AcDbEntity
  8
A-DIMS
100
AcDbDimension
280
0
  2
*D34
  3
FF-ARCH
 10
8194.0
 20
3075.0
 30
0.0
 11
8044.0
 21
3612.5
 31
0.0
 70
32
 71
5
  1
<>
100
AcDbAlignedDimension
 13
7644.0
 23
3075.0
 33
0.0
 14
7644.0
 24
4150.0
 34
0.0
 50
90.0
100
AcDbRotatedDimension
1001
FLOORFORGE
1000
floor:0
1000
preliminary
  0
DIMENSION
  5
370
330
17
100
AcDbEntity
  8
A-DIMS
100
AcDbDimension
280
0
  2
*D35
  3
FF-ARCH
 10
8194.0
 20
4150.0
 30
0.0
 11
8044.0
 21
4900.0
 31
0.0
 70
32
 71
5
  1
<>
100
AcDbAlignedDimension
 13
7644.0
 23
4150.0
 33
0.0
 14
7644.0
 24
5650.0
 34
0.0
 50
90.0
100
AcDbRotatedDimension
1001
FLOORFORGE
1000
floor:0
1000
preliminary
  0
DIMENSION
  5
37F
330
17
100
AcDbEntity
  8
A-DIMS
100
AcDbDimension
280
0
  2
*D36
  3
FF-ARCH
 10
8194.0
 20
5650.0
 30
0.0
 11
8044.0
 21
6335.5
 31
0.0
 70
32
 71
5
  1
<>
100
AcDbAlignedDimension
 13
7644.0
 23
5650.0
 33
0.0
 14
7644.0
 24
7021.0
 34
0.0
 50
90.0
100
AcDbRotatedDimension
1001
FLOORFORGE
1000
floor:0
1000
preliminary
  0
DIMENSION
  5
38E
330
17
100
AcDbEntity
  8
A-DIMS
100
AcDbDimension
280
0
  2
*D37
  3
FF-ARCH
 10
8194.0
 20
7021.0
 30
0.0
 11
8044.0
 21
7921.0
 31
0.0
 70
32
 71
5
  1
<>
100
AcDbAlignedDimension
 13
7644.0
 23
7021.0
 33
0.0
 14
7644.0
 24
8821.0
 34
0.0
 50
90.0
100
AcDbRotatedDimension
1001
FLOORFORGE
1000
floor:0
1000
preliminary
  0
DIMENSION
  5
39D
330
17
100
AcDbEntity
  8
A-DIMS
100
AcDbDimension
280
0
  2
*D38
  3
FF-ARCH
 10
8194.0
 20
8821.0
 30
0.0
 11
8044.0
 21
9156.5
 31
0.0
 70
32
 71
5
  1
<>
100
AcDbAlignedDimension
 13
7644.0
 23
8821.0
 33
0.0
 14
7644.0
 24
9492.0
 34
0.0
 50
90.0
100
AcDbRotatedDimension
1001
FLOORFORGE
1000
floor:0
1000
preliminary
  0
DIMENSION
  5
3AC
330
17
100
AcDbEntity
  8
A-DIMS
100
AcDbDimension
280
0
  2
*D39
  3
FF-ARCH
 10
8644.0
 20
0.0
 30
0.0
 11
8494.0
 21
1725.0
 31
0.0
 70
32
 71
5
  1
<>
100
AcDbAlignedDimension
 13
7644.0
 23
0.0
 33
0.0
 14
7644.0
 24
3450.0
 34
0.0
 50
90.0
100
AcDbRotatedDimension
1001
FLOORFORGE
1000
floor:0
1000
preliminary
  0
DIMENSION
  5
3BB
330
17
100
AcDbEntity
  8
A-DIMS
100
AcDbDimension
280
0
  2
*D40
  3
FF-ARCH
 10
8644.0
 20
3450.0
 30
0.0
 11
8494.0
 21
4900.0
 31
0.0
 70
32
 71
5
  1
<>
100
AcDbAlignedDimension
 13
7644.0
 23
3450.0
 33
0.0
 14
7644.0
 24
6350.0
 34
0.0
 50
90.0
100
AcDbRotatedDimension
1001
FLOORFORGE
1000
floor:0
1000
preliminary
  0
DIMENSION
  5
3CA
330
17
100
AcDbEntity
  8
A-DIMS
100
AcDbDimension
280
0
  2
*D41
  3
FF-ARCH
 10
8644.0
 20
6350.0
 30
0.0
 11
8494.0
 21
7921.0
 31
0.0
 70
32
 71
5
  1
<>
100
AcDbAlignedDimension
 13
7644.0
 23
6350.0
 33
0.0
 14
7644.0
 24
9492.0
 34
0.0
 50
90.0
100
AcDbRotatedDimension
1001
FLOORFORGE
1000
floor:0
1000
preliminary
  0
DIMENSION
  5
3D9
330
17
100
AcDbEntity
  8
A-DIMS
100
AcDbDimension
280
0
  2
*D42
  3
FF-ARCH
 10
9094.0
 20
0.0
 30
0.0
 11
8944.0
 21
4746.0
 31
0.0
 70
32
 71
5
  1
<>
100
AcDbAlignedDimension
 13
7644.0
 23
0.0
 33
0.0
 14
7644.0
 24
9492.0
 34
0.0
 50
90.0
100
AcDbRotatedDimension
1001
FLOORFORGE
1000
floor:0
1000
preliminary
  0
LINE
  5
3E8
330
17
100
AcDbEntity
  8
A-GRID
100
AcDbLine
 10
115.0
 20
-1100.0
 30
0.0
 11
115.0
 21
11292.0
 31
0.0
1001
FLOORFORGE
1000
floor:0
1000
preliminary
  0
CIRCLE
  5
3E9
330
17
100
AcDbEntity
  8
A-GRID
100
AcDbCircle
 10
115.0
 20
11592.0
 30
0.0
 40
300.0
1001
FLOORFORGE
1000
floor:0
1000
preliminary
  0
TEXT
  5
3EA
330
17
100
AcDbEntity
  8
A-GRID
100
AcDbText
 10
115.0
 20
11502.0
 30
0.0
 40
220.0
  1
A
 72
1
 11
115.0
 21
11502.0
 31
0.0
100
AcDbText
 73
1
1001
FLOORFORGE
1000
floor:0
1000
preliminary
  0
LINE
  5
3EB
330
17
100
AcDbEntity
  8
A-GRID
100
AcDbLine
 10
2550.0
 20
-1100.0
 30
0.0
 11
2550.0
 21
11292.0
 31
0.0
1001
FLOORFORGE
1000
floor:0
1000
preliminary
  0
CIRCLE
  5
3EC
330
17
100
AcDbEntity
  8
A-GRID
100
AcDbCircle
 10
2550.0
 20
11592.0
 30
0.0
 40
300.0
1001
FLOORFORGE
1000
floor:0
1000
preliminary
  0
TEXT
  5
3ED
330
17
100
AcDbEntity
  8
A-GRID
100
AcDbText
 10
2550.0
 20
11502.0
 30
0.0
 40
220.0
  1
B
 72
1
 11
2550.0
 21
11502.0
 31
0.0
100
AcDbText
 73
1
1001
FLOORFORGE
1000
floor:0
1000
preliminary
  0
LINE
  5
3EE
330
17
100
AcDbEntity
  8
A-GRID
100
AcDbLine
 10
3900.0
 20
-1100.0
 30
0.0
 11
3900.0
 21
11292.0
 31
0.0
1001
FLOORFORGE
1000
floor:0
1000
preliminary
  0
CIRCLE
  5
3EF
330
17
100
AcDbEntity
  8
A-GRID
100
AcDbCircle
 10
3900.0
 20
11592.0
 30
0.0
 40
300.0
1001
FLOORFORGE
1000
floor:0
1000
preliminary
  0
TEXT
  5
3F0
330
17
100
AcDbEntity
  8
A-GRID
100
AcDbText
 10
3900.0
 20
11502.0
 30
0.0
 40
220.0
  1
C
 72
1
 11
3900.0
 21
11502.0
 31
0.0
100
AcDbText
 73
1
1001
FLOORFORGE
1000
floor:0
1000
preliminary
  0
LINE
  5
3F1
330
17
100
AcDbEntity
  8
A-GRID
100
AcDbLine
 10
7529.0
 20
-1100.0
 30
0.0
 11
7529.0
 21
11292.0
 31
0.0
1001
FLOORFORGE
1000
floor:0
1000
preliminary
  0
CIRCLE
  5
3F2
330
17
100
AcDbEntity
  8
A-GRID
100
AcDbCircle
 10
7529.0
 20
11592.0
 30
0.0
 40
300.0
1001
FLOORFORGE
1000
floor:0
1000
preliminary
  0
TEXT
  5
3F3
330
17
100
AcDbEntity
  8
A-GRID
100
AcDbText
 10
7529.0
 20
11502.0
 30
0.0
 40
220.0
  1
D
 72
1
 11
7529.0
 21
11502.0
 31
0.0
100
AcDbText
 73
1
1001
FLOORFORGE
1000
floor:0
1000
preliminary
  0
LINE
  5
3F4
330
17
100
AcDbEntity
  8
A-GRID
100
AcDbLine
 10
-1800.0
 20
115.0
 30
0.0
 11
7844.0
 21
115.0
 31
0.0
1001
FLOORFORGE
1000
floor:0
1000
preliminary
  0
CIRCLE
  5
3F5
330
17
100
AcDbEntity
  8
A-GRID
100
AcDbCircle
 10
-2100.0
 20
115.0
 30
0.0
 40
300.0
1001
FLOORFORGE
1000
floor:0
1000
preliminary
  0
TEXT
  5
3F6
330
17
100
AcDbEntity
  8
A-GRID
100
AcDbText
 10
-2100.0
 20
25.0
 30
0.0
 40
220.0
  1
1
 72
1
 11
-2100.0
 21
25.0
 31
0.0
100
AcDbText
 73
1
1001
FLOORFORGE
1000
floor:0
1000
preliminary
  0
LINE
  5
3F7
330
17
100
AcDbEntity
  8
A-GRID
100
AcDbLine
 10
-1800.0
 20
3450.0
 30
0.0
 11
7844.0
 21
3450.0
 31
0.0
1001
FLOORFORGE
1000
floor:0
1000
preliminary
  0
CIRCLE
  5
3F8
330
17
100
AcDbEntity
  8
A-GRID
100
AcDbCircle
 10
-2100.0
 20
3450.0
 30
0.0
 40
300.0
1001
FLOORFORGE
1000
floor:0
1000
preliminary
  0
TEXT
  5
3F9
330
17
100
AcDbEntity
  8
A-GRID
100
AcDbText
 10
-2100.0
 20
3360.0
 30
0.0
 40
220.0
  1
2
 72
1
 11
-2100.0
 21
3360.0
 31
0.0
100
AcDbText
 73
1
1001
FLOORFORGE
1000
floor:0
1000
preliminary
  0
LINE
  5
3FA
330
17
100
AcDbEntity
  8
A-GRID
100
AcDbLine
 10
-1800.0
 20
6350.0
 30
0.0
 11
7844.0
 21
6350.0
 31
0.0
1001
FLOORFORGE
1000
floor:0
1000
preliminary
  0
CIRCLE
  5
3FB
330
17
100
AcDbEntity
  8
A-GRID
100
AcDbCircle
 10
-2100.0
 20
6350.0
 30
0.0
 40
300.0
1001
FLOORFORGE
1000
floor:0
1000
preliminary
  0
TEXT
  5
3FC
330
17
100
AcDbEntity
  8
A-GRID
100
AcDbText
 10
-2100.0
 20
6260.0
 30
0.0
 40
220.0
  1
3
 72
1
 11
-2100.0
 21
6260.0
 31
0.0
100
AcDbText
 73
1
1001
FLOORFORGE
1000
floor:0
1000
preliminary
  0
LINE
  5
3FD
330
17
100
AcDbEntity
  8
A-GRID
100
AcDbLine
 10
-1800.0
 20
7850.0
 30
0.0
 11
7844.0
 21
7850.0
 31
0.0
1001
FLOORFORGE
1000
floor:0
1000
preliminary
  0
CIRCLE
  5
3FE
330
17
100
AcDbEntity
  8
A-GRID
100
AcDbCircle
 10
-2100.0
 20
7850.0
 30
0.0
 40
300.0
1001
FLOORFORGE
1000
floor:0
1000
preliminary
  0
TEXT
  5
3FF
330
17
100
AcDbEntity
  8
A-GRID
100
AcDbText
 10
-2100.0
 20
7760.0
 30
0.0
 40
220.0
  1
4
 72
1
 11
-2100.0
 21
7760.0
 31
0.0
100
AcDbText
 73
1
1001
FLOORFORGE
1000
floor:0
1000
preliminary
  0
LINE
  5
400
330
17
100
AcDbEntity
  8
A-GRID
100
AcDbLine
 10
-1800.0
 20
9377.0
 30
0.0
 11
7844.0
 21
9377.0
 31
0.0
1001
FLOORFORGE
1000
floor:0
1000
preliminary
  0
CIRCLE
  5
401
330
17
100
AcDbEntity
  8
A-GRID
100
AcDbCircle
 10
-2100.0
 20
9377.0
 30
0.0
 40
300.0
1001
FLOORFORGE
1000
floor:0
1000
preliminary
  0
TEXT
  5
402
330
17
100
AcDbEntity
  8
A-GRID
100
AcDbText
 10
-2100.0
 20
9287.0
 30
0.0
 40
220.0
  1
5
 72
1
 11
-2100.0
 21
9287.0
 31
0.0
100
AcDbText
 73
1
1001
FLOORFORGE
1000
floor:0
1000
preliminary
  0
LWPOLYLINE
  5
403
330
17
100
AcDbEntity
  8
A-LEVL
100
AcDbPolyline
 90
3
 70
1
 10
4513.890625
 20
1137.015625
 10
4733.890625
 20
1137.015625
 10
4623.890625
 20
947.015625
1001
FLOORFORGE
1000
floor:0
1000
preliminary
  0
HATCH
  5
404
330
17
100
AcDbEntity
  8
A-LEVL
 62
7
100
AcDbHatch
 10
0.0
 20
0.0
 30
0.0
210
0.0
220
0.0
230
1.0
  2
SOLID
 70
1
 71
0
 91
1
 92
3
 72
0
 73
1
 93
3
 10
4513.890625
 20
1137.015625
 10
4733.890625
 20
1137.015625
 10
4623.890625
 20
947.015625
 97
0
 75
0
 76
1
 98
0
  0
LINE
  5
405
330
17
100
AcDbEntity
  8
A-LEVL
100
AcDbLine
 10
4243.890625
 20
947.015625
 30
0.0
 11
5003.890625
 21
947.015625
 31
0.0
1001
FLOORFORGE
1000
floor:0
1000
preliminary
  0
TEXT
  5
406
330
17
100
AcDbEntity
  8
A-LEVL
100
AcDbText
 10
4793.890625
 20
1007.015625
 30
0.0
 40
160.0
  1
FFL +0.450
 11
4793.890625
 21
1007.015625
 31
0.0
100
AcDbText
1001
FLOORFORGE
1000
floor:0
1000
preliminary
  0
LINE
  5
407
330
17
100
AcDbEntity
  8
A-SECT
100
AcDbLine
 10
3122.0
 20
-1000.0
 30
0.0
 11
3122.0
 21
-2470.0
 31
0.0
1001
FLOORFORGE
1000
floor:0
1000
preliminary
  0
LINE
  5
408
330
17
100
AcDbEntity
  8
A-SECT
100
AcDbLine
 10
3122.0
 20
-2470.0
 30
0.0
 11
3122.0
 21
-2770.0
 31
0.0
1001
FLOORFORGE
1000
floor:0
1000
preliminary
  0
CIRCLE
  5
409
330
17
100
AcDbEntity
  8
A-SECT
100
AcDbCircle
 10
3122.0
 20
-3050.0
 30
0.0
 40
280.0
1001
FLOORFORGE
1000
floor:0
1000
preliminary
  0
TEXT
  5
40A
330
17
100
AcDbEntity
  8
A-SECT
100
AcDbText
 10
3122.0
 20
-3135.0
 30
0.0
 40
220.0
  1
A
 72
1
 11
3122.0
 21
-3135.0
 31
0.0
100
AcDbText
 73
1
1001
FLOORFORGE
1000
floor:0
1000
preliminary
  0
LWPOLYLINE
  5
40B
330
17
100
AcDbEntity
  8
A-SECT
100
AcDbPolyline
 90
3
 70
1
 10
2842.0
 20
-3170.0
 10
2502.0
 20
-3050.0
 10
2842.0
 20
-2930.0
1001
FLOORFORGE
1000
floor:0
1000
preliminary
  0
HATCH
  5
40C
330
17
100
AcDbEntity
  8
A-SECT
 62
7
100
AcDbHatch
 10
0.0
 20
0.0
 30
0.0
210
0.0
220
0.0
230
1.0
  2
SOLID
 70
1
 71
0
 91
1
 92
3
 72
0
 73
1
 93
3
 10
2842.0
 20
-3170.0
 10
2502.0
 20
-3050.0
 10
2842.0
 20
-2930.0
 97
0
 75
0
 76
1
 98
0
  0
LINE
  5
40D
330
17
100
AcDbEntity
  8
A-SECT
100
AcDbLine
 10
3122.0
 20
9592.0
 30
0.0
 11
3122.0
 21
11662.0
 31
0.0
1001
FLOORFORGE
1000
floor:0
1000
preliminary
  0
LINE
  5
40E
330
17
100
AcDbEntity
  8
A-SECT
100
AcDbLine
 10
3122.0
 20
11662.0
 30
0.0
 11
3122.0
 21
11962.0
 31
0.0
1001
FLOORFORGE
1000
floor:0
1000
preliminary
  0
CIRCLE
  5
40F
330
17
100
AcDbEntity
  8
A-SECT
100
AcDbCircle
 10
3122.0
 20
12242.0
 30
0.0
 40
280.0
1001
FLOORFORGE
1000
floor:0
1000
preliminary
  0
TEXT
  5
410
330
17
100
AcDbEntity
  8
A-SECT
100
AcDbText
 10
3122.0
 20
12157.0
 30
0.0
 40
220.0
  1
A
 72
1
 11
3122.0
 21
12157.0
 31
0.0
100
AcDbText
 73
1
1001
FLOORFORGE
1000
floor:0
1000
preliminary
  0
LWPOLYLINE
  5
411
330
17
100
AcDbEntity
  8
A-SECT
100
AcDbPolyline
 90
3
 70
1
 10
2842.0
 20
12362.0
 10
2502.0
 20
12242.0
 10
2842.0
 20
12122.0
1001
FLOORFORGE
1000
floor:0
1000
preliminary
  0
HATCH
  5
412
330
17
100
AcDbEntity
  8
A-SECT
 62
7
100
AcDbHatch
 10
0.0
 20
0.0
 30
0.0
210
0.0
220
0.0
230
1.0
  2
SOLID
 70
1
 71
0
 91
1
 92
3
 72
0
 73
1
 93
3
 10
2842.0
 20
12362.0
 10
2502.0
 20
12242.0
 10
2842.0
 20
12122.0
 97
0
 75
0
 76
1
 98
0
  0
CIRCLE
  5
413
330
17
100
AcDbEntity
  8
A-ANNO
100
AcDbCircle
 10
-3600.0
 20
10892.0
 30
0.0
 40
550.0
1001
FLOORFORGE
1000
floor:0
1000
preliminary
  0
LWPOLYLINE
  5
414
330
17
100
AcDbEntity
  8
A-WALL
100
AcDbPolyline
 90
3
 70
1
 10
-3600.0
 20
11398.0
 10
-3754.0
 20
10589.5
 10
-3600.0
 20
10782.0
1001
FLOORFORGE
1000
floor:0
1000
preliminary
  0
HATCH
  5
415
330
17
100
AcDbEntity
  8
A-WALL
 62
7
100
AcDbHatch
 10
0.0
 20
0.0
 30
0.0
210
0.0
220
0.0
230
1.0
  2
SOLID
 70
1
 71
0
 91
1
 92
3
 72
0
 73
1
 93
3
 10
-3600.0
 20
11398.0
 10
-3754.0
 20
10589.5
 10
-3600.0
 20
10782.0
 97
0
 75
0
 76
1
 98
0
  0
LWPOLYLINE
  5
416
330
17
100
AcDbEntity
  8
A-WALL
100
AcDbPolyline
 90
3
 70
1
 10
-3600.0
 20
11398.0
 10
-3446.0
 20
10589.5
 10
-3600.0
 20
10782.0
1001
FLOORFORGE
1000
floor:0
1000
preliminary
  0
TEXT
  5
417
330
17
100
AcDbEntity
  8
A-ANNO
100
AcDbText
 10
-3600.0
 20
11612.0
 30
0.0
 40
260.0
  1
N
 72
1
 11
-3600.0
 21
11612.0
 31
0.0
100
AcDbText
 73
1
1001
FLOORFORGE
1000
floor:0
1000
preliminary
  0
TEXT
  5
418
330
17
100
AcDbEntity
  8
A-ANNO
100
AcDbText
 10
0.0
 20
-5200.0
 30
0.0
 40
190.0
  1
PRELIMINARY - ENGINEER TO REVIEW - NOT FOR CONSTRUCTION
 11
0.0
 21
-5200.0
 31
0.0
100
AcDbText
  0
TEXT
  5
419
330
17
100
AcDbEntity
  8
A-ANNO
100
AcDbText
 10
0.0
 20
14292.0
 30
0.0
 40
210.0
  1
FLOOR 0 / TRUE MILLIMETRES / NO STRUCTURAL CERTIFICATION
 11
0.0
 21
14292.0
 31
0.0
100
AcDbText
  0
ENDSEC
  0
SECTION
  2
OBJECTS
  0
DICTIONARY
  5
A
330
0
100
AcDbDictionary
281
1
  3
ACAD_COLOR
350
B
  3
ACAD_GROUP
350
C
  3
ACAD_LAYOUT
350
D
  3
ACAD_MATERIAL
350
E
  3
ACAD_MLEADERSTYLE
350
F
  3
ACAD_MLINESTYLE
350
10
  3
ACAD_PLOTSETTINGS
350
11
  3
ACAD_PLOTSTYLENAME
350
12
  3
ACAD_SCALELIST
350
14
  3
ACAD_TABLESTYLE
350
15
  3
ACAD_VISUALSTYLE
350
16
  3
EZDXF_META
350
2D
  0
DICTIONARY
  5
B
330
A
100
AcDbDictionary
281
1
  0
DICTIONARY
  5
C
330
A
100
AcDbDictionary
281
1
  0
DICTIONARY
  5
D
330
A
100
AcDbDictionary
281
1
  3
Model
350
1A
  3
Layout1
350
1E
  3
GROUND
350
41D
  0
DICTIONARY
  5
E
330
A
100
AcDbDictionary
281
1
  3
ByBlock
350
1F
  3
ByLayer
350
20
  3
Global
350
21
  0
DICTIONARY
  5
F
330
A
100
AcDbDictionary
281
1
  3
Standard
350
2C
  0
DICTIONARY
  5
10
330
A
100
AcDbDictionary
281
1
  3
Standard
350
22
  0
DICTIONARY
  5
11
330
A
100
AcDbDictionary
281
1
  0
ACDBDICTIONARYWDFLT
  5
12
330
A
100
AcDbDictionary
281
1
  3
Normal
350
13
100
AcDbDictionaryWithDefault
340
13
  0
ACDBPLACEHOLDER
  5
13
330
12
  0
DICTIONARY
  5
14
330
A
100
AcDbDictionary
281
1
  0
DICTIONARY
  5
15
330
A
100
AcDbDictionary
281
1
  0
DICTIONARY
  5
16
330
A
100
AcDbDictionary
281
1
  3
2dWireframe
350
5A
  3
Basic
350
5B
  3
Brighten
350
5C
  3
ColorChange
350
5D
  3
Conceptual
350
5E
  3
Dim
350
5F
  3
EdgeColorOff
350
60
  3
Facepattern
350
61
  3
Flat
350
62
  3
FlatWithEdges
350
63
  3
Gouraud
350
64
  3
GouraudWithEdges
350
65
  3
Hidden
350
66
  3
JitterOff
350
67
  3
Linepattern
350
68
  3
Modeling
350
69
  3
OverhangOff
350
6A
  3
Realistic
350
6B
  3
Shaded
350
6C
  3
Shaded with edges
350
6D
  3
Shades of Gray
350
6E
  3
Sketchy
350
6F
  3
Thicken
350
70
  3
Wireframe
350
71
  3
X-Ray
350
72
  0
LAYOUT
  5
1A
330
D
100
AcDbPlotSettings
  1

  4
A3
  6

 40
7.5
 41
20.0
 42
7.5
 43
20.0
 44
420.0
 45
297.0
 46
0.0
 47
0.0
 48
0.0
 49
0.0
140
0.0
141
0.0
142
1.0
143
1.0
 70
1024
 72
1
 73
0
 74
5
  7

 75
16
 76
0
 77
2
 78
300
147
1.0
148
0.0
149
0.0
100
AcDbLayout
  1
Model
 70
1
 71
0
 10
0.0
 20
0.0
 11
420.0
 21
297.0
 12
0.0
 22
0.0
 32
0.0
 14
1e+20
 24
1e+20
 34
1e+20
 15
-1e+20
 25
-1e+20
 35
-1e+20
146
0.0
 13
0.0
 23
0.0
 33
0.0
 16
1.0
 26
0.0
 36
0.0
 17
0.0
 27
1.0
 37
0.0
 76
1
330
17
  0
LAYOUT
  5
1E
330
D
100
AcDbPlotSettings
  1

  4
A3
  6

 40
7.5
 41
20.0
 42
7.5
 43
20.0
 44
420.0
 45
297.0
 46
0.0
 47
0.0
 48
0.0
 49
0.0
140
0.0
141
0.0
142
1.0
143
1.0
 70
0
 72
1
 73
0
 74
5
  7

 75
16
 76
0
 77
2
 78
300
147
1.0
148
0.0
149
0.0
100
AcDbLayout
  1
Layout1
 70
1
 71
1
 10
0.0
 20
0.0
 11
420.0
 21
297.0
 12
0.0
 22
0.0
 32
0.0
 14
1e+20
 24
1e+20
 34
1e+20
 15
-1e+20
 25
-1e+20
 35
-1e+20
146
0.0
 13
0.0
 23
0.0
 33
0.0
 16
1.0
 26
0.0
 36
0.0
 17
0.0
 27
1.0
 37
0.0
 76
1
330
1B
  0
MATERIAL
  5
1F
102
{ACAD_REACTORS
330
E
102
}
330
E
100
AcDbMaterial
  1
ByBlock
  2

 70
0
 40
1.0
 71
1
 41
1.0
 91
-1023410177
 42
1.0
 72
1
  3

 73
1
 74
1
 75
1
 44
0.5
 73
0
 45
1.0
 46
1.0
 77
1
  4

 78
1
 79
1
170
1
 48
1.0
171
1
  6

172
1
173
1
174
1
140
1.0
141
1.0
175
1
  7

176
1
177
1
178
1
143
1.0
179
1
  8

270
1
271
1
272
1
145
1.0
146
1.0
273
1
  9

274
1
275
1
276
1
 42
1.0
 72
1
  3

 73
1
 74
1
 75
1
 94
63
  0
MATERIAL
  5
20
102
{ACAD_REACTORS
330
E
102
}
330
E
100
AcDbMaterial
  1
ByLayer
  2

 70
0
 40
1.0
 71
1
 41
1.0
 91
-1023410177
 42
1.0
 72
1
  3

 73
1
 74
1
 75
1
 44
0.5
 73
0
 45
1.0
 46
1.0
 77
1
  4

 78
1
 79
1
170
1
 48
1.0
171
1
  6

172
1
173
1
174
1
140
1.0
141
1.0
175
1
  7

176
1
177
1
178
1
143
1.0
179
1
  8

270
1
271
1
272
1
145
1.0
146
1.0
273
1
  9

274
1
275
1
276
1
 42
1.0
 72
1
  3

 73
1
 74
1
 75
1
 94
63
  0
MATERIAL
  5
21
102
{ACAD_REACTORS
330
E
102
}
330
E
100
AcDbMaterial
  1
Global
  2

 70
0
 40
1.0
 71
1
 41
1.0
 91
-1023410177
 42
1.0
 72
1
  3

 73
1
 74
1
 75
1
 44
0.5
 73
0
 45
1.0
 46
1.0
 77
1
  4

 78
1
 79
1
170
1
 48
1.0
171
1
  6

172
1
173
1
174
1
140
1.0
141
1.0
175
1
  7

176
1
177
1
178
1
143
1.0
179
1
  8

270
1
271
1
272
1
145
1.0
146
1.0
273
1
  9

274
1
275
1
276
1
 42
1.0
 72
1
  3

 73
1
 74
1
 75
1
 94
63
  0
MLINESTYLE
  5
22
102
{ACAD_REACTORS
330
10
102
}
330
10
100
AcDbMlineStyle
  2
Standard
 70
0
  3

 62
256
 51
90.0
 52
90.0
 71
2
 49
0.5
 62
256
  6
BYLAYER
 49
-0.5
 62
256
  6
BYLAYER
  0
MLEADERSTYLE
  5
2C
102
{ACAD_REACTORS
330
F
102
}
330
F
100
AcDbMLeaderStyle
179
2
170
2
171
1
172
0
 90
2
 40
0.0
 41
0.0
173
1
 91
-1056964608
 92
-2
290
1
 42
2.0
291
1
 43
8.0
  3
Standard
 44
4.0
300

342
29
174
1
175
1
176
0
178
1
 93
-1056964608
 45
4.0
292
0
297
0
 46
4.0
 94
-1056964608
 47
1.0
 49
1.0
140
1.0
294
1
141
0.0
177
0
142
1.0
295
0
296
0
143
3.75
271
0
272
9
273
9
  0
DICTIONARY
  5
2D
330
A
100
AcDbDictionary
280
1
281
1
  3
CREATED_BY_EZDXF
350
2E
  3
WRITTEN_BY_EZDXF
350
423
  0
DICTIONARYVAR
  5
2E
330
2D
100
DictionaryVariables
280
0
  1
ezdxf 1.4.4 / FloorForge deterministic export
  0
VISUALSTYLE
  5
5A
102
{ACAD_REACTORS
330
16
102
}
330
16
100
AcDbVisualStyle
  2
2dWireframe
 70
4
177
3
291
0
 70
58
 90
2
176
1
 90
2
176
1
 90
0
176
1
 90
0
176
1
 40
0.6
176
1
 40
30.0
176
1
 62
7
420
16777215
176
1
 90
1
176
1
 90
4
176
1
 62
7
176
1
 62
257
176
1
 90
1
176
1
 90
1
176
1
 40
1.0
176
1
 90
8
176
1
 62
7
176
1
 40
1.0
176
1
 90
1
176
1
 90
6
176
1
 90
2
176
1
 62
7
176
1
 90
5
176
1
 90
0
176
1
 90
0
176
1
290
0
176
1
 90
1
176
1
 40
0.0
176
1
 90
0
176
1
290
1
176
1
290
1
176
1
290
0
176
1
290
0
176
1
290
0
176
1
290
0
176
1
290
0
176
1
290
0
176
1
290
0
176
1
 90
50
176
1
 40
0.0
176
1
 40
1.0
176
1
 90
0
176
1
 62
18
420
0
176
1
 90
50
176
1
 90
3
176
1
 62
5
420
255
176
1
290
0
176
1
 90
50
176
1
 90
50
176
1
 90
50
176
1
290
0
176
1
 90
50
176
1
 62
256
176
0
 40
1.0
176
0
 90
2
176
1
  1
strokes_ogs.tif
176
1
290
0
176
1
 40
1.0
176
1
 40
1.0
176
1
  0
VISUALSTYLE
  5
5B
102
{ACAD_REACTORS
330
16
102
}
330
16
100
AcDbVisualStyle
  2
Basic
 70
7
177
3
291
1
 70
58
 90
2
176
1
 90
2
176
1
 90
0
176
1
 90
1
176
1
 40
0.6
176
1
 40
30.0
176
1
 62
7
420
16777215
176
1
 90
1
176
1
 90
4
176
1
 62
7
176
1
 62
257
176
1
 90
1
176
1
 90
1
176
1
 40
1.0
176
1
 90
8
176
1
 62
7
176
1
 40
1.0
176
1
 90
1
176
1
 90
6
176
1
 90
2
176
1
 62
7
176
1
 90
5
176
1
 90
0
176
1
 90
0
176
1
290
0
176
1
 90
1
176
1
 40
0.0
176
1
 90
0
176
1
290
0
176
1
290
1
176
1
290
1
176
1
290
0
176
1
290
0
176
1
290
0
176
1
290
0
176
1
290
0
176
1
290
0
176
1
 90
50
176
1
 40
0.0
176
1
 40
1.0
176
1
 90
0
176
1
 62
18
420
0
176
1
 90
50
176
1
 90
3
176
1
 62
5
420
255
176
1
290
0
176
1
 90
50
176
1
 90
50
176
1
 90
50
176
1
290
0
176
1
 90
50
176
1
 62
256
176
0
 40
1.0
176
0
 90
2
176
1
  1
strokes_ogs.tif
176
1
290
0
176
1
 40
1.0
176
1
 40
1.0
176
1
  0
VISUALSTYLE
  5
5C
102
{ACAD_REACTORS
330
16
102
}
330
16
100
AcDbVisualStyle
  2
Brighten
 70
12
177
3
291
1
 70
58
 90
2
176
1
 90
2
176
1
 90
0
176
1
 90
2
176
1
 40
0.6
176
1
 40
30.0
176
1
 62
7
420
16777215
176
1
 90
1
176
1
 90
4
176
1
 62
7
176
1
 62
257
176
1
 90
1
176
1
 90
1
176
1
 40
1.0
176
1
 90
8
176
1
 62
7
176
1
 40
1.0
176
1
 90
1
176
1
 90
6
176
1
 90
2
176
1
 62
7
176
1
 90
5
176
1
 90
0
176
1
 90
0
176
1
290
0
176
1
 90
1
176
1
 40
0.0
176
1
 90
0
176
1
290
0
176
1
290
1
176
1
290
1
176
1
290
0
176
1
290
0
176
1
290
0
176
1
290
0
176
1
290
0
176
1
290
0
176
1
 90
50
176
1
 40
0.0
176
1
 40
1.0
176
1
 90
0
176
1
 62
18
420
0
176
1
 90
50
176
1
 90
3
176
1
 62
5
420
255
176
1
290
0
176
1
 90
50
176
1
 90
50
176
1
 90
50
176
1
290
0
176
1
 90
50
176
1
 62
256
176
0
 40
1.0
176
0
 90
2
176
1
  1
strokes_ogs.tif
176
1
290
0
176
1
 40
1.0
176
1
 40
1.0
176
1
  0
VISUALSTYLE
  5
5D
102
{ACAD_REACTORS
330
16
102
}
330
16
100
AcDbVisualStyle
  2
ColorChange
 70
16
177
3
291
1
 70
58
 90
2
176
1
 90
2
176
1
 90
0
176
1
 90
2
176
1
 40
0.6
176
1
 40
30.0
176
1
 62
7
420
16777215
176
1
 90
1
176
1
 90
4
176
1
 62
7
176
1
 62
257
176
1
 90
1
176
1
 90
1
176
1
 40
1.0
176
1
 90
8
176
1
 62
7
176
1
 40
1.0
176
1
 90
1
176
1
 90
6
176
1
 90
2
176
1
 62
7
176
1
 90
5
176
1
 90
0
176
1
 90
0
176
1
290
0
176
1
 90
1
176
1
 40
0.0
176
1
 90
0
176
1
290
0
176
1
290
1
176
1
290
1
176
1
290
0
176
1
290
0
176
1
290
0
176
1
290
0
176
1
290
0
176
1
290
0
176
1
 90
50
176
1
 40
0.0
176
1
 40
1.0
176
1
 90
0
176
1
 62
18
420
0
176
1
 90
50
176
1
 90
3
176
1
 62
5
420
255
176
1
290
0
176
1
 90
50
176
1
 90
50
176
1
 90
50
176
1
290
0
176
1
 90
50
176
1
 62
256
176
0
 40
1.0
176
0
 90
2
176
1
  1
strokes_ogs.tif
176
1
290
0
176
1
 40
1.0
176
1
 40
1.0
176
1
  0
VISUALSTYLE
  5
5E
102
{ACAD_REACTORS
330
16
102
}
330
16
100
AcDbVisualStyle
  2
Conceptual
 70
9
177
3
291
0
 70
58
 90
2
176
1
 90
2
176
1
 90
0
176
1
 90
3
176
1
 40
0.6
176
1
 40
30.0
176
1
 62
7
420
16777215
176
1
 90
1
176
1
 90
4
176
1
 62
7
176
1
 62
257
176
1
 90
1
176
1
 90
1
176
1
 40
1.0
176
1
 90
8
176
1
 62
7
176
1
 40
1.0
176
1
 90
1
176
1
 90
6
176
1
 90
2
176
1
 62
7
176
1
 90
5
176
1
 90
0
176
1
 90
0
176
1
290
0
176
1
 90
1
176
1
 40
0.0
176
1
 90
0
176
1
290
0
176
1
290
1
176
1
290
1
176
1
290
0
176
1
290
0
176
1
290
0
176
1
290
0
176
1
290
0
176
1
290
0
176
1
 90
50
176
1
 40
0.0
176
1
 40
1.0
176
1
 90
0
176
1
 62
18
420
0
176
1
 90
50
176
1
 90
3
176
1
 62
5
420
255
176
1
290
0
176
1
 90
50
176
1
 90
50
176
1
 90
50
176
1
290
0
176
1
 90
50
176
1
 62
256
176
0
 40
1.0
176
0
 90
2
176
1
  1
strokes_ogs.tif
176
1
290
0
176
1
 40
1.0
176
1
 40
1.0
176
1
  0
VISUALSTYLE
  5
5F
102
{ACAD_REACTORS
330
16
102
}
330
16
100
AcDbVisualStyle
  2
Dim
 70
11
177
3
291
1
 70
58
 90
2
176
1
 90
2
176
1
 90
0
176
1
 90
2
176
1
 40
0.6
176
1
 40
30.0
176
1
 62
7
420
16777215
176
1
 90
1
176
1
 90
4
176
1
 62
7
176
1
 62
257
176
1
 90
1
176
1
 90
1
176
1
 40
1.0
176
1
 90
8
176
1
 62
7
176
1
 40
1.0
176
1
 90
1
176
1
 90
6
176
1
 90
2
176
1
 62
7
176
1
 90
5
176
1
 90
0
176
1
 90
0
176
1
290
0
176
1
 90
1
176
1
 40
0.0
176
1
 90
0
176
1
290
0
176
1
290
1
176
1
290
1
176
1
290
0
176
1
290
0
176
1
290
0
176
1
290
0
176
1
290
0
176
1
290
0
176
1
 90
50
176
1
 40
0.0
176
1
 40
1.0
176
1
 90
0
176
1
 62
18
420
0
176
1
 90
50
176
1
 90
3
176
1
 62
5
420
255
176
1
290
0
176
1
 90
50
176
1
 90
50
176
1
 90
50
176
1
290
0
176
1
 90
50
176
1
 62
256
176
0
 40
1.0
176
0
 90
2
176
1
  1
strokes_ogs.tif
176
1
290
0
176
1
 40
1.0
176
1
 40
1.0
176
1
  0
VISUALSTYLE
  5
60
102
{ACAD_REACTORS
330
16
102
}
330
16
100
AcDbVisualStyle
  2
EdgeColorOff
 70
22
177
3
291
1
 70
58
 90
2
176
1
 90
2
176
1
 90
0
176
1
 90
2
176
1
 40
0.6
176
1
 40
30.0
176
1
 62
7
420
16777215
176
1
 90
1
176
1
 90
4
176
1
 62
7
176
1
 62
257
176
1
 90
1
176
1
 90
1
176
1
 40
1.0
176
1
 90
8
176
1
 62
7
176
1
 40
1.0
176
1
 90
1
176
1
 90
6
176
1
 90
2
176
1
 62
7
176
1
 90
5
176
1
 90
0
176
1
 90
0
176
1
290
0
176
1
 90
1
176
1
 40
0.0
176
1
 90
0
176
1
290
0
176
1
290
1
176
1
290
1
176
1
290
0
176
1
290
0
176
1
290
0
176
1
290
0
176
1
290
0
176
1
290
0
176
1
 90
50
176
1
 40
0.0
176
1
 40
1.0
176
1
 90
0
176
1
 62
18
420
0
176
1
 90
50
176
1
 90
3
176
1
 62
5
420
255
176
1
290
0
176
1
 90
50
176
1
 90
50
176
1
 90
50
176
1
290
0
176
1
 90
50
176
1
 62
256
176
0
 40
1.0
176
0
 90
2
176
1
  1
strokes_ogs.tif
176
1
290
0
176
1
 40
1.0
176
1
 40
1.0
176
1
  0
VISUALSTYLE
  5
61
102
{ACAD_REACTORS
330
16
102
}
330
16
100
AcDbVisualStyle
  2
Facepattern
 70
15
177
3
291
1
 70
58
 90
2
176
1
 90
2
176
1
 90
0
176
1
 90
2
176
1
 40
0.6
176
1
 40
30.0
176
1
 62
7
420
16777215
176
1
 90
1
176
1
 90
4
176
1
 62
7
176
1
 62
257
176
1
 90
1
176
1
 90
1
176
1
 40
1.0
176
1
 90
8
176
1
 62
7
176
1
 40
1.0
176
1
 90
1
176
1
 90
6
176
1
 90
2
176
1
 62
7
176
1
 90
5
176
1
 90
0
176
1
 90
0
176
1
290
0
176
1
 90
1
176
1
 40
0.0
176
1
 90
0
176
1
290
0
176
1
290
1
176
1
290
1
176
1
290
0
176
1
290
0
176
1
290
0
176
1
290
0
176
1
290
0
176
1
290
0
176
1
 90
50
176
1
 40
0.0
176
1
 40
1.0
176
1
 90
0
176
1
 62
18
420
0
176
1
 90
50
176
1
 90
3
176
1
 62
5
420
255
176
1
290
0
176
1
 90
50
176
1
 90
50
176
1
 90
50
176
1
290
0
176
1
 90
50
176
1
 62
256
176
0
 40
1.0
176
0
 90
2
176
1
  1
strokes_ogs.tif
176
1
290
0
176
1
 40
1.0
176
1
 40
1.0
176
1
  0
VISUALSTYLE
  5
62
102
{ACAD_REACTORS
330
16
102
}
330
16
100
AcDbVisualStyle
  2
Flat
 70
0
177
3
291
1
 70
58
 90
2
176
1
 90
2
176
1
 90
0
176
1
 90
2
176
1
 40
0.6
176
1
 40
30.0
176
1
 62
7
420
16777215
176
1
 90
1
176
1
 90
4
176
1
 62
7
176
1
 62
257
176
1
 90
1
176
1
 90
1
176
1
 40
1.0
176
1
 90
8
176
1
 62
7
176
1
 40
1.0
176
1
 90
1
176
1
 90
6
176
1
 90
2
176
1
 62
7
176
1
 90
5
176
1
 90
0
176
1
 90
0
176
1
290
0
176
1
 90
1
176
1
 40
0.0
176
1
 90
0
176
1
290
0
176
1
290
1
176
1
290
1
176
1
290
0
176
1
290
0
176
1
290
0
176
1
290
0
176
1
290
0
176
1
290
0
176
1
 90
50
176
1
 40
0.0
176
1
 40
1.0
176
1
 90
0
176
1
 62
18
420
0
176
1
 90
50
176
1
 90
3
176
1
 62
5
420
255
176
1
290
0
176
1
 90
50
176
1
 90
50
176
1
 90
50
176
1
290
0
176
1
 90
50
176
1
 62
256
176
0
 40
1.0
176
0
 90
2
176
1
  1
strokes_ogs.tif
176
1
290
0
176
1
 40
1.0
176
1
 40
1.0
176
1
  0
VISUALSTYLE
  5
63
102
{ACAD_REACTORS
330
16
102
}
330
16
100
AcDbVisualStyle
  2
FlatWithEdges
 70
1
177
3
291
1
 70
58
 90
2
176
1
 90
2
176
1
 90
0
176
1
 90
2
176
1
 40
0.6
176
1
 40
30.0
176
1
 62
7
420
16777215
176
1
 90
1
176
1
 90
4
176
1
 62
7
176
1
 62
257
176
1
 90
1
176
1
 90
1
176
1
 40
1.0
176
1
 90
8
176
1
 62
7
176
1
 40
1.0
176
1
 90
1
176
1
 90
6
176
1
 90
2
176
1
 62
7
176
1
 90
5
176
1
 90
0
176
1
 90
0
176
1
290
0
176
1
 90
1
176
1
 40
0.0
176
1
 90
0
176
1
290
0
176
1
290
1
176
1
290
1
176
1
290
0
176
1
290
0
176
1
290
0
176
1
290
0
176
1
290
0
176
1
290
0
176
1
 90
50
176
1
 40
0.0
176
1
 40
1.0
176
1
 90
0
176
1
 62
18
420
0
176
1
 90
50
176
1
 90
3
176
1
 62
5
420
255
176
1
290
0
176
1
 90
50
176
1
 90
50
176
1
 90
50
176
1
290
0
176
1
 90
50
176
1
 62
256
176
0
 40
1.0
176
0
 90
2
176
1
  1
strokes_ogs.tif
176
1
290
0
176
1
 40
1.0
176
1
 40
1.0
176
1
  0
VISUALSTYLE
  5
64
102
{ACAD_REACTORS
330
16
102
}
330
16
100
AcDbVisualStyle
  2
Gouraud
 70
2
177
3
291
1
 70
58
 90
2
176
1
 90
2
176
1
 90
0
176
1
 90
2
176
1
 40
0.6
176
1
 40
30.0
176
1
 62
7
420
16777215
176
1
 90
1
176
1
 90
4
176
1
 62
7
176
1
 62
257
176
1
 90
1
176
1
 90
1
176
1
 40
1.0
176
1
 90
8
176
1
 62
7
176
1
 40
1.0
176
1
 90
1
176
1
 90
6
176
1
 90
2
176
1
 62
7
176
1
 90
5
176
1
 90
0
176
1
 90
0
176
1
290
0
176
1
 90
1
176
1
 40
0.0
176
1
 90
0
176
1
290
0
176
1
290
1
176
1
290
1
176
1
290
0
176
1
290
0
176
1
290
0
176
1
290
0
176
1
290
0
176
1
290
0
176
1
 90
50
176
1
 40
0.0
176
1
 40
1.0
176
1
 90
0
176
1
 62
18
420
0
176
1
 90
50
176
1
 90
3
176
1
 62
5
420
255
176
1
290
0
176
1
 90
50
176
1
 90
50
176
1
 90
50
176
1
290
0
176
1
 90
50
176
1
 62
256
176
0
 40
1.0
176
0
 90
2
176
1
  1
strokes_ogs.tif
176
1
290
0
176
1
 40
1.0
176
1
 40
1.0
176
1
  0
VISUALSTYLE
  5
65
102
{ACAD_REACTORS
330
16
102
}
330
16
100
AcDbVisualStyle
  2
GouraudWithEdges
 70
3
177
3
291
1
 70
58
 90
2
176
1
 90
2
176
1
 90
0
176
1
 90
2
176
1
 40
0.6
176
1
 40
30.0
176
1
 62
7
420
16777215
176
1
 90
1
176
1
 90
4
176
1
 62
7
176
1
 62
257
176
1
 90
1
176
1
 90
1
176
1
 40
1.0
176
1
 90
8
176
1
 62
7
176
1
 40
1.0
176
1
 90
1
176
1
 90
6
176
1
 90
2
176
1
 62
7
176
1
 90
5
176
1
 90
0
176
1
 90
0
176
1
290
0
176
1
 90
1
176
1
 40
0.0
176
1
 90
0
176
1
290
0
176
1
290
1
176
1
290
1
176
1
290
0
176
1
290
0
176
1
290
0
176
1
290
0
176
1
290
0
176
1
290
0
176
1
 90
50
176
1
 40
0.0
176
1
 40
1.0
176
1
 90
0
176
1
 62
18
420
0
176
1
 90
50
176
1
 90
3
176
1
 62
5
420
255
176
1
290
0
176
1
 90
50
176
1
 90
50
176
1
 90
50
176
1
290
0
176
1
 90
50
176
1
 62
256
176
0
 40
1.0
176
0
 90
2
176
1
  1
strokes_ogs.tif
176
1
290
0
176
1
 40
1.0
176
1
 40
1.0
176
1
  0
VISUALSTYLE
  5
66
102
{ACAD_REACTORS
330
16
102
}
330
16
100
AcDbVisualStyle
  2
Hidden
 70
6
177
3
291
0
 70
58
 90
2
176
1
 90
2
176
1
 90
0
176
1
 90
1
176
1
 40
0.6
176
1
 40
30.0
176
1
 62
7
420
16777215
176
1
 90
1
176
1
 90
4
176
1
 62
7
176
1
 62
257
176
1
 90
1
176
1
 90
1
176
1
 40
1.0
176
1
 90
8
176
1
 62
7
176
1
 40
1.0
176
1
 90
1
176
1
 90
6
176
1
 90
2
176
1
 62
7
176
1
 90
5
176
1
 90
0
176
1
 90
0
176
1
290
0
176
1
 90
1
176
1
 40
0.0
176
1
 90
0
176
1
290
0
176
1
290
1
176
1
290
1
176
1
290
0
176
1
290
0
176
1
290
0
176
1
290
0
176
1
290
0
176
1
290
0
176
1
 90
50
176
1
 40
0.0
176
1
 40
1.0
176
1
 90
0
176
1
 62
18
420
0
176
1
 90
50
176
1
 90
3
176
1
 62
5
420
255
176
1
290
0
176
1
 90
50
176
1
 90
50
176
1
 90
50
176
1
290
0
176
1
 90
50
176
1
 62
256
176
0
 40
1.0
176
0
 90
2
176
1
  1
strokes_ogs.tif
176
1
290
0
176
1
 40
1.0
176
1
 40
1.0
176
1
  0
VISUALSTYLE
  5
67
102
{ACAD_REACTORS
330
16
102
}
330
16
100
AcDbVisualStyle
  2
JitterOff
 70
20
177
3
291
1
 70
58
 90
2
176
1
 90
2
176
1
 90
0
176
1
 90
2
176
1
 40
0.6
176
1
 40
30.0
176
1
 62
7
420
16777215
176
1
 90
1
176
1
 90
4
176
1
 62
7
176
1
 62
257
176
1
 90
1
176
1
 90
1
176
1
 40
1.0
176
1
 90
8
176
1
 62
7
176
1
 40
1.0
176
1
 90
1
176
1
 90
6
176
1
 90
2
176
1
 62
7
176
1
 90
5
176
1
 90
0
176
1
 90
0
176
1
290
0
176
1
 90
1
176
1
 40
0.0
176
1
 90
0
176
1
290
0
176
1
290
1
176
1
290
1
176
1
290
0
176
1
290
0
176
1
290
0
176
1
290
0
176
1
290
0
176
1
290
0
176
1
 90
50
176
1
 40
0.0
176
1
 40
1.0
176
1
 90
0
176
1
 62
18
420
0
176
1
 90
50
176
1
 90
3
176
1
 62
5
420
255
176
1
290
0
176
1
 90
50
176
1
 90
50
176
1
 90
50
176
1
290
0
176
1
 90
50
176
1
 62
256
176
0
 40
1.0
176
0
 90
2
176
1
  1
strokes_ogs.tif
176
1
290
0
176
1
 40
1.0
176
1
 40
1.0
176
1
  0
VISUALSTYLE
  5
68
102
{ACAD_REACTORS
330
16
102
}
330
16
100
AcDbVisualStyle
  2
Linepattern
 70
14
177
3
291
1
 70
58
 90
2
176
1
 90
2
176
1
 90
0
176
1
 90
2
176
1
 40
0.6
176
1
 40
30.0
176
1
 62
7
420
16777215
176
1
 90
1
176
1
 90
4
176
1
 62
7
176
1
 62
257
176
1
 90
1
176
1
 90
1
176
1
 40
1.0
176
1
 90
8
176
1
 62
7
176
1
 40
1.0
176
1
 90
1
176
1
 90
6
176
1
 90
2
176
1
 62
7
176
1
 90
5
176
1
 90
0
176
1
 90
0
176
1
290
0
176
1
 90
1
176
1
 40
0.0
176
1
 90
0
176
1
290
0
176
1
290
1
176
1
290
1
176
1
290
0
176
1
290
0
176
1
290
0
176
1
290
0
176
1
290
0
176
1
290
0
176
1
 90
50
176
1
 40
0.0
176
1
 40
1.0
176
1
 90
0
176
1
 62
18
420
0
176
1
 90
50
176
1
 90
3
176
1
 62
5
420
255
176
1
290
0
176
1
 90
50
176
1
 90
50
176
1
 90
50
176
1
290
0
176
1
 90
50
176
1
 62
256
176
0
 40
1.0
176
0
 90
2
176
1
  1
strokes_ogs.tif
176
1
290
0
176
1
 40
1.0
176
1
 40
1.0
176
1
  0
VISUALSTYLE
  5
69
102
{ACAD_REACTORS
330
16
102
}
330
16
100
AcDbVisualStyle
  2
Modeling
 70
10
177
3
291
0
 70
58
 90
2
176
1
 90
2
176
1
 90
0
176
1
 90
2
176
1
 40
0.6
176
1
 40
30.0
176
1
 62
7
420
16777215
176
1
 90
1
176
1
 90
4
176
1
 62
7
176
1
 62
257
176
1
 90
1
176
1
 90
1
176
1
 40
1.0
176
1
 90
8
176
1
 62
7
176
1
 40
1.0
176
1
 90
1
176
1
 90
6
176
1
 90
2
176
1
 62
7
176
1
 90
5
176
1
 90
0
176
1
 90
0
176
1
290
0
176
1
 90
1
176
1
 40
0.0
176
1
 90
0
176
1
290
0
176
1
290
1
176
1
290
1
176
1
290
0
176
1
290
0
176
1
290
0
176
1
290
0
176
1
290
0
176
1
290
0
176
1
 90
50
176
1
 40
0.0
176
1
 40
1.0
176
1
 90
0
176
1
 62
18
420
0
176
1
 90
50
176
1
 90
3
176
1
 62
5
420
255
176
1
290
0
176
1
 90
50
176
1
 90
50
176
1
 90
50
176
1
290
0
176
1
 90
50
176
1
 62
256
176
0
 40
1.0
176
0
 90
2
176
1
  1
strokes_ogs.tif
176
1
290
0
176
1
 40
1.0
176
1
 40
1.0
176
1
  0
VISUALSTYLE
  5
6A
102
{ACAD_REACTORS
330
16
102
}
330
16
100
AcDbVisualStyle
  2
OverhangOff
 70
21
177
3
291
1
 70
58
 90
2
176
1
 90
2
176
1
 90
0
176
1
 90
2
176
1
 40
0.6
176
1
 40
30.0
176
1
 62
7
420
16777215
176
1
 90
1
176
1
 90
4
176
1
 62
7
176
1
 62
257
176
1
 90
1
176
1
 90
1
176
1
 40
1.0
176
1
 90
8
176
1
 62
7
176
1
 40
1.0
176
1
 90
1
176
1
 90
6
176
1
 90
2
176
1
 62
7
176
1
 90
5
176
1
 90
0
176
1
 90
0
176
1
290
0
176
1
 90
1
176
1
 40
0.0
176
1
 90
0
176
1
290
0
176
1
290
1
176
1
290
1
176
1
290
0
176
1
290
0
176
1
290
0
176
1
290
0
176
1
290
0
176
1
290
0
176
1
 90
50
176
1
 40
0.0
176
1
 40
1.0
176
1
 90
0
176
1
 62
18
420
0
176
1
 90
50
176
1
 90
3
176
1
 62
5
420
255
176
1
290
0
176
1
 90
50
176
1
 90
50
176
1
 90
50
176
1
290
0
176
1
 90
50
176
1
 62
256
176
0
 40
1.0
176
0
 90
2
176
1
  1
strokes_ogs.tif
176
1
290
0
176
1
 40
1.0
176
1
 40
1.0
176
1
  0
VISUALSTYLE
  5
6B
102
{ACAD_REACTORS
330
16
102
}
330
16
100
AcDbVisualStyle
  2
Realistic
 70
8
177
3
291
0
 70
58
 90
2
176
1
 90
2
176
1
 90
0
176
1
 90
2
176
1
 40
0.6
176
1
 40
30.0
176
1
 62
7
420
16777215
176
1
 90
1
176
1
 90
4
176
1
 62
7
176
1
 62
257
176
1
 90
1
176
1
 90
1
176
1
 40
1.0
176
1
 90
8
176
1
 62
7
176
1
 40
1.0
176
1
 90
1
176
1
 90
6
176
1
 90
2
176
1
 62
7
176
1
 90
5
176
1
 90
0
176
1
 90
0
176
1
290
0
176
1
 90
1
176
1
 40
0.0
176
1
 90
0
176
1
290
0
176
1
290
1
176
1
290
1
176
1
290
0
176
1
290
0
176
1
290
0
176
1
290
0
176
1
290
0
176
1
290
0
176
1
 90
50
176
1
 40
0.0
176
1
 40
1.0
176
1
 90
0
176
1
 62
18
420
0
176
1
 90
50
176
1
 90
3
176
1
 62
5
420
255
176
1
290
0
176
1
 90
50
176
1
 90
50
176
1
 90
50
176
1
290
0
176
1
 90
50
176
1
 62
256
176
0
 40
1.0
176
0
 90
2
176
1
  1
strokes_ogs.tif
176
1
290
0
176
1
 40
1.0
176
1
 40
1.0
176
1
  0
VISUALSTYLE
  5
6C
102
{ACAD_REACTORS
330
16
102
}
330
16
100
AcDbVisualStyle
  2
Shaded
 70
27
177
3
291
0
 70
58
 90
2
176
1
 90
2
176
1
 90
0
176
1
 90
2
176
1
 40
0.6
176
1
 40
30.0
176
1
 62
7
420
16777215
176
1
 90
1
176
1
 90
4
176
1
 62
7
176
1
 62
257
176
1
 90
1
176
1
 90
1
176
1
 40
1.0
176
1
 90
8
176
1
 62
7
176
1
 40
1.0
176
1
 90
1
176
1
 90
6
176
1
 90
2
176
1
 62
7
176
1
 90
5
176
1
 90
0
176
1
 90
0
176
1
290
0
176
1
 90
1
176
1
 40
0.0
176
1
 90
0
176
1
290
0
176
1
290
1
176
1
290
1
176
1
290
0
176
1
290
0
176
1
290
0
176
1
290
0
176
1
290
0
176
1
290
0
176
1
 90
50
176
1
 40
0.0
176
1
 40
1.0
176
1
 90
0
176
1
 62
18
420
0
176
1
 90
50
176
1
 90
3
176
1
 62
5
420
255
176
1
290
0
176
1
 90
50
176
1
 90
50
176
1
 90
50
176
1
290
0
176
1
 90
50
176
1
 62
256
176
0
 40
1.0
176
0
 90
2
176
1
  1
strokes_ogs.tif
176
1
290
0
176
1
 40
1.0
176
1
 40
1.0
176
1
  0
VISUALSTYLE
  5
6D
102
{ACAD_REACTORS
330
16
102
}
330
16
100
AcDbVisualStyle
  2
Shaded with edges
 70
26
177
3
291
0
 70
58
 90
2
176
1
 90
2
176
1
 90
0
176
1
 90
2
176
1
 40
0.6
176
1
 40
30.0
176
1
 62
7
420
16777215
176
1
 90
1
176
1
 90
4
176
1
 62
7
176
1
 62
257
176
1
 90
1
176
1
 90
1
176
1
 40
1.0
176
1
 90
8
176
1
 62
7
176
1
 40
1.0
176
1
 90
1
176
1
 90
6
176
1
 90
2
176
1
 62
7
176
1
 90
5
176
1
 90
0
176
1
 90
0
176
1
290
0
176
1
 90
1
176
1
 40
0.0
176
1
 90
0
176
1
290
0
176
1
290
1
176
1
290
1
176
1
290
0
176
1
290
0
176
1
290
0
176
1
290
0
176
1
290
0
176
1
290
0
176
1
 90
50
176
1
 40
0.0
176
1
 40
1.0
176
1
 90
0
176
1
 62
18
420
0
176
1
 90
50
176
1
 90
3
176
1
 62
5
420
255
176
1
290
0
176
1
 90
50
176
1
 90
50
176
1
 90
50
176
1
290
0
176
1
 90
50
176
1
 62
256
176
0
 40
1.0
176
0
 90
2
176
1
  1
strokes_ogs.tif
176
1
290
0
176
1
 40
1.0
176
1
 40
1.0
176
1
  0
VISUALSTYLE
  5
6E
102
{ACAD_REACTORS
330
16
102
}
330
16
100
AcDbVisualStyle
  2
Shades of Gray
 70
23
177
3
291
0
 70
58
 90
2
176
1
 90
2
176
1
 90
0
176
1
 90
2
176
1
 40
0.6
176
1
 40
30.0
176
1
 62
7
420
16777215
176
1
 90
1
176
1
 90
4
176
1
 62
7
176
1
 62
257
176
1
 90
1
176
1
 90
1
176
1
 40
1.0
176
1
 90
8
176
1
 62
7
176
1
 40
1.0
176
1
 90
1
176
1
 90
6
176
1
 90
2
176
1
 62
7
176
1
 90
5
176
1
 90
0
176
1
 90
0
176
1
290
0
176
1
 90
1
176
1
 40
0.0
176
1
 90
0
176
1
290
0
176
1
290
1
176
1
290
1
176
1
290
0
176
1
290
0
176
1
290
0
176
1
290
0
176
1
290
0
176
1
290
0
176
1
 90
50
176
1
 40
0.0
176
1
 40
1.0
176
1
 90
0
176
1
 62
18
420
0
176
1
 90
50
176
1
 90
3
176
1
 62
5
420
255
176
1
290
0
176
1
 90
50
176
1
 90
50
176
1
 90
50
176
1
290
0
176
1
 90
50
176
1
 62
256
176
0
 40
1.0
176
0
 90
2
176
1
  1
strokes_ogs.tif
176
1
290
0
176
1
 40
1.0
176
1
 40
1.0
176
1
  0
VISUALSTYLE
  5
6F
102
{ACAD_REACTORS
330
16
102
}
330
16
100
AcDbVisualStyle
  2
Sketchy
 70
24
177
3
291
0
 70
58
 90
2
176
1
 90
2
176
1
 90
0
176
1
 90
1
176
1
 40
0.6
176
1
 40
30.0
176
1
 62
7
420
16777215
176
1
 90
1
176
1
 90
4
176
1
 62
7
176
1
 62
257
176
1
 90
1
176
1
 90
1
176
1
 40
1.0
176
1
 90
8
176
1
 62
7
176
1
 40
1.0
176
1
 90
1
176
1
 90
6
176
1
 90
2
176
1
 62
7
176
1
 90
5
176
1
 90
0
176
1
 90
0
176
1
290
0
176
1
 90
1
176
1
 40
0.0
176
1
 90
0
176
1
290
0
176
1
290
1
176
1
290
1
176
1
290
0
176
1
290
0
176
1
290
0
176
1
290
0
176
1
290
0
176
1
290
0
176
1
 90
50
176
1
 40
0.0
176
1
 40
1.0
176
1
 90
0
176
1
 62
18
420
0
176
1
 90
50
176
1
 90
3
176
1
 62
5
420
255
176
1
290
0
176
1
 90
50
176
1
 90
50
176
1
 90
50
176
1
290
0
176
1
 90
50
176
1
 62
256
176
0
 40
1.0
176
0
 90
2
176
1
  1
strokes_ogs.tif
176
1
290
0
176
1
 40
1.0
176
1
 40
1.0
176
1
  0
VISUALSTYLE
  5
70
102
{ACAD_REACTORS
330
16
102
}
330
16
100
AcDbVisualStyle
  2
Thicken
 70
13
177
3
291
1
 70
58
 90
2
176
1
 90
2
176
1
 90
0
176
1
 90
2
176
1
 40
0.6
176
1
 40
30.0
176
1
 62
7
420
16777215
176
1
 90
1
176
1
 90
4
176
1
 62
7
176
1
 62
257
176
1
 90
1
176
1
 90
1
176
1
 40
1.0
176
1
 90
8
176
1
 62
7
176
1
 40
1.0
176
1
 90
1
176
1
 90
6
176
1
 90
2
176
1
 62
7
176
1
 90
5
176
1
 90
0
176
1
 90
0
176
1
290
0
176
1
 90
1
176
1
 40
0.0
176
1
 90
0
176
1
290
0
176
1
290
1
176
1
290
1
176
1
290
0
176
1
290
0
176
1
290
0
176
1
290
0
176
1
290
0
176
1
290
0
176
1
 90
50
176
1
 40
0.0
176
1
 40
1.0
176
1
 90
0
176
1
 62
18
420
0
176
1
 90
50
176
1
 90
3
176
1
 62
5
420
255
176
1
290
0
176
1
 90
50
176
1
 90
50
176
1
 90
50
176
1
290
0
176
1
 90
50
176
1
 62
256
176
0
 40
1.0
176
0
 90
2
176
1
  1
strokes_ogs.tif
176
1
290
0
176
1
 40
1.0
176
1
 40
1.0
176
1
  0
VISUALSTYLE
  5
71
102
{ACAD_REACTORS
330
16
102
}
330
16
100
AcDbVisualStyle
  2
Wireframe
 70
5
177
3
291
0
 70
58
 90
2
176
1
 90
2
176
1
 90
0
176
1
 90
0
176
1
 40
0.6
176
1
 40
30.0
176
1
 62
7
420
16777215
176
1
 90
1
176
1
 90
4
176
1
 62
7
176
1
 62
257
176
1
 90
1
176
1
 90
1
176
1
 40
1.0
176
1
 90
8
176
1
 62
7
176
1
 40
1.0
176
1
 90
1
176
1
 90
6
176
1
 90
2
176
1
 62
7
176
1
 90
5
176
1
 90
0
176
1
 90
0
176
1
290
0
176
1
 90
1
176
1
 40
0.0
176
1
 90
0
176
1
290
0
176
1
290
1
176
1
290
1
176
1
290
0
176
1
290
0
176
1
290
0
176
1
290
0
176
1
290
0
176
1
290
0
176
1
 90
50
176
1
 40
0.0
176
1
 40
1.0
176
1
 90
0
176
1
 62
18
420
0
176
1
 90
50
176
1
 90
3
176
1
 62
5
420
255
176
1
290
0
176
1
 90
50
176
1
 90
50
176
1
 90
50
176
1
290
0
176
1
 90
50
176
1
 62
256
176
0
 40
1.0
176
0
 90
2
176
1
  1
strokes_ogs.tif
176
1
290
0
176
1
 40
1.0
176
1
 40
1.0
176
1
  0
VISUALSTYLE
  5
72
102
{ACAD_REACTORS
330
16
102
}
330
16
100
AcDbVisualStyle
  2
X-Ray
 70
25
177
3
291
0
 70
58
 90
2
176
1
 90
2
176
1
 90
0
176
1
 90
2
176
1
 40
0.5
176
1
 40
30.0
176
1
 62
7
420
16777215
176
1
 90
1
176
1
 90
4
176
1
 62
7
176
1
 62
257
176
1
 90
1
176
1
 90
1
176
1
 40
1.0
176
1
 90
8
176
1
 62
7
176
1
 40
1.0
176
1
 90
1
176
1
 90
6
176
1
 90
2
176
1
 62
7
176
1
 90
5
176
1
 90
0
176
1
 90
0
176
1
290
0
176
1
 90
1
176
1
 40
0.0
176
1
 90
0
176
1
290
0
176
1
290
1
176
1
290
1
176
1
290
0
176
1
290
0
176
1
290
0
176
1
290
0
176
1
290
0
176
1
290
0
176
1
 90
50
176
1
 40
0.0
176
1
 40
1.0
176
1
 90
0
176
1
 62
18
420
0
176
1
 90
50
176
1
 90
3
176
1
 62
5
420
255
176
1
290
0
176
1
 90
50
176
1
 90
50
176
1
 90
50
176
1
290
0
176
1
 90
50
176
1
 62
256
176
0
 40
1.0
176
0
 90
2
176
1
  1
strokes_ogs.tif
176
1
290
0
176
1
 40
1.0
176
1
 40
1.0
176
1
  0
LAYOUT
  5
41D
330
D
100
AcDbPlotSettings
  1

  2
DWG to PDF.pc3
  4
ezdxf_(420.00_x_297.00_MM)
  6

 40
10.0
 41
10.0
 42
10.0
 43
10.0
 44
420.0
 45
297.0
 46
0.0
 47
0.0
 48
0.0
 49
0.0
140
0.0
141
0.0
142
1.0
143
1.0
 70
672
 72
1
 73
0
 74
5
  7

 75
16
 76
0
 77
2
 78
300
147
1.0
148
0.0
149
0.0
100
AcDbLayout
  1
GROUND
 70
1
 71
3
 10
-10.0
 20
-10.0
 11
410.0
 21
287.0
 12
0.0
 22
0.0
 32
0.0
 14
1e+20
 24
1e+20
 34
1e+20
 15
-1e+20
 25
-1e+20
 35
-1e+20
146
0.0
 13
0.0
 23
0.0
 33
0.0
 16
1.0
 26
0.0
 36
0.0
 17
0.0
 27
1.0
 37
0.0
 76
1
330
41A
331
41E
  0
DICTIONARYVAR
  5
423
330
2D
100
DictionaryVariables
280
0
  1
0.0 @ 2000-01-01T00:00:00.000000+00:00
  0
ENDSEC
  0
EOF
