ISO-10303-21;
HEADER;
FILE_DESCRIPTION(('ViewDefinition [DesignTransferView]','PRELIMINARY - ENGINEER TO REVIEW'),'2;1');
FILE_NAME('FloorForge.ifc','2026-09-06T00:00:00',('FloorForge'),('FloorForge'),'FloorForge 0.2','FloorForge','');
FILE_SCHEMA(('IFC4'));
ENDSEC;
DATA;
#1=IFCCARTESIANPOINT((0.,0.,0.));
#2=IFCAXIS2PLACEMENT3D(#1,$,$);
#3=IFCLOCALPLACEMENT($,#2);
#4=IFCCARTESIANPOINT((0.,0.,0.));
#5=IFCAXIS2PLACEMENT3D(#4,$,$);
#6=IFCGEOMETRICREPRESENTATIONCONTEXT($,'Model',3,0.00001,#5,$);
#7=IFCSIUNIT(*,.LENGTHUNIT.,.MILLI.,.METRE.);
#8=IFCSIUNIT(*,.AREAUNIT.,$,.SQUARE_METRE.);
#9=IFCSIUNIT(*,.VOLUMEUNIT.,$,.CUBIC_METRE.);
#10=IFCSIUNIT(*,.PLANEANGLEUNIT.,$,.RADIAN.);
#11=IFCUNITASSIGNMENT((#7,#8,#9,#10));
#12=IFCPROJECT('2a2_X_ZHvSyuOfiZys31j4',$,'The Verandah House','PRELIMINARY - ENGINEER TO REVIEW - NOT FOR CONSTRUCTION',$,$,$,(#6),#11);
#13=IFCSITE('0IND1MtDfK1AbQ2nKV0Yfj',$,'Unsurveyed plot',$,$,#3,$,$,.ELEMENT.,$,$,$,$,$);
#14=IFCBUILDING('3d_qio$hPPbRLetmFAJFuc',$,'Preliminary house',$,$,#3,$,$,.ELEMENT.,$,$,$);
#15=IFCRELAGGREGATES('1ZAPOA5gXUm96CSQ6hMnFI',$,$,$,#12,(#13));
#16=IFCRELAGGREGATES('37xmt9XwzNWfTTFBKnonrr',$,$,$,#13,(#14));
#17=IFCCARTESIANPOINT((0.,0.,0.));
#18=IFCAXIS2PLACEMENT3D(#17,$,$);
#19=IFCLOCALPLACEMENT(#3,#18);
#20=IFCBUILDINGSTOREY('0HSym5oLvSJeN0iAUrC7hc',$,'Ground floor',$,$,#19,$,$,.ELEMENT.,0.);
#21=IFCRELAGGREGATES('0kttugR8vVchF2bevvlRNq',$,$,$,#14,(#20));
#22=IFCCARTESIANPOINT((230.,3680.));
#23=IFCCARTESIANPOINT((230.,0.));
#24=IFCCARTESIANPOINT((0.,0.));
#25=IFCCARTESIANPOINT((0.,3680.));
#26=IFCCARTESIANPOINT((230.,3680.));
#27=IFCPOLYLINE((#22,#23,#24,#25,#26));
#28=IFCARBITRARYCLOSEDPROFILEDEF(.AREA.,$,#27);
#29=IFCCARTESIANPOINT((0.,0.,0.));
#30=IFCAXIS2PLACEMENT3D(#29,$,$);
#31=IFCDIRECTION((0.,0.,1.));
#32=IFCEXTRUDEDAREASOLID(#28,#30,#31,3000.);
#33=IFCSHAPEREPRESENTATION(#6,'Body','SweptSolid',(#32));
#34=IFCPRODUCTDEFINITIONSHAPE($,$,(#33));
#35=IFCWALL('0IVxmT9WHJCvmO4yTMhDq6',$,'F0-W001','Nominal wall; structural role unverified',$,#19,#34,'F0-W001',.NOTDEFINED.);
#36=IFCCARTESIANPOINT((7644.,230.));
#37=IFCCARTESIANPOINT((7644.,0.));
#38=IFCCARTESIANPOINT((0.,0.));
#39=IFCCARTESIANPOINT((0.,230.));
#40=IFCCARTESIANPOINT((7644.,230.));
#41=IFCPOLYLINE((#36,#37,#38,#39,#40));
#42=IFCARBITRARYCLOSEDPROFILEDEF(.AREA.,$,#41);
#43=IFCCARTESIANPOINT((0.,0.,0.));
#44=IFCAXIS2PLACEMENT3D(#43,$,$);
#45=IFCDIRECTION((0.,0.,1.));
#46=IFCEXTRUDEDAREASOLID(#42,#44,#45,3000.);
#47=IFCSHAPEREPRESENTATION(#6,'Body','SweptSolid',(#46));
#48=IFCPRODUCTDEFINITIONSHAPE($,$,(#47));
#49=IFCWALL('0TSQyhba1V0PFSkMjjDO_o',$,'F0-W002','Nominal wall; structural role unverified',$,#19,#48,'F0-W002',.NOTDEFINED.);
#50=IFCCARTESIANPOINT((230.,6580.));
#51=IFCCARTESIANPOINT((230.,3450.));
#52=IFCCARTESIANPOINT((230.,3220.));
#53=IFCCARTESIANPOINT((0.,3220.));
#54=IFCCARTESIANPOINT((0.,6580.));
#55=IFCCARTESIANPOINT((230.,6580.));
#56=IFCPOLYLINE((#50,#51,#52,#53,#54,#55));
#57=IFCARBITRARYCLOSEDPROFILEDEF(.AREA.,$,#56);
#58=IFCCARTESIANPOINT((0.,0.,0.));
#59=IFCAXIS2PLACEMENT3D(#58,$,$);
#60=IFCDIRECTION((0.,0.,1.));
#61=IFCEXTRUDEDAREASOLID(#57,#59,#60,3000.);
#62=IFCSHAPEREPRESENTATION(#6,'Body','SweptSolid',(#61));
#63=IFCPRODUCTDEFINITIONSHAPE($,$,(#62));
#64=IFCWALL('3QVSBFFy9Us8E4XRB73Gwu',$,'F0-W003','Nominal wall; structural role unverified',$,#19,#63,'F0-W003',.NOTDEFINED.);
#65=IFCCARTESIANPOINT((2625.,3525.));
#66=IFCCARTESIANPOINT((2625.,3375.));
#67=IFCCARTESIANPOINT((0.,3375.));
#68=IFCCARTESIANPOINT((0.,3525.));
#69=IFCCARTESIANPOINT((2550.,3525.));
#70=IFCCARTESIANPOINT((2625.,3525.));
#71=IFCPOLYLINE((#65,#66,#67,#68,#69,#70));
#72=IFCARBITRARYCLOSEDPROFILEDEF(.AREA.,$,#71);
#73=IFCCARTESIANPOINT((0.,0.,0.));
#74=IFCAXIS2PLACEMENT3D(#73,$,$);
#75=IFCDIRECTION((0.,0.,1.));
#76=IFCEXTRUDEDAREASOLID(#72,#74,#75,3000.);
#77=IFCSHAPEREPRESENTATION(#6,'Body','SweptSolid',(#76));
#78=IFCPRODUCTDEFINITIONSHAPE($,$,(#77));
#79=IFCWALL('0PJjSfGODNdebqIYecH63i',$,'F0-W004','Nominal wall; structural role unverified',$,#19,#78,'F0-W004',.NOTDEFINED.);
#80=IFCCARTESIANPOINT((230.,8080.));
#81=IFCCARTESIANPOINT((230.,6350.));
#82=IFCCARTESIANPOINT((230.,6120.));
#83=IFCCARTESIANPOINT((0.,6120.));
#84=IFCCARTESIANPOINT((0.,8080.));
#85=IFCCARTESIANPOINT((230.,8080.));
#86=IFCPOLYLINE((#80,#81,#82,#83,#84,#85));
#87=IFCARBITRARYCLOSEDPROFILEDEF(.AREA.,$,#86);
#88=IFCCARTESIANPOINT((0.,0.,0.));
#89=IFCAXIS2PLACEMENT3D(#88,$,$);
#90=IFCDIRECTION((0.,0.,1.));
#91=IFCEXTRUDEDAREASOLID(#87,#89,#90,3000.);
#92=IFCSHAPEREPRESENTATION(#6,'Body','SweptSolid',(#91));
#93=IFCPRODUCTDEFINITIONSHAPE($,$,(#92));
#94=IFCWALL('3LMoYkeEzIL8GVdf85a_8L',$,'F0-W005','Nominal wall; structural role unverified',$,#19,#93,'F0-W005',.NOTDEFINED.);
#95=IFCCARTESIANPOINT((2625.,6425.));
#96=IFCCARTESIANPOINT((2625.,6275.));
#97=IFCCARTESIANPOINT((0.,6275.));
#98=IFCCARTESIANPOINT((0.,6425.));
#99=IFCCARTESIANPOINT((2550.,6425.));
#100=IFCCARTESIANPOINT((2625.,6425.));
#101=IFCPOLYLINE((#95,#96,#97,#98,#99,#100));
#102=IFCARBITRARYCLOSEDPROFILEDEF(.AREA.,$,#101);
#103=IFCCARTESIANPOINT((0.,0.,0.));
#104=IFCAXIS2PLACEMENT3D(#103,$,$);
#105=IFCDIRECTION((0.,0.,1.));
#106=IFCEXTRUDEDAREASOLID(#102,#104,#105,3000.);
#107=IFCSHAPEREPRESENTATION(#6,'Body','SweptSolid',(#106));
#108=IFCPRODUCTDEFINITIONSHAPE($,$,(#107));
#109=IFCWALL('3iOL1wIJDQswl$iiP3TE9s',$,'F0-W006','Nominal wall; structural role unverified',$,#19,#108,'F0-W006',.NOTDEFINED.);
#110=IFCCARTESIANPOINT((230.,7850.));
#111=IFCCARTESIANPOINT((230.,7620.));
#112=IFCCARTESIANPOINT((0.,7620.));
#113=IFCCARTESIANPOINT((0.,9492.));
#114=IFCCARTESIANPOINT((230.,9492.));
#115=IFCCARTESIANPOINT((230.,7850.));
#116=IFCPOLYLINE((#110,#111,#112,#113,#114,#115));
#117=IFCARBITRARYCLOSEDPROFILEDEF(.AREA.,$,#116);
#118=IFCCARTESIANPOINT((0.,0.,0.));
#119=IFCAXIS2PLACEMENT3D(#118,$,$);
#120=IFCDIRECTION((0.,0.,1.));
#121=IFCEXTRUDEDAREASOLID(#117,#119,#120,3000.);
#122=IFCSHAPEREPRESENTATION(#6,'Body','SweptSolid',(#121));
#123=IFCPRODUCTDEFINITIONSHAPE($,$,(#122));
#124=IFCWALL('1fz8kV1F5UFP48E8Tc36oe',$,'F0-W007','Nominal wall; structural role unverified',$,#19,#123,'F0-W007',.NOTDEFINED.);
#125=IFCCARTESIANPOINT((2625.,7925.));
#126=IFCCARTESIANPOINT((2625.,7775.));
#127=IFCCARTESIANPOINT((0.,7775.));
#128=IFCCARTESIANPOINT((0.,7925.));
#129=IFCCARTESIANPOINT((2550.,7925.));
#130=IFCCARTESIANPOINT((2625.,7925.));
#131=IFCPOLYLINE((#125,#126,#127,#128,#129,#130));
#132=IFCARBITRARYCLOSEDPROFILEDEF(.AREA.,$,#131);
#133=IFCCARTESIANPOINT((0.,0.,0.));
#134=IFCAXIS2PLACEMENT3D(#133,$,$);
#135=IFCDIRECTION((0.,0.,1.));
#136=IFCEXTRUDEDAREASOLID(#132,#134,#135,3000.);
#137=IFCSHAPEREPRESENTATION(#6,'Body','SweptSolid',(#136));
#138=IFCPRODUCTDEFINITIONSHAPE($,$,(#137));
#139=IFCWALL('3ju1qNjfrGGPYcuMRH7tIr',$,'F0-W008','Nominal wall; structural role unverified',$,#19,#138,'F0-W008',.NOTDEFINED.);
#140=IFCCARTESIANPOINT((2780.,9262.));
#141=IFCCARTESIANPOINT((0.,9262.));
#142=IFCCARTESIANPOINT((0.,9492.));
#143=IFCCARTESIANPOINT((2780.,9492.));
#144=IFCCARTESIANPOINT((2780.,9262.));
#145=IFCPOLYLINE((#140,#141,#142,#143,#144));
#146=IFCARBITRARYCLOSEDPROFILEDEF(.AREA.,$,#145);
#147=IFCCARTESIANPOINT((0.,0.,0.));
#148=IFCAXIS2PLACEMENT3D(#147,$,$);
#149=IFCDIRECTION((0.,0.,1.));
#150=IFCEXTRUDEDAREASOLID(#146,#148,#149,3000.);
#151=IFCSHAPEREPRESENTATION(#6,'Body','SweptSolid',(#150));
#152=IFCPRODUCTDEFINITIONSHAPE($,$,(#151));
#153=IFCWALL('06YW0W7unRDea7jva_Sw3T',$,'F0-W009','Nominal wall; structural role unverified',$,#19,#152,'F0-W009',.NOTDEFINED.);
#154=IFCCARTESIANPOINT((2475.,6425.));
#155=IFCCARTESIANPOINT((2625.,6425.));
#156=IFCCARTESIANPOINT((2625.,3450.));
#157=IFCCARTESIANPOINT((2625.,3375.));
#158=IFCCARTESIANPOINT((2475.,3375.));
#159=IFCCARTESIANPOINT((2475.,6350.));
#160=IFCCARTESIANPOINT((2475.,6425.));
#161=IFCPOLYLINE((#154,#155,#156,#157,#158,#159,#160));
#162=IFCARBITRARYCLOSEDPROFILEDEF(.AREA.,$,#161);
#163=IFCCARTESIANPOINT((0.,0.,0.));
#164=IFCAXIS2PLACEMENT3D(#163,$,$);
#165=IFCDIRECTION((0.,0.,1.));
#166=IFCEXTRUDEDAREASOLID(#162,#164,#165,3000.);
#167=IFCSHAPEREPRESENTATION(#6,'Body','SweptSolid',(#166));
#168=IFCPRODUCTDEFINITIONSHAPE($,$,(#167));
#169=IFCWALL('2tN8NEHAvLD9PsgSlbIGG9',$,'F0-W010','Nominal wall; structural role unverified',$,#19,#168,'F0-W010',.NOTDEFINED.);
#170=IFCCARTESIANPOINT((2475.,7925.));
#171=IFCCARTESIANPOINT((2625.,7925.));
#172=IFCCARTESIANPOINT((2625.,6350.));
#173=IFCCARTESIANPOINT((2625.,6275.));
#174=IFCCARTESIANPOINT((2475.,6275.));
#175=IFCCARTESIANPOINT((2475.,7850.));
#176=IFCCARTESIANPOINT((2475.,7925.));
#177=IFCPOLYLINE((#170,#171,#172,#173,#174,#175,#176));
#178=IFCARBITRARYCLOSEDPROFILEDEF(.AREA.,$,#177);
#179=IFCCARTESIANPOINT((0.,0.,0.));
#180=IFCAXIS2PLACEMENT3D(#179,$,$);
#181=IFCDIRECTION((0.,0.,1.));
#182=IFCEXTRUDEDAREASOLID(#178,#180,#181,3000.);
#183=IFCSHAPEREPRESENTATION(#6,'Body','SweptSolid',(#182));
#184=IFCPRODUCTDEFINITIONSHAPE($,$,(#183));
#185=IFCWALL('0ivxzn$g5HEhhEmSR1GDGd',$,'F0-W011','Nominal wall; structural role unverified',$,#19,#184,'F0-W011',.NOTDEFINED.);
#186=IFCCARTESIANPOINT((2625.,7850.));
#187=IFCCARTESIANPOINT((2625.,7775.));
#188=IFCCARTESIANPOINT((2475.,7775.));
#189=IFCCARTESIANPOINT((2475.,9492.));
#190=IFCCARTESIANPOINT((2625.,9492.));
#191=IFCCARTESIANPOINT((2625.,7850.));
#192=IFCPOLYLINE((#186,#187,#188,#189,#190,#191));
#193=IFCARBITRARYCLOSEDPROFILEDEF(.AREA.,$,#192);
#194=IFCCARTESIANPOINT((0.,0.,0.));
#195=IFCAXIS2PLACEMENT3D(#194,$,$);
#196=IFCDIRECTION((0.,0.,1.));
#197=IFCEXTRUDEDAREASOLID(#193,#195,#196,3000.);
#198=IFCSHAPEREPRESENTATION(#6,'Body','SweptSolid',(#197));
#199=IFCPRODUCTDEFINITIONSHAPE($,$,(#198));
#200=IFCWALL('16H1kuuQ9ScADYvslbUNxH',$,'F0-W012','Nominal wall; structural role unverified',$,#19,#199,'F0-W012',.NOTDEFINED.);
#201=IFCCARTESIANPOINT((4130.,9262.));
#202=IFCCARTESIANPOINT((2550.,9262.));
#203=IFCCARTESIANPOINT((2320.,9262.));
#204=IFCCARTESIANPOINT((2320.,9492.));
#205=IFCCARTESIANPOINT((4130.,9492.));
#206=IFCCARTESIANPOINT((4130.,9262.));
#207=IFCPOLYLINE((#201,#202,#203,#204,#205,#206));
#208=IFCARBITRARYCLOSEDPROFILEDEF(.AREA.,$,#207);
#209=IFCCARTESIANPOINT((0.,0.,0.));
#210=IFCAXIS2PLACEMENT3D(#209,$,$);
#211=IFCDIRECTION((0.,0.,1.));
#212=IFCEXTRUDEDAREASOLID(#208,#210,#211,3000.);
#213=IFCSHAPEREPRESENTATION(#6,'Body','SweptSolid',(#212));
#214=IFCPRODUCTDEFINITIONSHAPE($,$,(#213));
#215=IFCWALL('1ydUaloefQtBYdv9UaoSdn',$,'F0-W013','Nominal wall; structural role unverified',$,#19,#214,'F0-W013',.NOTDEFINED.);
#216=IFCCARTESIANPOINT((3825.,6425.));
#217=IFCCARTESIANPOINT((3975.,6425.));
#218=IFCCARTESIANPOINT((3975.,3450.));
#219=IFCCARTESIANPOINT((3975.,3375.));
#220=IFCCARTESIANPOINT((3825.,3375.));
#221=IFCCARTESIANPOINT((3825.,6350.));
#222=IFCCARTESIANPOINT((3825.,6425.));
#223=IFCPOLYLINE((#216,#217,#218,#219,#220,#221,#222));
#224=IFCARBITRARYCLOSEDPROFILEDEF(.AREA.,$,#223);
#225=IFCCARTESIANPOINT((0.,0.,0.));
#226=IFCAXIS2PLACEMENT3D(#225,$,$);
#227=IFCDIRECTION((0.,0.,1.));
#228=IFCEXTRUDEDAREASOLID(#224,#226,#227,3000.);
#229=IFCSHAPEREPRESENTATION(#6,'Body','SweptSolid',(#228));
#230=IFCPRODUCTDEFINITIONSHAPE($,$,(#229));
#231=IFCWALL('0S2gSq8H9M0e76hpbjgiTy',$,'F0-W014','Nominal wall; structural role unverified',$,#19,#230,'F0-W014',.NOTDEFINED.);
#232=IFCCARTESIANPOINT((3900.,3375.));
#233=IFCCARTESIANPOINT((3825.,3375.));
#234=IFCCARTESIANPOINT((3825.,3525.));
#235=IFCCARTESIANPOINT((7644.,3525.));
#236=IFCCARTESIANPOINT((7644.,3375.));
#237=IFCCARTESIANPOINT((3900.,3375.));
#238=IFCPOLYLINE((#232,#233,#234,#235,#236,#237));
#239=IFCARBITRARYCLOSEDPROFILEDEF(.AREA.,$,#238);
#240=IFCCARTESIANPOINT((0.,0.,0.));
#241=IFCAXIS2PLACEMENT3D(#240,$,$);
#242=IFCDIRECTION((0.,0.,1.));
#243=IFCEXTRUDEDAREASOLID(#239,#241,#242,3000.);
#244=IFCSHAPEREPRESENTATION(#6,'Body','SweptSolid',(#243));
#245=IFCPRODUCTDEFINITIONSHAPE($,$,(#244));
#246=IFCWALL('3ND9WpBWbJZBBeOfT_Whcx',$,'F0-W015','Nominal wall; structural role unverified',$,#19,#245,'F0-W015',.NOTDEFINED.);
#247=IFCCARTESIANPOINT((3975.,6350.));
#248=IFCCARTESIANPOINT((3975.,6275.));
#249=IFCCARTESIANPOINT((3825.,6275.));
#250=IFCCARTESIANPOINT((3825.,9492.));
#251=IFCCARTESIANPOINT((3975.,9492.));
#252=IFCCARTESIANPOINT((3975.,6350.));
#253=IFCPOLYLINE((#247,#248,#249,#250,#251,#252));
#254=IFCARBITRARYCLOSEDPROFILEDEF(.AREA.,$,#253);
#255=IFCCARTESIANPOINT((0.,0.,0.));
#256=IFCAXIS2PLACEMENT3D(#255,$,$);
#257=IFCDIRECTION((0.,0.,1.));
#258=IFCEXTRUDEDAREASOLID(#254,#256,#257,3000.);
#259=IFCSHAPEREPRESENTATION(#6,'Body','SweptSolid',(#258));
#260=IFCPRODUCTDEFINITIONSHAPE($,$,(#259));
#261=IFCWALL('2ijZhWXNvGvx$EwOMaQUYr',$,'F0-W016','Nominal wall; structural role unverified',$,#19,#260,'F0-W016',.NOTDEFINED.);
#262=IFCCARTESIANPOINT((3900.,6275.));
#263=IFCCARTESIANPOINT((3825.,6275.));
#264=IFCCARTESIANPOINT((3825.,6425.));
#265=IFCCARTESIANPOINT((7644.,6425.));
#266=IFCCARTESIANPOINT((7644.,6275.));
#267=IFCCARTESIANPOINT((3900.,6275.));
#268=IFCPOLYLINE((#262,#263,#264,#265,#266,#267));
#269=IFCARBITRARYCLOSEDPROFILEDEF(.AREA.,$,#268);
#270=IFCCARTESIANPOINT((0.,0.,0.));
#271=IFCAXIS2PLACEMENT3D(#270,$,$);
#272=IFCDIRECTION((0.,0.,1.));
#273=IFCEXTRUDEDAREASOLID(#269,#271,#272,3000.);
#274=IFCSHAPEREPRESENTATION(#6,'Body','SweptSolid',(#273));
#275=IFCPRODUCTDEFINITIONSHAPE($,$,(#274));
#276=IFCWALL('26gewieb5JKPPzJu1Do1Ly',$,'F0-W017','Nominal wall; structural role unverified',$,#19,#275,'F0-W017',.NOTDEFINED.);
#277=IFCCARTESIANPOINT((3900.,9262.));
#278=IFCCARTESIANPOINT((3670.,9262.));
#279=IFCCARTESIANPOINT((3670.,9492.));
#280=IFCCARTESIANPOINT((7644.,9492.));
#281=IFCCARTESIANPOINT((7644.,9262.));
#282=IFCCARTESIANPOINT((3900.,9262.));
#283=IFCPOLYLINE((#277,#278,#279,#280,#281,#282));
#284=IFCARBITRARYCLOSEDPROFILEDEF(.AREA.,$,#283);
#285=IFCCARTESIANPOINT((0.,0.,0.));
#286=IFCAXIS2PLACEMENT3D(#285,$,$);
#287=IFCDIRECTION((0.,0.,1.));
#288=IFCEXTRUDEDAREASOLID(#284,#286,#287,3000.);
#289=IFCSHAPEREPRESENTATION(#6,'Body','SweptSolid',(#288));
#290=IFCPRODUCTDEFINITIONSHAPE($,$,(#289));
#291=IFCWALL('1Oq9yWGyXK$hECrhRYMRza',$,'F0-W018','Nominal wall; structural role unverified',$,#19,#290,'F0-W018',.NOTDEFINED.);
#292=IFCCARTESIANPOINT((7414.,3680.));
#293=IFCCARTESIANPOINT((7644.,3680.));
#294=IFCCARTESIANPOINT((7644.,0.));
#295=IFCCARTESIANPOINT((7414.,0.));
#296=IFCCARTESIANPOINT((7414.,3450.));
#297=IFCCARTESIANPOINT((7414.,3680.));
#298=IFCPOLYLINE((#292,#293,#294,#295,#296,#297));
#299=IFCARBITRARYCLOSEDPROFILEDEF(.AREA.,$,#298);
#300=IFCCARTESIANPOINT((0.,0.,0.));
#301=IFCAXIS2PLACEMENT3D(#300,$,$);
#302=IFCDIRECTION((0.,0.,1.));
#303=IFCEXTRUDEDAREASOLID(#299,#301,#302,3000.);
#304=IFCSHAPEREPRESENTATION(#6,'Body','SweptSolid',(#303));
#305=IFCPRODUCTDEFINITIONSHAPE($,$,(#304));
#306=IFCWALL('2cM74skKLVFAYu59P2N9UQ',$,'F0-W019','Nominal wall; structural role unverified',$,#19,#305,'F0-W019',.NOTDEFINED.);
#307=IFCCARTESIANPOINT((7414.,6580.));
#308=IFCCARTESIANPOINT((7644.,6580.));
#309=IFCCARTESIANPOINT((7644.,3220.));
#310=IFCCARTESIANPOINT((7414.,3220.));
#311=IFCCARTESIANPOINT((7414.,6350.));
#312=IFCCARTESIANPOINT((7414.,6580.));
#313=IFCPOLYLINE((#307,#308,#309,#310,#311,#312));
#314=IFCARBITRARYCLOSEDPROFILEDEF(.AREA.,$,#313);
#315=IFCCARTESIANPOINT((0.,0.,0.));
#316=IFCAXIS2PLACEMENT3D(#315,$,$);
#317=IFCDIRECTION((0.,0.,1.));
#318=IFCEXTRUDEDAREASOLID(#314,#316,#317,3000.);
#319=IFCSHAPEREPRESENTATION(#6,'Body','SweptSolid',(#318));
#320=IFCPRODUCTDEFINITIONSHAPE($,$,(#319));
#321=IFCWALL('0pNWN9FzvTIOJuzlKks9tQ',$,'F0-W020','Nominal wall; structural role unverified',$,#19,#320,'F0-W020',.NOTDEFINED.);
#322=IFCCARTESIANPOINT((7414.,6120.));
#323=IFCCARTESIANPOINT((7414.,9492.));
#324=IFCCARTESIANPOINT((7644.,9492.));
#325=IFCCARTESIANPOINT((7644.,6120.));
#326=IFCCARTESIANPOINT((7414.,6120.));
#327=IFCPOLYLINE((#322,#323,#324,#325,#326));
#328=IFCARBITRARYCLOSEDPROFILEDEF(.AREA.,$,#327);
#329=IFCCARTESIANPOINT((0.,0.,0.));
#330=IFCAXIS2PLACEMENT3D(#329,$,$);
#331=IFCDIRECTION((0.,0.,1.));
#332=IFCEXTRUDEDAREASOLID(#328,#330,#331,3000.);
#333=IFCSHAPEREPRESENTATION(#6,'Body','SweptSolid',(#332));
#334=IFCPRODUCTDEFINITIONSHAPE($,$,(#333));
#335=IFCWALL('2zSG5dLnfR0B16O$sDmNHN',$,'F0-W021','Nominal wall; structural role unverified',$,#19,#334,'F0-W021',.NOTDEFINED.);
#336=IFCCARTESIANPOINT((3825.,3450.));
#337=IFCCARTESIANPOINT((3825.,3375.));
#338=IFCCARTESIANPOINT((3900.,3375.));
#339=IFCCARTESIANPOINT((3975.,3375.));
#340=IFCCARTESIANPOINT((7414.,3375.));
#341=IFCCARTESIANPOINT((7414.,3220.));
#342=IFCCARTESIANPOINT((7414.,230.));
#343=IFCCARTESIANPOINT((230.,230.));
#344=IFCCARTESIANPOINT((230.,3220.));
#345=IFCCARTESIANPOINT((230.,3375.));
#346=IFCCARTESIANPOINT((2475.,3375.));
#347=IFCCARTESIANPOINT((2625.,3375.));
#348=IFCCARTESIANPOINT((2625.,3450.));
#349=IFCCARTESIANPOINT((3825.,3450.));
#350=IFCPOLYLINE((#336,#337,#338,#339,#340,#341,#342,#343,#344,#345,#346,#347,#348,#349));
#351=IFCARBITRARYCLOSEDPROFILEDEF(.AREA.,$,#350);
#352=IFCCARTESIANPOINT((0.,0.,0.));
#353=IFCAXIS2PLACEMENT3D(#352,$,$);
#354=IFCDIRECTION((0.,0.,1.));
#355=IFCEXTRUDEDAREASOLID(#351,#353,#354,3000.);
#356=IFCSHAPEREPRESENTATION(#6,'Body','SweptSolid',(#355));
#357=IFCPRODUCTDEFINITIONSHAPE($,$,(#356));
#358=IFCSPACE('1iUUA1MxXRXRgbMX6a5t7r',$,'Living & dining','Clear-space study volume',$,#19,#357,'F0-living',.ELEMENT.,.NOTDEFINED.,$);
#359=IFCCARTESIANPOINT((2625.,3450.));
#360=IFCCARTESIANPOINT((2625.,3525.));
#361=IFCCARTESIANPOINT((2625.,6275.));
#362=IFCCARTESIANPOINT((2625.,6350.));
#363=IFCCARTESIANPOINT((2625.,6425.));
#364=IFCCARTESIANPOINT((2625.,7775.));
#365=IFCCARTESIANPOINT((2625.,7850.));
#366=IFCCARTESIANPOINT((2625.,7925.));
#367=IFCCARTESIANPOINT((2625.,9262.));
#368=IFCCARTESIANPOINT((2780.,9262.));
#369=IFCCARTESIANPOINT((3670.,9262.));
#370=IFCCARTESIANPOINT((3825.,9262.));
#371=IFCCARTESIANPOINT((3825.,6425.));
#372=IFCCARTESIANPOINT((3825.,6350.));
#373=IFCCARTESIANPOINT((3825.,6275.));
#374=IFCCARTESIANPOINT((3825.,3525.));
#375=IFCCARTESIANPOINT((3825.,3450.));
#376=IFCCARTESIANPOINT((2625.,3450.));
#377=IFCPOLYLINE((#359,#360,#361,#362,#363,#364,#365,#366,#367,#368,#369,#370,#371,#372,#373,#374,#375,#376));
#378=IFCARBITRARYCLOSEDPROFILEDEF(.AREA.,$,#377);
#379=IFCCARTESIANPOINT((0.,0.,0.));
#380=IFCAXIS2PLACEMENT3D(#379,$,$);
#381=IFCDIRECTION((0.,0.,1.));
#382=IFCEXTRUDEDAREASOLID(#378,#380,#381,3000.);
#383=IFCSHAPEREPRESENTATION(#6,'Body','SweptSolid',(#382));
#384=IFCPRODUCTDEFINITIONSHAPE($,$,(#383));
#385=IFCSPACE('3syy0l4frVtQFGMQtu9JVj',$,'Hall','Clear-space study volume',$,#19,#384,'F0-hall',.ELEMENT.,.NOTDEFINED.,$);
#386=IFCCARTESIANPOINT((2475.,6275.));
#387=IFCCARTESIANPOINT((2475.,3525.));
#388=IFCCARTESIANPOINT((230.,3525.));
#389=IFCCARTESIANPOINT((230.,3680.));
#390=IFCCARTESIANPOINT((230.,6120.));
#391=IFCCARTESIANPOINT((230.,6275.));
#392=IFCCARTESIANPOINT((2475.,6275.));
#393=IFCPOLYLINE((#386,#387,#388,#389,#390,#391,#392));
#394=IFCARBITRARYCLOSEDPROFILEDEF(.AREA.,$,#393);
#395=IFCCARTESIANPOINT((0.,0.,0.));
#396=IFCAXIS2PLACEMENT3D(#395,$,$);
#397=IFCDIRECTION((0.,0.,1.));
#398=IFCEXTRUDEDAREASOLID(#394,#396,#397,3000.);
#399=IFCSHAPEREPRESENTATION(#6,'Body','SweptSolid',(#398));
#400=IFCPRODUCTDEFINITIONSHAPE($,$,(#399));
#401=IFCSPACE('1CHRqV8bTJpOO7SSK0k3zZ',$,'Kitchen','Clear-space study volume',$,#19,#400,'F0-kitchen',.ELEMENT.,.NOTDEFINED.,$);
#402=IFCCARTESIANPOINT((230.,6425.));
#403=IFCCARTESIANPOINT((230.,6580.));
#404=IFCCARTESIANPOINT((230.,7620.));
#405=IFCCARTESIANPOINT((230.,7775.));
#406=IFCCARTESIANPOINT((2475.,7775.));
#407=IFCCARTESIANPOINT((2475.,6425.));
#408=IFCCARTESIANPOINT((230.,6425.));
#409=IFCPOLYLINE((#402,#403,#404,#405,#406,#407,#408));
#410=IFCARBITRARYCLOSEDPROFILEDEF(.AREA.,$,#409);
#411=IFCCARTESIANPOINT((0.,0.,0.));
#412=IFCAXIS2PLACEMENT3D(#411,$,$);
#413=IFCDIRECTION((0.,0.,1.));
#414=IFCEXTRUDEDAREASOLID(#410,#412,#413,3000.);
#415=IFCSHAPEREPRESENTATION(#6,'Body','SweptSolid',(#414));
#416=IFCPRODUCTDEFINITIONSHAPE($,$,(#415));
#417=IFCSPACE('3wbK3RxKnHfg5hY43y9prE',$,'Utility','Clear-space study volume',$,#19,#416,'F0-utility',.ELEMENT.,.NOTDEFINED.,$);
#418=IFCCARTESIANPOINT((230.,9262.));
#419=IFCCARTESIANPOINT((2320.,9262.));
#420=IFCCARTESIANPOINT((2475.,9262.));
#421=IFCCARTESIANPOINT((2475.,7925.));
#422=IFCCARTESIANPOINT((230.,7925.));
#423=IFCCARTESIANPOINT((230.,8080.));
#424=IFCCARTESIANPOINT((230.,9262.));
#425=IFCPOLYLINE((#418,#419,#420,#421,#422,#423,#424));
#426=IFCARBITRARYCLOSEDPROFILEDEF(.AREA.,$,#425);
#427=IFCCARTESIANPOINT((0.,0.,0.));
#428=IFCAXIS2PLACEMENT3D(#427,$,$);
#429=IFCDIRECTION((0.,0.,1.));
#430=IFCEXTRUDEDAREASOLID(#426,#428,#429,3000.);
#431=IFCSHAPEREPRESENTATION(#6,'Body','SweptSolid',(#430));
#432=IFCPRODUCTDEFINITIONSHAPE($,$,(#431));
#433=IFCSPACE('1xfocFzIXLkRe4QNPF6IgP',$,'Common bath','Clear-space study volume',$,#19,#432,'F0-cbath',.ELEMENT.,.NOTDEFINED.,$);
#434=IFCCARTESIANPOINT((3975.,3525.));
#435=IFCCARTESIANPOINT((3975.,6275.));
#436=IFCCARTESIANPOINT((7414.,6275.));
#437=IFCCARTESIANPOINT((7414.,6120.));
#438=IFCCARTESIANPOINT((7414.,3680.));
#439=IFCCARTESIANPOINT((7414.,3525.));
#440=IFCCARTESIANPOINT((3975.,3525.));
#441=IFCPOLYLINE((#434,#435,#436,#437,#438,#439,#440));
#442=IFCARBITRARYCLOSEDPROFILEDEF(.AREA.,$,#441);
#443=IFCCARTESIANPOINT((0.,0.,0.));
#444=IFCAXIS2PLACEMENT3D(#443,$,$);
#445=IFCDIRECTION((0.,0.,1.));
#446=IFCEXTRUDEDAREASOLID(#442,#444,#445,3000.);
#447=IFCSHAPEREPRESENTATION(#6,'Body','SweptSolid',(#446));
#448=IFCPRODUCTDEFINITIONSHAPE($,$,(#447));
#449=IFCSPACE('15hyEX7_PQBgaFKR5cawAt',$,'Bedroom 1','Clear-space study volume',$,#19,#448,'F0-bed-1',.ELEMENT.,.NOTDEFINED.,$);
#450=IFCCARTESIANPOINT((7414.,6580.));
#451=IFCCARTESIANPOINT((7414.,6425.));
#452=IFCCARTESIANPOINT((3975.,6425.));
#453=IFCCARTESIANPOINT((3975.,9262.));
#454=IFCCARTESIANPOINT((4130.,9262.));
#455=IFCCARTESIANPOINT((7414.,9262.));
#456=IFCCARTESIANPOINT((7414.,6580.));
#457=IFCPOLYLINE((#450,#451,#452,#453,#454,#455,#456));
#458=IFCARBITRARYCLOSEDPROFILEDEF(.AREA.,$,#457);
#459=IFCCARTESIANPOINT((0.,0.,0.));
#460=IFCAXIS2PLACEMENT3D(#459,$,$);
#461=IFCDIRECTION((0.,0.,1.));
#462=IFCEXTRUDEDAREASOLID(#458,#460,#461,3000.);
#463=IFCSHAPEREPRESENTATION(#6,'Body','SweptSolid',(#462));
#464=IFCPRODUCTDEFINITIONSHAPE($,$,(#463));
#465=IFCSPACE('1FNxVE3RnRIxXv8Dx6bZ$3',$,'Master bedroom','Clear-space study volume',$,#19,#464,'F0-bed-m',.ELEMENT.,.NOTDEFINED.,$);
#466=IFCCARTESIANPOINT((4350.,3600.));
#467=IFCCARTESIANPOINT((4350.,4500.));
#468=IFCCARTESIANPOINT((3450.,4500.));
#469=IFCCARTESIANPOINT((3450.,3600.));
#470=IFCCARTESIANPOINT((4350.,3600.));
#471=IFCPOLYLINE((#466,#467,#468,#469,#470));
#472=IFCARBITRARYCLOSEDPROFILEDEF(.AREA.,$,#471);
#473=IFCCARTESIANPOINT((0.,0.,0.));
#474=IFCAXIS2PLACEMENT3D(#473,$,$);
#475=IFCDIRECTION((0.,0.,1.));
#476=IFCEXTRUDEDAREASOLID(#472,#474,#475,2100.);
#477=IFCSHAPEREPRESENTATION(#6,'Body','SweptSolid',(#476));
#478=IFCPRODUCTDEFINITIONSHAPE($,$,(#477));
#479=IFCOPENINGELEMENT('1xW1t1f1DMpuTSXL9IYfJp',$,'F0-D001','Nominal door aperture',$,#19,#478,'F0-D001',.OPENING.);
#480=IFCRELVOIDSELEMENT('1WtEEe77DMHvgRO_qPW65r',$,$,$,#231,#479);
#481=IFCCARTESIANPOINT((4350.,6500.));
#482=IFCCARTESIANPOINT((4350.,7400.));
#483=IFCCARTESIANPOINT((3450.,7400.));
#484=IFCCARTESIANPOINT((3450.,6500.));
#485=IFCCARTESIANPOINT((4350.,6500.));
#486=IFCPOLYLINE((#481,#482,#483,#484,#485));
#487=IFCARBITRARYCLOSEDPROFILEDEF(.AREA.,$,#486);
#488=IFCCARTESIANPOINT((0.,0.,0.));
#489=IFCAXIS2PLACEMENT3D(#488,$,$);
#490=IFCDIRECTION((0.,0.,1.));
#491=IFCEXTRUDEDAREASOLID(#487,#489,#490,2100.);
#492=IFCSHAPEREPRESENTATION(#6,'Body','SweptSolid',(#491));
#493=IFCPRODUCTDEFINITIONSHAPE($,$,(#492));
#494=IFCOPENINGELEMENT('25P_f5R$DJA8a$BVn965V9',$,'F0-D002','Nominal door aperture',$,#19,#493,'F0-D002',.OPENING.);
#495=IFCRELVOIDSELEMENT('20NTvaOR9SGOdGbAkawkUT',$,$,$,#261,#494);
#496=IFCCARTESIANPOINT((3000.,8000.));
#497=IFCCARTESIANPOINT((3000.,8750.));
#498=IFCCARTESIANPOINT((2100.,8750.));
#499=IFCCARTESIANPOINT((2100.,8000.));
#500=IFCCARTESIANPOINT((3000.,8000.));
#501=IFCPOLYLINE((#496,#497,#498,#499,#500));
#502=IFCARBITRARYCLOSEDPROFILEDEF(.AREA.,$,#501);
#503=IFCCARTESIANPOINT((0.,0.,0.));
#504=IFCAXIS2PLACEMENT3D(#503,$,$);
#505=IFCDIRECTION((0.,0.,1.));
#506=IFCEXTRUDEDAREASOLID(#502,#504,#505,2100.);
#507=IFCSHAPEREPRESENTATION(#6,'Body','SweptSolid',(#506));
#508=IFCPRODUCTDEFINITIONSHAPE($,$,(#507));
#509=IFCOPENINGELEMENT('0u5tgTaLLRWxI1lgmK27jB',$,'F0-D003','Nominal door aperture',$,#19,#508,'F0-D003',.OPENING.);
#510=IFCRELVOIDSELEMENT('2v5INTrOjPqvLN0$$SOsLE',$,$,$,#200,#509);
#511=IFCCARTESIANPOINT((525.,3000.));
#512=IFCCARTESIANPOINT((2025.,3000.));
#513=IFCCARTESIANPOINT((2025.,3900.));
#514=IFCCARTESIANPOINT((525.,3900.));
#515=IFCCARTESIANPOINT((525.,3000.));
#516=IFCPOLYLINE((#511,#512,#513,#514,#515));
#517=IFCARBITRARYCLOSEDPROFILEDEF(.AREA.,$,#516);
#518=IFCCARTESIANPOINT((0.,0.,0.));
#519=IFCAXIS2PLACEMENT3D(#518,$,$);
#520=IFCDIRECTION((0.,0.,1.));
#521=IFCEXTRUDEDAREASOLID(#517,#519,#520,2100.);
#522=IFCSHAPEREPRESENTATION(#6,'Body','SweptSolid',(#521));
#523=IFCPRODUCTDEFINITIONSHAPE($,$,(#522));
#524=IFCOPENINGELEMENT('0nlfNBW09MbQa_MMZWa91N',$,'F0-D004','Nominal cased aperture',$,#19,#523,'F0-D004',.OPENING.);
#525=IFCRELVOIDSELEMENT('0bhaqcqEPO99GXETE$ks7e',$,$,$,#79,#524);
#526=IFCCARTESIANPOINT((1650.,5900.));
#527=IFCCARTESIANPOINT((2400.,5900.));
#528=IFCCARTESIANPOINT((2400.,6800.));
#529=IFCCARTESIANPOINT((1650.,6800.));
#530=IFCCARTESIANPOINT((1650.,5900.));
#531=IFCPOLYLINE((#526,#527,#528,#529,#530));
#532=IFCARBITRARYCLOSEDPROFILEDEF(.AREA.,$,#531);
#533=IFCCARTESIANPOINT((0.,0.,0.));
#534=IFCAXIS2PLACEMENT3D(#533,$,$);
#535=IFCDIRECTION((0.,0.,1.));
#536=IFCEXTRUDEDAREASOLID(#532,#534,#535,2100.);
#537=IFCSHAPEREPRESENTATION(#6,'Body','SweptSolid',(#536));
#538=IFCPRODUCTDEFINITIONSHAPE($,$,(#537));
#539=IFCOPENINGELEMENT('2hnI07_GvR5Oq3$AVau8yV',$,'F0-D005','Nominal door aperture',$,#19,#538,'F0-D005',.OPENING.);
#540=IFCRELVOIDSELEMENT('0JvVEVokLO4uPe1pxnstts',$,$,$,#109,#539);
#541=IFCCARTESIANPOINT((645.,375.));
#542=IFCCARTESIANPOINT((645.,3075.));
#543=IFCCARTESIANPOINT((-415.,3075.));
#544=IFCCARTESIANPOINT((-415.,375.));
#545=IFCCARTESIANPOINT((645.,375.));
#546=IFCPOLYLINE((#541,#542,#543,#544,#545));
#547=IFCARBITRARYCLOSEDPROFILEDEF(.AREA.,$,#546);
#548=IFCCARTESIANPOINT((0.,0.,0.));
#549=IFCAXIS2PLACEMENT3D(#548,$,$);
#550=IFCDIRECTION((0.,0.,1.));
#551=IFCEXTRUDEDAREASOLID(#547,#549,#550,2700.);
#552=IFCSHAPEREPRESENTATION(#6,'Body','SweptSolid',(#551));
#553=IFCPRODUCTDEFINITIONSHAPE($,$,(#552));
#554=IFCOPENINGELEMENT('2EJ2VQbM9S_OFFHkAISNwY',$,'F0-N006','Nominal window aperture',$,#19,#553,'F0-N006',.OPENING.);
#555=IFCRELVOIDSELEMENT('2lSg_QAQXVKAJLLrcglmDl',$,$,$,#35,#554);
#556=IFCCARTESIANPOINT((700.,-415.));
#557=IFCCARTESIANPOINT((1900.,-415.));
#558=IFCCARTESIANPOINT((1900.,645.));
#559=IFCCARTESIANPOINT((700.,645.));
#560=IFCCARTESIANPOINT((700.,-415.));
#561=IFCPOLYLINE((#556,#557,#558,#559,#560));
#562=IFCARBITRARYCLOSEDPROFILEDEF(.AREA.,$,#561);
#563=IFCCARTESIANPOINT((0.,0.,0.));
#564=IFCAXIS2PLACEMENT3D(#563,$,$);
#565=IFCDIRECTION((0.,0.,1.));
#566=IFCEXTRUDEDAREASOLID(#562,#564,#565,2600.);
#567=IFCSHAPEREPRESENTATION(#6,'Body','SweptSolid',(#566));
#568=IFCPRODUCTDEFINITIONSHAPE($,$,(#567));
#569=IFCOPENINGELEMENT('3OAX6MsYHKqfcA4uoyNfm9',$,'F0-D007','Nominal entry aperture',$,#19,#568,'F0-D007',.OPENING.);
#570=IFCRELVOIDSELEMENT('1lgTzEWB1Li827QHb8kftF',$,$,$,#49,#569);
#571=IFCCARTESIANPOINT((2222.,-415.));
#572=IFCCARTESIANPOINT((7322.,-415.));
#573=IFCCARTESIANPOINT((7322.,645.));
#574=IFCCARTESIANPOINT((2222.,645.));
#575=IFCCARTESIANPOINT((2222.,-415.));
#576=IFCPOLYLINE((#571,#572,#573,#574,#575));
#577=IFCARBITRARYCLOSEDPROFILEDEF(.AREA.,$,#576);
#578=IFCCARTESIANPOINT((0.,0.,0.));
#579=IFCAXIS2PLACEMENT3D(#578,$,$);
#580=IFCDIRECTION((0.,0.,1.));
#581=IFCEXTRUDEDAREASOLID(#577,#579,#580,2700.);
#582=IFCSHAPEREPRESENTATION(#6,'Body','SweptSolid',(#581));
#583=IFCPRODUCTDEFINITIONSHAPE($,$,(#582));
#584=IFCOPENINGELEMENT('0QyD$u_CjQ$8aae5SFfE9e',$,'F0-N008','Nominal window aperture',$,#19,#583,'F0-N008',.OPENING.);
#585=IFCRELVOIDSELEMENT('0lak4DdPjGYexNY$mjRlqC',$,$,$,#49,#584);
#586=IFCCARTESIANPOINT((645.,4150.));
#587=IFCCARTESIANPOINT((645.,5650.));
#588=IFCCARTESIANPOINT((-415.,5650.));
#589=IFCCARTESIANPOINT((-415.,4150.));
#590=IFCCARTESIANPOINT((645.,4150.));
#591=IFCPOLYLINE((#586,#587,#588,#589,#590));
#592=IFCARBITRARYCLOSEDPROFILEDEF(.AREA.,$,#591);
#593=IFCCARTESIANPOINT((0.,0.,1000.));
#594=IFCAXIS2PLACEMENT3D(#593,$,$);
#595=IFCDIRECTION((0.,0.,1.));
#596=IFCEXTRUDEDAREASOLID(#592,#594,#595,1350.);
#597=IFCSHAPEREPRESENTATION(#6,'Body','SweptSolid',(#596));
#598=IFCPRODUCTDEFINITIONSHAPE($,$,(#597));
#599=IFCOPENINGELEMENT('3sBOlYwHTQ_hEGGHGDzF2I',$,'F0-N009','Nominal window aperture',$,#19,#598,'F0-N009',.OPENING.);
#600=IFCRELVOIDSELEMENT('3L$gJjXU5O3xC7fImM6TAn',$,$,$,#64,#599);
#601=IFCCARTESIANPOINT((645.,6650.));
#602=IFCCARTESIANPOINT((645.,7550.));
#603=IFCCARTESIANPOINT((-415.,7550.));
#604=IFCCARTESIANPOINT((-415.,6650.));
#605=IFCCARTESIANPOINT((645.,6650.));
#606=IFCPOLYLINE((#601,#602,#603,#604,#605));
#607=IFCARBITRARYCLOSEDPROFILEDEF(.AREA.,$,#606);
#608=IFCCARTESIANPOINT((0.,0.,1000.));
#609=IFCAXIS2PLACEMENT3D(#608,$,$);
#610=IFCDIRECTION((0.,0.,1.));
#611=IFCEXTRUDEDAREASOLID(#607,#609,#610,1050.);
#612=IFCSHAPEREPRESENTATION(#6,'Body','SweptSolid',(#611));
#613=IFCPRODUCTDEFINITIONSHAPE($,$,(#612));
#614=IFCOPENINGELEMENT('1N3kexIj5TLAd0znQ$hiAT',$,'F0-N010','Nominal window aperture',$,#19,#613,'F0-N010',.OPENING.);
#615=IFCRELVOIDSELEMENT('2Ul4A6jHjPighISLFeORk2',$,$,$,#94,#614);
#616=IFCCARTESIANPOINT((645.,8296.));
#617=IFCCARTESIANPOINT((645.,9046.));
#618=IFCCARTESIANPOINT((-415.,9046.));
#619=IFCCARTESIANPOINT((-415.,8296.));
#620=IFCCARTESIANPOINT((645.,8296.));
#621=IFCPOLYLINE((#616,#617,#618,#619,#620));
#622=IFCARBITRARYCLOSEDPROFILEDEF(.AREA.,$,#621);
#623=IFCCARTESIANPOINT((0.,0.,1650.));
#624=IFCAXIS2PLACEMENT3D(#623,$,$);
#625=IFCDIRECTION((0.,0.,1.));
#626=IFCEXTRUDEDAREASOLID(#622,#624,#625,700.);
#627=IFCSHAPEREPRESENTATION(#6,'Body','SweptSolid',(#626));
#628=IFCPRODUCTDEFINITIONSHAPE($,$,(#627));
#629=IFCOPENINGELEMENT('2T6a8YDyjVI8U1LZuC8fIg',$,'F0-N011','Nominal window aperture',$,#19,#628,'F0-N011',.OPENING.);
#630=IFCRELVOIDSELEMENT('2mNXRFuVLO48NoIVRut5AV',$,$,$,#124,#629);
#631=IFCCARTESIANPOINT((676.,8847.));
#632=IFCCARTESIANPOINT((1876.,8847.));
#633=IFCCARTESIANPOINT((1876.,9907.));
#634=IFCCARTESIANPOINT((676.,9907.));
#635=IFCCARTESIANPOINT((676.,8847.));
#636=IFCPOLYLINE((#631,#632,#633,#634,#635));
#637=IFCARBITRARYCLOSEDPROFILEDEF(.AREA.,$,#636);
#638=IFCCARTESIANPOINT((0.,0.,1650.));
#639=IFCAXIS2PLACEMENT3D(#638,$,$);
#640=IFCDIRECTION((0.,0.,1.));
#641=IFCEXTRUDEDAREASOLID(#637,#639,#640,700.);
#642=IFCSHAPEREPRESENTATION(#6,'Body','SweptSolid',(#641));
#643=IFCPRODUCTDEFINITIONSHAPE($,$,(#642));
#644=IFCOPENINGELEMENT('1IoNDEewvS5gLpbSxJPx5t',$,'F0-N012','Nominal window aperture',$,#19,#643,'F0-N012',.OPENING.);
#645=IFCRELVOIDSELEMENT('1PNJCicmTQKwE_vNx9GtRS',$,$,$,#153,#644);
#646=IFCCARTESIANPOINT((2925.,8847.));
#647=IFCCARTESIANPOINT((3525.,8847.));
#648=IFCCARTESIANPOINT((3525.,9907.));
#649=IFCCARTESIANPOINT((2925.,9907.));
#650=IFCCARTESIANPOINT((2925.,8847.));
#651=IFCPOLYLINE((#646,#647,#648,#649,#650));
#652=IFCARBITRARYCLOSEDPROFILEDEF(.AREA.,$,#651);
#653=IFCCARTESIANPOINT((0.,0.,850.));
#654=IFCAXIS2PLACEMENT3D(#653,$,$);
#655=IFCDIRECTION((0.,0.,1.));
#656=IFCEXTRUDEDAREASOLID(#652,#654,#655,1450.);
#657=IFCSHAPEREPRESENTATION(#6,'Body','SweptSolid',(#656));
#658=IFCPRODUCTDEFINITIONSHAPE($,$,(#657));
#659=IFCOPENINGELEMENT('2iLQEC3wzMoA4ZrrJJt0ny',$,'F0-N013','Nominal window aperture',$,#19,#658,'F0-N013',.OPENING.);
#660=IFCRELVOIDSELEMENT('3$KqL1RSnNtxHC$xOhZSlm',$,$,$,#215,#659);
#661=IFCCARTESIANPOINT((4722.,8847.));
#662=IFCCARTESIANPOINT((6822.,8847.));
#663=IFCCARTESIANPOINT((6822.,9907.));
#664=IFCCARTESIANPOINT((4722.,9907.));
#665=IFCCARTESIANPOINT((4722.,8847.));
#666=IFCPOLYLINE((#661,#662,#663,#664,#665));
#667=IFCARBITRARYCLOSEDPROFILEDEF(.AREA.,$,#666);
#668=IFCCARTESIANPOINT((0.,0.,450.));
#669=IFCAXIS2PLACEMENT3D(#668,$,$);
#670=IFCDIRECTION((0.,0.,1.));
#671=IFCEXTRUDEDAREASOLID(#667,#669,#670,2250.);
#672=IFCSHAPEREPRESENTATION(#6,'Body','SweptSolid',(#671));
#673=IFCPRODUCTDEFINITIONSHAPE($,$,(#672));
#674=IFCOPENINGELEMENT('18_l48zj9PjPVjw4tyxE3p',$,'F0-N014','Nominal window aperture',$,#19,#673,'F0-N014',.OPENING.);
#675=IFCRELVOIDSELEMENT('3_rslvviPSdRiCONLUaLo$',$,$,$,#291,#674);
#676=IFCCARTESIANPOINT((8059.,375.));
#677=IFCCARTESIANPOINT((8059.,3075.));
#678=IFCCARTESIANPOINT((6999.,3075.));
#679=IFCCARTESIANPOINT((6999.,375.));
#680=IFCCARTESIANPOINT((8059.,375.));
#681=IFCPOLYLINE((#676,#677,#678,#679,#680));
#682=IFCARBITRARYCLOSEDPROFILEDEF(.AREA.,$,#681);
#683=IFCCARTESIANPOINT((0.,0.,0.));
#684=IFCAXIS2PLACEMENT3D(#683,$,$);
#685=IFCDIRECTION((0.,0.,1.));
#686=IFCEXTRUDEDAREASOLID(#682,#684,#685,2700.);
#687=IFCSHAPEREPRESENTATION(#6,'Body','SweptSolid',(#686));
#688=IFCPRODUCTDEFINITIONSHAPE($,$,(#687));
#689=IFCOPENINGELEMENT('1k4yxYFGnH_f0Fbbn2CRyU',$,'F0-N015','Nominal window aperture',$,#19,#688,'F0-N015',.OPENING.);
#690=IFCRELVOIDSELEMENT('1owWzTLaPIMexbSfZiXLa3',$,$,$,#306,#689);
#691=IFCCARTESIANPOINT((8059.,4150.));
#692=IFCCARTESIANPOINT((8059.,5650.));
#693=IFCCARTESIANPOINT((6999.,5650.));
#694=IFCCARTESIANPOINT((6999.,4150.));
#695=IFCCARTESIANPOINT((8059.,4150.));
#696=IFCPOLYLINE((#691,#692,#693,#694,#695));
#697=IFCARBITRARYCLOSEDPROFILEDEF(.AREA.,$,#696);
#698=IFCCARTESIANPOINT((0.,0.,450.));
#699=IFCAXIS2PLACEMENT3D(#698,$,$);
#700=IFCDIRECTION((0.,0.,1.));
#701=IFCEXTRUDEDAREASOLID(#697,#699,#700,2250.);
#702=IFCSHAPEREPRESENTATION(#6,'Body','SweptSolid',(#701));
#703=IFCPRODUCTDEFINITIONSHAPE($,$,(#702));
#704=IFCOPENINGELEMENT('2_tY91NxnLlxRtL6eTlQ6M',$,'F0-N016','Nominal window aperture',$,#19,#703,'F0-N016',.OPENING.);
#705=IFCRELVOIDSELEMENT('10OB0SbBrRow9sfTMeRWc7',$,$,$,#321,#704);
#706=IFCCARTESIANPOINT((8059.,7021.));
#707=IFCCARTESIANPOINT((8059.,8821.));
#708=IFCCARTESIANPOINT((6999.,8821.));
#709=IFCCARTESIANPOINT((6999.,7021.));
#710=IFCCARTESIANPOINT((8059.,7021.));
#711=IFCPOLYLINE((#706,#707,#708,#709,#710));
#712=IFCARBITRARYCLOSEDPROFILEDEF(.AREA.,$,#711);
#713=IFCCARTESIANPOINT((0.,0.,450.));
#714=IFCAXIS2PLACEMENT3D(#713,$,$);
#715=IFCDIRECTION((0.,0.,1.));
#716=IFCEXTRUDEDAREASOLID(#712,#714,#715,2250.);
#717=IFCSHAPEREPRESENTATION(#6,'Body','SweptSolid',(#716));
#718=IFCPRODUCTDEFINITIONSHAPE($,$,(#717));
#719=IFCOPENINGELEMENT('23o_$_ZTvI9h7zvH$KO5vn',$,'F0-N017','Nominal window aperture',$,#19,#718,'F0-N017',.OPENING.);
#720=IFCRELVOIDSELEMENT('3Yp1ChUk1TGPy6827T_xgQ',$,$,$,#335,#719);
#721=IFCCARTESIANPOINT((7644.,0.));
#722=IFCCARTESIANPOINT((7644.,9492.));
#723=IFCCARTESIANPOINT((0.,9492.));
#724=IFCCARTESIANPOINT((0.,0.));
#725=IFCCARTESIANPOINT((7644.,0.));
#726=IFCPOLYLINE((#721,#722,#723,#724,#725));
#727=IFCARBITRARYCLOSEDPROFILEDEF(.AREA.,$,#726);
#728=IFCCARTESIANPOINT((0.,0.,-150.));
#729=IFCAXIS2PLACEMENT3D(#728,$,$);
#730=IFCDIRECTION((0.,0.,1.));
#731=IFCEXTRUDEDAREASOLID(#727,#729,#730,150.);
#732=IFCSHAPEREPRESENTATION(#6,'Body','SweptSolid',(#731));
#733=IFCPRODUCTDEFINITIONSHAPE($,$,(#732));
#734=IFCSLAB('1v9wu8f99G2AwTaXePbR7m',$,'Floor slab / thickness assumption',$,$,#19,#733,'SL-0',.FLOOR.);
#735=IFCPROPERTYSINGLEVALUE('ReviewStatus',$,IFCLABEL('PRELIMINARY - NOT FOR CONSTRUCTION'),$);
#736=IFCPROPERTYSET('2fnf7uDhTRvhcppHLMqrf9',$,'FloorForge_Review',$,(#735));
#737=IFCRELDEFINESBYPROPERTIES('1Nc1YnL2HLvwvkSgTlLwjB',$,$,$,(#734),#736);
#738=IFCCARTESIANPOINT((7644.,0.));
#739=IFCCARTESIANPOINT((7644.,9492.));
#740=IFCCARTESIANPOINT((0.,9492.));
#741=IFCCARTESIANPOINT((0.,0.));
#742=IFCCARTESIANPOINT((7644.,0.));
#743=IFCPOLYLINE((#738,#739,#740,#741,#742));
#744=IFCARBITRARYCLOSEDPROFILEDEF(.AREA.,$,#743);
#745=IFCCARTESIANPOINT((0.,0.,3000.));
#746=IFCAXIS2PLACEMENT3D(#745,$,$);
#747=IFCDIRECTION((0.,0.,1.));
#748=IFCEXTRUDEDAREASOLID(#744,#746,#747,150.);
#749=IFCSHAPEREPRESENTATION(#6,'Body','SweptSolid',(#748));
#750=IFCPRODUCTDEFINITIONSHAPE($,$,(#749));
#751=IFCSLAB('3fUPM_OEHR8hHF6eYV3ROx',$,'Roof / thickness assumption',$,$,#19,#750,'ROOF',.ROOF.);
#752=IFCRELCONTAINEDINSPATIALSTRUCTURE('2HKaWjR0bOKOUO4b13xbHD',$,$,$,(#35,#49,#64,#79,#94,#109,#124,#139,#153,#169,#185,#200,#215,#231,#246,#261,#276,#291,#306,#321,#335,#734,#751),#20);
#753=IFCRELAGGREGATES('0rPXE1JNzQUAbNN65eEx6H',$,$,$,#20,(#358,#385,#401,#417,#433,#449,#465));
#754=IFCPROPERTYSINGLEVALUE('ReviewStatus',$,IFCLABEL('PRELIMINARY - NOT FOR CONSTRUCTION'),$);
#755=IFCPROPERTYSET('2$0IFeFQLN4fOLNU0u0DsJ',$,'FloorForge_Review',$,(#754));
#756=IFCRELDEFINESBYPROPERTIES('2Ws3_YXaDOWhF57XpEg3fr',$,$,$,(#14),#755);
ENDSEC;
END-ISO-10303-21;
