<svg xmlns="http://www.w3.org/2000/svg" width="420mm" height="297mm" viewBox="0 0 420 297"><metadata>planHash:141de6e64d9e6666ac8f838a1c39974da34e8d11fe760c8caf5a5022033eac46</metadata><rect width="420" height="297" fill="white"/><g font-family="Arial,Helvetica,sans-serif"><path d="M 16 31 H 404 M 16 271 H 404" stroke="#25372f" stroke-width=".35"/><text x="17.0000" y="17.0000" fill="#25372f" font-size="5.2" text-anchor="start">FLOORFORGE</text><text x="17.0000" y="25.0000" fill="#25372f" font-size="3.1" text-anchor="start">Site plan</text><text x="403.0000" y="18.0000" fill="#25372f" font-size="5" text-anchor="end">A-001</text><text x="403.0000" y="25.0000" fill="#25372f" font-size="2.6" text-anchor="end">REV A / PRELIMINARY</text><polygon points="187.8600,204.9533 187.8600,62.7133 65.9400,62.7133 65.9400,204.9533 187.8600,204.9533" fill="#f0f3eb" stroke="#25372f" stroke-width="0.35"/><polygon points="148.6067,171.6200 148.6067,82.6200 72.6067,82.6200 72.6067,171.6200" fill="#dadfd6" stroke="#25372f" stroke-width="0.4"/><polygon points="59.2733,234.9533 194.5267,234.9533 194.5267,206.2867 59.2733,206.2867" fill="#e8e8e2" stroke="#a8afa4" stroke-width="0.2"/><text x="126.9000" y="222.2867" fill="#25372f" font-size="1.5333333333333334" text-anchor="middle">ROAD / WIDTH TO BE SURVEYED</text><polygon points="119.8733,192.7533 105.9400,192.7533 105.9400,189.7467 140.6067,189.7467 140.6067,192.7533 126.6733,192.7533 126.6733,203.7533 119.8733,203.7533" fill="#e5e0d3" stroke="#819076" stroke-width="0.18"/><polygon points="143.2733,177.6200 145.2733,177.6200 145.2733,192.7533 143.2733,192.7533" fill="#e5e0d3" stroke="#819076" stroke-width="0.18"/><polygon points="174.1667,174.8867 174.1667,203.7533 154.9667,203.7533 154.9667,174.8867" fill="#dcd6c8" stroke="#819076" stroke-width="0.18"/><polygon points="174.9667,203.7533 174.9667,197.4200 186.8600,197.4200 186.8600,203.7533" fill="#d6d3cb" stroke="#819076" stroke-width="0.18"/><polygon points="127.4733,203.7533 127.4733,197.4200 154.1667,197.4200 154.1667,203.7533" fill="#d6d3cb" stroke="#819076" stroke-width="0.18"/><polygon points="119.0733,197.4200 119.0733,203.7533 66.9400,203.7533 66.9400,197.4200" fill="#d6d3cb" stroke="#819076" stroke-width="0.18"/><polygon points="139.9400,171.8200 148.8067,171.8200 148.8067,171.6200 151.2733,171.6200 151.2733,174.6200 139.9400,174.6200" fill="#d6d3cb" stroke="#819076" stroke-width="0.18"/><polygon points="106.6067,174.6200 69.9400,174.6200 69.9400,171.6200 72.4067,171.6200 72.4067,171.8200 106.6067,171.8200" fill="#d6d3cb" stroke="#819076" stroke-width="0.18"/><polygon points="174.8333,196.6200 174.8333,174.8867 174.8333,174.8200 174.8200,174.7533 174.8200,174.7533 186.8600,174.7533 186.8600,196.6200" fill="#d4e0c6" stroke="#819076" stroke-width="0.18"/><polygon points="154.3000,174.8200 154.3000,174.8867 154.3000,196.6200 127.3400,196.6200 127.3400,193.4200 140.6067,193.4200 140.6733,193.4200 140.7400,193.4067 140.8000,193.3933 140.8600,193.3667 140.9200,193.3400 140.9800,193.3067 141.0267,193.2667 141.0800,193.2267 141.1200,193.1733 141.1600,193.1267 141.1933,193.0667 141.2200,193.0067 141.2467,192.9467 141.2600,192.8867 141.2733,192.8200 141.2733,192.7533 141.2733,189.7467 141.2733,189.6800 141.2600,189.6133 141.2467,189.5533 141.2200,189.4933 141.1933,189.4333 141.1600,189.3733 141.1200,189.3267 141.0800,189.2733 141.0267,189.2333 140.9800,189.1933 140.9200,189.1600 140.8600,189.1333 140.8000,189.1067 140.7400,189.0933 140.6733,189.0800 140.6067,189.0800 139.2733,189.0800 139.2733,186.2933 142.6067,186.2933 142.6067,192.7533 142.6067,192.8200 142.6200,192.8867 142.6333,192.9467 142.6600,193.0067 142.6867,193.0667 142.7200,193.1267 142.7600,193.1733 142.8000,193.2267 142.8533,193.2667 142.9000,193.3067 142.9600,193.3400 143.0200,193.3667 143.0800,193.3933 143.1400,193.4067 143.2067,193.4200 143.2733,193.4200 145.2733,193.4200 145.3400,193.4200 145.4067,193.4067 145.4667,193.3933 145.5267,193.3667 145.5867,193.3400 145.6467,193.3067 145.6933,193.2667 145.7467,193.2267 145.7867,193.1733 145.8267,193.1267 145.8600,193.0667 145.8867,193.0067 145.9133,192.9467 145.9267,192.8867 145.9400,192.8200 145.9400,192.7533 145.9400,177.6200 145.9400,177.5533 145.9267,177.4867 145.9133,177.4267 145.8867,177.3667 145.8600,177.3067 145.8267,177.2467 145.7867,177.2000 145.7467,177.1467 145.6933,177.1067 145.6467,177.0667 145.5867,177.0333 145.5267,177.0067 145.4667,176.9800 145.4067,176.9667 145.3400,176.9533 145.2733,176.9533 139.2733,176.9533 139.2733,174.7533 139.2867,174.7533 139.3000,174.8133 139.3267,174.8733 139.3533,174.9333 139.3867,174.9933 139.4267,175.0400 139.4667,175.0933 139.5200,175.1333 139.5667,175.1733 139.6267,175.2067 139.6867,175.2333 139.7467,175.2600 139.8067,175.2733 139.8733,175.2867 139.9400,175.2867 151.2733,175.2867 151.3400,175.2867 151.4067,175.2733 151.4667,175.2600 151.5267,175.2333 151.5867,175.2067 151.6467,175.1733 151.6933,175.1333 151.7467,175.0933 151.7867,175.0400 151.8267,174.9933 151.8600,174.9333 151.8867,174.8733 151.9133,174.8133 151.9267,174.7533 154.3133,174.7533 154.3133,174.7533" fill="#d4e0c6" stroke="#819076" stroke-width="0.18"/><polygon points="105.9400,189.0800 105.8733,189.0800 105.8067,189.0933 105.7467,189.1067 105.6867,189.1333 105.6267,189.1600 105.5667,189.1933 105.5200,189.2333 105.4667,189.2733 105.4267,189.3267 105.3867,189.3733 105.3533,189.4333 105.3267,189.4933 105.3000,189.5533 105.2867,189.6133 105.2733,189.6800 105.2733,189.7467 105.2733,192.7533 105.2733,192.8200 105.2867,192.8867 105.3000,192.9467 105.3267,193.0067 105.3533,193.0667 105.3867,193.1267 105.4267,193.1733 105.4667,193.2267 105.5200,193.2667 105.5667,193.3067 105.6267,193.3400 105.6867,193.3667 105.7467,193.3933 105.8067,193.4067 105.8733,193.4200 105.9400,193.4200 119.2067,193.4200 119.2067,196.6200 66.9400,196.6200 66.9400,174.7533 69.2867,174.7533 69.3000,174.8133 69.3267,174.8733 69.3533,174.9333 69.3867,174.9933 69.4267,175.0400 69.4667,175.0933 69.5200,175.1333 69.5667,175.1733 69.6267,175.2067 69.6867,175.2333 69.7467,175.2600 69.8067,175.2733 69.8733,175.2867 69.9400,175.2867 106.6067,175.2867 106.6733,175.2867 106.7400,175.2733 106.8000,175.2600 106.8600,175.2333 106.9200,175.2067 106.9800,175.1733 107.0267,175.1333 107.0800,175.0933 107.1200,175.0400 107.1600,174.9933 107.1933,174.9333 107.2200,174.8733 107.2467,174.8133 107.2600,174.7533 107.2733,174.7533 107.2733,189.0800" fill="#d4e0c6" stroke="#819076" stroke-width="0.18"/><polygon points="91.2333,185.6867 91.2044,186.2748 91.1180,186.8572 90.9750,187.4284 90.7766,187.9828 90.5249,188.5150 90.2222,189.0201 89.8714,189.4930 89.4760,189.9293 89.0397,190.3247 88.5668,190.6755 88.0617,190.9782 87.5294,191.2299 86.9750,191.4283 86.4039,191.5714 85.8214,191.6578 85.2333,191.6867 84.6452,191.6578 84.0628,191.5714 83.4916,191.4283 82.9372,191.2299 82.4050,190.9782 81.8999,190.6755 81.4270,190.3247 80.9907,189.9293 80.5953,189.4930 80.2445,189.0201 79.9418,188.5150 79.6901,187.9828 79.4917,187.4284 79.3486,186.8572 79.2622,186.2748 79.2333,185.6867 79.2622,185.0986 79.3486,184.5161 79.4917,183.9450 79.6901,183.3906 79.9418,182.8583 80.2445,182.3532 80.5953,181.8803 80.9907,181.4440 81.4270,181.0486 81.8999,180.6978 82.4050,180.3951 82.9372,180.1434 83.4916,179.9450 84.0628,179.8020 84.6452,179.7156 85.2333,179.6867 85.8214,179.7156 86.4039,179.8020 86.9750,179.9450 87.5294,180.1434 88.0617,180.3951 88.5668,180.6978 89.0397,181.0486 89.4760,181.4440 89.8714,181.8803 90.2222,182.3532 90.5249,182.8583 90.7766,183.3906 90.9750,183.9450 91.1180,184.5161 91.2044,185.0986 91.2333,185.6867" fill="#c8d4ba" stroke="#819076" stroke-width="0.18"/><polygon points="72.2067,171.6200 66.9400,171.6200 66.9400,78.6200 72.2067,78.6200" fill="#d6d3cb" stroke="#819076" stroke-width="0.18"/><polygon points="150.1400,78.6200 186.6600,78.6200 186.6600,171.6200 150.1400,171.6200" fill="#d6d3cb" stroke="#819076" stroke-width="0.18"/><polygon points="149.0067,78.6200 150.1400,78.6200 150.1400,171.6200 149.0067,171.6200" fill="#d6d3cb" stroke="#819076" stroke-width="0.18"/><polygon points="186.8133,78.1067 186.7667,78.1000 186.7133,78.0867 186.6600,78.0867 149.0067,78.0867 148.9533,78.0867 148.9000,78.1000 148.8533,78.1067 148.8000,78.1267 148.7533,78.1467 148.7133,78.1733 148.6667,78.2067 148.6267,78.2400 148.5933,78.2800 148.5600,78.3267 148.5333,78.3667 148.5133,78.4133 148.4933,78.4667 148.4867,78.5133 148.4733,78.5667 148.4733,78.6200 148.4733,81.8867 72.7400,81.8867 72.7400,78.6200 72.7400,78.5667 72.7267,78.5133 72.7200,78.4667 72.7000,78.4133 72.6800,78.3667 72.6533,78.3267 72.6200,78.2800 72.5867,78.2400 72.5467,78.2067 72.5000,78.1733 72.4600,78.1467 72.4133,78.1267 72.3600,78.1067 72.3133,78.1000 72.2600,78.0867 72.2067,78.0867 66.9400,78.0867 66.9400,63.7133 101.4067,63.7133 101.4067,67.4467 101.4067,67.5000 101.4200,67.5533 101.4267,67.6000 101.4467,67.6533 101.4667,67.7000 101.4933,67.7400 101.5267,67.7867 101.5600,67.8267 101.6000,67.8600 101.6467,67.8933 101.6867,67.9200 101.7333,67.9400 101.7867,67.9600 101.8333,67.9667 101.8867,67.9800 101.9400,67.9800 119.2733,67.9800 119.3267,67.9800 119.3800,67.9667 119.4267,67.9600 119.4800,67.9400 119.5267,67.9200 119.5667,67.8933 119.6133,67.8600 119.6533,67.8267 119.6867,67.7867 119.7200,67.7400 119.7467,67.7000 119.7667,67.6533 119.7867,67.6000 119.7933,67.5533 119.8067,67.5000 119.8067,67.4467 119.8067,63.7133 186.8600,63.7133 186.8600,78.1267" fill="#d4e0c6" stroke="#819076" stroke-width="0.18"/><text x="110.6067" y="188.2867" fill="#25372f" font-size="1.45" text-anchor="middle">FRONT SETBACK</text><text x="110.6067" y="72.6667" fill="#25372f" font-size="1.45" text-anchor="middle">REAR YARD</text><path d="M 119.6067 203.9533 L 119.6067 196.6200" fill="none" stroke="#9e653f" stroke-width="0.35"/><polyline points="126.9400,203.9533 126.8286,202.6799 126.4977,201.4452 125.9575,200.2867 125.2243,199.2396 124.3204,198.3357 123.2733,197.6025 122.1148,197.0623 120.8801,196.7314 119.6067,196.6200" fill="none" stroke="#9e653f" stroke-width="0.15"/><path d="M 154.5667 203.8200 L 174.5667 203.8200" fill="none" stroke="#9e653f" stroke-width="0.45"/><path d="M 134.5667 203.4200 L 154.5667 203.4200" fill="none" stroke="#9e653f" stroke-width="0.18" stroke-dasharray="1.2 .6"/><text x="164.5667" y="200.2867" fill="#25372f" font-size="1.45" text-anchor="middle">SLIDING GATE</text><polygon points="126.9400,205.3533 130.4067,205.3533 130.4067,203.5533 126.9400,203.5533" fill="#8f8a80" stroke="#25372f" stroke-width="0.2"/><path d="M 65.9400 61.9133 L 65.9400 55.9133" fill="none" stroke="#a8afa4" stroke-width="0.12"/><path d="M 187.8600 61.9133 L 187.8600 55.9133" fill="none" stroke="#a8afa4" stroke-width="0.12"/><path d="M 65.9400 56.7133 L 187.8600 56.7133" fill="none" stroke="#25372f" stroke-width="0.15"/><path d="M 65.5733 57.0800 L 66.3067 56.3467" fill="none" stroke="#25372f" stroke-width="0.28"/><path d="M 187.4933 57.0800 L 188.2267 56.3467" fill="none" stroke="#25372f" stroke-width="0.28"/><text x="126.9000" y="56.2467" fill="#25372f" font-size="1.45" text-anchor="middle">18288</text><path d="M 188.6600 204.9533 L 198.6600 204.9533" fill="none" stroke="#a8afa4" stroke-width="0.12"/><path d="M 188.6600 62.7133 L 198.6600 62.7133" fill="none" stroke="#a8afa4" stroke-width="0.12"/><path d="M 197.8600 204.9533 L 197.8600 62.7133" fill="none" stroke="#25372f" stroke-width="0.15"/><path d="M 197.4933 205.3200 L 198.2267 204.5867" fill="none" stroke="#25372f" stroke-width="0.28"/><path d="M 197.4933 63.0800 L 198.2267 62.3467" fill="none" stroke="#25372f" stroke-width="0.28"/><text x="199.5267" y="133.8333" fill="#25372f" font-size="1.45" text-anchor="middle" transform="rotate(-90.0 199.5267 133.8333)">21336</text><path d="M 72.6067 172.4200 L 72.6067 209.7533" fill="none" stroke="#a8afa4" stroke-width="0.12"/><path d="M 148.6067 172.4200 L 148.6067 209.7533" fill="none" stroke="#a8afa4" stroke-width="0.12"/><path d="M 72.6067 208.9533 L 148.6067 208.9533" fill="none" stroke="#25372f" stroke-width="0.15"/><path d="M 72.2400 209.3200 L 72.9733 208.5867" fill="none" stroke="#25372f" stroke-width="0.28"/><path d="M 148.2400 209.3200 L 148.9733 208.5867" fill="none" stroke="#25372f" stroke-width="0.28"/><text x="110.6067" y="210.6200" fill="#25372f" font-size="1.45" text-anchor="middle">11400</text><path d="M 71.8067 204.9533 L 67.8067 204.9533" fill="none" stroke="#a8afa4" stroke-width="0.12"/><path d="M 71.8067 171.6200 L 67.8067 171.6200" fill="none" stroke="#a8afa4" stroke-width="0.12"/><path d="M 68.6067 204.9533 L 68.6067 171.6200" fill="none" stroke="#25372f" stroke-width="0.15"/><path d="M 68.2400 205.3200 L 68.9733 204.5867" fill="none" stroke="#25372f" stroke-width="0.28"/><path d="M 68.2400 171.9867 L 68.9733 171.2533" fill="none" stroke="#25372f" stroke-width="0.28"/><text x="68.1400" y="188.2867" fill="#25372f" font-size="1.45" text-anchor="middle" transform="rotate(-90.0 68.1400 188.2867)">5000</text><path d="M 111.4067 82.6200 L 113.7400 82.6200" fill="none" stroke="#a8afa4" stroke-width="0.12"/><path d="M 111.4067 62.7133 L 113.7400 62.7133" fill="none" stroke="#a8afa4" stroke-width="0.12"/><path d="M 112.9400 82.6200 L 112.9400 62.7133" fill="none" stroke="#25372f" stroke-width="0.15"/><path d="M 112.5733 82.9867 L 113.3067 82.2533" fill="none" stroke="#25372f" stroke-width="0.28"/><path d="M 112.5733 63.0800 L 113.3067 62.3467" fill="none" stroke="#25372f" stroke-width="0.28"/><text x="114.6067" y="72.6667" fill="#25372f" font-size="1.45" text-anchor="middle" transform="rotate(-90.0 114.6067 72.6667)">2986</text><path d="M 65.9400 126.3200 L 65.9400 124.1867" fill="none" stroke="#a8afa4" stroke-width="0.12"/><path d="M 72.6067 126.3200 L 72.6067 124.1867" fill="none" stroke="#a8afa4" stroke-width="0.12"/><path d="M 65.9400 124.9867 L 72.6067 124.9867" fill="none" stroke="#25372f" stroke-width="0.15"/><path d="M 65.5733 125.3533 L 66.3067 124.6200" fill="none" stroke="#25372f" stroke-width="0.28"/><path d="M 72.2400 125.3533 L 72.9733 124.6200" fill="none" stroke="#25372f" stroke-width="0.28"/><text x="69.2733" y="124.5200" fill="#25372f" font-size="1.45" text-anchor="middle">1000</text><path d="M 148.6067 126.3200 L 148.6067 124.1867" fill="none" stroke="#a8afa4" stroke-width="0.12"/><path d="M 187.8600 126.3200 L 187.8600 124.1867" fill="none" stroke="#a8afa4" stroke-width="0.12"/><path d="M 148.6067 124.9867 L 187.8600 124.9867" fill="none" stroke="#25372f" stroke-width="0.15"/><path d="M 148.2400 125.3533 L 148.9733 124.6200" fill="none" stroke="#25372f" stroke-width="0.28"/><path d="M 187.4933 125.3533 L 188.2267 124.6200" fill="none" stroke="#25372f" stroke-width="0.28"/><text x="168.2333" y="124.5200" fill="#25372f" font-size="1.45" text-anchor="middle">5888</text><path d="M 149.4067 171.6200 L 193.3267 171.6200" fill="none" stroke="#a8afa4" stroke-width="0.12"/><path d="M 149.4067 82.6200 L 193.3267 82.6200" fill="none" stroke="#a8afa4" stroke-width="0.12"/><path d="M 192.5267 171.6200 L 192.5267 82.6200" fill="none" stroke="#25372f" stroke-width="0.15"/><path d="M 192.1600 171.9867 L 192.8933 171.2533" fill="none" stroke="#25372f" stroke-width="0.28"/><path d="M 192.1600 82.9867 L 192.8933 82.2533" fill="none" stroke="#25372f" stroke-width="0.28"/><text x="194.1933" y="127.1200" fill="#25372f" font-size="1.45" text-anchor="middle" transform="rotate(-90.0 194.1933 127.1200)">13350</text><polygon points="67.8733,212.3533 69.3400,212.3533 68.6067,213.6200" fill="#25372f" stroke="#25372f" stroke-width="0.15"/><path d="M 66.0733 213.6200 L 71.1400 213.6200" fill="none" stroke="#25372f" stroke-width="0.15"/><text x="69.7400" y="213.2200" fill="#25372f" font-size="1.45" text-anchor="start">ROAD -0.150 (assumed)</text><polygon points="169.7933,197.6867 171.2600,197.6867 170.5267,198.9533" fill="#25372f" stroke="#25372f" stroke-width="0.15"/><path d="M 167.9933 198.9533 L 173.0600 198.9533" fill="none" stroke="#25372f" stroke-width="0.15"/><text x="171.6600" y="198.5533" fill="#25372f" font-size="1.45" text-anchor="start">NGL ±0.000</text><polygon points="115.8733,129.8533 117.3400,129.8533 116.6067,131.1200" fill="#25372f" stroke="#25372f" stroke-width="0.15"/><path d="M 114.0733 131.1200 L 119.1400 131.1200" fill="none" stroke="#25372f" stroke-width="0.15"/><text x="117.7400" y="130.7200" fill="#25372f" font-size="1.45" text-anchor="start">PL / FFL +0.450</text><circle cx="71.9400" cy="70.0467" r="3.6667" fill="none" stroke="#25372f" stroke-width="0.2"/><polygon points="71.9400,66.6733 70.9133,72.0633 71.9400,70.7800" fill="#25372f" stroke="#25372f" stroke-width="0.15"/><polygon points="71.9400,66.6733 72.9667,72.0633 71.9400,70.7800" fill="none" stroke="#25372f" stroke-width="0.15"/><text x="71.9400" y="65.2467" fill="#25372f" font-size="1.7333333333333334" text-anchor="middle">N</text><path d="M 250 42 V 256" stroke="#c9d0c7" stroke-width=".2"/><text x="261.0000" y="46.0000" fill="#25372f" font-size="3.8" text-anchor="start">The Verandah House</text><text x="261.0000" y="57.0000" fill="#25372f" font-size="2.35" text-anchor="start">AREA STATEMENT</text><text x="322.0000" y="57.0000" fill="#25372f" font-size="2.35" text-anchor="start">VALUE</text><text x="372.0000" y="57.0000" fill="#25372f" font-size="2.35" text-anchor="start">UNIT</text><text x="261.0000" y="62.4000" fill="#25372f" font-size="2.2" text-anchor="start">Plot</text><text x="322.0000" y="62.4000" fill="#25372f" font-size="2.2" text-anchor="start">390.193</text><text x="372.0000" y="62.4000" fill="#25372f" font-size="2.2" text-anchor="start">m2</text><text x="261.0000" y="67.8000" fill="#25372f" font-size="2.2" text-anchor="start">Footprint</text><text x="322.0000" y="67.8000" fill="#25372f" font-size="2.2" text-anchor="start">152.19</text><text x="372.0000" y="67.8000" fill="#25372f" font-size="2.2" text-anchor="start">m2</text><text x="261.0000" y="73.2000" fill="#25372f" font-size="2.2" text-anchor="start">Gross floors</text><text x="322.0000" y="73.2000" fill="#25372f" font-size="2.2" text-anchor="start">304.38</text><text x="372.0000" y="73.2000" fill="#25372f" font-size="2.2" text-anchor="start">m2</text><text x="261.0000" y="78.6000" fill="#25372f" font-size="2.2" text-anchor="start">Coverage</text><text x="322.0000" y="78.6000" fill="#25372f" font-size="2.2" text-anchor="start">39.0</text><text x="372.0000" y="78.6000" fill="#25372f" font-size="2.2" text-anchor="start">percent</text><text x="261.0000" y="84.0000" fill="#25372f" font-size="2.2" text-anchor="start">Geometric FAR</text><text x="322.0000" y="84.0000" fill="#25372f" font-size="2.2" text-anchor="start">0.78</text><text x="372.0000" y="84.0000" fill="#25372f" font-size="2.2" text-anchor="start">ratio</text><text x="261.0000" y="150.0000" fill="#25372f" font-size="2.7" text-anchor="start">DRAWING NOTES</text><text x="261.0000" y="157.0000" fill="#25372f" font-size="2.1" text-anchor="start">Setbacks shown are design assumptions, not verified byelaws.</text><text x="261.0000" y="162.7000" fill="#25372f" font-size="2.1" text-anchor="start">Road width, property line and levels need a survey.</text><text x="261.0000" y="168.4000" fill="#25372f" font-size="2.1" text-anchor="start">No surveyed drainage fall or flood datum supplied.</text><text x="261.0000" y="174.1000" fill="#25372f" font-size="2.1" text-anchor="start">Default steps are not a step-free route.</text><text x="261.0000" y="244.0000" fill="#25372f" font-size="2.4" text-anchor="start">SCALE 1:150 AT A3 / CUT +1200 mm</text><text x="261.0000" y="251.0000" fill="#25372f" font-size="2.2" text-anchor="start">Dimensions govern; do not scale from a screen.</text><path d="M 22 259 H 48.66666666666667" stroke="#25372f" stroke-width=".6"/><path d="M 22.0 258 V 260" stroke="#25372f" stroke-width=".2"/><text x="22.0000" y="264.0000" fill="#25372f" font-size="1.9" text-anchor="middle">0 m</text><path d="M 35.333333333333336 258 V 260" stroke="#25372f" stroke-width=".2"/><text x="35.3333" y="264.0000" fill="#25372f" font-size="1.9" text-anchor="middle">2 m</text><path d="M 48.66666666666667 258 V 260" stroke="#25372f" stroke-width=".2"/><text x="48.6667" y="264.0000" fill="#25372f" font-size="1.9" text-anchor="middle">4 m</text><text x="17.0000" y="279.0000" fill="#8a4933" font-size="2.65" text-anchor="start">PRELIMINARY - ENGINEER TO REVIEW - NOT FOR CONSTRUCTION</text><text x="17.0000" y="286.0000" fill="#25372f" font-size="2.15" text-anchor="start">Reference design screen only. Survey, structure, services, byelaws and professional approval remain outstanding.</text><text x="403.0000" y="283.0000" fill="#25372f" font-size="2.35" text-anchor="end">A-001  |  420 x 297 mm</text></g></svg>