  0
SECTION
  2
HEADER
  9
$ACADVER
  1
AC1032
  9
$ACADMAINTVER
 90
4
  9
$DWGCODEPAGE
  3
ANSI_1252
  9
$LASTSAVEDBY
  1
ezdxf
  9
$REQUIREDVERSIONS
160
0
  9
$INSBASE
 10
0.0
 20
0.0
 30
0.0
  9
$EXTMIN
 10
1e+20
 20
1e+20
 30
1e+20
  9
$EXTMAX
 10
-1e+20
 20
-1e+20
 30
-1e+20
  9
$LIMMIN
 10
0.0
 20
0.0
  9
$LIMMAX
 10
420.0
 20
297.0
  9
$ORTHOMODE
 70
0
  9
$REGENMODE
 70
1
  9
$FILLMODE
 70
1
  9
$QTEXTMODE
 70
0
  9
$MIRRTEXT
 70
1
  9
$LTSCALE
 40
1.0
  9
$ATTMODE
 70
1
  9
$TEXTSIZE
 40
2.5
  9
$TRACEWID
 40
1.0
  9
$TEXTSTYLE
  7
OpenSans
  9
$CLAYER
  8
0
  9
$CELTYPE
  6
ByLayer
  9
$CECOLOR
 62
256
  9
$CELTSCALE
 40
1.0
  9
$DISPSILH
 70
0
  9
$DIMSCALE
 40
1.0
  9
$DIMASZ
 40
0.175
  9
$DIMEXO
 40
0.125
  9
$DIMDLI
 40
3.75
  9
$DIMRND
 40
0.0
  9
$DIMDLE
 40
0.0
  9
$DIMEXE
 40
0.375
  9
$DIMTP
 40
0.0
  9
$DIMTM
 40
0.0
  9
$DIMTXT
 40
0.25
  9
$DIMCEN
 40
2.5
  9
$DIMTSZ
 40
0.0
  9
$DIMTOL
 70
0
  9
$DIMLIM
 70
0
  9
$DIMTIH
 70
0
  9
$DIMTOH
 70
0
  9
$DIMSE1
 70
0
  9
$DIMSE2
 70
0
  9
$DIMTAD
 70
1
  9
$DIMZIN
 70
12
  9
$DIMBLK
  1
ARCHTICK
  9
$DIMASO
 70
1
  9
$DIMSHO
 70
1
  9
$DIMPOST
  1

  9
$DIMAPOST
  1

  9
$DIMALT
 70
0
  9
$DIMALTD
 70
3
  9
$DIMALTF
 40
0.03937007874
  9
$DIMLFAC
 40
100.0
  9
$DIMTOFL
 70
1
  9
$DIMTVP
 40
0.0
  9
$DIMTIX
 70
0
  9
$DIMSOXD
 70
0
  9
$DIMSAH
 70
0
  9
$DIMBLK1
  1

  9
$DIMBLK2
  1

  9
$DIMSTYLE
  2
EZDXF
  9
$DIMCLRD
 70
0
  9
$DIMCLRE
 70
0
  9
$DIMCLRT
 70
0
  9
$DIMTFAC
 40
0.5
  9
$DIMGAP
 40
0.1
  9
$DIMJUST
 70
0
  9
$DIMSD1
 70
0
  9
$DIMSD2
 70
0
  9
$DIMTOLJ
 70
0
  9
$DIMTZIN
 70
8
  9
$DIMALTZ
 70
0
  9
$DIMALTTZ
 70
0
  9
$DIMUPT
 70
1
  9
$DIMDEC
 70
2
  9
$DIMTDEC
 70
2
  9
$DIMALTU
 70
2
  9
$DIMALTTD
 70
3
  9
$DIMTXSTY
  7
OpenSansCondensed-Light
  9
$DIMAUNIT
 70
0
  9
$DIMADEC
 70
2
  9
$DIMALTRND
 40
0.0
  9
$DIMAZIN
 70
3
  9
$DIMDSEP
 70
46
  9
$DIMATFIT
 70
3
  9
$DIMFRAC
 70
0
  9
$DIMLDRBLK
  1

  9
$DIMLUNIT
 70
2
  9
$DIMLWD
 70
-2
  9
$DIMLWE
 70
-2
  9
$DIMTMOVE
 70
2
  9
$DIMFXL
 40
1.0
  9
$DIMFXLON
 70
0
  9
$DIMJOGANG
 40
0.785398163397
  9
$DIMTFILL
 70
0
  9
$DIMTFILLCLR
 70
0
  9
$DIMARCSYM
 70
0
  9
$DIMLTYPE
  6

  9
$DIMLTEX1
  6

  9
$DIMLTEX2
  6

  9
$DIMTXTDIRECTION
 70
0
  9
$LUNITS
 70
2
  9
$LUPREC
 70
4
  9
$SKETCHINC
 40
1.0
  9
$FILLETRAD
 40
10.0
  9
$AUNITS
 70
0
  9
$AUPREC
 70
2
  9
$MENU
  1
.
  9
$ELEVATION
 40
0.0
  9
$PELEVATION
 40
0.0
  9
$THICKNESS
 40
0.0
  9
$LIMCHECK
 70
0
  9
$CHAMFERA
 40
0.0
  9
$CHAMFERB
 40
0.0
  9
$CHAMFERC
 40
0.0
  9
$CHAMFERD
 40
0.0
  9
$SKPOLY
 70
0
  9
$TDCREATE
 40
2451545.0
  9
$TDUCREATE
 40
2451545.0
  9
$TDUPDATE
 40
2451545.0
  9
$TDUUPDATE
 40
2451545.0
  9
$TDINDWG
 40
0.0
  9
$TDUSRTIMER
 40
0.0
  9
$USRTIMER
 70
1
  9
$ANGBASE
 50
0.0
  9
$ANGDIR
 70
0
  9
$PDMODE
 70
0
  9
$PDSIZE
 40
0.0
  9
$PLINEWID
 40
0.0
  9
$SPLFRAME
 70
0
  9
$SPLINETYPE
 70
6
  9
$SPLINESEGS
 70
8
  9
$HANDSEED
  5
2BC
  9
$SURFTAB1
 70
6
  9
$SURFTAB2
 70
6
  9
$SURFTYPE
 70
6
  9
$SURFU
 70
6
  9
$SURFV
 70
6
  9
$UCSBASE
  2

  9
$UCSNAME
  2

  9
$UCSORG
 10
0.0
 20
0.0
 30
0.0
  9
$UCSXDIR
 10
1.0
 20
0.0
 30
0.0
  9
$UCSYDIR
 10
0.0
 20
1.0
 30
0.0
  9
$UCSORTHOREF
  2

  9
$UCSORTHOVIEW
 70
0
  9
$UCSORGTOP
 10
0.0
 20
0.0
 30
0.0
  9
$UCSORGBOTTOM
 10
0.0
 20
0.0
 30
0.0
  9
$UCSORGLEFT
 10
0.0
 20
0.0
 30
0.0
  9
$UCSORGRIGHT
 10
0.0
 20
0.0
 30
0.0
  9
$UCSORGFRONT
 10
0.0
 20
0.0
 30
0.0
  9
$UCSORGBACK
 10
0.0
 20
0.0
 30
0.0
  9
$PUCSBASE
  2

  9
$PUCSNAME
  2

  9
$PUCSORG
 10
0.0
 20
0.0
 30
0.0
  9
$PUCSXDIR
 10
1.0
 20
0.0
 30
0.0
  9
$PUCSYDIR
 10
0.0
 20
1.0
 30
0.0
  9
$PUCSORTHOREF
  2

  9
$PUCSORTHOVIEW
 70
0
  9
$PUCSORGTOP
 10
0.0
 20
0.0
 30
0.0
  9
$PUCSORGBOTTOM
 10
0.0
 20
0.0
 30
0.0
  9
$PUCSORGLEFT
 10
0.0
 20
0.0
 30
0.0
  9
$PUCSORGRIGHT
 10
0.0
 20
0.0
 30
0.0
  9
$PUCSORGFRONT
 10
0.0
 20
0.0
 30
0.0
  9
$PUCSORGBACK
 10
0.0
 20
0.0
 30
0.0
  9
$USERI1
 70
0
  9
$USERI2
 70
0
  9
$USERI3
 70
0
  9
$USERI4
 70
0
  9
$USERI5
 70
0
  9
$USERR1
 40
0.0
  9
$USERR2
 40
0.0
  9
$USERR3
 40
0.0
  9
$USERR4
 40
0.0
  9
$USERR5
 40
0.0
  9
$WORLDVIEW
 70
1
  9
$SHADEDGE
 70
3
  9
$SHADEDIF
 70
70
  9
$TILEMODE
 70
1
  9
$MAXACTVP
 70
64
  9
$PINSBASE
 10
0.0
 20
0.0
 30
0.0
  9
$PLIMCHECK
 70
0
  9
$PEXTMIN
 10
1e+20
 20
1e+20
 30
1e+20
  9
$PEXTMAX
 10
-1e+20
 20
-1e+20
 30
-1e+20
  9
$PLIMMIN
 10
0.0
 20
0.0
  9
$PLIMMAX
 10
420.0
 20
297.0
  9
$UNITMODE
 70
0
  9
$VISRETAIN
 70
1
  9
$PLINEGEN
 70
0
  9
$PSLTSCALE
 70
1
  9
$TREEDEPTH
 70
3020
  9
$CMLSTYLE
  2
Standard
  9
$CMLJUST
 70
0
  9
$CMLSCALE
 40
20.0
  9
$PROXYGRAPHICS
 70
1
  9
$MEASUREMENT
 70
1
  9
$CELWEIGHT
370
-1
  9
$ENDCAPS
280
0
  9
$JOINSTYLE
280
0
  9
$LWDISPLAY
290
0
  9
$INSUNITS
 70
4
  9
$HYPERLINKBASE
  1

  9
$STYLESHEET
  1

  9
$XEDIT
290
1
  9
$CEPSNTYPE
380
0
  9
$PSTYLEMODE
290
1
  9
$FINGERPRINTGUID
  2
{7766484D-5A30-5602-8E0D-11E34C2307F2}
  9
$VERSIONGUID
  2
{05D3DAD5-DD21-543E-8D1A-10E52774A051}
  9
$EXTNAMES
290
1
  9
$PSVPSCALE
 40
0.0
  9
$OLESTARTUP
290
0
  9
$SORTENTS
280
127
  9
$INDEXCTL
280
0
  9
$HIDETEXT
280
1
  9
$XCLIPFRAME
280
1
  9
$HALOGAP
280
0
  9
$OBSCOLOR
 70
257
  9
$OBSLTYPE
280
0
  9
$INTERSECTIONDISPLAY
280
0
  9
$INTERSECTIONCOLOR
 70
257
  9
$DIMASSOC
280
2
  9
$PROJECTNAME
  1

  9
$CAMERADISPLAY
290
0
  9
$LENSLENGTH
 40
50.0
  9
$CAMERAHEIGHT
 40
0.0
  9
$STEPSPERSEC
 40
24.0
  9
$STEPSIZE
 40
100.0
  9
$3DDWFPREC
 40
2.0
  9
$PSOLWIDTH
 40
0.005
  9
$PSOLHEIGHT
 40
0.08
  9
$LOFTANG1
 40
1.570796326795
  9
$LOFTANG2
 40
1.570796326795
  9
$LOFTMAG1
 40
0.0
  9
$LOFTMAG2
 40
0.0
  9
$LOFTPARAM
 70
7
  9
$LOFTNORMALS
280
1
  9
$LATITUDE
 40
37.795
  9
$LONGITUDE
 40
-122.394
  9
$NORTHDIRECTION
 40
0.0
  9
$TIMEZONE
 70
-8000
  9
$LIGHTGLYPHDISPLAY
280
1
  9
$TILEMODELIGHTSYNCH
280
1
  9
$CMATERIAL
347
20
  9
$SOLIDHIST
280
0
  9
$SHOWHIST
280
1
  9
$DWFFRAME
280
2
  9
$DGNFRAME
280
2
  9
$REALWORLDSCALE
290
1
  9
$INTERFERECOLOR
 62
256
  9
$CSHADOW
280
0
  9
$SHADOWPLANELOCATION
 40
0.0
  0
ENDSEC
  0
SECTION
  2
CLASSES
  0
CLASS
  1
ACDBDICTIONARYWDFLT
  2
AcDbDictionaryWithDefault
  3
ObjectDBX Classes
 90
0
 91
0
280
0
281
0
  0
CLASS
  1
SUN
  2
AcDbSun
  3
SCENEOE
 90
1153
 91
0
280
0
281
0
  0
CLASS
  1
VISUALSTYLE
  2
AcDbVisualStyle
  3
ObjectDBX Classes
 90
4095
 91
0
280
0
281
0
  0
CLASS
  1
MATERIAL
  2
AcDbMaterial
  3
ObjectDBX Classes
 90
1153
 91
0
280
0
281
0
  0
CLASS
  1
SCALE
  2
AcDbScale
  3
ObjectDBX Classes
 90
1153
 91
0
280
0
281
0
  0
CLASS
  1
TABLESTYLE
  2
AcDbTableStyle
  3
ObjectDBX Classes
 90
4095
 91
0
280
0
281
0
  0
CLASS
  1
MLEADERSTYLE
  2
AcDbMLeaderStyle
  3
ACDB_MLEADERSTYLE_CLASS
 90
4095
 91
0
280
0
281
0
  0
CLASS
  1
DICTIONARYVAR
  2
AcDbDictionaryVar
  3
ObjectDBX Classes
 90
0
 91
0
280
0
281
0
  0
CLASS
  1
CELLSTYLEMAP
  2
AcDbCellStyleMap
  3
ObjectDBX Classes
 90
1152
 91
0
280
0
281
0
  0
CLASS
  1
MENTALRAYRENDERSETTINGS
  2
AcDbMentalRayRenderSettings
  3
SCENEOE
 90
1024
 91
0
280
0
281
0
  0
CLASS
  1
ACDBDETAILVIEWSTYLE
  2
AcDbDetailViewStyle
  3
ObjectDBX Classes
 90
1025
 91
0
280
0
281
0
  0
CLASS
  1
ACDBSECTIONVIEWSTYLE
  2
AcDbSectionViewStyle
  3
ObjectDBX Classes
 90
1025
 91
0
280
0
281
0
  0
CLASS
  1
RASTERVARIABLES
  2
AcDbRasterVariables
  3
ISM
 90
0
 91
0
280
0
281
0
  0
CLASS
  1
ACDBPLACEHOLDER
  2
AcDbPlaceHolder
  3
ObjectDBX Classes
 90
0
 91
0
280
0
281
0
  0
CLASS
  1
LAYOUT
  2
AcDbLayout
  3
ObjectDBX Classes
 90
0
 91
0
280
0
281
0
  0
ENDSEC
  0
SECTION
  2
TABLES
  0
TABLE
  2
VPORT
  5
8
330
0
100
AcDbSymbolTable
 70
1
  0
VPORT
  5
23
330
8
100
AcDbSymbolTableRecord
100
AcDbViewportTableRecord
  2
*Active
 70
0
 10
0.0
 20
0.0
 11
1.0
 21
1.0
 12
0.0
 22
0.0
 13
0.0
 23
0.0
 14
0.5
 24
0.5
 15
0.5
 25
0.5
 16
0.0
 26
0.0
 36
1.0
 17
0.0
 27
0.0
 37
0.0
 40
1000.0
 41
1.34
 42
50.0
 43
0.0
 44
0.0
 50
0.0
 51
0.0
 71
0
 72
1000
 73
1
 74
3
 75
0
 76
0
 77
0
 78
0
281
0
 65
0
146
0.0
  0
ENDTAB
  0
TABLE
  2
LTYPE
  5
2
330
0
100
AcDbSymbolTable
 70
21
  0
LTYPE
  5
24
330
2
100
AcDbSymbolTableRecord
100
AcDbLinetypeTableRecord
  2
ByBlock
 70
0
  3

 72
65
 73
0
 40
0.0
  0
LTYPE
  5
25
330
2
100
AcDbSymbolTableRecord
100
AcDbLinetypeTableRecord
  2
ByLayer
 70
0
  3

 72
65
 73
0
 40
0.0
  0
LTYPE
  5
26
330
2
100
AcDbSymbolTableRecord
100
AcDbLinetypeTableRecord
  2
Continuous
 70
0
  3

 72
65
 73
0
 40
0.0
  0
LTYPE
  5
2F
330
2
100
AcDbSymbolTableRecord
100
AcDbLinetypeTableRecord
  2
CENTER
 70
0
  3
Center ____ _ ____ _ ____ _ ____ _ ____ _ ____
 72
65
 73
4
 40
5.08
 49
3.175
 74
0
 49
-0.635
 74
0
 49
0.635
 74
0
 49
-0.635
 74
0
  0
LTYPE
  5
30
330
2
100
AcDbSymbolTableRecord
100
AcDbLinetypeTableRecord
  2
CENTERX2
 70
0
  3
Center (2x) ________  __  ________  __  ________
 72
65
 73
4
 40
8.89
 49
6.35
 74
0
 49
-0.635
 74
0
 49
1.27
 74
0
 49
-0.635
 74
0
  0
LTYPE
  5
31
330
2
100
AcDbSymbolTableRecord
100
AcDbLinetypeTableRecord
  2
CENTER2
 70
0
  3
Center (.5x) ____ _ ____ _ ____ _ ____ _ ____
 72
65
 73
4
 40
2.54
 49
1.587
 74
0
 49
-0.318
 74
0
 49
0.318
 74
0
 49
-0.318
 74
0
  0
LTYPE
  5
32
330
2
100
AcDbSymbolTableRecord
100
AcDbLinetypeTableRecord
  2
DASHED
 70
0
  3
Dashed __ __ __ __ __ __ __ __ __ __ __ __ __ _
 72
65
 73
2
 40
1.524
 49
1.27
 74
0
 49
-0.254
 74
0
  0
LTYPE
  5
33
330
2
100
AcDbSymbolTableRecord
100
AcDbLinetypeTableRecord
  2
DASHEDX2
 70
0
  3
Dashed (2x) ____  ____  ____  ____  ____  ____
 72
65
 73
2
 40
3.048
 49
2.54
 74
0
 49
-0.508
 74
0
  0
LTYPE
  5
34
330
2
100
AcDbSymbolTableRecord
100
AcDbLinetypeTableRecord
  2
DASHED2
 70
0
  3
Dashed (.5x) _ _ _ _ _ _ _ _ _ _ _ _ _ _
 72
65
 73
2
 40
0.762
 49
0.635
 74
0
 49
-0.127
 74
0
  0
LTYPE
  5
35
330
2
100
AcDbSymbolTableRecord
100
AcDbLinetypeTableRecord
  2
PHANTOM
 70
0
  3
Phantom ______  __  __  ______  __  __  ______
 72
65
 73
6
 40
6.35
 49
3.175
 74
0
 49
-0.635
 74
0
 49
0.635
 74
0
 49
-0.635
 74
0
 49
0.635
 74
0
 49
-0.635
 74
0
  0
LTYPE
  5
36
330
2
100
AcDbSymbolTableRecord
100
AcDbLinetypeTableRecord
  2
PHANTOMX2
 70
0
  3
Phantom (2x)____________    ____    ____    ____________
 72
65
 73
6
 40
10.795
 49
6.35
 74
0
 49
-0.635
 74
0
 49
1.27
 74
0
 49
-0.635
 74
0
 49
1.27
 74
0
 49
-0.635
 74
0
  0
LTYPE
  5
37
330
2
100
AcDbSymbolTableRecord
100
AcDbLinetypeTableRecord
  2
PHANTOM2
 70
0
  3
Phantom (.5x) ___ _ _ ___ _ _ ___ _ _ ___ _ _ ___
 72
65
 73
6
 40
3.175
 49
1.587
 74
0
 49
-0.318
 74
0
 49
0.318
 74
0
 49
-0.318
 74
0
 49
0.318
 74
0
 49
-0.318
 74
0
  0
LTYPE
  5
38
330
2
100
AcDbSymbolTableRecord
100
AcDbLinetypeTableRecord
  2
DASHDOT
 70
0
  3
Dash dot __ . __ . __ . __ . __ . __ . __ . __
 72
65
 73
4
 40
3.556
 49
2.54
 74
0
 49
-0.508
 74
0
 49
0.0
 74
0
 49
-0.508
 74
0
  0
LTYPE
  5
39
330
2
100
AcDbSymbolTableRecord
100
AcDbLinetypeTableRecord
  2
DASHDOTX2
 70
0
  3
Dash dot (2x) ____  .  ____  .  ____  .  ____
 72
65
 73
4
 40
6.096
 49
5.08
 74
0
 49
-0.508
 74
0
 49
0.0
 74
0
 49
-0.508
 74
0
  0
LTYPE
  5
3A
330
2
100
AcDbSymbolTableRecord
100
AcDbLinetypeTableRecord
  2
DASHDOT2
 70
0
  3
Dash dot (.5x) _ . _ . _ . _ . _ . _ . _ . _
 72
65
 73
4
 40
1.778
 49
1.27
 74
0
 49
-0.254
 74
0
 49
0.0
 74
0
 49
-0.254
 74
0
  0
LTYPE
  5
3B
330
2
100
AcDbSymbolTableRecord
100
AcDbLinetypeTableRecord
  2
DOT
 70
0
  3
Dot .  .  .  .  .  .  .  .  .  .  .  .  .  .  .  .
 72
65
 73
2
 40
0.508
 49
0.0
 74
0
 49
-0.508
 74
0
  0
LTYPE
  5
3C
330
2
100
AcDbSymbolTableRecord
100
AcDbLinetypeTableRecord
  2
DOTX2
 70
0
  3
Dot (2x) .    .    .    .    .    .    .    . 
 72
65
 73
2
 40
1.016
 49
0.0
 74
0
 49
-1.016
 74
0
  0
LTYPE
  5
3D
330
2
100
AcDbSymbolTableRecord
100
AcDbLinetypeTableRecord
  2
DOT2
 70
0
  3
Dot (.5) . . . . . . . . . . . . . . . . . . . 
 72
65
 73
2
 40
0.254
 49
0.0
 74
0
 49
-0.254
 74
0
  0
LTYPE
  5
3E
330
2
100
AcDbSymbolTableRecord
100
AcDbLinetypeTableRecord
  2
DIVIDE
 70
0
  3
Divide __ . . __ . . __ . . __ . . __ . . __
 72
65
 73
6
 40
4.064
 49
2.54
 74
0
 49
-0.508
 74
0
 49
0.0
 74
0
 49
-0.508
 74
0
 49
0.0
 74
0
 49
-0.508
 74
0
  0
LTYPE
  5
3F
330
2
100
AcDbSymbolTableRecord
100
AcDbLinetypeTableRecord
  2
DIVIDEX2
 70
0
  3
Divide (2x) ____  . .  ____  . .  ____  . .  ____
 72
65
 73
6
 40
6.604
 49
5.08
 74
0
 49
-0.508
 74
0
 49
0.0
 74
0
 49
-0.508
 74
0
 49
0.0
 74
0
 49
-0.508
 74
0
  0
LTYPE
  5
40
330
2
100
AcDbSymbolTableRecord
100
AcDbLinetypeTableRecord
  2
DIVIDE2
 70
0
  3
Divide(.5x) _ . _ . _ . _ . _ . _ . _ . _
 72
65
 73
6
 40
2.032
 49
1.27
 74
0
 49
-0.254
 74
0
 49
0.0
 74
0
 49
-0.254
 74
0
 49
0.0
 74
0
 49
-0.254
 74
0
  0
ENDTAB
  0
TABLE
  2
LAYER
  5
1
330
0
100
AcDbSymbolTable
 70
12
  0
LAYER
  5
27
330
1
100
AcDbSymbolTableRecord
100
AcDbLayerTableRecord
  2
0
 70
0
 62
7
  6
Continuous
370
-3
390
13
347
21
  0
LAYER
  5
28
330
1
100
AcDbSymbolTableRecord
100
AcDbLayerTableRecord
  2
Defpoints
 70
0
 62
7
  6
Continuous
290
0
370
-3
390
13
347
21
  0
LAYER
  5
8A
330
1
100
AcDbSymbolTableRecord
100
AcDbLayerTableRecord
  2
A-WALL
 70
0
 62
7
  6
Continuous
370
35
390
13
347
21
  0
LAYER
  5
8B
330
1
100
AcDbSymbolTableRecord
100
AcDbLayerTableRecord
  2
A-WIND
 70
0
 62
4
  6
Continuous
370
18
390
13
347
21
  0
LAYER
  5
8C
330
1
100
AcDbSymbolTableRecord
100
AcDbLayerTableRecord
  2
A-DOOR
 70
0
 62
3
  6
Continuous
370
18
390
13
347
21
  0
LAYER
  5
8D
330
1
100
AcDbSymbolTableRecord
100
AcDbLayerTableRecord
  2
A-FLOOR
 70
0
 62
8
  6
Continuous
370
18
390
13
347
21
  0
LAYER
  5
8E
330
1
100
AcDbSymbolTableRecord
100
AcDbLayerTableRecord
  2
A-FURN
 70
0
 62
8
  6
Continuous
370
18
390
13
347
21
  0
LAYER
  5
8F
330
1
100
AcDbSymbolTableRecord
100
AcDbLayerTableRecord
  2
A-ANNO
 70
0
 62
7
  6
Continuous
370
18
390
13
347
21
  0
LAYER
  5
90
330
1
100
AcDbSymbolTableRecord
100
AcDbLayerTableRecord
  2
A-DIMS
 70
0
 62
7
  6
Continuous
370
18
390
13
347
21
  0
LAYER
  5
91
330
1
100
AcDbSymbolTableRecord
100
AcDbLayerTableRecord
  2
A-STAIR
 70
0
 62
7
  6
Continuous
370
18
390
13
347
21
  0
LAYER
  5
92
330
1
100
AcDbSymbolTableRecord
100
AcDbLayerTableRecord
  2
A-SITE
 70
0
 62
8
  6
Continuous
370
18
390
13
347
21
  0
LAYER
  5
93
330
1
100
AcDbSymbolTableRecord
100
AcDbLayerTableRecord
  2
S-GRID
 70
0
 62
8
  6
Continuous
370
18
390
13
347
21
  0
ENDTAB
  0
TABLE
  2
STYLE
  5
5
330
0
100
AcDbSymbolTable
 70
26
  0
STYLE
  5
29
330
5
100
AcDbSymbolTableRecord
100
AcDbTextStyleTableRecord
  2
Standard
 70
0
 40
0.0
 41
1.0
 50
0.0
 71
0
 42
2.5
  3
txt
  4

  0
STYLE
  5
41
330
5
100
AcDbSymbolTableRecord
100
AcDbTextStyleTableRecord
  2
OpenSans-Light
 70
0
 40
0.0
 41
1.0
 50
0.0
 71
0
 42
2.5
  3
OpenSans-Light.ttf
  4

  0
STYLE
  5
42
330
5
100
AcDbSymbolTableRecord
100
AcDbTextStyleTableRecord
  2
OpenSans-Light-Italic
 70
0
 40
0.0
 41
1.0
 50
0.0
 71
0
 42
2.5
  3
OpenSans-LightItalic.ttf
  4

  0
STYLE
  5
43
330
5
100
AcDbSymbolTableRecord
100
AcDbTextStyleTableRecord
  2
OpenSans
 70
0
 40
0.0
 41
1.0
 50
0.0
 71
0
 42
2.5
  3
OpenSans-Regular.ttf
  4

  0
STYLE
  5
44
330
5
100
AcDbSymbolTableRecord
100
AcDbTextStyleTableRecord
  2
OpenSans-Italic
 70
0
 40
0.0
 41
1.0
 50
0.0
 71
0
 42
2.5
  3
OpenSans-Italic.ttf
  4

  0
STYLE
  5
45
330
5
100
AcDbSymbolTableRecord
100
AcDbTextStyleTableRecord
  2
OpenSans-SemiBold
 70
0
 40
0.0
 41
1.0
 50
0.0
 71
0
 42
2.5
  3
OpenSans-SemiBold.ttf
  4

  0
STYLE
  5
46
330
5
100
AcDbSymbolTableRecord
100
AcDbTextStyleTableRecord
  2
OpenSans-SemiBoldItalic
 70
0
 40
0.0
 41
1.0
 50
0.0
 71
0
 42
2.5
  3
OpenSans-SemiBoldItalic.ttf
  4

  0
STYLE
  5
47
330
5
100
AcDbSymbolTableRecord
100
AcDbTextStyleTableRecord
  2
OpenSans-Bold
 70
0
 40
0.0
 41
1.0
 50
0.0
 71
0
 42
2.5
  3
OpenSans-Bold.ttf
  4

  0
STYLE
  5
48
330
5
100
AcDbSymbolTableRecord
100
AcDbTextStyleTableRecord
  2
OpenSans-BoldItalic
 70
0
 40
0.0
 41
1.0
 50
0.0
 71
0
 42
2.5
  3
OpenSans-BoldItalic.ttf
  4

  0
STYLE
  5
49
330
5
100
AcDbSymbolTableRecord
100
AcDbTextStyleTableRecord
  2
OpenSans-ExtraBold
 70
0
 40
0.0
 41
1.0
 50
0.0
 71
0
 42
2.5
  3
OpenSans-ExtraBold.ttf
  4

  0
STYLE
  5
4A
330
5
100
AcDbSymbolTableRecord
100
AcDbTextStyleTableRecord
  2
OpenSans-ExtraBoldItalic
 70
0
 40
0.0
 41
1.0
 50
0.0
 71
0
 42
2.5
  3
OpenSans-ExtraBoldItalic.ttf
  4

  0
STYLE
  5
4B
330
5
100
AcDbSymbolTableRecord
100
AcDbTextStyleTableRecord
  2
OpenSansCondensed-Bold
 70
0
 40
0.0
 41
1.0
 50
0.0
 71
0
 42
2.5
  3
OpenSansCondensed-Bold.ttf
  4

  0
STYLE
  5
4C
330
5
100
AcDbSymbolTableRecord
100
AcDbTextStyleTableRecord
  2
OpenSansCondensed-Light
 70
0
 40
0.0
 41
1.0
 50
0.0
 71
0
 42
2.5
  3
OpenSansCondensed-Light.ttf
  4

  0
STYLE
  5
4D
330
5
100
AcDbSymbolTableRecord
100
AcDbTextStyleTableRecord
  2
OpenSansCondensed-Italic
 70
0
 40
0.0
 41
1.0
 50
0.0
 71
0
 42
2.5
  3
OpenSansCondensed-LightItalic.ttf
  4

  0
STYLE
  5
4E
330
5
100
AcDbSymbolTableRecord
100
AcDbTextStyleTableRecord
  2
LiberationSans
 70
0
 40
0.0
 41
1.0
 50
0.0
 71
0
 42
2.5
  3
LiberationSans-Regular.ttf
  4

  0
STYLE
  5
4F
330
5
100
AcDbSymbolTableRecord
100
AcDbTextStyleTableRecord
  2
LiberationSans-Bold
 70
0
 40
0.0
 41
1.0
 50
0.0
 71
0
 42
2.5
  3
LiberationSans-Bold.ttf
  4

  0
STYLE
  5
50
330
5
100
AcDbSymbolTableRecord
100
AcDbTextStyleTableRecord
  2
LiberationSans-BoldItalic
 70
0
 40
0.0
 41
1.0
 50
0.0
 71
0
 42
2.5
  3
LiberationSans-BoldItalic.ttf
  4

  0
STYLE
  5
51
330
5
100
AcDbSymbolTableRecord
100
AcDbTextStyleTableRecord
  2
LiberationSans-Italic
 70
0
 40
0.0
 41
1.0
 50
0.0
 71
0
 42
2.5
  3
LiberationSans-Italic.ttf
  4

  0
STYLE
  5
52
330
5
100
AcDbSymbolTableRecord
100
AcDbTextStyleTableRecord
  2
LiberationSerif
 70
0
 40
0.0
 41
1.0
 50
0.0
 71
0
 42
2.5
  3
LiberationSerif-Regular.ttf
  4

  0
STYLE
  5
53
330
5
100
AcDbSymbolTableRecord
100
AcDbTextStyleTableRecord
  2
LiberationSerif-Bold
 70
0
 40
0.0
 41
1.0
 50
0.0
 71
0
 42
2.5
  3
LiberationSerif-Bold.ttf
  4

  0
STYLE
  5
54
330
5
100
AcDbSymbolTableRecord
100
AcDbTextStyleTableRecord
  2
LiberationSerif-BoldItalic
 70
0
 40
0.0
 41
1.0
 50
0.0
 71
0
 42
2.5
  3
LiberationSerif-BoldItalic.ttf
  4

  0
STYLE
  5
55
330
5
100
AcDbSymbolTableRecord
100
AcDbTextStyleTableRecord
  2
LiberationSerif-Italic
 70
0
 40
0.0
 41
1.0
 50
0.0
 71
0
 42
2.5
  3
LiberationSerif-Italic.ttf
  4

  0
STYLE
  5
56
330
5
100
AcDbSymbolTableRecord
100
AcDbTextStyleTableRecord
  2
LiberationMono
 70
0
 40
0.0
 41
1.0
 50
0.0
 71
0
 42
2.5
  3
LiberationMono-Regular.ttf
  4

  0
STYLE
  5
57
330
5
100
AcDbSymbolTableRecord
100
AcDbTextStyleTableRecord
  2
LiberationMono-Bold
 70
0
 40
0.0
 41
1.0
 50
0.0
 71
0
 42
2.5
  3
LiberationMono-Bold.ttf
  4

  0
STYLE
  5
58
330
5
100
AcDbSymbolTableRecord
100
AcDbTextStyleTableRecord
  2
LiberationMono-BoldItalic
 70
0
 40
0.0
 41
1.0
 50
0.0
 71
0
 42
2.5
  3
LiberationMono-BoldItalic.ttf
  4

  0
STYLE
  5
59
330
5
100
AcDbSymbolTableRecord
100
AcDbTextStyleTableRecord
  2
LiberationMono-Italic
 70
0
 40
0.0
 41
1.0
 50
0.0
 71
0
 42
2.5
  3
LiberationMono-Italic.ttf
  4

  0
ENDTAB
  0
TABLE
  2
VIEW
  5
7
330
0
100
AcDbSymbolTable
 70
0
  0
ENDTAB
  0
TABLE
  2
UCS
  5
6
330
0
100
AcDbSymbolTable
 70
0
  0
ENDTAB
  0
TABLE
  2
APPID
  5
3
330
0
100
AcDbSymbolTable
 70
4
  0
APPID
  5
2A
330
3
100
AcDbSymbolTableRecord
100
AcDbRegAppTableRecord
  2
ACAD
 70
0
  0
APPID
  5
94
330
3
100
AcDbSymbolTableRecord
100
AcDbRegAppTableRecord
  2
FLOORFORGE
 70
0
  0
APPID
  5
2B9
330
3
100
AcDbSymbolTableRecord
100
AcDbRegAppTableRecord
  2
HATCHBACKGROUNDCOLOR
 70
0
  0
APPID
  5
2BA
330
3
100
AcDbSymbolTableRecord
100
AcDbRegAppTableRecord
  2
EZDXF
 70
0
  0
ENDTAB
  0
TABLE
  2
DIMSTYLE
  5
4
330
0
100
AcDbSymbolTable
 70
12
100
AcDbDimStyleTable
  0
DIMSTYLE
105
2B
330
4
100
AcDbSymbolTableRecord
100
AcDbDimStyleTableRecord
  2
Standard
 70
0
 40
1.0
 41
2.5
 42
0.625
 43
3.75
 44
1.25
 45
0.0
 46
0.0
 47
0.0
 48
0.0
 49
2.5
140
2.5
141
2.5
142
0.0
143
0.03937007874
144
1.0
145
0.0
146
1.0
147
0.625
148
0.0
 69
0
 70
0
 71
0
 72
0
 73
0
 74
0
 75
0
 76
0
 77
1
 78
8
 79
3
170
0
171
3
172
1
173
0
174
0
175
0
176
0
177
0
178
0
179
2
271
2
272
2
273
2
274
3
275
0
276
0
277
2
278
44
279
0
280
0
281
0
282
0
283
0
284
8
285
0
286
0
288
0
289
3
290
0
371
-2
372
-2
  0
DIMSTYLE
105
73
330
4
100
AcDbSymbolTableRecord
100
AcDbDimStyleTableRecord
  2
EZDXF
 70
0
 40
1.0
 41
0.175
 42
0.125
 43
3.75
 44
0.375
 45
0.0
 46
0.0
 47
0.0
 48
0.0
 49
2.5
140
0.25
141
2.5
142
0.0
143
0.03937007874
144
100.0
145
0.0
146
0.5
147
0.1
148
0.0
 69
0
 70
0
 71
0
 72
0
 73
0
 74
0
 75
0
 76
0
 77
1
 78
12
 79
3
170
0
171
3
172
1
173
0
174
0
175
0
176
0
177
0
178
0
179
2
271
2
272
2
273
2
274
3
275
0
276
0
277
2
278
46
279
2
280
0
281
0
282
0
283
0
284
8
285
0
286
0
288
1
289
3
290
0
340
4C
342
74
371
-2
372
-2
  0
DIMSTYLE
105
7C
330
4
100
AcDbSymbolTableRecord
100
AcDbDimStyleTableRecord
  2
EZ_M_100_H25_CM
 70
0
 40
1.0
 41
0.25
 42
0.125
 43
3.75
 44
0.375
 45
0.0
 46
0.0
 47
0.0
 48
0.0
 49
2.5
140
0.25
141
2.5
142
0.125
143
0.03937007874
144
100.0
145
0.0
146
0.5
147
0.1
148
0.0
 69
0
 70
0
 71
0
 72
0
 73
0
 74
0
 75
0
 76
0
 77
1
 78
12
 79
3
170
0
171
3
172
1
173
0
174
0
175
0
176
0
177
0
178
0
179
2
271
2
272
2
273
2
274
3
275
0
276
0
277
2
278
46
279
2
280
0
281
0
282
0
283
0
284
8
285
0
286
0
288
1
289
3
290
0
340
4C
371
-2
372
-2
  0
DIMSTYLE
105
7D
330
4
100
AcDbSymbolTableRecord
100
AcDbDimStyleTableRecord
  2
EZ_M_50_H25_CM
 70
0
 40
1.0
 41
0.125
 42
0.0625
 43
3.75
 44
0.1875
 45
0.0
 46
0.0
 47
0.0
 48
0.0
 49
2.5
140
0.125
141
2.5
142
0.0625
143
0.03937007874
144
100.0
145
0.0
146
0.5
147
0.05
148
0.0
 69
0
 70
0
 71
0
 72
0
 73
0
 74
0
 75
0
 76
0
 77
1
 78
12
 79
3
170
0
171
3
172
1
173
0
174
0
175
0
176
0
177
0
178
0
179
2
271
2
272
2
273
2
274
3
275
0
276
0
277
2
278
46
279
2
280
0
281
0
282
0
283
0
284
8
285
0
286
0
288
1
289
3
290
0
340
4C
371
-2
372
-2
  0
DIMSTYLE
105
7E
330
4
100
AcDbSymbolTableRecord
100
AcDbDimStyleTableRecord
  2
EZ_M_25_H25_CM
 70
0
 40
1.0
 41
0.0625
 42
0.03125
 43
3.75
 44
0.09375
 45
0.0
 46
0.0
 47
0.0
 48
0.0
 49
2.5
140
0.0625
141
2.5
142
0.03125
143
0.03937007874
144
100.0
145
0.0
146
0.5
147
0.025
148
0.0
 69
0
 70
0
 71
0
 72
0
 73
0
 74
0
 75
0
 76
0
 77
1
 78
12
 79
3
170
0
171
3
172
1
173
0
174
0
175
0
176
0
177
0
178
0
179
2
271
2
272
2
273
2
274
3
275
0
276
0
277
2
278
46
279
2
280
0
281
0
282
0
283
0
284
8
285
0
286
0
288
1
289
3
290
0
340
4C
371
-2
372
-2
  0
DIMSTYLE
105
7F
330
4
100
AcDbSymbolTableRecord
100
AcDbDimStyleTableRecord
  2
EZ_M_20_H25_CM
 70
0
 40
1.0
 41
0.05
 42
0.025
 43
3.75
 44
0.07500000000000001
 45
0.0
 46
0.0
 47
0.0
 48
0.0
 49
2.5
140
0.05
141
2.5
142
0.025
143
0.03937007874
144
100.0
145
0.0
146
0.5
147
0.020000000000000004
148
0.0
 69
0
 70
0
 71
0
 72
0
 73
0
 74
0
 75
0
 76
0
 77
1
 78
12
 79
3
170
0
171
3
172
1
173
0
174
0
175
0
176
0
177
0
178
0
179
2
271
2
272
2
273
2
274
3
275
0
276
0
277
2
278
46
279
2
280
0
281
0
282
0
283
0
284
8
285
0
286
0
288
1
289
3
290
0
340
4C
371
-2
372
-2
  0
DIMSTYLE
105
80
330
4
100
AcDbSymbolTableRecord
100
AcDbDimStyleTableRecord
  2
EZ_M_10_H25_CM
 70
0
 40
1.0
 41
0.025
 42
0.0125
 43
3.75
 44
0.037500000000000006
 45
0.0
 46
0.0
 47
0.0
 48
0.0
 49
2.5
140
0.025
141
2.5
142
0.0125
143
0.03937007874
144
100.0
145
0.0
146
0.5
147
0.010000000000000002
148
0.0
 69
0
 70
0
 71
0
 72
0
 73
0
 74
0
 75
0
 76
0
 77
1
 78
12
 79
3
170
0
171
3
172
1
173
0
174
0
175
0
176
0
177
0
178
0
179
2
271
2
272
2
273
2
274
3
275
0
276
0
277
2
278
46
279
2
280
0
281
0
282
0
283
0
284
8
285
0
286
0
288
1
289
3
290
0
340
4C
371
-2
372
-2
  0
DIMSTYLE
105
81
330
4
100
AcDbSymbolTableRecord
100
AcDbDimStyleTableRecord
  2
EZ_M_5_H25_CM
 70
0
 40
1.0
 41
0.0125
 42
0.00625
 43
3.75
 44
0.018750000000000003
 45
0.0
 46
0.0
 47
0.0
 48
0.0
 49
2.5
140
0.0125
141
2.5
142
0.00625
143
0.03937007874
144
100.0
145
0.0
146
0.5
147
0.005000000000000001
148
0.0
 69
0
 70
0
 71
0
 72
0
 73
0
 74
0
 75
0
 76
0
 77
1
 78
12
 79
3
170
0
171
3
172
1
173
0
174
0
175
0
176
0
177
0
178
0
179
2
271
2
272
2
273
2
274
3
275
0
276
0
277
2
278
46
279
2
280
0
281
0
282
0
283
0
284
8
285
0
286
0
288
1
289
3
290
0
340
4C
371
-2
372
-2
  0
DIMSTYLE
105
82
330
4
100
AcDbSymbolTableRecord
100
AcDbDimStyleTableRecord
  2
EZ_M_1_H25_CM
 70
0
 40
1.0
 41
0.0025
 42
0.00125
 43
3.75
 44
0.00375
 45
0.0
 46
0.0
 47
0.0
 48
0.0
 49
2.5
140
0.0025
141
2.5
142
0.00125
143
0.03937007874
144
100.0
145
0.0
146
0.5
147
0.001
148
0.0
 69
0
 70
0
 71
0
 72
0
 73
0
 74
0
 75
0
 76
0
 77
1
 78
12
 79
3
170
0
171
3
172
1
173
0
174
0
175
0
176
0
177
0
178
0
179
2
271
2
272
2
273
2
274
3
275
0
276
0
277
2
278
46
279
2
280
0
281
0
282
0
283
0
284
8
285
0
286
0
288
1
289
3
290
0
340
4C
371
-2
372
-2
  0
DIMSTYLE
105
83
330
4
100
AcDbSymbolTableRecord
100
AcDbDimStyleTableRecord
  2
EZ_RADIUS
 70
0
 40
1.0
 41
0.25
 42
0.125
 43
3.75
 44
0.375
 45
0.0
 46
0.0
 47
0.0
 48
0.0
 49
2.5
140
0.25
141
0.0
142
0.0
143
0.03937007874
144
100.0
145
0.0
146
0.5
147
0.1
148
0.0
 69
0
 70
0
 71
0
 72
0
 73
0
 74
0
 75
0
 76
0
 77
1
 78
12
 79
3
170
0
171
3
172
0
173
0
174
0
175
0
176
0
177
0
178
0
179
2
271
2
272
2
273
2
274
3
275
0
276
0
277
2
278
46
279
1
280
0
281
0
282
0
283
0
284
8
285
0
286
0
288
1
289
3
290
0
340
4C
342
84
371
-2
372
-2
  0
DIMSTYLE
105
88
330
4
100
AcDbSymbolTableRecord
100
AcDbDimStyleTableRecord
  2
EZ_RADIUS_INSIDE
 70
0
 40
1.0
 41
0.25
 42
0.125
 43
3.75
 44
0.375
 45
0.0
 46
0.0
 47
0.0
 48
0.0
 49
2.5
140
0.25
141
0.0
142
0.0
143
0.03937007874
144
100.0
145
0.0
146
0.5
147
0.1
148
0.0
 69
0
 70
0
 71
0
 72
0
 73
0
 74
0
 75
0
 76
0
 77
0
 78
12
 79
3
170
0
171
3
172
0
173
0
174
1
175
0
176
0
177
0
178
0
179
2
271
2
272
2
273
2
274
3
275
0
276
0
277
2
278
46
279
0
280
0
281
0
282
0
283
0
284
8
285
0
286
0
288
1
289
0
290
0
340
4C
342
84
371
-2
372
-2
  0
DIMSTYLE
105
89
330
4
100
AcDbSymbolTableRecord
100
AcDbDimStyleTableRecord
  2
EZ_CURVED
 70
0
 40
1.0
 41
0.25
 42
0.125
 43
3.75
 44
0.375
 45
0.0
 46
0.0
 47
0.0
 48
0.0
 49
2.5
140
0.25
141
2.5
142
0.0
143
0.03937007874
144
100.0
145
0.0
146
0.5
147
0.1
148
0.0
 69
0
 70
0
 71
0
 72
0
 73
0
 74
0
 75
0
 76
0
 77
1
 78
12
 79
2
 90
2
170
0
171
3
172
1
173
0
174
0
175
0
176
0
177
0
178
0
179
2
271
2
272
2
273
2
274
3
275
0
276
0
277
2
278
46
279
2
280
0
281
0
282
0
283
0
284
8
285
0
286
0
288
1
289
3
290
0
340
4C
371
-2
372
-2
  0
ENDTAB
  0
TABLE
  2
BLOCK_RECORD
  5
9
330
0
100
AcDbSymbolTable
 70
11
  0
BLOCK_RECORD
  5
17
330
9
100
AcDbSymbolTableRecord
100
AcDbBlockTableRecord
  2
*Model_Space
340
1A
 70
0
280
1
281
0
  0
BLOCK_RECORD
  5
1B
330
9
100
AcDbSymbolTableRecord
100
AcDbBlockTableRecord
  2
*Paper_Space
340
1E
 70
0
280
1
281
0
  0
BLOCK_RECORD
  5
74
330
9
100
AcDbSymbolTableRecord
100
AcDbBlockTableRecord
  2
_ARCHTICK
340
0
 70
0
280
1
281
0
  0
BLOCK_RECORD
  5
78
330
9
100
AcDbSymbolTableRecord
100
AcDbBlockTableRecord
  2
_CLOSEDFILLED
340
0
 70
0
280
1
281
0
  0
BLOCK_RECORD
  5
84
330
9
100
AcDbSymbolTableRecord
100
AcDbBlockTableRecord
  2
_CLOSEDBLANK
340
0
 70
0
280
1
281
0
  0
BLOCK_RECORD
  5
17E
330
9
100
AcDbSymbolTableRecord
100
AcDbBlockTableRecord
  2
*D1
340
0
 70
0
280
1
281
0
  0
BLOCK_RECORD
  5
18D
330
9
100
AcDbSymbolTableRecord
100
AcDbBlockTableRecord
  2
*D2
340
0
 70
0
280
1
281
0
  0
BLOCK_RECORD
  5
19D
330
9
100
AcDbSymbolTableRecord
100
AcDbBlockTableRecord
  2
*Paper_Space0
340
1A0
 70
0
280
1
281
0
  0
BLOCK_RECORD
  5
293
330
9
100
AcDbSymbolTableRecord
100
AcDbBlockTableRecord
  2
*D3
340
0
 70
0
280
1
281
0
  0
BLOCK_RECORD
  5
2A2
330
9
100
AcDbSymbolTableRecord
100
AcDbBlockTableRecord
  2
*D4
340
0
 70
0
280
1
281
0
  0
BLOCK_RECORD
  5
2B2
330
9
100
AcDbSymbolTableRecord
100
AcDbBlockTableRecord
  2
*Paper_Space1
340
2B5
 70
0
280
1
281
0
  0
ENDTAB
  0
ENDSEC
  0
SECTION
  2
BLOCKS
  0
BLOCK
  5
18
330
17
100
AcDbEntity
  8
0
100
AcDbBlockBegin
  2
*Model_Space
 70
0
 10
0.0
 20
0.0
 30
0.0
  3
*Model_Space
  1

  0
ENDBLK
  5
19
330
17
100
AcDbEntity
  8
0
100
AcDbBlockEnd
  0
BLOCK
  5
1C
330
1B
100
AcDbEntity
  8
0
100
AcDbBlockBegin
  2
*Paper_Space
 70
0
 10
0.0
 20
0.0
 30
0.0
  3
*Paper_Space
  1

  0
ENDBLK
  5
1D
330
1B
100
AcDbEntity
  8
0
100
AcDbBlockEnd
  0
BLOCK
  5
75
330
74
100
AcDbEntity
  8
0
100
AcDbBlockBegin
  2
_ARCHTICK
 70
0
 10
0.0
 20
0.0
 30
0.0
  3
_ARCHTICK
  1

  0
LWPOLYLINE
  5
77
330
74
100
AcDbEntity
  8
0
  6
BYBLOCK
 62
0
100
AcDbPolyline
 90
2
 70
0
 43
0.15
 10
-0.5
 20
-0.5
 10
0.5
 20
0.5
  0
ENDBLK
  5
76
330
74
100
AcDbEntity
  8
0
100
AcDbBlockEnd
  0
BLOCK
  5
79
330
78
100
AcDbEntity
  8
0
100
AcDbBlockBegin
  2
_CLOSEDFILLED
 70
0
 10
0.0
 20
0.0
 30
0.0
  3
_CLOSEDFILLED
  1

  0
SOLID
  5
7B
330
78
100
AcDbEntity
  8
0
  6
BYBLOCK
 62
0
100
AcDbTrace
 10
-1.0
 20
0.16439898372402537
 30
0.0
 11
0.0
 21
0.0
 31
0.0
 12
-1.0
 22
-0.16439898372402537
 32
0.0
 13
-1.0
 23
-0.16439898372402537
 33
0.0
  0
ENDBLK
  5
7A
330
78
100
AcDbEntity
  8
0
100
AcDbBlockEnd
  0
BLOCK
  5
85
330
84
100
AcDbEntity
  8
0
100
AcDbBlockBegin
  2
_CLOSEDBLANK
 70
0
 10
0.0
 20
0.0
 30
0.0
  3
_CLOSEDBLANK
  1

  0
LWPOLYLINE
  5
87
330
84
100
AcDbEntity
  8
0
  6
BYBLOCK
 62
0
100
AcDbPolyline
 90
3
 70
1
 10
-1.0
 20
0.16439898372402537
 10
0.0
 20
0.0
 10
-1.0
 20
-0.16439898372402537
  0
ENDBLK
  5
86
330
84
100
AcDbEntity
  8
0
100
AcDbBlockEnd
  0
BLOCK
  5
17F
330
17E
100
AcDbEntity
  8
0
100
AcDbBlockBegin
  2
*D1
 70
1
 10
0.0
 20
0.0
 30
0.0
  3
*D1
  1

  0
LINE
  5
181
330
17E
100
AcDbEntity
  8
0
100
AcDbLine
 10
0.0
 20
-80.0
 30
0.0
 11
0.0
 21
-2180.0
 31
0.0
  0
LINE
  5
182
330
17E
100
AcDbEntity
  8
0
100
AcDbLine
 10
9992.0
 20
-80.0
 30
0.0
 11
9992.0
 21
-2180.0
 31
0.0
  0
INSERT
  5
183
330
17E
100
AcDbEntity
  8
A-DIMS
100
AcDbBlockReference
  2
_ARCHTICK
 10
0.0
 20
-2100.0
 30
0.0
 41
120.0
 42
120.0
 50
180.0
  0
INSERT
  5
185
330
17E
100
AcDbEntity
  8
A-DIMS
100
AcDbBlockReference
  2
_ARCHTICK
 10
9992.0
 20
-2100.0
 30
0.0
 41
120.0
 42
120.0
  0
LINE
  5
187
330
17E
100
AcDbEntity
  8
0
100
AcDbLine
 10
0.0
 20
-2100.0
 30
0.0
 11
9992.0
 21
-2100.0
 31
0.0
  0
MTEXT
  5
188
330
17E
100
AcDbEntity
  8
A-DIMS
100
AcDbMText
 10
4996.0
 20
-1999.9
 30
0.0
 40
200.0
 71
5
  1
999200
  7
OpenSansCondensed-Light
  0
POINT
  5
189
330
17E
100
AcDbEntity
  8
Defpoints
100
AcDbPoint
 10
0.0
 20
-2100.0
 30
0.0
  0
POINT
  5
18A
330
17E
100
AcDbEntity
  8
Defpoints
100
AcDbPoint
 10
0.0
 20
0.0
 30
0.0
  0
POINT
  5
18B
330
17E
100
AcDbEntity
  8
Defpoints
100
AcDbPoint
 10
9992.0
 20
0.0
 30
0.0
  0
ENDBLK
  5
180
330
17E
100
AcDbEntity
  8
0
100
AcDbBlockEnd
  0
BLOCK
  5
18E
330
18D
100
AcDbEntity
  8
0
100
AcDbBlockBegin
  2
*D2
 70
1
 10
0.0
 20
0.0
 30
0.0
  3
*D2
  1

  0
LINE
  5
190
330
18D
100
AcDbEntity
  8
0
100
AcDbLine
 10
10072.0
 20
0.0
 30
0.0
 11
12172.0
 21
0.0
 31
0.0
  0
LINE
  5
191
330
18D
100
AcDbEntity
  8
0
100
AcDbLine
 10
10072.0
 20
13788.0
 30
0.0
 11
12172.0
 21
13788.0
 31
0.0
  0
INSERT
  5
192
330
18D
100
AcDbEntity
  8
A-DIMS
100
AcDbBlockReference
  2
_ARCHTICK
 10
12092.0
 20
0.0
 30
0.0
 41
120.0
 42
120.0
 50
270.0
  0
INSERT
  5
194
330
18D
100
AcDbEntity
  8
A-DIMS
100
AcDbBlockReference
  2
_ARCHTICK
 10
12092.0
 20
13788.0
 30
0.0
 41
120.0
 42
120.0
 50
90.0
  0
LINE
  5
196
330
18D
100
AcDbEntity
  8
0
100
AcDbLine
 10
12092.0
 20
0.0
 30
0.0
 11
12092.0
 21
13788.0
 31
0.0
  0
MTEXT
  5
197
330
18D
100
AcDbEntity
  8
A-DIMS
100
AcDbMText
 10
11991.9
 20
6894.0
 30
0.0
 40
200.0
 71
5
  1
1378800
  7
OpenSansCondensed-Light
 50
90.0
  0
POINT
  5
198
330
18D
100
AcDbEntity
  8
Defpoints
100
AcDbPoint
 10
12092.0
 20
0.0
 30
0.0
  0
POINT
  5
199
330
18D
100
AcDbEntity
  8
Defpoints
100
AcDbPoint
 10
9992.0
 20
0.0
 30
0.0
  0
POINT
  5
19A
330
18D
100
AcDbEntity
  8
Defpoints
100
AcDbPoint
 10
9992.0
 20
13788.0
 30
0.0
  0
ENDBLK
  5
18F
330
18D
100
AcDbEntity
  8
0
100
AcDbBlockEnd
  0
BLOCK
  5
19E
330
19D
100
AcDbEntity
  8
0
100
AcDbBlockBegin
  2
*Paper_Space0
 70
0
 10
0.0
 20
0.0
 30
0.0
  3
*Paper_Space0
  1

  0
VIEWPORT
  5
1A1
330
19D
100
AcDbEntity
 67
1
  8
VIEWPORTS
100
AcDbViewport
 10
200.0
 20
138.5
 30
0.0
 40
462.00000000000006
 41
326.70000000000005
 68
1
 69
1
 12
200.0
 22
138.5
 13
0.0
 23
0.0
 14
10.0
 24
10.0
 15
10.0
 25
10.0
 16
0.0
 26
0.0
 36
1.0
 17
0.0
 27
0.0
 37
0.0
 42
50.0
 43
0.0
 44
0.0
 45
326.70000000000005
 50
0.0
 51
0.0
 72
100
 90
557088
  1

281
0
 71
0
 74
0
110
0.0
120
0.0
130
0.0
111
1.0
121
0.0
131
0.0
112
0.0
122
1.0
132
0.0
 79
0
146
0.0
282
0
  0
VIEWPORT
  5
1A2
330
19D
100
AcDbEntity
 67
1
  8
VIEWPORTS
100
AcDbViewport
 10
140.0
 20
145.0
 30
0.0
 40
240.0
 41
230.0
 68
2
 69
3
 12
4996.0
 22
6894.0
 13
0.0
 23
0.0
 14
10.0
 24
10.0
 15
10.0
 25
10.0
 16
0.0
 26
0.0
 36
1.0
 17
0.0
 27
0.0
 37
0.0
 42
50.0
 43
0.0
 44
0.0
 45
18288.0
 50
0.0
 51
0.0
 72
100
 90
0
  1

281
0
 71
0
 74
0
110
0.0
120
0.0
130
0.0
111
1.0
121
0.0
131
0.0
112
0.0
122
1.0
132
0.0
 79
0
146
0.0
282
0
  0
TEXT
  5
1A3
330
19D
100
AcDbEntity
 67
1
  8
0
100
AcDbText
 10
268.0
 20
255.0
 30
0.0
 40
4.0
  1
FLOORFORGE / PRELIMINARY
 11
268.0
 21
255.0
 31
0.0
100
AcDbText
  0
ENDBLK
  5
19F
330
19D
100
AcDbEntity
  8
0
100
AcDbBlockEnd
  0
BLOCK
  5
294
330
293
100
AcDbEntity
  8
0
100
AcDbBlockBegin
  2
*D3
 70
1
 10
0.0
 20
0.0
 30
0.0
  3
*D3
  1

  0
LINE
  5
296
330
293
100
AcDbEntity
  8
0
100
AcDbLine
 10
15992.0
 20
-80.0
 30
0.0
 11
15992.0
 21
-2180.0
 31
0.0
  0
LINE
  5
297
330
293
100
AcDbEntity
  8
0
100
AcDbLine
 10
25984.0
 20
-80.0
 30
0.0
 11
25984.0
 21
-2180.0
 31
0.0
  0
INSERT
  5
298
330
293
100
AcDbEntity
  8
A-DIMS
100
AcDbBlockReference
  2
_ARCHTICK
 10
15992.0
 20
-2100.0
 30
0.0
 41
120.0
 42
120.0
 50
180.0
  0
INSERT
  5
29A
330
293
100
AcDbEntity
  8
A-DIMS
100
AcDbBlockReference
  2
_ARCHTICK
 10
25984.0
 20
-2100.0
 30
0.0
 41
120.0
 42
120.0
  0
LINE
  5
29C
330
293
100
AcDbEntity
  8
0
100
AcDbLine
 10
15992.0
 20
-2100.0
 30
0.0
 11
25984.0
 21
-2100.0
 31
0.0
  0
MTEXT
  5
29D
330
293
100
AcDbEntity
  8
A-DIMS
100
AcDbMText
 10
20988.0
 20
-1999.9
 30
0.0
 40
200.0
 71
5
  1
999200
  7
OpenSansCondensed-Light
  0
POINT
  5
29E
330
293
100
AcDbEntity
  8
Defpoints
100
AcDbPoint
 10
15992.0
 20
-2100.0
 30
0.0
  0
POINT
  5
29F
330
293
100
AcDbEntity
  8
Defpoints
100
AcDbPoint
 10
15992.0
 20
0.0
 30
0.0
  0
POINT
  5
2A0
330
293
100
AcDbEntity
  8
Defpoints
100
AcDbPoint
 10
25984.0
 20
0.0
 30
0.0
  0
ENDBLK
  5
295
330
293
100
AcDbEntity
  8
0
100
AcDbBlockEnd
  0
BLOCK
  5
2A3
330
2A2
100
AcDbEntity
  8
0
100
AcDbBlockBegin
  2
*D4
 70
1
 10
0.0
 20
0.0
 30
0.0
  3
*D4
  1

  0
LINE
  5
2A5
330
2A2
100
AcDbEntity
  8
0
100
AcDbLine
 10
26064.0
 20
0.0
 30
0.0
 11
28164.0
 21
0.0
 31
0.0
  0
LINE
  5
2A6
330
2A2
100
AcDbEntity
  8
0
100
AcDbLine
 10
26064.0
 20
13788.0
 30
0.0
 11
28164.0
 21
13788.0
 31
0.0
  0
INSERT
  5
2A7
330
2A2
100
AcDbEntity
  8
A-DIMS
100
AcDbBlockReference
  2
_ARCHTICK
 10
28084.0
 20
0.0
 30
0.0
 41
120.0
 42
120.0
 50
270.0
  0
INSERT
  5
2A9
330
2A2
100
AcDbEntity
  8
A-DIMS
100
AcDbBlockReference
  2
_ARCHTICK
 10
28084.0
 20
13788.0
 30
0.0
 41
120.0
 42
120.0
 50
90.0
  0
LINE
  5
2AB
330
2A2
100
AcDbEntity
  8
0
100
AcDbLine
 10
28084.0
 20
0.0
 30
0.0
 11
28084.0
 21
13788.0
 31
0.0
  0
MTEXT
  5
2AC
330
2A2
100
AcDbEntity
  8
A-DIMS
100
AcDbMText
 10
27983.9
 20
6894.0
 30
0.0
 40
200.0
 71
5
  1
1378800
  7
OpenSansCondensed-Light
 50
90.0
  0
POINT
  5
2AD
330
2A2
100
AcDbEntity
  8
Defpoints
100
AcDbPoint
 10
28084.0
 20
0.0
 30
0.0
  0
POINT
  5
2AE
330
2A2
100
AcDbEntity
  8
Defpoints
100
AcDbPoint
 10
25984.0
 20
0.0
 30
0.0
  0
POINT
  5
2AF
330
2A2
100
AcDbEntity
  8
Defpoints
100
AcDbPoint
 10
25984.0
 20
13788.0
 30
0.0
  0
ENDBLK
  5
2A4
330
2A2
100
AcDbEntity
  8
0
100
AcDbBlockEnd
  0
BLOCK
  5
2B3
330
2B2
100
AcDbEntity
  8
0
100
AcDbBlockBegin
  2
*Paper_Space1
 70
0
 10
0.0
 20
0.0
 30
0.0
  3
*Paper_Space1
  1

  0
VIEWPORT
  5
2B6
330
2B2
100
AcDbEntity
 67
1
  8
VIEWPORTS
100
AcDbViewport
 10
200.0
 20
138.5
 30
0.0
 40
462.00000000000006
 41
326.70000000000005
 68
1
 69
1
 12
200.0
 22
138.5
 13
0.0
 23
0.0
 14
10.0
 24
10.0
 15
10.0
 25
10.0
 16
0.0
 26
0.0
 36
1.0
 17
0.0
 27
0.0
 37
0.0
 42
50.0
 43
0.0
 44
0.0
 45
326.70000000000005
 50
0.0
 51
0.0
 72
100
 90
557088
  1

281
0
 71
0
 74
0
110
0.0
120
0.0
130
0.0
111
1.0
121
0.0
131
0.0
112
0.0
122
1.0
132
0.0
 79
0
146
0.0
282
0
  0
VIEWPORT
  5
2B7
330
2B2
100
AcDbEntity
 67
1
  8
VIEWPORTS
100
AcDbViewport
 10
140.0
 20
145.0
 30
0.0
 40
240.0
 41
230.0
 68
2
 69
3
 12
20988.0
 22
6894.0
 13
0.0
 23
0.0
 14
10.0
 24
10.0
 15
10.0
 25
10.0
 16
0.0
 26
0.0
 36
1.0
 17
0.0
 27
0.0
 37
0.0
 42
50.0
 43
0.0
 44
0.0
 45
18288.0
 50
0.0
 51
0.0
 72
100
 90
0
  1

281
0
 71
0
 74
0
110
0.0
120
0.0
130
0.0
111
1.0
121
0.0
131
0.0
112
0.0
122
1.0
132
0.0
 79
0
146
0.0
282
0
  0
TEXT
  5
2B8
330
2B2
100
AcDbEntity
 67
1
  8
0
100
AcDbText
 10
268.0
 20
255.0
 30
0.0
 40
4.0
  1
FLOORFORGE / PRELIMINARY
 11
268.0
 21
255.0
 31
0.0
100
AcDbText
  0
ENDBLK
  5
2B4
330
2B2
100
AcDbEntity
  8
0
100
AcDbBlockEnd
  0
ENDSEC
  0
SECTION
  2
ENTITIES
  0
LWPOLYLINE
  5
95
330
17
100
AcDbEntity
  8
A-FLOOR
100
AcDbPolyline
 90
7
 70
1
 10
2500.0
 20
4400.0
 10
2500.0
 20
230.0
 10
2270.0
 20
230.0
 10
230.0
 20
230.0
 10
230.0
 20
4170.0
 10
230.0
 20
4270.0
 10
230.0
 20
4400.0
1001
FLOORFORGE
1000
floor:0
1000
preliminary
  0
LWPOLYLINE
  5
96
330
17
100
AcDbEntity
  8
A-FLOOR
100
AcDbPolyline
 90
6
 70
1
 10
2500.0
 20
2610.0
 10
9762.0
 20
2610.0
 10
9762.0
 20
2380.0
 10
9762.0
 20
230.0
 10
2730.0
 20
230.0
 10
2500.0
 20
230.0
1001
FLOORFORGE
1000
floor:0
1000
preliminary
  0
LWPOLYLINE
  5
97
330
17
100
AcDbEntity
  8
A-FLOOR
100
AcDbPolyline
 90
15
 70
1
 10
2500.0
 20
2610.0
 10
2500.0
 20
4400.0
 10
230.0
 20
4400.0
 10
230.0
 20
4425.0
 10
4171.0
 20
4425.0
 10
4321.0
 20
4425.0
 10
4321.0
 20
4500.0
 10
5671.0
 20
4500.0
 10
5671.0
 20
4425.0
 10
5746.0
 20
4425.0
 10
5821.0
 20
4425.0
 10
9762.0
 20
4425.0
 10
9762.0
 20
4270.0
 10
9762.0
 20
2840.0
 10
9762.0
 20
2610.0
1001
FLOORFORGE
1000
floor:0
1000
preliminary
  0
LWPOLYLINE
  5
98
330
17
100
AcDbEntity
  8
A-FLOOR
100
AcDbPolyline
 90
15
 70
1
 10
4321.0
 20
4500.0
 10
4321.0
 20
4575.0
 10
4321.0
 20
7225.0
 10
4321.0
 20
7300.0
 10
4321.0
 20
7375.0
 10
4321.0
 20
8425.0
 10
5671.0
 20
8425.0
 10
5671.0
 20
7375.0
 10
5671.0
 20
7300.0
 10
5671.0
 20
7225.0
 10
5671.0
 20
6087.0
 10
5671.0
 20
6012.0
 10
5671.0
 20
5937.0
 10
5671.0
 20
4575.0
 10
5671.0
 20
4500.0
1001
FLOORFORGE
1000
floor:0
1000
preliminary
  0
LWPOLYLINE
  5
99
330
17
100
AcDbEntity
  8
A-FLOOR
100
AcDbPolyline
 90
7
 70
1
 10
230.0
 20
7070.0
 10
230.0
 20
7225.0
 10
4171.0
 20
7225.0
 10
4171.0
 20
4575.0
 10
230.0
 20
4575.0
 10
230.0
 20
4630.0
 10
230.0
 20
4730.0
1001
FLOORFORGE
1000
floor:0
1000
preliminary
  0
LWPOLYLINE
  5
9A
330
17
100
AcDbEntity
  8
A-FLOOR
100
AcDbPolyline
 90
6
 70
1
 10
5821.0
 20
5937.0
 10
9762.0
 20
5937.0
 10
9762.0
 20
5782.0
 10
9762.0
 20
4730.0
 10
9762.0
 20
4575.0
 10
5821.0
 20
4575.0
1001
FLOORFORGE
1000
floor:0
1000
preliminary
  0
LWPOLYLINE
  5
9B
330
17
100
AcDbEntity
  8
A-FLOOR
100
AcDbPolyline
 90
6
 70
1
 10
9762.0
 20
6087.0
 10
5821.0
 20
6087.0
 10
5821.0
 20
7225.0
 10
9762.0
 20
7225.0
 10
9762.0
 20
7070.0
 10
9762.0
 20
6242.0
1001
FLOORFORGE
1000
floor:0
1000
preliminary
  0
LWPOLYLINE
  5
9C
330
17
100
AcDbEntity
  8
A-FLOOR
100
AcDbPolyline
 90
14
 70
1
 10
5671.0
 20
13558.0
 10
5671.0
 20
8575.0
 10
4321.0
 20
8575.0
 10
4171.0
 20
8575.0
 10
4171.0
 20
8500.0
 10
4171.0
 20
8425.0
 10
4171.0
 20
7375.0
 10
230.0
 20
7375.0
 10
230.0
 20
7530.0
 10
230.0
 20
13558.0
 10
4016.0
 20
13558.0
 10
4246.0
 20
13558.0
 10
4476.0
 20
13558.0
 10
5516.0
 20
13558.0
1001
FLOORFORGE
1000
floor:0
1000
preliminary
  0
LWPOLYLINE
  5
9D
330
17
100
AcDbEntity
  8
A-FLOOR
100
AcDbPolyline
 90
9
 70
1
 10
5976.0
 20
13558.0
 10
9762.0
 20
13558.0
 10
9762.0
 20
7530.0
 10
9762.0
 20
7375.0
 10
5821.0
 20
7375.0
 10
5821.0
 20
8425.0
 10
5821.0
 20
8500.0
 10
5821.0
 20
8575.0
 10
5821.0
 20
13558.0
1001
FLOORFORGE
1000
floor:0
1000
preliminary
  0
LWPOLYLINE
  5
9E
330
17
100
AcDbEntity
  8
A-WALL
100
AcDbPolyline
 90
5
 70
1
 10
230.0
 20
4630.0
 10
230.0
 20
0.0
 10
0.0
 20
0.0
 10
0.0
 20
4630.0
 10
230.0
 20
4630.0
1001
FLOORFORGE
1000
floor:0
1000
preliminary
  0
HATCH
  5
9F
330
17
100
AcDbEntity
  8
A-WALL
 62
7
100
AcDbHatch
 10
0.0
 20
0.0
 30
0.0
210
0.0
220
0.0
230
1.0
  2
SOLID
 70
1
 71
0
 91
1
 92
3
 72
0
 73
1
 93
5
 10
230.0
 20
4630.0
 10
230.0
 20
0.0
 10
0.0
 20
0.0
 10
0.0
 20
4630.0
 10
230.0
 20
4630.0
 97
0
 75
0
 76
1
 98
0
  0
LWPOLYLINE
  5
A0
330
17
100
AcDbEntity
  8
A-WALL
100
AcDbPolyline
 90
6
 70
1
 10
2730.0
 20
230.0
 10
2730.0
 20
0.0
 10
0.0
 20
0.0
 10
0.0
 20
230.0
 10
2500.0
 20
230.0
 10
2730.0
 20
230.0
1001
FLOORFORGE
1000
floor:0
1000
preliminary
  0
HATCH
  5
A1
330
17
100
AcDbEntity
  8
A-WALL
 62
7
100
AcDbHatch
 10
0.0
 20
0.0
 30
0.0
210
0.0
220
0.0
230
1.0
  2
SOLID
 70
1
 71
0
 91
1
 92
3
 72
0
 73
1
 93
6
 10
2730.0
 20
230.0
 10
2730.0
 20
0.0
 10
0.0
 20
0.0
 10
0.0
 20
230.0
 10
2500.0
 20
230.0
 10
2730.0
 20
230.0
 97
0
 75
0
 76
1
 98
0
  0
LWPOLYLINE
  5
A2
330
17
100
AcDbEntity
  8
A-WALL
100
AcDbPolyline
 90
6
 70
1
 10
230.0
 20
4730.0
 10
230.0
 20
4400.0
 10
230.0
 20
4170.0
 10
0.0
 20
4170.0
 10
0.0
 20
4730.0
 10
230.0
 20
4730.0
1001
FLOORFORGE
1000
floor:0
1000
preliminary
  0
HATCH
  5
A3
330
17
100
AcDbEntity
  8
A-WALL
 62
7
100
AcDbHatch
 10
0.0
 20
0.0
 30
0.0
210
0.0
220
0.0
230
1.0
  2
SOLID
 70
1
 71
0
 91
1
 92
3
 72
0
 73
1
 93
6
 10
230.0
 20
4730.0
 10
230.0
 20
4400.0
 10
230.0
 20
4170.0
 10
0.0
 20
4170.0
 10
0.0
 20
4730.0
 10
230.0
 20
4730.0
 97
0
 75
0
 76
1
 98
0
  0
LWPOLYLINE
  5
A4
330
17
100
AcDbEntity
  8
A-WALL
100
AcDbPolyline
 90
5
 70
1
 10
230.0
 20
6670.0
 10
0.0
 20
6670.0
 10
0.0
 20
7530.0
 10
230.0
 20
7530.0
 10
230.0
 20
6670.0
1001
FLOORFORGE
1000
floor:0
1000
preliminary
  0
HATCH
  5
A5
330
17
100
AcDbEntity
  8
A-WALL
 62
7
100
AcDbHatch
 10
0.0
 20
0.0
 30
0.0
210
0.0
220
0.0
230
1.0
  2
SOLID
 70
1
 71
0
 91
1
 92
3
 72
0
 73
1
 93
5
 10
230.0
 20
6670.0
 10
0.0
 20
6670.0
 10
0.0
 20
7530.0
 10
230.0
 20
7530.0
 10
230.0
 20
6670.0
 97
0
 75
0
 76
1
 98
0
  0
LWPOLYLINE
  5
A6
330
17
100
AcDbEntity
  8
A-WALL
100
AcDbPolyline
 90
6
 70
1
 10
230.0
 20
4500.0
 10
230.0
 20
4270.0
 10
0.0
 20
4270.0
 10
0.0
 20
5130.0
 10
230.0
 20
5130.0
 10
230.0
 20
4500.0
1001
FLOORFORGE
1000
floor:0
1000
preliminary
  0
HATCH
  5
A7
330
17
100
AcDbEntity
  8
A-WALL
 62
7
100
AcDbHatch
 10
0.0
 20
0.0
 30
0.0
210
0.0
220
0.0
230
1.0
  2
SOLID
 70
1
 71
0
 91
1
 92
3
 72
0
 73
1
 93
6
 10
230.0
 20
4500.0
 10
230.0
 20
4270.0
 10
0.0
 20
4270.0
 10
0.0
 20
5130.0
 10
230.0
 20
5130.0
 10
230.0
 20
4500.0
 97
0
 75
0
 76
1
 98
0
  0
LWPOLYLINE
  5
A8
330
17
100
AcDbEntity
  8
A-WALL
100
AcDbPolyline
 90
6
 70
1
 10
4321.0
 20
4425.0
 10
2873.0
 20
4425.0
 10
2873.0
 20
4575.0
 10
4246.0
 20
4575.0
 10
4321.0
 20
4575.0
 10
4321.0
 20
4425.0
1001
FLOORFORGE
1000
floor:0
1000
preliminary
  0
HATCH
  5
A9
330
17
100
AcDbEntity
  8
A-WALL
 62
7
100
AcDbHatch
 10
0.0
 20
0.0
 30
0.0
210
0.0
220
0.0
230
1.0
  2
SOLID
 70
1
 71
0
 91
1
 92
3
 72
0
 73
1
 93
6
 10
4321.0
 20
4425.0
 10
2873.0
 20
4425.0
 10
2873.0
 20
4575.0
 10
4246.0
 20
4575.0
 10
4321.0
 20
4575.0
 10
4321.0
 20
4425.0
 97
0
 75
0
 76
1
 98
0
  0
LWPOLYLINE
  5
AA
330
17
100
AcDbEntity
  8
A-WALL
100
AcDbPolyline
 90
5
 70
1
 10
0.0
 20
4425.0
 10
0.0
 20
4575.0
 10
1373.0
 20
4575.0
 10
1373.0
 20
4425.0
 10
0.0
 20
4425.0
1001
FLOORFORGE
1000
floor:0
1000
preliminary
  0
HATCH
  5
AB
330
17
100
AcDbEntity
  8
A-WALL
 62
7
100
AcDbHatch
 10
0.0
 20
0.0
 30
0.0
210
0.0
220
0.0
230
1.0
  2
SOLID
 70
1
 71
0
 91
1
 92
3
 72
0
 73
1
 93
5
 10
0.0
 20
4425.0
 10
0.0
 20
4575.0
 10
1373.0
 20
4575.0
 10
1373.0
 20
4425.0
 10
0.0
 20
4425.0
 97
0
 75
0
 76
1
 98
0
  0
LWPOLYLINE
  5
AC
330
17
100
AcDbEntity
  8
A-WALL
100
AcDbPolyline
 90
6
 70
1
 10
230.0
 20
7070.0
 10
0.0
 20
7070.0
 10
0.0
 20
9144.0
 10
230.0
 20
9144.0
 10
230.0
 20
7300.0
 10
230.0
 20
7070.0
1001
FLOORFORGE
1000
floor:0
1000
preliminary
  0
HATCH
  5
AD
330
17
100
AcDbEntity
  8
A-WALL
 62
7
100
AcDbHatch
 10
0.0
 20
0.0
 30
0.0
210
0.0
220
0.0
230
1.0
  2
SOLID
 70
1
 71
0
 91
1
 92
3
 72
0
 73
1
 93
6
 10
230.0
 20
7070.0
 10
0.0
 20
7070.0
 10
0.0
 20
9144.0
 10
230.0
 20
9144.0
 10
230.0
 20
7300.0
 10
230.0
 20
7070.0
 97
0
 75
0
 76
1
 98
0
  0
LWPOLYLINE
  5
AE
330
17
100
AcDbEntity
  8
A-WALL
100
AcDbPolyline
 90
5
 70
1
 10
0.0
 20
13788.0
 10
230.0
 20
13788.0
 10
230.0
 20
11944.0
 10
0.0
 20
11944.0
 10
0.0
 20
13788.0
1001
FLOORFORGE
1000
floor:0
1000
preliminary
  0
HATCH
  5
AF
330
17
100
AcDbEntity
  8
A-WALL
 62
7
100
AcDbHatch
 10
0.0
 20
0.0
 30
0.0
210
0.0
220
0.0
230
1.0
  2
SOLID
 70
1
 71
0
 91
1
 92
3
 72
0
 73
1
 93
5
 10
0.0
 20
13788.0
 10
230.0
 20
13788.0
 10
230.0
 20
11944.0
 10
0.0
 20
11944.0
 10
0.0
 20
13788.0
 97
0
 75
0
 76
1
 98
0
  0
LWPOLYLINE
  5
B0
330
17
100
AcDbEntity
  8
A-WALL
100
AcDbPolyline
 90
6
 70
1
 10
4321.0
 20
7375.0
 10
4321.0
 20
7225.0
 10
0.0
 20
7225.0
 10
0.0
 20
7375.0
 10
4246.0
 20
7375.0
 10
4321.0
 20
7375.0
1001
FLOORFORGE
1000
floor:0
1000
preliminary
  0
HATCH
  5
B1
330
17
100
AcDbEntity
  8
A-WALL
 62
7
100
AcDbHatch
 10
0.0
 20
0.0
 30
0.0
210
0.0
220
0.0
230
1.0
  2
SOLID
 70
1
 71
0
 91
1
 92
3
 72
0
 73
1
 93
6
 10
4321.0
 20
7375.0
 10
4321.0
 20
7225.0
 10
0.0
 20
7225.0
 10
0.0
 20
7375.0
 10
4246.0
 20
7375.0
 10
4321.0
 20
7375.0
 97
0
 75
0
 76
1
 98
0
  0
LWPOLYLINE
  5
B2
330
17
100
AcDbEntity
  8
A-WALL
100
AcDbPolyline
 90
5
 70
1
 10
3440.0
 20
13558.0
 10
3440.0
 20
13788.0
 10
4476.0
 20
13788.0
 10
4476.0
 20
13558.0
 10
3440.0
 20
13558.0
1001
FLOORFORGE
1000
floor:0
1000
preliminary
  0
HATCH
  5
B3
330
17
100
AcDbEntity
  8
A-WALL
 62
7
100
AcDbHatch
 10
0.0
 20
0.0
 30
0.0
210
0.0
220
0.0
230
1.0
  2
SOLID
 70
1
 71
0
 91
1
 92
3
 72
0
 73
1
 93
5
 10
3440.0
 20
13558.0
 10
3440.0
 20
13788.0
 10
4476.0
 20
13788.0
 10
4476.0
 20
13558.0
 10
3440.0
 20
13558.0
 97
0
 75
0
 76
1
 98
0
  0
LWPOLYLINE
  5
B4
330
17
100
AcDbEntity
  8
A-WALL
100
AcDbPolyline
 90
5
 70
1
 10
0.0
 20
13558.0
 10
0.0
 20
13788.0
 10
807.0
 20
13788.0
 10
807.0
 20
13558.0
 10
0.0
 20
13558.0
1001
FLOORFORGE
1000
floor:0
1000
preliminary
  0
HATCH
  5
B5
330
17
100
AcDbEntity
  8
A-WALL
 62
7
100
AcDbHatch
 10
0.0
 20
0.0
 30
0.0
210
0.0
220
0.0
230
1.0
  2
SOLID
 70
1
 71
0
 91
1
 92
3
 72
0
 73
1
 93
5
 10
0.0
 20
13558.0
 10
0.0
 20
13788.0
 10
807.0
 20
13788.0
 10
807.0
 20
13558.0
 10
0.0
 20
13558.0
 97
0
 75
0
 76
1
 98
0
  0
LWPOLYLINE
  5
B6
330
17
100
AcDbEntity
  8
A-WALL
100
AcDbPolyline
 90
5
 70
1
 10
5646.0
 20
230.0
 10
5646.0
 20
0.0
 10
2270.0
 20
0.0
 10
2270.0
 20
230.0
 10
5646.0
 20
230.0
1001
FLOORFORGE
1000
floor:0
1000
preliminary
  0
HATCH
  5
B7
330
17
100
AcDbEntity
  8
A-WALL
 62
7
100
AcDbHatch
 10
0.0
 20
0.0
 30
0.0
210
0.0
220
0.0
230
1.0
  2
SOLID
 70
1
 71
0
 91
1
 92
3
 72
0
 73
1
 93
5
 10
5646.0
 20
230.0
 10
5646.0
 20
0.0
 10
2270.0
 20
0.0
 10
2270.0
 20
230.0
 10
5646.0
 20
230.0
 97
0
 75
0
 76
1
 98
0
  0
LWPOLYLINE
  5
B8
330
17
100
AcDbEntity
  8
A-WALL
100
AcDbPolyline
 90
5
 70
1
 10
9992.0
 20
230.0
 10
9992.0
 20
0.0
 10
6846.0
 20
0.0
 10
6846.0
 20
230.0
 10
9992.0
 20
230.0
1001
FLOORFORGE
1000
floor:0
1000
preliminary
  0
HATCH
  5
B9
330
17
100
AcDbEntity
  8
A-WALL
 62
7
100
AcDbHatch
 10
0.0
 20
0.0
 30
0.0
210
0.0
220
0.0
230
1.0
  2
SOLID
 70
1
 71
0
 91
1
 92
3
 72
0
 73
1
 93
5
 10
9992.0
 20
230.0
 10
9992.0
 20
0.0
 10
6846.0
 20
0.0
 10
6846.0
 20
230.0
 10
9992.0
 20
230.0
 97
0
 75
0
 76
1
 98
0
  0
LWPOLYLINE
  5
BA
330
17
100
AcDbEntity
  8
A-WALL
100
AcDbPolyline
 90
7
 70
1
 10
4171.0
 20
7375.0
 10
4321.0
 20
7375.0
 10
4321.0
 20
4500.0
 10
4321.0
 20
4425.0
 10
4171.0
 20
4425.0
 10
4171.0
 20
7300.0
 10
4171.0
 20
7375.0
1001
FLOORFORGE
1000
floor:0
1000
preliminary
  0
HATCH
  5
BB
330
17
100
AcDbEntity
  8
A-WALL
 62
7
100
AcDbHatch
 10
0.0
 20
0.0
 30
0.0
210
0.0
220
0.0
230
1.0
  2
SOLID
 70
1
 71
0
 91
1
 92
3
 72
0
 73
1
 93
7
 10
4171.0
 20
7375.0
 10
4321.0
 20
7375.0
 10
4321.0
 20
4500.0
 10
4321.0
 20
4425.0
 10
4171.0
 20
4425.0
 10
4171.0
 20
7300.0
 10
4171.0
 20
7375.0
 97
0
 75
0
 76
1
 98
0
  0
LWPOLYLINE
  5
BC
330
17
100
AcDbEntity
  8
A-WALL
100
AcDbPolyline
 90
7
 70
1
 10
4171.0
 20
8575.0
 10
4321.0
 20
8575.0
 10
4321.0
 20
7300.0
 10
4321.0
 20
7225.0
 10
4171.0
 20
7225.0
 10
4171.0
 20
8500.0
 10
4171.0
 20
8575.0
1001
FLOORFORGE
1000
floor:0
1000
preliminary
  0
HATCH
  5
BD
330
17
100
AcDbEntity
  8
A-WALL
 62
7
100
AcDbHatch
 10
0.0
 20
0.0
 30
0.0
210
0.0
220
0.0
230
1.0
  2
SOLID
 70
1
 71
0
 91
1
 92
3
 72
0
 73
1
 93
7
 10
4171.0
 20
8575.0
 10
4321.0
 20
8575.0
 10
4321.0
 20
7300.0
 10
4321.0
 20
7225.0
 10
4171.0
 20
7225.0
 10
4171.0
 20
8500.0
 10
4171.0
 20
8575.0
 97
0
 75
0
 76
1
 98
0
  0
LWPOLYLINE
  5
BE
330
17
100
AcDbEntity
  8
A-WALL
100
AcDbPolyline
 90
6
 70
1
 10
5821.0
 20
8425.0
 10
5471.0
 20
8425.0
 10
5471.0
 20
8575.0
 10
5746.0
 20
8575.0
 10
5821.0
 20
8575.0
 10
5821.0
 20
8425.0
1001
FLOORFORGE
1000
floor:0
1000
preliminary
  0
HATCH
  5
BF
330
17
100
AcDbEntity
  8
A-WALL
 62
7
100
AcDbHatch
 10
0.0
 20
0.0
 30
0.0
210
0.0
220
0.0
230
1.0
  2
SOLID
 70
1
 71
0
 91
1
 92
3
 72
0
 73
1
 93
6
 10
5821.0
 20
8425.0
 10
5471.0
 20
8425.0
 10
5471.0
 20
8575.0
 10
5746.0
 20
8575.0
 10
5821.0
 20
8575.0
 10
5821.0
 20
8425.0
 97
0
 75
0
 76
1
 98
0
  0
LWPOLYLINE
  5
C0
330
17
100
AcDbEntity
  8
A-WALL
100
AcDbPolyline
 90
6
 70
1
 10
4246.0
 20
8425.0
 10
4171.0
 20
8425.0
 10
4171.0
 20
8575.0
 10
4521.0
 20
8575.0
 10
4521.0
 20
8425.0
 10
4246.0
 20
8425.0
1001
FLOORFORGE
1000
floor:0
1000
preliminary
  0
HATCH
  5
C1
330
17
100
AcDbEntity
  8
A-WALL
 62
7
100
AcDbHatch
 10
0.0
 20
0.0
 30
0.0
210
0.0
220
0.0
230
1.0
  2
SOLID
 70
1
 71
0
 91
1
 92
3
 72
0
 73
1
 93
6
 10
4246.0
 20
8425.0
 10
4171.0
 20
8425.0
 10
4171.0
 20
8575.0
 10
4521.0
 20
8575.0
 10
4521.0
 20
8425.0
 10
4246.0
 20
8425.0
 97
0
 75
0
 76
1
 98
0
  0
LWPOLYLINE
  5
C2
330
17
100
AcDbEntity
  8
A-WALL
100
AcDbPolyline
 90
5
 70
1
 10
5446.0
 20
13558.0
 10
5446.0
 20
13788.0
 10
5976.0
 20
13788.0
 10
5976.0
 20
13558.0
 10
5446.0
 20
13558.0
1001
FLOORFORGE
1000
floor:0
1000
preliminary
  0
HATCH
  5
C3
330
17
100
AcDbEntity
  8
A-WALL
 62
7
100
AcDbHatch
 10
0.0
 20
0.0
 30
0.0
210
0.0
220
0.0
230
1.0
  2
SOLID
 70
1
 71
0
 91
1
 92
3
 72
0
 73
1
 93
5
 10
5446.0
 20
13558.0
 10
5446.0
 20
13788.0
 10
5976.0
 20
13788.0
 10
5976.0
 20
13558.0
 10
5446.0
 20
13558.0
 97
0
 75
0
 76
1
 98
0
  0
LWPOLYLINE
  5
C4
330
17
100
AcDbEntity
  8
A-WALL
100
AcDbPolyline
 90
6
 70
1
 10
4246.0
 20
13558.0
 10
4016.0
 20
13558.0
 10
4016.0
 20
13788.0
 10
4546.0
 20
13788.0
 10
4546.0
 20
13558.0
 10
4246.0
 20
13558.0
1001
FLOORFORGE
1000
floor:0
1000
preliminary
  0
HATCH
  5
C5
330
17
100
AcDbEntity
  8
A-WALL
 62
7
100
AcDbHatch
 10
0.0
 20
0.0
 30
0.0
210
0.0
220
0.0
230
1.0
  2
SOLID
 70
1
 71
0
 91
1
 92
3
 72
0
 73
1
 93
6
 10
4246.0
 20
13558.0
 10
4016.0
 20
13558.0
 10
4016.0
 20
13788.0
 10
4546.0
 20
13788.0
 10
4546.0
 20
13558.0
 10
4246.0
 20
13558.0
 97
0
 75
0
 76
1
 98
0
  0
LWPOLYLINE
  5
C6
330
17
100
AcDbEntity
  8
A-WALL
100
AcDbPolyline
 90
6
 70
1
 10
5821.0
 20
6087.0
 10
5821.0
 20
5681.0
 10
5671.0
 20
5681.0
 10
5671.0
 20
6012.0
 10
5671.0
 20
6087.0
 10
5821.0
 20
6087.0
1001
FLOORFORGE
1000
floor:0
1000
preliminary
  0
HATCH
  5
C7
330
17
100
AcDbEntity
  8
A-WALL
 62
7
100
AcDbHatch
 10
0.0
 20
0.0
 30
0.0
210
0.0
220
0.0
230
1.0
  2
SOLID
 70
1
 71
0
 91
1
 92
3
 72
0
 73
1
 93
6
 10
5821.0
 20
6087.0
 10
5821.0
 20
5681.0
 10
5671.0
 20
5681.0
 10
5671.0
 20
6012.0
 10
5671.0
 20
6087.0
 10
5821.0
 20
6087.0
 97
0
 75
0
 76
1
 98
0
  0
LWPOLYLINE
  5
C8
330
17
100
AcDbEntity
  8
A-WALL
100
AcDbPolyline
 90
6
 70
1
 10
5821.0
 20
4500.0
 10
5821.0
 20
4425.0
 10
5671.0
 20
4425.0
 10
5671.0
 20
4831.0
 10
5821.0
 20
4831.0
 10
5821.0
 20
4500.0
1001
FLOORFORGE
1000
floor:0
1000
preliminary
  0
HATCH
  5
C9
330
17
100
AcDbEntity
  8
A-WALL
 62
7
100
AcDbHatch
 10
0.0
 20
0.0
 30
0.0
210
0.0
220
0.0
230
1.0
  2
SOLID
 70
1
 71
0
 91
1
 92
3
 72
0
 73
1
 93
6
 10
5821.0
 20
4500.0
 10
5821.0
 20
4425.0
 10
5671.0
 20
4425.0
 10
5671.0
 20
4831.0
 10
5821.0
 20
4831.0
 10
5821.0
 20
4500.0
 97
0
 75
0
 76
1
 98
0
  0
LWPOLYLINE
  5
CA
330
17
100
AcDbEntity
  8
A-WALL
100
AcDbPolyline
 90
6
 70
1
 10
5746.0
 20
4425.0
 10
5671.0
 20
4425.0
 10
5671.0
 20
4575.0
 10
9992.0
 20
4575.0
 10
9992.0
 20
4425.0
 10
5746.0
 20
4425.0
1001
FLOORFORGE
1000
floor:0
1000
preliminary
  0
HATCH
  5
CB
330
17
100
AcDbEntity
  8
A-WALL
 62
7
100
AcDbHatch
 10
0.0
 20
0.0
 30
0.0
210
0.0
220
0.0
230
1.0
  2
SOLID
 70
1
 71
0
 91
1
 92
3
 72
0
 73
1
 93
6
 10
5746.0
 20
4425.0
 10
5671.0
 20
4425.0
 10
5671.0
 20
4575.0
 10
9992.0
 20
4575.0
 10
9992.0
 20
4425.0
 10
5746.0
 20
4425.0
 97
0
 75
0
 76
1
 98
0
  0
LWPOLYLINE
  5
CC
330
17
100
AcDbEntity
  8
A-WALL
100
AcDbPolyline
 90
6
 70
1
 10
5821.0
 20
7375.0
 10
5821.0
 20
7081.0
 10
5671.0
 20
7081.0
 10
5671.0
 20
7300.0
 10
5671.0
 20
7375.0
 10
5821.0
 20
7375.0
1001
FLOORFORGE
1000
floor:0
1000
preliminary
  0
HATCH
  5
CD
330
17
100
AcDbEntity
  8
A-WALL
 62
7
100
AcDbHatch
 10
0.0
 20
0.0
 30
0.0
210
0.0
220
0.0
230
1.0
  2
SOLID
 70
1
 71
0
 91
1
 92
3
 72
0
 73
1
 93
6
 10
5821.0
 20
7375.0
 10
5821.0
 20
7081.0
 10
5671.0
 20
7081.0
 10
5671.0
 20
7300.0
 10
5671.0
 20
7375.0
 10
5821.0
 20
7375.0
 97
0
 75
0
 76
1
 98
0
  0
LWPOLYLINE
  5
CE
330
17
100
AcDbEntity
  8
A-WALL
100
AcDbPolyline
 90
6
 70
1
 10
5821.0
 20
6012.0
 10
5821.0
 20
5937.0
 10
5671.0
 20
5937.0
 10
5671.0
 20
6231.0
 10
5821.0
 20
6231.0
 10
5821.0
 20
6012.0
1001
FLOORFORGE
1000
floor:0
1000
preliminary
  0
HATCH
  5
CF
330
17
100
AcDbEntity
  8
A-WALL
 62
7
100
AcDbHatch
 10
0.0
 20
0.0
 30
0.0
210
0.0
220
0.0
230
1.0
  2
SOLID
 70
1
 71
0
 91
1
 92
3
 72
0
 73
1
 93
6
 10
5821.0
 20
6012.0
 10
5821.0
 20
5937.0
 10
5671.0
 20
5937.0
 10
5671.0
 20
6231.0
 10
5821.0
 20
6231.0
 10
5821.0
 20
6012.0
 97
0
 75
0
 76
1
 98
0
  0
LWPOLYLINE
  5
D0
330
17
100
AcDbEntity
  8
A-WALL
100
AcDbPolyline
 90
6
 70
1
 10
5746.0
 20
5937.0
 10
5671.0
 20
5937.0
 10
5671.0
 20
6087.0
 10
9992.0
 20
6087.0
 10
9992.0
 20
5937.0
 10
5746.0
 20
5937.0
1001
FLOORFORGE
1000
floor:0
1000
preliminary
  0
HATCH
  5
D1
330
17
100
AcDbEntity
  8
A-WALL
 62
7
100
AcDbHatch
 10
0.0
 20
0.0
 30
0.0
210
0.0
220
0.0
230
1.0
  2
SOLID
 70
1
 71
0
 91
1
 92
3
 72
0
 73
1
 93
6
 10
5746.0
 20
5937.0
 10
5671.0
 20
5937.0
 10
5671.0
 20
6087.0
 10
9992.0
 20
6087.0
 10
9992.0
 20
5937.0
 10
5746.0
 20
5937.0
 97
0
 75
0
 76
1
 98
0
  0
LWPOLYLINE
  5
D2
330
17
100
AcDbEntity
  8
A-WALL
100
AcDbPolyline
 90
6
 70
1
 10
5821.0
 20
8575.0
 10
5821.0
 20
8350.0
 10
5671.0
 20
8350.0
 10
5671.0
 20
8500.0
 10
5671.0
 20
8575.0
 10
5821.0
 20
8575.0
1001
FLOORFORGE
1000
floor:0
1000
preliminary
  0
HATCH
  5
D3
330
17
100
AcDbEntity
  8
A-WALL
 62
7
100
AcDbHatch
 10
0.0
 20
0.0
 30
0.0
210
0.0
220
0.0
230
1.0
  2
SOLID
 70
1
 71
0
 91
1
 92
3
 72
0
 73
1
 93
6
 10
5821.0
 20
8575.0
 10
5821.0
 20
8350.0
 10
5671.0
 20
8350.0
 10
5671.0
 20
8500.0
 10
5671.0
 20
8575.0
 10
5821.0
 20
8575.0
 97
0
 75
0
 76
1
 98
0
  0
LWPOLYLINE
  5
D4
330
17
100
AcDbEntity
  8
A-WALL
100
AcDbPolyline
 90
6
 70
1
 10
5821.0
 20
7300.0
 10
5821.0
 20
7225.0
 10
5671.0
 20
7225.0
 10
5671.0
 20
7450.0
 10
5821.0
 20
7450.0
 10
5821.0
 20
7300.0
1001
FLOORFORGE
1000
floor:0
1000
preliminary
  0
HATCH
  5
D5
330
17
100
AcDbEntity
  8
A-WALL
 62
7
100
AcDbHatch
 10
0.0
 20
0.0
 30
0.0
210
0.0
220
0.0
230
1.0
  2
SOLID
 70
1
 71
0
 91
1
 92
3
 72
0
 73
1
 93
6
 10
5821.0
 20
7300.0
 10
5821.0
 20
7225.0
 10
5671.0
 20
7225.0
 10
5671.0
 20
7450.0
 10
5821.0
 20
7450.0
 10
5821.0
 20
7300.0
 97
0
 75
0
 76
1
 98
0
  0
LWPOLYLINE
  5
D6
330
17
100
AcDbEntity
  8
A-WALL
100
AcDbPolyline
 90
6
 70
1
 10
5746.0
 20
7225.0
 10
5671.0
 20
7225.0
 10
5671.0
 20
7375.0
 10
9992.0
 20
7375.0
 10
9992.0
 20
7225.0
 10
5746.0
 20
7225.0
1001
FLOORFORGE
1000
floor:0
1000
preliminary
  0
HATCH
  5
D7
330
17
100
AcDbEntity
  8
A-WALL
 62
7
100
AcDbHatch
 10
0.0
 20
0.0
 30
0.0
210
0.0
220
0.0
230
1.0
  2
SOLID
 70
1
 71
0
 91
1
 92
3
 72
0
 73
1
 93
6
 10
5746.0
 20
7225.0
 10
5671.0
 20
7225.0
 10
5671.0
 20
7375.0
 10
9992.0
 20
7375.0
 10
9992.0
 20
7225.0
 10
5746.0
 20
7225.0
 97
0
 75
0
 76
1
 98
0
  0
LWPOLYLINE
  5
D8
330
17
100
AcDbEntity
  8
A-WALL
100
AcDbPolyline
 90
6
 70
1
 10
5821.0
 20
8500.0
 10
5821.0
 20
8425.0
 10
5671.0
 20
8425.0
 10
5671.0
 20
13788.0
 10
5821.0
 20
13788.0
 10
5821.0
 20
8500.0
1001
FLOORFORGE
1000
floor:0
1000
preliminary
  0
HATCH
  5
D9
330
17
100
AcDbEntity
  8
A-WALL
 62
7
100
AcDbHatch
 10
0.0
 20
0.0
 30
0.0
210
0.0
220
0.0
230
1.0
  2
SOLID
 70
1
 71
0
 91
1
 92
3
 72
0
 73
1
 93
6
 10
5821.0
 20
8500.0
 10
5821.0
 20
8425.0
 10
5671.0
 20
8425.0
 10
5671.0
 20
13788.0
 10
5821.0
 20
13788.0
 10
5821.0
 20
8500.0
 97
0
 75
0
 76
1
 98
0
  0
LWPOLYLINE
  5
DA
330
17
100
AcDbEntity
  8
A-WALL
100
AcDbPolyline
 90
6
 70
1
 10
5516.0
 20
13558.0
 10
5516.0
 20
13788.0
 10
6819.0
 20
13788.0
 10
6819.0
 20
13558.0
 10
5746.0
 20
13558.0
 10
5516.0
 20
13558.0
1001
FLOORFORGE
1000
floor:0
1000
preliminary
  0
HATCH
  5
DB
330
17
100
AcDbEntity
  8
A-WALL
 62
7
100
AcDbHatch
 10
0.0
 20
0.0
 30
0.0
210
0.0
220
0.0
230
1.0
  2
SOLID
 70
1
 71
0
 91
1
 92
3
 72
0
 73
1
 93
6
 10
5516.0
 20
13558.0
 10
5516.0
 20
13788.0
 10
6819.0
 20
13788.0
 10
6819.0
 20
13558.0
 10
5746.0
 20
13558.0
 10
5516.0
 20
13558.0
 97
0
 75
0
 76
1
 98
0
  0
LWPOLYLINE
  5
DC
330
17
100
AcDbEntity
  8
A-WALL
100
AcDbPolyline
 90
5
 70
1
 10
9992.0
 20
13788.0
 10
9992.0
 20
13558.0
 10
8919.0
 20
13558.0
 10
8919.0
 20
13788.0
 10
9992.0
 20
13788.0
1001
FLOORFORGE
1000
floor:0
1000
preliminary
  0
HATCH
  5
DD
330
17
100
AcDbEntity
  8
A-WALL
 62
7
100
AcDbHatch
 10
0.0
 20
0.0
 30
0.0
210
0.0
220
0.0
230
1.0
  2
SOLID
 70
1
 71
0
 91
1
 92
3
 72
0
 73
1
 93
5
 10
9992.0
 20
13788.0
 10
9992.0
 20
13558.0
 10
8919.0
 20
13558.0
 10
8919.0
 20
13788.0
 10
9992.0
 20
13788.0
 97
0
 75
0
 76
1
 98
0
  0
LWPOLYLINE
  5
DE
330
17
100
AcDbEntity
  8
A-WALL
100
AcDbPolyline
 90
6
 70
1
 10
9992.0
 20
2840.0
 10
9992.0
 20
2310.0
 10
9762.0
 20
2310.0
 10
9762.0
 20
2610.0
 10
9762.0
 20
2840.0
 10
9992.0
 20
2840.0
1001
FLOORFORGE
1000
floor:0
1000
preliminary
  0
HATCH
  5
DF
330
17
100
AcDbEntity
  8
A-WALL
 62
7
100
AcDbHatch
 10
0.0
 20
0.0
 30
0.0
210
0.0
220
0.0
230
1.0
  2
SOLID
 70
1
 71
0
 91
1
 92
3
 72
0
 73
1
 93
6
 10
9992.0
 20
2840.0
 10
9992.0
 20
2310.0
 10
9762.0
 20
2310.0
 10
9762.0
 20
2610.0
 10
9762.0
 20
2840.0
 10
9992.0
 20
2840.0
 97
0
 75
0
 76
1
 98
0
  0
LWPOLYLINE
  5
E0
330
17
100
AcDbEntity
  8
A-WALL
100
AcDbPolyline
 90
5
 70
1
 10
9992.0
 20
0.0
 10
9762.0
 20
0.0
 10
9762.0
 20
300.0
 10
9992.0
 20
300.0
 10
9992.0
 20
0.0
1001
FLOORFORGE
1000
floor:0
1000
preliminary
  0
HATCH
  5
E1
330
17
100
AcDbEntity
  8
A-WALL
 62
7
100
AcDbHatch
 10
0.0
 20
0.0
 30
0.0
210
0.0
220
0.0
230
1.0
  2
SOLID
 70
1
 71
0
 91
1
 92
3
 72
0
 73
1
 93
5
 10
9992.0
 20
0.0
 10
9762.0
 20
0.0
 10
9762.0
 20
300.0
 10
9992.0
 20
300.0
 10
9992.0
 20
0.0
 97
0
 75
0
 76
1
 98
0
  0
LWPOLYLINE
  5
E2
330
17
100
AcDbEntity
  8
A-WALL
100
AcDbPolyline
 90
6
 70
1
 10
9992.0
 20
4730.0
 10
9992.0
 20
4200.0
 10
9762.0
 20
4200.0
 10
9762.0
 20
4500.0
 10
9762.0
 20
4730.0
 10
9992.0
 20
4730.0
1001
FLOORFORGE
1000
floor:0
1000
preliminary
  0
HATCH
  5
E3
330
17
100
AcDbEntity
  8
A-WALL
 62
7
100
AcDbHatch
 10
0.0
 20
0.0
 30
0.0
210
0.0
220
0.0
230
1.0
  2
SOLID
 70
1
 71
0
 91
1
 92
3
 72
0
 73
1
 93
6
 10
9992.0
 20
4730.0
 10
9992.0
 20
4200.0
 10
9762.0
 20
4200.0
 10
9762.0
 20
4500.0
 10
9762.0
 20
4730.0
 10
9992.0
 20
4730.0
 97
0
 75
0
 76
1
 98
0
  0
LWPOLYLINE
  5
E4
330
17
100
AcDbEntity
  8
A-WALL
100
AcDbPolyline
 90
5
 70
1
 10
9992.0
 20
2380.0
 10
9762.0
 20
2380.0
 10
9762.0
 20
2910.0
 10
9992.0
 20
2910.0
 10
9992.0
 20
2380.0
1001
FLOORFORGE
1000
floor:0
1000
preliminary
  0
HATCH
  5
E5
330
17
100
AcDbEntity
  8
A-WALL
 62
7
100
AcDbHatch
 10
0.0
 20
0.0
 30
0.0
210
0.0
220
0.0
230
1.0
  2
SOLID
 70
1
 71
0
 91
1
 92
3
 72
0
 73
1
 93
5
 10
9992.0
 20
2380.0
 10
9762.0
 20
2380.0
 10
9762.0
 20
2910.0
 10
9992.0
 20
2910.0
 10
9992.0
 20
2380.0
 97
0
 75
0
 76
1
 98
0
  0
LWPOLYLINE
  5
E6
330
17
100
AcDbEntity
  8
A-WALL
100
AcDbPolyline
 90
6
 70
1
 10
9762.0
 20
6242.0
 10
9992.0
 20
6242.0
 10
9992.0
 20
4270.0
 10
9762.0
 20
4270.0
 10
9762.0
 20
6012.0
 10
9762.0
 20
6242.0
1001
FLOORFORGE
1000
floor:0
1000
preliminary
  0
HATCH
  5
E7
330
17
100
AcDbEntity
  8
A-WALL
 62
7
100
AcDbHatch
 10
0.0
 20
0.0
 30
0.0
210
0.0
220
0.0
230
1.0
  2
SOLID
 70
1
 71
0
 91
1
 92
3
 72
0
 73
1
 93
6
 10
9762.0
 20
6242.0
 10
9992.0
 20
6242.0
 10
9992.0
 20
4270.0
 10
9762.0
 20
4270.0
 10
9762.0
 20
6012.0
 10
9762.0
 20
6242.0
 97
0
 75
0
 76
1
 98
0
  0
LWPOLYLINE
  5
E8
330
17
100
AcDbEntity
  8
A-WALL
100
AcDbPolyline
 90
6
 70
1
 10
9762.0
 20
7530.0
 10
9992.0
 20
7530.0
 10
9992.0
 20
5782.0
 10
9762.0
 20
5782.0
 10
9762.0
 20
7300.0
 10
9762.0
 20
7530.0
1001
FLOORFORGE
1000
floor:0
1000
preliminary
  0
HATCH
  5
E9
330
17
100
AcDbEntity
  8
A-WALL
 62
7
100
AcDbHatch
 10
0.0
 20
0.0
 30
0.0
210
0.0
220
0.0
230
1.0
  2
SOLID
 70
1
 71
0
 91
1
 92
3
 72
0
 73
1
 93
6
 10
9762.0
 20
7530.0
 10
9992.0
 20
7530.0
 10
9992.0
 20
5782.0
 10
9762.0
 20
5782.0
 10
9762.0
 20
7300.0
 10
9762.0
 20
7530.0
 97
0
 75
0
 76
1
 98
0
  0
LWPOLYLINE
  5
EA
330
17
100
AcDbEntity
  8
A-WALL
100
AcDbPolyline
 90
5
 70
1
 10
9762.0
 20
9494.0
 10
9992.0
 20
9494.0
 10
9992.0
 20
7070.0
 10
9762.0
 20
7070.0
 10
9762.0
 20
9494.0
1001
FLOORFORGE
1000
floor:0
1000
preliminary
  0
HATCH
  5
EB
330
17
100
AcDbEntity
  8
A-WALL
 62
7
100
AcDbHatch
 10
0.0
 20
0.0
 30
0.0
210
0.0
220
0.0
230
1.0
  2
SOLID
 70
1
 71
0
 91
1
 92
3
 72
0
 73
1
 93
5
 10
9762.0
 20
9494.0
 10
9992.0
 20
9494.0
 10
9992.0
 20
7070.0
 10
9762.0
 20
7070.0
 10
9762.0
 20
9494.0
 97
0
 75
0
 76
1
 98
0
  0
LWPOLYLINE
  5
EC
330
17
100
AcDbEntity
  8
A-WALL
100
AcDbPolyline
 90
5
 70
1
 10
9762.0
 20
13788.0
 10
9992.0
 20
13788.0
 10
9992.0
 20
11594.0
 10
9762.0
 20
11594.0
 10
9762.0
 20
13788.0
1001
FLOORFORGE
1000
floor:0
1000
preliminary
  0
HATCH
  5
ED
330
17
100
AcDbEntity
  8
A-WALL
 62
7
100
AcDbHatch
 10
0.0
 20
0.0
 30
0.0
210
0.0
220
0.0
230
1.0
  2
SOLID
 70
1
 71
0
 91
1
 92
3
 72
0
 73
1
 93
5
 10
9762.0
 20
13788.0
 10
9992.0
 20
13788.0
 10
9992.0
 20
11594.0
 10
9762.0
 20
11594.0
 10
9762.0
 20
13788.0
 97
0
 75
0
 76
1
 98
0
  0
LINE
  5
EE
330
17
100
AcDbEntity
  8
A-WIND
100
AcDbLine
 10
90.0
 20
5130.0
 30
0.0
 11
90.0
 21
6670.0
 31
0.0
1001
FLOORFORGE
1000
floor:0
1000
preliminary
  0
LINE
  5
EF
330
17
100
AcDbEntity
  8
A-WIND
100
AcDbLine
 10
140.0
 20
5130.0
 30
0.0
 11
140.0
 21
6670.0
 31
0.0
1001
FLOORFORGE
1000
floor:0
1000
preliminary
  0
TEXT
  5
F0
330
17
100
AcDbEntity
  8
A-ANNO
100
AcDbText
 10
2123.0
 20
4240.0
 30
0.0
 40
155.0
  1
D002
 72
1
 11
2123.0
 21
4240.0
 31
0.0
100
AcDbText
 73
2
1001
FLOORFORGE
1000
floor:0
1000
preliminary
  0
LINE
  5
F1
330
17
100
AcDbEntity
  8
A-WIND
100
AcDbLine
 10
90.0
 20
9144.0
 30
0.0
 11
90.0
 21
11944.0
 31
0.0
1001
FLOORFORGE
1000
floor:0
1000
preliminary
  0
LINE
  5
F2
330
17
100
AcDbEntity
  8
A-WIND
100
AcDbLine
 10
140.0
 20
9144.0
 30
0.0
 11
140.0
 21
11944.0
 31
0.0
1001
FLOORFORGE
1000
floor:0
1000
preliminary
  0
LINE
  5
F3
330
17
100
AcDbEntity
  8
A-WIND
100
AcDbLine
 10
807.0
 20
13698.0
 30
0.0
 11
3440.0
 21
13698.0
 31
0.0
1001
FLOORFORGE
1000
floor:0
1000
preliminary
  0
LINE
  5
F4
330
17
100
AcDbEntity
  8
A-WIND
100
AcDbLine
 10
807.0
 20
13648.0
 30
0.0
 11
3440.0
 21
13648.0
 31
0.0
1001
FLOORFORGE
1000
floor:0
1000
preliminary
  0
LINE
  5
F5
330
17
100
AcDbEntity
  8
A-DOOR
100
AcDbLine
 10
5646.0
 20
115.0
 30
0.0
 11
5646.0
 21
1315.0
 31
0.0
1001
FLOORFORGE
1000
floor:0
1000
preliminary
  0
LWPOLYLINE
  5
F6
330
17
100
AcDbEntity
  8
A-DOOR
100
AcDbPolyline
 90
20
 70
0
 10
6846.0
 20
115.0
 10
6841.901391608004
 20
214.0952145667988
 10
6829.633564083267
 20
312.5135083368807
 10
6809.280319127196
 20
409.58258456895896
 10
6780.980690040762
 20
504.63936304562014
 10
6744.927991986069
 20
597.0345095835632
 10
6701.368501447787
 20
686.1368716444882
 10
6650.599773915034
 20
771.3377897469122
 10
6592.968611275673
 20
852.0552552276014
 10
6528.868692807758
 20
927.7378859508893
 10
6458.737885950889
 20
997.868692807758
 10
6383.055255227601
 20
1061.9686112756722
 10
6302.337789746913
 20
1119.5997739150343
 10
6217.136871644489
 20
1170.3685014477867
 10
6128.034509583564
 20
1213.927991986069
 10
6035.6393630456205
 20
1249.9806900407616
 10
5940.582584568959
 20
1278.2803191271964
 10
5843.5135083368805
 20
1298.6335640832667
 10
5745.095214566799
 20
1310.901391608004
 10
5646.0
 20
1315.0
1001
FLOORFORGE
1000
floor:0
1000
preliminary
  0
TEXT
  5
F7
330
17
100
AcDbEntity
  8
A-ANNO
100
AcDbText
 10
6246.0
 20
-145.0
 30
0.0
 40
155.0
  1
D005
 72
1
 11
6246.0
 21
-145.0
 31
0.0
100
AcDbText
 73
2
1001
FLOORFORGE
1000
floor:0
1000
preliminary
  0
LINE
  5
F8
330
17
100
AcDbEntity
  8
A-DOOR
100
AcDbLine
 10
4521.0
 20
8500.0
 30
0.0
 11
4521.0
 21
9450.0
 31
0.0
1001
FLOORFORGE
1000
floor:0
1000
preliminary
  0
LWPOLYLINE
  5
F9
330
17
100
AcDbEntity
  8
A-DOOR
100
AcDbPolyline
 90
20
 70
0
 10
5471.0
 20
8500.0
 10
5467.755268356336
 20
8578.450378198715
 10
5458.043238232586
 20
8656.364860766696
 10
5441.9302526423635
 20
8733.211212783759
 10
5419.526379615603
 20
8808.464495744449
 10
5390.984660322305
 20
8881.61065342032
 10
5356.500063646165
 20
8952.15002338522
 10
5316.308154349403
 20
9019.600750216305
 10
5270.683483926574
 20
9083.502077055184
 10
5219.937715139475
 20
9143.417493044453
 10
5164.417493044454
 20
9198.937715139475
 10
5104.502077055185
 20
9249.683483926574
 10
5040.600750216306
 20
9295.308154349403
 10
4973.15002338522
 20
9335.500063646165
 10
4902.610653420321
 20
9369.984660322305
 10
4829.46449574445
 20
9398.526379615603
 10
4754.211212783759
 20
9420.930252642363
 10
4677.364860766697
 20
9437.043238232585
 10
4599.450378198716
 20
9446.755268356337
 10
4521.0
 20
9450.0
1001
FLOORFORGE
1000
floor:0
1000
preliminary
  0
TEXT
  5
FA
330
17
100
AcDbEntity
  8
A-ANNO
100
AcDbText
 10
4996.0
 20
8240.0
 30
0.0
 40
155.0
  1
D006
 72
1
 11
4996.0
 21
8240.0
 31
0.0
100
AcDbText
 73
2
1001
FLOORFORGE
1000
floor:0
1000
preliminary
  0
LINE
  5
FB
330
17
100
AcDbEntity
  8
A-WIND
100
AcDbLine
 10
4546.0
 20
13698.0
 30
0.0
 11
5446.0
 21
13698.0
 31
0.0
1001
FLOORFORGE
1000
floor:0
1000
preliminary
  0
LINE
  5
FC
330
17
100
AcDbEntity
  8
A-WIND
100
AcDbLine
 10
4546.0
 20
13648.0
 30
0.0
 11
5446.0
 21
13648.0
 31
0.0
1001
FLOORFORGE
1000
floor:0
1000
preliminary
  0
LINE
  5
FD
330
17
100
AcDbEntity
  8
A-DOOR
100
AcDbLine
 10
5746.0
 20
4831.0
 30
0.0
 11
4896.0
 21
4831.0
 31
0.0
1001
FLOORFORGE
1000
floor:0
1000
preliminary
  0
LWPOLYLINE
  5
FE
330
17
100
AcDbEntity
  8
A-DOOR
100
AcDbPolyline
 90
20
 70
0
 10
5746.0
 20
5681.0
 10
5675.807556348517
 20
5678.09681905567
 10
5606.094598261376
 20
5669.407107892314
 10
5537.3373359303205
 20
5654.9902260484305
 10
5470.005451176019
 20
5634.944655445539
 10
5404.558889044976
 20
5609.407327656799
 10
5341.444715918487
 20
5578.552688525516
 10
5281.0940655959375
 20
5542.591506523149
 10
5223.919194213782
 20
5501.769432986935
 10
5170.31066411812
 20
5456.3653240721615
 10
5120.6346759278385
 20
5406.68933588188
 10
5075.230567013065
 20
5353.080805786218
 10
5034.408493476851
 20
5295.905934404063
 10
4998.447311474484
 20
5235.555284081513
 10
4967.592672343201
 20
5172.441110955024
 10
4942.055344554461
 20
5106.994548823981
 10
4922.0097739515695
 20
5039.6626640696795
 10
4907.592892107686
 20
4970.905401738624
 10
4898.90318094433
 20
4901.192443651483
 10
4896.0
 20
4831.0
1001
FLOORFORGE
1000
floor:0
1000
preliminary
  0
TEXT
  5
FF
330
17
100
AcDbEntity
  8
A-ANNO
100
AcDbText
 10
6006.0
 20
5256.0
 30
0.0
 40
155.0
  1
D008
 72
1
 11
6006.0
 21
5256.0
 31
0.0
100
AcDbText
 73
2
1001
FLOORFORGE
1000
floor:0
1000
preliminary
  0
LINE
  5
100
330
17
100
AcDbEntity
  8
A-DOOR
100
AcDbLine
 10
5746.0
 20
6231.0
 30
0.0
 11
4896.0
 21
6231.0
 31
0.0
1001
FLOORFORGE
1000
floor:0
1000
preliminary
  0
LWPOLYLINE
  5
101
330
17
100
AcDbEntity
  8
A-DOOR
100
AcDbPolyline
 90
20
 70
0
 10
5746.0
 20
7081.0
 10
5675.807556348517
 20
7078.09681905567
 10
5606.094598261376
 20
7069.407107892314
 10
5537.3373359303205
 20
7054.9902260484305
 10
5470.005451176019
 20
7034.944655445539
 10
5404.558889044976
 20
7009.407327656799
 10
5341.444715918487
 20
6978.552688525516
 10
5281.0940655959375
 20
6942.591506523149
 10
5223.919194213782
 20
6901.769432986935
 10
5170.31066411812
 20
6856.3653240721615
 10
5120.6346759278385
 20
6806.68933588188
 10
5075.230567013065
 20
6753.080805786218
 10
5034.408493476851
 20
6695.905934404063
 10
4998.447311474484
 20
6635.555284081513
 10
4967.592672343201
 20
6572.441110955024
 10
4942.055344554461
 20
6506.994548823981
 10
4922.0097739515695
 20
6439.6626640696795
 10
4907.592892107686
 20
6370.905401738624
 10
4898.90318094433
 20
6301.192443651483
 10
4896.0
 20
6231.0
1001
FLOORFORGE
1000
floor:0
1000
preliminary
  0
TEXT
  5
102
330
17
100
AcDbEntity
  8
A-ANNO
100
AcDbText
 10
6006.0
 20
6656.0
 30
0.0
 40
155.0
  1
D009
 72
1
 11
6006.0
 21
6656.0
 31
0.0
100
AcDbText
 73
2
1001
FLOORFORGE
1000
floor:0
1000
preliminary
  0
LINE
  5
103
330
17
100
AcDbEntity
  8
A-DOOR
100
AcDbLine
 10
5746.0
 20
7450.0
 30
0.0
 11
4846.0
 21
7450.0
 31
0.0
1001
FLOORFORGE
1000
floor:0
1000
preliminary
  0
LWPOLYLINE
  5
104
330
17
100
AcDbEntity
  8
A-DOOR
100
AcDbPolyline
 90
20
 70
0
 10
5746.0
 20
8350.0
 10
5671.678589074901
 20
8346.926043706002
 10
5597.86486874734
 20
8337.72517306245
 10
5525.063061573281
 20
8322.460239345397
 10
5453.770477715785
 20
8301.235517530571
 10
5384.474117812328
 20
8274.195993989551
 10
5317.647346266634
 20
8241.52637608584
 10
5253.746657689816
 20
8203.449830436275
 10
5193.208558579299
 20
8160.226458456755
 10
5136.446585536833
 20
8112.151519605819
 10
5083.848480394182
 20
8059.553414463167
 10
5035.773541543245
 20
8002.791441420701
 10
4992.550169563724
 20
7942.253342310184
 10
4954.47362391416
 20
7878.352653733366
 10
4921.804006010449
 20
7811.525882187672
 10
4894.764482469429
 20
7742.229522284215
 10
4873.539760654603
 20
7670.936938426719
 10
4858.27482693755
 20
7598.13513125266
 10
4849.073956293997
 20
7524.321410925099
 10
4846.0
 20
7450.0
1001
FLOORFORGE
1000
floor:0
1000
preliminary
  0
TEXT
  5
105
330
17
100
AcDbEntity
  8
A-ANNO
100
AcDbText
 10
6006.0
 20
7900.0
 30
0.0
 40
155.0
  1
D010
 72
1
 11
6006.0
 21
7900.0
 31
0.0
100
AcDbText
 73
2
1001
FLOORFORGE
1000
floor:0
1000
preliminary
  0
LINE
  5
106
330
17
100
AcDbEntity
  8
A-WIND
100
AcDbLine
 10
6819.0
 20
13698.0
 30
0.0
 11
8919.0
 21
13698.0
 31
0.0
1001
FLOORFORGE
1000
floor:0
1000
preliminary
  0
LINE
  5
107
330
17
100
AcDbEntity
  8
A-WIND
100
AcDbLine
 10
6819.0
 20
13648.0
 30
0.0
 11
8919.0
 21
13648.0
 31
0.0
1001
FLOORFORGE
1000
floor:0
1000
preliminary
  0
LINE
  5
108
330
17
100
AcDbEntity
  8
A-WIND
100
AcDbLine
 10
9902.0
 20
300.0
 30
0.0
 11
9902.0
 21
2310.0
 31
0.0
1001
FLOORFORGE
1000
floor:0
1000
preliminary
  0
LINE
  5
109
330
17
100
AcDbEntity
  8
A-WIND
100
AcDbLine
 10
9852.0
 20
300.0
 30
0.0
 11
9852.0
 21
2310.0
 31
0.0
1001
FLOORFORGE
1000
floor:0
1000
preliminary
  0
LINE
  5
10A
330
17
100
AcDbEntity
  8
A-WIND
100
AcDbLine
 10
9902.0
 20
2910.0
 30
0.0
 11
9902.0
 21
4200.0
 31
0.0
1001
FLOORFORGE
1000
floor:0
1000
preliminary
  0
LINE
  5
10B
330
17
100
AcDbEntity
  8
A-WIND
100
AcDbLine
 10
9852.0
 20
2910.0
 30
0.0
 11
9852.0
 21
4200.0
 31
0.0
1001
FLOORFORGE
1000
floor:0
1000
preliminary
  0
LINE
  5
10C
330
17
100
AcDbEntity
  8
A-WIND
100
AcDbLine
 10
9902.0
 20
4878.0
 30
0.0
 11
9902.0
 21
5634.0
 31
0.0
1001
FLOORFORGE
1000
floor:0
1000
preliminary
  0
LINE
  5
10D
330
17
100
AcDbEntity
  8
A-WIND
100
AcDbLine
 10
9852.0
 20
4878.0
 30
0.0
 11
9852.0
 21
5634.0
 31
0.0
1001
FLOORFORGE
1000
floor:0
1000
preliminary
  0
LINE
  5
10E
330
17
100
AcDbEntity
  8
A-WIND
100
AcDbLine
 10
9902.0
 20
6302.0
 30
0.0
 11
9902.0
 21
7010.0
 31
0.0
1001
FLOORFORGE
1000
floor:0
1000
preliminary
  0
LINE
  5
10F
330
17
100
AcDbEntity
  8
A-WIND
100
AcDbLine
 10
9852.0
 20
6302.0
 30
0.0
 11
9852.0
 21
7010.0
 31
0.0
1001
FLOORFORGE
1000
floor:0
1000
preliminary
  0
LINE
  5
110
330
17
100
AcDbEntity
  8
A-WIND
100
AcDbLine
 10
9902.0
 20
9494.0
 30
0.0
 11
9902.0
 21
11594.0
 31
0.0
1001
FLOORFORGE
1000
floor:0
1000
preliminary
  0
LINE
  5
111
330
17
100
AcDbEntity
  8
A-WIND
100
AcDbLine
 10
9852.0
 20
9494.0
 30
0.0
 11
9852.0
 21
11594.0
 31
0.0
1001
FLOORFORGE
1000
floor:0
1000
preliminary
  0
LWPOLYLINE
  5
112
330
17
100
AcDbEntity
  8
A-EXT
100
AcDbPolyline
 90
4
 70
1
 10
4148.0
 20
-1550.0
 10
8344.0
 20
-1550.0
 10
8344.0
 20
0.0
 10
4148.0
 20
0.0
1001
FLOORFORGE
1000
floor:0
1000
preliminary
  0
TEXT
  5
113
330
17
100
AcDbEntity
  8
A-EXT
100
AcDbText
 10
6246.0
 20
-1670.0
 30
0.0
 40
130.0
  1
PORCH
 72
1
 11
6246.0
 21
-1670.0
 31
0.0
100
AcDbText
 73
2
1001
FLOORFORGE
1000
floor:0
1000
preliminary
  0
LWPOLYLINE
  5
114
330
17
100
AcDbEntity
  8
A-EXT
100
AcDbPolyline
 90
4
 70
1
 10
80.0
 20
-70.0
 10
2420.0
 20
-70.0
 10
2420.0
 20
0.0
 10
80.0
 20
0.0
1001
FLOORFORGE
1000
floor:0
1000
preliminary
  0
TEXT
  5
115
330
17
100
AcDbEntity
  8
A-EXT
100
AcDbText
 10
1250.0
 20
-190.0
 30
0.0
 40
130.0
  1
FEATURE_WALL
 72
1
 11
1250.0
 21
-190.0
 31
0.0
100
AcDbText
 73
2
1001
FLOORFORGE
1000
floor:0
1000
preliminary
  0
LWPOLYLINE
  5
116
330
17
100
AcDbEntity
  8
A-FURN
100
AcDbPolyline
 90
4
 70
1
 10
9552.0
 20
490.0
 10
9552.0
 20
2409.9999999999995
 10
8582.0
 20
2409.9999999999995
 10
8582.0
 20
490.0
1001
FLOORFORGE
1000
floor:0
1000
preliminary
  0
LWPOLYLINE
  5
117
330
17
100
AcDbEntity
  8
A-FURN
100
AcDbPolyline
 90
4
 70
1
 10
8237.0
 20
956.3999999999999
 10
8237.0
 20
2056.4
 10
7487.0
 20
2056.4
 10
7487.0
 20
956.3999999999999
1001
FLOORFORGE
1000
floor:0
1000
preliminary
  0
LWPOLYLINE
  5
118
330
17
100
AcDbEntity
  8
A-FURN
100
AcDbPolyline
 90
4
 70
1
 10
7952.44
 20
2561.2
 10
7952.44
 20
4401.2
 10
6052.4400000000005
 20
4401.2
 10
6052.4400000000005
 20
2561.2
1001
FLOORFORGE
1000
floor:0
1000
preliminary
  0
LWPOLYLINE
  5
119
330
17
100
AcDbEntity
  8
A-FURN
100
AcDbPolyline
 90
4
 70
1
 10
4121.0
 20
4635.000000000001
 10
4121.0
 20
5314.999999999999
 10
270.0
 20
5314.999999999999
 10
270.0
 20
4635.000000000001
1001
FLOORFORGE
1000
floor:0
1000
preliminary
  0
LWPOLYLINE
  5
11A
330
17
100
AcDbEntity
  8
A-FURN
100
AcDbPolyline
 90
4
 70
1
 10
9322.0
 20
5167.0
 10
9322.0
 20
5667.0
 10
8602.0
 20
5667.0
 10
8602.0
 20
5167.0
1001
FLOORFORGE
1000
floor:0
1000
preliminary
  0
LWPOLYLINE
  5
11B
330
17
100
AcDbEntity
  8
A-FURN
100
AcDbPolyline
 90
4
 70
1
 10
9442.0
 20
4615.0
 10
9442.0
 20
5385.000000000001
 10
8982.0
 20
5385.000000000001
 10
8982.0
 20
4615.0
1001
FLOORFORGE
1000
floor:0
1000
preliminary
  0
LWPOLYLINE
  5
11C
330
17
100
AcDbEntity
  8
A-FURN
100
AcDbPolyline
 90
4
 70
1
 10
9667.0
 20
6535.0
 10
9667.0
 20
7135.0
 10
9017.000000000002
 20
7135.0
 10
9017.000000000002
 20
6535.0
1001
FLOORFORGE
1000
floor:0
1000
preliminary
  0
LWPOLYLINE
  5
11D
330
17
100
AcDbEntity
  8
A-FURN
100
AcDbPolyline
 90
4
 70
1
 10
3600.5
 20
8655.0
 10
3600.5
 20
10814.999999999998
 10
1900.4999999999998
 20
10814.999999999998
 10
1900.4999999999998
 20
8655.0
1001
FLOORFORGE
1000
floor:0
1000
preliminary
  0
LWPOLYLINE
  5
11E
330
17
100
AcDbEntity
  8
A-FURN
100
AcDbPolyline
 90
4
 70
1
 10
1980.0
 20
12918.0
 10
1980.0
 20
13517.999999999998
 10
280.0
 20
13517.999999999998
 10
280.0
 20
12918.0
1001
FLOORFORGE
1000
floor:0
1000
preliminary
  0
LWPOLYLINE
  5
11F
330
17
100
AcDbEntity
  8
A-FURN
100
AcDbPolyline
 90
4
 70
1
 10
8591.5
 20
7475.0
 10
8591.5
 20
8695.0
 10
6991.5
 20
8695.0
 10
6991.5
 20
7475.0
1001
FLOORFORGE
1000
floor:0
1000
preliminary
  0
TEXT
  5
120
330
17
100
AcDbEntity
  8
A-ANNO
100
AcDbText
 10
1365.0
 20
2330.0
 30
0.0
 40
245.0
  1
Stair
 72
1
 11
1365.0
 21
2330.0
 31
0.0
100
AcDbText
 73
2
1001
FLOORFORGE
1000
floor:0
1000
preliminary
  0
TEXT
  5
121
330
17
100
AcDbEntity
  8
A-ANNO
100
AcDbText
 10
1365.0
 20
2050.0
 30
0.0
 40
175.0
  1
9.5 m² | 102 ft²
 72
1
 11
1365.0
 21
2050.0
 31
0.0
100
AcDbText
 73
2
1001
FLOORFORGE
1000
floor:0
1000
preliminary
  0
TEXT
  5
122
330
17
100
AcDbEntity
  8
A-ANNO
100
AcDbText
 10
6131.0
 20
1435.0
 30
0.0
 40
245.0
  1
Living
 72
1
 11
6131.0
 21
1435.0
 31
0.0
100
AcDbText
 73
2
1001
FLOORFORGE
1000
floor:0
1000
preliminary
  0
TEXT
  5
123
330
17
100
AcDbEntity
  8
A-ANNO
100
AcDbText
 10
6131.0
 20
1155.0
 30
0.0
 40
175.0
  1
17.3 m² | 186 ft²
 72
1
 11
6131.0
 21
1155.0
 31
0.0
100
AcDbText
 73
2
1001
FLOORFORGE
1000
floor:0
1000
preliminary
  0
TEXT
  5
124
330
17
100
AcDbEntity
  8
A-ANNO
100
AcDbText
 10
6131.0
 20
3685.0
 30
0.0
 40
245.0
  1
Dining
 72
1
 11
6131.0
 21
3685.0
 31
0.0
100
AcDbText
 73
2
1001
FLOORFORGE
1000
floor:0
1000
preliminary
  0
TEXT
  5
125
330
17
100
AcDbEntity
  8
A-ANNO
100
AcDbText
 10
6131.0
 20
3405.0
 30
0.0
 40
175.0
  1
13.3 m² | 144 ft²
 72
1
 11
6131.0
 21
3405.0
 31
0.0
100
AcDbText
 73
2
1001
FLOORFORGE
1000
floor:0
1000
preliminary
  0
TEXT
  5
126
330
17
100
AcDbEntity
  8
A-ANNO
100
AcDbText
 10
4996.0
 20
6786.0
 30
0.0
 40
245.0
  1
Hall
 72
1
 11
4996.0
 21
6786.0
 31
0.0
100
AcDbText
 73
2
1001
FLOORFORGE
1000
floor:0
1000
preliminary
  0
TEXT
  5
127
330
17
100
AcDbEntity
  8
A-ANNO
100
AcDbText
 10
4996.0
 20
6506.0
 30
0.0
 40
175.0
  1
5.3 m² | 57 ft²
 72
1
 11
4996.0
 21
6506.0
 31
0.0
100
AcDbText
 73
2
1001
FLOORFORGE
1000
floor:0
1000
preliminary
  0
TEXT
  5
128
330
17
100
AcDbEntity
  8
A-ANNO
100
AcDbText
 10
2200.5
 20
6030.0
 30
0.0
 40
245.0
  1
Kitchen
 72
1
 11
2200.5
 21
6030.0
 31
0.0
100
AcDbText
 73
2
1001
FLOORFORGE
1000
floor:0
1000
preliminary
  0
TEXT
  5
129
330
17
100
AcDbEntity
  8
A-ANNO
100
AcDbText
 10
2200.5
 20
5750.0
 30
0.0
 40
175.0
  1
10.4 m² | 112 ft²
 72
1
 11
2200.5
 21
5750.0
 31
0.0
100
AcDbText
 73
2
1001
FLOORFORGE
1000
floor:0
1000
preliminary
  0
TEXT
  5
12A
330
17
100
AcDbEntity
  8
A-ANNO
100
AcDbText
 10
2200.5
 20
5510.0
 30
0.0
 40
160.0
  1
3.94 × 2.65 m
 72
1
 11
2200.5
 21
5510.0
 31
0.0
100
AcDbText
 73
2
1001
FLOORFORGE
1000
floor:0
1000
preliminary
  0
TEXT
  5
12B
330
17
100
AcDbEntity
  8
A-ANNO
100
AcDbText
 10
7791.5
 20
5386.0
 30
0.0
 40
245.0
  1
Bathroom
 72
1
 11
7791.5
 21
5386.0
 31
0.0
100
AcDbText
 73
2
1001
FLOORFORGE
1000
floor:0
1000
preliminary
  0
TEXT
  5
12C
330
17
100
AcDbEntity
  8
A-ANNO
100
AcDbText
 10
7791.5
 20
5106.0
 30
0.0
 40
175.0
  1
5.4 m² | 58 ft²
 72
1
 11
7791.5
 21
5106.0
 31
0.0
100
AcDbText
 73
2
1001
FLOORFORGE
1000
floor:0
1000
preliminary
  0
TEXT
  5
12D
330
17
100
AcDbEntity
  8
A-ANNO
100
AcDbText
 10
7791.5
 20
4866.0
 30
0.0
 40
160.0
  1
3.94 × 1.36 m
 72
1
 11
7791.5
 21
4866.0
 31
0.0
100
AcDbText
 73
2
1001
FLOORFORGE
1000
floor:0
1000
preliminary
  0
TEXT
  5
12E
330
17
100
AcDbEntity
  8
A-ANNO
100
AcDbText
 10
7791.5
 20
6786.0
 30
0.0
 40
245.0
  1
Utility
 72
1
 11
7791.5
 21
6786.0
 31
0.0
100
AcDbText
 73
2
1001
FLOORFORGE
1000
floor:0
1000
preliminary
  0
TEXT
  5
12F
330
17
100
AcDbEntity
  8
A-ANNO
100
AcDbText
 10
7791.5
 20
6506.0
 30
0.0
 40
175.0
  1
4.5 m² | 48 ft²
 72
1
 11
7791.5
 21
6506.0
 31
0.0
100
AcDbText
 73
2
1001
FLOORFORGE
1000
floor:0
1000
preliminary
  0
TEXT
  5
130
330
17
100
AcDbEntity
  8
A-ANNO
100
AcDbText
 10
2950.5
 20
11196.5
 30
0.0
 40
245.0
  1
Bedroom 1
 72
1
 11
2950.5
 21
11196.5
 31
0.0
100
AcDbText
 73
2
1001
FLOORFORGE
1000
floor:0
1000
preliminary
  0
TEXT
  5
131
330
17
100
AcDbEntity
  8
A-ANNO
100
AcDbText
 10
2950.5
 20
10916.5
 30
0.0
 40
175.0
  1
31.8 m² | 343 ft²
 72
1
 11
2950.5
 21
10916.5
 31
0.0
100
AcDbText
 73
2
1001
FLOORFORGE
1000
floor:0
1000
preliminary
  0
TEXT
  5
132
330
17
100
AcDbEntity
  8
A-ANNO
100
AcDbText
 10
2950.5
 20
10676.5
 30
0.0
 40
160.0
  1
5.44 × 6.18 m
 72
1
 11
2950.5
 21
10676.5
 31
0.0
100
AcDbText
 73
2
1001
FLOORFORGE
1000
floor:0
1000
preliminary
  0
TEXT
  5
133
330
17
100
AcDbEntity
  8
A-ANNO
100
AcDbText
 10
7791.5
 20
11196.5
 30
0.0
 40
245.0
  1
Study
 72
1
 11
7791.5
 21
11196.5
 31
0.0
100
AcDbText
 73
2
1001
FLOORFORGE
1000
floor:0
1000
preliminary
  0
TEXT
  5
134
330
17
100
AcDbEntity
  8
A-ANNO
100
AcDbText
 10
7791.5
 20
10916.5
 30
0.0
 40
175.0
  1
24.4 m² | 262 ft²
 72
1
 11
7791.5
 21
10916.5
 31
0.0
100
AcDbText
 73
2
1001
FLOORFORGE
1000
floor:0
1000
preliminary
  0
TEXT
  5
135
330
17
100
AcDbEntity
  8
A-ANNO
100
AcDbText
 10
7791.5
 20
10676.5
 30
0.0
 40
160.0
  1
3.94 × 6.18 m
 72
1
 11
7791.5
 21
10676.5
 31
0.0
100
AcDbText
 73
2
1001
FLOORFORGE
1000
floor:0
1000
preliminary
  0
LINE
  5
136
330
17
100
AcDbEntity
  8
A-STAIR
100
AcDbLine
 10
250.0
 20
1300.0
 30
0.0
 11
1250.0
 21
1300.0
 31
0.0
1001
FLOORFORGE
1000
floor:0
1000
preliminary
  0
LINE
  5
137
330
17
100
AcDbEntity
  8
A-STAIR
100
AcDbLine
 10
1450.0
 20
1300.0
 30
0.0
 11
2450.0
 21
1300.0
 31
0.0
1001
FLOORFORGE
1000
floor:0
1000
preliminary
  0
LINE
  5
138
330
17
100
AcDbEntity
  8
A-STAIR
100
AcDbLine
 10
250.0
 20
1550.0
 30
0.0
 11
1250.0
 21
1550.0
 31
0.0
1001
FLOORFORGE
1000
floor:0
1000
preliminary
  0
LINE
  5
139
330
17
100
AcDbEntity
  8
A-STAIR
100
AcDbLine
 10
1450.0
 20
1550.0
 30
0.0
 11
2450.0
 21
1550.0
 31
0.0
1001
FLOORFORGE
1000
floor:0
1000
preliminary
  0
LINE
  5
13A
330
17
100
AcDbEntity
  8
A-STAIR
100
AcDbLine
 10
250.0
 20
1800.0
 30
0.0
 11
1250.0
 21
1800.0
 31
0.0
1001
FLOORFORGE
1000
floor:0
1000
preliminary
  0
LINE
  5
13B
330
17
100
AcDbEntity
  8
A-STAIR
100
AcDbLine
 10
1450.0
 20
1800.0
 30
0.0
 11
2450.0
 21
1800.0
 31
0.0
1001
FLOORFORGE
1000
floor:0
1000
preliminary
  0
LINE
  5
13C
330
17
100
AcDbEntity
  8
A-STAIR
100
AcDbLine
 10
250.0
 20
2050.0
 30
0.0
 11
1250.0
 21
2050.0
 31
0.0
1001
FLOORFORGE
1000
floor:0
1000
preliminary
  0
LINE
  5
13D
330
17
100
AcDbEntity
  8
A-STAIR
100
AcDbLine
 10
1450.0
 20
2050.0
 30
0.0
 11
2450.0
 21
2050.0
 31
0.0
1001
FLOORFORGE
1000
floor:0
1000
preliminary
  0
LINE
  5
13E
330
17
100
AcDbEntity
  8
A-STAIR
100
AcDbLine
 10
250.0
 20
2300.0
 30
0.0
 11
1250.0
 21
2300.0
 31
0.0
1001
FLOORFORGE
1000
floor:0
1000
preliminary
  0
LINE
  5
13F
330
17
100
AcDbEntity
  8
A-STAIR
100
AcDbLine
 10
1450.0
 20
2300.0
 30
0.0
 11
2450.0
 21
2300.0
 31
0.0
1001
FLOORFORGE
1000
floor:0
1000
preliminary
  0
LINE
  5
140
330
17
100
AcDbEntity
  8
A-STAIR
100
AcDbLine
 10
250.0
 20
2550.0
 30
0.0
 11
1250.0
 21
2550.0
 31
0.0
1001
FLOORFORGE
1000
floor:0
1000
preliminary
  0
LINE
  5
141
330
17
100
AcDbEntity
  8
A-STAIR
100
AcDbLine
 10
1450.0
 20
2550.0
 30
0.0
 11
2450.0
 21
2550.0
 31
0.0
1001
FLOORFORGE
1000
floor:0
1000
preliminary
  0
LINE
  5
142
330
17
100
AcDbEntity
  8
A-STAIR
100
AcDbLine
 10
250.0
 20
2800.0
 30
0.0
 11
1250.0
 21
2800.0
 31
0.0
1001
FLOORFORGE
1000
floor:0
1000
preliminary
  0
LINE
  5
143
330
17
100
AcDbEntity
  8
A-STAIR
100
AcDbLine
 10
1450.0
 20
2800.0
 30
0.0
 11
2450.0
 21
2800.0
 31
0.0
1001
FLOORFORGE
1000
floor:0
1000
preliminary
  0
LINE
  5
144
330
17
100
AcDbEntity
  8
A-STAIR
100
AcDbLine
 10
250.0
 20
3050.0
 30
0.0
 11
1250.0
 21
3050.0
 31
0.0
1001
FLOORFORGE
1000
floor:0
1000
preliminary
  0
LINE
  5
145
330
17
100
AcDbEntity
  8
A-STAIR
100
AcDbLine
 10
1450.0
 20
3050.0
 30
0.0
 11
2450.0
 21
3050.0
 31
0.0
1001
FLOORFORGE
1000
floor:0
1000
preliminary
  0
LINE
  5
146
330
17
100
AcDbEntity
  8
A-STAIR
100
AcDbLine
 10
250.0
 20
3300.0
 30
0.0
 11
1250.0
 21
3300.0
 31
0.0
1001
FLOORFORGE
1000
floor:0
1000
preliminary
  0
LINE
  5
147
330
17
100
AcDbEntity
  8
A-STAIR
100
AcDbLine
 10
1450.0
 20
3300.0
 30
0.0
 11
2450.0
 21
3300.0
 31
0.0
1001
FLOORFORGE
1000
floor:0
1000
preliminary
  0
LINE
  5
148
330
17
100
AcDbEntity
  8
A-STAIR
100
AcDbLine
 10
750.0
 20
1300.0
 30
0.0
 11
750.0
 21
3300.0
 31
0.0
1001
FLOORFORGE
1000
floor:0
1000
preliminary
  0
TEXT
  5
149
330
17
100
AcDbEntity
  8
A-STAIR
100
AcDbText
 10
750.0
 20
3500.0
 30
0.0
 40
180.0
  1
UP
 72
1
 11
750.0
 21
3500.0
 31
0.0
100
AcDbText
 73
2
1001
FLOORFORGE
1000
floor:0
1000
preliminary
  0
TEXT
  5
14A
330
17
100
AcDbEntity
  8
A-STAIR
100
AcDbText
 10
1350.0
 20
650.0
 30
0.0
 40
150.0
  1
18R @ 175; T 250
 72
1
 11
1350.0
 21
650.0
 31
0.0
100
AcDbText
 73
2
1001
FLOORFORGE
1000
floor:0
1000
preliminary
  0
LINE
  5
14B
330
17
100
AcDbEntity
  8
A-DIMS
100
AcDbLine
 10
0.0
 20
0.0
 30
0.0
 11
0.0
 21
-700.0
 31
0.0
1001
FLOORFORGE
1000
floor:0
1000
preliminary
  0
LINE
  5
14C
330
17
100
AcDbEntity
  8
A-DIMS
100
AcDbLine
 10
9992.0
 20
0.0
 30
0.0
 11
9992.0
 21
-700.0
 31
0.0
1001
FLOORFORGE
1000
floor:0
1000
preliminary
  0
LINE
  5
14D
330
17
100
AcDbEntity
  8
A-DIMS
100
AcDbLine
 10
0.0
 20
-700.0
 30
0.0
 11
9992.0
 21
-700.0
 31
0.0
1001
FLOORFORGE
1000
floor:0
1000
preliminary
  0
LINE
  5
14E
330
17
100
AcDbEntity
  8
A-DIMS
100
AcDbLine
 10
-60.0
 20
-760.0
 30
0.0
 11
60.0
 21
-640.0
 31
0.0
1001
FLOORFORGE
1000
floor:0
1000
preliminary
  0
LINE
  5
14F
330
17
100
AcDbEntity
  8
A-DIMS
100
AcDbLine
 10
9932.0
 20
-760.0
 30
0.0
 11
10052.0
 21
-640.0
 31
0.0
1001
FLOORFORGE
1000
floor:0
1000
preliminary
  0
TEXT
  5
150
330
17
100
AcDbEntity
  8
A-DIMS
100
AcDbText
 10
4996.0
 20
-550.0
 30
0.0
 40
200.0
  1
9992
 72
1
 11
4996.0
 21
-550.0
 31
0.0
100
AcDbText
 73
2
1001
FLOORFORGE
1000
floor:0
1000
preliminary
  0
LINE
  5
151
330
17
100
AcDbEntity
  8
A-DIMS
100
AcDbLine
 10
9992.0
 20
0.0
 30
0.0
 11
10842.0
 21
0.0
 31
0.0
1001
FLOORFORGE
1000
floor:0
1000
preliminary
  0
LINE
  5
152
330
17
100
AcDbEntity
  8
A-DIMS
100
AcDbLine
 10
9992.0
 20
13788.0
 30
0.0
 11
10842.0
 21
13788.0
 31
0.0
1001
FLOORFORGE
1000
floor:0
1000
preliminary
  0
LINE
  5
153
330
17
100
AcDbEntity
  8
A-DIMS
100
AcDbLine
 10
10842.0
 20
0.0
 30
0.0
 11
10842.0
 21
13788.0
 31
0.0
1001
FLOORFORGE
1000
floor:0
1000
preliminary
  0
LINE
  5
154
330
17
100
AcDbEntity
  8
A-DIMS
100
AcDbLine
 10
10782.0
 20
-60.0
 30
0.0
 11
10902.0
 21
60.0
 31
0.0
1001
FLOORFORGE
1000
floor:0
1000
preliminary
  0
LINE
  5
155
330
17
100
AcDbEntity
  8
A-DIMS
100
AcDbLine
 10
10782.0
 20
13728.0
 30
0.0
 11
10902.0
 21
13848.0
 31
0.0
1001
FLOORFORGE
1000
floor:0
1000
preliminary
  0
TEXT
  5
156
330
17
100
AcDbEntity
  8
A-DIMS
100
AcDbText
 10
10992.0
 20
6894.0
 30
0.0
 40
200.0
  1
13788
 11
10992.0
 21
6894.0
 31
0.0
100
AcDbText
1001
FLOORFORGE
1000
floor:0
1000
preliminary
  0
LINE
  5
157
330
17
100
AcDbEntity
  8
A-DIMS
100
AcDbLine
 10
0.0
 20
0.0
 30
0.0
 11
0.0
 21
-1250.0
 31
0.0
1001
FLOORFORGE
1000
floor:0
1000
preliminary
  0
LINE
  5
158
330
17
100
AcDbEntity
  8
A-DIMS
100
AcDbLine
 10
5646.0
 20
0.0
 30
0.0
 11
5646.0
 21
-1250.0
 31
0.0
1001
FLOORFORGE
1000
floor:0
1000
preliminary
  0
LINE
  5
159
330
17
100
AcDbEntity
  8
A-DIMS
100
AcDbLine
 10
0.0
 20
-1250.0
 30
0.0
 11
5646.0
 21
-1250.0
 31
0.0
1001
FLOORFORGE
1000
floor:0
1000
preliminary
  0
LINE
  5
15A
330
17
100
AcDbEntity
  8
A-DIMS
100
AcDbLine
 10
-60.0
 20
-1310.0
 30
0.0
 11
60.0
 21
-1190.0
 31
0.0
1001
FLOORFORGE
1000
floor:0
1000
preliminary
  0
LINE
  5
15B
330
17
100
AcDbEntity
  8
A-DIMS
100
AcDbLine
 10
5586.0
 20
-1310.0
 30
0.0
 11
5706.0
 21
-1190.0
 31
0.0
1001
FLOORFORGE
1000
floor:0
1000
preliminary
  0
TEXT
  5
15C
330
17
100
AcDbEntity
  8
A-DIMS
100
AcDbText
 10
2823.0
 20
-1100.0
 30
0.0
 40
200.0
  1
5646
 72
1
 11
2823.0
 21
-1100.0
 31
0.0
100
AcDbText
 73
2
1001
FLOORFORGE
1000
floor:0
1000
preliminary
  0
LINE
  5
15D
330
17
100
AcDbEntity
  8
A-DIMS
100
AcDbLine
 10
5646.0
 20
0.0
 30
0.0
 11
5646.0
 21
-1250.0
 31
0.0
1001
FLOORFORGE
1000
floor:0
1000
preliminary
  0
LINE
  5
15E
330
17
100
AcDbEntity
  8
A-DIMS
100
AcDbLine
 10
6846.0
 20
0.0
 30
0.0
 11
6846.0
 21
-1250.0
 31
0.0
1001
FLOORFORGE
1000
floor:0
1000
preliminary
  0
LINE
  5
15F
330
17
100
AcDbEntity
  8
A-DIMS
100
AcDbLine
 10
5646.0
 20
-1250.0
 30
0.0
 11
6846.0
 21
-1250.0
 31
0.0
1001
FLOORFORGE
1000
floor:0
1000
preliminary
  0
LINE
  5
160
330
17
100
AcDbEntity
  8
A-DIMS
100
AcDbLine
 10
5586.0
 20
-1310.0
 30
0.0
 11
5706.0
 21
-1190.0
 31
0.0
1001
FLOORFORGE
1000
floor:0
1000
preliminary
  0
LINE
  5
161
330
17
100
AcDbEntity
  8
A-DIMS
100
AcDbLine
 10
6786.0
 20
-1310.0
 30
0.0
 11
6906.0
 21
-1190.0
 31
0.0
1001
FLOORFORGE
1000
floor:0
1000
preliminary
  0
TEXT
  5
162
330
17
100
AcDbEntity
  8
A-DIMS
100
AcDbText
 10
6246.0
 20
-1100.0
 30
0.0
 40
200.0
  1
1200
 72
1
 11
6246.0
 21
-1100.0
 31
0.0
100
AcDbText
 73
2
1001
FLOORFORGE
1000
floor:0
1000
preliminary
  0
LINE
  5
163
330
17
100
AcDbEntity
  8
A-DIMS
100
AcDbLine
 10
6846.0
 20
0.0
 30
0.0
 11
6846.0
 21
-1250.0
 31
0.0
1001
FLOORFORGE
1000
floor:0
1000
preliminary
  0
LINE
  5
164
330
17
100
AcDbEntity
  8
A-DIMS
100
AcDbLine
 10
9992.0
 20
0.0
 30
0.0
 11
9992.0
 21
-1250.0
 31
0.0
1001
FLOORFORGE
1000
floor:0
1000
preliminary
  0
LINE
  5
165
330
17
100
AcDbEntity
  8
A-DIMS
100
AcDbLine
 10
6846.0
 20
-1250.0
 30
0.0
 11
9992.0
 21
-1250.0
 31
0.0
1001
FLOORFORGE
1000
floor:0
1000
preliminary
  0
LINE
  5
166
330
17
100
AcDbEntity
  8
A-DIMS
100
AcDbLine
 10
6786.0
 20
-1310.0
 30
0.0
 11
6906.0
 21
-1190.0
 31
0.0
1001
FLOORFORGE
1000
floor:0
1000
preliminary
  0
LINE
  5
167
330
17
100
AcDbEntity
  8
A-DIMS
100
AcDbLine
 10
9932.0
 20
-1310.0
 30
0.0
 11
10052.0
 21
-1190.0
 31
0.0
1001
FLOORFORGE
1000
floor:0
1000
preliminary
  0
TEXT
  5
168
330
17
100
AcDbEntity
  8
A-DIMS
100
AcDbText
 10
8419.0
 20
-1100.0
 30
0.0
 40
200.0
  1
3146
 72
1
 11
8419.0
 21
-1100.0
 31
0.0
100
AcDbText
 73
2
1001
FLOORFORGE
1000
floor:0
1000
preliminary
  0
LINE
  5
169
330
17
100
AcDbEntity
  8
A-DIMS
100
AcDbLine
 10
0.0
 20
13788.0
 30
0.0
 11
0.0
 21
14438.0
 31
0.0
1001
FLOORFORGE
1000
floor:0
1000
preliminary
  0
LINE
  5
16A
330
17
100
AcDbEntity
  8
A-DIMS
100
AcDbLine
 10
4246.0
 20
13788.0
 30
0.0
 11
4246.0
 21
14438.0
 31
0.0
1001
FLOORFORGE
1000
floor:0
1000
preliminary
  0
LINE
  5
16B
330
17
100
AcDbEntity
  8
A-DIMS
100
AcDbLine
 10
0.0
 20
14438.0
 30
0.0
 11
4246.0
 21
14438.0
 31
0.0
1001
FLOORFORGE
1000
floor:0
1000
preliminary
  0
LINE
  5
16C
330
17
100
AcDbEntity
  8
A-DIMS
100
AcDbLine
 10
-60.0
 20
14378.0
 30
0.0
 11
60.0
 21
14498.0
 31
0.0
1001
FLOORFORGE
1000
floor:0
1000
preliminary
  0
LINE
  5
16D
330
17
100
AcDbEntity
  8
A-DIMS
100
AcDbLine
 10
4186.0
 20
14378.0
 30
0.0
 11
4306.0
 21
14498.0
 31
0.0
1001
FLOORFORGE
1000
floor:0
1000
preliminary
  0
TEXT
  5
16E
330
17
100
AcDbEntity
  8
A-DIMS
100
AcDbText
 10
2123.0
 20
14588.0
 30
0.0
 40
200.0
  1
4246
 72
1
 11
2123.0
 21
14588.0
 31
0.0
100
AcDbText
 73
2
1001
FLOORFORGE
1000
floor:0
1000
preliminary
  0
LINE
  5
16F
330
17
100
AcDbEntity
  8
A-DIMS
100
AcDbLine
 10
4246.0
 20
13788.0
 30
0.0
 11
4246.0
 21
14438.0
 31
0.0
1001
FLOORFORGE
1000
floor:0
1000
preliminary
  0
LINE
  5
170
330
17
100
AcDbEntity
  8
A-DIMS
100
AcDbLine
 10
5746.0
 20
13788.0
 30
0.0
 11
5746.0
 21
14438.0
 31
0.0
1001
FLOORFORGE
1000
floor:0
1000
preliminary
  0
LINE
  5
171
330
17
100
AcDbEntity
  8
A-DIMS
100
AcDbLine
 10
4246.0
 20
14438.0
 30
0.0
 11
5746.0
 21
14438.0
 31
0.0
1001
FLOORFORGE
1000
floor:0
1000
preliminary
  0
LINE
  5
172
330
17
100
AcDbEntity
  8
A-DIMS
100
AcDbLine
 10
4186.0
 20
14378.0
 30
0.0
 11
4306.0
 21
14498.0
 31
0.0
1001
FLOORFORGE
1000
floor:0
1000
preliminary
  0
LINE
  5
173
330
17
100
AcDbEntity
  8
A-DIMS
100
AcDbLine
 10
5686.0
 20
14378.0
 30
0.0
 11
5806.0
 21
14498.0
 31
0.0
1001
FLOORFORGE
1000
floor:0
1000
preliminary
  0
TEXT
  5
174
330
17
100
AcDbEntity
  8
A-DIMS
100
AcDbText
 10
4996.0
 20
14588.0
 30
0.0
 40
200.0
  1
1500
 72
1
 11
4996.0
 21
14588.0
 31
0.0
100
AcDbText
 73
2
1001
FLOORFORGE
1000
floor:0
1000
preliminary
  0
LINE
  5
175
330
17
100
AcDbEntity
  8
A-DIMS
100
AcDbLine
 10
5746.0
 20
13788.0
 30
0.0
 11
5746.0
 21
14438.0
 31
0.0
1001
FLOORFORGE
1000
floor:0
1000
preliminary
  0
LINE
  5
176
330
17
100
AcDbEntity
  8
A-DIMS
100
AcDbLine
 10
9992.0
 20
13788.0
 30
0.0
 11
9992.0
 21
14438.0
 31
0.0
1001
FLOORFORGE
1000
floor:0
1000
preliminary
  0
LINE
  5
177
330
17
100
AcDbEntity
  8
A-DIMS
100
AcDbLine
 10
5746.0
 20
14438.0
 30
0.0
 11
9992.0
 21
14438.0
 31
0.0
1001
FLOORFORGE
1000
floor:0
1000
preliminary
  0
LINE
  5
178
330
17
100
AcDbEntity
  8
A-DIMS
100
AcDbLine
 10
5686.0
 20
14378.0
 30
0.0
 11
5806.0
 21
14498.0
 31
0.0
1001
FLOORFORGE
1000
floor:0
1000
preliminary
  0
LINE
  5
179
330
17
100
AcDbEntity
  8
A-DIMS
100
AcDbLine
 10
9932.0
 20
14378.0
 30
0.0
 11
10052.0
 21
14498.0
 31
0.0
1001
FLOORFORGE
1000
floor:0
1000
preliminary
  0
TEXT
  5
17A
330
17
100
AcDbEntity
  8
A-DIMS
100
AcDbText
 10
7869.0
 20
14588.0
 30
0.0
 40
200.0
  1
4246
 72
1
 11
7869.0
 21
14588.0
 31
0.0
100
AcDbText
 73
2
1001
FLOORFORGE
1000
floor:0
1000
preliminary
  0
LINE
  5
17B
330
17
100
AcDbEntity
  8
A-ANNO
100
AcDbLine
 10
-1200.0
 20
13288.0
 30
0.0
 11
-1200.0
 21
14088.0
 31
0.0
1001
FLOORFORGE
1000
floor:0
1000
preliminary
  0
TEXT
  5
17C
330
17
100
AcDbEntity
  8
A-ANNO
100
AcDbText
 10
-1199.9999999999998
 20
14388.0
 30
0.0
 40
280.0
  1
N
 72
1
 11
-1199.9999999999998
 21
14388.0
 31
0.0
100
AcDbText
 73
2
1001
FLOORFORGE
1000
floor:0
1000
preliminary
  0
DIMENSION
  5
17D
330
17
100
AcDbEntity
  8
A-DIMS
100
AcDbDimension
280
0
  2
*D1
  3
EZDXF
 10
0.0
 20
-2100.0
 30
0.0
 11
4996.0
 21
-1999.9
 31
0.0
 70
32
 71
5
  1
<>
100
AcDbAlignedDimension
 13
0.0
 23
0.0
 33
0.0
 14
9992.0
 24
0.0
 34
0.0
 50
0.0
100
AcDbRotatedDimension
1001
ACAD
1000
DSTYLE
1002
{
1070
140
1040
200.0
1070
41
1040
120.0
1070
42
1040
80.0
1070
44
1040
80.0
1002
}
  0
DIMENSION
  5
18C
330
17
100
AcDbEntity
  8
A-DIMS
100
AcDbDimension
280
0
  2
*D2
  3
EZDXF
 10
12092.0
 20
0.0
 30
0.0
 11
11991.9
 21
6894.0
 31
0.0
 70
32
 71
5
  1
<>
100
AcDbAlignedDimension
 13
9992.0
 23
0.0
 33
0.0
 14
9992.0
 24
13788.0
 34
0.0
 50
90.0
100
AcDbRotatedDimension
1001
ACAD
1000
DSTYLE
1002
{
1070
140
1040
200.0
1070
41
1040
120.0
1070
42
1040
80.0
1070
44
1040
80.0
1002
}
  0
TEXT
  5
19B
330
17
100
AcDbEntity
  8
A-ANNO
100
AcDbText
 10
0.0
 20
-2900.0
 30
0.0
 40
190.0
  1
PRELIMINARY - ENGINEER TO REVIEW - NOT FOR CONSTRUCTION
 11
0.0
 21
-2900.0
 31
0.0
100
AcDbText
  0
TEXT
  5
19C
330
17
100
AcDbEntity
  8
A-ANNO
100
AcDbText
 10
0.0
 20
15588.0
 30
0.0
 40
210.0
  1
FLOOR 0 / TRUE MILLIMETRES / NO STRUCTURAL CERTIFICATION
 11
0.0
 21
15588.0
 31
0.0
100
AcDbText
  0
LWPOLYLINE
  5
1A4
330
17
100
AcDbEntity
  8
A-FLOOR
100
AcDbPolyline
 90
7
 70
1
 10
18492.0
 20
4400.0
 10
18492.0
 20
230.0
 10
18262.0
 20
230.0
 10
16222.0
 20
230.0
 10
16222.0
 20
4170.0
 10
16222.0
 20
4270.0
 10
16222.0
 20
4400.0
1001
FLOORFORGE
1000
floor:1
1000
preliminary
  0
LWPOLYLINE
  5
1A5
330
17
100
AcDbEntity
  8
A-FLOOR
100
AcDbPolyline
 90
20
 70
1
 10
18492.0
 20
4400.0
 10
16222.0
 20
4400.0
 10
16222.0
 20
4425.0
 10
20163.0
 20
4425.0
 10
20313.0
 20
4425.0
 10
20313.0
 20
4500.0
 10
21663.0
 20
4500.0
 10
21663.0
 20
4425.0
 10
21738.0
 20
4425.0
 10
21813.0
 20
4425.0
 10
25754.0
 20
4425.0
 10
25754.0
 20
4270.0
 10
25754.0
 20
1665.0
 10
21502.68
 20
1665.0
 10
21272.68
 20
1665.0
 10
21272.68
 20
1550.0
 10
21272.68
 20
1435.0
 10
21272.68
 20
230.0
 10
18722.0
 20
230.0
 10
18492.0
 20
230.0
1001
FLOORFORGE
1000
floor:1
1000
preliminary
  0
LWPOLYLINE
  5
1A6
330
17
100
AcDbEntity
  8
A-FLOOR
100
AcDbPolyline
 90
8
 70
1
 10
25984.0
 20
0.0
 10
21617.68
 20
0.0
 10
21617.68
 20
230.0
 10
21502.68
 20
230.0
 10
21502.68
 20
1435.0
 10
25754.0
 20
1435.0
 10
25754.0
 20
1320.0
 10
25984.0
 20
1320.0
1001
FLOORFORGE
1000
floor:1
1000
preliminary
  0
LWPOLYLINE
  5
1A7
330
17
100
AcDbEntity
  8
A-FLOOR
100
AcDbPolyline
 90
15
 70
1
 10
20313.0
 20
4500.0
 10
20313.0
 20
4575.0
 10
20313.0
 20
7225.0
 10
20313.0
 20
7300.0
 10
20313.0
 20
7375.0
 10
20313.0
 20
8425.0
 10
21663.0
 20
8425.0
 10
21663.0
 20
7375.0
 10
21663.0
 20
7300.0
 10
21663.0
 20
7225.0
 10
21663.0
 20
5975.0
 10
21663.0
 20
5900.0
 10
21663.0
 20
5825.0
 10
21663.0
 20
4575.0
 10
21663.0
 20
4500.0
1001
FLOORFORGE
1000
floor:1
1000
preliminary
  0
LWPOLYLINE
  5
1A8
330
17
100
AcDbEntity
  8
A-FLOOR
100
AcDbPolyline
 90
7
 70
1
 10
16222.0
 20
4630.0
 10
16222.0
 20
4730.0
 10
16222.0
 20
7070.0
 10
16222.0
 20
7225.0
 10
20163.0
 20
7225.0
 10
20163.0
 20
4575.0
 10
16222.0
 20
4575.0
1001
FLOORFORGE
1000
floor:1
1000
preliminary
  0
LWPOLYLINE
  5
1A9
330
17
100
AcDbEntity
  8
A-FLOOR
100
AcDbPolyline
 90
6
 70
1
 10
25754.0
 20
5670.0
 10
25754.0
 20
4730.0
 10
25754.0
 20
4575.0
 10
21813.0
 20
4575.0
 10
21813.0
 20
5825.0
 10
25754.0
 20
5825.0
1001
FLOORFORGE
1000
floor:1
1000
preliminary
  0
LWPOLYLINE
  5
1AA
330
17
100
AcDbEntity
  8
A-FLOOR
100
AcDbPolyline
 90
6
 70
1
 10
25754.0
 20
5975.0
 10
21813.0
 20
5975.0
 10
21813.0
 20
7225.0
 10
25754.0
 20
7225.0
 10
25754.0
 20
7070.0
 10
25754.0
 20
6130.0
1001
FLOORFORGE
1000
floor:1
1000
preliminary
  0
LWPOLYLINE
  5
1AB
330
17
100
AcDbEntity
  8
A-FLOOR
100
AcDbPolyline
 90
14
 70
1
 10
20468.0
 20
13558.0
 10
21508.0
 20
13558.0
 10
21663.0
 20
13558.0
 10
21663.0
 20
8575.0
 10
20313.0
 20
8575.0
 10
20163.0
 20
8575.0
 10
20163.0
 20
8500.0
 10
20163.0
 20
8425.0
 10
20163.0
 20
7375.0
 10
16222.0
 20
7375.0
 10
16222.0
 20
7530.0
 10
16222.0
 20
13558.0
 10
20008.0
 20
13558.0
 10
20238.0
 20
13558.0
1001
FLOORFORGE
1000
floor:1
1000
preliminary
  0
LWPOLYLINE
  5
1AC
330
17
100
AcDbEntity
  8
A-FLOOR
100
AcDbPolyline
 90
9
 70
1
 10
21813.0
 20
8575.0
 10
21813.0
 20
13558.0
 10
21968.0
 20
13558.0
 10
25754.0
 20
13558.0
 10
25754.0
 20
7530.0
 10
25754.0
 20
7375.0
 10
21813.0
 20
7375.0
 10
21813.0
 20
8425.0
 10
21813.0
 20
8500.0
1001
FLOORFORGE
1000
floor:1
1000
preliminary
  0
LWPOLYLINE
  5
1AD
330
17
100
AcDbEntity
  8
A-WALL
100
AcDbPolyline
 90
5
 70
1
 10
16222.0
 20
4630.0
 10
16222.0
 20
0.0
 10
15992.0
 20
0.0
 10
15992.0
 20
4630.0
 10
16222.0
 20
4630.0
1001
FLOORFORGE
1000
floor:1
1000
preliminary
  0
HATCH
  5
1AE
330
17
100
AcDbEntity
  8
A-WALL
 62
7
100
AcDbHatch
 10
0.0
 20
0.0
 30
0.0
210
0.0
220
0.0
230
1.0
  2
SOLID
 70
1
 71
0
 91
1
 92
3
 72
0
 73
1
 93
5
 10
16222.0
 20
4630.0
 10
16222.0
 20
0.0
 10
15992.0
 20
0.0
 10
15992.0
 20
4630.0
 10
16222.0
 20
4630.0
 97
0
 75
0
 76
1
 98
0
  0
LWPOLYLINE
  5
1AF
330
17
100
AcDbEntity
  8
A-WALL
100
AcDbPolyline
 90
6
 70
1
 10
18722.0
 20
230.0
 10
18722.0
 20
0.0
 10
15992.0
 20
0.0
 10
15992.0
 20
230.0
 10
18492.0
 20
230.0
 10
18722.0
 20
230.0
1001
FLOORFORGE
1000
floor:1
1000
preliminary
  0
HATCH
  5
1B0
330
17
100
AcDbEntity
  8
A-WALL
 62
7
100
AcDbHatch
 10
0.0
 20
0.0
 30
0.0
210
0.0
220
0.0
230
1.0
  2
SOLID
 70
1
 71
0
 91
1
 92
3
 72
0
 73
1
 93
6
 10
18722.0
 20
230.0
 10
18722.0
 20
0.0
 10
15992.0
 20
0.0
 10
15992.0
 20
230.0
 10
18492.0
 20
230.0
 10
18722.0
 20
230.0
 97
0
 75
0
 76
1
 98
0
  0
LWPOLYLINE
  5
1B1
330
17
100
AcDbEntity
  8
A-WALL
100
AcDbPolyline
 90
6
 70
1
 10
16222.0
 20
4730.0
 10
16222.0
 20
4400.0
 10
16222.0
 20
4170.0
 10
15992.0
 20
4170.0
 10
15992.0
 20
4730.0
 10
16222.0
 20
4730.0
1001
FLOORFORGE
1000
floor:1
1000
preliminary
  0
HATCH
  5
1B2
330
17
100
AcDbEntity
  8
A-WALL
 62
7
100
AcDbHatch
 10
0.0
 20
0.0
 30
0.0
210
0.0
220
0.0
230
1.0
  2
SOLID
 70
1
 71
0
 91
1
 92
3
 72
0
 73
1
 93
6
 10
16222.0
 20
4730.0
 10
16222.0
 20
4400.0
 10
16222.0
 20
4170.0
 10
15992.0
 20
4170.0
 10
15992.0
 20
4730.0
 10
16222.0
 20
4730.0
 97
0
 75
0
 76
1
 98
0
  0
LWPOLYLINE
  5
1B3
330
17
100
AcDbEntity
  8
A-WALL
100
AcDbPolyline
 90
5
 70
1
 10
16222.0
 20
6670.0
 10
15992.0
 20
6670.0
 10
15992.0
 20
7530.0
 10
16222.0
 20
7530.0
 10
16222.0
 20
6670.0
1001
FLOORFORGE
1000
floor:1
1000
preliminary
  0
HATCH
  5
1B4
330
17
100
AcDbEntity
  8
A-WALL
 62
7
100
AcDbHatch
 10
0.0
 20
0.0
 30
0.0
210
0.0
220
0.0
230
1.0
  2
SOLID
 70
1
 71
0
 91
1
 92
3
 72
0
 73
1
 93
5
 10
16222.0
 20
6670.0
 10
15992.0
 20
6670.0
 10
15992.0
 20
7530.0
 10
16222.0
 20
7530.0
 10
16222.0
 20
6670.0
 97
0
 75
0
 76
1
 98
0
  0
LWPOLYLINE
  5
1B5
330
17
100
AcDbEntity
  8
A-WALL
100
AcDbPolyline
 90
6
 70
1
 10
16222.0
 20
4500.0
 10
16222.0
 20
4270.0
 10
15992.0
 20
4270.0
 10
15992.0
 20
5130.0
 10
16222.0
 20
5130.0
 10
16222.0
 20
4500.0
1001
FLOORFORGE
1000
floor:1
1000
preliminary
  0
HATCH
  5
1B6
330
17
100
AcDbEntity
  8
A-WALL
 62
7
100
AcDbHatch
 10
0.0
 20
0.0
 30
0.0
210
0.0
220
0.0
230
1.0
  2
SOLID
 70
1
 71
0
 91
1
 92
3
 72
0
 73
1
 93
6
 10
16222.0
 20
4500.0
 10
16222.0
 20
4270.0
 10
15992.0
 20
4270.0
 10
15992.0
 20
5130.0
 10
16222.0
 20
5130.0
 10
16222.0
 20
4500.0
 97
0
 75
0
 76
1
 98
0
  0
LWPOLYLINE
  5
1B7
330
17
100
AcDbEntity
  8
A-WALL
100
AcDbPolyline
 90
6
 70
1
 10
20313.0
 20
4575.0
 10
20313.0
 20
4425.0
 10
15992.0
 20
4425.0
 10
15992.0
 20
4575.0
 10
20238.0
 20
4575.0
 10
20313.0
 20
4575.0
1001
FLOORFORGE
1000
floor:1
1000
preliminary
  0
HATCH
  5
1B8
330
17
100
AcDbEntity
  8
A-WALL
 62
7
100
AcDbHatch
 10
0.0
 20
0.0
 30
0.0
210
0.0
220
0.0
230
1.0
  2
SOLID
 70
1
 71
0
 91
1
 92
3
 72
0
 73
1
 93
6
 10
20313.0
 20
4575.0
 10
20313.0
 20
4425.0
 10
15992.0
 20
4425.0
 10
15992.0
 20
4575.0
 10
20238.0
 20
4575.0
 10
20313.0
 20
4575.0
 97
0
 75
0
 76
1
 98
0
  0
LWPOLYLINE
  5
1B9
330
17
100
AcDbEntity
  8
A-WALL
100
AcDbPolyline
 90
6
 70
1
 10
16222.0
 20
7070.0
 10
15992.0
 20
7070.0
 10
15992.0
 20
9144.0
 10
16222.0
 20
9144.0
 10
16222.0
 20
7300.0
 10
16222.0
 20
7070.0
1001
FLOORFORGE
1000
floor:1
1000
preliminary
  0
HATCH
  5
1BA
330
17
100
AcDbEntity
  8
A-WALL
 62
7
100
AcDbHatch
 10
0.0
 20
0.0
 30
0.0
210
0.0
220
0.0
230
1.0
  2
SOLID
 70
1
 71
0
 91
1
 92
3
 72
0
 73
1
 93
6
 10
16222.0
 20
7070.0
 10
15992.0
 20
7070.0
 10
15992.0
 20
9144.0
 10
16222.0
 20
9144.0
 10
16222.0
 20
7300.0
 10
16222.0
 20
7070.0
 97
0
 75
0
 76
1
 98
0
  0
LWPOLYLINE
  5
1BB
330
17
100
AcDbEntity
  8
A-WALL
100
AcDbPolyline
 90
5
 70
1
 10
15992.0
 20
13788.0
 10
16222.0
 20
13788.0
 10
16222.0
 20
11944.0
 10
15992.0
 20
11944.0
 10
15992.0
 20
13788.0
1001
FLOORFORGE
1000
floor:1
1000
preliminary
  0
HATCH
  5
1BC
330
17
100
AcDbEntity
  8
A-WALL
 62
7
100
AcDbHatch
 10
0.0
 20
0.0
 30
0.0
210
0.0
220
0.0
230
1.0
  2
SOLID
 70
1
 71
0
 91
1
 92
3
 72
0
 73
1
 93
5
 10
15992.0
 20
13788.0
 10
16222.0
 20
13788.0
 10
16222.0
 20
11944.0
 10
15992.0
 20
11944.0
 10
15992.0
 20
13788.0
 97
0
 75
0
 76
1
 98
0
  0
LWPOLYLINE
  5
1BD
330
17
100
AcDbEntity
  8
A-WALL
100
AcDbPolyline
 90
6
 70
1
 10
20313.0
 20
7375.0
 10
20313.0
 20
7225.0
 10
15992.0
 20
7225.0
 10
15992.0
 20
7375.0
 10
20238.0
 20
7375.0
 10
20313.0
 20
7375.0
1001
FLOORFORGE
1000
floor:1
1000
preliminary
  0
HATCH
  5
1BE
330
17
100
AcDbEntity
  8
A-WALL
 62
7
100
AcDbHatch
 10
0.0
 20
0.0
 30
0.0
210
0.0
220
0.0
230
1.0
  2
SOLID
 70
1
 71
0
 91
1
 92
3
 72
0
 73
1
 93
6
 10
20313.0
 20
7375.0
 10
20313.0
 20
7225.0
 10
15992.0
 20
7225.0
 10
15992.0
 20
7375.0
 10
20238.0
 20
7375.0
 10
20313.0
 20
7375.0
 97
0
 75
0
 76
1
 98
0
  0
LWPOLYLINE
  5
1BF
330
17
100
AcDbEntity
  8
A-WALL
100
AcDbPolyline
 90
5
 70
1
 10
19432.0
 20
13558.0
 10
19432.0
 20
13788.0
 10
20468.0
 20
13788.0
 10
20468.0
 20
13558.0
 10
19432.0
 20
13558.0
1001
FLOORFORGE
1000
floor:1
1000
preliminary
  0
HATCH
  5
1C0
330
17
100
AcDbEntity
  8
A-WALL
 62
7
100
AcDbHatch
 10
0.0
 20
0.0
 30
0.0
210
0.0
220
0.0
230
1.0
  2
SOLID
 70
1
 71
0
 91
1
 92
3
 72
0
 73
1
 93
5
 10
19432.0
 20
13558.0
 10
19432.0
 20
13788.0
 10
20468.0
 20
13788.0
 10
20468.0
 20
13558.0
 10
19432.0
 20
13558.0
 97
0
 75
0
 76
1
 98
0
  0
LWPOLYLINE
  5
1C1
330
17
100
AcDbEntity
  8
A-WALL
100
AcDbPolyline
 90
5
 70
1
 10
15992.0
 20
13558.0
 10
15992.0
 20
13788.0
 10
16799.0
 20
13788.0
 10
16799.0
 20
13558.0
 10
15992.0
 20
13558.0
1001
FLOORFORGE
1000
floor:1
1000
preliminary
  0
HATCH
  5
1C2
330
17
100
AcDbEntity
  8
A-WALL
 62
7
100
AcDbHatch
 10
0.0
 20
0.0
 30
0.0
210
0.0
220
0.0
230
1.0
  2
SOLID
 70
1
 71
0
 91
1
 92
3
 72
0
 73
1
 93
5
 10
15992.0
 20
13558.0
 10
15992.0
 20
13788.0
 10
16799.0
 20
13788.0
 10
16799.0
 20
13558.0
 10
15992.0
 20
13558.0
 97
0
 75
0
 76
1
 98
0
  0
LWPOLYLINE
  5
1C3
330
17
100
AcDbEntity
  8
A-WALL
100
AcDbPolyline
 90
6
 70
1
 10
21617.68
 20
0.0
 10
21088.0
 20
0.0
 10
21088.0
 20
230.0
 10
21387.68
 20
230.0
 10
21617.68
 20
230.0
 10
21617.68
 20
0.0
1001
FLOORFORGE
1000
floor:1
1000
preliminary
  0
HATCH
  5
1C4
330
17
100
AcDbEntity
  8
A-WALL
 62
7
100
AcDbHatch
 10
0.0
 20
0.0
 30
0.0
210
0.0
220
0.0
230
1.0
  2
SOLID
 70
1
 71
0
 91
1
 92
3
 72
0
 73
1
 93
6
 10
21617.68
 20
0.0
 10
21088.0
 20
0.0
 10
21088.0
 20
230.0
 10
21387.68
 20
230.0
 10
21617.68
 20
230.0
 10
21617.68
 20
0.0
 97
0
 75
0
 76
1
 98
0
  0
LWPOLYLINE
  5
1C5
330
17
100
AcDbEntity
  8
A-WALL
100
AcDbPolyline
 90
5
 70
1
 10
18262.0
 20
0.0
 10
18262.0
 20
230.0
 10
18792.0
 20
230.0
 10
18792.0
 20
0.0
 10
18262.0
 20
0.0
1001
FLOORFORGE
1000
floor:1
1000
preliminary
  0
HATCH
  5
1C6
330
17
100
AcDbEntity
  8
A-WALL
 62
7
100
AcDbHatch
 10
0.0
 20
0.0
 30
0.0
210
0.0
220
0.0
230
1.0
  2
SOLID
 70
1
 71
0
 91
1
 92
3
 72
0
 73
1
 93
5
 10
18262.0
 20
0.0
 10
18262.0
 20
230.0
 10
18792.0
 20
230.0
 10
18792.0
 20
0.0
 10
18262.0
 20
0.0
 97
0
 75
0
 76
1
 98
0
  0
LWPOLYLINE
  5
1C7
330
17
100
AcDbEntity
  8
A-WALL
100
AcDbPolyline
 90
6
 70
1
 10
20313.0
 20
7375.0
 10
20313.0
 20
6375.0
 10
20163.0
 20
6375.0
 10
20163.0
 20
7300.0
 10
20163.0
 20
7375.0
 10
20313.0
 20
7375.0
1001
FLOORFORGE
1000
floor:1
1000
preliminary
  0
HATCH
  5
1C8
330
17
100
AcDbEntity
  8
A-WALL
 62
7
100
AcDbHatch
 10
0.0
 20
0.0
 30
0.0
210
0.0
220
0.0
230
1.0
  2
SOLID
 70
1
 71
0
 91
1
 92
3
 72
0
 73
1
 93
6
 10
20313.0
 20
7375.0
 10
20313.0
 20
6375.0
 10
20163.0
 20
6375.0
 10
20163.0
 20
7300.0
 10
20163.0
 20
7375.0
 10
20313.0
 20
7375.0
 97
0
 75
0
 76
1
 98
0
  0
LWPOLYLINE
  5
1C9
330
17
100
AcDbEntity
  8
A-WALL
100
AcDbPolyline
 90
6
 70
1
 10
20313.0
 20
4500.0
 10
20313.0
 20
4425.0
 10
20163.0
 20
4425.0
 10
20163.0
 20
5425.0
 10
20313.0
 20
5425.0
 10
20313.0
 20
4500.0
1001
FLOORFORGE
1000
floor:1
1000
preliminary
  0
HATCH
  5
1CA
330
17
100
AcDbEntity
  8
A-WALL
 62
7
100
AcDbHatch
 10
0.0
 20
0.0
 30
0.0
210
0.0
220
0.0
230
1.0
  2
SOLID
 70
1
 71
0
 91
1
 92
3
 72
0
 73
1
 93
6
 10
20313.0
 20
4500.0
 10
20313.0
 20
4425.0
 10
20163.0
 20
4425.0
 10
20163.0
 20
5425.0
 10
20313.0
 20
5425.0
 10
20313.0
 20
4500.0
 97
0
 75
0
 76
1
 98
0
  0
LWPOLYLINE
  5
1CB
330
17
100
AcDbEntity
  8
A-WALL
100
AcDbPolyline
 90
7
 70
1
 10
20163.0
 20
8575.0
 10
20313.0
 20
8575.0
 10
20313.0
 20
7300.0
 10
20313.0
 20
7225.0
 10
20163.0
 20
7225.0
 10
20163.0
 20
8500.0
 10
20163.0
 20
8575.0
1001
FLOORFORGE
1000
floor:1
1000
preliminary
  0
HATCH
  5
1CC
330
17
100
AcDbEntity
  8
A-WALL
 62
7
100
AcDbHatch
 10
0.0
 20
0.0
 30
0.0
210
0.0
220
0.0
230
1.0
  2
SOLID
 70
1
 71
0
 91
1
 92
3
 72
0
 73
1
 93
7
 10
20163.0
 20
8575.0
 10
20313.0
 20
8575.0
 10
20313.0
 20
7300.0
 10
20313.0
 20
7225.0
 10
20163.0
 20
7225.0
 10
20163.0
 20
8500.0
 10
20163.0
 20
8575.0
 97
0
 75
0
 76
1
 98
0
  0
LWPOLYLINE
  5
1CD
330
17
100
AcDbEntity
  8
A-WALL
100
AcDbPolyline
 90
6
 70
1
 10
21813.0
 20
8425.0
 10
21463.0
 20
8425.0
 10
21463.0
 20
8575.0
 10
21738.0
 20
8575.0
 10
21813.0
 20
8575.0
 10
21813.0
 20
8425.0
1001
FLOORFORGE
1000
floor:1
1000
preliminary
  0
HATCH
  5
1CE
330
17
100
AcDbEntity
  8
A-WALL
 62
7
100
AcDbHatch
 10
0.0
 20
0.0
 30
0.0
210
0.0
220
0.0
230
1.0
  2
SOLID
 70
1
 71
0
 91
1
 92
3
 72
0
 73
1
 93
6
 10
21813.0
 20
8425.0
 10
21463.0
 20
8425.0
 10
21463.0
 20
8575.0
 10
21738.0
 20
8575.0
 10
21813.0
 20
8575.0
 10
21813.0
 20
8425.0
 97
0
 75
0
 76
1
 98
0
  0
LWPOLYLINE
  5
1CF
330
17
100
AcDbEntity
  8
A-WALL
100
AcDbPolyline
 90
6
 70
1
 10
20238.0
 20
8425.0
 10
20163.0
 20
8425.0
 10
20163.0
 20
8575.0
 10
20513.0
 20
8575.0
 10
20513.0
 20
8425.0
 10
20238.0
 20
8425.0
1001
FLOORFORGE
1000
floor:1
1000
preliminary
  0
HATCH
  5
1D0
330
17
100
AcDbEntity
  8
A-WALL
 62
7
100
AcDbHatch
 10
0.0
 20
0.0
 30
0.0
210
0.0
220
0.0
230
1.0
  2
SOLID
 70
1
 71
0
 91
1
 92
3
 72
0
 73
1
 93
6
 10
20238.0
 20
8425.0
 10
20163.0
 20
8425.0
 10
20163.0
 20
8575.0
 10
20513.0
 20
8575.0
 10
20513.0
 20
8425.0
 10
20238.0
 20
8425.0
 97
0
 75
0
 76
1
 98
0
  0
LWPOLYLINE
  5
1D1
330
17
100
AcDbEntity
  8
A-WALL
100
AcDbPolyline
 90
5
 70
1
 10
21438.0
 20
13558.0
 10
21438.0
 20
13788.0
 10
21968.0
 20
13788.0
 10
21968.0
 20
13558.0
 10
21438.0
 20
13558.0
1001
FLOORFORGE
1000
floor:1
1000
preliminary
  0
HATCH
  5
1D2
330
17
100
AcDbEntity
  8
A-WALL
 62
7
100
AcDbHatch
 10
0.0
 20
0.0
 30
0.0
210
0.0
220
0.0
230
1.0
  2
SOLID
 70
1
 71
0
 91
1
 92
3
 72
0
 73
1
 93
5
 10
21438.0
 20
13558.0
 10
21438.0
 20
13788.0
 10
21968.0
 20
13788.0
 10
21968.0
 20
13558.0
 10
21438.0
 20
13558.0
 97
0
 75
0
 76
1
 98
0
  0
LWPOLYLINE
  5
1D3
330
17
100
AcDbEntity
  8
A-WALL
100
AcDbPolyline
 90
6
 70
1
 10
20238.0
 20
13558.0
 10
20008.0
 20
13558.0
 10
20008.0
 20
13788.0
 10
20538.0
 20
13788.0
 10
20538.0
 20
13558.0
 10
20238.0
 20
13558.0
1001
FLOORFORGE
1000
floor:1
1000
preliminary
  0
HATCH
  5
1D4
330
17
100
AcDbEntity
  8
A-WALL
 62
7
100
AcDbHatch
 10
0.0
 20
0.0
 30
0.0
210
0.0
220
0.0
230
1.0
  2
SOLID
 70
1
 71
0
 91
1
 92
3
 72
0
 73
1
 93
6
 10
20238.0
 20
13558.0
 10
20008.0
 20
13558.0
 10
20008.0
 20
13788.0
 10
20538.0
 20
13788.0
 10
20538.0
 20
13558.0
 10
20238.0
 20
13558.0
 97
0
 75
0
 76
1
 98
0
  0
LWPOLYLINE
  5
1D5
330
17
100
AcDbEntity
  8
A-WALL
100
AcDbPolyline
 90
6
 70
1
 10
21272.68
 20
1665.0
 10
21502.68
 20
1665.0
 10
21502.68
 20
0.0
 10
21272.68
 20
0.0
 10
21272.68
 20
1550.0
 10
21272.68
 20
1665.0
1001
FLOORFORGE
1000
floor:1
1000
preliminary
  0
HATCH
  5
1D6
330
17
100
AcDbEntity
  8
A-WALL
 62
7
100
AcDbHatch
 10
0.0
 20
0.0
 30
0.0
210
0.0
220
0.0
230
1.0
  2
SOLID
 70
1
 71
0
 91
1
 92
3
 72
0
 73
1
 93
6
 10
21272.68
 20
1665.0
 10
21502.68
 20
1665.0
 10
21502.68
 20
0.0
 10
21272.68
 20
0.0
 10
21272.68
 20
1550.0
 10
21272.68
 20
1665.0
 97
0
 75
0
 76
1
 98
0
  0
LWPOLYLINE
  5
1D7
330
17
100
AcDbEntity
  8
A-WALL
100
AcDbPolyline
 90
6
 70
1
 10
21272.68
 20
1435.0
 10
21272.68
 20
1665.0
 10
22335.68
 20
1665.0
 10
22335.68
 20
1435.0
 10
21387.68
 20
1435.0
 10
21272.68
 20
1435.0
1001
FLOORFORGE
1000
floor:1
1000
preliminary
  0
HATCH
  5
1D8
330
17
100
AcDbEntity
  8
A-WALL
 62
7
100
AcDbHatch
 10
0.0
 20
0.0
 30
0.0
210
0.0
220
0.0
230
1.0
  2
SOLID
 70
1
 71
0
 91
1
 92
3
 72
0
 73
1
 93
6
 10
21272.68
 20
1435.0
 10
21272.68
 20
1665.0
 10
22335.68
 20
1665.0
 10
22335.68
 20
1435.0
 10
21387.68
 20
1435.0
 10
21272.68
 20
1435.0
 97
0
 75
0
 76
1
 98
0
  0
LWPOLYLINE
  5
1D9
330
17
100
AcDbEntity
  8
A-WALL
100
AcDbPolyline
 90
5
 70
1
 10
25984.0
 20
1665.0
 10
25984.0
 20
1435.0
 10
25035.68
 20
1435.0
 10
25035.68
 20
1665.0
 10
25984.0
 20
1665.0
1001
FLOORFORGE
1000
floor:1
1000
preliminary
  0
HATCH
  5
1DA
330
17
100
AcDbEntity
  8
A-WALL
 62
7
100
AcDbHatch
 10
0.0
 20
0.0
 30
0.0
210
0.0
220
0.0
230
1.0
  2
SOLID
 70
1
 71
0
 91
1
 92
3
 72
0
 73
1
 93
5
 10
25984.0
 20
1665.0
 10
25984.0
 20
1435.0
 10
25035.68
 20
1435.0
 10
25035.68
 20
1665.0
 10
25984.0
 20
1665.0
 97
0
 75
0
 76
1
 98
0
  0
LWPOLYLINE
  5
1DB
330
17
100
AcDbEntity
  8
A-WALL
100
AcDbPolyline
 90
6
 70
1
 10
21813.0
 20
5975.0
 10
21813.0
 20
5625.0
 10
21663.0
 20
5625.0
 10
21663.0
 20
5900.0
 10
21663.0
 20
5975.0
 10
21813.0
 20
5975.0
1001
FLOORFORGE
1000
floor:1
1000
preliminary
  0
HATCH
  5
1DC
330
17
100
AcDbEntity
  8
A-WALL
 62
7
100
AcDbHatch
 10
0.0
 20
0.0
 30
0.0
210
0.0
220
0.0
230
1.0
  2
SOLID
 70
1
 71
0
 91
1
 92
3
 72
0
 73
1
 93
6
 10
21813.0
 20
5975.0
 10
21813.0
 20
5625.0
 10
21663.0
 20
5625.0
 10
21663.0
 20
5900.0
 10
21663.0
 20
5975.0
 10
21813.0
 20
5975.0
 97
0
 75
0
 76
1
 98
0
  0
LWPOLYLINE
  5
1DD
330
17
100
AcDbEntity
  8
A-WALL
100
AcDbPolyline
 90
6
 70
1
 10
21813.0
 20
4500.0
 10
21813.0
 20
4425.0
 10
21663.0
 20
4425.0
 10
21663.0
 20
4775.0
 10
21813.0
 20
4775.0
 10
21813.0
 20
4500.0
1001
FLOORFORGE
1000
floor:1
1000
preliminary
  0
HATCH
  5
1DE
330
17
100
AcDbEntity
  8
A-WALL
 62
7
100
AcDbHatch
 10
0.0
 20
0.0
 30
0.0
210
0.0
220
0.0
230
1.0
  2
SOLID
 70
1
 71
0
 91
1
 92
3
 72
0
 73
1
 93
6
 10
21813.0
 20
4500.0
 10
21813.0
 20
4425.0
 10
21663.0
 20
4425.0
 10
21663.0
 20
4775.0
 10
21813.0
 20
4775.0
 10
21813.0
 20
4500.0
 97
0
 75
0
 76
1
 98
0
  0
LWPOLYLINE
  5
1DF
330
17
100
AcDbEntity
  8
A-WALL
100
AcDbPolyline
 90
6
 70
1
 10
21738.0
 20
4425.0
 10
21663.0
 20
4425.0
 10
21663.0
 20
4575.0
 10
25984.0
 20
4575.0
 10
25984.0
 20
4425.0
 10
21738.0
 20
4425.0
1001
FLOORFORGE
1000
floor:1
1000
preliminary
  0
HATCH
  5
1E0
330
17
100
AcDbEntity
  8
A-WALL
 62
7
100
AcDbHatch
 10
0.0
 20
0.0
 30
0.0
210
0.0
220
0.0
230
1.0
  2
SOLID
 70
1
 71
0
 91
1
 92
3
 72
0
 73
1
 93
6
 10
21738.0
 20
4425.0
 10
21663.0
 20
4425.0
 10
21663.0
 20
4575.0
 10
25984.0
 20
4575.0
 10
25984.0
 20
4425.0
 10
21738.0
 20
4425.0
 97
0
 75
0
 76
1
 98
0
  0
LWPOLYLINE
  5
1E1
330
17
100
AcDbEntity
  8
A-WALL
100
AcDbPolyline
 90
6
 70
1
 10
21813.0
 20
7375.0
 10
21813.0
 20
7025.0
 10
21663.0
 20
7025.0
 10
21663.0
 20
7300.0
 10
21663.0
 20
7375.0
 10
21813.0
 20
7375.0
1001
FLOORFORGE
1000
floor:1
1000
preliminary
  0
HATCH
  5
1E2
330
17
100
AcDbEntity
  8
A-WALL
 62
7
100
AcDbHatch
 10
0.0
 20
0.0
 30
0.0
210
0.0
220
0.0
230
1.0
  2
SOLID
 70
1
 71
0
 91
1
 92
3
 72
0
 73
1
 93
6
 10
21813.0
 20
7375.0
 10
21813.0
 20
7025.0
 10
21663.0
 20
7025.0
 10
21663.0
 20
7300.0
 10
21663.0
 20
7375.0
 10
21813.0
 20
7375.0
 97
0
 75
0
 76
1
 98
0
  0
LWPOLYLINE
  5
1E3
330
17
100
AcDbEntity
  8
A-WALL
100
AcDbPolyline
 90
6
 70
1
 10
21813.0
 20
5900.0
 10
21813.0
 20
5825.0
 10
21663.0
 20
5825.0
 10
21663.0
 20
6175.0
 10
21813.0
 20
6175.0
 10
21813.0
 20
5900.0
1001
FLOORFORGE
1000
floor:1
1000
preliminary
  0
HATCH
  5
1E4
330
17
100
AcDbEntity
  8
A-WALL
 62
7
100
AcDbHatch
 10
0.0
 20
0.0
 30
0.0
210
0.0
220
0.0
230
1.0
  2
SOLID
 70
1
 71
0
 91
1
 92
3
 72
0
 73
1
 93
6
 10
21813.0
 20
5900.0
 10
21813.0
 20
5825.0
 10
21663.0
 20
5825.0
 10
21663.0
 20
6175.0
 10
21813.0
 20
6175.0
 10
21813.0
 20
5900.0
 97
0
 75
0
 76
1
 98
0
  0
LWPOLYLINE
  5
1E5
330
17
100
AcDbEntity
  8
A-WALL
100
AcDbPolyline
 90
6
 70
1
 10
21738.0
 20
5825.0
 10
21663.0
 20
5825.0
 10
21663.0
 20
5975.0
 10
25984.0
 20
5975.0
 10
25984.0
 20
5825.0
 10
21738.0
 20
5825.0
1001
FLOORFORGE
1000
floor:1
1000
preliminary
  0
HATCH
  5
1E6
330
17
100
AcDbEntity
  8
A-WALL
 62
7
100
AcDbHatch
 10
0.0
 20
0.0
 30
0.0
210
0.0
220
0.0
230
1.0
  2
SOLID
 70
1
 71
0
 91
1
 92
3
 72
0
 73
1
 93
6
 10
21738.0
 20
5825.0
 10
21663.0
 20
5825.0
 10
21663.0
 20
5975.0
 10
25984.0
 20
5975.0
 10
25984.0
 20
5825.0
 10
21738.0
 20
5825.0
 97
0
 75
0
 76
1
 98
0
  0
LWPOLYLINE
  5
1E7
330
17
100
AcDbEntity
  8
A-WALL
100
AcDbPolyline
 90
6
 70
1
 10
21813.0
 20
8575.0
 10
21813.0
 20
8350.0
 10
21663.0
 20
8350.0
 10
21663.0
 20
8500.0
 10
21663.0
 20
8575.0
 10
21813.0
 20
8575.0
1001
FLOORFORGE
1000
floor:1
1000
preliminary
  0
HATCH
  5
1E8
330
17
100
AcDbEntity
  8
A-WALL
 62
7
100
AcDbHatch
 10
0.0
 20
0.0
 30
0.0
210
0.0
220
0.0
230
1.0
  2
SOLID
 70
1
 71
0
 91
1
 92
3
 72
0
 73
1
 93
6
 10
21813.0
 20
8575.0
 10
21813.0
 20
8350.0
 10
21663.0
 20
8350.0
 10
21663.0
 20
8500.0
 10
21663.0
 20
8575.0
 10
21813.0
 20
8575.0
 97
0
 75
0
 76
1
 98
0
  0
LWPOLYLINE
  5
1E9
330
17
100
AcDbEntity
  8
A-WALL
100
AcDbPolyline
 90
6
 70
1
 10
21813.0
 20
7300.0
 10
21813.0
 20
7225.0
 10
21663.0
 20
7225.0
 10
21663.0
 20
7450.0
 10
21813.0
 20
7450.0
 10
21813.0
 20
7300.0
1001
FLOORFORGE
1000
floor:1
1000
preliminary
  0
HATCH
  5
1EA
330
17
100
AcDbEntity
  8
A-WALL
 62
7
100
AcDbHatch
 10
0.0
 20
0.0
 30
0.0
210
0.0
220
0.0
230
1.0
  2
SOLID
 70
1
 71
0
 91
1
 92
3
 72
0
 73
1
 93
6
 10
21813.0
 20
7300.0
 10
21813.0
 20
7225.0
 10
21663.0
 20
7225.0
 10
21663.0
 20
7450.0
 10
21813.0
 20
7450.0
 10
21813.0
 20
7300.0
 97
0
 75
0
 76
1
 98
0
  0
LWPOLYLINE
  5
1EB
330
17
100
AcDbEntity
  8
A-WALL
100
AcDbPolyline
 90
6
 70
1
 10
21738.0
 20
7225.0
 10
21663.0
 20
7225.0
 10
21663.0
 20
7375.0
 10
25984.0
 20
7375.0
 10
25984.0
 20
7225.0
 10
21738.0
 20
7225.0
1001
FLOORFORGE
1000
floor:1
1000
preliminary
  0
HATCH
  5
1EC
330
17
100
AcDbEntity
  8
A-WALL
 62
7
100
AcDbHatch
 10
0.0
 20
0.0
 30
0.0
210
0.0
220
0.0
230
1.0
  2
SOLID
 70
1
 71
0
 91
1
 92
3
 72
0
 73
1
 93
6
 10
21738.0
 20
7225.0
 10
21663.0
 20
7225.0
 10
21663.0
 20
7375.0
 10
25984.0
 20
7375.0
 10
25984.0
 20
7225.0
 10
21738.0
 20
7225.0
 97
0
 75
0
 76
1
 98
0
  0
LWPOLYLINE
  5
1ED
330
17
100
AcDbEntity
  8
A-WALL
100
AcDbPolyline
 90
6
 70
1
 10
21813.0
 20
8500.0
 10
21813.0
 20
8425.0
 10
21663.0
 20
8425.0
 10
21663.0
 20
13788.0
 10
21813.0
 20
13788.0
 10
21813.0
 20
8500.0
1001
FLOORFORGE
1000
floor:1
1000
preliminary
  0
HATCH
  5
1EE
330
17
100
AcDbEntity
  8
A-WALL
 62
7
100
AcDbHatch
 10
0.0
 20
0.0
 30
0.0
210
0.0
220
0.0
230
1.0
  2
SOLID
 70
1
 71
0
 91
1
 92
3
 72
0
 73
1
 93
6
 10
21813.0
 20
8500.0
 10
21813.0
 20
8425.0
 10
21663.0
 20
8425.0
 10
21663.0
 20
13788.0
 10
21813.0
 20
13788.0
 10
21813.0
 20
8500.0
 97
0
 75
0
 76
1
 98
0
  0
LWPOLYLINE
  5
1EF
330
17
100
AcDbEntity
  8
A-WALL
100
AcDbPolyline
 90
6
 70
1
 10
21508.0
 20
13558.0
 10
21508.0
 20
13788.0
 10
22545.0
 20
13788.0
 10
22545.0
 20
13558.0
 10
21738.0
 20
13558.0
 10
21508.0
 20
13558.0
1001
FLOORFORGE
1000
floor:1
1000
preliminary
  0
HATCH
  5
1F0
330
17
100
AcDbEntity
  8
A-WALL
 62
7
100
AcDbHatch
 10
0.0
 20
0.0
 30
0.0
210
0.0
220
0.0
230
1.0
  2
SOLID
 70
1
 71
0
 91
1
 92
3
 72
0
 73
1
 93
6
 10
21508.0
 20
13558.0
 10
21508.0
 20
13788.0
 10
22545.0
 20
13788.0
 10
22545.0
 20
13558.0
 10
21738.0
 20
13558.0
 10
21508.0
 20
13558.0
 97
0
 75
0
 76
1
 98
0
  0
LWPOLYLINE
  5
1F1
330
17
100
AcDbEntity
  8
A-WALL
100
AcDbPolyline
 90
5
 70
1
 10
25984.0
 20
13788.0
 10
25984.0
 20
13558.0
 10
25178.0
 20
13558.0
 10
25178.0
 20
13788.0
 10
25984.0
 20
13788.0
1001
FLOORFORGE
1000
floor:1
1000
preliminary
  0
HATCH
  5
1F2
330
17
100
AcDbEntity
  8
A-WALL
 62
7
100
AcDbHatch
 10
0.0
 20
0.0
 30
0.0
210
0.0
220
0.0
230
1.0
  2
SOLID
 70
1
 71
0
 91
1
 92
3
 72
0
 73
1
 93
5
 10
25984.0
 20
13788.0
 10
25984.0
 20
13558.0
 10
25178.0
 20
13558.0
 10
25178.0
 20
13788.0
 10
25984.0
 20
13788.0
 97
0
 75
0
 76
1
 98
0
  0
LWPOLYLINE
  5
1F3
330
17
100
AcDbEntity
  8
A-WALL
100
AcDbPolyline
 90
6
 70
1
 10
25984.0
 20
4730.0
 10
25984.0
 20
4200.0
 10
25754.0
 20
4200.0
 10
25754.0
 20
4500.0
 10
25754.0
 20
4730.0
 10
25984.0
 20
4730.0
1001
FLOORFORGE
1000
floor:1
1000
preliminary
  0
HATCH
  5
1F4
330
17
100
AcDbEntity
  8
A-WALL
 62
7
100
AcDbHatch
 10
0.0
 20
0.0
 30
0.0
210
0.0
220
0.0
230
1.0
  2
SOLID
 70
1
 71
0
 91
1
 92
3
 72
0
 73
1
 93
6
 10
25984.0
 20
4730.0
 10
25984.0
 20
4200.0
 10
25754.0
 20
4200.0
 10
25754.0
 20
4500.0
 10
25754.0
 20
4730.0
 10
25984.0
 20
4730.0
 97
0
 75
0
 76
1
 98
0
  0
LWPOLYLINE
  5
1F5
330
17
100
AcDbEntity
  8
A-WALL
100
AcDbPolyline
 90
5
 70
1
 10
25984.0
 20
1320.0
 10
25754.0
 20
1320.0
 10
25754.0
 20
1850.0
 10
25984.0
 20
1850.0
 10
25984.0
 20
1320.0
1001
FLOORFORGE
1000
floor:1
1000
preliminary
  0
HATCH
  5
1F6
330
17
100
AcDbEntity
  8
A-WALL
 62
7
100
AcDbHatch
 10
0.0
 20
0.0
 30
0.0
210
0.0
220
0.0
230
1.0
  2
SOLID
 70
1
 71
0
 91
1
 92
3
 72
0
 73
1
 93
5
 10
25984.0
 20
1320.0
 10
25754.0
 20
1320.0
 10
25754.0
 20
1850.0
 10
25984.0
 20
1850.0
 10
25984.0
 20
1320.0
 97
0
 75
0
 76
1
 98
0
  0
LWPOLYLINE
  5
1F7
330
17
100
AcDbEntity
  8
A-WALL
100
AcDbPolyline
 90
6
 70
1
 10
25754.0
 20
6130.0
 10
25984.0
 20
6130.0
 10
25984.0
 20
4270.0
 10
25754.0
 20
4270.0
 10
25754.0
 20
5900.0
 10
25754.0
 20
6130.0
1001
FLOORFORGE
1000
floor:1
1000
preliminary
  0
HATCH
  5
1F8
330
17
100
AcDbEntity
  8
A-WALL
 62
7
100
AcDbHatch
 10
0.0
 20
0.0
 30
0.0
210
0.0
220
0.0
230
1.0
  2
SOLID
 70
1
 71
0
 91
1
 92
3
 72
0
 73
1
 93
6
 10
25754.0
 20
6130.0
 10
25984.0
 20
6130.0
 10
25984.0
 20
4270.0
 10
25754.0
 20
4270.0
 10
25754.0
 20
5900.0
 10
25754.0
 20
6130.0
 97
0
 75
0
 76
1
 98
0
  0
LWPOLYLINE
  5
1F9
330
17
100
AcDbEntity
  8
A-WALL
100
AcDbPolyline
 90
6
 70
1
 10
25754.0
 20
7530.0
 10
25984.0
 20
7530.0
 10
25984.0
 20
5670.0
 10
25754.0
 20
5670.0
 10
25754.0
 20
7300.0
 10
25754.0
 20
7530.0
1001
FLOORFORGE
1000
floor:1
1000
preliminary
  0
HATCH
  5
1FA
330
17
100
AcDbEntity
  8
A-WALL
 62
7
100
AcDbHatch
 10
0.0
 20
0.0
 30
0.0
210
0.0
220
0.0
230
1.0
  2
SOLID
 70
1
 71
0
 91
1
 92
3
 72
0
 73
1
 93
6
 10
25754.0
 20
7530.0
 10
25984.0
 20
7530.0
 10
25984.0
 20
5670.0
 10
25754.0
 20
5670.0
 10
25754.0
 20
7300.0
 10
25754.0
 20
7530.0
 97
0
 75
0
 76
1
 98
0
  0
LWPOLYLINE
  5
1FB
330
17
100
AcDbEntity
  8
A-WALL
100
AcDbPolyline
 90
5
 70
1
 10
25754.0
 20
9144.0
 10
25984.0
 20
9144.0
 10
25984.0
 20
7070.0
 10
25754.0
 20
7070.0
 10
25754.0
 20
9144.0
1001
FLOORFORGE
1000
floor:1
1000
preliminary
  0
HATCH
  5
1FC
330
17
100
AcDbEntity
  8
A-WALL
 62
7
100
AcDbHatch
 10
0.0
 20
0.0
 30
0.0
210
0.0
220
0.0
230
1.0
  2
SOLID
 70
1
 71
0
 91
1
 92
3
 72
0
 73
1
 93
5
 10
25754.0
 20
9144.0
 10
25984.0
 20
9144.0
 10
25984.0
 20
7070.0
 10
25754.0
 20
7070.0
 10
25754.0
 20
9144.0
 97
0
 75
0
 76
1
 98
0
  0
LWPOLYLINE
  5
1FD
330
17
100
AcDbEntity
  8
A-WALL
100
AcDbPolyline
 90
5
 70
1
 10
25754.0
 20
13788.0
 10
25984.0
 20
13788.0
 10
25984.0
 20
11944.0
 10
25754.0
 20
11944.0
 10
25754.0
 20
13788.0
1001
FLOORFORGE
1000
floor:1
1000
preliminary
  0
HATCH
  5
1FE
330
17
100
AcDbEntity
  8
A-WALL
 62
7
100
AcDbHatch
 10
0.0
 20
0.0
 30
0.0
210
0.0
220
0.0
230
1.0
  2
SOLID
 70
1
 71
0
 91
1
 92
3
 72
0
 73
1
 93
5
 10
25754.0
 20
13788.0
 10
25984.0
 20
13788.0
 10
25984.0
 20
11944.0
 10
25754.0
 20
11944.0
 10
25754.0
 20
13788.0
 97
0
 75
0
 76
1
 98
0
  0
LINE
  5
1FF
330
17
100
AcDbEntity
  8
A-WIND
100
AcDbLine
 10
16082.0
 20
5130.0
 30
0.0
 11
16082.0
 21
6670.0
 31
0.0
1001
FLOORFORGE
1000
floor:1
1000
preliminary
  0
LINE
  5
200
330
17
100
AcDbEntity
  8
A-WIND
100
AcDbLine
 10
16132.0
 20
5130.0
 30
0.0
 11
16132.0
 21
6670.0
 31
0.0
1001
FLOORFORGE
1000
floor:1
1000
preliminary
  0
LINE
  5
201
330
17
100
AcDbEntity
  8
A-WIND
100
AcDbLine
 10
16082.0
 20
9144.0
 30
0.0
 11
16082.0
 21
11944.0
 31
0.0
1001
FLOORFORGE
1000
floor:1
1000
preliminary
  0
LINE
  5
202
330
17
100
AcDbEntity
  8
A-WIND
100
AcDbLine
 10
16132.0
 20
9144.0
 30
0.0
 11
16132.0
 21
11944.0
 31
0.0
1001
FLOORFORGE
1000
floor:1
1000
preliminary
  0
LINE
  5
203
330
17
100
AcDbEntity
  8
A-WIND
100
AcDbLine
 10
16799.0
 20
13698.0
 30
0.0
 11
19432.0
 21
13698.0
 31
0.0
1001
FLOORFORGE
1000
floor:1
1000
preliminary
  0
LINE
  5
204
330
17
100
AcDbEntity
  8
A-WIND
100
AcDbLine
 10
16799.0
 20
13648.0
 30
0.0
 11
19432.0
 21
13648.0
 31
0.0
1001
FLOORFORGE
1000
floor:1
1000
preliminary
  0
LINE
  5
205
330
17
100
AcDbEntity
  8
A-WIND
100
AcDbLine
 10
18792.0
 20
90.0
 30
0.0
 11
21088.0
 21
90.0
 31
0.0
1001
FLOORFORGE
1000
floor:1
1000
preliminary
  0
LINE
  5
206
330
17
100
AcDbEntity
  8
A-WIND
100
AcDbLine
 10
18792.0
 20
140.0
 30
0.0
 11
21088.0
 21
140.0
 31
0.0
1001
FLOORFORGE
1000
floor:1
1000
preliminary
  0
LINE
  5
207
330
17
100
AcDbEntity
  8
A-DOOR
100
AcDbLine
 10
20238.0
 20
5425.0
 30
0.0
 11
19288.0
 21
5425.0
 31
0.0
1001
FLOORFORGE
1000
floor:1
1000
preliminary
  0
LWPOLYLINE
  5
208
330
17
100
AcDbEntity
  8
A-DOOR
100
AcDbPolyline
 90
20
 70
0
 10
20238.0
 20
6375.0
 10
20159.549621801285
 20
6371.755268356336
 10
20081.6351392333
 20
6362.043238232586
 10
20004.78878721624
 20
6345.9302526423635
 10
19929.53550425555
 20
6323.526379615603
 10
19856.38934657968
 20
6294.984660322305
 10
19785.84997661478
 20
6260.500063646165
 10
19718.399249783695
 20
6220.308154349403
 10
19654.497922944814
 20
6174.683483926574
 10
19594.582506955547
 20
6123.937715139475
 10
19539.062284860524
 20
6068.417493044454
 10
19488.316516073428
 20
6008.502077055185
 10
19442.6918456506
 20
5944.600750216306
 10
19402.499936353837
 20
5877.15002338522
 10
19368.015339677695
 20
5806.610653420321
 10
19339.473620384397
 20
5733.46449574445
 10
19317.069747357637
 20
5658.211212783759
 10
19300.956761767415
 20
5581.364860766697
 10
19291.244731643663
 20
5503.450378198716
 10
19288.0
 20
5425.0
1001
FLOORFORGE
1000
floor:1
1000
preliminary
  0
TEXT
  5
209
330
17
100
AcDbEntity
  8
A-ANNO
100
AcDbText
 10
20498.0
 20
5900.0
 30
0.0
 40
155.0
  1
D021
 72
1
 11
20498.0
 21
5900.0
 31
0.0
100
AcDbText
 73
2
1001
FLOORFORGE
1000
floor:1
1000
preliminary
  0
LINE
  5
20A
330
17
100
AcDbEntity
  8
A-DOOR
100
AcDbLine
 10
20513.0
 20
8500.0
 30
0.0
 11
20513.0
 21
9450.0
 31
0.0
1001
FLOORFORGE
1000
floor:1
1000
preliminary
  0
LWPOLYLINE
  5
20B
330
17
100
AcDbEntity
  8
A-DOOR
100
AcDbPolyline
 90
20
 70
0
 10
21463.0
 20
8500.0
 10
21459.755268356337
 20
8578.450378198715
 10
21450.043238232585
 20
8656.364860766696
 10
21433.930252642363
 20
8733.211212783759
 10
21411.526379615603
 20
8808.464495744449
 10
21382.984660322305
 20
8881.61065342032
 10
21348.500063646163
 20
8952.15002338522
 10
21308.308154349405
 20
9019.600750216305
 10
21262.683483926572
 20
9083.502077055184
 10
21211.937715139473
 20
9143.417493044453
 10
21156.417493044453
 20
9198.937715139475
 10
21096.502077055186
 20
9249.683483926574
 10
21032.600750216305
 20
9295.308154349403
 10
20965.15002338522
 20
9335.500063646165
 10
20894.61065342032
 20
9369.984660322305
 10
20821.46449574445
 20
9398.526379615603
 10
20746.21121278376
 20
9420.930252642363
 10
20669.3648607667
 20
9437.043238232585
 10
20591.450378198715
 20
9446.755268356337
 10
20513.0
 20
9450.0
1001
FLOORFORGE
1000
floor:1
1000
preliminary
  0
TEXT
  5
20C
330
17
100
AcDbEntity
  8
A-ANNO
100
AcDbText
 10
20988.0
 20
8240.0
 30
0.0
 40
155.0
  1
D022
 72
1
 11
20988.0
 21
8240.0
 31
0.0
100
AcDbText
 73
2
1001
FLOORFORGE
1000
floor:1
1000
preliminary
  0
LINE
  5
20D
330
17
100
AcDbEntity
  8
A-WIND
100
AcDbLine
 10
20538.0
 20
13698.0
 30
0.0
 11
21438.0
 21
13698.0
 31
0.0
1001
FLOORFORGE
1000
floor:1
1000
preliminary
  0
LINE
  5
20E
330
17
100
AcDbEntity
  8
A-WIND
100
AcDbLine
 10
20538.0
 20
13648.0
 30
0.0
 11
21438.0
 21
13648.0
 31
0.0
1001
FLOORFORGE
1000
floor:1
1000
preliminary
  0
LINE
  5
20F
330
17
100
AcDbEntity
  8
A-DOOR
100
AcDbLine
 10
22335.68
 20
1550.0
 30
0.0
 11
22335.68
 21
4250.0
 31
0.0
1001
FLOORFORGE
1000
floor:1
1000
preliminary
  0
LWPOLYLINE
  5
210
330
17
100
AcDbEntity
  8
A-DOOR
100
AcDbPolyline
 90
20
 70
0
 10
25035.68
 20
1550.0
 10
25026.458131118008
 20
1772.9642327752972
 10
24998.855519187353
 20
1994.4053937579815
 10
24953.06071803619
 20
2212.810815280158
 10
24889.386552591714
 20
2426.688566852645
 10
24808.267981968656
 20
2634.5776465630174
 10
24710.259128257523
 20
2835.0579612000984
 10
24596.02949130883
 20
3026.760026930552
 10
24466.359375370263
 20
3208.374324262103
 10
24322.134558817455
 20
3378.660243389501
 10
24164.340243389503
 20
3536.454558817455
 10
23994.054324262102
 20
3680.6793753702627
 10
23812.440026930555
 20
3810.349491308827
 10
23620.7379612001
 20
3924.57912825752
 10
23420.25764656302
 20
4022.587981968655
 10
23212.368566852645
 20
4103.706552591713
 10
22998.490815280158
 20
4167.380718036192
 10
22780.08539375798
 20
4213.175519187351
 10
22558.644232775296
 20
4240.778131118009
 10
22335.68
 20
4250.0
1001
FLOORFORGE
1000
floor:1
1000
preliminary
  0
TEXT
  5
211
330
17
100
AcDbEntity
  8
A-ANNO
100
AcDbText
 10
23685.68
 20
1290.0
 30
0.0
 40
155.0
  1
D024
 72
1
 11
23685.68
 21
1290.0
 31
0.0
100
AcDbText
 73
2
1001
FLOORFORGE
1000
floor:1
1000
preliminary
  0
LINE
  5
212
330
17
100
AcDbEntity
  8
A-DOOR
100
AcDbLine
 10
21738.0
 20
4775.0
 30
0.0
 11
20888.0
 21
4775.0
 31
0.0
1001
FLOORFORGE
1000
floor:1
1000
preliminary
  0
LWPOLYLINE
  5
213
330
17
100
AcDbEntity
  8
A-DOOR
100
AcDbPolyline
 90
20
 70
0
 10
21738.0
 20
5625.0
 10
21667.807556348518
 20
5622.09681905567
 10
21598.094598261378
 20
5613.407107892314
 10
21529.337335930322
 20
5598.9902260484305
 10
21462.005451176017
 20
5578.944655445539
 10
21396.558889044976
 20
5553.407327656799
 10
21333.444715918486
 20
5522.552688525516
 10
21273.09406559594
 20
5486.591506523149
 10
21215.919194213784
 20
5445.769432986935
 10
21162.310664118122
 20
5400.3653240721615
 10
21112.63467592784
 20
5350.68933588188
 10
21067.230567013066
 20
5297.080805786218
 10
21026.40849347685
 20
5239.905934404063
 10
20990.447311474483
 20
5179.555284081513
 10
20959.592672343202
 20
5116.441110955024
 10
20934.05534455446
 20
5050.994548823981
 10
20914.00977395157
 20
4983.6626640696795
 10
20899.592892107685
 20
4914.905401738624
 10
20890.90318094433
 20
4845.192443651483
 10
20888.0
 20
4775.0
1001
FLOORFORGE
1000
floor:1
1000
preliminary
  0
TEXT
  5
214
330
17
100
AcDbEntity
  8
A-ANNO
100
AcDbText
 10
21998.0
 20
5200.0
 30
0.0
 40
155.0
  1
D025
 72
1
 11
21998.0
 21
5200.0
 31
0.0
100
AcDbText
 73
2
1001
FLOORFORGE
1000
floor:1
1000
preliminary
  0
LINE
  5
215
330
17
100
AcDbEntity
  8
A-DOOR
100
AcDbLine
 10
21738.0
 20
6175.0
 30
0.0
 11
20888.0
 21
6175.0
 31
0.0
1001
FLOORFORGE
1000
floor:1
1000
preliminary
  0
LWPOLYLINE
  5
216
330
17
100
AcDbEntity
  8
A-DOOR
100
AcDbPolyline
 90
20
 70
0
 10
21738.0
 20
7025.0
 10
21667.807556348518
 20
7022.09681905567
 10
21598.094598261378
 20
7013.407107892314
 10
21529.337335930322
 20
6998.9902260484305
 10
21462.005451176017
 20
6978.944655445539
 10
21396.558889044976
 20
6953.407327656799
 10
21333.444715918486
 20
6922.552688525516
 10
21273.09406559594
 20
6886.591506523149
 10
21215.919194213784
 20
6845.769432986935
 10
21162.310664118122
 20
6800.3653240721615
 10
21112.63467592784
 20
6750.68933588188
 10
21067.230567013066
 20
6697.080805786218
 10
21026.40849347685
 20
6639.905934404063
 10
20990.447311474483
 20
6579.555284081513
 10
20959.592672343202
 20
6516.441110955024
 10
20934.05534455446
 20
6450.994548823981
 10
20914.00977395157
 20
6383.6626640696795
 10
20899.592892107685
 20
6314.905401738624
 10
20890.90318094433
 20
6245.192443651483
 10
20888.0
 20
6175.0
1001
FLOORFORGE
1000
floor:1
1000
preliminary
  0
TEXT
  5
217
330
17
100
AcDbEntity
  8
A-ANNO
100
AcDbText
 10
21998.0
 20
6600.0
 30
0.0
 40
155.0
  1
D026
 72
1
 11
21998.0
 21
6600.0
 31
0.0
100
AcDbText
 73
2
1001
FLOORFORGE
1000
floor:1
1000
preliminary
  0
LINE
  5
218
330
17
100
AcDbEntity
  8
A-DOOR
100
AcDbLine
 10
21738.0
 20
7450.0
 30
0.0
 11
20838.0
 21
7450.0
 31
0.0
1001
FLOORFORGE
1000
floor:1
1000
preliminary
  0
LWPOLYLINE
  5
219
330
17
100
AcDbEntity
  8
A-DOOR
100
AcDbPolyline
 90
20
 70
0
 10
21738.0
 20
8350.0
 10
21663.6785890749
 20
8346.926043706002
 10
21589.86486874734
 20
8337.72517306245
 10
21517.06306157328
 20
8322.460239345397
 10
21445.770477715785
 20
8301.235517530571
 10
21376.47411781233
 20
8274.195993989551
 10
21309.647346266633
 20
8241.52637608584
 10
21245.746657689815
 20
8203.449830436275
 10
21185.2085585793
 20
8160.226458456755
 10
21128.446585536833
 20
8112.151519605819
 10
21075.848480394183
 20
8059.553414463167
 10
21027.773541543247
 20
8002.791441420701
 10
20984.550169563725
 20
7942.253342310184
 10
20946.47362391416
 20
7878.352653733366
 10
20913.804006010447
 20
7811.525882187672
 10
20886.76448246943
 20
7742.229522284215
 10
20865.539760654603
 20
7670.936938426719
 10
20850.27482693755
 20
7598.13513125266
 10
20841.073956293996
 20
7524.321410925099
 10
20838.0
 20
7450.0
1001
FLOORFORGE
1000
floor:1
1000
preliminary
  0
TEXT
  5
21A
330
17
100
AcDbEntity
  8
A-ANNO
100
AcDbText
 10
21998.0
 20
7900.0
 30
0.0
 40
155.0
  1
D027
 72
1
 11
21998.0
 21
7900.0
 31
0.0
100
AcDbText
 73
2
1001
FLOORFORGE
1000
floor:1
1000
preliminary
  0
LINE
  5
21B
330
17
100
AcDbEntity
  8
A-WIND
100
AcDbLine
 10
22545.0
 20
13698.0
 30
0.0
 11
25178.0
 21
13698.0
 31
0.0
1001
FLOORFORGE
1000
floor:1
1000
preliminary
  0
LINE
  5
21C
330
17
100
AcDbEntity
  8
A-WIND
100
AcDbLine
 10
22545.0
 20
13648.0
 30
0.0
 11
25178.0
 21
13648.0
 31
0.0
1001
FLOORFORGE
1000
floor:1
1000
preliminary
  0
LINE
  5
21D
330
17
100
AcDbEntity
  8
A-WIND
100
AcDbLine
 10
25894.0
 20
1850.0
 30
0.0
 11
25894.0
 21
4200.0
 31
0.0
1001
FLOORFORGE
1000
floor:1
1000
preliminary
  0
LINE
  5
21E
330
17
100
AcDbEntity
  8
A-WIND
100
AcDbLine
 10
25844.0
 20
1850.0
 30
0.0
 11
25844.0
 21
4200.0
 31
0.0
1001
FLOORFORGE
1000
floor:1
1000
preliminary
  0
LINE
  5
21F
330
17
100
AcDbEntity
  8
A-WIND
100
AcDbLine
 10
25894.0
 20
4850.0
 30
0.0
 11
25894.0
 21
5550.0
 31
0.0
1001
FLOORFORGE
1000
floor:1
1000
preliminary
  0
LINE
  5
220
330
17
100
AcDbEntity
  8
A-WIND
100
AcDbLine
 10
25844.0
 20
4850.0
 30
0.0
 11
25844.0
 21
5550.0
 31
0.0
1001
FLOORFORGE
1000
floor:1
1000
preliminary
  0
LINE
  5
221
330
17
100
AcDbEntity
  8
A-WIND
100
AcDbLine
 10
25894.0
 20
6250.0
 30
0.0
 11
25894.0
 21
6950.0
 31
0.0
1001
FLOORFORGE
1000
floor:1
1000
preliminary
  0
LINE
  5
222
330
17
100
AcDbEntity
  8
A-WIND
100
AcDbLine
 10
25844.0
 20
6250.0
 30
0.0
 11
25844.0
 21
6950.0
 31
0.0
1001
FLOORFORGE
1000
floor:1
1000
preliminary
  0
LINE
  5
223
330
17
100
AcDbEntity
  8
A-WIND
100
AcDbLine
 10
25894.0
 20
9144.0
 30
0.0
 11
25894.0
 21
11944.0
 31
0.0
1001
FLOORFORGE
1000
floor:1
1000
preliminary
  0
LINE
  5
224
330
17
100
AcDbEntity
  8
A-WIND
100
AcDbLine
 10
25844.0
 20
9144.0
 30
0.0
 11
25844.0
 21
11944.0
 31
0.0
1001
FLOORFORGE
1000
floor:1
1000
preliminary
  0
LWPOLYLINE
  5
225
330
17
100
AcDbEntity
  8
A-EXT
100
AcDbPolyline
 90
4
 70
1
 10
20140.0
 20
-1550.0
 10
25984.0
 20
-1550.0
 10
25984.0
 20
0.0
 10
20140.0
 20
0.0
1001
FLOORFORGE
1000
floor:1
1000
preliminary
  0
TEXT
  5
226
330
17
100
AcDbEntity
  8
A-EXT
100
AcDbText
 10
23062.0
 20
-1670.0
 30
0.0
 40
130.0
  1
BALCONY
 72
1
 11
23062.0
 21
-1670.0
 31
0.0
100
AcDbText
 73
2
1001
FLOORFORGE
1000
floor:1
1000
preliminary
  0
LWPOLYLINE
  5
227
330
17
100
AcDbEntity
  8
A-EXT
100
AcDbPolyline
 90
4
 70
1
 10
15992.0
 20
0.0
 10
18492.0
 20
0.0
 10
18492.0
 20
4400.0
 10
15992.0
 20
4400.0
1001
FLOORFORGE
1000
floor:1
1000
preliminary
  0
TEXT
  5
228
330
17
100
AcDbEntity
  8
A-EXT
100
AcDbText
 10
17242.0
 20
-120.0
 30
0.0
 40
130.0
  1
STAIR_TOWER
 72
1
 11
17242.0
 21
-120.0
 31
0.0
100
AcDbText
 73
2
1001
FLOORFORGE
1000
floor:1
1000
preliminary
  0
LWPOLYLINE
  5
229
330
17
100
AcDbEntity
  8
A-FURN
100
AcDbPolyline
 90
4
 70
1
 10
25544.0
 20
1925.0
 10
25544.0
 20
4225.0
 10
24574.0
 20
4225.0
 10
24574.0
 20
1925.0
1001
FLOORFORGE
1000
floor:1
1000
preliminary
  0
LWPOLYLINE
  5
22A
330
17
100
AcDbEntity
  8
A-FURN
100
AcDbPolyline
 90
4
 70
1
 10
24229.0
 20
2592.8000000000006
 10
24229.0
 20
3692.8
 10
23479.0
 20
3692.8
 10
23479.0
 20
2592.8000000000006
1001
FLOORFORGE
1000
floor:1
1000
preliminary
  0
LWPOLYLINE
  5
22B
330
17
100
AcDbEntity
  8
A-FURN
100
AcDbPolyline
 90
4
 70
1
 10
18992.5
 20
4675.0
 10
18992.5
 20
5895.0
 10
17392.5
 20
5895.0
 10
17392.5
 20
4675.0
1001
FLOORFORGE
1000
floor:1
1000
preliminary
  0
LWPOLYLINE
  5
22C
330
17
100
AcDbEntity
  8
A-FURN
100
AcDbPolyline
 90
4
 70
1
 10
25314.0
 20
5055.0
 10
25314.0
 20
5555.0
 10
24594.0
 20
5555.0
 10
24594.0
 20
5055.0
1001
FLOORFORGE
1000
floor:1
1000
preliminary
  0
LWPOLYLINE
  5
22D
330
17
100
AcDbEntity
  8
A-FURN
100
AcDbPolyline
 90
4
 70
1
 10
25434.0
 20
4615.0
 10
25434.0
 20
5385.000000000001
 10
24974.0
 20
5385.000000000001
 10
24974.0
 20
4615.0
1001
FLOORFORGE
1000
floor:1
1000
preliminary
  0
LWPOLYLINE
  5
22E
330
17
100
AcDbEntity
  8
A-FURN
100
AcDbPolyline
 90
4
 70
1
 10
25314.0
 20
6455.0
 10
25314.0
 20
6955.0
 10
24594.0
 20
6955.0
 10
24594.0
 20
6455.0
1001
FLOORFORGE
1000
floor:1
1000
preliminary
  0
LWPOLYLINE
  5
22F
330
17
100
AcDbEntity
  8
A-FURN
100
AcDbPolyline
 90
4
 70
1
 10
25434.0
 20
6015.0
 10
25434.0
 20
6785.0
 10
24974.0
 20
6785.0
 10
24974.0
 20
6015.0
1001
FLOORFORGE
1000
floor:1
1000
preliminary
  0
LWPOLYLINE
  5
230
330
17
100
AcDbEntity
  8
A-FURN
100
AcDbPolyline
 90
4
 70
1
 10
19592.5
 20
8655.0
 10
19592.5
 20
10814.999999999998
 10
17892.5
 20
10814.999999999998
 10
17892.5
 20
8655.0
1001
FLOORFORGE
1000
floor:1
1000
preliminary
  0
LWPOLYLINE
  5
231
330
17
100
AcDbEntity
  8
A-FURN
100
AcDbPolyline
 90
4
 70
1
 10
17972.0
 20
12918.0
 10
17972.0
 20
13517.999999999998
 10
16272.0
 20
13517.999999999998
 10
16272.0
 20
12918.0
1001
FLOORFORGE
1000
floor:1
1000
preliminary
  0
LWPOLYLINE
  5
232
330
17
100
AcDbEntity
  8
A-FURN
100
AcDbPolyline
 90
4
 70
1
 10
24433.5
 20
7455.0
 10
24433.5
 20
9614.999999999998
 10
22733.5
 20
9614.999999999998
 10
22733.5
 20
7455.0
1001
FLOORFORGE
1000
floor:1
1000
preliminary
  0
LWPOLYLINE
  5
233
330
17
100
AcDbEntity
  8
A-FURN
100
AcDbPolyline
 90
4
 70
1
 10
23563.0
 20
12918.0
 10
23563.0
 20
13517.999999999998
 10
21863.0
 20
13517.999999999998
 10
21863.0
 20
12918.0
1001
FLOORFORGE
1000
floor:1
1000
preliminary
  0
TEXT
  5
234
330
17
100
AcDbEntity
  8
A-ANNO
100
AcDbText
 10
17357.0
 20
2330.0
 30
0.0
 40
245.0
  1
Stair
 72
1
 11
17357.0
 21
2330.0
 31
0.0
100
AcDbText
 73
2
1001
FLOORFORGE
1000
floor:1
1000
preliminary
  0
TEXT
  5
235
330
17
100
AcDbEntity
  8
A-ANNO
100
AcDbText
 10
17357.0
 20
2050.0
 30
0.0
 40
175.0
  1
9.5 m² | 102 ft²
 72
1
 11
17357.0
 21
2050.0
 31
0.0
100
AcDbText
 73
2
1001
FLOORFORGE
1000
floor:1
1000
preliminary
  0
TEXT
  5
236
330
17
100
AcDbEntity
  8
A-ANNO
100
AcDbText
 10
22123.0
 20
3097.5
 30
0.0
 40
245.0
  1
Family lounge
 72
1
 11
22123.0
 21
3097.5
 31
0.0
100
AcDbText
 73
2
1001
FLOORFORGE
1000
floor:1
1000
preliminary
  0
TEXT
  5
237
330
17
100
AcDbEntity
  8
A-ANNO
100
AcDbText
 10
22123.0
 20
2817.5
 30
0.0
 40
175.0
  1
24.2 m² | 260 ft²
 72
1
 11
22123.0
 21
2817.5
 31
0.0
100
AcDbText
 73
2
1001
FLOORFORGE
1000
floor:1
1000
preliminary
  0
TEXT
  5
238
330
17
100
AcDbEntity
  8
A-ANNO
100
AcDbText
 10
23743.34
 20
905.0
 30
0.0
 40
245.0
  1
Open terrace
 72
1
 11
23743.34
 21
905.0
 31
0.0
100
AcDbText
 73
2
1001
FLOORFORGE
1000
floor:1
1000
preliminary
  0
TEXT
  5
239
330
17
100
AcDbEntity
  8
A-ANNO
100
AcDbText
 10
23743.34
 20
625.0
 30
0.0
 40
175.0
  1
6.4 m² | 69 ft²
 72
1
 11
23743.34
 21
625.0
 31
0.0
100
AcDbText
 73
2
1001
FLOORFORGE
1000
floor:1
1000
preliminary
  0
TEXT
  5
23A
330
17
100
AcDbEntity
  8
A-ANNO
100
AcDbText
 10
20988.0
 20
6730.0
 30
0.0
 40
245.0
  1
Hall
 72
1
 11
20988.0
 21
6730.0
 31
0.0
100
AcDbText
 73
2
1001
FLOORFORGE
1000
floor:1
1000
preliminary
  0
TEXT
  5
23B
330
17
100
AcDbEntity
  8
A-ANNO
100
AcDbText
 10
20988.0
 20
6450.0
 30
0.0
 40
175.0
  1
5.3 m² | 57 ft²
 72
1
 11
20988.0
 21
6450.0
 31
0.0
100
AcDbText
 73
2
1001
FLOORFORGE
1000
floor:1
1000
preliminary
  0
TEXT
  5
23C
330
17
100
AcDbEntity
  8
A-ANNO
100
AcDbText
 10
18192.5
 20
6030.0
 30
0.0
 40
245.0
  1
Study
 72
1
 11
18192.5
 21
6030.0
 31
0.0
100
AcDbText
 73
2
1001
FLOORFORGE
1000
floor:1
1000
preliminary
  0
TEXT
  5
23D
330
17
100
AcDbEntity
  8
A-ANNO
100
AcDbText
 10
18192.5
 20
5750.0
 30
0.0
 40
175.0
  1
10.4 m² | 112 ft²
 72
1
 11
18192.5
 21
5750.0
 31
0.0
100
AcDbText
 73
2
1001
FLOORFORGE
1000
floor:1
1000
preliminary
  0
TEXT
  5
23E
330
17
100
AcDbEntity
  8
A-ANNO
100
AcDbText
 10
18192.5
 20
5510.0
 30
0.0
 40
160.0
  1
3.94 × 2.65 m
 72
1
 11
18192.5
 21
5510.0
 31
0.0
100
AcDbText
 73
2
1001
FLOORFORGE
1000
floor:1
1000
preliminary
  0
TEXT
  5
23F
330
17
100
AcDbEntity
  8
A-ANNO
100
AcDbText
 10
23783.5
 20
5330.0
 30
0.0
 40
245.0
  1
Bathroom
 72
1
 11
23783.5
 21
5330.0
 31
0.0
100
AcDbText
 73
2
1001
FLOORFORGE
1000
floor:1
1000
preliminary
  0
TEXT
  5
240
330
17
100
AcDbEntity
  8
A-ANNO
100
AcDbText
 10
23783.5
 20
5050.0
 30
0.0
 40
175.0
  1
4.9 m² | 53 ft²
 72
1
 11
23783.5
 21
5050.0
 31
0.0
100
AcDbText
 73
2
1001
FLOORFORGE
1000
floor:1
1000
preliminary
  0
TEXT
  5
241
330
17
100
AcDbEntity
  8
A-ANNO
100
AcDbText
 10
23783.5
 20
4810.0
 30
0.0
 40
160.0
  1
3.94 × 1.25 m
 72
1
 11
23783.5
 21
4810.0
 31
0.0
100
AcDbText
 73
2
1001
FLOORFORGE
1000
floor:1
1000
preliminary
  0
TEXT
  5
242
330
17
100
AcDbEntity
  8
A-ANNO
100
AcDbText
 10
23783.5
 20
6730.0
 30
0.0
 40
245.0
  1
Bathroom 2
 72
1
 11
23783.5
 21
6730.0
 31
0.0
100
AcDbText
 73
2
1001
FLOORFORGE
1000
floor:1
1000
preliminary
  0
TEXT
  5
243
330
17
100
AcDbEntity
  8
A-ANNO
100
AcDbText
 10
23783.5
 20
6450.0
 30
0.0
 40
175.0
  1
4.9 m² | 53 ft²
 72
1
 11
23783.5
 21
6450.0
 31
0.0
100
AcDbText
 73
2
1001
FLOORFORGE
1000
floor:1
1000
preliminary
  0
TEXT
  5
244
330
17
100
AcDbEntity
  8
A-ANNO
100
AcDbText
 10
23783.5
 20
6210.0
 30
0.0
 40
160.0
  1
3.94 × 1.25 m
 72
1
 11
23783.5
 21
6210.0
 31
0.0
100
AcDbText
 73
2
1001
FLOORFORGE
1000
floor:1
1000
preliminary
  0
TEXT
  5
245
330
17
100
AcDbEntity
  8
A-ANNO
100
AcDbText
 10
18942.5
 20
11196.5
 30
0.0
 40
245.0
  1
Bedroom 2
 72
1
 11
18942.5
 21
11196.5
 31
0.0
100
AcDbText
 73
2
1001
FLOORFORGE
1000
floor:1
1000
preliminary
  0
TEXT
  5
246
330
17
100
AcDbEntity
  8
A-ANNO
100
AcDbText
 10
18942.5
 20
10916.5
 30
0.0
 40
175.0
  1
31.8 m² | 343 ft²
 72
1
 11
18942.5
 21
10916.5
 31
0.0
100
AcDbText
 73
2
1001
FLOORFORGE
1000
floor:1
1000
preliminary
  0
TEXT
  5
247
330
17
100
AcDbEntity
  8
A-ANNO
100
AcDbText
 10
18942.5
 20
10676.5
 30
0.0
 40
160.0
  1
5.44 × 6.18 m
 72
1
 11
18942.5
 21
10676.5
 31
0.0
100
AcDbText
 73
2
1001
FLOORFORGE
1000
floor:1
1000
preliminary
  0
TEXT
  5
248
330
17
100
AcDbEntity
  8
A-ANNO
100
AcDbText
 10
23783.5
 20
11196.5
 30
0.0
 40
245.0
  1
Bedroom 3
 72
1
 11
23783.5
 21
11196.5
 31
0.0
100
AcDbText
 73
2
1001
FLOORFORGE
1000
floor:1
1000
preliminary
  0
TEXT
  5
249
330
17
100
AcDbEntity
  8
A-ANNO
100
AcDbText
 10
23783.5
 20
10916.5
 30
0.0
 40
175.0
  1
24.4 m² | 262 ft²
 72
1
 11
23783.5
 21
10916.5
 31
0.0
100
AcDbText
 73
2
1001
FLOORFORGE
1000
floor:1
1000
preliminary
  0
TEXT
  5
24A
330
17
100
AcDbEntity
  8
A-ANNO
100
AcDbText
 10
23783.5
 20
10676.5
 30
0.0
 40
160.0
  1
3.94 × 6.18 m
 72
1
 11
23783.5
 21
10676.5
 31
0.0
100
AcDbText
 73
2
1001
FLOORFORGE
1000
floor:1
1000
preliminary
  0
LINE
  5
24B
330
17
100
AcDbEntity
  8
A-STAIR
100
AcDbLine
 10
16242.0
 20
1300.0
 30
0.0
 11
17242.0
 21
1300.0
 31
0.0
1001
FLOORFORGE
1000
floor:1
1000
preliminary
  0
LINE
  5
24C
330
17
100
AcDbEntity
  8
A-STAIR
100
AcDbLine
 10
17442.0
 20
1300.0
 30
0.0
 11
18442.0
 21
1300.0
 31
0.0
1001
FLOORFORGE
1000
floor:1
1000
preliminary
  0
LINE
  5
24D
330
17
100
AcDbEntity
  8
A-STAIR
100
AcDbLine
 10
16242.0
 20
1550.0
 30
0.0
 11
17242.0
 21
1550.0
 31
0.0
1001
FLOORFORGE
1000
floor:1
1000
preliminary
  0
LINE
  5
24E
330
17
100
AcDbEntity
  8
A-STAIR
100
AcDbLine
 10
17442.0
 20
1550.0
 30
0.0
 11
18442.0
 21
1550.0
 31
0.0
1001
FLOORFORGE
1000
floor:1
1000
preliminary
  0
LINE
  5
24F
330
17
100
AcDbEntity
  8
A-STAIR
100
AcDbLine
 10
16242.0
 20
1800.0
 30
0.0
 11
17242.0
 21
1800.0
 31
0.0
1001
FLOORFORGE
1000
floor:1
1000
preliminary
  0
LINE
  5
250
330
17
100
AcDbEntity
  8
A-STAIR
100
AcDbLine
 10
17442.0
 20
1800.0
 30
0.0
 11
18442.0
 21
1800.0
 31
0.0
1001
FLOORFORGE
1000
floor:1
1000
preliminary
  0
LINE
  5
251
330
17
100
AcDbEntity
  8
A-STAIR
100
AcDbLine
 10
16242.0
 20
2050.0
 30
0.0
 11
17242.0
 21
2050.0
 31
0.0
1001
FLOORFORGE
1000
floor:1
1000
preliminary
  0
LINE
  5
252
330
17
100
AcDbEntity
  8
A-STAIR
100
AcDbLine
 10
17442.0
 20
2050.0
 30
0.0
 11
18442.0
 21
2050.0
 31
0.0
1001
FLOORFORGE
1000
floor:1
1000
preliminary
  0
LINE
  5
253
330
17
100
AcDbEntity
  8
A-STAIR
100
AcDbLine
 10
16242.0
 20
2300.0
 30
0.0
 11
17242.0
 21
2300.0
 31
0.0
1001
FLOORFORGE
1000
floor:1
1000
preliminary
  0
LINE
  5
254
330
17
100
AcDbEntity
  8
A-STAIR
100
AcDbLine
 10
17442.0
 20
2300.0
 30
0.0
 11
18442.0
 21
2300.0
 31
0.0
1001
FLOORFORGE
1000
floor:1
1000
preliminary
  0
LINE
  5
255
330
17
100
AcDbEntity
  8
A-STAIR
100
AcDbLine
 10
16242.0
 20
2550.0
 30
0.0
 11
17242.0
 21
2550.0
 31
0.0
1001
FLOORFORGE
1000
floor:1
1000
preliminary
  0
LINE
  5
256
330
17
100
AcDbEntity
  8
A-STAIR
100
AcDbLine
 10
17442.0
 20
2550.0
 30
0.0
 11
18442.0
 21
2550.0
 31
0.0
1001
FLOORFORGE
1000
floor:1
1000
preliminary
  0
LINE
  5
257
330
17
100
AcDbEntity
  8
A-STAIR
100
AcDbLine
 10
16242.0
 20
2800.0
 30
0.0
 11
17242.0
 21
2800.0
 31
0.0
1001
FLOORFORGE
1000
floor:1
1000
preliminary
  0
LINE
  5
258
330
17
100
AcDbEntity
  8
A-STAIR
100
AcDbLine
 10
17442.0
 20
2800.0
 30
0.0
 11
18442.0
 21
2800.0
 31
0.0
1001
FLOORFORGE
1000
floor:1
1000
preliminary
  0
LINE
  5
259
330
17
100
AcDbEntity
  8
A-STAIR
100
AcDbLine
 10
16242.0
 20
3050.0
 30
0.0
 11
17242.0
 21
3050.0
 31
0.0
1001
FLOORFORGE
1000
floor:1
1000
preliminary
  0
LINE
  5
25A
330
17
100
AcDbEntity
  8
A-STAIR
100
AcDbLine
 10
17442.0
 20
3050.0
 30
0.0
 11
18442.0
 21
3050.0
 31
0.0
1001
FLOORFORGE
1000
floor:1
1000
preliminary
  0
LINE
  5
25B
330
17
100
AcDbEntity
  8
A-STAIR
100
AcDbLine
 10
16242.0
 20
3300.0
 30
0.0
 11
17242.0
 21
3300.0
 31
0.0
1001
FLOORFORGE
1000
floor:1
1000
preliminary
  0
LINE
  5
25C
330
17
100
AcDbEntity
  8
A-STAIR
100
AcDbLine
 10
17442.0
 20
3300.0
 30
0.0
 11
18442.0
 21
3300.0
 31
0.0
1001
FLOORFORGE
1000
floor:1
1000
preliminary
  0
LINE
  5
25D
330
17
100
AcDbEntity
  8
A-STAIR
100
AcDbLine
 10
16742.0
 20
1300.0
 30
0.0
 11
16742.0
 21
3300.0
 31
0.0
1001
FLOORFORGE
1000
floor:1
1000
preliminary
  0
TEXT
  5
25E
330
17
100
AcDbEntity
  8
A-STAIR
100
AcDbText
 10
16742.0
 20
3500.0
 30
0.0
 40
180.0
  1
DN
 72
1
 11
16742.0
 21
3500.0
 31
0.0
100
AcDbText
 73
2
1001
FLOORFORGE
1000
floor:1
1000
preliminary
  0
TEXT
  5
25F
330
17
100
AcDbEntity
  8
A-STAIR
100
AcDbText
 10
17342.0
 20
650.0
 30
0.0
 40
150.0
  1
18R @ 175; T 250
 72
1
 11
17342.0
 21
650.0
 31
0.0
100
AcDbText
 73
2
1001
FLOORFORGE
1000
floor:1
1000
preliminary
  0
LINE
  5
260
330
17
100
AcDbEntity
  8
A-DIMS
100
AcDbLine
 10
15992.0
 20
0.0
 30
0.0
 11
15992.0
 21
-700.0
 31
0.0
1001
FLOORFORGE
1000
floor:1
1000
preliminary
  0
LINE
  5
261
330
17
100
AcDbEntity
  8
A-DIMS
100
AcDbLine
 10
25984.0
 20
0.0
 30
0.0
 11
25984.0
 21
-700.0
 31
0.0
1001
FLOORFORGE
1000
floor:1
1000
preliminary
  0
LINE
  5
262
330
17
100
AcDbEntity
  8
A-DIMS
100
AcDbLine
 10
15992.0
 20
-700.0
 30
0.0
 11
25984.0
 21
-700.0
 31
0.0
1001
FLOORFORGE
1000
floor:1
1000
preliminary
  0
LINE
  5
263
330
17
100
AcDbEntity
  8
A-DIMS
100
AcDbLine
 10
15932.0
 20
-760.0
 30
0.0
 11
16052.0
 21
-640.0
 31
0.0
1001
FLOORFORGE
1000
floor:1
1000
preliminary
  0
LINE
  5
264
330
17
100
AcDbEntity
  8
A-DIMS
100
AcDbLine
 10
25924.0
 20
-760.0
 30
0.0
 11
26044.0
 21
-640.0
 31
0.0
1001
FLOORFORGE
1000
floor:1
1000
preliminary
  0
TEXT
  5
265
330
17
100
AcDbEntity
  8
A-DIMS
100
AcDbText
 10
20988.0
 20
-550.0
 30
0.0
 40
200.0
  1
9992
 72
1
 11
20988.0
 21
-550.0
 31
0.0
100
AcDbText
 73
2
1001
FLOORFORGE
1000
floor:1
1000
preliminary
  0
LINE
  5
266
330
17
100
AcDbEntity
  8
A-DIMS
100
AcDbLine
 10
25984.0
 20
0.0
 30
0.0
 11
26834.0
 21
0.0
 31
0.0
1001
FLOORFORGE
1000
floor:1
1000
preliminary
  0
LINE
  5
267
330
17
100
AcDbEntity
  8
A-DIMS
100
AcDbLine
 10
25984.0
 20
13788.0
 30
0.0
 11
26834.0
 21
13788.0
 31
0.0
1001
FLOORFORGE
1000
floor:1
1000
preliminary
  0
LINE
  5
268
330
17
100
AcDbEntity
  8
A-DIMS
100
AcDbLine
 10
26834.0
 20
0.0
 30
0.0
 11
26834.0
 21
13788.0
 31
0.0
1001
FLOORFORGE
1000
floor:1
1000
preliminary
  0
LINE
  5
269
330
17
100
AcDbEntity
  8
A-DIMS
100
AcDbLine
 10
26774.0
 20
-60.0
 30
0.0
 11
26894.0
 21
60.0
 31
0.0
1001
FLOORFORGE
1000
floor:1
1000
preliminary
  0
LINE
  5
26A
330
17
100
AcDbEntity
  8
A-DIMS
100
AcDbLine
 10
26774.0
 20
13728.0
 30
0.0
 11
26894.0
 21
13848.0
 31
0.0
1001
FLOORFORGE
1000
floor:1
1000
preliminary
  0
TEXT
  5
26B
330
17
100
AcDbEntity
  8
A-DIMS
100
AcDbText
 10
26984.0
 20
6894.0
 30
0.0
 40
200.0
  1
13788
 11
26984.0
 21
6894.0
 31
0.0
100
AcDbText
1001
FLOORFORGE
1000
floor:1
1000
preliminary
  0
LINE
  5
26C
330
17
100
AcDbEntity
  8
A-DIMS
100
AcDbLine
 10
15992.0
 20
0.0
 30
0.0
 11
15992.0
 21
-1250.0
 31
0.0
1001
FLOORFORGE
1000
floor:1
1000
preliminary
  0
LINE
  5
26D
330
17
100
AcDbEntity
  8
A-DIMS
100
AcDbLine
 10
18792.0
 20
0.0
 30
0.0
 11
18792.0
 21
-1250.0
 31
0.0
1001
FLOORFORGE
1000
floor:1
1000
preliminary
  0
LINE
  5
26E
330
17
100
AcDbEntity
  8
A-DIMS
100
AcDbLine
 10
15992.0
 20
-1250.0
 30
0.0
 11
18792.0
 21
-1250.0
 31
0.0
1001
FLOORFORGE
1000
floor:1
1000
preliminary
  0
LINE
  5
26F
330
17
100
AcDbEntity
  8
A-DIMS
100
AcDbLine
 10
15932.0
 20
-1310.0
 30
0.0
 11
16052.0
 21
-1190.0
 31
0.0
1001
FLOORFORGE
1000
floor:1
1000
preliminary
  0
LINE
  5
270
330
17
100
AcDbEntity
  8
A-DIMS
100
AcDbLine
 10
18732.0
 20
-1310.0
 30
0.0
 11
18852.0
 21
-1190.0
 31
0.0
1001
FLOORFORGE
1000
floor:1
1000
preliminary
  0
TEXT
  5
271
330
17
100
AcDbEntity
  8
A-DIMS
100
AcDbText
 10
17392.0
 20
-1100.0
 30
0.0
 40
200.0
  1
2800
 72
1
 11
17392.0
 21
-1100.0
 31
0.0
100
AcDbText
 73
2
1001
FLOORFORGE
1000
floor:1
1000
preliminary
  0
LINE
  5
272
330
17
100
AcDbEntity
  8
A-DIMS
100
AcDbLine
 10
18792.0
 20
0.0
 30
0.0
 11
18792.0
 21
-1250.0
 31
0.0
1001
FLOORFORGE
1000
floor:1
1000
preliminary
  0
LINE
  5
273
330
17
100
AcDbEntity
  8
A-DIMS
100
AcDbLine
 10
21088.0
 20
0.0
 30
0.0
 11
21088.0
 21
-1250.0
 31
0.0
1001
FLOORFORGE
1000
floor:1
1000
preliminary
  0
LINE
  5
274
330
17
100
AcDbEntity
  8
A-DIMS
100
AcDbLine
 10
18792.0
 20
-1250.0
 30
0.0
 11
21088.0
 21
-1250.0
 31
0.0
1001
FLOORFORGE
1000
floor:1
1000
preliminary
  0
LINE
  5
275
330
17
100
AcDbEntity
  8
A-DIMS
100
AcDbLine
 10
18732.0
 20
-1310.0
 30
0.0
 11
18852.0
 21
-1190.0
 31
0.0
1001
FLOORFORGE
1000
floor:1
1000
preliminary
  0
LINE
  5
276
330
17
100
AcDbEntity
  8
A-DIMS
100
AcDbLine
 10
21028.0
 20
-1310.0
 30
0.0
 11
21148.0
 21
-1190.0
 31
0.0
1001
FLOORFORGE
1000
floor:1
1000
preliminary
  0
TEXT
  5
277
330
17
100
AcDbEntity
  8
A-DIMS
100
AcDbText
 10
19940.0
 20
-1100.0
 30
0.0
 40
200.0
  1
2296
 72
1
 11
19940.0
 21
-1100.0
 31
0.0
100
AcDbText
 73
2
1001
FLOORFORGE
1000
floor:1
1000
preliminary
  0
LINE
  5
278
330
17
100
AcDbEntity
  8
A-DIMS
100
AcDbLine
 10
21088.0
 20
0.0
 30
0.0
 11
21088.0
 21
-1250.0
 31
0.0
1001
FLOORFORGE
1000
floor:1
1000
preliminary
  0
LINE
  5
279
330
17
100
AcDbEntity
  8
A-DIMS
100
AcDbLine
 10
25984.0
 20
0.0
 30
0.0
 11
25984.0
 21
-1250.0
 31
0.0
1001
FLOORFORGE
1000
floor:1
1000
preliminary
  0
LINE
  5
27A
330
17
100
AcDbEntity
  8
A-DIMS
100
AcDbLine
 10
21088.0
 20
-1250.0
 30
0.0
 11
25984.0
 21
-1250.0
 31
0.0
1001
FLOORFORGE
1000
floor:1
1000
preliminary
  0
LINE
  5
27B
330
17
100
AcDbEntity
  8
A-DIMS
100
AcDbLine
 10
21028.0
 20
-1310.0
 30
0.0
 11
21148.0
 21
-1190.0
 31
0.0
1001
FLOORFORGE
1000
floor:1
1000
preliminary
  0
LINE
  5
27C
330
17
100
AcDbEntity
  8
A-DIMS
100
AcDbLine
 10
25924.0
 20
-1310.0
 30
0.0
 11
26044.0
 21
-1190.0
 31
0.0
1001
FLOORFORGE
1000
floor:1
1000
preliminary
  0
TEXT
  5
27D
330
17
100
AcDbEntity
  8
A-DIMS
100
AcDbText
 10
23536.0
 20
-1100.0
 30
0.0
 40
200.0
  1
4896
 72
1
 11
23536.0
 21
-1100.0
 31
0.0
100
AcDbText
 73
2
1001
FLOORFORGE
1000
floor:1
1000
preliminary
  0
LINE
  5
27E
330
17
100
AcDbEntity
  8
A-DIMS
100
AcDbLine
 10
15992.0
 20
13788.0
 30
0.0
 11
15992.0
 21
14438.0
 31
0.0
1001
FLOORFORGE
1000
floor:1
1000
preliminary
  0
LINE
  5
27F
330
17
100
AcDbEntity
  8
A-DIMS
100
AcDbLine
 10
20238.0
 20
13788.0
 30
0.0
 11
20238.0
 21
14438.0
 31
0.0
1001
FLOORFORGE
1000
floor:1
1000
preliminary
  0
LINE
  5
280
330
17
100
AcDbEntity
  8
A-DIMS
100
AcDbLine
 10
15992.0
 20
14438.0
 30
0.0
 11
20238.0
 21
14438.0
 31
0.0
1001
FLOORFORGE
1000
floor:1
1000
preliminary
  0
LINE
  5
281
330
17
100
AcDbEntity
  8
A-DIMS
100
AcDbLine
 10
15932.0
 20
14378.0
 30
0.0
 11
16052.0
 21
14498.0
 31
0.0
1001
FLOORFORGE
1000
floor:1
1000
preliminary
  0
LINE
  5
282
330
17
100
AcDbEntity
  8
A-DIMS
100
AcDbLine
 10
20178.0
 20
14378.0
 30
0.0
 11
20298.0
 21
14498.0
 31
0.0
1001
FLOORFORGE
1000
floor:1
1000
preliminary
  0
TEXT
  5
283
330
17
100
AcDbEntity
  8
A-DIMS
100
AcDbText
 10
18115.0
 20
14588.0
 30
0.0
 40
200.0
  1
4246
 72
1
 11
18115.0
 21
14588.0
 31
0.0
100
AcDbText
 73
2
1001
FLOORFORGE
1000
floor:1
1000
preliminary
  0
LINE
  5
284
330
17
100
AcDbEntity
  8
A-DIMS
100
AcDbLine
 10
20238.0
 20
13788.0
 30
0.0
 11
20238.0
 21
14438.0
 31
0.0
1001
FLOORFORGE
1000
floor:1
1000
preliminary
  0
LINE
  5
285
330
17
100
AcDbEntity
  8
A-DIMS
100
AcDbLine
 10
21738.0
 20
13788.0
 30
0.0
 11
21738.0
 21
14438.0
 31
0.0
1001
FLOORFORGE
1000
floor:1
1000
preliminary
  0
LINE
  5
286
330
17
100
AcDbEntity
  8
A-DIMS
100
AcDbLine
 10
20238.0
 20
14438.0
 30
0.0
 11
21738.0
 21
14438.0
 31
0.0
1001
FLOORFORGE
1000
floor:1
1000
preliminary
  0
LINE
  5
287
330
17
100
AcDbEntity
  8
A-DIMS
100
AcDbLine
 10
20178.0
 20
14378.0
 30
0.0
 11
20298.0
 21
14498.0
 31
0.0
1001
FLOORFORGE
1000
floor:1
1000
preliminary
  0
LINE
  5
288
330
17
100
AcDbEntity
  8
A-DIMS
100
AcDbLine
 10
21678.0
 20
14378.0
 30
0.0
 11
21798.0
 21
14498.0
 31
0.0
1001
FLOORFORGE
1000
floor:1
1000
preliminary
  0
TEXT
  5
289
330
17
100
AcDbEntity
  8
A-DIMS
100
AcDbText
 10
20988.0
 20
14588.0
 30
0.0
 40
200.0
  1
1500
 72
1
 11
20988.0
 21
14588.0
 31
0.0
100
AcDbText
 73
2
1001
FLOORFORGE
1000
floor:1
1000
preliminary
  0
LINE
  5
28A
330
17
100
AcDbEntity
  8
A-DIMS
100
AcDbLine
 10
21738.0
 20
13788.0
 30
0.0
 11
21738.0
 21
14438.0
 31
0.0
1001
FLOORFORGE
1000
floor:1
1000
preliminary
  0
LINE
  5
28B
330
17
100
AcDbEntity
  8
A-DIMS
100
AcDbLine
 10
25984.0
 20
13788.0
 30
0.0
 11
25984.0
 21
14438.0
 31
0.0
1001
FLOORFORGE
1000
floor:1
1000
preliminary
  0
LINE
  5
28C
330
17
100
AcDbEntity
  8
A-DIMS
100
AcDbLine
 10
21738.0
 20
14438.0
 30
0.0
 11
25984.0
 21
14438.0
 31
0.0
1001
FLOORFORGE
1000
floor:1
1000
preliminary
  0
LINE
  5
28D
330
17
100
AcDbEntity
  8
A-DIMS
100
AcDbLine
 10
21678.0
 20
14378.0
 30
0.0
 11
21798.0
 21
14498.0
 31
0.0
1001
FLOORFORGE
1000
floor:1
1000
preliminary
  0
LINE
  5
28E
330
17
100
AcDbEntity
  8
A-DIMS
100
AcDbLine
 10
25924.0
 20
14378.0
 30
0.0
 11
26044.0
 21
14498.0
 31
0.0
1001
FLOORFORGE
1000
floor:1
1000
preliminary
  0
TEXT
  5
28F
330
17
100
AcDbEntity
  8
A-DIMS
100
AcDbText
 10
23861.0
 20
14588.0
 30
0.0
 40
200.0
  1
4246
 72
1
 11
23861.0
 21
14588.0
 31
0.0
100
AcDbText
 73
2
1001
FLOORFORGE
1000
floor:1
1000
preliminary
  0
LINE
  5
290
330
17
100
AcDbEntity
  8
A-ANNO
100
AcDbLine
 10
14792.0
 20
13288.0
 30
0.0
 11
14792.0
 21
14088.0
 31
0.0
1001
FLOORFORGE
1000
floor:1
1000
preliminary
  0
TEXT
  5
291
330
17
100
AcDbEntity
  8
A-ANNO
100
AcDbText
 10
14792.0
 20
14388.0
 30
0.0
 40
280.0
  1
N
 72
1
 11
14792.0
 21
14388.0
 31
0.0
100
AcDbText
 73
2
1001
FLOORFORGE
1000
floor:1
1000
preliminary
  0
DIMENSION
  5
292
330
17
100
AcDbEntity
  8
A-DIMS
100
AcDbDimension
280
0
  2
*D3
  3
EZDXF
 10
15992.0
 20
-2100.0
 30
0.0
 11
20988.0
 21
-1999.9
 31
0.0
 70
32
 71
5
  1
<>
100
AcDbAlignedDimension
 13
15992.0
 23
0.0
 33
0.0
 14
25984.0
 24
0.0
 34
0.0
 50
0.0
100
AcDbRotatedDimension
1001
ACAD
1000
DSTYLE
1002
{
1070
140
1040
200.0
1070
41
1040
120.0
1070
42
1040
80.0
1070
44
1040
80.0
1002
}
  0
DIMENSION
  5
2A1
330
17
100
AcDbEntity
  8
A-DIMS
100
AcDbDimension
280
0
  2
*D4
  3
EZDXF
 10
28084.0
 20
0.0
 30
0.0
 11
27983.9
 21
6894.0
 31
0.0
 70
32
 71
5
  1
<>
100
AcDbAlignedDimension
 13
25984.0
 23
0.0
 33
0.0
 14
25984.0
 24
13788.0
 34
0.0
 50
90.0
100
AcDbRotatedDimension
1001
ACAD
1000
DSTYLE
1002
{
1070
140
1040
200.0
1070
41
1040
120.0
1070
42
1040
80.0
1070
44
1040
80.0
1002
}
  0
TEXT
  5
2B0
330
17
100
AcDbEntity
  8
A-ANNO
100
AcDbText
 10
15992.0
 20
-2900.0
 30
0.0
 40
190.0
  1
PRELIMINARY - ENGINEER TO REVIEW - NOT FOR CONSTRUCTION
 11
15992.0
 21
-2900.0
 31
0.0
100
AcDbText
  0
TEXT
  5
2B1
330
17
100
AcDbEntity
  8
A-ANNO
100
AcDbText
 10
15992.0
 20
15588.0
 30
0.0
 40
210.0
  1
FLOOR 1 / TRUE MILLIMETRES / NO STRUCTURAL CERTIFICATION
 11
15992.0
 21
15588.0
 31
0.0
100
AcDbText
  0
ENDSEC
  0
SECTION
  2
OBJECTS
  0
DICTIONARY
  5
A
330
0
100
AcDbDictionary
281
1
  3
ACAD_COLOR
350
B
  3
ACAD_GROUP
350
C
  3
ACAD_LAYOUT
350
D
  3
ACAD_MATERIAL
350
E
  3
ACAD_MLEADERSTYLE
350
F
  3
ACAD_MLINESTYLE
350
10
  3
ACAD_PLOTSETTINGS
350
11
  3
ACAD_PLOTSTYLENAME
350
12
  3
ACAD_SCALELIST
350
14
  3
ACAD_TABLESTYLE
350
15
  3
ACAD_VISUALSTYLE
350
16
  3
EZDXF_META
350
2D
  0
DICTIONARY
  5
B
330
A
100
AcDbDictionary
281
1
  0
DICTIONARY
  5
C
330
A
100
AcDbDictionary
281
1
  0
DICTIONARY
  5
D
330
A
100
AcDbDictionary
281
1
  3
Model
350
1A
  3
Layout1
350
1E
  3
GROUND
350
1A0
  3
FLOOR-1
350
2B5
  0
DICTIONARY
  5
E
330
A
100
AcDbDictionary
281
1
  3
ByBlock
350
1F
  3
ByLayer
350
20
  3
Global
350
21
  0
DICTIONARY
  5
F
330
A
100
AcDbDictionary
281
1
  3
Standard
350
2C
  0
DICTIONARY
  5
10
330
A
100
AcDbDictionary
281
1
  3
Standard
350
22
  0
DICTIONARY
  5
11
330
A
100
AcDbDictionary
281
1
  0
ACDBDICTIONARYWDFLT
  5
12
330
A
100
AcDbDictionary
281
1
  3
Normal
350
13
100
AcDbDictionaryWithDefault
340
13
  0
ACDBPLACEHOLDER
  5
13
330
12
  0
DICTIONARY
  5
14
330
A
100
AcDbDictionary
281
1
  0
DICTIONARY
  5
15
330
A
100
AcDbDictionary
281
1
  0
DICTIONARY
  5
16
330
A
100
AcDbDictionary
281
1
  3
2dWireframe
350
5A
  3
Basic
350
5B
  3
Brighten
350
5C
  3
ColorChange
350
5D
  3
Conceptual
350
5E
  3
Dim
350
5F
  3
EdgeColorOff
350
60
  3
Facepattern
350
61
  3
Flat
350
62
  3
FlatWithEdges
350
63
  3
Gouraud
350
64
  3
GouraudWithEdges
350
65
  3
Hidden
350
66
  3
JitterOff
350
67
  3
Linepattern
350
68
  3
Modeling
350
69
  3
OverhangOff
350
6A
  3
Realistic
350
6B
  3
Shaded
350
6C
  3
Shaded with edges
350
6D
  3
Shades of Gray
350
6E
  3
Sketchy
350
6F
  3
Thicken
350
70
  3
Wireframe
350
71
  3
X-Ray
350
72
  0
LAYOUT
  5
1A
330
D
100
AcDbPlotSettings
  1

  4
A3
  6

 40
7.5
 41
20.0
 42
7.5
 43
20.0
 44
420.0
 45
297.0
 46
0.0
 47
0.0
 48
0.0
 49
0.0
140
0.0
141
0.0
142
1.0
143
1.0
 70
1024
 72
1
 73
0
 74
5
  7

 75
16
 76
0
 77
2
 78
300
147
1.0
148
0.0
149
0.0
100
AcDbLayout
  1
Model
 70
1
 71
0
 10
0.0
 20
0.0
 11
420.0
 21
297.0
 12
0.0
 22
0.0
 32
0.0
 14
1e+20
 24
1e+20
 34
1e+20
 15
-1e+20
 25
-1e+20
 35
-1e+20
146
0.0
 13
0.0
 23
0.0
 33
0.0
 16
1.0
 26
0.0
 36
0.0
 17
0.0
 27
1.0
 37
0.0
 76
1
330
17
  0
LAYOUT
  5
1E
330
D
100
AcDbPlotSettings
  1

  4
A3
  6

 40
7.5
 41
20.0
 42
7.5
 43
20.0
 44
420.0
 45
297.0
 46
0.0
 47
0.0
 48
0.0
 49
0.0
140
0.0
141
0.0
142
1.0
143
1.0
 70
0
 72
1
 73
0
 74
5
  7

 75
16
 76
0
 77
2
 78
300
147
1.0
148
0.0
149
0.0
100
AcDbLayout
  1
Layout1
 70
1
 71
1
 10
0.0
 20
0.0
 11
420.0
 21
297.0
 12
0.0
 22
0.0
 32
0.0
 14
1e+20
 24
1e+20
 34
1e+20
 15
-1e+20
 25
-1e+20
 35
-1e+20
146
0.0
 13
0.0
 23
0.0
 33
0.0
 16
1.0
 26
0.0
 36
0.0
 17
0.0
 27
1.0
 37
0.0
 76
1
330
1B
  0
MATERIAL
  5
1F
102
{ACAD_REACTORS
330
E
102
}
330
E
100
AcDbMaterial
  1
ByBlock
  2

 70
0
 40
1.0
 71
1
 41
1.0
 91
-1023410177
 42
1.0
 72
1
  3

 73
1
 74
1
 75
1
 44
0.5
 73
0
 45
1.0
 46
1.0
 77
1
  4

 78
1
 79
1
170
1
 48
1.0
171
1
  6

172
1
173
1
174
1
140
1.0
141
1.0
175
1
  7

176
1
177
1
178
1
143
1.0
179
1
  8

270
1
271
1
272
1
145
1.0
146
1.0
273
1
  9

274
1
275
1
276
1
 42
1.0
 72
1
  3

 73
1
 74
1
 75
1
 94
63
  0
MATERIAL
  5
20
102
{ACAD_REACTORS
330
E
102
}
330
E
100
AcDbMaterial
  1
ByLayer
  2

 70
0
 40
1.0
 71
1
 41
1.0
 91
-1023410177
 42
1.0
 72
1
  3

 73
1
 74
1
 75
1
 44
0.5
 73
0
 45
1.0
 46
1.0
 77
1
  4

 78
1
 79
1
170
1
 48
1.0
171
1
  6

172
1
173
1
174
1
140
1.0
141
1.0
175
1
  7

176
1
177
1
178
1
143
1.0
179
1
  8

270
1
271
1
272
1
145
1.0
146
1.0
273
1
  9

274
1
275
1
276
1
 42
1.0
 72
1
  3

 73
1
 74
1
 75
1
 94
63
  0
MATERIAL
  5
21
102
{ACAD_REACTORS
330
E
102
}
330
E
100
AcDbMaterial
  1
Global
  2

 70
0
 40
1.0
 71
1
 41
1.0
 91
-1023410177
 42
1.0
 72
1
  3

 73
1
 74
1
 75
1
 44
0.5
 73
0
 45
1.0
 46
1.0
 77
1
  4

 78
1
 79
1
170
1
 48
1.0
171
1
  6

172
1
173
1
174
1
140
1.0
141
1.0
175
1
  7

176
1
177
1
178
1
143
1.0
179
1
  8

270
1
271
1
272
1
145
1.0
146
1.0
273
1
  9

274
1
275
1
276
1
 42
1.0
 72
1
  3

 73
1
 74
1
 75
1
 94
63
  0
MLINESTYLE
  5
22
102
{ACAD_REACTORS
330
10
102
}
330
10
100
AcDbMlineStyle
  2
Standard
 70
0
  3

 62
256
 51
90.0
 52
90.0
 71
2
 49
0.5
 62
256
  6
BYLAYER
 49
-0.5
 62
256
  6
BYLAYER
  0
MLEADERSTYLE
  5
2C
102
{ACAD_REACTORS
330
F
102
}
330
F
100
AcDbMLeaderStyle
179
2
170
2
171
1
172
0
 90
2
 40
0.0
 41
0.0
173
1
 91
-1056964608
 92
-2
290
1
 42
2.0
291
1
 43
8.0
  3
Standard
 44
4.0
300

342
29
174
1
175
1
176
0
178
1
 93
-1056964608
 45
4.0
292
0
297
0
 46
4.0
 94
-1056964608
 47
1.0
 49
1.0
140
1.0
294
1
141
0.0
177
0
142
1.0
295
0
296
0
143
3.75
271
0
272
9
273
9
  0
DICTIONARY
  5
2D
330
A
100
AcDbDictionary
280
1
281
1
  3
CREATED_BY_EZDXF
350
2E
  3
WRITTEN_BY_EZDXF
350
2BB
  0
DICTIONARYVAR
  5
2E
330
2D
100
DictionaryVariables
280
0
  1
ezdxf 1.4.4 / FloorForge deterministic export
  0
VISUALSTYLE
  5
5A
102
{ACAD_REACTORS
330
16
102
}
330
16
100
AcDbVisualStyle
  2
2dWireframe
 70
4
177
3
291
0
 70
58
 90
2
176
1
 90
2
176
1
 90
0
176
1
 90
0
176
1
 40
0.6
176
1
 40
30.0
176
1
 62
7
420
16777215
176
1
 90
1
176
1
 90
4
176
1
 62
7
176
1
 62
257
176
1
 90
1
176
1
 90
1
176
1
 40
1.0
176
1
 90
8
176
1
 62
7
176
1
 40
1.0
176
1
 90
1
176
1
 90
6
176
1
 90
2
176
1
 62
7
176
1
 90
5
176
1
 90
0
176
1
 90
0
176
1
290
0
176
1
 90
1
176
1
 40
0.0
176
1
 90
0
176
1
290
1
176
1
290
1
176
1
290
0
176
1
290
0
176
1
290
0
176
1
290
0
176
1
290
0
176
1
290
0
176
1
290
0
176
1
 90
50
176
1
 40
0.0
176
1
 40
1.0
176
1
 90
0
176
1
 62
18
420
0
176
1
 90
50
176
1
 90
3
176
1
 62
5
420
255
176
1
290
0
176
1
 90
50
176
1
 90
50
176
1
 90
50
176
1
290
0
176
1
 90
50
176
1
 62
256
176
0
 40
1.0
176
0
 90
2
176
1
  1
strokes_ogs.tif
176
1
290
0
176
1
 40
1.0
176
1
 40
1.0
176
1
  0
VISUALSTYLE
  5
5B
102
{ACAD_REACTORS
330
16
102
}
330
16
100
AcDbVisualStyle
  2
Basic
 70
7
177
3
291
1
 70
58
 90
2
176
1
 90
2
176
1
 90
0
176
1
 90
1
176
1
 40
0.6
176
1
 40
30.0
176
1
 62
7
420
16777215
176
1
 90
1
176
1
 90
4
176
1
 62
7
176
1
 62
257
176
1
 90
1
176
1
 90
1
176
1
 40
1.0
176
1
 90
8
176
1
 62
7
176
1
 40
1.0
176
1
 90
1
176
1
 90
6
176
1
 90
2
176
1
 62
7
176
1
 90
5
176
1
 90
0
176
1
 90
0
176
1
290
0
176
1
 90
1
176
1
 40
0.0
176
1
 90
0
176
1
290
0
176
1
290
1
176
1
290
1
176
1
290
0
176
1
290
0
176
1
290
0
176
1
290
0
176
1
290
0
176
1
290
0
176
1
 90
50
176
1
 40
0.0
176
1
 40
1.0
176
1
 90
0
176
1
 62
18
420
0
176
1
 90
50
176
1
 90
3
176
1
 62
5
420
255
176
1
290
0
176
1
 90
50
176
1
 90
50
176
1
 90
50
176
1
290
0
176
1
 90
50
176
1
 62
256
176
0
 40
1.0
176
0
 90
2
176
1
  1
strokes_ogs.tif
176
1
290
0
176
1
 40
1.0
176
1
 40
1.0
176
1
  0
VISUALSTYLE
  5
5C
102
{ACAD_REACTORS
330
16
102
}
330
16
100
AcDbVisualStyle
  2
Brighten
 70
12
177
3
291
1
 70
58
 90
2
176
1
 90
2
176
1
 90
0
176
1
 90
2
176
1
 40
0.6
176
1
 40
30.0
176
1
 62
7
420
16777215
176
1
 90
1
176
1
 90
4
176
1
 62
7
176
1
 62
257
176
1
 90
1
176
1
 90
1
176
1
 40
1.0
176
1
 90
8
176
1
 62
7
176
1
 40
1.0
176
1
 90
1
176
1
 90
6
176
1
 90
2
176
1
 62
7
176
1
 90
5
176
1
 90
0
176
1
 90
0
176
1
290
0
176
1
 90
1
176
1
 40
0.0
176
1
 90
0
176
1
290
0
176
1
290
1
176
1
290
1
176
1
290
0
176
1
290
0
176
1
290
0
176
1
290
0
176
1
290
0
176
1
290
0
176
1
 90
50
176
1
 40
0.0
176
1
 40
1.0
176
1
 90
0
176
1
 62
18
420
0
176
1
 90
50
176
1
 90
3
176
1
 62
5
420
255
176
1
290
0
176
1
 90
50
176
1
 90
50
176
1
 90
50
176
1
290
0
176
1
 90
50
176
1
 62
256
176
0
 40
1.0
176
0
 90
2
176
1
  1
strokes_ogs.tif
176
1
290
0
176
1
 40
1.0
176
1
 40
1.0
176
1
  0
VISUALSTYLE
  5
5D
102
{ACAD_REACTORS
330
16
102
}
330
16
100
AcDbVisualStyle
  2
ColorChange
 70
16
177
3
291
1
 70
58
 90
2
176
1
 90
2
176
1
 90
0
176
1
 90
2
176
1
 40
0.6
176
1
 40
30.0
176
1
 62
7
420
16777215
176
1
 90
1
176
1
 90
4
176
1
 62
7
176
1
 62
257
176
1
 90
1
176
1
 90
1
176
1
 40
1.0
176
1
 90
8
176
1
 62
7
176
1
 40
1.0
176
1
 90
1
176
1
 90
6
176
1
 90
2
176
1
 62
7
176
1
 90
5
176
1
 90
0
176
1
 90
0
176
1
290
0
176
1
 90
1
176
1
 40
0.0
176
1
 90
0
176
1
290
0
176
1
290
1
176
1
290
1
176
1
290
0
176
1
290
0
176
1
290
0
176
1
290
0
176
1
290
0
176
1
290
0
176
1
 90
50
176
1
 40
0.0
176
1
 40
1.0
176
1
 90
0
176
1
 62
18
420
0
176
1
 90
50
176
1
 90
3
176
1
 62
5
420
255
176
1
290
0
176
1
 90
50
176
1
 90
50
176
1
 90
50
176
1
290
0
176
1
 90
50
176
1
 62
256
176
0
 40
1.0
176
0
 90
2
176
1
  1
strokes_ogs.tif
176
1
290
0
176
1
 40
1.0
176
1
 40
1.0
176
1
  0
VISUALSTYLE
  5
5E
102
{ACAD_REACTORS
330
16
102
}
330
16
100
AcDbVisualStyle
  2
Conceptual
 70
9
177
3
291
0
 70
58
 90
2
176
1
 90
2
176
1
 90
0
176
1
 90
3
176
1
 40
0.6
176
1
 40
30.0
176
1
 62
7
420
16777215
176
1
 90
1
176
1
 90
4
176
1
 62
7
176
1
 62
257
176
1
 90
1
176
1
 90
1
176
1
 40
1.0
176
1
 90
8
176
1
 62
7
176
1
 40
1.0
176
1
 90
1
176
1
 90
6
176
1
 90
2
176
1
 62
7
176
1
 90
5
176
1
 90
0
176
1
 90
0
176
1
290
0
176
1
 90
1
176
1
 40
0.0
176
1
 90
0
176
1
290
0
176
1
290
1
176
1
290
1
176
1
290
0
176
1
290
0
176
1
290
0
176
1
290
0
176
1
290
0
176
1
290
0
176
1
 90
50
176
1
 40
0.0
176
1
 40
1.0
176
1
 90
0
176
1
 62
18
420
0
176
1
 90
50
176
1
 90
3
176
1
 62
5
420
255
176
1
290
0
176
1
 90
50
176
1
 90
50
176
1
 90
50
176
1
290
0
176
1
 90
50
176
1
 62
256
176
0
 40
1.0
176
0
 90
2
176
1
  1
strokes_ogs.tif
176
1
290
0
176
1
 40
1.0
176
1
 40
1.0
176
1
  0
VISUALSTYLE
  5
5F
102
{ACAD_REACTORS
330
16
102
}
330
16
100
AcDbVisualStyle
  2
Dim
 70
11
177
3
291
1
 70
58
 90
2
176
1
 90
2
176
1
 90
0
176
1
 90
2
176
1
 40
0.6
176
1
 40
30.0
176
1
 62
7
420
16777215
176
1
 90
1
176
1
 90
4
176
1
 62
7
176
1
 62
257
176
1
 90
1
176
1
 90
1
176
1
 40
1.0
176
1
 90
8
176
1
 62
7
176
1
 40
1.0
176
1
 90
1
176
1
 90
6
176
1
 90
2
176
1
 62
7
176
1
 90
5
176
1
 90
0
176
1
 90
0
176
1
290
0
176
1
 90
1
176
1
 40
0.0
176
1
 90
0
176
1
290
0
176
1
290
1
176
1
290
1
176
1
290
0
176
1
290
0
176
1
290
0
176
1
290
0
176
1
290
0
176
1
290
0
176
1
 90
50
176
1
 40
0.0
176
1
 40
1.0
176
1
 90
0
176
1
 62
18
420
0
176
1
 90
50
176
1
 90
3
176
1
 62
5
420
255
176
1
290
0
176
1
 90
50
176
1
 90
50
176
1
 90
50
176
1
290
0
176
1
 90
50
176
1
 62
256
176
0
 40
1.0
176
0
 90
2
176
1
  1
strokes_ogs.tif
176
1
290
0
176
1
 40
1.0
176
1
 40
1.0
176
1
  0
VISUALSTYLE
  5
60
102
{ACAD_REACTORS
330
16
102
}
330
16
100
AcDbVisualStyle
  2
EdgeColorOff
 70
22
177
3
291
1
 70
58
 90
2
176
1
 90
2
176
1
 90
0
176
1
 90
2
176
1
 40
0.6
176
1
 40
30.0
176
1
 62
7
420
16777215
176
1
 90
1
176
1
 90
4
176
1
 62
7
176
1
 62
257
176
1
 90
1
176
1
 90
1
176
1
 40
1.0
176
1
 90
8
176
1
 62
7
176
1
 40
1.0
176
1
 90
1
176
1
 90
6
176
1
 90
2
176
1
 62
7
176
1
 90
5
176
1
 90
0
176
1
 90
0
176
1
290
0
176
1
 90
1
176
1
 40
0.0
176
1
 90
0
176
1
290
0
176
1
290
1
176
1
290
1
176
1
290
0
176
1
290
0
176
1
290
0
176
1
290
0
176
1
290
0
176
1
290
0
176
1
 90
50
176
1
 40
0.0
176
1
 40
1.0
176
1
 90
0
176
1
 62
18
420
0
176
1
 90
50
176
1
 90
3
176
1
 62
5
420
255
176
1
290
0
176
1
 90
50
176
1
 90
50
176
1
 90
50
176
1
290
0
176
1
 90
50
176
1
 62
256
176
0
 40
1.0
176
0
 90
2
176
1
  1
strokes_ogs.tif
176
1
290
0
176
1
 40
1.0
176
1
 40
1.0
176
1
  0
VISUALSTYLE
  5
61
102
{ACAD_REACTORS
330
16
102
}
330
16
100
AcDbVisualStyle
  2
Facepattern
 70
15
177
3
291
1
 70
58
 90
2
176
1
 90
2
176
1
 90
0
176
1
 90
2
176
1
 40
0.6
176
1
 40
30.0
176
1
 62
7
420
16777215
176
1
 90
1
176
1
 90
4
176
1
 62
7
176
1
 62
257
176
1
 90
1
176
1
 90
1
176
1
 40
1.0
176
1
 90
8
176
1
 62
7
176
1
 40
1.0
176
1
 90
1
176
1
 90
6
176
1
 90
2
176
1
 62
7
176
1
 90
5
176
1
 90
0
176
1
 90
0
176
1
290
0
176
1
 90
1
176
1
 40
0.0
176
1
 90
0
176
1
290
0
176
1
290
1
176
1
290
1
176
1
290
0
176
1
290
0
176
1
290
0
176
1
290
0
176
1
290
0
176
1
290
0
176
1
 90
50
176
1
 40
0.0
176
1
 40
1.0
176
1
 90
0
176
1
 62
18
420
0
176
1
 90
50
176
1
 90
3
176
1
 62
5
420
255
176
1
290
0
176
1
 90
50
176
1
 90
50
176
1
 90
50
176
1
290
0
176
1
 90
50
176
1
 62
256
176
0
 40
1.0
176
0
 90
2
176
1
  1
strokes_ogs.tif
176
1
290
0
176
1
 40
1.0
176
1
 40
1.0
176
1
  0
VISUALSTYLE
  5
62
102
{ACAD_REACTORS
330
16
102
}
330
16
100
AcDbVisualStyle
  2
Flat
 70
0
177
3
291
1
 70
58
 90
2
176
1
 90
2
176
1
 90
0
176
1
 90
2
176
1
 40
0.6
176
1
 40
30.0
176
1
 62
7
420
16777215
176
1
 90
1
176
1
 90
4
176
1
 62
7
176
1
 62
257
176
1
 90
1
176
1
 90
1
176
1
 40
1.0
176
1
 90
8
176
1
 62
7
176
1
 40
1.0
176
1
 90
1
176
1
 90
6
176
1
 90
2
176
1
 62
7
176
1
 90
5
176
1
 90
0
176
1
 90
0
176
1
290
0
176
1
 90
1
176
1
 40
0.0
176
1
 90
0
176
1
290
0
176
1
290
1
176
1
290
1
176
1
290
0
176
1
290
0
176
1
290
0
176
1
290
0
176
1
290
0
176
1
290
0
176
1
 90
50
176
1
 40
0.0
176
1
 40
1.0
176
1
 90
0
176
1
 62
18
420
0
176
1
 90
50
176
1
 90
3
176
1
 62
5
420
255
176
1
290
0
176
1
 90
50
176
1
 90
50
176
1
 90
50
176
1
290
0
176
1
 90
50
176
1
 62
256
176
0
 40
1.0
176
0
 90
2
176
1
  1
strokes_ogs.tif
176
1
290
0
176
1
 40
1.0
176
1
 40
1.0
176
1
  0
VISUALSTYLE
  5
63
102
{ACAD_REACTORS
330
16
102
}
330
16
100
AcDbVisualStyle
  2
FlatWithEdges
 70
1
177
3
291
1
 70
58
 90
2
176
1
 90
2
176
1
 90
0
176
1
 90
2
176
1
 40
0.6
176
1
 40
30.0
176
1
 62
7
420
16777215
176
1
 90
1
176
1
 90
4
176
1
 62
7
176
1
 62
257
176
1
 90
1
176
1
 90
1
176
1
 40
1.0
176
1
 90
8
176
1
 62
7
176
1
 40
1.0
176
1
 90
1
176
1
 90
6
176
1
 90
2
176
1
 62
7
176
1
 90
5
176
1
 90
0
176
1
 90
0
176
1
290
0
176
1
 90
1
176
1
 40
0.0
176
1
 90
0
176
1
290
0
176
1
290
1
176
1
290
1
176
1
290
0
176
1
290
0
176
1
290
0
176
1
290
0
176
1
290
0
176
1
290
0
176
1
 90
50
176
1
 40
0.0
176
1
 40
1.0
176
1
 90
0
176
1
 62
18
420
0
176
1
 90
50
176
1
 90
3
176
1
 62
5
420
255
176
1
290
0
176
1
 90
50
176
1
 90
50
176
1
 90
50
176
1
290
0
176
1
 90
50
176
1
 62
256
176
0
 40
1.0
176
0
 90
2
176
1
  1
strokes_ogs.tif
176
1
290
0
176
1
 40
1.0
176
1
 40
1.0
176
1
  0
VISUALSTYLE
  5
64
102
{ACAD_REACTORS
330
16
102
}
330
16
100
AcDbVisualStyle
  2
Gouraud
 70
2
177
3
291
1
 70
58
 90
2
176
1
 90
2
176
1
 90
0
176
1
 90
2
176
1
 40
0.6
176
1
 40
30.0
176
1
 62
7
420
16777215
176
1
 90
1
176
1
 90
4
176
1
 62
7
176
1
 62
257
176
1
 90
1
176
1
 90
1
176
1
 40
1.0
176
1
 90
8
176
1
 62
7
176
1
 40
1.0
176
1
 90
1
176
1
 90
6
176
1
 90
2
176
1
 62
7
176
1
 90
5
176
1
 90
0
176
1
 90
0
176
1
290
0
176
1
 90
1
176
1
 40
0.0
176
1
 90
0
176
1
290
0
176
1
290
1
176
1
290
1
176
1
290
0
176
1
290
0
176
1
290
0
176
1
290
0
176
1
290
0
176
1
290
0
176
1
 90
50
176
1
 40
0.0
176
1
 40
1.0
176
1
 90
0
176
1
 62
18
420
0
176
1
 90
50
176
1
 90
3
176
1
 62
5
420
255
176
1
290
0
176
1
 90
50
176
1
 90
50
176
1
 90
50
176
1
290
0
176
1
 90
50
176
1
 62
256
176
0
 40
1.0
176
0
 90
2
176
1
  1
strokes_ogs.tif
176
1
290
0
176
1
 40
1.0
176
1
 40
1.0
176
1
  0
VISUALSTYLE
  5
65
102
{ACAD_REACTORS
330
16
102
}
330
16
100
AcDbVisualStyle
  2
GouraudWithEdges
 70
3
177
3
291
1
 70
58
 90
2
176
1
 90
2
176
1
 90
0
176
1
 90
2
176
1
 40
0.6
176
1
 40
30.0
176
1
 62
7
420
16777215
176
1
 90
1
176
1
 90
4
176
1
 62
7
176
1
 62
257
176
1
 90
1
176
1
 90
1
176
1
 40
1.0
176
1
 90
8
176
1
 62
7
176
1
 40
1.0
176
1
 90
1
176
1
 90
6
176
1
 90
2
176
1
 62
7
176
1
 90
5
176
1
 90
0
176
1
 90
0
176
1
290
0
176
1
 90
1
176
1
 40
0.0
176
1
 90
0
176
1
290
0
176
1
290
1
176
1
290
1
176
1
290
0
176
1
290
0
176
1
290
0
176
1
290
0
176
1
290
0
176
1
290
0
176
1
 90
50
176
1
 40
0.0
176
1
 40
1.0
176
1
 90
0
176
1
 62
18
420
0
176
1
 90
50
176
1
 90
3
176
1
 62
5
420
255
176
1
290
0
176
1
 90
50
176
1
 90
50
176
1
 90
50
176
1
290
0
176
1
 90
50
176
1
 62
256
176
0
 40
1.0
176
0
 90
2
176
1
  1
strokes_ogs.tif
176
1
290
0
176
1
 40
1.0
176
1
 40
1.0
176
1
  0
VISUALSTYLE
  5
66
102
{ACAD_REACTORS
330
16
102
}
330
16
100
AcDbVisualStyle
  2
Hidden
 70
6
177
3
291
0
 70
58
 90
2
176
1
 90
2
176
1
 90
0
176
1
 90
1
176
1
 40
0.6
176
1
 40
30.0
176
1
 62
7
420
16777215
176
1
 90
1
176
1
 90
4
176
1
 62
7
176
1
 62
257
176
1
 90
1
176
1
 90
1
176
1
 40
1.0
176
1
 90
8
176
1
 62
7
176
1
 40
1.0
176
1
 90
1
176
1
 90
6
176
1
 90
2
176
1
 62
7
176
1
 90
5
176
1
 90
0
176
1
 90
0
176
1
290
0
176
1
 90
1
176
1
 40
0.0
176
1
 90
0
176
1
290
0
176
1
290
1
176
1
290
1
176
1
290
0
176
1
290
0
176
1
290
0
176
1
290
0
176
1
290
0
176
1
290
0
176
1
 90
50
176
1
 40
0.0
176
1
 40
1.0
176
1
 90
0
176
1
 62
18
420
0
176
1
 90
50
176
1
 90
3
176
1
 62
5
420
255
176
1
290
0
176
1
 90
50
176
1
 90
50
176
1
 90
50
176
1
290
0
176
1
 90
50
176
1
 62
256
176
0
 40
1.0
176
0
 90
2
176
1
  1
strokes_ogs.tif
176
1
290
0
176
1
 40
1.0
176
1
 40
1.0
176
1
  0
VISUALSTYLE
  5
67
102
{ACAD_REACTORS
330
16
102
}
330
16
100
AcDbVisualStyle
  2
JitterOff
 70
20
177
3
291
1
 70
58
 90
2
176
1
 90
2
176
1
 90
0
176
1
 90
2
176
1
 40
0.6
176
1
 40
30.0
176
1
 62
7
420
16777215
176
1
 90
1
176
1
 90
4
176
1
 62
7
176
1
 62
257
176
1
 90
1
176
1
 90
1
176
1
 40
1.0
176
1
 90
8
176
1
 62
7
176
1
 40
1.0
176
1
 90
1
176
1
 90
6
176
1
 90
2
176
1
 62
7
176
1
 90
5
176
1
 90
0
176
1
 90
0
176
1
290
0
176
1
 90
1
176
1
 40
0.0
176
1
 90
0
176
1
290
0
176
1
290
1
176
1
290
1
176
1
290
0
176
1
290
0
176
1
290
0
176
1
290
0
176
1
290
0
176
1
290
0
176
1
 90
50
176
1
 40
0.0
176
1
 40
1.0
176
1
 90
0
176
1
 62
18
420
0
176
1
 90
50
176
1
 90
3
176
1
 62
5
420
255
176
1
290
0
176
1
 90
50
176
1
 90
50
176
1
 90
50
176
1
290
0
176
1
 90
50
176
1
 62
256
176
0
 40
1.0
176
0
 90
2
176
1
  1
strokes_ogs.tif
176
1
290
0
176
1
 40
1.0
176
1
 40
1.0
176
1
  0
VISUALSTYLE
  5
68
102
{ACAD_REACTORS
330
16
102
}
330
16
100
AcDbVisualStyle
  2
Linepattern
 70
14
177
3
291
1
 70
58
 90
2
176
1
 90
2
176
1
 90
0
176
1
 90
2
176
1
 40
0.6
176
1
 40
30.0
176
1
 62
7
420
16777215
176
1
 90
1
176
1
 90
4
176
1
 62
7
176
1
 62
257
176
1
 90
1
176
1
 90
1
176
1
 40
1.0
176
1
 90
8
176
1
 62
7
176
1
 40
1.0
176
1
 90
1
176
1
 90
6
176
1
 90
2
176
1
 62
7
176
1
 90
5
176
1
 90
0
176
1
 90
0
176
1
290
0
176
1
 90
1
176
1
 40
0.0
176
1
 90
0
176
1
290
0
176
1
290
1
176
1
290
1
176
1
290
0
176
1
290
0
176
1
290
0
176
1
290
0
176
1
290
0
176
1
290
0
176
1
 90
50
176
1
 40
0.0
176
1
 40
1.0
176
1
 90
0
176
1
 62
18
420
0
176
1
 90
50
176
1
 90
3
176
1
 62
5
420
255
176
1
290
0
176
1
 90
50
176
1
 90
50
176
1
 90
50
176
1
290
0
176
1
 90
50
176
1
 62
256
176
0
 40
1.0
176
0
 90
2
176
1
  1
strokes_ogs.tif
176
1
290
0
176
1
 40
1.0
176
1
 40
1.0
176
1
  0
VISUALSTYLE
  5
69
102
{ACAD_REACTORS
330
16
102
}
330
16
100
AcDbVisualStyle
  2
Modeling
 70
10
177
3
291
0
 70
58
 90
2
176
1
 90
2
176
1
 90
0
176
1
 90
2
176
1
 40
0.6
176
1
 40
30.0
176
1
 62
7
420
16777215
176
1
 90
1
176
1
 90
4
176
1
 62
7
176
1
 62
257
176
1
 90
1
176
1
 90
1
176
1
 40
1.0
176
1
 90
8
176
1
 62
7
176
1
 40
1.0
176
1
 90
1
176
1
 90
6
176
1
 90
2
176
1
 62
7
176
1
 90
5
176
1
 90
0
176
1
 90
0
176
1
290
0
176
1
 90
1
176
1
 40
0.0
176
1
 90
0
176
1
290
0
176
1
290
1
176
1
290
1
176
1
290
0
176
1
290
0
176
1
290
0
176
1
290
0
176
1
290
0
176
1
290
0
176
1
 90
50
176
1
 40
0.0
176
1
 40
1.0
176
1
 90
0
176
1
 62
18
420
0
176
1
 90
50
176
1
 90
3
176
1
 62
5
420
255
176
1
290
0
176
1
 90
50
176
1
 90
50
176
1
 90
50
176
1
290
0
176
1
 90
50
176
1
 62
256
176
0
 40
1.0
176
0
 90
2
176
1
  1
strokes_ogs.tif
176
1
290
0
176
1
 40
1.0
176
1
 40
1.0
176
1
  0
VISUALSTYLE
  5
6A
102
{ACAD_REACTORS
330
16
102
}
330
16
100
AcDbVisualStyle
  2
OverhangOff
 70
21
177
3
291
1
 70
58
 90
2
176
1
 90
2
176
1
 90
0
176
1
 90
2
176
1
 40
0.6
176
1
 40
30.0
176
1
 62
7
420
16777215
176
1
 90
1
176
1
 90
4
176
1
 62
7
176
1
 62
257
176
1
 90
1
176
1
 90
1
176
1
 40
1.0
176
1
 90
8
176
1
 62
7
176
1
 40
1.0
176
1
 90
1
176
1
 90
6
176
1
 90
2
176
1
 62
7
176
1
 90
5
176
1
 90
0
176
1
 90
0
176
1
290
0
176
1
 90
1
176
1
 40
0.0
176
1
 90
0
176
1
290
0
176
1
290
1
176
1
290
1
176
1
290
0
176
1
290
0
176
1
290
0
176
1
290
0
176
1
290
0
176
1
290
0
176
1
 90
50
176
1
 40
0.0
176
1
 40
1.0
176
1
 90
0
176
1
 62
18
420
0
176
1
 90
50
176
1
 90
3
176
1
 62
5
420
255
176
1
290
0
176
1
 90
50
176
1
 90
50
176
1
 90
50
176
1
290
0
176
1
 90
50
176
1
 62
256
176
0
 40
1.0
176
0
 90
2
176
1
  1
strokes_ogs.tif
176
1
290
0
176
1
 40
1.0
176
1
 40
1.0
176
1
  0
VISUALSTYLE
  5
6B
102
{ACAD_REACTORS
330
16
102
}
330
16
100
AcDbVisualStyle
  2
Realistic
 70
8
177
3
291
0
 70
58
 90
2
176
1
 90
2
176
1
 90
0
176
1
 90
2
176
1
 40
0.6
176
1
 40
30.0
176
1
 62
7
420
16777215
176
1
 90
1
176
1
 90
4
176
1
 62
7
176
1
 62
257
176
1
 90
1
176
1
 90
1
176
1
 40
1.0
176
1
 90
8
176
1
 62
7
176
1
 40
1.0
176
1
 90
1
176
1
 90
6
176
1
 90
2
176
1
 62
7
176
1
 90
5
176
1
 90
0
176
1
 90
0
176
1
290
0
176
1
 90
1
176
1
 40
0.0
176
1
 90
0
176
1
290
0
176
1
290
1
176
1
290
1
176
1
290
0
176
1
290
0
176
1
290
0
176
1
290
0
176
1
290
0
176
1
290
0
176
1
 90
50
176
1
 40
0.0
176
1
 40
1.0
176
1
 90
0
176
1
 62
18
420
0
176
1
 90
50
176
1
 90
3
176
1
 62
5
420
255
176
1
290
0
176
1
 90
50
176
1
 90
50
176
1
 90
50
176
1
290
0
176
1
 90
50
176
1
 62
256
176
0
 40
1.0
176
0
 90
2
176
1
  1
strokes_ogs.tif
176
1
290
0
176
1
 40
1.0
176
1
 40
1.0
176
1
  0
VISUALSTYLE
  5
6C
102
{ACAD_REACTORS
330
16
102
}
330
16
100
AcDbVisualStyle
  2
Shaded
 70
27
177
3
291
0
 70
58
 90
2
176
1
 90
2
176
1
 90
0
176
1
 90
2
176
1
 40
0.6
176
1
 40
30.0
176
1
 62
7
420
16777215
176
1
 90
1
176
1
 90
4
176
1
 62
7
176
1
 62
257
176
1
 90
1
176
1
 90
1
176
1
 40
1.0
176
1
 90
8
176
1
 62
7
176
1
 40
1.0
176
1
 90
1
176
1
 90
6
176
1
 90
2
176
1
 62
7
176
1
 90
5
176
1
 90
0
176
1
 90
0
176
1
290
0
176
1
 90
1
176
1
 40
0.0
176
1
 90
0
176
1
290
0
176
1
290
1
176
1
290
1
176
1
290
0
176
1
290
0
176
1
290
0
176
1
290
0
176
1
290
0
176
1
290
0
176
1
 90
50
176
1
 40
0.0
176
1
 40
1.0
176
1
 90
0
176
1
 62
18
420
0
176
1
 90
50
176
1
 90
3
176
1
 62
5
420
255
176
1
290
0
176
1
 90
50
176
1
 90
50
176
1
 90
50
176
1
290
0
176
1
 90
50
176
1
 62
256
176
0
 40
1.0
176
0
 90
2
176
1
  1
strokes_ogs.tif
176
1
290
0
176
1
 40
1.0
176
1
 40
1.0
176
1
  0
VISUALSTYLE
  5
6D
102
{ACAD_REACTORS
330
16
102
}
330
16
100
AcDbVisualStyle
  2
Shaded with edges
 70
26
177
3
291
0
 70
58
 90
2
176
1
 90
2
176
1
 90
0
176
1
 90
2
176
1
 40
0.6
176
1
 40
30.0
176
1
 62
7
420
16777215
176
1
 90
1
176
1
 90
4
176
1
 62
7
176
1
 62
257
176
1
 90
1
176
1
 90
1
176
1
 40
1.0
176
1
 90
8
176
1
 62
7
176
1
 40
1.0
176
1
 90
1
176
1
 90
6
176
1
 90
2
176
1
 62
7
176
1
 90
5
176
1
 90
0
176
1
 90
0
176
1
290
0
176
1
 90
1
176
1
 40
0.0
176
1
 90
0
176
1
290
0
176
1
290
1
176
1
290
1
176
1
290
0
176
1
290
0
176
1
290
0
176
1
290
0
176
1
290
0
176
1
290
0
176
1
 90
50
176
1
 40
0.0
176
1
 40
1.0
176
1
 90
0
176
1
 62
18
420
0
176
1
 90
50
176
1
 90
3
176
1
 62
5
420
255
176
1
290
0
176
1
 90
50
176
1
 90
50
176
1
 90
50
176
1
290
0
176
1
 90
50
176
1
 62
256
176
0
 40
1.0
176
0
 90
2
176
1
  1
strokes_ogs.tif
176
1
290
0
176
1
 40
1.0
176
1
 40
1.0
176
1
  0
VISUALSTYLE
  5
6E
102
{ACAD_REACTORS
330
16
102
}
330
16
100
AcDbVisualStyle
  2
Shades of Gray
 70
23
177
3
291
0
 70
58
 90
2
176
1
 90
2
176
1
 90
0
176
1
 90
2
176
1
 40
0.6
176
1
 40
30.0
176
1
 62
7
420
16777215
176
1
 90
1
176
1
 90
4
176
1
 62
7
176
1
 62
257
176
1
 90
1
176
1
 90
1
176
1
 40
1.0
176
1
 90
8
176
1
 62
7
176
1
 40
1.0
176
1
 90
1
176
1
 90
6
176
1
 90
2
176
1
 62
7
176
1
 90
5
176
1
 90
0
176
1
 90
0
176
1
290
0
176
1
 90
1
176
1
 40
0.0
176
1
 90
0
176
1
290
0
176
1
290
1
176
1
290
1
176
1
290
0
176
1
290
0
176
1
290
0
176
1
290
0
176
1
290
0
176
1
290
0
176
1
 90
50
176
1
 40
0.0
176
1
 40
1.0
176
1
 90
0
176
1
 62
18
420
0
176
1
 90
50
176
1
 90
3
176
1
 62
5
420
255
176
1
290
0
176
1
 90
50
176
1
 90
50
176
1
 90
50
176
1
290
0
176
1
 90
50
176
1
 62
256
176
0
 40
1.0
176
0
 90
2
176
1
  1
strokes_ogs.tif
176
1
290
0
176
1
 40
1.0
176
1
 40
1.0
176
1
  0
VISUALSTYLE
  5
6F
102
{ACAD_REACTORS
330
16
102
}
330
16
100
AcDbVisualStyle
  2
Sketchy
 70
24
177
3
291
0
 70
58
 90
2
176
1
 90
2
176
1
 90
0
176
1
 90
1
176
1
 40
0.6
176
1
 40
30.0
176
1
 62
7
420
16777215
176
1
 90
1
176
1
 90
4
176
1
 62
7
176
1
 62
257
176
1
 90
1
176
1
 90
1
176
1
 40
1.0
176
1
 90
8
176
1
 62
7
176
1
 40
1.0
176
1
 90
1
176
1
 90
6
176
1
 90
2
176
1
 62
7
176
1
 90
5
176
1
 90
0
176
1
 90
0
176
1
290
0
176
1
 90
1
176
1
 40
0.0
176
1
 90
0
176
1
290
0
176
1
290
1
176
1
290
1
176
1
290
0
176
1
290
0
176
1
290
0
176
1
290
0
176
1
290
0
176
1
290
0
176
1
 90
50
176
1
 40
0.0
176
1
 40
1.0
176
1
 90
0
176
1
 62
18
420
0
176
1
 90
50
176
1
 90
3
176
1
 62
5
420
255
176
1
290
0
176
1
 90
50
176
1
 90
50
176
1
 90
50
176
1
290
0
176
1
 90
50
176
1
 62
256
176
0
 40
1.0
176
0
 90
2
176
1
  1
strokes_ogs.tif
176
1
290
0
176
1
 40
1.0
176
1
 40
1.0
176
1
  0
VISUALSTYLE
  5
70
102
{ACAD_REACTORS
330
16
102
}
330
16
100
AcDbVisualStyle
  2
Thicken
 70
13
177
3
291
1
 70
58
 90
2
176
1
 90
2
176
1
 90
0
176
1
 90
2
176
1
 40
0.6
176
1
 40
30.0
176
1
 62
7
420
16777215
176
1
 90
1
176
1
 90
4
176
1
 62
7
176
1
 62
257
176
1
 90
1
176
1
 90
1
176
1
 40
1.0
176
1
 90
8
176
1
 62
7
176
1
 40
1.0
176
1
 90
1
176
1
 90
6
176
1
 90
2
176
1
 62
7
176
1
 90
5
176
1
 90
0
176
1
 90
0
176
1
290
0
176
1
 90
1
176
1
 40
0.0
176
1
 90
0
176
1
290
0
176
1
290
1
176
1
290
1
176
1
290
0
176
1
290
0
176
1
290
0
176
1
290
0
176
1
290
0
176
1
290
0
176
1
 90
50
176
1
 40
0.0
176
1
 40
1.0
176
1
 90
0
176
1
 62
18
420
0
176
1
 90
50
176
1
 90
3
176
1
 62
5
420
255
176
1
290
0
176
1
 90
50
176
1
 90
50
176
1
 90
50
176
1
290
0
176
1
 90
50
176
1
 62
256
176
0
 40
1.0
176
0
 90
2
176
1
  1
strokes_ogs.tif
176
1
290
0
176
1
 40
1.0
176
1
 40
1.0
176
1
  0
VISUALSTYLE
  5
71
102
{ACAD_REACTORS
330
16
102
}
330
16
100
AcDbVisualStyle
  2
Wireframe
 70
5
177
3
291
0
 70
58
 90
2
176
1
 90
2
176
1
 90
0
176
1
 90
0
176
1
 40
0.6
176
1
 40
30.0
176
1
 62
7
420
16777215
176
1
 90
1
176
1
 90
4
176
1
 62
7
176
1
 62
257
176
1
 90
1
176
1
 90
1
176
1
 40
1.0
176
1
 90
8
176
1
 62
7
176
1
 40
1.0
176
1
 90
1
176
1
 90
6
176
1
 90
2
176
1
 62
7
176
1
 90
5
176
1
 90
0
176
1
 90
0
176
1
290
0
176
1
 90
1
176
1
 40
0.0
176
1
 90
0
176
1
290
0
176
1
290
1
176
1
290
1
176
1
290
0
176
1
290
0
176
1
290
0
176
1
290
0
176
1
290
0
176
1
290
0
176
1
 90
50
176
1
 40
0.0
176
1
 40
1.0
176
1
 90
0
176
1
 62
18
420
0
176
1
 90
50
176
1
 90
3
176
1
 62
5
420
255
176
1
290
0
176
1
 90
50
176
1
 90
50
176
1
 90
50
176
1
290
0
176
1
 90
50
176
1
 62
256
176
0
 40
1.0
176
0
 90
2
176
1
  1
strokes_ogs.tif
176
1
290
0
176
1
 40
1.0
176
1
 40
1.0
176
1
  0
VISUALSTYLE
  5
72
102
{ACAD_REACTORS
330
16
102
}
330
16
100
AcDbVisualStyle
  2
X-Ray
 70
25
177
3
291
0
 70
58
 90
2
176
1
 90
2
176
1
 90
0
176
1
 90
2
176
1
 40
0.5
176
1
 40
30.0
176
1
 62
7
420
16777215
176
1
 90
1
176
1
 90
4
176
1
 62
7
176
1
 62
257
176
1
 90
1
176
1
 90
1
176
1
 40
1.0
176
1
 90
8
176
1
 62
7
176
1
 40
1.0
176
1
 90
1
176
1
 90
6
176
1
 90
2
176
1
 62
7
176
1
 90
5
176
1
 90
0
176
1
 90
0
176
1
290
0
176
1
 90
1
176
1
 40
0.0
176
1
 90
0
176
1
290
0
176
1
290
1
176
1
290
1
176
1
290
0
176
1
290
0
176
1
290
0
176
1
290
0
176
1
290
0
176
1
290
0
176
1
 90
50
176
1
 40
0.0
176
1
 40
1.0
176
1
 90
0
176
1
 62
18
420
0
176
1
 90
50
176
1
 90
3
176
1
 62
5
420
255
176
1
290
0
176
1
 90
50
176
1
 90
50
176
1
 90
50
176
1
290
0
176
1
 90
50
176
1
 62
256
176
0
 40
1.0
176
0
 90
2
176
1
  1
strokes_ogs.tif
176
1
290
0
176
1
 40
1.0
176
1
 40
1.0
176
1
  0
LAYOUT
  5
1A0
330
D
100
AcDbPlotSettings
  1

  2
DWG to PDF.pc3
  4
ezdxf_(420.00_x_297.00_MM)
  6

 40
10.0
 41
10.0
 42
10.0
 43
10.0
 44
420.0
 45
297.0
 46
0.0
 47
0.0
 48
0.0
 49
0.0
140
0.0
141
0.0
142
1.0
143
1.0
 70
672
 72
1
 73
0
 74
5
  7

 75
16
 76
0
 77
2
 78
300
147
1.0
148
0.0
149
0.0
100
AcDbLayout
  1
GROUND
 70
1
 71
3
 10
-10.0
 20
-10.0
 11
410.0
 21
287.0
 12
0.0
 22
0.0
 32
0.0
 14
1e+20
 24
1e+20
 34
1e+20
 15
-1e+20
 25
-1e+20
 35
-1e+20
146
0.0
 13
0.0
 23
0.0
 33
0.0
 16
1.0
 26
0.0
 36
0.0
 17
0.0
 27
1.0
 37
0.0
 76
1
330
19D
331
1A1
  0
LAYOUT
  5
2B5
330
D
100
AcDbPlotSettings
  1

  2
DWG to PDF.pc3
  4
ezdxf_(420.00_x_297.00_MM)
  6

 40
10.0
 41
10.0
 42
10.0
 43
10.0
 44
420.0
 45
297.0
 46
0.0
 47
0.0
 48
0.0
 49
0.0
140
0.0
141
0.0
142
1.0
143
1.0
 70
672
 72
1
 73
0
 74
5
  7

 75
16
 76
0
 77
2
 78
300
147
1.0
148
0.0
149
0.0
100
AcDbLayout
  1
FLOOR-1
 70
1
 71
4
 10
-10.0
 20
-10.0
 11
410.0
 21
287.0
 12
0.0
 22
0.0
 32
0.0
 14
1e+20
 24
1e+20
 34
1e+20
 15
-1e+20
 25
-1e+20
 35
-1e+20
146
0.0
 13
0.0
 23
0.0
 33
0.0
 16
1.0
 26
0.0
 36
0.0
 17
0.0
 27
1.0
 37
0.0
 76
1
330
2B2
331
2B6
  0
DICTIONARYVAR
  5
2BB
330
2D
100
DictionaryVariables
280
0
  1
0.0 @ 2000-01-01T00:00:00.000000+00:00
  0
ENDSEC
  0
EOF
