<svg xmlns="http://www.w3.org/2000/svg" width="420mm" height="297mm" viewBox="0 0 420 297"><rect width="420" height="297" fill="white"/><g font-family="Arial,Helvetica,sans-serif"><path d="M 16 31 H 404 M 16 271 H 404" stroke="#25372f" stroke-width=".35"/><text x="17.0000" y="17.0000" fill="#25372f" font-size="5.2" text-anchor="start">FLOORFORGE</text><text x="17.0000" y="25.0000" fill="#25372f" font-size="3.1" text-anchor="start">Section A-A / x = 3.82 m</text><text x="403.0000" y="18.0000" fill="#25372f" font-size="5" text-anchor="end">A-301</text><text x="403.0000" y="25.0000" fill="#25372f" font-size="2.6" text-anchor="end">REV A / PRELIMINARY</text><path d="M 124.6667 170.6667 L 61.3867 170.6667" fill="none" stroke="#25372f" stroke-width="0.25"/><path d="M 61.3867 174.6667 L 124.6667 174.6667" fill="none" stroke="#25372f" stroke-width="0.25"/><path d="M 124.6667 170.6667 L 187.9467 170.6667" fill="none" stroke="#25372f" stroke-width="0.25"/><path d="M 187.9467 174.6667 L 124.6667 174.6667" fill="none" stroke="#25372f" stroke-width="0.25"/><path d="M 187.9467 174.6667 L 187.9467 172.6667" fill="none" stroke="#25372f" stroke-width="0.25"/><path d="M 187.9467 170.6667 L 187.9467 172.6667" fill="none" stroke="#25372f" stroke-width="0.25"/><path d="M 61.3867 174.6667 L 61.3867 172.6667" fill="none" stroke="#25372f" stroke-width="0.25"/><path d="M 61.3867 170.6667 L 61.3867 172.6667" fill="none" stroke="#25372f" stroke-width="0.25"/><path d="M 124.6667 168.6667 L 61.3867 168.6667" fill="none" stroke="#25372f" stroke-width="0.25"/><path d="M 61.3867 170.6667 L 124.6667 170.6667" fill="none" stroke="#25372f" stroke-width="0.25"/><path d="M 124.6667 168.6667 L 187.9467 168.6667" fill="none" stroke="#25372f" stroke-width="0.25"/><path d="M 187.9467 170.6667 L 124.6667 170.6667" fill="none" stroke="#25372f" stroke-width="0.25"/><path d="M 187.9467 170.6667 L 187.9467 169.6667" fill="none" stroke="#25372f" stroke-width="0.25"/><path d="M 187.9467 168.6667 L 187.9467 169.6667" fill="none" stroke="#25372f" stroke-width="0.25"/><path d="M 61.3867 170.6667 L 61.3867 169.6667" fill="none" stroke="#25372f" stroke-width="0.25"/><path d="M 61.3867 168.6667 L 61.3867 169.6667" fill="none" stroke="#25372f" stroke-width="0.25"/><path d="M 124.6667 126.6667 L 61.3867 126.6667" fill="none" stroke="#25372f" stroke-width="0.25"/><path d="M 61.3867 128.6667 L 124.6667 128.6667" fill="none" stroke="#25372f" stroke-width="0.25"/><path d="M 124.6667 126.6667 L 187.9467 126.6667" fill="none" stroke="#25372f" stroke-width="0.25"/><path d="M 187.9467 128.6667 L 124.6667 128.6667" fill="none" stroke="#25372f" stroke-width="0.25"/><path d="M 187.9467 128.6667 L 187.9467 127.6667" fill="none" stroke="#25372f" stroke-width="0.25"/><path d="M 187.9467 126.6667 L 187.9467 127.6667" fill="none" stroke="#25372f" stroke-width="0.25"/><path d="M 61.3867 128.6667 L 61.3867 127.6667" fill="none" stroke="#25372f" stroke-width="0.25"/><path d="M 61.3867 126.6667 L 61.3867 127.6667" fill="none" stroke="#25372f" stroke-width="0.25"/><path d="M 63.3867 118.6667 L 62.4067 118.6667" fill="none" stroke="#25372f" stroke-width="0.25"/><path d="M 62.4067 126.6667 L 63.3867 126.6667" fill="none" stroke="#25372f" stroke-width="0.25"/><path d="M 186.9267 118.6667 L 185.9467 118.6667" fill="none" stroke="#25372f" stroke-width="0.25"/><path d="M 185.9467 126.6667 L 186.9267 126.6667" fill="none" stroke="#25372f" stroke-width="0.25"/><path d="M 61.3867 118.6667 L 62.4067 118.6667" fill="none" stroke="#25372f" stroke-width="0.25"/><path d="M 62.4067 126.6667 L 61.3867 126.6667" fill="none" stroke="#25372f" stroke-width="0.25"/><path d="M 186.9267 118.6667 L 187.9467 118.6667" fill="none" stroke="#25372f" stroke-width="0.25"/><path d="M 187.9467 126.6667 L 186.9267 126.6667" fill="none" stroke="#25372f" stroke-width="0.25"/><path d="M 187.9467 122.6667 L 187.9467 126.6667" fill="none" stroke="#25372f" stroke-width="0.25"/><path d="M 187.9467 122.6667 L 187.9467 118.6667" fill="none" stroke="#25372f" stroke-width="0.25"/><path d="M 61.3867 122.6667 L 61.3867 126.6667" fill="none" stroke="#25372f" stroke-width="0.25"/><path d="M 61.3867 122.6667 L 61.3867 118.6667" fill="none" stroke="#25372f" stroke-width="0.25"/><path d="M 185.9467 122.6667 L 185.9467 126.6667" fill="none" stroke="#25372f" stroke-width="0.25"/><path d="M 185.9467 122.6667 L 185.9467 118.6667" fill="none" stroke="#25372f" stroke-width="0.25"/><path d="M 63.3867 122.6667 L 63.3867 126.6667" fill="none" stroke="#25372f" stroke-width="0.25"/><path d="M 63.3867 122.6667 L 63.3867 118.6667" fill="none" stroke="#25372f" stroke-width="0.25"/><path d="M 188.2800 118.0000 L 186.9154 118.0000" fill="none" stroke="#25372f" stroke-width="0.25"/><path d="M 186.9154 118.6667 L 188.2800 118.6667" fill="none" stroke="#25372f" stroke-width="0.25"/><path d="M 62.4179 118.0000 L 61.0533 118.0000" fill="none" stroke="#25372f" stroke-width="0.25"/><path d="M 61.0533 118.6667 L 62.4179 118.6667" fill="none" stroke="#25372f" stroke-width="0.25"/><path d="M 185.6133 118.0000 L 186.9154 118.0000" fill="none" stroke="#25372f" stroke-width="0.25"/><path d="M 186.9154 118.6667 L 185.6133 118.6667" fill="none" stroke="#25372f" stroke-width="0.25"/><path d="M 62.4179 118.0000 L 63.7200 118.0000" fill="none" stroke="#25372f" stroke-width="0.25"/><path d="M 63.7200 118.6667 L 62.4179 118.6667" fill="none" stroke="#25372f" stroke-width="0.25"/><path d="M 188.2800 118.3333 L 188.2800 118.6667" fill="none" stroke="#25372f" stroke-width="0.25"/><path d="M 188.2800 118.3333 L 188.2800 118.0000" fill="none" stroke="#25372f" stroke-width="0.25"/><path d="M 61.0533 118.3333 L 61.0533 118.6667" fill="none" stroke="#25372f" stroke-width="0.25"/><path d="M 61.0533 118.3333 L 61.0533 118.0000" fill="none" stroke="#25372f" stroke-width="0.25"/><path d="M 185.6133 118.3333 L 185.6133 118.6667" fill="none" stroke="#25372f" stroke-width="0.25"/><path d="M 185.6133 118.3333 L 185.6133 118.0000" fill="none" stroke="#25372f" stroke-width="0.25"/><path d="M 63.7200 118.3333 L 63.7200 118.6667" fill="none" stroke="#25372f" stroke-width="0.25"/><path d="M 63.7200 118.3333 L 63.7200 118.0000" fill="none" stroke="#25372f" stroke-width="0.25"/><path d="M 61.4000 138.0000 L 64.4533 138.0000" fill="none" stroke="#25372f" stroke-width="0.25"/><path d="M 64.4533 168.6667 L 61.4000 168.6667" fill="none" stroke="#25372f" stroke-width="0.25"/><path d="M 61.4000 138.0000 L 61.3867 138.0000" fill="none" stroke="#25372f" stroke-width="0.25"/><path d="M 61.3867 168.6667 L 61.4000 168.6667" fill="none" stroke="#25372f" stroke-width="0.25"/><path d="M 61.3867 168.6452 L 61.3867 168.6667" fill="none" stroke="#25372f" stroke-width="0.25"/><path d="M 61.3867 168.6452 L 61.3867 138.0000" fill="none" stroke="#25372f" stroke-width="0.25"/><path d="M 64.4533 138.1333 L 64.4533 168.6667" fill="none" stroke="#25372f" stroke-width="0.25"/><path d="M 64.4533 138.1333 L 64.4533 138.0000" fill="none" stroke="#25372f" stroke-width="0.25"/><path d="M 61.4000 128.6667 L 61.3867 128.6667" fill="none" stroke="#25372f" stroke-width="0.25"/><path d="M 61.3867 138.0000 L 61.4000 138.0000" fill="none" stroke="#25372f" stroke-width="0.25"/><path d="M 61.4000 128.6667 L 64.4533 128.6667" fill="none" stroke="#25372f" stroke-width="0.25"/><path d="M 64.4533 138.0000 L 61.4000 138.0000" fill="none" stroke="#25372f" stroke-width="0.25"/><path d="M 61.3867 137.9976 L 61.3867 138.0000" fill="none" stroke="#25372f" stroke-width="0.25"/><path d="M 61.3867 137.9976 L 61.3867 128.6667" fill="none" stroke="#25372f" stroke-width="0.25"/><path d="M 64.4533 128.7072 L 64.4533 138.0000" fill="none" stroke="#25372f" stroke-width="0.25"/><path d="M 64.4533 128.7072 L 64.4533 128.6667" fill="none" stroke="#25372f" stroke-width="0.25"/><path d="M 151.0533 128.6667 L 152.0533 128.6667" fill="none" stroke="#25372f" stroke-width="0.25"/><path d="M 152.0533 140.0000 L 151.0533 140.0000" fill="none" stroke="#25372f" stroke-width="0.25"/><path d="M 153.0533 128.6667 L 152.0533 128.6667" fill="none" stroke="#25372f" stroke-width="0.25"/><path d="M 152.0533 140.0000 L 153.0533 140.0000" fill="none" stroke="#25372f" stroke-width="0.25"/><path d="M 151.0533 134.0635 L 151.0533 140.0000" fill="none" stroke="#25372f" stroke-width="0.25"/><path d="M 151.0533 134.0635 L 151.0533 128.6667" fill="none" stroke="#25372f" stroke-width="0.25"/><path d="M 153.0533 134.0635 L 153.0533 140.0000" fill="none" stroke="#25372f" stroke-width="0.25"/><path d="M 153.0533 134.0635 L 153.0533 128.6667" fill="none" stroke="#25372f" stroke-width="0.25"/><path d="M 184.8800 157.3333 L 186.2095 157.3333" fill="none" stroke="#25372f" stroke-width="0.25"/><path d="M 186.2095 168.6667 L 184.8800 168.6667" fill="none" stroke="#25372f" stroke-width="0.25"/><path d="M 187.9467 157.3333 L 186.2095 157.3333" fill="none" stroke="#25372f" stroke-width="0.25"/><path d="M 186.2095 168.6667 L 187.9467 168.6667" fill="none" stroke="#25372f" stroke-width="0.25"/><path d="M 184.8800 162.2466 L 184.8800 168.6667" fill="none" stroke="#25372f" stroke-width="0.25"/><path d="M 184.8800 162.2466 L 184.8800 157.3333" fill="none" stroke="#25372f" stroke-width="0.25"/><path d="M 187.9467 163.0000 L 187.9467 168.6667" fill="none" stroke="#25372f" stroke-width="0.25"/><path d="M 187.9467 163.0000 L 187.9467 157.3333" fill="none" stroke="#25372f" stroke-width="0.25"/><path d="M 184.8800 128.6667 L 186.2095 128.6667" fill="none" stroke="#25372f" stroke-width="0.25"/><path d="M 186.2095 138.0000 L 184.8800 138.0000" fill="none" stroke="#25372f" stroke-width="0.25"/><path d="M 187.9467 128.6667 L 186.2095 128.6667" fill="none" stroke="#25372f" stroke-width="0.25"/><path d="M 186.2095 138.0000 L 187.9467 138.0000" fill="none" stroke="#25372f" stroke-width="0.25"/><path d="M 184.8800 132.7129 L 184.8800 138.0000" fill="none" stroke="#25372f" stroke-width="0.25"/><path d="M 184.8800 132.7129 L 184.8800 128.6667" fill="none" stroke="#25372f" stroke-width="0.25"/><path d="M 187.9467 133.3333 L 187.9467 138.0000" fill="none" stroke="#25372f" stroke-width="0.25"/><path d="M 187.9467 133.3333 L 187.9467 128.6667" fill="none" stroke="#25372f" stroke-width="0.25"/><path d="M 64.1245 164.6667 L 64.4533 164.6667" fill="none" stroke="#25372f" stroke-width="0.25"/><path d="M 64.4533 168.6667 L 64.1245 168.6667" fill="none" stroke="#25372f" stroke-width="0.25"/><path d="M 64.1245 164.6667 L 61.3867 164.6667" fill="none" stroke="#25372f" stroke-width="0.25"/><path d="M 61.3867 168.6667 L 64.1245 168.6667" fill="none" stroke="#25372f" stroke-width="0.25"/><path d="M 64.4533 168.2378 L 64.4533 168.6667" fill="none" stroke="#25372f" stroke-width="0.25"/><path d="M 64.4533 168.2378 L 64.4533 164.6667" fill="none" stroke="#25372f" stroke-width="0.25"/><path d="M 61.3867 165.0955 L 61.3867 168.6667" fill="none" stroke="#25372f" stroke-width="0.25"/><path d="M 61.3867 165.0955 L 61.3867 164.6667" fill="none" stroke="#25372f" stroke-width="0.25"/><path d="M 61.3867 135.3333 L 62.5538 135.3333" fill="none" stroke="#25372f" stroke-width="0.25"/><path d="M 62.5538 164.6667 L 61.3867 164.6667" fill="none" stroke="#25372f" stroke-width="0.25"/><path d="M 64.4533 135.3333 L 62.5538 135.3333" fill="none" stroke="#25372f" stroke-width="0.25"/><path d="M 62.5538 164.6667 L 64.4533 164.6667" fill="none" stroke="#25372f" stroke-width="0.25"/><path d="M 61.3867 146.4975 L 61.3867 164.6667" fill="none" stroke="#25372f" stroke-width="0.25"/><path d="M 61.3867 146.4975 L 61.3867 135.3333" fill="none" stroke="#25372f" stroke-width="0.25"/><path d="M 64.4533 153.5025 L 64.4533 164.6667" fill="none" stroke="#25372f" stroke-width="0.25"/><path d="M 64.4533 153.5025 L 64.4533 135.3333" fill="none" stroke="#25372f" stroke-width="0.25"/><path d="M 64.1245 128.6667 L 64.4533 128.6667" fill="none" stroke="#25372f" stroke-width="0.25"/><path d="M 64.4533 135.3333 L 64.1245 135.3333" fill="none" stroke="#25372f" stroke-width="0.25"/><path d="M 64.1245 128.6667 L 61.3867 128.6667" fill="none" stroke="#25372f" stroke-width="0.25"/><path d="M 61.3867 135.3333 L 64.1245 135.3333" fill="none" stroke="#25372f" stroke-width="0.25"/><path d="M 64.4533 134.6185 L 64.4533 135.3333" fill="none" stroke="#25372f" stroke-width="0.25"/><path d="M 64.4533 134.6185 L 64.4533 128.6667" fill="none" stroke="#25372f" stroke-width="0.25"/><path d="M 61.3867 129.3815 L 61.3867 135.3333" fill="none" stroke="#25372f" stroke-width="0.25"/><path d="M 61.3867 129.3815 L 61.3867 128.6667" fill="none" stroke="#25372f" stroke-width="0.25"/><path d="M 187.9467 168.6667 L 197.2800 168.6667" fill="none" stroke="#a8afa4" stroke-width="0.12"/><path d="M 187.9467 126.6667 L 197.2800 126.6667" fill="none" stroke="#a8afa4" stroke-width="0.12"/><path d="M 197.2800 168.6667 L 197.2800 126.6667" fill="none" stroke="#25372f" stroke-width="0.15"/><path d="M 196.4800 169.4667 L 198.0800 167.8667" fill="none" stroke="#25372f" stroke-width="0.2"/><path d="M 196.4800 127.4667 L 198.0800 125.8667" fill="none" stroke="#25372f" stroke-width="0.2"/><text x="199.2800" y="147.6667" fill="#25372f" font-size="2.6666666666666665" text-anchor="start">3150</text><path d="M 250 42 V 256" stroke="#c9d0c7" stroke-width=".2"/><text x="261.0000" y="46.0000" fill="#25372f" font-size="3.8" text-anchor="start">The Verandah House</text><text x="261.0000" y="150.0000" fill="#25372f" font-size="2.7" text-anchor="start">DRAWING NOTES</text><text x="261.0000" y="158.0000" fill="#25372f" font-size="2.25" text-anchor="start">Actual mesh-plane intersections, not a generic stair</text><text x="261.0000" y="162.3000" fill="#25372f" font-size="2.25" text-anchor="start">illustration.</text><text x="261.0000" y="169.1000" fill="#25372f" font-size="2.25" text-anchor="start">Cut objects: walls, floor slabs, roof, stair and plinth.</text><text x="261.0000" y="175.9000" fill="#25372f" font-size="2.25" text-anchor="start">No reinforcement or foundation design is represented.</text><text x="261.0000" y="182.7000" fill="#25372f" font-size="2.25" text-anchor="start">Stair headroom and handrails require a separate</text><text x="261.0000" y="187.0000" fill="#25372f" font-size="2.25" text-anchor="start">professional check.</text><text x="261.0000" y="244.0000" fill="#25372f" font-size="2.4" text-anchor="start">SCALE 1:75 AT A3 / CUT +1200 mm</text><text x="261.0000" y="251.0000" fill="#25372f" font-size="2.2" text-anchor="start">Dimensions govern; do not scale from a screen.</text><path d="M 22 259 H 75.33333333333334" stroke="#25372f" stroke-width=".6"/><path d="M 22.0 258 V 260" stroke="#25372f" stroke-width=".2"/><text x="22.0000" y="264.0000" fill="#25372f" font-size="1.9" text-anchor="middle">0 m</text><path d="M 48.66666666666667 258 V 260" stroke="#25372f" stroke-width=".2"/><text x="48.6667" y="264.0000" fill="#25372f" font-size="1.9" text-anchor="middle">2 m</text><path d="M 75.33333333333334 258 V 260" stroke="#25372f" stroke-width=".2"/><text x="75.3333" y="264.0000" fill="#25372f" font-size="1.9" text-anchor="middle">4 m</text><text x="17.0000" y="279.0000" fill="#8a4933" font-size="2.65" text-anchor="start">PRELIMINARY - ENGINEER TO REVIEW - NOT FOR CONSTRUCTION</text><text x="17.0000" y="286.0000" fill="#25372f" font-size="2.15" text-anchor="start">Reference design screen only. Survey, structure, services, byelaws and professional approval remain outstanding.</text><text x="403.0000" y="283.0000" fill="#25372f" font-size="2.35" text-anchor="end">A-301  |  420 x 297 mm</text></g></svg>