<svg xmlns="http://www.w3.org/2000/svg" width="420mm" height="297mm" viewBox="0 0 420 297"><metadata>planHash:13e93ea3847ed8bb1a6303802cf36b20f1f5a619efd14b6e4fd3dcf0f379760f</metadata><rect width="420" height="297" fill="white"/><g font-family="Arial,Helvetica,sans-serif"><path d="M 16 31 H 404 M 16 271 H 404" stroke="#25372f" stroke-width=".35"/><text x="17.0000" y="17.0000" fill="#25372f" font-size="5.2" text-anchor="start">FLOORFORGE</text><text x="17.0000" y="25.0000" fill="#25372f" font-size="3.1" text-anchor="start">Right elevation</text><text x="403.0000" y="18.0000" fill="#25372f" font-size="5" text-anchor="end">A-204</text><text x="403.0000" y="25.0000" fill="#25372f" font-size="2.6" text-anchor="end">REV A / PRELIMINARY</text><polygon points="52.4200,165.3333 178.9800,165.3333 178.9800,109.3333 52.4200,109.3333" fill="#f2f0e7" stroke="#25372f" stroke-width="0.25"/><path d="M 32.4200 165.3333 L 198.9800 165.3333" fill="none" stroke="#25372f" stroke-width="0.5"/><path d="M 52.4200 159.3333 L 178.9800 159.3333" fill="none" stroke="#25372f" stroke-width="0.35"/><path d="M 52.4200 117.3333 L 178.9800 117.3333" fill="none" stroke="#25372f" stroke-width="0.35"/><polygon points="63.4200,155.3333 87.4200,155.3333 87.4200,126.0000 63.4200,126.0000" fill="#dfe8e7" stroke="#25372f" stroke-width="0.25"/><path d="M 75.4200 155.3333 L 75.4200 126.0000" fill="none" stroke="#25372f" stroke-width="0.15"/><text x="75.4200" y="124.8000" fill="#25372f" font-size="1.7333333333333334" text-anchor="middle">W1</text><polygon points="107.7533,148.0000 127.7533,148.0000 127.7533,128.6667 107.7533,128.6667" fill="#dfe8e7" stroke="#25372f" stroke-width="0.25"/><path d="M 117.7533 148.0000 L 117.7533 128.6667" fill="none" stroke="#25372f" stroke-width="0.15"/><text x="117.7533" y="127.4667" fill="#25372f" font-size="1.7333333333333334" text-anchor="middle">W7</text><polygon points="148.0333,148.0000 168.0333,148.0000 168.0333,128.6667 148.0333,128.6667" fill="#dfe8e7" stroke="#25372f" stroke-width="0.25"/><path d="M 158.0333 148.0000 L 158.0333 128.6667" fill="none" stroke="#25372f" stroke-width="0.15"/><text x="158.0333" y="127.4667" fill="#25372f" font-size="1.7333333333333334" text-anchor="middle">W7</text><path d="M 52.4200 166.9333 L 52.4200 178.9333" fill="none" stroke="#a8afa4" stroke-width="0.12"/><path d="M 178.9800 166.9333 L 178.9800 178.9333" fill="none" stroke="#a8afa4" stroke-width="0.12"/><path d="M 52.4200 177.3333 L 178.9800 177.3333" fill="none" stroke="#25372f" stroke-width="0.15"/><path d="M 51.6867 178.0667 L 53.1533 176.6000" fill="none" stroke="#25372f" stroke-width="0.28"/><path d="M 178.2467 178.0667 L 179.7133 176.6000" fill="none" stroke="#25372f" stroke-width="0.28"/><text x="115.7000" y="180.6667" fill="#25372f" font-size="2.4" text-anchor="middle">9492</text><path d="M 180.5800 165.3333 L 192.5800 165.3333" fill="none" stroke="#a8afa4" stroke-width="0.12"/><path d="M 180.5800 117.3333 L 192.5800 117.3333" fill="none" stroke="#a8afa4" stroke-width="0.12"/><path d="M 190.9800 165.3333 L 190.9800 117.3333" fill="none" stroke="#25372f" stroke-width="0.15"/><path d="M 190.2467 166.0667 L 191.7133 164.6000" fill="none" stroke="#25372f" stroke-width="0.28"/><path d="M 190.2467 118.0667 L 191.7133 116.6000" fill="none" stroke="#25372f" stroke-width="0.28"/><text x="194.3133" y="141.3333" fill="#25372f" font-size="2.4" text-anchor="middle" transform="rotate(-90.0 194.3133 141.3333)">3600</text><path d="M 50.8200 159.3333 L 41.4867 159.3333" fill="none" stroke="#a8afa4" stroke-width="0.12"/><path d="M 50.8200 117.3333 L 41.4867 117.3333" fill="none" stroke="#a8afa4" stroke-width="0.12"/><path d="M 43.0867 159.3333 L 43.0867 117.3333" fill="none" stroke="#25372f" stroke-width="0.15"/><path d="M 42.3533 160.0667 L 43.8200 158.6000" fill="none" stroke="#25372f" stroke-width="0.28"/><path d="M 42.3533 118.0667 L 43.8200 116.6000" fill="none" stroke="#25372f" stroke-width="0.28"/><text x="42.1533" y="138.3333" fill="#25372f" font-size="2.4" text-anchor="middle" transform="rotate(-90.0 42.1533 138.3333)">3150</text><path d="M 201.6467 165.3333 L 210.9800 165.3333" fill="none" stroke="#a8afa4" stroke-width="0.12" stroke-dasharray="1.2 .6"/><polygon points="212.8467,162.8000 215.7800,162.8000 214.3133,165.3333" fill="#25372f" stroke="#25372f" stroke-width="0.15"/><path d="M 209.2467 165.3333 L 219.3800 165.3333" fill="none" stroke="#25372f" stroke-width="0.15"/><text x="216.5800" y="164.5333" fill="#25372f" font-size="2.0" text-anchor="start">NGL ±0.000</text><path d="M 201.6467 159.3333 L 210.9800 159.3333" fill="none" stroke="#a8afa4" stroke-width="0.12" stroke-dasharray="1.2 .6"/><polygon points="212.8467,156.8000 215.7800,156.8000 214.3133,159.3333" fill="#25372f" stroke="#25372f" stroke-width="0.15"/><path d="M 209.2467 159.3333 L 219.3800 159.3333" fill="none" stroke="#25372f" stroke-width="0.15"/><text x="216.5800" y="158.5333" fill="#25372f" font-size="2.0" text-anchor="start">FFL +0.450</text><path d="M 201.6467 117.3333 L 210.9800 117.3333" fill="none" stroke="#a8afa4" stroke-width="0.12" stroke-dasharray="1.2 .6"/><polygon points="212.8467,114.8000 215.7800,114.8000 214.3133,117.3333" fill="#25372f" stroke="#25372f" stroke-width="0.15"/><path d="M 209.2467 117.3333 L 219.3800 117.3333" fill="none" stroke="#25372f" stroke-width="0.15"/><text x="216.5800" y="116.5333" fill="#25372f" font-size="2.0" text-anchor="start">TOS +3.600</text><path d="M 250 42 V 256" stroke="#c9d0c7" stroke-width=".2"/><text x="261.0000" y="46.0000" fill="#25372f" font-size="3.8" text-anchor="start">The Garden Pavilion</text><text x="261.0000" y="150.0000" fill="#25372f" font-size="2.7" text-anchor="start">DRAWING NOTES</text><text x="261.0000" y="157.0000" fill="#25372f" font-size="2.1" text-anchor="start">Wall and opening heights derive from the building model; levels</text><text x="261.0000" y="160.9000" fill="#25372f" font-size="2.1" text-anchor="start">in metres above NGL.</text><text x="261.0000" y="166.6000" fill="#25372f" font-size="2.1" text-anchor="start">This elevation records the primary wall plane.</text><text x="261.0000" y="172.3000" fill="#25372f" font-size="2.1" text-anchor="start">Decorative facade accessories are coordinated in 3D, not fully</text><text x="261.0000" y="176.2000" fill="#25372f" font-size="2.1" text-anchor="start">detailed here.</text><text x="261.0000" y="181.9000" fill="#25372f" font-size="2.1" text-anchor="start">No cladding anchors or construction joints are designed.</text><text x="261.0000" y="244.0000" fill="#25372f" font-size="2.4" text-anchor="start">SCALE 1:75 AT A3 / CUT +1200 mm</text><text x="261.0000" y="251.0000" fill="#25372f" font-size="2.2" text-anchor="start">Dimensions govern; do not scale from a screen.</text><path d="M 22 259 H 75.33333333333334" stroke="#25372f" stroke-width=".6"/><path d="M 22.0 258 V 260" stroke="#25372f" stroke-width=".2"/><text x="22.0000" y="264.0000" fill="#25372f" font-size="1.9" text-anchor="middle">0 m</text><path d="M 48.66666666666667 258 V 260" stroke="#25372f" stroke-width=".2"/><text x="48.6667" y="264.0000" fill="#25372f" font-size="1.9" text-anchor="middle">2 m</text><path d="M 75.33333333333334 258 V 260" stroke="#25372f" stroke-width=".2"/><text x="75.3333" y="264.0000" fill="#25372f" font-size="1.9" text-anchor="middle">4 m</text><text x="17.0000" y="279.0000" fill="#8a4933" font-size="2.65" text-anchor="start">PRELIMINARY - ENGINEER TO REVIEW - NOT FOR CONSTRUCTION</text><text x="17.0000" y="286.0000" fill="#25372f" font-size="2.15" text-anchor="start">Reference design screen only. Survey, structure, services, byelaws and professional approval remain outstanding.</text><text x="403.0000" y="283.0000" fill="#25372f" font-size="2.35" text-anchor="end">A-204  |  420 x 297 mm</text></g></svg>