  0
SECTION
  2
HEADER
  9
$ACADVER
  1
AC1032
  9
$ACADMAINTVER
 90
4
  9
$DWGCODEPAGE
  3
ANSI_1252
  9
$LASTSAVEDBY
  1
ezdxf
  9
$REQUIREDVERSIONS
160
0
  9
$INSBASE
 10
0.0
 20
0.0
 30
0.0
  9
$EXTMIN
 10
1e+20
 20
1e+20
 30
1e+20
  9
$EXTMAX
 10
-1e+20
 20
-1e+20
 30
-1e+20
  9
$LIMMIN
 10
0.0
 20
0.0
  9
$LIMMAX
 10
420.0
 20
297.0
  9
$ORTHOMODE
 70
0
  9
$REGENMODE
 70
1
  9
$FILLMODE
 70
1
  9
$QTEXTMODE
 70
0
  9
$MIRRTEXT
 70
1
  9
$LTSCALE
 40
1.0
  9
$ATTMODE
 70
1
  9
$TEXTSIZE
 40
2.5
  9
$TRACEWID
 40
1.0
  9
$TEXTSTYLE
  7
OpenSans
  9
$CLAYER
  8
0
  9
$CELTYPE
  6
ByLayer
  9
$CECOLOR
 62
256
  9
$CELTSCALE
 40
1.0
  9
$DISPSILH
 70
0
  9
$DIMSCALE
 40
1.0
  9
$DIMASZ
 40
0.175
  9
$DIMEXO
 40
0.125
  9
$DIMDLI
 40
3.75
  9
$DIMRND
 40
0.0
  9
$DIMDLE
 40
0.0
  9
$DIMEXE
 40
0.375
  9
$DIMTP
 40
0.0
  9
$DIMTM
 40
0.0
  9
$DIMTXT
 40
0.25
  9
$DIMCEN
 40
2.5
  9
$DIMTSZ
 40
0.0
  9
$DIMTOL
 70
0
  9
$DIMLIM
 70
0
  9
$DIMTIH
 70
0
  9
$DIMTOH
 70
0
  9
$DIMSE1
 70
0
  9
$DIMSE2
 70
0
  9
$DIMTAD
 70
1
  9
$DIMZIN
 70
12
  9
$DIMBLK
  1
ARCHTICK
  9
$DIMASO
 70
1
  9
$DIMSHO
 70
1
  9
$DIMPOST
  1

  9
$DIMAPOST
  1

  9
$DIMALT
 70
0
  9
$DIMALTD
 70
3
  9
$DIMALTF
 40
0.03937007874
  9
$DIMLFAC
 40
100.0
  9
$DIMTOFL
 70
1
  9
$DIMTVP
 40
0.0
  9
$DIMTIX
 70
0
  9
$DIMSOXD
 70
0
  9
$DIMSAH
 70
0
  9
$DIMBLK1
  1

  9
$DIMBLK2
  1

  9
$DIMSTYLE
  2
EZDXF
  9
$DIMCLRD
 70
0
  9
$DIMCLRE
 70
0
  9
$DIMCLRT
 70
0
  9
$DIMTFAC
 40
0.5
  9
$DIMGAP
 40
0.1
  9
$DIMJUST
 70
0
  9
$DIMSD1
 70
0
  9
$DIMSD2
 70
0
  9
$DIMTOLJ
 70
0
  9
$DIMTZIN
 70
8
  9
$DIMALTZ
 70
0
  9
$DIMALTTZ
 70
0
  9
$DIMUPT
 70
1
  9
$DIMDEC
 70
2
  9
$DIMTDEC
 70
2
  9
$DIMALTU
 70
2
  9
$DIMALTTD
 70
3
  9
$DIMTXSTY
  7
OpenSansCondensed-Light
  9
$DIMAUNIT
 70
0
  9
$DIMADEC
 70
2
  9
$DIMALTRND
 40
0.0
  9
$DIMAZIN
 70
3
  9
$DIMDSEP
 70
46
  9
$DIMATFIT
 70
3
  9
$DIMFRAC
 70
0
  9
$DIMLDRBLK
  1

  9
$DIMLUNIT
 70
2
  9
$DIMLWD
 70
-2
  9
$DIMLWE
 70
-2
  9
$DIMTMOVE
 70
2
  9
$DIMFXL
 40
1.0
  9
$DIMFXLON
 70
0
  9
$DIMJOGANG
 40
0.785398163397
  9
$DIMTFILL
 70
0
  9
$DIMTFILLCLR
 70
0
  9
$DIMARCSYM
 70
0
  9
$DIMLTYPE
  6

  9
$DIMLTEX1
  6

  9
$DIMLTEX2
  6

  9
$DIMTXTDIRECTION
 70
0
  9
$LUNITS
 70
2
  9
$LUPREC
 70
4
  9
$SKETCHINC
 40
1.0
  9
$FILLETRAD
 40
10.0
  9
$AUNITS
 70
0
  9
$AUPREC
 70
2
  9
$MENU
  1
.
  9
$ELEVATION
 40
0.0
  9
$PELEVATION
 40
0.0
  9
$THICKNESS
 40
0.0
  9
$LIMCHECK
 70
0
  9
$CHAMFERA
 40
0.0
  9
$CHAMFERB
 40
0.0
  9
$CHAMFERC
 40
0.0
  9
$CHAMFERD
 40
0.0
  9
$SKPOLY
 70
0
  9
$TDCREATE
 40
2451545.0
  9
$TDUCREATE
 40
2451545.0
  9
$TDUPDATE
 40
2451545.0
  9
$TDUUPDATE
 40
2451545.0
  9
$TDINDWG
 40
0.0
  9
$TDUSRTIMER
 40
0.0
  9
$USRTIMER
 70
1
  9
$ANGBASE
 50
0.0
  9
$ANGDIR
 70
0
  9
$PDMODE
 70
0
  9
$PDSIZE
 40
0.0
  9
$PLINEWID
 40
0.0
  9
$SPLFRAME
 70
0
  9
$SPLINETYPE
 70
6
  9
$SPLINESEGS
 70
8
  9
$HANDSEED
  5
3F0
  9
$SURFTAB1
 70
6
  9
$SURFTAB2
 70
6
  9
$SURFTYPE
 70
6
  9
$SURFU
 70
6
  9
$SURFV
 70
6
  9
$UCSBASE
  2

  9
$UCSNAME
  2

  9
$UCSORG
 10
0.0
 20
0.0
 30
0.0
  9
$UCSXDIR
 10
1.0
 20
0.0
 30
0.0
  9
$UCSYDIR
 10
0.0
 20
1.0
 30
0.0
  9
$UCSORTHOREF
  2

  9
$UCSORTHOVIEW
 70
0
  9
$UCSORGTOP
 10
0.0
 20
0.0
 30
0.0
  9
$UCSORGBOTTOM
 10
0.0
 20
0.0
 30
0.0
  9
$UCSORGLEFT
 10
0.0
 20
0.0
 30
0.0
  9
$UCSORGRIGHT
 10
0.0
 20
0.0
 30
0.0
  9
$UCSORGFRONT
 10
0.0
 20
0.0
 30
0.0
  9
$UCSORGBACK
 10
0.0
 20
0.0
 30
0.0
  9
$PUCSBASE
  2

  9
$PUCSNAME
  2

  9
$PUCSORG
 10
0.0
 20
0.0
 30
0.0
  9
$PUCSXDIR
 10
1.0
 20
0.0
 30
0.0
  9
$PUCSYDIR
 10
0.0
 20
1.0
 30
0.0
  9
$PUCSORTHOREF
  2

  9
$PUCSORTHOVIEW
 70
0
  9
$PUCSORGTOP
 10
0.0
 20
0.0
 30
0.0
  9
$PUCSORGBOTTOM
 10
0.0
 20
0.0
 30
0.0
  9
$PUCSORGLEFT
 10
0.0
 20
0.0
 30
0.0
  9
$PUCSORGRIGHT
 10
0.0
 20
0.0
 30
0.0
  9
$PUCSORGFRONT
 10
0.0
 20
0.0
 30
0.0
  9
$PUCSORGBACK
 10
0.0
 20
0.0
 30
0.0
  9
$USERI1
 70
0
  9
$USERI2
 70
0
  9
$USERI3
 70
0
  9
$USERI4
 70
0
  9
$USERI5
 70
0
  9
$USERR1
 40
0.0
  9
$USERR2
 40
0.0
  9
$USERR3
 40
0.0
  9
$USERR4
 40
0.0
  9
$USERR5
 40
0.0
  9
$WORLDVIEW
 70
1
  9
$SHADEDGE
 70
3
  9
$SHADEDIF
 70
70
  9
$TILEMODE
 70
1
  9
$MAXACTVP
 70
64
  9
$PINSBASE
 10
0.0
 20
0.0
 30
0.0
  9
$PLIMCHECK
 70
0
  9
$PEXTMIN
 10
1e+20
 20
1e+20
 30
1e+20
  9
$PEXTMAX
 10
-1e+20
 20
-1e+20
 30
-1e+20
  9
$PLIMMIN
 10
0.0
 20
0.0
  9
$PLIMMAX
 10
420.0
 20
297.0
  9
$UNITMODE
 70
0
  9
$VISRETAIN
 70
1
  9
$PLINEGEN
 70
0
  9
$PSLTSCALE
 70
1
  9
$TREEDEPTH
 70
3020
  9
$CMLSTYLE
  2
Standard
  9
$CMLJUST
 70
0
  9
$CMLSCALE
 40
20.0
  9
$PROXYGRAPHICS
 70
1
  9
$MEASUREMENT
 70
1
  9
$CELWEIGHT
370
-1
  9
$ENDCAPS
280
0
  9
$JOINSTYLE
280
0
  9
$LWDISPLAY
290
0
  9
$INSUNITS
 70
4
  9
$HYPERLINKBASE
  1

  9
$STYLESHEET
  1

  9
$XEDIT
290
1
  9
$CEPSNTYPE
380
0
  9
$PSTYLEMODE
290
1
  9
$FINGERPRINTGUID
  2
{E822870B-4A3B-53FE-AD74-9997B7018693}
  9
$VERSIONGUID
  2
{AD952E9F-1F07-5F20-9E5E-A1BD476C0FAC}
  9
$EXTNAMES
290
1
  9
$PSVPSCALE
 40
0.0
  9
$OLESTARTUP
290
0
  9
$SORTENTS
280
127
  9
$INDEXCTL
280
0
  9
$HIDETEXT
280
1
  9
$XCLIPFRAME
280
1
  9
$HALOGAP
280
0
  9
$OBSCOLOR
 70
257
  9
$OBSLTYPE
280
0
  9
$INTERSECTIONDISPLAY
280
0
  9
$INTERSECTIONCOLOR
 70
257
  9
$DIMASSOC
280
2
  9
$PROJECTNAME
  1

  9
$CAMERADISPLAY
290
0
  9
$LENSLENGTH
 40
50.0
  9
$CAMERAHEIGHT
 40
0.0
  9
$STEPSPERSEC
 40
24.0
  9
$STEPSIZE
 40
100.0
  9
$3DDWFPREC
 40
2.0
  9
$PSOLWIDTH
 40
0.005
  9
$PSOLHEIGHT
 40
0.08
  9
$LOFTANG1
 40
1.570796326795
  9
$LOFTANG2
 40
1.570796326795
  9
$LOFTMAG1
 40
0.0
  9
$LOFTMAG2
 40
0.0
  9
$LOFTPARAM
 70
7
  9
$LOFTNORMALS
280
1
  9
$LATITUDE
 40
37.795
  9
$LONGITUDE
 40
-122.394
  9
$NORTHDIRECTION
 40
0.0
  9
$TIMEZONE
 70
-8000
  9
$LIGHTGLYPHDISPLAY
280
1
  9
$TILEMODELIGHTSYNCH
280
1
  9
$CMATERIAL
347
20
  9
$SOLIDHIST
280
0
  9
$SHOWHIST
280
1
  9
$DWFFRAME
280
2
  9
$DGNFRAME
280
2
  9
$REALWORLDSCALE
290
1
  9
$INTERFERECOLOR
 62
256
  9
$CSHADOW
280
0
  9
$SHADOWPLANELOCATION
 40
0.0
  0
ENDSEC
  0
SECTION
  2
CLASSES
  0
CLASS
  1
ACDBDICTIONARYWDFLT
  2
AcDbDictionaryWithDefault
  3
ObjectDBX Classes
 90
0
 91
0
280
0
281
0
  0
CLASS
  1
SUN
  2
AcDbSun
  3
SCENEOE
 90
1153
 91
0
280
0
281
0
  0
CLASS
  1
VISUALSTYLE
  2
AcDbVisualStyle
  3
ObjectDBX Classes
 90
4095
 91
0
280
0
281
0
  0
CLASS
  1
MATERIAL
  2
AcDbMaterial
  3
ObjectDBX Classes
 90
1153
 91
0
280
0
281
0
  0
CLASS
  1
SCALE
  2
AcDbScale
  3
ObjectDBX Classes
 90
1153
 91
0
280
0
281
0
  0
CLASS
  1
TABLESTYLE
  2
AcDbTableStyle
  3
ObjectDBX Classes
 90
4095
 91
0
280
0
281
0
  0
CLASS
  1
MLEADERSTYLE
  2
AcDbMLeaderStyle
  3
ACDB_MLEADERSTYLE_CLASS
 90
4095
 91
0
280
0
281
0
  0
CLASS
  1
DICTIONARYVAR
  2
AcDbDictionaryVar
  3
ObjectDBX Classes
 90
0
 91
0
280
0
281
0
  0
CLASS
  1
CELLSTYLEMAP
  2
AcDbCellStyleMap
  3
ObjectDBX Classes
 90
1152
 91
0
280
0
281
0
  0
CLASS
  1
MENTALRAYRENDERSETTINGS
  2
AcDbMentalRayRenderSettings
  3
SCENEOE
 90
1024
 91
0
280
0
281
0
  0
CLASS
  1
ACDBDETAILVIEWSTYLE
  2
AcDbDetailViewStyle
  3
ObjectDBX Classes
 90
1025
 91
0
280
0
281
0
  0
CLASS
  1
ACDBSECTIONVIEWSTYLE
  2
AcDbSectionViewStyle
  3
ObjectDBX Classes
 90
1025
 91
0
280
0
281
0
  0
CLASS
  1
RASTERVARIABLES
  2
AcDbRasterVariables
  3
ISM
 90
0
 91
0
280
0
281
0
  0
CLASS
  1
LAYOUT
  2
AcDbLayout
  3
ObjectDBX Classes
 90
0
 91
0
280
0
281
0
  0
CLASS
  1
ACDBPLACEHOLDER
  2
AcDbPlaceHolder
  3
ObjectDBX Classes
 90
0
 91
0
280
0
281
0
  0
ENDSEC
  0
SECTION
  2
TABLES
  0
TABLE
  2
VPORT
  5
8
330
0
100
AcDbSymbolTable
 70
1
  0
VPORT
  5
23
330
8
100
AcDbSymbolTableRecord
100
AcDbViewportTableRecord
  2
*Active
 70
0
 10
0.0
 20
0.0
 11
1.0
 21
1.0
 12
0.0
 22
0.0
 13
0.0
 23
0.0
 14
0.5
 24
0.5
 15
0.5
 25
0.5
 16
0.0
 26
0.0
 36
1.0
 17
0.0
 27
0.0
 37
0.0
 40
1000.0
 41
1.34
 42
50.0
 43
0.0
 44
0.0
 50
0.0
 51
0.0
 71
0
 72
1000
 73
1
 74
3
 75
0
 76
0
 77
0
 78
0
281
0
 65
0
146
0.0
  0
ENDTAB
  0
TABLE
  2
LTYPE
  5
2
330
0
100
AcDbSymbolTable
 70
21
  0
LTYPE
  5
24
330
2
100
AcDbSymbolTableRecord
100
AcDbLinetypeTableRecord
  2
ByBlock
 70
0
  3

 72
65
 73
0
 40
0.0
  0
LTYPE
  5
25
330
2
100
AcDbSymbolTableRecord
100
AcDbLinetypeTableRecord
  2
ByLayer
 70
0
  3

 72
65
 73
0
 40
0.0
  0
LTYPE
  5
26
330
2
100
AcDbSymbolTableRecord
100
AcDbLinetypeTableRecord
  2
Continuous
 70
0
  3

 72
65
 73
0
 40
0.0
  0
LTYPE
  5
2F
330
2
100
AcDbSymbolTableRecord
100
AcDbLinetypeTableRecord
  2
CENTER
 70
0
  3
Center ____ _ ____ _ ____ _ ____ _ ____ _ ____
 72
65
 73
4
 40
5.08
 49
3.175
 74
0
 49
-0.635
 74
0
 49
0.635
 74
0
 49
-0.635
 74
0
  0
LTYPE
  5
30
330
2
100
AcDbSymbolTableRecord
100
AcDbLinetypeTableRecord
  2
CENTERX2
 70
0
  3
Center (2x) ________  __  ________  __  ________
 72
65
 73
4
 40
8.89
 49
6.35
 74
0
 49
-0.635
 74
0
 49
1.27
 74
0
 49
-0.635
 74
0
  0
LTYPE
  5
31
330
2
100
AcDbSymbolTableRecord
100
AcDbLinetypeTableRecord
  2
CENTER2
 70
0
  3
Center (.5x) ____ _ ____ _ ____ _ ____ _ ____
 72
65
 73
4
 40
2.54
 49
1.587
 74
0
 49
-0.318
 74
0
 49
0.318
 74
0
 49
-0.318
 74
0
  0
LTYPE
  5
32
330
2
100
AcDbSymbolTableRecord
100
AcDbLinetypeTableRecord
  2
DASHED
 70
0
  3
Dashed __ __ __ __ __ __ __ __ __ __ __ __ __ _
 72
65
 73
2
 40
1.524
 49
1.27
 74
0
 49
-0.254
 74
0
  0
LTYPE
  5
33
330
2
100
AcDbSymbolTableRecord
100
AcDbLinetypeTableRecord
  2
DASHEDX2
 70
0
  3
Dashed (2x) ____  ____  ____  ____  ____  ____
 72
65
 73
2
 40
3.048
 49
2.54
 74
0
 49
-0.508
 74
0
  0
LTYPE
  5
34
330
2
100
AcDbSymbolTableRecord
100
AcDbLinetypeTableRecord
  2
DASHED2
 70
0
  3
Dashed (.5x) _ _ _ _ _ _ _ _ _ _ _ _ _ _
 72
65
 73
2
 40
0.762
 49
0.635
 74
0
 49
-0.127
 74
0
  0
LTYPE
  5
35
330
2
100
AcDbSymbolTableRecord
100
AcDbLinetypeTableRecord
  2
PHANTOM
 70
0
  3
Phantom ______  __  __  ______  __  __  ______
 72
65
 73
6
 40
6.35
 49
3.175
 74
0
 49
-0.635
 74
0
 49
0.635
 74
0
 49
-0.635
 74
0
 49
0.635
 74
0
 49
-0.635
 74
0
  0
LTYPE
  5
36
330
2
100
AcDbSymbolTableRecord
100
AcDbLinetypeTableRecord
  2
PHANTOMX2
 70
0
  3
Phantom (2x)____________    ____    ____    ____________
 72
65
 73
6
 40
10.795
 49
6.35
 74
0
 49
-0.635
 74
0
 49
1.27
 74
0
 49
-0.635
 74
0
 49
1.27
 74
0
 49
-0.635
 74
0
  0
LTYPE
  5
37
330
2
100
AcDbSymbolTableRecord
100
AcDbLinetypeTableRecord
  2
PHANTOM2
 70
0
  3
Phantom (.5x) ___ _ _ ___ _ _ ___ _ _ ___ _ _ ___
 72
65
 73
6
 40
3.175
 49
1.587
 74
0
 49
-0.318
 74
0
 49
0.318
 74
0
 49
-0.318
 74
0
 49
0.318
 74
0
 49
-0.318
 74
0
  0
LTYPE
  5
38
330
2
100
AcDbSymbolTableRecord
100
AcDbLinetypeTableRecord
  2
DASHDOT
 70
0
  3
Dash dot __ . __ . __ . __ . __ . __ . __ . __
 72
65
 73
4
 40
3.556
 49
2.54
 74
0
 49
-0.508
 74
0
 49
0.0
 74
0
 49
-0.508
 74
0
  0
LTYPE
  5
39
330
2
100
AcDbSymbolTableRecord
100
AcDbLinetypeTableRecord
  2
DASHDOTX2
 70
0
  3
Dash dot (2x) ____  .  ____  .  ____  .  ____
 72
65
 73
4
 40
6.096
 49
5.08
 74
0
 49
-0.508
 74
0
 49
0.0
 74
0
 49
-0.508
 74
0
  0
LTYPE
  5
3A
330
2
100
AcDbSymbolTableRecord
100
AcDbLinetypeTableRecord
  2
DASHDOT2
 70
0
  3
Dash dot (.5x) _ . _ . _ . _ . _ . _ . _ . _
 72
65
 73
4
 40
1.778
 49
1.27
 74
0
 49
-0.254
 74
0
 49
0.0
 74
0
 49
-0.254
 74
0
  0
LTYPE
  5
3B
330
2
100
AcDbSymbolTableRecord
100
AcDbLinetypeTableRecord
  2
DOT
 70
0
  3
Dot .  .  .  .  .  .  .  .  .  .  .  .  .  .  .  .
 72
65
 73
2
 40
0.508
 49
0.0
 74
0
 49
-0.508
 74
0
  0
LTYPE
  5
3C
330
2
100
AcDbSymbolTableRecord
100
AcDbLinetypeTableRecord
  2
DOTX2
 70
0
  3
Dot (2x) .    .    .    .    .    .    .    . 
 72
65
 73
2
 40
1.016
 49
0.0
 74
0
 49
-1.016
 74
0
  0
LTYPE
  5
3D
330
2
100
AcDbSymbolTableRecord
100
AcDbLinetypeTableRecord
  2
DOT2
 70
0
  3
Dot (.5) . . . . . . . . . . . . . . . . . . . 
 72
65
 73
2
 40
0.254
 49
0.0
 74
0
 49
-0.254
 74
0
  0
LTYPE
  5
3E
330
2
100
AcDbSymbolTableRecord
100
AcDbLinetypeTableRecord
  2
DIVIDE
 70
0
  3
Divide __ . . __ . . __ . . __ . . __ . . __
 72
65
 73
6
 40
4.064
 49
2.54
 74
0
 49
-0.508
 74
0
 49
0.0
 74
0
 49
-0.508
 74
0
 49
0.0
 74
0
 49
-0.508
 74
0
  0
LTYPE
  5
3F
330
2
100
AcDbSymbolTableRecord
100
AcDbLinetypeTableRecord
  2
DIVIDEX2
 70
0
  3
Divide (2x) ____  . .  ____  . .  ____  . .  ____
 72
65
 73
6
 40
6.604
 49
5.08
 74
0
 49
-0.508
 74
0
 49
0.0
 74
0
 49
-0.508
 74
0
 49
0.0
 74
0
 49
-0.508
 74
0
  0
LTYPE
  5
40
330
2
100
AcDbSymbolTableRecord
100
AcDbLinetypeTableRecord
  2
DIVIDE2
 70
0
  3
Divide(.5x) _ . _ . _ . _ . _ . _ . _ . _
 72
65
 73
6
 40
2.032
 49
1.27
 74
0
 49
-0.254
 74
0
 49
0.0
 74
0
 49
-0.254
 74
0
 49
0.0
 74
0
 49
-0.254
 74
0
  0
ENDTAB
  0
TABLE
  2
LAYER
  5
1
330
0
100
AcDbSymbolTable
 70
19
  0
LAYER
  5
27
330
1
100
AcDbSymbolTableRecord
100
AcDbLayerTableRecord
  2
0
 70
0
 62
7
  6
Continuous
370
-3
390
13
347
21
  0
LAYER
  5
28
330
1
100
AcDbSymbolTableRecord
100
AcDbLayerTableRecord
  2
Defpoints
 70
0
 62
7
  6
Continuous
290
0
370
-3
390
13
347
21
  0
LAYER
  5
8B
330
1
100
AcDbSymbolTableRecord
100
AcDbLayerTableRecord
  2
A-WALL
 70
0
 62
7
  6
Continuous
370
35
390
13
347
21
  0
LAYER
  5
8C
330
1
100
AcDbSymbolTableRecord
100
AcDbLayerTableRecord
  2
A-WIND
 70
0
 62
4
  6
Continuous
370
18
390
13
347
21
  0
LAYER
  5
8D
330
1
100
AcDbSymbolTableRecord
100
AcDbLayerTableRecord
  2
A-DOOR
 70
0
 62
3
  6
Continuous
370
18
390
13
347
21
  0
LAYER
  5
8E
330
1
100
AcDbSymbolTableRecord
100
AcDbLayerTableRecord
  2
A-FLOR
 70
0
 62
8
  6
Continuous
370
13
390
13
347
21
  0
LAYER
  5
8F
330
1
100
AcDbSymbolTableRecord
100
AcDbLayerTableRecord
  2
A-FURN
 70
0
 62
8
  6
Continuous
370
13
390
13
347
21
  0
LAYER
  5
90
330
1
100
AcDbSymbolTableRecord
100
AcDbLayerTableRecord
  2
A-ANNO
 70
0
 62
7
  6
Continuous
370
18
390
13
347
21
  0
LAYER
  5
91
330
1
100
AcDbSymbolTableRecord
100
AcDbLayerTableRecord
  2
A-DIMS
 70
0
 62
7
  6
Continuous
370
13
390
13
347
21
  0
LAYER
  5
92
330
1
100
AcDbSymbolTableRecord
100
AcDbLayerTableRecord
  2
A-STAIR
 70
0
 62
7
  6
Continuous
370
18
390
13
347
21
  0
LAYER
  5
93
330
1
100
AcDbSymbolTableRecord
100
AcDbLayerTableRecord
  2
A-SITE
 70
0
 62
8
  6
Continuous
370
18
390
13
347
21
  0
LAYER
  5
94
330
1
100
AcDbSymbolTableRecord
100
AcDbLayerTableRecord
  2
A-TAGS
 70
0
 62
1
  6
Continuous
370
13
390
13
347
21
  0
LAYER
  5
95
330
1
100
AcDbSymbolTableRecord
100
AcDbLayerTableRecord
  2
A-GRID
 70
0
 62
8
  6
Continuous
370
13
390
13
347
21
  0
LAYER
  5
96
330
1
100
AcDbSymbolTableRecord
100
AcDbLayerTableRecord
  2
A-LEVL
 70
0
 62
7
  6
Continuous
370
13
390
13
347
21
  0
LAYER
  5
97
330
1
100
AcDbSymbolTableRecord
100
AcDbLayerTableRecord
  2
A-SECT
 70
0
 62
1
  6
Continuous
370
35
390
13
347
21
  0
LAYER
  5
98
330
1
100
AcDbSymbolTableRecord
100
AcDbLayerTableRecord
  2
A-EXT
 70
0
 62
30
  6
Continuous
370
18
390
13
347
21
  0
LAYER
  5
99
330
1
100
AcDbSymbolTableRecord
100
AcDbLayerTableRecord
  2
A-GATE
 70
0
 62
30
  6
Continuous
370
18
390
13
347
21
  0
LAYER
  5
9A
330
1
100
AcDbSymbolTableRecord
100
AcDbLayerTableRecord
  2
A-LAND
 70
0
 62
3
  6
Continuous
370
13
390
13
347
21
  0
LAYER
  5
9B
330
1
100
AcDbSymbolTableRecord
100
AcDbLayerTableRecord
  2
S-GRID
 70
0
 62
8
  6
Continuous
370
13
390
13
347
21
  0
ENDTAB
  0
TABLE
  2
STYLE
  5
5
330
0
100
AcDbSymbolTable
 70
26
  0
STYLE
  5
29
330
5
100
AcDbSymbolTableRecord
100
AcDbTextStyleTableRecord
  2
Standard
 70
0
 40
0.0
 41
1.0
 50
0.0
 71
0
 42
2.5
  3
txt
  4

  0
STYLE
  5
41
330
5
100
AcDbSymbolTableRecord
100
AcDbTextStyleTableRecord
  2
OpenSans-Light
 70
0
 40
0.0
 41
1.0
 50
0.0
 71
0
 42
2.5
  3
OpenSans-Light.ttf
  4

  0
STYLE
  5
42
330
5
100
AcDbSymbolTableRecord
100
AcDbTextStyleTableRecord
  2
OpenSans-Light-Italic
 70
0
 40
0.0
 41
1.0
 50
0.0
 71
0
 42
2.5
  3
OpenSans-LightItalic.ttf
  4

  0
STYLE
  5
43
330
5
100
AcDbSymbolTableRecord
100
AcDbTextStyleTableRecord
  2
OpenSans
 70
0
 40
0.0
 41
1.0
 50
0.0
 71
0
 42
2.5
  3
OpenSans-Regular.ttf
  4

  0
STYLE
  5
44
330
5
100
AcDbSymbolTableRecord
100
AcDbTextStyleTableRecord
  2
OpenSans-Italic
 70
0
 40
0.0
 41
1.0
 50
0.0
 71
0
 42
2.5
  3
OpenSans-Italic.ttf
  4

  0
STYLE
  5
45
330
5
100
AcDbSymbolTableRecord
100
AcDbTextStyleTableRecord
  2
OpenSans-SemiBold
 70
0
 40
0.0
 41
1.0
 50
0.0
 71
0
 42
2.5
  3
OpenSans-SemiBold.ttf
  4

  0
STYLE
  5
46
330
5
100
AcDbSymbolTableRecord
100
AcDbTextStyleTableRecord
  2
OpenSans-SemiBoldItalic
 70
0
 40
0.0
 41
1.0
 50
0.0
 71
0
 42
2.5
  3
OpenSans-SemiBoldItalic.ttf
  4

  0
STYLE
  5
47
330
5
100
AcDbSymbolTableRecord
100
AcDbTextStyleTableRecord
  2
OpenSans-Bold
 70
0
 40
0.0
 41
1.0
 50
0.0
 71
0
 42
2.5
  3
OpenSans-Bold.ttf
  4

  0
STYLE
  5
48
330
5
100
AcDbSymbolTableRecord
100
AcDbTextStyleTableRecord
  2
OpenSans-BoldItalic
 70
0
 40
0.0
 41
1.0
 50
0.0
 71
0
 42
2.5
  3
OpenSans-BoldItalic.ttf
  4

  0
STYLE
  5
49
330
5
100
AcDbSymbolTableRecord
100
AcDbTextStyleTableRecord
  2
OpenSans-ExtraBold
 70
0
 40
0.0
 41
1.0
 50
0.0
 71
0
 42
2.5
  3
OpenSans-ExtraBold.ttf
  4

  0
STYLE
  5
4A
330
5
100
AcDbSymbolTableRecord
100
AcDbTextStyleTableRecord
  2
OpenSans-ExtraBoldItalic
 70
0
 40
0.0
 41
1.0
 50
0.0
 71
0
 42
2.5
  3
OpenSans-ExtraBoldItalic.ttf
  4

  0
STYLE
  5
4B
330
5
100
AcDbSymbolTableRecord
100
AcDbTextStyleTableRecord
  2
OpenSansCondensed-Bold
 70
0
 40
0.0
 41
1.0
 50
0.0
 71
0
 42
2.5
  3
OpenSansCondensed-Bold.ttf
  4

  0
STYLE
  5
4C
330
5
100
AcDbSymbolTableRecord
100
AcDbTextStyleTableRecord
  2
OpenSansCondensed-Light
 70
0
 40
0.0
 41
1.0
 50
0.0
 71
0
 42
2.5
  3
OpenSansCondensed-Light.ttf
  4

  0
STYLE
  5
4D
330
5
100
AcDbSymbolTableRecord
100
AcDbTextStyleTableRecord
  2
OpenSansCondensed-Italic
 70
0
 40
0.0
 41
1.0
 50
0.0
 71
0
 42
2.5
  3
OpenSansCondensed-LightItalic.ttf
  4

  0
STYLE
  5
4E
330
5
100
AcDbSymbolTableRecord
100
AcDbTextStyleTableRecord
  2
LiberationSans
 70
0
 40
0.0
 41
1.0
 50
0.0
 71
0
 42
2.5
  3
LiberationSans-Regular.ttf
  4

  0
STYLE
  5
4F
330
5
100
AcDbSymbolTableRecord
100
AcDbTextStyleTableRecord
  2
LiberationSans-Bold
 70
0
 40
0.0
 41
1.0
 50
0.0
 71
0
 42
2.5
  3
LiberationSans-Bold.ttf
  4

  0
STYLE
  5
50
330
5
100
AcDbSymbolTableRecord
100
AcDbTextStyleTableRecord
  2
LiberationSans-BoldItalic
 70
0
 40
0.0
 41
1.0
 50
0.0
 71
0
 42
2.5
  3
LiberationSans-BoldItalic.ttf
  4

  0
STYLE
  5
51
330
5
100
AcDbSymbolTableRecord
100
AcDbTextStyleTableRecord
  2
LiberationSans-Italic
 70
0
 40
0.0
 41
1.0
 50
0.0
 71
0
 42
2.5
  3
LiberationSans-Italic.ttf
  4

  0
STYLE
  5
52
330
5
100
AcDbSymbolTableRecord
100
AcDbTextStyleTableRecord
  2
LiberationSerif
 70
0
 40
0.0
 41
1.0
 50
0.0
 71
0
 42
2.5
  3
LiberationSerif-Regular.ttf
  4

  0
STYLE
  5
53
330
5
100
AcDbSymbolTableRecord
100
AcDbTextStyleTableRecord
  2
LiberationSerif-Bold
 70
0
 40
0.0
 41
1.0
 50
0.0
 71
0
 42
2.5
  3
LiberationSerif-Bold.ttf
  4

  0
STYLE
  5
54
330
5
100
AcDbSymbolTableRecord
100
AcDbTextStyleTableRecord
  2
LiberationSerif-BoldItalic
 70
0
 40
0.0
 41
1.0
 50
0.0
 71
0
 42
2.5
  3
LiberationSerif-BoldItalic.ttf
  4

  0
STYLE
  5
55
330
5
100
AcDbSymbolTableRecord
100
AcDbTextStyleTableRecord
  2
LiberationSerif-Italic
 70
0
 40
0.0
 41
1.0
 50
0.0
 71
0
 42
2.5
  3
LiberationSerif-Italic.ttf
  4

  0
STYLE
  5
56
330
5
100
AcDbSymbolTableRecord
100
AcDbTextStyleTableRecord
  2
LiberationMono
 70
0
 40
0.0
 41
1.0
 50
0.0
 71
0
 42
2.5
  3
LiberationMono-Regular.ttf
  4

  0
STYLE
  5
57
330
5
100
AcDbSymbolTableRecord
100
AcDbTextStyleTableRecord
  2
LiberationMono-Bold
 70
0
 40
0.0
 41
1.0
 50
0.0
 71
0
 42
2.5
  3
LiberationMono-Bold.ttf
  4

  0
STYLE
  5
58
330
5
100
AcDbSymbolTableRecord
100
AcDbTextStyleTableRecord
  2
LiberationMono-BoldItalic
 70
0
 40
0.0
 41
1.0
 50
0.0
 71
0
 42
2.5
  3
LiberationMono-BoldItalic.ttf
  4

  0
STYLE
  5
59
330
5
100
AcDbSymbolTableRecord
100
AcDbTextStyleTableRecord
  2
LiberationMono-Italic
 70
0
 40
0.0
 41
1.0
 50
0.0
 71
0
 42
2.5
  3
LiberationMono-Italic.ttf
  4

  0
ENDTAB
  0
TABLE
  2
VIEW
  5
7
330
0
100
AcDbSymbolTable
 70
0
  0
ENDTAB
  0
TABLE
  2
UCS
  5
6
330
0
100
AcDbSymbolTable
 70
0
  0
ENDTAB
  0
TABLE
  2
APPID
  5
3
330
0
100
AcDbSymbolTable
 70
4
  0
APPID
  5
2A
330
3
100
AcDbSymbolTableRecord
100
AcDbRegAppTableRecord
  2
ACAD
 70
0
  0
APPID
  5
9D
330
3
100
AcDbSymbolTableRecord
100
AcDbRegAppTableRecord
  2
FLOORFORGE
 70
0
  0
APPID
  5
3ED
330
3
100
AcDbSymbolTableRecord
100
AcDbRegAppTableRecord
  2
HATCHBACKGROUNDCOLOR
 70
0
  0
APPID
  5
3EE
330
3
100
AcDbSymbolTableRecord
100
AcDbRegAppTableRecord
  2
EZDXF
 70
0
  0
ENDTAB
  0
TABLE
  2
DIMSTYLE
  5
4
330
0
100
AcDbSymbolTable
 70
13
100
AcDbDimStyleTable
  0
DIMSTYLE
105
2B
330
4
100
AcDbSymbolTableRecord
100
AcDbDimStyleTableRecord
  2
Standard
 70
0
 40
1.0
 41
2.5
 42
0.625
 43
3.75
 44
1.25
 45
0.0
 46
0.0
 47
0.0
 48
0.0
 49
2.5
140
2.5
141
2.5
142
0.0
143
0.03937007874
144
1.0
145
0.0
146
1.0
147
0.625
148
0.0
 69
0
 70
0
 71
0
 72
0
 73
0
 74
0
 75
0
 76
0
 77
1
 78
8
 79
3
170
0
171
3
172
1
173
0
174
0
175
0
176
0
177
0
178
0
179
2
271
2
272
2
273
2
274
3
275
0
276
0
277
2
278
44
279
0
280
0
281
0
282
0
283
0
284
8
285
0
286
0
288
0
289
3
290
0
371
-2
372
-2
  0
DIMSTYLE
105
73
330
4
100
AcDbSymbolTableRecord
100
AcDbDimStyleTableRecord
  2
EZDXF
 70
0
 40
1.0
 41
0.175
 42
0.125
 43
3.75
 44
0.375
 45
0.0
 46
0.0
 47
0.0
 48
0.0
 49
2.5
140
0.25
141
2.5
142
0.0
143
0.03937007874
144
100.0
145
0.0
146
0.5
147
0.1
148
0.0
 69
0
 70
0
 71
0
 72
0
 73
0
 74
0
 75
0
 76
0
 77
1
 78
12
 79
3
170
0
171
3
172
1
173
0
174
0
175
0
176
0
177
0
178
0
179
2
271
2
272
2
273
2
274
3
275
0
276
0
277
2
278
46
279
2
280
0
281
0
282
0
283
0
284
8
285
0
286
0
288
1
289
3
290
0
340
4C
342
74
371
-2
372
-2
  0
DIMSTYLE
105
7C
330
4
100
AcDbSymbolTableRecord
100
AcDbDimStyleTableRecord
  2
EZ_M_100_H25_CM
 70
0
 40
1.0
 41
0.25
 42
0.125
 43
3.75
 44
0.375
 45
0.0
 46
0.0
 47
0.0
 48
0.0
 49
2.5
140
0.25
141
2.5
142
0.125
143
0.03937007874
144
100.0
145
0.0
146
0.5
147
0.1
148
0.0
 69
0
 70
0
 71
0
 72
0
 73
0
 74
0
 75
0
 76
0
 77
1
 78
12
 79
3
170
0
171
3
172
1
173
0
174
0
175
0
176
0
177
0
178
0
179
2
271
2
272
2
273
2
274
3
275
0
276
0
277
2
278
46
279
2
280
0
281
0
282
0
283
0
284
8
285
0
286
0
288
1
289
3
290
0
340
4C
371
-2
372
-2
  0
DIMSTYLE
105
7D
330
4
100
AcDbSymbolTableRecord
100
AcDbDimStyleTableRecord
  2
EZ_M_50_H25_CM
 70
0
 40
1.0
 41
0.125
 42
0.0625
 43
3.75
 44
0.1875
 45
0.0
 46
0.0
 47
0.0
 48
0.0
 49
2.5
140
0.125
141
2.5
142
0.0625
143
0.03937007874
144
100.0
145
0.0
146
0.5
147
0.05
148
0.0
 69
0
 70
0
 71
0
 72
0
 73
0
 74
0
 75
0
 76
0
 77
1
 78
12
 79
3
170
0
171
3
172
1
173
0
174
0
175
0
176
0
177
0
178
0
179
2
271
2
272
2
273
2
274
3
275
0
276
0
277
2
278
46
279
2
280
0
281
0
282
0
283
0
284
8
285
0
286
0
288
1
289
3
290
0
340
4C
371
-2
372
-2
  0
DIMSTYLE
105
7E
330
4
100
AcDbSymbolTableRecord
100
AcDbDimStyleTableRecord
  2
EZ_M_25_H25_CM
 70
0
 40
1.0
 41
0.0625
 42
0.03125
 43
3.75
 44
0.09375
 45
0.0
 46
0.0
 47
0.0
 48
0.0
 49
2.5
140
0.0625
141
2.5
142
0.03125
143
0.03937007874
144
100.0
145
0.0
146
0.5
147
0.025
148
0.0
 69
0
 70
0
 71
0
 72
0
 73
0
 74
0
 75
0
 76
0
 77
1
 78
12
 79
3
170
0
171
3
172
1
173
0
174
0
175
0
176
0
177
0
178
0
179
2
271
2
272
2
273
2
274
3
275
0
276
0
277
2
278
46
279
2
280
0
281
0
282
0
283
0
284
8
285
0
286
0
288
1
289
3
290
0
340
4C
371
-2
372
-2
  0
DIMSTYLE
105
7F
330
4
100
AcDbSymbolTableRecord
100
AcDbDimStyleTableRecord
  2
EZ_M_20_H25_CM
 70
0
 40
1.0
 41
0.05
 42
0.025
 43
3.75
 44
0.07500000000000001
 45
0.0
 46
0.0
 47
0.0
 48
0.0
 49
2.5
140
0.05
141
2.5
142
0.025
143
0.03937007874
144
100.0
145
0.0
146
0.5
147
0.020000000000000004
148
0.0
 69
0
 70
0
 71
0
 72
0
 73
0
 74
0
 75
0
 76
0
 77
1
 78
12
 79
3
170
0
171
3
172
1
173
0
174
0
175
0
176
0
177
0
178
0
179
2
271
2
272
2
273
2
274
3
275
0
276
0
277
2
278
46
279
2
280
0
281
0
282
0
283
0
284
8
285
0
286
0
288
1
289
3
290
0
340
4C
371
-2
372
-2
  0
DIMSTYLE
105
80
330
4
100
AcDbSymbolTableRecord
100
AcDbDimStyleTableRecord
  2
EZ_M_10_H25_CM
 70
0
 40
1.0
 41
0.025
 42
0.0125
 43
3.75
 44
0.037500000000000006
 45
0.0
 46
0.0
 47
0.0
 48
0.0
 49
2.5
140
0.025
141
2.5
142
0.0125
143
0.03937007874
144
100.0
145
0.0
146
0.5
147
0.010000000000000002
148
0.0
 69
0
 70
0
 71
0
 72
0
 73
0
 74
0
 75
0
 76
0
 77
1
 78
12
 79
3
170
0
171
3
172
1
173
0
174
0
175
0
176
0
177
0
178
0
179
2
271
2
272
2
273
2
274
3
275
0
276
0
277
2
278
46
279
2
280
0
281
0
282
0
283
0
284
8
285
0
286
0
288
1
289
3
290
0
340
4C
371
-2
372
-2
  0
DIMSTYLE
105
81
330
4
100
AcDbSymbolTableRecord
100
AcDbDimStyleTableRecord
  2
EZ_M_5_H25_CM
 70
0
 40
1.0
 41
0.0125
 42
0.00625
 43
3.75
 44
0.018750000000000003
 45
0.0
 46
0.0
 47
0.0
 48
0.0
 49
2.5
140
0.0125
141
2.5
142
0.00625
143
0.03937007874
144
100.0
145
0.0
146
0.5
147
0.005000000000000001
148
0.0
 69
0
 70
0
 71
0
 72
0
 73
0
 74
0
 75
0
 76
0
 77
1
 78
12
 79
3
170
0
171
3
172
1
173
0
174
0
175
0
176
0
177
0
178
0
179
2
271
2
272
2
273
2
274
3
275
0
276
0
277
2
278
46
279
2
280
0
281
0
282
0
283
0
284
8
285
0
286
0
288
1
289
3
290
0
340
4C
371
-2
372
-2
  0
DIMSTYLE
105
82
330
4
100
AcDbSymbolTableRecord
100
AcDbDimStyleTableRecord
  2
EZ_M_1_H25_CM
 70
0
 40
1.0
 41
0.0025
 42
0.00125
 43
3.75
 44
0.00375
 45
0.0
 46
0.0
 47
0.0
 48
0.0
 49
2.5
140
0.0025
141
2.5
142
0.00125
143
0.03937007874
144
100.0
145
0.0
146
0.5
147
0.001
148
0.0
 69
0
 70
0
 71
0
 72
0
 73
0
 74
0
 75
0
 76
0
 77
1
 78
12
 79
3
170
0
171
3
172
1
173
0
174
0
175
0
176
0
177
0
178
0
179
2
271
2
272
2
273
2
274
3
275
0
276
0
277
2
278
46
279
2
280
0
281
0
282
0
283
0
284
8
285
0
286
0
288
1
289
3
290
0
340
4C
371
-2
372
-2
  0
DIMSTYLE
105
83
330
4
100
AcDbSymbolTableRecord
100
AcDbDimStyleTableRecord
  2
EZ_RADIUS
 70
0
 40
1.0
 41
0.25
 42
0.125
 43
3.75
 44
0.375
 45
0.0
 46
0.0
 47
0.0
 48
0.0
 49
2.5
140
0.25
141
0.0
142
0.0
143
0.03937007874
144
100.0
145
0.0
146
0.5
147
0.1
148
0.0
 69
0
 70
0
 71
0
 72
0
 73
0
 74
0
 75
0
 76
0
 77
1
 78
12
 79
3
170
0
171
3
172
0
173
0
174
0
175
0
176
0
177
0
178
0
179
2
271
2
272
2
273
2
274
3
275
0
276
0
277
2
278
46
279
1
280
0
281
0
282
0
283
0
284
8
285
0
286
0
288
1
289
3
290
0
340
4C
342
84
371
-2
372
-2
  0
DIMSTYLE
105
88
330
4
100
AcDbSymbolTableRecord
100
AcDbDimStyleTableRecord
  2
EZ_RADIUS_INSIDE
 70
0
 40
1.0
 41
0.25
 42
0.125
 43
3.75
 44
0.375
 45
0.0
 46
0.0
 47
0.0
 48
0.0
 49
2.5
140
0.25
141
0.0
142
0.0
143
0.03937007874
144
100.0
145
0.0
146
0.5
147
0.1
148
0.0
 69
0
 70
0
 71
0
 72
0
 73
0
 74
0
 75
0
 76
0
 77
0
 78
12
 79
3
170
0
171
3
172
0
173
0
174
1
175
0
176
0
177
0
178
0
179
2
271
2
272
2
273
2
274
3
275
0
276
0
277
2
278
46
279
0
280
0
281
0
282
0
283
0
284
8
285
0
286
0
288
1
289
0
290
0
340
4C
342
84
371
-2
372
-2
  0
DIMSTYLE
105
89
330
4
100
AcDbSymbolTableRecord
100
AcDbDimStyleTableRecord
  2
EZ_CURVED
 70
0
 40
1.0
 41
0.25
 42
0.125
 43
3.75
 44
0.375
 45
0.0
 46
0.0
 47
0.0
 48
0.0
 49
2.5
140
0.25
141
2.5
142
0.0
143
0.03937007874
144
100.0
145
0.0
146
0.5
147
0.1
148
0.0
 69
0
 70
0
 71
0
 72
0
 73
0
 74
0
 75
0
 76
0
 77
1
 78
12
 79
2
 90
2
170
0
171
3
172
1
173
0
174
0
175
0
176
0
177
0
178
0
179
2
271
2
272
2
273
2
274
3
275
0
276
0
277
2
278
46
279
2
280
0
281
0
282
0
283
0
284
8
285
0
286
0
288
1
289
3
290
0
340
4C
371
-2
372
-2
  0
DIMSTYLE
105
9C
330
4
100
AcDbSymbolTableRecord
100
AcDbDimStyleTableRecord
  2
FF-ARCH
 70
0
 40
1.0
 41
90.0
 42
120.0
 43
3.75
 44
120.0
 45
0.0
 46
0.0
 47
0.0
 48
0.0
 49
2.5
140
180.0
141
2.5
142
60.0
143
0.03937007874
144
1.0
145
0.0
146
1.0
147
60.0
148
0.0
 69
0
 70
0
 71
0
 72
0
 73
0
 74
0
 75
0
 76
0
 77
1
 78
8
 79
3
170
0
171
3
172
1
173
0
174
0
175
0
176
0
177
0
178
0
179
2
271
0
272
2
273
2
274
3
275
0
276
0
277
2
278
44
279
0
280
0
281
0
282
0
283
0
284
8
285
0
286
0
288
0
289
3
290
0
371
-2
372
-2
  0
ENDTAB
  0
TABLE
  2
BLOCK_RECORD
  5
9
330
0
100
AcDbSymbolTable
 70
46
  0
BLOCK_RECORD
  5
17
330
9
100
AcDbSymbolTableRecord
100
AcDbBlockTableRecord
  2
*Model_Space
340
1A
 70
0
280
1
281
0
  0
BLOCK_RECORD
  5
1B
330
9
100
AcDbSymbolTableRecord
100
AcDbBlockTableRecord
  2
*Paper_Space
340
1E
 70
0
280
1
281
0
  0
BLOCK_RECORD
  5
74
330
9
100
AcDbSymbolTableRecord
100
AcDbBlockTableRecord
  2
_ARCHTICK
340
0
 70
0
280
1
281
0
  0
BLOCK_RECORD
  5
78
330
9
100
AcDbSymbolTableRecord
100
AcDbBlockTableRecord
  2
_CLOSEDFILLED
340
0
 70
0
280
1
281
0
  0
BLOCK_RECORD
  5
84
330
9
100
AcDbSymbolTableRecord
100
AcDbBlockTableRecord
  2
_CLOSEDBLANK
340
0
 70
0
280
1
281
0
  0
BLOCK_RECORD
  5
168
330
9
100
AcDbSymbolTableRecord
100
AcDbBlockTableRecord
  2
*D1
340
0
 70
0
280
1
281
0
  0
BLOCK_RECORD
  5
16D
330
9
100
AcDbSymbolTableRecord
100
AcDbBlockTableRecord
  2
_OBLIQUE
340
0
 70
0
280
1
281
0
  0
BLOCK_RECORD
  5
17B
330
9
100
AcDbSymbolTableRecord
100
AcDbBlockTableRecord
  2
*D2
340
0
 70
0
280
1
281
0
  0
BLOCK_RECORD
  5
18A
330
9
100
AcDbSymbolTableRecord
100
AcDbBlockTableRecord
  2
*D3
340
0
 70
0
280
1
281
0
  0
BLOCK_RECORD
  5
199
330
9
100
AcDbSymbolTableRecord
100
AcDbBlockTableRecord
  2
*D4
340
0
 70
0
280
1
281
0
  0
BLOCK_RECORD
  5
1A8
330
9
100
AcDbSymbolTableRecord
100
AcDbBlockTableRecord
  2
*D5
340
0
 70
0
280
1
281
0
  0
BLOCK_RECORD
  5
1B7
330
9
100
AcDbSymbolTableRecord
100
AcDbBlockTableRecord
  2
*D6
340
0
 70
0
280
1
281
0
  0
BLOCK_RECORD
  5
1C6
330
9
100
AcDbSymbolTableRecord
100
AcDbBlockTableRecord
  2
*D7
340
0
 70
0
280
1
281
0
  0
BLOCK_RECORD
  5
1D5
330
9
100
AcDbSymbolTableRecord
100
AcDbBlockTableRecord
  2
*D8
340
0
 70
0
280
1
281
0
  0
BLOCK_RECORD
  5
1E4
330
9
100
AcDbSymbolTableRecord
100
AcDbBlockTableRecord
  2
*D9
340
0
 70
0
280
1
281
0
  0
BLOCK_RECORD
  5
1F3
330
9
100
AcDbSymbolTableRecord
100
AcDbBlockTableRecord
  2
*D10
340
0
 70
0
280
1
281
0
  0
BLOCK_RECORD
  5
202
330
9
100
AcDbSymbolTableRecord
100
AcDbBlockTableRecord
  2
*D11
340
0
 70
0
280
1
281
0
  0
BLOCK_RECORD
  5
211
330
9
100
AcDbSymbolTableRecord
100
AcDbBlockTableRecord
  2
*D12
340
0
 70
0
280
1
281
0
  0
BLOCK_RECORD
  5
220
330
9
100
AcDbSymbolTableRecord
100
AcDbBlockTableRecord
  2
*D13
340
0
 70
0
280
1
281
0
  0
BLOCK_RECORD
  5
22F
330
9
100
AcDbSymbolTableRecord
100
AcDbBlockTableRecord
  2
*D14
340
0
 70
0
280
1
281
0
  0
BLOCK_RECORD
  5
23E
330
9
100
AcDbSymbolTableRecord
100
AcDbBlockTableRecord
  2
*D15
340
0
 70
0
280
1
281
0
  0
BLOCK_RECORD
  5
24D
330
9
100
AcDbSymbolTableRecord
100
AcDbBlockTableRecord
  2
*D16
340
0
 70
0
280
1
281
0
  0
BLOCK_RECORD
  5
25C
330
9
100
AcDbSymbolTableRecord
100
AcDbBlockTableRecord
  2
*D17
340
0
 70
0
280
1
281
0
  0
BLOCK_RECORD
  5
26B
330
9
100
AcDbSymbolTableRecord
100
AcDbBlockTableRecord
  2
*D18
340
0
 70
0
280
1
281
0
  0
BLOCK_RECORD
  5
27A
330
9
100
AcDbSymbolTableRecord
100
AcDbBlockTableRecord
  2
*D19
340
0
 70
0
280
1
281
0
  0
BLOCK_RECORD
  5
289
330
9
100
AcDbSymbolTableRecord
100
AcDbBlockTableRecord
  2
*D20
340
0
 70
0
280
1
281
0
  0
BLOCK_RECORD
  5
298
330
9
100
AcDbSymbolTableRecord
100
AcDbBlockTableRecord
  2
*D21
340
0
 70
0
280
1
281
0
  0
BLOCK_RECORD
  5
2A7
330
9
100
AcDbSymbolTableRecord
100
AcDbBlockTableRecord
  2
*D22
340
0
 70
0
280
1
281
0
  0
BLOCK_RECORD
  5
2B6
330
9
100
AcDbSymbolTableRecord
100
AcDbBlockTableRecord
  2
*D23
340
0
 70
0
280
1
281
0
  0
BLOCK_RECORD
  5
2C5
330
9
100
AcDbSymbolTableRecord
100
AcDbBlockTableRecord
  2
*D24
340
0
 70
0
280
1
281
0
  0
BLOCK_RECORD
  5
2D4
330
9
100
AcDbSymbolTableRecord
100
AcDbBlockTableRecord
  2
*D25
340
0
 70
0
280
1
281
0
  0
BLOCK_RECORD
  5
2E3
330
9
100
AcDbSymbolTableRecord
100
AcDbBlockTableRecord
  2
*D26
340
0
 70
0
280
1
281
0
  0
BLOCK_RECORD
  5
2F2
330
9
100
AcDbSymbolTableRecord
100
AcDbBlockTableRecord
  2
*D27
340
0
 70
0
280
1
281
0
  0
BLOCK_RECORD
  5
301
330
9
100
AcDbSymbolTableRecord
100
AcDbBlockTableRecord
  2
*D28
340
0
 70
0
280
1
281
0
  0
BLOCK_RECORD
  5
310
330
9
100
AcDbSymbolTableRecord
100
AcDbBlockTableRecord
  2
*D29
340
0
 70
0
280
1
281
0
  0
BLOCK_RECORD
  5
31F
330
9
100
AcDbSymbolTableRecord
100
AcDbBlockTableRecord
  2
*D30
340
0
 70
0
280
1
281
0
  0
BLOCK_RECORD
  5
32E
330
9
100
AcDbSymbolTableRecord
100
AcDbBlockTableRecord
  2
*D31
340
0
 70
0
280
1
281
0
  0
BLOCK_RECORD
  5
33D
330
9
100
AcDbSymbolTableRecord
100
AcDbBlockTableRecord
  2
*D32
340
0
 70
0
280
1
281
0
  0
BLOCK_RECORD
  5
34C
330
9
100
AcDbSymbolTableRecord
100
AcDbBlockTableRecord
  2
*D33
340
0
 70
0
280
1
281
0
  0
BLOCK_RECORD
  5
35B
330
9
100
AcDbSymbolTableRecord
100
AcDbBlockTableRecord
  2
*D34
340
0
 70
0
280
1
281
0
  0
BLOCK_RECORD
  5
36A
330
9
100
AcDbSymbolTableRecord
100
AcDbBlockTableRecord
  2
*D35
340
0
 70
0
280
1
281
0
  0
BLOCK_RECORD
  5
379
330
9
100
AcDbSymbolTableRecord
100
AcDbBlockTableRecord
  2
*D36
340
0
 70
0
280
1
281
0
  0
BLOCK_RECORD
  5
388
330
9
100
AcDbSymbolTableRecord
100
AcDbBlockTableRecord
  2
*D37
340
0
 70
0
280
1
281
0
  0
BLOCK_RECORD
  5
397
330
9
100
AcDbSymbolTableRecord
100
AcDbBlockTableRecord
  2
*D38
340
0
 70
0
280
1
281
0
  0
BLOCK_RECORD
  5
3A6
330
9
100
AcDbSymbolTableRecord
100
AcDbBlockTableRecord
  2
*D39
340
0
 70
0
280
1
281
0
  0
BLOCK_RECORD
  5
3E6
330
9
100
AcDbSymbolTableRecord
100
AcDbBlockTableRecord
  2
*Paper_Space0
340
3E9
 70
0
280
1
281
0
  0
ENDTAB
  0
ENDSEC
  0
SECTION
  2
BLOCKS
  0
BLOCK
  5
18
330
17
100
AcDbEntity
  8
0
100
AcDbBlockBegin
  2
*Model_Space
 70
0
 10
0.0
 20
0.0
 30
0.0
  3
*Model_Space
  1

  0
ENDBLK
  5
19
330
17
100
AcDbEntity
  8
0
100
AcDbBlockEnd
  0
BLOCK
  5
1C
330
1B
100
AcDbEntity
  8
0
100
AcDbBlockBegin
  2
*Paper_Space
 70
0
 10
0.0
 20
0.0
 30
0.0
  3
*Paper_Space
  1

  0
ENDBLK
  5
1D
330
1B
100
AcDbEntity
  8
0
100
AcDbBlockEnd
  0
BLOCK
  5
75
330
74
100
AcDbEntity
  8
0
100
AcDbBlockBegin
  2
_ARCHTICK
 70
0
 10
0.0
 20
0.0
 30
0.0
  3
_ARCHTICK
  1

  0
LWPOLYLINE
  5
77
330
74
100
AcDbEntity
  8
0
  6
BYBLOCK
 62
0
100
AcDbPolyline
 90
2
 70
0
 43
0.15
 10
-0.5
 20
-0.5
 10
0.5
 20
0.5
  0
ENDBLK
  5
76
330
74
100
AcDbEntity
  8
0
100
AcDbBlockEnd
  0
BLOCK
  5
79
330
78
100
AcDbEntity
  8
0
100
AcDbBlockBegin
  2
_CLOSEDFILLED
 70
0
 10
0.0
 20
0.0
 30
0.0
  3
_CLOSEDFILLED
  1

  0
SOLID
  5
7B
330
78
100
AcDbEntity
  8
0
  6
BYBLOCK
 62
0
100
AcDbTrace
 10
-1.0
 20
0.16439898372402537
 30
0.0
 11
0.0
 21
0.0
 31
0.0
 12
-1.0
 22
-0.16439898372402537
 32
0.0
 13
-1.0
 23
-0.16439898372402537
 33
0.0
  0
ENDBLK
  5
7A
330
78
100
AcDbEntity
  8
0
100
AcDbBlockEnd
  0
BLOCK
  5
85
330
84
100
AcDbEntity
  8
0
100
AcDbBlockBegin
  2
_CLOSEDBLANK
 70
0
 10
0.0
 20
0.0
 30
0.0
  3
_CLOSEDBLANK
  1

  0
LWPOLYLINE
  5
87
330
84
100
AcDbEntity
  8
0
  6
BYBLOCK
 62
0
100
AcDbPolyline
 90
3
 70
1
 10
-1.0
 20
0.16439898372402537
 10
0.0
 20
0.0
 10
-1.0
 20
-0.16439898372402537
  0
ENDBLK
  5
86
330
84
100
AcDbEntity
  8
0
100
AcDbBlockEnd
  0
BLOCK
  5
169
330
168
100
AcDbEntity
  8
0
100
AcDbBlockBegin
  2
*D1
 70
1
 10
0.0
 20
0.0
 30
0.0
  3
*D1
  1

  0
LINE
  5
16B
330
168
100
AcDbEntity
  8
0
100
AcDbLine
 10
0.0
 20
-120.0
 30
0.0
 11
0.0
 21
-1620.0
 31
0.0
  0
LINE
  5
16C
330
168
100
AcDbEntity
  8
0
100
AcDbLine
 10
700.0
 20
-120.0
 30
0.0
 11
700.0
 21
-1620.0
 31
0.0
  0
INSERT
  5
171
330
168
100
AcDbEntity
  8
A-DIMS
100
AcDbBlockReference
  2
_OBLIQUE
 10
0.0
 20
-1500.0
 30
0.0
 41
120.0
 42
120.0
  0
INSERT
  5
173
330
168
100
AcDbEntity
  8
A-DIMS
100
AcDbBlockReference
  2
_OBLIQUE
 10
700.0
 20
-1500.0
 30
0.0
 41
120.0
 42
120.0
  0
LINE
  5
175
330
168
100
AcDbEntity
  8
0
100
AcDbLine
 10
0.0
 20
-1500.0
 30
0.0
 11
700.0
 21
-1500.0
 31
0.0
  0
MTEXT
  5
176
330
168
100
AcDbEntity
  8
A-DIMS
100
AcDbMText
 10
350.0
 20
-1350.0
 30
0.0
 40
180.0
 71
5
  1
700
  7
OpenSansCondensed-Light
  0
POINT
  5
177
330
168
100
AcDbEntity
  8
Defpoints
100
AcDbPoint
 10
0.0
 20
-1500.0
 30
0.0
  0
POINT
  5
178
330
168
100
AcDbEntity
  8
Defpoints
100
AcDbPoint
 10
0.0
 20
0.0
 30
0.0
  0
POINT
  5
179
330
168
100
AcDbEntity
  8
Defpoints
100
AcDbPoint
 10
700.0
 20
0.0
 30
0.0
  0
ENDBLK
  5
16A
330
168
100
AcDbEntity
  8
0
100
AcDbBlockEnd
  0
BLOCK
  5
16E
330
16D
100
AcDbEntity
  8
0
100
AcDbBlockBegin
  2
_OBLIQUE
 70
0
 10
0.0
 20
0.0
 30
0.0
  3
_OBLIQUE
  1

  0
LINE
  5
170
330
16D
100
AcDbEntity
  8
0
  6
BYBLOCK
 62
0
100
AcDbLine
 10
-0.5
 20
-0.5
 30
0.0
 11
0.5
 21
0.5
 31
0.0
  0
ENDBLK
  5
16F
330
16D
100
AcDbEntity
  8
0
100
AcDbBlockEnd
  0
BLOCK
  5
17C
330
17B
100
AcDbEntity
  8
0
100
AcDbBlockBegin
  2
*D2
 70
1
 10
0.0
 20
0.0
 30
0.0
  3
*D2
  1

  0
LINE
  5
17E
330
17B
100
AcDbEntity
  8
0
100
AcDbLine
 10
700.0
 20
-120.0
 30
0.0
 11
700.0
 21
-1620.0
 31
0.0
  0
LINE
  5
17F
330
17B
100
AcDbEntity
  8
0
100
AcDbLine
 10
1900.0
 20
-120.0
 30
0.0
 11
1900.0
 21
-1620.0
 31
0.0
  0
INSERT
  5
180
330
17B
100
AcDbEntity
  8
A-DIMS
100
AcDbBlockReference
  2
_OBLIQUE
 10
700.0
 20
-1500.0
 30
0.0
 41
120.0
 42
120.0
  0
INSERT
  5
182
330
17B
100
AcDbEntity
  8
A-DIMS
100
AcDbBlockReference
  2
_OBLIQUE
 10
1900.0
 20
-1500.0
 30
0.0
 41
120.0
 42
120.0
  0
LINE
  5
184
330
17B
100
AcDbEntity
  8
0
100
AcDbLine
 10
700.0
 20
-1500.0
 30
0.0
 11
1900.0
 21
-1500.0
 31
0.0
  0
MTEXT
  5
185
330
17B
100
AcDbEntity
  8
A-DIMS
100
AcDbMText
 10
1300.0
 20
-1350.0
 30
0.0
 40
180.0
 71
5
  1
1200
  7
OpenSansCondensed-Light
  0
POINT
  5
186
330
17B
100
AcDbEntity
  8
Defpoints
100
AcDbPoint
 10
700.0
 20
-1500.0
 30
0.0
  0
POINT
  5
187
330
17B
100
AcDbEntity
  8
Defpoints
100
AcDbPoint
 10
700.0
 20
0.0
 30
0.0
  0
POINT
  5
188
330
17B
100
AcDbEntity
  8
Defpoints
100
AcDbPoint
 10
1900.0
 20
0.0
 30
0.0
  0
ENDBLK
  5
17D
330
17B
100
AcDbEntity
  8
0
100
AcDbBlockEnd
  0
BLOCK
  5
18B
330
18A
100
AcDbEntity
  8
0
100
AcDbBlockBegin
  2
*D3
 70
1
 10
0.0
 20
0.0
 30
0.0
  3
*D3
  1

  0
LINE
  5
18D
330
18A
100
AcDbEntity
  8
0
100
AcDbLine
 10
1900.0
 20
-120.0
 30
0.0
 11
1900.0
 21
-1620.0
 31
0.0
  0
LINE
  5
18E
330
18A
100
AcDbEntity
  8
0
100
AcDbLine
 10
2010.0
 20
-120.0
 30
0.0
 11
2010.0
 21
-1620.0
 31
0.0
  0
INSERT
  5
18F
330
18A
100
AcDbEntity
  8
A-DIMS
100
AcDbBlockReference
  2
_OBLIQUE
 10
1900.0
 20
-1500.0
 30
0.0
 41
120.0
 42
120.0
  0
INSERT
  5
191
330
18A
100
AcDbEntity
  8
A-DIMS
100
AcDbBlockReference
  2
_OBLIQUE
 10
2010.0
 20
-1500.0
 30
0.0
 41
120.0
 42
120.0
  0
LINE
  5
193
330
18A
100
AcDbEntity
  8
0
100
AcDbLine
 10
1900.0
 20
-1500.0
 30
0.0
 11
2010.0
 21
-1500.0
 31
0.0
  0
MTEXT
  5
194
330
18A
100
AcDbEntity
  8
A-DIMS
100
AcDbMText
 10
1955.0
 20
-1230.0
 30
0.0
 40
180.0
 71
5
  1
110
  7
OpenSansCondensed-Light
  0
POINT
  5
195
330
18A
100
AcDbEntity
  8
Defpoints
100
AcDbPoint
 10
1900.0
 20
-1500.0
 30
0.0
  0
POINT
  5
196
330
18A
100
AcDbEntity
  8
Defpoints
100
AcDbPoint
 10
1900.0
 20
0.0
 30
0.0
  0
POINT
  5
197
330
18A
100
AcDbEntity
  8
Defpoints
100
AcDbPoint
 10
2010.0
 20
0.0
 30
0.0
  0
ENDBLK
  5
18C
330
18A
100
AcDbEntity
  8
0
100
AcDbBlockEnd
  0
BLOCK
  5
19A
330
199
100
AcDbEntity
  8
0
100
AcDbBlockBegin
  2
*D4
 70
1
 10
0.0
 20
0.0
 30
0.0
  3
*D4
  1

  0
LINE
  5
19C
330
199
100
AcDbEntity
  8
0
100
AcDbLine
 10
2010.0
 20
-120.0
 30
0.0
 11
2010.0
 21
-1620.0
 31
0.0
  0
LINE
  5
19D
330
199
100
AcDbEntity
  8
0
100
AcDbLine
 10
4710.0
 20
-120.0
 30
0.0
 11
4710.0
 21
-1620.0
 31
0.0
  0
INSERT
  5
19E
330
199
100
AcDbEntity
  8
A-DIMS
100
AcDbBlockReference
  2
_OBLIQUE
 10
2010.0
 20
-1500.0
 30
0.0
 41
120.0
 42
120.0
  0
INSERT
  5
1A0
330
199
100
AcDbEntity
  8
A-DIMS
100
AcDbBlockReference
  2
_OBLIQUE
 10
4710.0
 20
-1500.0
 30
0.0
 41
120.0
 42
120.0
  0
LINE
  5
1A2
330
199
100
AcDbEntity
  8
0
100
AcDbLine
 10
2010.0
 20
-1500.0
 30
0.0
 11
4710.0
 21
-1500.0
 31
0.0
  0
MTEXT
  5
1A3
330
199
100
AcDbEntity
  8
A-DIMS
100
AcDbMText
 10
3360.0
 20
-1350.0
 30
0.0
 40
180.0
 71
5
  1
2700
  7
OpenSansCondensed-Light
  0
POINT
  5
1A4
330
199
100
AcDbEntity
  8
Defpoints
100
AcDbPoint
 10
2010.0
 20
-1500.0
 30
0.0
  0
POINT
  5
1A5
330
199
100
AcDbEntity
  8
Defpoints
100
AcDbPoint
 10
2010.0
 20
0.0
 30
0.0
  0
POINT
  5
1A6
330
199
100
AcDbEntity
  8
Defpoints
100
AcDbPoint
 10
4710.0
 20
0.0
 30
0.0
  0
ENDBLK
  5
19B
330
199
100
AcDbEntity
  8
0
100
AcDbBlockEnd
  0
BLOCK
  5
1A9
330
1A8
100
AcDbEntity
  8
0
100
AcDbBlockBegin
  2
*D5
 70
1
 10
0.0
 20
0.0
 30
0.0
  3
*D5
  1

  0
LINE
  5
1AB
330
1A8
100
AcDbEntity
  8
0
100
AcDbLine
 10
4710.0
 20
-120.0
 30
0.0
 11
4710.0
 21
-1620.0
 31
0.0
  0
LINE
  5
1AC
330
1A8
100
AcDbEntity
  8
0
100
AcDbLine
 10
6720.0
 20
-120.0
 30
0.0
 11
6720.0
 21
-1620.0
 31
0.0
  0
INSERT
  5
1AD
330
1A8
100
AcDbEntity
  8
A-DIMS
100
AcDbBlockReference
  2
_OBLIQUE
 10
4710.0
 20
-1500.0
 30
0.0
 41
120.0
 42
120.0
  0
INSERT
  5
1AF
330
1A8
100
AcDbEntity
  8
A-DIMS
100
AcDbBlockReference
  2
_OBLIQUE
 10
6720.0
 20
-1500.0
 30
0.0
 41
120.0
 42
120.0
  0
LINE
  5
1B1
330
1A8
100
AcDbEntity
  8
0
100
AcDbLine
 10
4710.0
 20
-1500.0
 30
0.0
 11
6720.0
 21
-1500.0
 31
0.0
  0
MTEXT
  5
1B2
330
1A8
100
AcDbEntity
  8
A-DIMS
100
AcDbMText
 10
5715.0
 20
-1350.0
 30
0.0
 40
180.0
 71
5
  1
2010
  7
OpenSansCondensed-Light
  0
POINT
  5
1B3
330
1A8
100
AcDbEntity
  8
Defpoints
100
AcDbPoint
 10
4710.0
 20
-1500.0
 30
0.0
  0
POINT
  5
1B4
330
1A8
100
AcDbEntity
  8
Defpoints
100
AcDbPoint
 10
4710.0
 20
0.0
 30
0.0
  0
POINT
  5
1B5
330
1A8
100
AcDbEntity
  8
Defpoints
100
AcDbPoint
 10
6720.0
 20
0.0
 30
0.0
  0
ENDBLK
  5
1AA
330
1A8
100
AcDbEntity
  8
0
100
AcDbBlockEnd
  0
BLOCK
  5
1B8
330
1B7
100
AcDbEntity
  8
0
100
AcDbBlockBegin
  2
*D6
 70
1
 10
0.0
 20
0.0
 30
0.0
  3
*D6
  1

  0
LINE
  5
1BA
330
1B7
100
AcDbEntity
  8
0
100
AcDbLine
 10
0.0
 20
-120.0
 30
0.0
 11
0.0
 21
-2070.0
 31
0.0
  0
LINE
  5
1BB
330
1B7
100
AcDbEntity
  8
0
100
AcDbLine
 10
6720.0
 20
-120.0
 30
0.0
 11
6720.0
 21
-2070.0
 31
0.0
  0
INSERT
  5
1BC
330
1B7
100
AcDbEntity
  8
A-DIMS
100
AcDbBlockReference
  2
_OBLIQUE
 10
0.0
 20
-1950.0
 30
0.0
 41
120.0
 42
120.0
  0
INSERT
  5
1BE
330
1B7
100
AcDbEntity
  8
A-DIMS
100
AcDbBlockReference
  2
_OBLIQUE
 10
6720.0
 20
-1950.0
 30
0.0
 41
120.0
 42
120.0
  0
LINE
  5
1C0
330
1B7
100
AcDbEntity
  8
0
100
AcDbLine
 10
0.0
 20
-1950.0
 30
0.0
 11
6720.0
 21
-1950.0
 31
0.0
  0
MTEXT
  5
1C1
330
1B7
100
AcDbEntity
  8
A-DIMS
100
AcDbMText
 10
3360.0
 20
-1800.0
 30
0.0
 40
180.0
 71
5
  1
6720
  7
OpenSansCondensed-Light
  0
POINT
  5
1C2
330
1B7
100
AcDbEntity
  8
Defpoints
100
AcDbPoint
 10
0.0
 20
-1950.0
 30
0.0
  0
POINT
  5
1C3
330
1B7
100
AcDbEntity
  8
Defpoints
100
AcDbPoint
 10
0.0
 20
0.0
 30
0.0
  0
POINT
  5
1C4
330
1B7
100
AcDbEntity
  8
Defpoints
100
AcDbPoint
 10
6720.0
 20
0.0
 30
0.0
  0
ENDBLK
  5
1B9
330
1B7
100
AcDbEntity
  8
0
100
AcDbBlockEnd
  0
BLOCK
  5
1C7
330
1C6
100
AcDbEntity
  8
0
100
AcDbBlockBegin
  2
*D7
 70
1
 10
0.0
 20
0.0
 30
0.0
  3
*D7
  1

  0
LINE
  5
1C9
330
1C6
100
AcDbEntity
  8
0
100
AcDbLine
 10
0.0
 20
8988.0
 30
0.0
 11
0.0
 21
9538.0
 31
0.0
  0
LINE
  5
1CA
330
1C6
100
AcDbEntity
  8
0
100
AcDbLine
 10
600.0
 20
8988.0
 30
0.0
 11
600.0
 21
9538.0
 31
0.0
  0
INSERT
  5
1CB
330
1C6
100
AcDbEntity
  8
A-DIMS
100
AcDbBlockReference
  2
_OBLIQUE
 10
0.0
 20
9418.0
 30
0.0
 41
120.0
 42
120.0
  0
INSERT
  5
1CD
330
1C6
100
AcDbEntity
  8
A-DIMS
100
AcDbBlockReference
  2
_OBLIQUE
 10
600.0
 20
9418.0
 30
0.0
 41
120.0
 42
120.0
  0
LINE
  5
1CF
330
1C6
100
AcDbEntity
  8
0
100
AcDbLine
 10
0.0
 20
9418.0
 30
0.0
 11
600.0
 21
9418.0
 31
0.0
  0
MTEXT
  5
1D0
330
1C6
100
AcDbEntity
  8
A-DIMS
100
AcDbMText
 10
300.0
 20
9568.0
 30
0.0
 40
180.0
 71
5
  1
600
  7
OpenSansCondensed-Light
  0
POINT
  5
1D1
330
1C6
100
AcDbEntity
  8
Defpoints
100
AcDbPoint
 10
0.0
 20
9418.0
 30
0.0
  0
POINT
  5
1D2
330
1C6
100
AcDbEntity
  8
Defpoints
100
AcDbPoint
 10
0.0
 20
8868.0
 30
0.0
  0
POINT
  5
1D3
330
1C6
100
AcDbEntity
  8
Defpoints
100
AcDbPoint
 10
600.0
 20
8868.0
 30
0.0
  0
ENDBLK
  5
1C8
330
1C6
100
AcDbEntity
  8
0
100
AcDbBlockEnd
  0
BLOCK
  5
1D6
330
1D5
100
AcDbEntity
  8
0
100
AcDbBlockBegin
  2
*D8
 70
1
 10
0.0
 20
0.0
 30
0.0
  3
*D8
  1

  0
LINE
  5
1D8
330
1D5
100
AcDbEntity
  8
0
100
AcDbLine
 10
600.0
 20
8988.0
 30
0.0
 11
600.0
 21
9538.0
 31
0.0
  0
LINE
  5
1D9
330
1D5
100
AcDbEntity
  8
0
100
AcDbLine
 10
1800.0
 20
8988.0
 30
0.0
 11
1800.0
 21
9538.0
 31
0.0
  0
INSERT
  5
1DA
330
1D5
100
AcDbEntity
  8
A-DIMS
100
AcDbBlockReference
  2
_OBLIQUE
 10
600.0
 20
9418.0
 30
0.0
 41
120.0
 42
120.0
  0
INSERT
  5
1DC
330
1D5
100
AcDbEntity
  8
A-DIMS
100
AcDbBlockReference
  2
_OBLIQUE
 10
1800.0
 20
9418.0
 30
0.0
 41
120.0
 42
120.0
  0
LINE
  5
1DE
330
1D5
100
AcDbEntity
  8
0
100
AcDbLine
 10
600.0
 20
9418.0
 30
0.0
 11
1800.0
 21
9418.0
 31
0.0
  0
MTEXT
  5
1DF
330
1D5
100
AcDbEntity
  8
A-DIMS
100
AcDbMText
 10
1200.0
 20
9568.0
 30
0.0
 40
180.0
 71
5
  1
1200
  7
OpenSansCondensed-Light
  0
POINT
  5
1E0
330
1D5
100
AcDbEntity
  8
Defpoints
100
AcDbPoint
 10
600.0
 20
9418.0
 30
0.0
  0
POINT
  5
1E1
330
1D5
100
AcDbEntity
  8
Defpoints
100
AcDbPoint
 10
600.0
 20
8868.0
 30
0.0
  0
POINT
  5
1E2
330
1D5
100
AcDbEntity
  8
Defpoints
100
AcDbPoint
 10
1800.0
 20
8868.0
 30
0.0
  0
ENDBLK
  5
1D7
330
1D5
100
AcDbEntity
  8
0
100
AcDbBlockEnd
  0
BLOCK
  5
1E5
330
1E4
100
AcDbEntity
  8
0
100
AcDbBlockBegin
  2
*D9
 70
1
 10
0.0
 20
0.0
 30
0.0
  3
*D9
  1

  0
LINE
  5
1E7
330
1E4
100
AcDbEntity
  8
0
100
AcDbLine
 10
1800.0
 20
8988.0
 30
0.0
 11
1800.0
 21
9538.0
 31
0.0
  0
LINE
  5
1E8
330
1E4
100
AcDbEntity
  8
0
100
AcDbLine
 10
2775.0
 20
8988.0
 30
0.0
 11
2775.0
 21
9538.0
 31
0.0
  0
INSERT
  5
1E9
330
1E4
100
AcDbEntity
  8
A-DIMS
100
AcDbBlockReference
  2
_OBLIQUE
 10
1800.0
 20
9418.0
 30
0.0
 41
120.0
 42
120.0
  0
INSERT
  5
1EB
330
1E4
100
AcDbEntity
  8
A-DIMS
100
AcDbBlockReference
  2
_OBLIQUE
 10
2775.0
 20
9418.0
 30
0.0
 41
120.0
 42
120.0
  0
LINE
  5
1ED
330
1E4
100
AcDbEntity
  8
0
100
AcDbLine
 10
1800.0
 20
9418.0
 30
0.0
 11
2775.0
 21
9418.0
 31
0.0
  0
MTEXT
  5
1EE
330
1E4
100
AcDbEntity
  8
A-DIMS
100
AcDbMText
 10
2287.5
 20
9568.0
 30
0.0
 40
180.0
 71
5
  1
975
  7
OpenSansCondensed-Light
  0
POINT
  5
1EF
330
1E4
100
AcDbEntity
  8
Defpoints
100
AcDbPoint
 10
1800.0
 20
9418.0
 30
0.0
  0
POINT
  5
1F0
330
1E4
100
AcDbEntity
  8
Defpoints
100
AcDbPoint
 10
1800.0
 20
8868.0
 30
0.0
  0
POINT
  5
1F1
330
1E4
100
AcDbEntity
  8
Defpoints
100
AcDbPoint
 10
2775.0
 20
8868.0
 30
0.0
  0
ENDBLK
  5
1E6
330
1E4
100
AcDbEntity
  8
0
100
AcDbBlockEnd
  0
BLOCK
  5
1F4
330
1F3
100
AcDbEntity
  8
0
100
AcDbBlockBegin
  2
*D10
 70
1
 10
0.0
 20
0.0
 30
0.0
  3
*D10
  1

  0
LINE
  5
1F6
330
1F3
100
AcDbEntity
  8
0
100
AcDbLine
 10
2775.0
 20
8988.0
 30
0.0
 11
2775.0
 21
9538.0
 31
0.0
  0
LINE
  5
1F7
330
1F3
100
AcDbEntity
  8
0
100
AcDbLine
 10
3375.0
 20
8988.0
 30
0.0
 11
3375.0
 21
9538.0
 31
0.0
  0
INSERT
  5
1F8
330
1F3
100
AcDbEntity
  8
A-DIMS
100
AcDbBlockReference
  2
_OBLIQUE
 10
2775.0
 20
9418.0
 30
0.0
 41
120.0
 42
120.0
  0
INSERT
  5
1FA
330
1F3
100
AcDbEntity
  8
A-DIMS
100
AcDbBlockReference
  2
_OBLIQUE
 10
3375.0
 20
9418.0
 30
0.0
 41
120.0
 42
120.0
  0
LINE
  5
1FC
330
1F3
100
AcDbEntity
  8
0
100
AcDbLine
 10
2775.0
 20
9418.0
 30
0.0
 11
3375.0
 21
9418.0
 31
0.0
  0
MTEXT
  5
1FD
330
1F3
100
AcDbEntity
  8
A-DIMS
100
AcDbMText
 10
3075.0
 20
9568.0
 30
0.0
 40
180.0
 71
5
  1
600
  7
OpenSansCondensed-Light
  0
POINT
  5
1FE
330
1F3
100
AcDbEntity
  8
Defpoints
100
AcDbPoint
 10
2775.0
 20
9418.0
 30
0.0
  0
POINT
  5
1FF
330
1F3
100
AcDbEntity
  8
Defpoints
100
AcDbPoint
 10
2775.0
 20
8868.0
 30
0.0
  0
POINT
  5
200
330
1F3
100
AcDbEntity
  8
Defpoints
100
AcDbPoint
 10
3375.0
 20
8868.0
 30
0.0
  0
ENDBLK
  5
1F5
330
1F3
100
AcDbEntity
  8
0
100
AcDbBlockEnd
  0
BLOCK
  5
203
330
202
100
AcDbEntity
  8
0
100
AcDbBlockBegin
  2
*D11
 70
1
 10
0.0
 20
0.0
 30
0.0
  3
*D11
  1

  0
LINE
  5
205
330
202
100
AcDbEntity
  8
0
100
AcDbLine
 10
3375.0
 20
8988.0
 30
0.0
 11
3375.0
 21
9538.0
 31
0.0
  0
LINE
  5
206
330
202
100
AcDbEntity
  8
0
100
AcDbLine
 10
4485.0
 20
8988.0
 30
0.0
 11
4485.0
 21
9538.0
 31
0.0
  0
INSERT
  5
207
330
202
100
AcDbEntity
  8
A-DIMS
100
AcDbBlockReference
  2
_OBLIQUE
 10
3375.0
 20
9418.0
 30
0.0
 41
120.0
 42
120.0
  0
INSERT
  5
209
330
202
100
AcDbEntity
  8
A-DIMS
100
AcDbBlockReference
  2
_OBLIQUE
 10
4485.0
 20
9418.0
 30
0.0
 41
120.0
 42
120.0
  0
LINE
  5
20B
330
202
100
AcDbEntity
  8
0
100
AcDbLine
 10
3375.0
 20
9418.0
 30
0.0
 11
4485.0
 21
9418.0
 31
0.0
  0
MTEXT
  5
20C
330
202
100
AcDbEntity
  8
A-DIMS
100
AcDbMText
 10
3930.0
 20
9568.0
 30
0.0
 40
180.0
 71
5
  1
1110
  7
OpenSansCondensed-Light
  0
POINT
  5
20D
330
202
100
AcDbEntity
  8
Defpoints
100
AcDbPoint
 10
3375.0
 20
9418.0
 30
0.0
  0
POINT
  5
20E
330
202
100
AcDbEntity
  8
Defpoints
100
AcDbPoint
 10
3375.0
 20
8868.0
 30
0.0
  0
POINT
  5
20F
330
202
100
AcDbEntity
  8
Defpoints
100
AcDbPoint
 10
4485.0
 20
8868.0
 30
0.0
  0
ENDBLK
  5
204
330
202
100
AcDbEntity
  8
0
100
AcDbBlockEnd
  0
BLOCK
  5
212
330
211
100
AcDbEntity
  8
0
100
AcDbBlockBegin
  2
*D12
 70
1
 10
0.0
 20
0.0
 30
0.0
  3
*D12
  1

  0
LINE
  5
214
330
211
100
AcDbEntity
  8
0
100
AcDbLine
 10
4485.0
 20
8988.0
 30
0.0
 11
4485.0
 21
9538.0
 31
0.0
  0
LINE
  5
215
330
211
100
AcDbEntity
  8
0
100
AcDbLine
 10
5985.0
 20
8988.0
 30
0.0
 11
5985.0
 21
9538.0
 31
0.0
  0
INSERT
  5
216
330
211
100
AcDbEntity
  8
A-DIMS
100
AcDbBlockReference
  2
_OBLIQUE
 10
4485.0
 20
9418.0
 30
0.0
 41
120.0
 42
120.0
  0
INSERT
  5
218
330
211
100
AcDbEntity
  8
A-DIMS
100
AcDbBlockReference
  2
_OBLIQUE
 10
5985.0
 20
9418.0
 30
0.0
 41
120.0
 42
120.0
  0
LINE
  5
21A
330
211
100
AcDbEntity
  8
0
100
AcDbLine
 10
4485.0
 20
9418.0
 30
0.0
 11
5985.0
 21
9418.0
 31
0.0
  0
MTEXT
  5
21B
330
211
100
AcDbEntity
  8
A-DIMS
100
AcDbMText
 10
5235.0
 20
9568.0
 30
0.0
 40
180.0
 71
5
  1
1500
  7
OpenSansCondensed-Light
  0
POINT
  5
21C
330
211
100
AcDbEntity
  8
Defpoints
100
AcDbPoint
 10
4485.0
 20
9418.0
 30
0.0
  0
POINT
  5
21D
330
211
100
AcDbEntity
  8
Defpoints
100
AcDbPoint
 10
4485.0
 20
8868.0
 30
0.0
  0
POINT
  5
21E
330
211
100
AcDbEntity
  8
Defpoints
100
AcDbPoint
 10
5985.0
 20
8868.0
 30
0.0
  0
ENDBLK
  5
213
330
211
100
AcDbEntity
  8
0
100
AcDbBlockEnd
  0
BLOCK
  5
221
330
220
100
AcDbEntity
  8
0
100
AcDbBlockBegin
  2
*D13
 70
1
 10
0.0
 20
0.0
 30
0.0
  3
*D13
  1

  0
LINE
  5
223
330
220
100
AcDbEntity
  8
0
100
AcDbLine
 10
5985.0
 20
8988.0
 30
0.0
 11
5985.0
 21
9538.0
 31
0.0
  0
LINE
  5
224
330
220
100
AcDbEntity
  8
0
100
AcDbLine
 10
6720.0
 20
8988.0
 30
0.0
 11
6720.0
 21
9538.0
 31
0.0
  0
INSERT
  5
225
330
220
100
AcDbEntity
  8
A-DIMS
100
AcDbBlockReference
  2
_OBLIQUE
 10
5985.0
 20
9418.0
 30
0.0
 41
120.0
 42
120.0
  0
INSERT
  5
227
330
220
100
AcDbEntity
  8
A-DIMS
100
AcDbBlockReference
  2
_OBLIQUE
 10
6720.0
 20
9418.0
 30
0.0
 41
120.0
 42
120.0
  0
LINE
  5
229
330
220
100
AcDbEntity
  8
0
100
AcDbLine
 10
5985.0
 20
9418.0
 30
0.0
 11
6720.0
 21
9418.0
 31
0.0
  0
MTEXT
  5
22A
330
220
100
AcDbEntity
  8
A-DIMS
100
AcDbMText
 10
6352.5
 20
9568.0
 30
0.0
 40
180.0
 71
5
  1
735
  7
OpenSansCondensed-Light
  0
POINT
  5
22B
330
220
100
AcDbEntity
  8
Defpoints
100
AcDbPoint
 10
5985.0
 20
9418.0
 30
0.0
  0
POINT
  5
22C
330
220
100
AcDbEntity
  8
Defpoints
100
AcDbPoint
 10
5985.0
 20
8868.0
 30
0.0
  0
POINT
  5
22D
330
220
100
AcDbEntity
  8
Defpoints
100
AcDbPoint
 10
6720.0
 20
8868.0
 30
0.0
  0
ENDBLK
  5
222
330
220
100
AcDbEntity
  8
0
100
AcDbBlockEnd
  0
BLOCK
  5
230
330
22F
100
AcDbEntity
  8
0
100
AcDbBlockBegin
  2
*D14
 70
1
 10
0.0
 20
0.0
 30
0.0
  3
*D14
  1

  0
LINE
  5
232
330
22F
100
AcDbEntity
  8
0
100
AcDbLine
 10
0.0
 20
8988.0
 30
0.0
 11
0.0
 21
9988.0
 31
0.0
  0
LINE
  5
233
330
22F
100
AcDbEntity
  8
0
100
AcDbLine
 10
2400.0
 20
8988.0
 30
0.0
 11
2400.0
 21
9988.0
 31
0.0
  0
INSERT
  5
234
330
22F
100
AcDbEntity
  8
A-DIMS
100
AcDbBlockReference
  2
_OBLIQUE
 10
0.0
 20
9868.0
 30
0.0
 41
120.0
 42
120.0
  0
INSERT
  5
236
330
22F
100
AcDbEntity
  8
A-DIMS
100
AcDbBlockReference
  2
_OBLIQUE
 10
2400.0
 20
9868.0
 30
0.0
 41
120.0
 42
120.0
  0
LINE
  5
238
330
22F
100
AcDbEntity
  8
0
100
AcDbLine
 10
0.0
 20
9868.0
 30
0.0
 11
2400.0
 21
9868.0
 31
0.0
  0
MTEXT
  5
239
330
22F
100
AcDbEntity
  8
A-DIMS
100
AcDbMText
 10
1200.0
 20
10018.0
 30
0.0
 40
180.0
 71
5
  1
2400
  7
OpenSansCondensed-Light
  0
POINT
  5
23A
330
22F
100
AcDbEntity
  8
Defpoints
100
AcDbPoint
 10
0.0
 20
9868.0
 30
0.0
  0
POINT
  5
23B
330
22F
100
AcDbEntity
  8
Defpoints
100
AcDbPoint
 10
0.0
 20
8868.0
 30
0.0
  0
POINT
  5
23C
330
22F
100
AcDbEntity
  8
Defpoints
100
AcDbPoint
 10
2400.0
 20
8868.0
 30
0.0
  0
ENDBLK
  5
231
330
22F
100
AcDbEntity
  8
0
100
AcDbBlockEnd
  0
BLOCK
  5
23F
330
23E
100
AcDbEntity
  8
0
100
AcDbBlockBegin
  2
*D15
 70
1
 10
0.0
 20
0.0
 30
0.0
  3
*D15
  1

  0
LINE
  5
241
330
23E
100
AcDbEntity
  8
0
100
AcDbLine
 10
2400.0
 20
8988.0
 30
0.0
 11
2400.0
 21
9988.0
 31
0.0
  0
LINE
  5
242
330
23E
100
AcDbEntity
  8
0
100
AcDbLine
 10
3750.0
 20
8988.0
 30
0.0
 11
3750.0
 21
9988.0
 31
0.0
  0
INSERT
  5
243
330
23E
100
AcDbEntity
  8
A-DIMS
100
AcDbBlockReference
  2
_OBLIQUE
 10
2400.0
 20
9868.0
 30
0.0
 41
120.0
 42
120.0
  0
INSERT
  5
245
330
23E
100
AcDbEntity
  8
A-DIMS
100
AcDbBlockReference
  2
_OBLIQUE
 10
3750.0
 20
9868.0
 30
0.0
 41
120.0
 42
120.0
  0
LINE
  5
247
330
23E
100
AcDbEntity
  8
0
100
AcDbLine
 10
2400.0
 20
9868.0
 30
0.0
 11
3750.0
 21
9868.0
 31
0.0
  0
MTEXT
  5
248
330
23E
100
AcDbEntity
  8
A-DIMS
100
AcDbMText
 10
3075.0
 20
10018.0
 30
0.0
 40
180.0
 71
5
  1
1350
  7
OpenSansCondensed-Light
  0
POINT
  5
249
330
23E
100
AcDbEntity
  8
Defpoints
100
AcDbPoint
 10
2400.0
 20
9868.0
 30
0.0
  0
POINT
  5
24A
330
23E
100
AcDbEntity
  8
Defpoints
100
AcDbPoint
 10
2400.0
 20
8868.0
 30
0.0
  0
POINT
  5
24B
330
23E
100
AcDbEntity
  8
Defpoints
100
AcDbPoint
 10
3750.0
 20
8868.0
 30
0.0
  0
ENDBLK
  5
240
330
23E
100
AcDbEntity
  8
0
100
AcDbBlockEnd
  0
BLOCK
  5
24E
330
24D
100
AcDbEntity
  8
0
100
AcDbBlockBegin
  2
*D16
 70
1
 10
0.0
 20
0.0
 30
0.0
  3
*D16
  1

  0
LINE
  5
250
330
24D
100
AcDbEntity
  8
0
100
AcDbLine
 10
3750.0
 20
8988.0
 30
0.0
 11
3750.0
 21
9988.0
 31
0.0
  0
LINE
  5
251
330
24D
100
AcDbEntity
  8
0
100
AcDbLine
 10
6720.0
 20
8988.0
 30
0.0
 11
6720.0
 21
9988.0
 31
0.0
  0
INSERT
  5
252
330
24D
100
AcDbEntity
  8
A-DIMS
100
AcDbBlockReference
  2
_OBLIQUE
 10
3750.0
 20
9868.0
 30
0.0
 41
120.0
 42
120.0
  0
INSERT
  5
254
330
24D
100
AcDbEntity
  8
A-DIMS
100
AcDbBlockReference
  2
_OBLIQUE
 10
6720.0
 20
9868.0
 30
0.0
 41
120.0
 42
120.0
  0
LINE
  5
256
330
24D
100
AcDbEntity
  8
0
100
AcDbLine
 10
3750.0
 20
9868.0
 30
0.0
 11
6720.0
 21
9868.0
 31
0.0
  0
MTEXT
  5
257
330
24D
100
AcDbEntity
  8
A-DIMS
100
AcDbMText
 10
5235.0
 20
10018.0
 30
0.0
 40
180.0
 71
5
  1
2970
  7
OpenSansCondensed-Light
  0
POINT
  5
258
330
24D
100
AcDbEntity
  8
Defpoints
100
AcDbPoint
 10
3750.0
 20
9868.0
 30
0.0
  0
POINT
  5
259
330
24D
100
AcDbEntity
  8
Defpoints
100
AcDbPoint
 10
3750.0
 20
8868.0
 30
0.0
  0
POINT
  5
25A
330
24D
100
AcDbEntity
  8
Defpoints
100
AcDbPoint
 10
6720.0
 20
8868.0
 30
0.0
  0
ENDBLK
  5
24F
330
24D
100
AcDbEntity
  8
0
100
AcDbBlockEnd
  0
BLOCK
  5
25D
330
25C
100
AcDbEntity
  8
0
100
AcDbBlockBegin
  2
*D17
 70
1
 10
0.0
 20
0.0
 30
0.0
  3
*D17
  1

  0
LINE
  5
25F
330
25C
100
AcDbEntity
  8
0
100
AcDbLine
 10
0.0
 20
8988.0
 30
0.0
 11
0.0
 21
10438.0
 31
0.0
  0
LINE
  5
260
330
25C
100
AcDbEntity
  8
0
100
AcDbLine
 10
6720.0
 20
8988.0
 30
0.0
 11
6720.0
 21
10438.0
 31
0.0
  0
INSERT
  5
261
330
25C
100
AcDbEntity
  8
A-DIMS
100
AcDbBlockReference
  2
_OBLIQUE
 10
0.0
 20
10318.0
 30
0.0
 41
120.0
 42
120.0
  0
INSERT
  5
263
330
25C
100
AcDbEntity
  8
A-DIMS
100
AcDbBlockReference
  2
_OBLIQUE
 10
6720.0
 20
10318.0
 30
0.0
 41
120.0
 42
120.0
  0
LINE
  5
265
330
25C
100
AcDbEntity
  8
0
100
AcDbLine
 10
0.0
 20
10318.0
 30
0.0
 11
6720.0
 21
10318.0
 31
0.0
  0
MTEXT
  5
266
330
25C
100
AcDbEntity
  8
A-DIMS
100
AcDbMText
 10
3360.0
 20
10468.0
 30
0.0
 40
180.0
 71
5
  1
6720
  7
OpenSansCondensed-Light
  0
POINT
  5
267
330
25C
100
AcDbEntity
  8
Defpoints
100
AcDbPoint
 10
0.0
 20
10318.0
 30
0.0
  0
POINT
  5
268
330
25C
100
AcDbEntity
  8
Defpoints
100
AcDbPoint
 10
0.0
 20
8868.0
 30
0.0
  0
POINT
  5
269
330
25C
100
AcDbEntity
  8
Defpoints
100
AcDbPoint
 10
6720.0
 20
8868.0
 30
0.0
  0
ENDBLK
  5
25E
330
25C
100
AcDbEntity
  8
0
100
AcDbBlockEnd
  0
BLOCK
  5
26C
330
26B
100
AcDbEntity
  8
0
100
AcDbBlockBegin
  2
*D18
 70
1
 10
0.0
 20
0.0
 30
0.0
  3
*D18
  1

  0
LINE
  5
26E
330
26B
100
AcDbEntity
  8
0
100
AcDbLine
 10
-120.0
 20
0.0
 30
0.0
 11
-670.0
 21
0.0
 31
0.0
  0
LINE
  5
26F
330
26B
100
AcDbEntity
  8
0
100
AcDbLine
 10
-120.0
 20
675.0
 30
0.0
 11
-670.0
 21
675.0
 31
0.0
  0
INSERT
  5
270
330
26B
100
AcDbEntity
  8
A-DIMS
100
AcDbBlockReference
  2
_OBLIQUE
 10
-550.0
 20
0.0
 30
0.0
 41
120.0
 42
120.0
 50
90.0
  0
INSERT
  5
272
330
26B
100
AcDbEntity
  8
A-DIMS
100
AcDbBlockReference
  2
_OBLIQUE
 10
-550.0
 20
675.0
 30
0.0
 41
120.0
 42
120.0
 50
90.0
  0
LINE
  5
274
330
26B
100
AcDbEntity
  8
0
100
AcDbLine
 10
-550.0
 20
0.0
 30
0.0
 11
-550.0
 21
675.0
 31
0.0
  0
MTEXT
  5
275
330
26B
100
AcDbEntity
  8
A-DIMS
100
AcDbMText
 10
-700.0
 20
337.5
 30
0.0
 40
180.0
 71
5
  1
675
  7
OpenSansCondensed-Light
 50
90.0
  0
POINT
  5
276
330
26B
100
AcDbEntity
  8
Defpoints
100
AcDbPoint
 10
-550.0
 20
0.0
 30
0.0
  0
POINT
  5
277
330
26B
100
AcDbEntity
  8
Defpoints
100
AcDbPoint
 10
0.0
 20
0.0
 30
0.0
  0
POINT
  5
278
330
26B
100
AcDbEntity
  8
Defpoints
100
AcDbPoint
 10
0.0
 20
675.0
 30
0.0
  0
ENDBLK
  5
26D
330
26B
100
AcDbEntity
  8
0
100
AcDbBlockEnd
  0
BLOCK
  5
27B
330
27A
100
AcDbEntity
  8
0
100
AcDbBlockBegin
  2
*D19
 70
1
 10
0.0
 20
0.0
 30
0.0
  3
*D19
  1

  0
LINE
  5
27D
330
27A
100
AcDbEntity
  8
0
100
AcDbLine
 10
-120.0
 20
675.0
 30
0.0
 11
-670.0
 21
675.0
 31
0.0
  0
LINE
  5
27E
330
27A
100
AcDbEntity
  8
0
100
AcDbLine
 10
-120.0
 20
2775.0
 30
0.0
 11
-670.0
 21
2775.0
 31
0.0
  0
INSERT
  5
27F
330
27A
100
AcDbEntity
  8
A-DIMS
100
AcDbBlockReference
  2
_OBLIQUE
 10
-550.0
 20
675.0
 30
0.0
 41
120.0
 42
120.0
 50
90.0
  0
INSERT
  5
281
330
27A
100
AcDbEntity
  8
A-DIMS
100
AcDbBlockReference
  2
_OBLIQUE
 10
-550.0
 20
2775.0
 30
0.0
 41
120.0
 42
120.0
 50
90.0
  0
LINE
  5
283
330
27A
100
AcDbEntity
  8
0
100
AcDbLine
 10
-550.0
 20
675.0
 30
0.0
 11
-550.0
 21
2775.0
 31
0.0
  0
MTEXT
  5
284
330
27A
100
AcDbEntity
  8
A-DIMS
100
AcDbMText
 10
-700.0
 20
1725.0
 30
0.0
 40
180.0
 71
5
  1
2100
  7
OpenSansCondensed-Light
 50
90.0
  0
POINT
  5
285
330
27A
100
AcDbEntity
  8
Defpoints
100
AcDbPoint
 10
-550.0
 20
675.0
 30
0.0
  0
POINT
  5
286
330
27A
100
AcDbEntity
  8
Defpoints
100
AcDbPoint
 10
0.0
 20
675.0
 30
0.0
  0
POINT
  5
287
330
27A
100
AcDbEntity
  8
Defpoints
100
AcDbPoint
 10
0.0
 20
2775.0
 30
0.0
  0
ENDBLK
  5
27C
330
27A
100
AcDbEntity
  8
0
100
AcDbBlockEnd
  0
BLOCK
  5
28A
330
289
100
AcDbEntity
  8
0
100
AcDbBlockBegin
  2
*D20
 70
1
 10
0.0
 20
0.0
 30
0.0
  3
*D20
  1

  0
LINE
  5
28C
330
289
100
AcDbEntity
  8
0
100
AcDbLine
 10
-120.0
 20
2775.0
 30
0.0
 11
-670.0
 21
2775.0
 31
0.0
  0
LINE
  5
28D
330
289
100
AcDbEntity
  8
0
100
AcDbLine
 10
-120.0
 20
4359.0
 30
0.0
 11
-670.0
 21
4359.0
 31
0.0
  0
INSERT
  5
28E
330
289
100
AcDbEntity
  8
A-DIMS
100
AcDbBlockReference
  2
_OBLIQUE
 10
-550.0
 20
2775.0
 30
0.0
 41
120.0
 42
120.0
 50
90.0
  0
INSERT
  5
290
330
289
100
AcDbEntity
  8
A-DIMS
100
AcDbBlockReference
  2
_OBLIQUE
 10
-550.0
 20
4359.0
 30
0.0
 41
120.0
 42
120.0
 50
90.0
  0
LINE
  5
292
330
289
100
AcDbEntity
  8
0
100
AcDbLine
 10
-550.0
 20
2775.0
 30
0.0
 11
-550.0
 21
4359.0
 31
0.0
  0
MTEXT
  5
293
330
289
100
AcDbEntity
  8
A-DIMS
100
AcDbMText
 10
-700.0
 20
3567.0
 30
0.0
 40
180.0
 71
5
  1
1584
  7
OpenSansCondensed-Light
 50
90.0
  0
POINT
  5
294
330
289
100
AcDbEntity
  8
Defpoints
100
AcDbPoint
 10
-550.0
 20
2775.0
 30
0.0
  0
POINT
  5
295
330
289
100
AcDbEntity
  8
Defpoints
100
AcDbPoint
 10
0.0
 20
2775.0
 30
0.0
  0
POINT
  5
296
330
289
100
AcDbEntity
  8
Defpoints
100
AcDbPoint
 10
0.0
 20
4359.0
 30
0.0
  0
ENDBLK
  5
28B
330
289
100
AcDbEntity
  8
0
100
AcDbBlockEnd
  0
BLOCK
  5
299
330
298
100
AcDbEntity
  8
0
100
AcDbBlockBegin
  2
*D21
 70
1
 10
0.0
 20
0.0
 30
0.0
  3
*D21
  1

  0
LINE
  5
29B
330
298
100
AcDbEntity
  8
0
100
AcDbLine
 10
-120.0
 20
4359.0
 30
0.0
 11
-670.0
 21
4359.0
 31
0.0
  0
LINE
  5
29C
330
298
100
AcDbEntity
  8
0
100
AcDbLine
 10
-120.0
 20
6459.0
 30
0.0
 11
-670.0
 21
6459.0
 31
0.0
  0
INSERT
  5
29D
330
298
100
AcDbEntity
  8
A-DIMS
100
AcDbBlockReference
  2
_OBLIQUE
 10
-550.0
 20
4359.0
 30
0.0
 41
120.0
 42
120.0
 50
90.0
  0
INSERT
  5
29F
330
298
100
AcDbEntity
  8
A-DIMS
100
AcDbBlockReference
  2
_OBLIQUE
 10
-550.0
 20
6459.0
 30
0.0
 41
120.0
 42
120.0
 50
90.0
  0
LINE
  5
2A1
330
298
100
AcDbEntity
  8
0
100
AcDbLine
 10
-550.0
 20
4359.0
 30
0.0
 11
-550.0
 21
6459.0
 31
0.0
  0
MTEXT
  5
2A2
330
298
100
AcDbEntity
  8
A-DIMS
100
AcDbMText
 10
-700.0
 20
5409.0
 30
0.0
 40
180.0
 71
5
  1
2100
  7
OpenSansCondensed-Light
 50
90.0
  0
POINT
  5
2A3
330
298
100
AcDbEntity
  8
Defpoints
100
AcDbPoint
 10
-550.0
 20
4359.0
 30
0.0
  0
POINT
  5
2A4
330
298
100
AcDbEntity
  8
Defpoints
100
AcDbPoint
 10
0.0
 20
4359.0
 30
0.0
  0
POINT
  5
2A5
330
298
100
AcDbEntity
  8
Defpoints
100
AcDbPoint
 10
0.0
 20
6459.0
 30
0.0
  0
ENDBLK
  5
29A
330
298
100
AcDbEntity
  8
0
100
AcDbBlockEnd
  0
BLOCK
  5
2A8
330
2A7
100
AcDbEntity
  8
0
100
AcDbBlockBegin
  2
*D22
 70
1
 10
0.0
 20
0.0
 30
0.0
  3
*D22
  1

  0
LINE
  5
2AA
330
2A7
100
AcDbEntity
  8
0
100
AcDbLine
 10
-120.0
 20
6459.0
 30
0.0
 11
-670.0
 21
6459.0
 31
0.0
  0
LINE
  5
2AB
330
2A7
100
AcDbEntity
  8
0
100
AcDbLine
 10
-120.0
 20
7668.0
 30
0.0
 11
-670.0
 21
7668.0
 31
0.0
  0
INSERT
  5
2AC
330
2A7
100
AcDbEntity
  8
A-DIMS
100
AcDbBlockReference
  2
_OBLIQUE
 10
-550.0
 20
6459.0
 30
0.0
 41
120.0
 42
120.0
 50
90.0
  0
INSERT
  5
2AE
330
2A7
100
AcDbEntity
  8
A-DIMS
100
AcDbBlockReference
  2
_OBLIQUE
 10
-550.0
 20
7668.0
 30
0.0
 41
120.0
 42
120.0
 50
90.0
  0
LINE
  5
2B0
330
2A7
100
AcDbEntity
  8
0
100
AcDbLine
 10
-550.0
 20
6459.0
 30
0.0
 11
-550.0
 21
7668.0
 31
0.0
  0
MTEXT
  5
2B1
330
2A7
100
AcDbEntity
  8
A-DIMS
100
AcDbMText
 10
-700.0
 20
7063.5
 30
0.0
 40
180.0
 71
5
  1
1209
  7
OpenSansCondensed-Light
 50
90.0
  0
POINT
  5
2B2
330
2A7
100
AcDbEntity
  8
Defpoints
100
AcDbPoint
 10
-550.0
 20
6459.0
 30
0.0
  0
POINT
  5
2B3
330
2A7
100
AcDbEntity
  8
Defpoints
100
AcDbPoint
 10
0.0
 20
6459.0
 30
0.0
  0
POINT
  5
2B4
330
2A7
100
AcDbEntity
  8
Defpoints
100
AcDbPoint
 10
0.0
 20
7668.0
 30
0.0
  0
ENDBLK
  5
2A9
330
2A7
100
AcDbEntity
  8
0
100
AcDbBlockEnd
  0
BLOCK
  5
2B7
330
2B6
100
AcDbEntity
  8
0
100
AcDbBlockBegin
  2
*D23
 70
1
 10
0.0
 20
0.0
 30
0.0
  3
*D23
  1

  0
LINE
  5
2B9
330
2B6
100
AcDbEntity
  8
0
100
AcDbLine
 10
-120.0
 20
7668.0
 30
0.0
 11
-670.0
 21
7668.0
 31
0.0
  0
LINE
  5
2BA
330
2B6
100
AcDbEntity
  8
0
100
AcDbLine
 10
-120.0
 20
8568.0
 30
0.0
 11
-670.0
 21
8568.0
 31
0.0
  0
INSERT
  5
2BB
330
2B6
100
AcDbEntity
  8
A-DIMS
100
AcDbBlockReference
  2
_OBLIQUE
 10
-550.0
 20
7668.0
 30
0.0
 41
120.0
 42
120.0
 50
90.0
  0
INSERT
  5
2BD
330
2B6
100
AcDbEntity
  8
A-DIMS
100
AcDbBlockReference
  2
_OBLIQUE
 10
-550.0
 20
8568.0
 30
0.0
 41
120.0
 42
120.0
 50
90.0
  0
LINE
  5
2BF
330
2B6
100
AcDbEntity
  8
0
100
AcDbLine
 10
-550.0
 20
7668.0
 30
0.0
 11
-550.0
 21
8568.0
 31
0.0
  0
MTEXT
  5
2C0
330
2B6
100
AcDbEntity
  8
A-DIMS
100
AcDbMText
 10
-700.0
 20
8118.0
 30
0.0
 40
180.0
 71
5
  1
900
  7
OpenSansCondensed-Light
 50
90.0
  0
POINT
  5
2C1
330
2B6
100
AcDbEntity
  8
Defpoints
100
AcDbPoint
 10
-550.0
 20
7668.0
 30
0.0
  0
POINT
  5
2C2
330
2B6
100
AcDbEntity
  8
Defpoints
100
AcDbPoint
 10
0.0
 20
7668.0
 30
0.0
  0
POINT
  5
2C3
330
2B6
100
AcDbEntity
  8
Defpoints
100
AcDbPoint
 10
0.0
 20
8568.0
 30
0.0
  0
ENDBLK
  5
2B8
330
2B6
100
AcDbEntity
  8
0
100
AcDbBlockEnd
  0
BLOCK
  5
2C6
330
2C5
100
AcDbEntity
  8
0
100
AcDbBlockBegin
  2
*D24
 70
1
 10
0.0
 20
0.0
 30
0.0
  3
*D24
  1

  0
LINE
  5
2C8
330
2C5
100
AcDbEntity
  8
0
100
AcDbLine
 10
-120.0
 20
8568.0
 30
0.0
 11
-670.0
 21
8568.0
 31
0.0
  0
LINE
  5
2C9
330
2C5
100
AcDbEntity
  8
0
100
AcDbLine
 10
-120.0
 20
8868.0
 30
0.0
 11
-670.0
 21
8868.0
 31
0.0
  0
INSERT
  5
2CA
330
2C5
100
AcDbEntity
  8
A-DIMS
100
AcDbBlockReference
  2
_OBLIQUE
 10
-550.0
 20
8568.0
 30
0.0
 41
120.0
 42
120.0
 50
90.0
  0
INSERT
  5
2CC
330
2C5
100
AcDbEntity
  8
A-DIMS
100
AcDbBlockReference
  2
_OBLIQUE
 10
-550.0
 20
8868.0
 30
0.0
 41
120.0
 42
120.0
 50
90.0
  0
LINE
  5
2CE
330
2C5
100
AcDbEntity
  8
0
100
AcDbLine
 10
-550.0
 20
8568.0
 30
0.0
 11
-550.0
 21
8868.0
 31
0.0
  0
MTEXT
  5
2CF
330
2C5
100
AcDbEntity
  8
A-DIMS
100
AcDbMText
 10
-820.0
 20
8718.0
 30
0.0
 40
180.0
 71
5
  1
300
  7
OpenSansCondensed-Light
 50
90.0
  0
POINT
  5
2D0
330
2C5
100
AcDbEntity
  8
Defpoints
100
AcDbPoint
 10
-550.0
 20
8568.0
 30
0.0
  0
POINT
  5
2D1
330
2C5
100
AcDbEntity
  8
Defpoints
100
AcDbPoint
 10
0.0
 20
8568.0
 30
0.0
  0
POINT
  5
2D2
330
2C5
100
AcDbEntity
  8
Defpoints
100
AcDbPoint
 10
0.0
 20
8868.0
 30
0.0
  0
ENDBLK
  5
2C7
330
2C5
100
AcDbEntity
  8
0
100
AcDbBlockEnd
  0
BLOCK
  5
2D5
330
2D4
100
AcDbEntity
  8
0
100
AcDbBlockBegin
  2
*D25
 70
1
 10
0.0
 20
0.0
 30
0.0
  3
*D25
  1

  0
LINE
  5
2D7
330
2D4
100
AcDbEntity
  8
0
100
AcDbLine
 10
-120.0
 20
0.0
 30
0.0
 11
-1120.0
 21
0.0
 31
0.0
  0
LINE
  5
2D8
330
2D4
100
AcDbEntity
  8
0
100
AcDbLine
 10
-120.0
 20
3450.0
 30
0.0
 11
-1120.0
 21
3450.0
 31
0.0
  0
INSERT
  5
2D9
330
2D4
100
AcDbEntity
  8
A-DIMS
100
AcDbBlockReference
  2
_OBLIQUE
 10
-1000.0
 20
0.0
 30
0.0
 41
120.0
 42
120.0
 50
90.0
  0
INSERT
  5
2DB
330
2D4
100
AcDbEntity
  8
A-DIMS
100
AcDbBlockReference
  2
_OBLIQUE
 10
-1000.0
 20
3450.0
 30
0.0
 41
120.0
 42
120.0
 50
90.0
  0
LINE
  5
2DD
330
2D4
100
AcDbEntity
  8
0
100
AcDbLine
 10
-1000.0
 20
0.0
 30
0.0
 11
-1000.0
 21
3450.0
 31
0.0
  0
MTEXT
  5
2DE
330
2D4
100
AcDbEntity
  8
A-DIMS
100
AcDbMText
 10
-1150.0
 20
1725.0
 30
0.0
 40
180.0
 71
5
  1
3450
  7
OpenSansCondensed-Light
 50
90.0
  0
POINT
  5
2DF
330
2D4
100
AcDbEntity
  8
Defpoints
100
AcDbPoint
 10
-1000.0
 20
0.0
 30
0.0
  0
POINT
  5
2E0
330
2D4
100
AcDbEntity
  8
Defpoints
100
AcDbPoint
 10
0.0
 20
0.0
 30
0.0
  0
POINT
  5
2E1
330
2D4
100
AcDbEntity
  8
Defpoints
100
AcDbPoint
 10
0.0
 20
3450.0
 30
0.0
  0
ENDBLK
  5
2D6
330
2D4
100
AcDbEntity
  8
0
100
AcDbBlockEnd
  0
BLOCK
  5
2E4
330
2E3
100
AcDbEntity
  8
0
100
AcDbBlockBegin
  2
*D26
 70
1
 10
0.0
 20
0.0
 30
0.0
  3
*D26
  1

  0
LINE
  5
2E6
330
2E3
100
AcDbEntity
  8
0
100
AcDbLine
 10
-120.0
 20
3450.0
 30
0.0
 11
-1120.0
 21
3450.0
 31
0.0
  0
LINE
  5
2E7
330
2E3
100
AcDbEntity
  8
0
100
AcDbLine
 10
-120.0
 20
7368.0
 30
0.0
 11
-1120.0
 21
7368.0
 31
0.0
  0
INSERT
  5
2E8
330
2E3
100
AcDbEntity
  8
A-DIMS
100
AcDbBlockReference
  2
_OBLIQUE
 10
-1000.0
 20
3450.0
 30
0.0
 41
120.0
 42
120.0
 50
90.0
  0
INSERT
  5
2EA
330
2E3
100
AcDbEntity
  8
A-DIMS
100
AcDbBlockReference
  2
_OBLIQUE
 10
-1000.0
 20
7368.0
 30
0.0
 41
120.0
 42
120.0
 50
90.0
  0
LINE
  5
2EC
330
2E3
100
AcDbEntity
  8
0
100
AcDbLine
 10
-1000.0
 20
3450.0
 30
0.0
 11
-1000.0
 21
7368.0
 31
0.0
  0
MTEXT
  5
2ED
330
2E3
100
AcDbEntity
  8
A-DIMS
100
AcDbMText
 10
-1150.0
 20
5409.0
 30
0.0
 40
180.0
 71
5
  1
3918
  7
OpenSansCondensed-Light
 50
90.0
  0
POINT
  5
2EE
330
2E3
100
AcDbEntity
  8
Defpoints
100
AcDbPoint
 10
-1000.0
 20
3450.0
 30
0.0
  0
POINT
  5
2EF
330
2E3
100
AcDbEntity
  8
Defpoints
100
AcDbPoint
 10
0.0
 20
3450.0
 30
0.0
  0
POINT
  5
2F0
330
2E3
100
AcDbEntity
  8
Defpoints
100
AcDbPoint
 10
0.0
 20
7368.0
 30
0.0
  0
ENDBLK
  5
2E5
330
2E3
100
AcDbEntity
  8
0
100
AcDbBlockEnd
  0
BLOCK
  5
2F3
330
2F2
100
AcDbEntity
  8
0
100
AcDbBlockBegin
  2
*D27
 70
1
 10
0.0
 20
0.0
 30
0.0
  3
*D27
  1

  0
LINE
  5
2F5
330
2F2
100
AcDbEntity
  8
0
100
AcDbLine
 10
-120.0
 20
7368.0
 30
0.0
 11
-1120.0
 21
7368.0
 31
0.0
  0
LINE
  5
2F6
330
2F2
100
AcDbEntity
  8
0
100
AcDbLine
 10
-120.0
 20
8868.0
 30
0.0
 11
-1120.0
 21
8868.0
 31
0.0
  0
INSERT
  5
2F7
330
2F2
100
AcDbEntity
  8
A-DIMS
100
AcDbBlockReference
  2
_OBLIQUE
 10
-1000.0
 20
7368.0
 30
0.0
 41
120.0
 42
120.0
 50
90.0
  0
INSERT
  5
2F9
330
2F2
100
AcDbEntity
  8
A-DIMS
100
AcDbBlockReference
  2
_OBLIQUE
 10
-1000.0
 20
8868.0
 30
0.0
 41
120.0
 42
120.0
 50
90.0
  0
LINE
  5
2FB
330
2F2
100
AcDbEntity
  8
0
100
AcDbLine
 10
-1000.0
 20
7368.0
 30
0.0
 11
-1000.0
 21
8868.0
 31
0.0
  0
MTEXT
  5
2FC
330
2F2
100
AcDbEntity
  8
A-DIMS
100
AcDbMText
 10
-1150.0
 20
8118.0
 30
0.0
 40
180.0
 71
5
  1
1500
  7
OpenSansCondensed-Light
 50
90.0
  0
POINT
  5
2FD
330
2F2
100
AcDbEntity
  8
Defpoints
100
AcDbPoint
 10
-1000.0
 20
7368.0
 30
0.0
  0
POINT
  5
2FE
330
2F2
100
AcDbEntity
  8
Defpoints
100
AcDbPoint
 10
0.0
 20
7368.0
 30
0.0
  0
POINT
  5
2FF
330
2F2
100
AcDbEntity
  8
Defpoints
100
AcDbPoint
 10
0.0
 20
8868.0
 30
0.0
  0
ENDBLK
  5
2F4
330
2F2
100
AcDbEntity
  8
0
100
AcDbBlockEnd
  0
BLOCK
  5
302
330
301
100
AcDbEntity
  8
0
100
AcDbBlockBegin
  2
*D28
 70
1
 10
0.0
 20
0.0
 30
0.0
  3
*D28
  1

  0
LINE
  5
304
330
301
100
AcDbEntity
  8
0
100
AcDbLine
 10
-119.99999999999999
 20
0.0
 30
0.0
 11
-1570.0
 21
0.0
 31
0.0
  0
LINE
  5
305
330
301
100
AcDbEntity
  8
0
100
AcDbLine
 10
-119.99999999999999
 20
8868.0
 30
0.0
 11
-1570.0
 21
8868.0
 31
0.0
  0
INSERT
  5
306
330
301
100
AcDbEntity
  8
A-DIMS
100
AcDbBlockReference
  2
_OBLIQUE
 10
-1450.0
 20
0.0
 30
0.0
 41
120.0
 42
120.0
 50
90.0
  0
INSERT
  5
308
330
301
100
AcDbEntity
  8
A-DIMS
100
AcDbBlockReference
  2
_OBLIQUE
 10
-1450.0
 20
8868.0
 30
0.0
 41
120.0
 42
120.0
 50
90.0
  0
LINE
  5
30A
330
301
100
AcDbEntity
  8
0
100
AcDbLine
 10
-1450.0
 20
0.0
 30
0.0
 11
-1450.0
 21
8868.0
 31
0.0
  0
MTEXT
  5
30B
330
301
100
AcDbEntity
  8
A-DIMS
100
AcDbMText
 10
-1600.0
 20
4434.0
 30
0.0
 40
180.0
 71
5
  1
8868
  7
OpenSansCondensed-Light
 50
90.0
  0
POINT
  5
30C
330
301
100
AcDbEntity
  8
Defpoints
100
AcDbPoint
 10
-1450.0
 20
0.0
 30
0.0
  0
POINT
  5
30D
330
301
100
AcDbEntity
  8
Defpoints
100
AcDbPoint
 10
0.0
 20
0.0
 30
0.0
  0
POINT
  5
30E
330
301
100
AcDbEntity
  8
Defpoints
100
AcDbPoint
 10
0.0
 20
8868.0
 30
0.0
  0
ENDBLK
  5
303
330
301
100
AcDbEntity
  8
0
100
AcDbBlockEnd
  0
BLOCK
  5
311
330
310
100
AcDbEntity
  8
0
100
AcDbBlockBegin
  2
*D29
 70
1
 10
0.0
 20
0.0
 30
0.0
  3
*D29
  1

  0
LINE
  5
313
330
310
100
AcDbEntity
  8
0
100
AcDbLine
 10
6840.0
 20
0.0
 30
0.0
 11
7390.0
 21
0.0
 31
0.0
  0
LINE
  5
314
330
310
100
AcDbEntity
  8
0
100
AcDbLine
 10
6840.0
 20
675.0
 30
0.0
 11
7390.0
 21
675.0
 31
0.0
  0
INSERT
  5
315
330
310
100
AcDbEntity
  8
A-DIMS
100
AcDbBlockReference
  2
_OBLIQUE
 10
7270.0
 20
0.0
 30
0.0
 41
120.0
 42
120.0
 50
90.0
  0
INSERT
  5
317
330
310
100
AcDbEntity
  8
A-DIMS
100
AcDbBlockReference
  2
_OBLIQUE
 10
7270.0
 20
675.0
 30
0.0
 41
120.0
 42
120.0
 50
90.0
  0
LINE
  5
319
330
310
100
AcDbEntity
  8
0
100
AcDbLine
 10
7270.0
 20
0.0
 30
0.0
 11
7270.0
 21
675.0
 31
0.0
  0
MTEXT
  5
31A
330
310
100
AcDbEntity
  8
A-DIMS
100
AcDbMText
 10
7120.0
 20
337.5
 30
0.0
 40
180.0
 71
5
  1
675
  7
OpenSansCondensed-Light
 50
90.0
  0
POINT
  5
31B
330
310
100
AcDbEntity
  8
Defpoints
100
AcDbPoint
 10
7270.0
 20
0.0
 30
0.0
  0
POINT
  5
31C
330
310
100
AcDbEntity
  8
Defpoints
100
AcDbPoint
 10
6720.0
 20
0.0
 30
0.0
  0
POINT
  5
31D
330
310
100
AcDbEntity
  8
Defpoints
100
AcDbPoint
 10
6720.0
 20
675.0
 30
0.0
  0
ENDBLK
  5
312
330
310
100
AcDbEntity
  8
0
100
AcDbBlockEnd
  0
BLOCK
  5
320
330
31F
100
AcDbEntity
  8
0
100
AcDbBlockBegin
  2
*D30
 70
1
 10
0.0
 20
0.0
 30
0.0
  3
*D30
  1

  0
LINE
  5
322
330
31F
100
AcDbEntity
  8
0
100
AcDbLine
 10
6840.0
 20
675.0
 30
0.0
 11
7390.0
 21
675.0
 31
0.0
  0
LINE
  5
323
330
31F
100
AcDbEntity
  8
0
100
AcDbLine
 10
6840.0
 20
2775.0
 30
0.0
 11
7390.0
 21
2775.0
 31
0.0
  0
INSERT
  5
324
330
31F
100
AcDbEntity
  8
A-DIMS
100
AcDbBlockReference
  2
_OBLIQUE
 10
7270.0
 20
675.0
 30
0.0
 41
120.0
 42
120.0
 50
90.0
  0
INSERT
  5
326
330
31F
100
AcDbEntity
  8
A-DIMS
100
AcDbBlockReference
  2
_OBLIQUE
 10
7270.0
 20
2775.0
 30
0.0
 41
120.0
 42
120.0
 50
90.0
  0
LINE
  5
328
330
31F
100
AcDbEntity
  8
0
100
AcDbLine
 10
7270.0
 20
675.0
 30
0.0
 11
7270.0
 21
2775.0
 31
0.0
  0
MTEXT
  5
329
330
31F
100
AcDbEntity
  8
A-DIMS
100
AcDbMText
 10
7120.0
 20
1725.0
 30
0.0
 40
180.0
 71
5
  1
2100
  7
OpenSansCondensed-Light
 50
90.0
  0
POINT
  5
32A
330
31F
100
AcDbEntity
  8
Defpoints
100
AcDbPoint
 10
7270.0
 20
675.0
 30
0.0
  0
POINT
  5
32B
330
31F
100
AcDbEntity
  8
Defpoints
100
AcDbPoint
 10
6720.0
 20
675.0
 30
0.0
  0
POINT
  5
32C
330
31F
100
AcDbEntity
  8
Defpoints
100
AcDbPoint
 10
6720.0
 20
2775.0
 30
0.0
  0
ENDBLK
  5
321
330
31F
100
AcDbEntity
  8
0
100
AcDbBlockEnd
  0
BLOCK
  5
32F
330
32E
100
AcDbEntity
  8
0
100
AcDbBlockBegin
  2
*D31
 70
1
 10
0.0
 20
0.0
 30
0.0
  3
*D31
  1

  0
LINE
  5
331
330
32E
100
AcDbEntity
  8
0
100
AcDbLine
 10
6840.0
 20
2775.0
 30
0.0
 11
7390.0
 21
2775.0
 31
0.0
  0
LINE
  5
332
330
32E
100
AcDbEntity
  8
0
100
AcDbLine
 10
6840.0
 20
3825.0
 30
0.0
 11
7390.0
 21
3825.0
 31
0.0
  0
INSERT
  5
333
330
32E
100
AcDbEntity
  8
A-DIMS
100
AcDbBlockReference
  2
_OBLIQUE
 10
7270.0
 20
2775.0
 30
0.0
 41
120.0
 42
120.0
 50
90.0
  0
INSERT
  5
335
330
32E
100
AcDbEntity
  8
A-DIMS
100
AcDbBlockReference
  2
_OBLIQUE
 10
7270.0
 20
3825.0
 30
0.0
 41
120.0
 42
120.0
 50
90.0
  0
LINE
  5
337
330
32E
100
AcDbEntity
  8
0
100
AcDbLine
 10
7270.0
 20
2775.0
 30
0.0
 11
7270.0
 21
3825.0
 31
0.0
  0
MTEXT
  5
338
330
32E
100
AcDbEntity
  8
A-DIMS
100
AcDbMText
 10
7120.0
 20
3300.0
 30
0.0
 40
180.0
 71
5
  1
1050
  7
OpenSansCondensed-Light
 50
90.0
  0
POINT
  5
339
330
32E
100
AcDbEntity
  8
Defpoints
100
AcDbPoint
 10
7270.0
 20
2775.0
 30
0.0
  0
POINT
  5
33A
330
32E
100
AcDbEntity
  8
Defpoints
100
AcDbPoint
 10
6720.0
 20
2775.0
 30
0.0
  0
POINT
  5
33B
330
32E
100
AcDbEntity
  8
Defpoints
100
AcDbPoint
 10
6720.0
 20
3825.0
 30
0.0
  0
ENDBLK
  5
330
330
32E
100
AcDbEntity
  8
0
100
AcDbBlockEnd
  0
BLOCK
  5
33E
330
33D
100
AcDbEntity
  8
0
100
AcDbBlockBegin
  2
*D32
 70
1
 10
0.0
 20
0.0
 30
0.0
  3
*D32
  1

  0
LINE
  5
340
330
33D
100
AcDbEntity
  8
0
100
AcDbLine
 10
6840.0
 20
3825.0
 30
0.0
 11
7390.0
 21
3825.0
 31
0.0
  0
LINE
  5
341
330
33D
100
AcDbEntity
  8
0
100
AcDbLine
 10
6840.0
 20
4575.0
 30
0.0
 11
7390.0
 21
4575.0
 31
0.0
  0
INSERT
  5
342
330
33D
100
AcDbEntity
  8
A-DIMS
100
AcDbBlockReference
  2
_OBLIQUE
 10
7270.0
 20
3825.0
 30
0.0
 41
120.0
 42
120.0
 50
90.0
  0
INSERT
  5
344
330
33D
100
AcDbEntity
  8
A-DIMS
100
AcDbBlockReference
  2
_OBLIQUE
 10
7270.0
 20
4575.0
 30
0.0
 41
120.0
 42
120.0
 50
90.0
  0
LINE
  5
346
330
33D
100
AcDbEntity
  8
0
100
AcDbLine
 10
7270.0
 20
3825.0
 30
0.0
 11
7270.0
 21
4575.0
 31
0.0
  0
MTEXT
  5
347
330
33D
100
AcDbEntity
  8
A-DIMS
100
AcDbMText
 10
7120.0
 20
4200.0
 30
0.0
 40
180.0
 71
5
  1
750
  7
OpenSansCondensed-Light
 50
90.0
  0
POINT
  5
348
330
33D
100
AcDbEntity
  8
Defpoints
100
AcDbPoint
 10
7270.0
 20
3825.0
 30
0.0
  0
POINT
  5
349
330
33D
100
AcDbEntity
  8
Defpoints
100
AcDbPoint
 10
6720.0
 20
3825.0
 30
0.0
  0
POINT
  5
34A
330
33D
100
AcDbEntity
  8
Defpoints
100
AcDbPoint
 10
6720.0
 20
4575.0
 30
0.0
  0
ENDBLK
  5
33F
330
33D
100
AcDbEntity
  8
0
100
AcDbBlockEnd
  0
BLOCK
  5
34D
330
34C
100
AcDbEntity
  8
0
100
AcDbBlockBegin
  2
*D33
 70
1
 10
0.0
 20
0.0
 30
0.0
  3
*D33
  1

  0
LINE
  5
34F
330
34C
100
AcDbEntity
  8
0
100
AcDbLine
 10
6840.0
 20
4575.0
 30
0.0
 11
7390.0
 21
4575.0
 31
0.0
  0
LINE
  5
350
330
34C
100
AcDbEntity
  8
0
100
AcDbLine
 10
6840.0
 20
5859.0
 30
0.0
 11
7390.0
 21
5859.0
 31
0.0
  0
INSERT
  5
351
330
34C
100
AcDbEntity
  8
A-DIMS
100
AcDbBlockReference
  2
_OBLIQUE
 10
7270.0
 20
4575.0
 30
0.0
 41
120.0
 42
120.0
 50
90.0
  0
INSERT
  5
353
330
34C
100
AcDbEntity
  8
A-DIMS
100
AcDbBlockReference
  2
_OBLIQUE
 10
7270.0
 20
5859.0
 30
0.0
 41
120.0
 42
120.0
 50
90.0
  0
LINE
  5
355
330
34C
100
AcDbEntity
  8
0
100
AcDbLine
 10
7270.0
 20
4575.0
 30
0.0
 11
7270.0
 21
5859.0
 31
0.0
  0
MTEXT
  5
356
330
34C
100
AcDbEntity
  8
A-DIMS
100
AcDbMText
 10
7120.0
 20
5217.0
 30
0.0
 40
180.0
 71
5
  1
1284
  7
OpenSansCondensed-Light
 50
90.0
  0
POINT
  5
357
330
34C
100
AcDbEntity
  8
Defpoints
100
AcDbPoint
 10
7270.0
 20
4575.0
 30
0.0
  0
POINT
  5
358
330
34C
100
AcDbEntity
  8
Defpoints
100
AcDbPoint
 10
6720.0
 20
4575.0
 30
0.0
  0
POINT
  5
359
330
34C
100
AcDbEntity
  8
Defpoints
100
AcDbPoint
 10
6720.0
 20
5859.0
 30
0.0
  0
ENDBLK
  5
34E
330
34C
100
AcDbEntity
  8
0
100
AcDbBlockEnd
  0
BLOCK
  5
35C
330
35B
100
AcDbEntity
  8
0
100
AcDbBlockBegin
  2
*D34
 70
1
 10
0.0
 20
0.0
 30
0.0
  3
*D34
  1

  0
LINE
  5
35E
330
35B
100
AcDbEntity
  8
0
100
AcDbLine
 10
6840.0
 20
5859.0
 30
0.0
 11
7390.0
 21
5859.0
 31
0.0
  0
LINE
  5
35F
330
35B
100
AcDbEntity
  8
0
100
AcDbLine
 10
6840.0
 20
7959.0
 30
0.0
 11
7390.0
 21
7959.0
 31
0.0
  0
INSERT
  5
360
330
35B
100
AcDbEntity
  8
A-DIMS
100
AcDbBlockReference
  2
_OBLIQUE
 10
7270.0
 20
5859.0
 30
0.0
 41
120.0
 42
120.0
 50
90.0
  0
INSERT
  5
362
330
35B
100
AcDbEntity
  8
A-DIMS
100
AcDbBlockReference
  2
_OBLIQUE
 10
7270.0
 20
7959.0
 30
0.0
 41
120.0
 42
120.0
 50
90.0
  0
LINE
  5
364
330
35B
100
AcDbEntity
  8
0
100
AcDbLine
 10
7270.0
 20
5859.0
 30
0.0
 11
7270.0
 21
7959.0
 31
0.0
  0
MTEXT
  5
365
330
35B
100
AcDbEntity
  8
A-DIMS
100
AcDbMText
 10
7120.0
 20
6909.0
 30
0.0
 40
180.0
 71
5
  1
2100
  7
OpenSansCondensed-Light
 50
90.0
  0
POINT
  5
366
330
35B
100
AcDbEntity
  8
Defpoints
100
AcDbPoint
 10
7270.0
 20
5859.0
 30
0.0
  0
POINT
  5
367
330
35B
100
AcDbEntity
  8
Defpoints
100
AcDbPoint
 10
6720.0
 20
5859.0
 30
0.0
  0
POINT
  5
368
330
35B
100
AcDbEntity
  8
Defpoints
100
AcDbPoint
 10
6720.0
 20
7959.0
 30
0.0
  0
ENDBLK
  5
35D
330
35B
100
AcDbEntity
  8
0
100
AcDbBlockEnd
  0
BLOCK
  5
36B
330
36A
100
AcDbEntity
  8
0
100
AcDbBlockBegin
  2
*D35
 70
1
 10
0.0
 20
0.0
 30
0.0
  3
*D35
  1

  0
LINE
  5
36D
330
36A
100
AcDbEntity
  8
0
100
AcDbLine
 10
6840.0
 20
7959.0
 30
0.0
 11
7390.0
 21
7959.0
 31
0.0
  0
LINE
  5
36E
330
36A
100
AcDbEntity
  8
0
100
AcDbLine
 10
6840.0
 20
8868.0
 30
0.0
 11
7390.0
 21
8868.0
 31
0.0
  0
INSERT
  5
36F
330
36A
100
AcDbEntity
  8
A-DIMS
100
AcDbBlockReference
  2
_OBLIQUE
 10
7270.0
 20
7959.0
 30
0.0
 41
120.0
 42
120.0
 50
90.0
  0
INSERT
  5
371
330
36A
100
AcDbEntity
  8
A-DIMS
100
AcDbBlockReference
  2
_OBLIQUE
 10
7270.0
 20
8868.0
 30
0.0
 41
120.0
 42
120.0
 50
90.0
  0
LINE
  5
373
330
36A
100
AcDbEntity
  8
0
100
AcDbLine
 10
7270.0
 20
7959.0
 30
0.0
 11
7270.0
 21
8868.0
 31
0.0
  0
MTEXT
  5
374
330
36A
100
AcDbEntity
  8
A-DIMS
100
AcDbMText
 10
7120.0
 20
8413.5
 30
0.0
 40
180.0
 71
5
  1
909
  7
OpenSansCondensed-Light
 50
90.0
  0
POINT
  5
375
330
36A
100
AcDbEntity
  8
Defpoints
100
AcDbPoint
 10
7270.0
 20
7959.0
 30
0.0
  0
POINT
  5
376
330
36A
100
AcDbEntity
  8
Defpoints
100
AcDbPoint
 10
6720.0
 20
7959.0
 30
0.0
  0
POINT
  5
377
330
36A
100
AcDbEntity
  8
Defpoints
100
AcDbPoint
 10
6720.0
 20
8868.0
 30
0.0
  0
ENDBLK
  5
36C
330
36A
100
AcDbEntity
  8
0
100
AcDbBlockEnd
  0
BLOCK
  5
37A
330
379
100
AcDbEntity
  8
0
100
AcDbBlockBegin
  2
*D36
 70
1
 10
0.0
 20
0.0
 30
0.0
  3
*D36
  1

  0
LINE
  5
37C
330
379
100
AcDbEntity
  8
0
100
AcDbLine
 10
6840.0
 20
0.0
 30
0.0
 11
7840.0
 21
0.0
 31
0.0
  0
LINE
  5
37D
330
379
100
AcDbEntity
  8
0
100
AcDbLine
 10
6840.0
 20
3450.0
 30
0.0
 11
7840.0
 21
3450.0
 31
0.0
  0
INSERT
  5
37E
330
379
100
AcDbEntity
  8
A-DIMS
100
AcDbBlockReference
  2
_OBLIQUE
 10
7720.0
 20
0.0
 30
0.0
 41
120.0
 42
120.0
 50
90.0
  0
INSERT
  5
380
330
379
100
AcDbEntity
  8
A-DIMS
100
AcDbBlockReference
  2
_OBLIQUE
 10
7720.0
 20
3450.0
 30
0.0
 41
120.0
 42
120.0
 50
90.0
  0
LINE
  5
382
330
379
100
AcDbEntity
  8
0
100
AcDbLine
 10
7720.0
 20
0.0
 30
0.0
 11
7720.0
 21
3450.0
 31
0.0
  0
MTEXT
  5
383
330
379
100
AcDbEntity
  8
A-DIMS
100
AcDbMText
 10
7570.0
 20
1725.0
 30
0.0
 40
180.0
 71
5
  1
3450
  7
OpenSansCondensed-Light
 50
90.0
  0
POINT
  5
384
330
379
100
AcDbEntity
  8
Defpoints
100
AcDbPoint
 10
7720.0
 20
0.0
 30
0.0
  0
POINT
  5
385
330
379
100
AcDbEntity
  8
Defpoints
100
AcDbPoint
 10
6720.0
 20
0.0
 30
0.0
  0
POINT
  5
386
330
379
100
AcDbEntity
  8
Defpoints
100
AcDbPoint
 10
6720.0
 20
3450.0
 30
0.0
  0
ENDBLK
  5
37B
330
379
100
AcDbEntity
  8
0
100
AcDbBlockEnd
  0
BLOCK
  5
389
330
388
100
AcDbEntity
  8
0
100
AcDbBlockBegin
  2
*D37
 70
1
 10
0.0
 20
0.0
 30
0.0
  3
*D37
  1

  0
LINE
  5
38B
330
388
100
AcDbEntity
  8
0
100
AcDbLine
 10
6840.0
 20
3450.0
 30
0.0
 11
7840.0
 21
3450.0
 31
0.0
  0
LINE
  5
38C
330
388
100
AcDbEntity
  8
0
100
AcDbLine
 10
6840.0
 20
4950.0
 30
0.0
 11
7840.0
 21
4950.0
 31
0.0
  0
INSERT
  5
38D
330
388
100
AcDbEntity
  8
A-DIMS
100
AcDbBlockReference
  2
_OBLIQUE
 10
7720.0
 20
3450.0
 30
0.0
 41
120.0
 42
120.0
 50
90.0
  0
INSERT
  5
38F
330
388
100
AcDbEntity
  8
A-DIMS
100
AcDbBlockReference
  2
_OBLIQUE
 10
7720.0
 20
4950.0
 30
0.0
 41
120.0
 42
120.0
 50
90.0
  0
LINE
  5
391
330
388
100
AcDbEntity
  8
0
100
AcDbLine
 10
7720.0
 20
3450.0
 30
0.0
 11
7720.0
 21
4950.0
 31
0.0
  0
MTEXT
  5
392
330
388
100
AcDbEntity
  8
A-DIMS
100
AcDbMText
 10
7570.0
 20
4200.0
 30
0.0
 40
180.0
 71
5
  1
1500
  7
OpenSansCondensed-Light
 50
90.0
  0
POINT
  5
393
330
388
100
AcDbEntity
  8
Defpoints
100
AcDbPoint
 10
7720.0
 20
3450.0
 30
0.0
  0
POINT
  5
394
330
388
100
AcDbEntity
  8
Defpoints
100
AcDbPoint
 10
6720.0
 20
3450.0
 30
0.0
  0
POINT
  5
395
330
388
100
AcDbEntity
  8
Defpoints
100
AcDbPoint
 10
6720.0
 20
4950.0
 30
0.0
  0
ENDBLK
  5
38A
330
388
100
AcDbEntity
  8
0
100
AcDbBlockEnd
  0
BLOCK
  5
398
330
397
100
AcDbEntity
  8
0
100
AcDbBlockBegin
  2
*D38
 70
1
 10
0.0
 20
0.0
 30
0.0
  3
*D38
  1

  0
LINE
  5
39A
330
397
100
AcDbEntity
  8
0
100
AcDbLine
 10
6840.0
 20
4950.0
 30
0.0
 11
7840.0
 21
4950.0
 31
0.0
  0
LINE
  5
39B
330
397
100
AcDbEntity
  8
0
100
AcDbLine
 10
6840.0
 20
8868.0
 30
0.0
 11
7840.0
 21
8868.0
 31
0.0
  0
INSERT
  5
39C
330
397
100
AcDbEntity
  8
A-DIMS
100
AcDbBlockReference
  2
_OBLIQUE
 10
7720.0
 20
4950.0
 30
0.0
 41
120.0
 42
120.0
 50
90.0
  0
INSERT
  5
39E
330
397
100
AcDbEntity
  8
A-DIMS
100
AcDbBlockReference
  2
_OBLIQUE
 10
7720.0
 20
8868.0
 30
0.0
 41
120.0
 42
120.0
 50
90.0
  0
LINE
  5
3A0
330
397
100
AcDbEntity
  8
0
100
AcDbLine
 10
7720.0
 20
4950.0
 30
0.0
 11
7720.0
 21
8868.0
 31
0.0
  0
MTEXT
  5
3A1
330
397
100
AcDbEntity
  8
A-DIMS
100
AcDbMText
 10
7570.0
 20
6909.0
 30
0.0
 40
180.0
 71
5
  1
3918
  7
OpenSansCondensed-Light
 50
90.0
  0
POINT
  5
3A2
330
397
100
AcDbEntity
  8
Defpoints
100
AcDbPoint
 10
7720.0
 20
4950.0
 30
0.0
  0
POINT
  5
3A3
330
397
100
AcDbEntity
  8
Defpoints
100
AcDbPoint
 10
6720.0
 20
4950.0
 30
0.0
  0
POINT
  5
3A4
330
397
100
AcDbEntity
  8
Defpoints
100
AcDbPoint
 10
6720.0
 20
8868.0
 30
0.0
  0
ENDBLK
  5
399
330
397
100
AcDbEntity
  8
0
100
AcDbBlockEnd
  0
BLOCK
  5
3A7
330
3A6
100
AcDbEntity
  8
0
100
AcDbBlockBegin
  2
*D39
 70
1
 10
0.0
 20
0.0
 30
0.0
  3
*D39
  1

  0
LINE
  5
3A9
330
3A6
100
AcDbEntity
  8
0
100
AcDbLine
 10
6840.0
 20
0.0
 30
0.0
 11
8290.0
 21
0.0
 31
0.0
  0
LINE
  5
3AA
330
3A6
100
AcDbEntity
  8
0
100
AcDbLine
 10
6840.0
 20
8868.0
 30
0.0
 11
8290.0
 21
8868.0
 31
0.0
  0
INSERT
  5
3AB
330
3A6
100
AcDbEntity
  8
A-DIMS
100
AcDbBlockReference
  2
_OBLIQUE
 10
8170.0
 20
0.0
 30
0.0
 41
120.0
 42
120.0
 50
90.0
  0
INSERT
  5
3AD
330
3A6
100
AcDbEntity
  8
A-DIMS
100
AcDbBlockReference
  2
_OBLIQUE
 10
8170.0
 20
8868.0
 30
0.0
 41
120.0
 42
120.0
 50
90.0
  0
LINE
  5
3AF
330
3A6
100
AcDbEntity
  8
0
100
AcDbLine
 10
8170.0
 20
0.0
 30
0.0
 11
8170.0
 21
8868.0
 31
0.0
  0
MTEXT
  5
3B0
330
3A6
100
AcDbEntity
  8
A-DIMS
100
AcDbMText
 10
8020.0
 20
4434.0
 30
0.0
 40
180.0
 71
5
  1
8868
  7
OpenSansCondensed-Light
 50
90.0
  0
POINT
  5
3B1
330
3A6
100
AcDbEntity
  8
Defpoints
100
AcDbPoint
 10
8170.0
 20
0.0
 30
0.0
  0
POINT
  5
3B2
330
3A6
100
AcDbEntity
  8
Defpoints
100
AcDbPoint
 10
6720.0
 20
0.0
 30
0.0
  0
POINT
  5
3B3
330
3A6
100
AcDbEntity
  8
Defpoints
100
AcDbPoint
 10
6720.0
 20
8868.0
 30
0.0
  0
ENDBLK
  5
3A8
330
3A6
100
AcDbEntity
  8
0
100
AcDbBlockEnd
  0
BLOCK
  5
3E7
330
3E6
100
AcDbEntity
  8
0
100
AcDbBlockBegin
  2
*Paper_Space0
 70
0
 10
0.0
 20
0.0
 30
0.0
  3
*Paper_Space0
  1

  0
VIEWPORT
  5
3EA
330
3E6
100
AcDbEntity
 67
1
  8
VIEWPORTS
100
AcDbViewport
 10
200.0
 20
138.5
 30
0.0
 40
462.00000000000006
 41
326.70000000000005
 68
1
 69
1
 12
200.0
 22
138.5
 13
0.0
 23
0.0
 14
10.0
 24
10.0
 15
10.0
 25
10.0
 16
0.0
 26
0.0
 36
1.0
 17
0.0
 27
0.0
 37
0.0
 42
50.0
 43
0.0
 44
0.0
 45
326.70000000000005
 50
0.0
 51
0.0
 72
100
 90
557088
  1

281
0
 71
0
 74
0
110
0.0
120
0.0
130
0.0
111
1.0
121
0.0
131
0.0
112
0.0
122
1.0
132
0.0
 79
0
146
0.0
282
0
  0
VIEWPORT
  5
3EB
330
3E6
100
AcDbEntity
 67
1
  8
VIEWPORTS
100
AcDbViewport
 10
140.0
 20
145.0
 30
0.0
 40
240.0
 41
230.0
 68
2
 69
3
 12
3360.0
 22
4434.0
 13
0.0
 23
0.0
 14
10.0
 24
10.0
 15
10.0
 25
10.0
 16
0.0
 26
0.0
 36
1.0
 17
0.0
 27
0.0
 37
0.0
 42
50.0
 43
0.0
 44
0.0
 45
17868.0
 50
0.0
 51
0.0
 72
100
 90
0
  1

281
0
 71
0
 74
0
110
0.0
120
0.0
130
0.0
111
1.0
121
0.0
131
0.0
112
0.0
122
1.0
132
0.0
 79
0
146
0.0
282
0
  0
TEXT
  5
3EC
330
3E6
100
AcDbEntity
 67
1
  8
0
100
AcDbText
 10
268.0
 20
255.0
 30
0.0
 40
4.0
  1
FLOORFORGE / PRELIMINARY
 11
268.0
 21
255.0
 31
0.0
100
AcDbText
  0
ENDBLK
  5
3E8
330
3E6
100
AcDbEntity
  8
0
100
AcDbBlockEnd
  0
ENDSEC
  0
SECTION
  2
ENTITIES
  0
LWPOLYLINE
  5
9E
330
17
100
AcDbEntity
  8
A-FLOR
100
AcDbPolyline
 90
13
 70
1
 10
3675.0
 20
3450.0
 10
3675.0
 20
3375.0
 10
3750.0
 20
3375.0
 10
3825.0
 20
3375.0
 10
6490.0
 20
3375.0
 10
6490.0
 20
3220.0
 10
6490.0
 20
230.0
 10
230.0
 20
230.0
 10
230.0
 20
3220.0
 10
230.0
 20
3375.0
 10
2325.0
 20
3375.0
 10
2475.0
 20
3375.0
 10
2475.0
 20
3450.0
1001
FLOORFORGE
1000
floor:0
1000
preliminary
  0
LWPOLYLINE
  5
9F
330
17
100
AcDbEntity
  8
A-FLOR
100
AcDbPolyline
 90
9
 70
1
 10
2475.0
 20
3450.0
 10
2475.0
 20
3525.0
 10
2475.0
 20
6125.0
 10
3675.0
 20
6125.0
 10
3675.0
 20
5025.0
 10
3675.0
 20
4950.0
 10
3675.0
 20
4875.0
 10
3675.0
 20
3525.0
 10
3675.0
 20
3450.0
1001
FLOORFORGE
1000
floor:0
1000
preliminary
  0
LWPOLYLINE
  5
A0
330
17
100
AcDbEntity
  8
A-FLOR
100
AcDbPolyline
 90
9
 70
1
 10
2325.0
 20
6125.0
 10
2325.0
 20
3525.0
 10
230.0
 20
3525.0
 10
230.0
 20
3680.0
 10
230.0
 20
7138.0
 10
230.0
 20
7293.0
 10
2325.0
 20
7293.0
 10
2325.0
 20
6275.0
 10
2325.0
 20
6200.0
1001
FLOORFORGE
1000
floor:0
1000
preliminary
  0
LWPOLYLINE
  5
A1
330
17
100
AcDbEntity
  8
A-FLOR
100
AcDbPolyline
 90
6
 70
1
 10
230.0
 20
7443.0
 10
230.0
 20
7598.0
 10
230.0
 20
8638.0
 10
2170.0
 20
8638.0
 10
2325.0
 20
8638.0
 10
2325.0
 20
7443.0
1001
FLOORFORGE
1000
floor:0
1000
preliminary
  0
LWPOLYLINE
  5
A2
330
17
100
AcDbEntity
  8
A-FLOR
100
AcDbPolyline
 90
6
 70
1
 10
3825.0
 20
3525.0
 10
3825.0
 20
4875.0
 10
6490.0
 20
4875.0
 10
6490.0
 20
4720.0
 10
6490.0
 20
3680.0
 10
6490.0
 20
3525.0
1001
FLOORFORGE
1000
floor:0
1000
preliminary
  0
LWPOLYLINE
  5
A3
330
17
100
AcDbEntity
  8
A-FLOR
100
AcDbPolyline
 90
9
 70
1
 10
3825.0
 20
6275.0
 10
3825.0
 20
8638.0
 10
3980.0
 20
8638.0
 10
6490.0
 20
8638.0
 10
6490.0
 20
5180.0
 10
6490.0
 20
5025.0
 10
3825.0
 20
5025.0
 10
3825.0
 20
6125.0
 10
3825.0
 20
6200.0
1001
FLOORFORGE
1000
floor:0
1000
preliminary
  0
LWPOLYLINE
  5
A4
330
17
100
AcDbEntity
  8
A-FLOR
100
AcDbPolyline
 90
9
 70
1
 10
2630.0
 20
8638.0
 10
3520.0
 20
8638.0
 10
3675.0
 20
8638.0
 10
3675.0
 20
6275.0
 10
2475.0
 20
6275.0
 10
2475.0
 20
7293.0
 10
2475.0
 20
7368.0
 10
2475.0
 20
7443.0
 10
2475.0
 20
8638.0
1001
FLOORFORGE
1000
floor:0
1000
preliminary
  0
LWPOLYLINE
  5
A5
330
17
100
AcDbEntity
  8
A-WALL
100
AcDbPolyline
 90
5
 70
1
 10
230.0
 20
2775.0
 10
0.0
 20
2775.0
 10
0.0
 20
3680.0
 10
230.0
 20
3680.0
 10
230.0
 20
2775.0
1001
FLOORFORGE
1000
floor:0
1000
preliminary
  0
HATCH
  5
A6
330
17
100
AcDbEntity
  8
A-WALL
 62
7
100
AcDbHatch
 10
0.0
 20
0.0
 30
0.0
210
0.0
220
0.0
230
1.0
  2
SOLID
 70
1
 71
0
 91
1
 92
3
 72
0
 73
1
 93
5
 10
230.0
 20
2775.0
 10
0.0
 20
2775.0
 10
0.0
 20
3680.0
 10
230.0
 20
3680.0
 10
230.0
 20
2775.0
 97
0
 75
0
 76
1
 98
0
  0
LWPOLYLINE
  5
A7
330
17
100
AcDbEntity
  8
A-WALL
100
AcDbPolyline
 90
5
 70
1
 10
230.0
 20
0.0
 10
0.0
 20
0.0
 10
0.0
 20
675.0
 10
230.0
 20
675.0
 10
230.0
 20
0.0
1001
FLOORFORGE
1000
floor:0
1000
preliminary
  0
HATCH
  5
A8
330
17
100
AcDbEntity
  8
A-WALL
 62
7
100
AcDbHatch
 10
0.0
 20
0.0
 30
0.0
210
0.0
220
0.0
230
1.0
  2
SOLID
 70
1
 71
0
 91
1
 92
3
 72
0
 73
1
 93
5
 10
230.0
 20
0.0
 10
0.0
 20
0.0
 10
0.0
 20
675.0
 10
230.0
 20
675.0
 10
230.0
 20
0.0
 97
0
 75
0
 76
1
 98
0
  0
LWPOLYLINE
  5
A9
330
17
100
AcDbEntity
  8
A-WALL
100
AcDbPolyline
 90
5
 70
1
 10
4710.0
 20
0.0
 10
4710.0
 20
230.0
 10
6720.0
 20
230.0
 10
6720.0
 20
0.0
 10
4710.0
 20
0.0
1001
FLOORFORGE
1000
floor:0
1000
preliminary
  0
HATCH
  5
AA
330
17
100
AcDbEntity
  8
A-WALL
 62
7
100
AcDbHatch
 10
0.0
 20
0.0
 30
0.0
210
0.0
220
0.0
230
1.0
  2
SOLID
 70
1
 71
0
 91
1
 92
3
 72
0
 73
1
 93
5
 10
4710.0
 20
0.0
 10
4710.0
 20
230.0
 10
6720.0
 20
230.0
 10
6720.0
 20
0.0
 10
4710.0
 20
0.0
 97
0
 75
0
 76
1
 98
0
  0
LWPOLYLINE
  5
AB
330
17
100
AcDbEntity
  8
A-WALL
100
AcDbPolyline
 90
5
 70
1
 10
1900.0
 20
0.0
 10
1900.0
 20
230.0
 10
2010.0
 20
230.0
 10
2010.0
 20
0.0
 10
1900.0
 20
0.0
1001
FLOORFORGE
1000
floor:0
1000
preliminary
  0
HATCH
  5
AC
330
17
100
AcDbEntity
  8
A-WALL
 62
7
100
AcDbHatch
 10
0.0
 20
0.0
 30
0.0
210
0.0
220
0.0
230
1.0
  2
SOLID
 70
1
 71
0
 91
1
 92
3
 72
0
 73
1
 93
5
 10
1900.0
 20
0.0
 10
1900.0
 20
230.0
 10
2010.0
 20
230.0
 10
2010.0
 20
0.0
 10
1900.0
 20
0.0
 97
0
 75
0
 76
1
 98
0
  0
LWPOLYLINE
  5
AD
330
17
100
AcDbEntity
  8
A-WALL
100
AcDbPolyline
 90
5
 70
1
 10
0.0
 20
230.0
 10
700.0
 20
230.0
 10
700.0
 20
0.0
 10
0.0
 20
0.0
 10
0.0
 20
230.0
1001
FLOORFORGE
1000
floor:0
1000
preliminary
  0
HATCH
  5
AE
330
17
100
AcDbEntity
  8
A-WALL
 62
7
100
AcDbHatch
 10
0.0
 20
0.0
 30
0.0
210
0.0
220
0.0
230
1.0
  2
SOLID
 70
1
 71
0
 91
1
 92
3
 72
0
 73
1
 93
5
 10
0.0
 20
230.0
 10
700.0
 20
230.0
 10
700.0
 20
0.0
 10
0.0
 20
0.0
 10
0.0
 20
230.0
 97
0
 75
0
 76
1
 98
0
  0
LWPOLYLINE
  5
AF
330
17
100
AcDbEntity
  8
A-WALL
100
AcDbPolyline
 90
5
 70
1
 10
230.0
 20
6459.0
 10
0.0
 20
6459.0
 10
0.0
 20
7598.0
 10
230.0
 20
7598.0
 10
230.0
 20
6459.0
1001
FLOORFORGE
1000
floor:0
1000
preliminary
  0
HATCH
  5
B0
330
17
100
AcDbEntity
  8
A-WALL
 62
7
100
AcDbHatch
 10
0.0
 20
0.0
 30
0.0
210
0.0
220
0.0
230
1.0
  2
SOLID
 70
1
 71
0
 91
1
 92
3
 72
0
 73
1
 93
5
 10
230.0
 20
6459.0
 10
0.0
 20
6459.0
 10
0.0
 20
7598.0
 10
230.0
 20
7598.0
 10
230.0
 20
6459.0
 97
0
 75
0
 76
1
 98
0
  0
LWPOLYLINE
  5
B1
330
17
100
AcDbEntity
  8
A-WALL
100
AcDbPolyline
 90
6
 70
1
 10
230.0
 20
3450.0
 10
230.0
 20
3220.0
 10
0.0
 20
3220.0
 10
0.0
 20
4359.0
 10
230.0
 20
4359.0
 10
230.0
 20
3450.0
1001
FLOORFORGE
1000
floor:0
1000
preliminary
  0
HATCH
  5
B2
330
17
100
AcDbEntity
  8
A-WALL
 62
7
100
AcDbHatch
 10
0.0
 20
0.0
 30
0.0
210
0.0
220
0.0
230
1.0
  2
SOLID
 70
1
 71
0
 91
1
 92
3
 72
0
 73
1
 93
6
 10
230.0
 20
3450.0
 10
230.0
 20
3220.0
 10
0.0
 20
3220.0
 10
0.0
 20
4359.0
 10
230.0
 20
4359.0
 10
230.0
 20
3450.0
 97
0
 75
0
 76
1
 98
0
  0
LWPOLYLINE
  5
B3
330
17
100
AcDbEntity
  8
A-WALL
100
AcDbPolyline
 90
6
 70
1
 10
2475.0
 20
3375.0
 10
1950.0
 20
3375.0
 10
1950.0
 20
3525.0
 10
2400.0
 20
3525.0
 10
2475.0
 20
3525.0
 10
2475.0
 20
3375.0
1001
FLOORFORGE
1000
floor:0
1000
preliminary
  0
HATCH
  5
B4
330
17
100
AcDbEntity
  8
A-WALL
 62
7
100
AcDbHatch
 10
0.0
 20
0.0
 30
0.0
210
0.0
220
0.0
230
1.0
  2
SOLID
 70
1
 71
0
 91
1
 92
3
 72
0
 73
1
 93
6
 10
2475.0
 20
3375.0
 10
1950.0
 20
3375.0
 10
1950.0
 20
3525.0
 10
2400.0
 20
3525.0
 10
2475.0
 20
3525.0
 10
2475.0
 20
3375.0
 97
0
 75
0
 76
1
 98
0
  0
LWPOLYLINE
  5
B5
330
17
100
AcDbEntity
  8
A-WALL
100
AcDbPolyline
 90
5
 70
1
 10
0.0
 20
3375.0
 10
0.0
 20
3525.0
 10
450.0
 20
3525.0
 10
450.0
 20
3375.0
 10
0.0
 20
3375.0
1001
FLOORFORGE
1000
floor:0
1000
preliminary
  0
HATCH
  5
B6
330
17
100
AcDbEntity
  8
A-WALL
 62
7
100
AcDbHatch
 10
0.0
 20
0.0
 30
0.0
210
0.0
220
0.0
230
1.0
  2
SOLID
 70
1
 71
0
 91
1
 92
3
 72
0
 73
1
 93
5
 10
0.0
 20
3375.0
 10
0.0
 20
3525.0
 10
450.0
 20
3525.0
 10
450.0
 20
3375.0
 10
0.0
 20
3375.0
 97
0
 75
0
 76
1
 98
0
  0
LWPOLYLINE
  5
B7
330
17
100
AcDbEntity
  8
A-WALL
100
AcDbPolyline
 90
6
 70
1
 10
230.0
 20
7138.0
 10
0.0
 20
7138.0
 10
0.0
 20
7668.0
 10
230.0
 20
7668.0
 10
230.0
 20
7368.0
 10
230.0
 20
7138.0
1001
FLOORFORGE
1000
floor:0
1000
preliminary
  0
HATCH
  5
B8
330
17
100
AcDbEntity
  8
A-WALL
 62
7
100
AcDbHatch
 10
0.0
 20
0.0
 30
0.0
210
0.0
220
0.0
230
1.0
  2
SOLID
 70
1
 71
0
 91
1
 92
3
 72
0
 73
1
 93
6
 10
230.0
 20
7138.0
 10
0.0
 20
7138.0
 10
0.0
 20
7668.0
 10
230.0
 20
7668.0
 10
230.0
 20
7368.0
 10
230.0
 20
7138.0
 97
0
 75
0
 76
1
 98
0
  0
LWPOLYLINE
  5
B9
330
17
100
AcDbEntity
  8
A-WALL
100
AcDbPolyline
 90
5
 70
1
 10
0.0
 20
8868.0
 10
230.0
 20
8868.0
 10
230.0
 20
8568.0
 10
0.0
 20
8568.0
 10
0.0
 20
8868.0
1001
FLOORFORGE
1000
floor:0
1000
preliminary
  0
HATCH
  5
BA
330
17
100
AcDbEntity
  8
A-WALL
 62
7
100
AcDbHatch
 10
0.0
 20
0.0
 30
0.0
210
0.0
220
0.0
230
1.0
  2
SOLID
 70
1
 71
0
 91
1
 92
3
 72
0
 73
1
 93
5
 10
0.0
 20
8868.0
 10
230.0
 20
8868.0
 10
230.0
 20
8568.0
 10
0.0
 20
8568.0
 10
0.0
 20
8868.0
 97
0
 75
0
 76
1
 98
0
  0
LWPOLYLINE
  5
BB
330
17
100
AcDbEntity
  8
A-WALL
100
AcDbPolyline
 90
6
 70
1
 10
2475.0
 20
7293.0
 10
2250.0
 20
7293.0
 10
2250.0
 20
7443.0
 10
2400.0
 20
7443.0
 10
2475.0
 20
7443.0
 10
2475.0
 20
7293.0
1001
FLOORFORGE
1000
floor:0
1000
preliminary
  0
HATCH
  5
BC
330
17
100
AcDbEntity
  8
A-WALL
 62
7
100
AcDbHatch
 10
0.0
 20
0.0
 30
0.0
210
0.0
220
0.0
230
1.0
  2
SOLID
 70
1
 71
0
 91
1
 92
3
 72
0
 73
1
 93
6
 10
2475.0
 20
7293.0
 10
2250.0
 20
7293.0
 10
2250.0
 20
7443.0
 10
2400.0
 20
7443.0
 10
2475.0
 20
7443.0
 10
2475.0
 20
7293.0
 97
0
 75
0
 76
1
 98
0
  0
LWPOLYLINE
  5
BD
330
17
100
AcDbEntity
  8
A-WALL
100
AcDbPolyline
 90
5
 70
1
 10
0.0
 20
7293.0
 10
0.0
 20
7443.0
 10
1500.0
 20
7443.0
 10
1500.0
 20
7293.0
 10
0.0
 20
7293.0
1001
FLOORFORGE
1000
floor:0
1000
preliminary
  0
HATCH
  5
BE
330
17
100
AcDbEntity
  8
A-WALL
 62
7
100
AcDbHatch
 10
0.0
 20
0.0
 30
0.0
210
0.0
220
0.0
230
1.0
  2
SOLID
 70
1
 71
0
 91
1
 92
3
 72
0
 73
1
 93
5
 10
0.0
 20
7293.0
 10
0.0
 20
7443.0
 10
1500.0
 20
7443.0
 10
1500.0
 20
7293.0
 10
0.0
 20
7293.0
 97
0
 75
0
 76
1
 98
0
  0
LWPOLYLINE
  5
BF
330
17
100
AcDbEntity
  8
A-WALL
100
AcDbPolyline
 90
5
 70
1
 10
1800.0
 20
8638.0
 10
1800.0
 20
8868.0
 10
2630.0
 20
8868.0
 10
2630.0
 20
8638.0
 10
1800.0
 20
8638.0
1001
FLOORFORGE
1000
floor:0
1000
preliminary
  0
HATCH
  5
C0
330
17
100
AcDbEntity
  8
A-WALL
 62
7
100
AcDbHatch
 10
0.0
 20
0.0
 30
0.0
210
0.0
220
0.0
230
1.0
  2
SOLID
 70
1
 71
0
 91
1
 92
3
 72
0
 73
1
 93
5
 10
1800.0
 20
8638.0
 10
1800.0
 20
8868.0
 10
2630.0
 20
8868.0
 10
2630.0
 20
8638.0
 10
1800.0
 20
8638.0
 97
0
 75
0
 76
1
 98
0
  0
LWPOLYLINE
  5
C1
330
17
100
AcDbEntity
  8
A-WALL
100
AcDbPolyline
 90
5
 70
1
 10
0.0
 20
8638.0
 10
0.0
 20
8868.0
 10
600.0
 20
8868.0
 10
600.0
 20
8638.0
 10
0.0
 20
8638.0
1001
FLOORFORGE
1000
floor:0
1000
preliminary
  0
HATCH
  5
C2
330
17
100
AcDbEntity
  8
A-WALL
 62
7
100
AcDbHatch
 10
0.0
 20
0.0
 30
0.0
210
0.0
220
0.0
230
1.0
  2
SOLID
 70
1
 71
0
 91
1
 92
3
 72
0
 73
1
 93
5
 10
0.0
 20
8638.0
 10
0.0
 20
8868.0
 10
600.0
 20
8868.0
 10
600.0
 20
8638.0
 10
0.0
 20
8638.0
 97
0
 75
0
 76
1
 98
0
  0
LWPOLYLINE
  5
C3
330
17
100
AcDbEntity
  8
A-WALL
100
AcDbPolyline
 90
7
 70
1
 10
2325.0
 20
6275.0
 10
2475.0
 20
6275.0
 10
2475.0
 20
3450.0
 10
2475.0
 20
3375.0
 10
2325.0
 20
3375.0
 10
2325.0
 20
6200.0
 10
2325.0
 20
6275.0
1001
FLOORFORGE
1000
floor:0
1000
preliminary
  0
HATCH
  5
C4
330
17
100
AcDbEntity
  8
A-WALL
 62
7
100
AcDbHatch
 10
0.0
 20
0.0
 30
0.0
210
0.0
220
0.0
230
1.0
  2
SOLID
 70
1
 71
0
 91
1
 92
3
 72
0
 73
1
 93
7
 10
2325.0
 20
6275.0
 10
2475.0
 20
6275.0
 10
2475.0
 20
3450.0
 10
2475.0
 20
3375.0
 10
2325.0
 20
3375.0
 10
2325.0
 20
6200.0
 10
2325.0
 20
6275.0
 97
0
 75
0
 76
1
 98
0
  0
LWPOLYLINE
  5
C5
330
17
100
AcDbEntity
  8
A-WALL
100
AcDbPolyline
 90
7
 70
1
 10
2325.0
 20
7443.0
 10
2475.0
 20
7443.0
 10
2475.0
 20
6200.0
 10
2475.0
 20
6125.0
 10
2325.0
 20
6125.0
 10
2325.0
 20
7368.0
 10
2325.0
 20
7443.0
1001
FLOORFORGE
1000
floor:0
1000
preliminary
  0
HATCH
  5
C6
330
17
100
AcDbEntity
  8
A-WALL
 62
7
100
AcDbHatch
 10
0.0
 20
0.0
 30
0.0
210
0.0
220
0.0
230
1.0
  2
SOLID
 70
1
 71
0
 91
1
 92
3
 72
0
 73
1
 93
7
 10
2325.0
 20
7443.0
 10
2475.0
 20
7443.0
 10
2475.0
 20
6200.0
 10
2475.0
 20
6125.0
 10
2325.0
 20
6125.0
 10
2325.0
 20
7368.0
 10
2325.0
 20
7443.0
 97
0
 75
0
 76
1
 98
0
  0
LWPOLYLINE
  5
C7
330
17
100
AcDbEntity
  8
A-WALL
100
AcDbPolyline
 90
7
 70
1
 10
3825.0
 20
6275.0
 10
3825.0
 20
6125.0
 10
2400.0
 20
6125.0
 10
2325.0
 20
6125.0
 10
2325.0
 20
6275.0
 10
3750.0
 20
6275.0
 10
3825.0
 20
6275.0
1001
FLOORFORGE
1000
floor:0
1000
preliminary
  0
HATCH
  5
C8
330
17
100
AcDbEntity
  8
A-WALL
 62
7
100
AcDbHatch
 10
0.0
 20
0.0
 30
0.0
210
0.0
220
0.0
230
1.0
  2
SOLID
 70
1
 71
0
 91
1
 92
3
 72
0
 73
1
 93
7
 10
3825.0
 20
6275.0
 10
3825.0
 20
6125.0
 10
2400.0
 20
6125.0
 10
2325.0
 20
6125.0
 10
2325.0
 20
6275.0
 10
3750.0
 20
6275.0
 10
3825.0
 20
6275.0
 97
0
 75
0
 76
1
 98
0
  0
LWPOLYLINE
  5
C9
330
17
100
AcDbEntity
  8
A-WALL
100
AcDbPolyline
 90
6
 70
1
 10
2475.0
 20
7368.0
 10
2475.0
 20
7293.0
 10
2325.0
 20
7293.0
 10
2325.0
 20
8868.0
 10
2475.0
 20
8868.0
 10
2475.0
 20
7368.0
1001
FLOORFORGE
1000
floor:0
1000
preliminary
  0
HATCH
  5
CA
330
17
100
AcDbEntity
  8
A-WALL
 62
7
100
AcDbHatch
 10
0.0
 20
0.0
 30
0.0
210
0.0
220
0.0
230
1.0
  2
SOLID
 70
1
 71
0
 91
1
 92
3
 72
0
 73
1
 93
6
 10
2475.0
 20
7368.0
 10
2475.0
 20
7293.0
 10
2325.0
 20
7293.0
 10
2325.0
 20
8868.0
 10
2475.0
 20
8868.0
 10
2475.0
 20
7368.0
 97
0
 75
0
 76
1
 98
0
  0
LWPOLYLINE
  5
CB
330
17
100
AcDbEntity
  8
A-WALL
100
AcDbPolyline
 90
6
 70
1
 10
3980.0
 20
8638.0
 10
2400.0
 20
8638.0
 10
2170.0
 20
8638.0
 10
2170.0
 20
8868.0
 10
3980.0
 20
8868.0
 10
3980.0
 20
8638.0
1001
FLOORFORGE
1000
floor:0
1000
preliminary
  0
HATCH
  5
CC
330
17
100
AcDbEntity
  8
A-WALL
 62
7
100
AcDbHatch
 10
0.0
 20
0.0
 30
0.0
210
0.0
220
0.0
230
1.0
  2
SOLID
 70
1
 71
0
 91
1
 92
3
 72
0
 73
1
 93
6
 10
3980.0
 20
8638.0
 10
2400.0
 20
8638.0
 10
2170.0
 20
8638.0
 10
2170.0
 20
8868.0
 10
3980.0
 20
8868.0
 10
3980.0
 20
8638.0
 97
0
 75
0
 76
1
 98
0
  0
LWPOLYLINE
  5
CD
330
17
100
AcDbEntity
  8
A-WALL
100
AcDbPolyline
 90
6
 70
1
 10
3825.0
 20
5025.0
 10
3825.0
 20
4350.0
 10
3675.0
 20
4350.0
 10
3675.0
 20
4950.0
 10
3675.0
 20
5025.0
 10
3825.0
 20
5025.0
1001
FLOORFORGE
1000
floor:0
1000
preliminary
  0
HATCH
  5
CE
330
17
100
AcDbEntity
  8
A-WALL
 62
7
100
AcDbHatch
 10
0.0
 20
0.0
 30
0.0
210
0.0
220
0.0
230
1.0
  2
SOLID
 70
1
 71
0
 91
1
 92
3
 72
0
 73
1
 93
6
 10
3825.0
 20
5025.0
 10
3825.0
 20
4350.0
 10
3675.0
 20
4350.0
 10
3675.0
 20
4950.0
 10
3675.0
 20
5025.0
 10
3825.0
 20
5025.0
 97
0
 75
0
 76
1
 98
0
  0
LWPOLYLINE
  5
CF
330
17
100
AcDbEntity
  8
A-WALL
100
AcDbPolyline
 90
6
 70
1
 10
3825.0
 20
3450.0
 10
3825.0
 20
3375.0
 10
3675.0
 20
3375.0
 10
3675.0
 20
3600.0
 10
3825.0
 20
3600.0
 10
3825.0
 20
3450.0
1001
FLOORFORGE
1000
floor:0
1000
preliminary
  0
HATCH
  5
D0
330
17
100
AcDbEntity
  8
A-WALL
 62
7
100
AcDbHatch
 10
0.0
 20
0.0
 30
0.0
210
0.0
220
0.0
230
1.0
  2
SOLID
 70
1
 71
0
 91
1
 92
3
 72
0
 73
1
 93
6
 10
3825.0
 20
3450.0
 10
3825.0
 20
3375.0
 10
3675.0
 20
3375.0
 10
3675.0
 20
3600.0
 10
3825.0
 20
3600.0
 10
3825.0
 20
3450.0
 97
0
 75
0
 76
1
 98
0
  0
LWPOLYLINE
  5
D1
330
17
100
AcDbEntity
  8
A-WALL
100
AcDbPolyline
 90
6
 70
1
 10
3750.0
 20
3375.0
 10
3675.0
 20
3375.0
 10
3675.0
 20
3525.0
 10
6720.0
 20
3525.0
 10
6720.0
 20
3375.0
 10
3750.0
 20
3375.0
1001
FLOORFORGE
1000
floor:0
1000
preliminary
  0
HATCH
  5
D2
330
17
100
AcDbEntity
  8
A-WALL
 62
7
100
AcDbHatch
 10
0.0
 20
0.0
 30
0.0
210
0.0
220
0.0
230
1.0
  2
SOLID
 70
1
 71
0
 91
1
 92
3
 72
0
 73
1
 93
6
 10
3750.0
 20
3375.0
 10
3675.0
 20
3375.0
 10
3675.0
 20
3525.0
 10
6720.0
 20
3525.0
 10
6720.0
 20
3375.0
 10
3750.0
 20
3375.0
 97
0
 75
0
 76
1
 98
0
  0
LWPOLYLINE
  5
D3
330
17
100
AcDbEntity
  8
A-WALL
100
AcDbPolyline
 90
6
 70
1
 10
3825.0
 20
6275.0
 10
3825.0
 20
6000.0
 10
3675.0
 20
6000.0
 10
3675.0
 20
6200.0
 10
3675.0
 20
6275.0
 10
3825.0
 20
6275.0
1001
FLOORFORGE
1000
floor:0
1000
preliminary
  0
HATCH
  5
D4
330
17
100
AcDbEntity
  8
A-WALL
 62
7
100
AcDbHatch
 10
0.0
 20
0.0
 30
0.0
210
0.0
220
0.0
230
1.0
  2
SOLID
 70
1
 71
0
 91
1
 92
3
 72
0
 73
1
 93
6
 10
3825.0
 20
6275.0
 10
3825.0
 20
6000.0
 10
3675.0
 20
6000.0
 10
3675.0
 20
6200.0
 10
3675.0
 20
6275.0
 10
3825.0
 20
6275.0
 97
0
 75
0
 76
1
 98
0
  0
LWPOLYLINE
  5
D5
330
17
100
AcDbEntity
  8
A-WALL
100
AcDbPolyline
 90
6
 70
1
 10
3825.0
 20
4950.0
 10
3825.0
 20
4875.0
 10
3675.0
 20
4875.0
 10
3675.0
 20
5100.0
 10
3825.0
 20
5100.0
 10
3825.0
 20
4950.0
1001
FLOORFORGE
1000
floor:0
1000
preliminary
  0
HATCH
  5
D6
330
17
100
AcDbEntity
  8
A-WALL
 62
7
100
AcDbHatch
 10
0.0
 20
0.0
 30
0.0
210
0.0
220
0.0
230
1.0
  2
SOLID
 70
1
 71
0
 91
1
 92
3
 72
0
 73
1
 93
6
 10
3825.0
 20
4950.0
 10
3825.0
 20
4875.0
 10
3675.0
 20
4875.0
 10
3675.0
 20
5100.0
 10
3825.0
 20
5100.0
 10
3825.0
 20
4950.0
 97
0
 75
0
 76
1
 98
0
  0
LWPOLYLINE
  5
D7
330
17
100
AcDbEntity
  8
A-WALL
100
AcDbPolyline
 90
6
 70
1
 10
3750.0
 20
4875.0
 10
3675.0
 20
4875.0
 10
3675.0
 20
5025.0
 10
6720.0
 20
5025.0
 10
6720.0
 20
4875.0
 10
3750.0
 20
4875.0
1001
FLOORFORGE
1000
floor:0
1000
preliminary
  0
HATCH
  5
D8
330
17
100
AcDbEntity
  8
A-WALL
 62
7
100
AcDbHatch
 10
0.0
 20
0.0
 30
0.0
210
0.0
220
0.0
230
1.0
  2
SOLID
 70
1
 71
0
 91
1
 92
3
 72
0
 73
1
 93
6
 10
3750.0
 20
4875.0
 10
3675.0
 20
4875.0
 10
3675.0
 20
5025.0
 10
6720.0
 20
5025.0
 10
6720.0
 20
4875.0
 10
3750.0
 20
4875.0
 97
0
 75
0
 76
1
 98
0
  0
LWPOLYLINE
  5
D9
330
17
100
AcDbEntity
  8
A-WALL
100
AcDbPolyline
 90
6
 70
1
 10
3825.0
 20
6125.0
 10
3675.0
 20
6125.0
 10
3675.0
 20
7159.0
 10
3825.0
 20
7159.0
 10
3825.0
 20
6200.0
 10
3825.0
 20
6125.0
1001
FLOORFORGE
1000
floor:0
1000
preliminary
  0
HATCH
  5
DA
330
17
100
AcDbEntity
  8
A-WALL
 62
7
100
AcDbHatch
 10
0.0
 20
0.0
 30
0.0
210
0.0
220
0.0
230
1.0
  2
SOLID
 70
1
 71
0
 91
1
 92
3
 72
0
 73
1
 93
6
 10
3825.0
 20
6125.0
 10
3675.0
 20
6125.0
 10
3675.0
 20
7159.0
 10
3825.0
 20
7159.0
 10
3825.0
 20
6200.0
 10
3825.0
 20
6125.0
 97
0
 75
0
 76
1
 98
0
  0
LWPOLYLINE
  5
DB
330
17
100
AcDbEntity
  8
A-WALL
100
AcDbPolyline
 90
5
 70
1
 10
3675.0
 20
8868.0
 10
3825.0
 20
8868.0
 10
3825.0
 20
7909.0
 10
3675.0
 20
7909.0
 10
3675.0
 20
8868.0
1001
FLOORFORGE
1000
floor:0
1000
preliminary
  0
HATCH
  5
DC
330
17
100
AcDbEntity
  8
A-WALL
 62
7
100
AcDbHatch
 10
0.0
 20
0.0
 30
0.0
210
0.0
220
0.0
230
1.0
  2
SOLID
 70
1
 71
0
 91
1
 92
3
 72
0
 73
1
 93
5
 10
3675.0
 20
8868.0
 10
3825.0
 20
8868.0
 10
3825.0
 20
7909.0
 10
3675.0
 20
7909.0
 10
3675.0
 20
8868.0
 97
0
 75
0
 76
1
 98
0
  0
LWPOLYLINE
  5
DD
330
17
100
AcDbEntity
  8
A-WALL
100
AcDbPolyline
 90
6
 70
1
 10
3520.0
 20
8638.0
 10
3520.0
 20
8868.0
 10
4485.0
 20
8868.0
 10
4485.0
 20
8638.0
 10
3750.0
 20
8638.0
 10
3520.0
 20
8638.0
1001
FLOORFORGE
1000
floor:0
1000
preliminary
  0
HATCH
  5
DE
330
17
100
AcDbEntity
  8
A-WALL
 62
7
100
AcDbHatch
 10
0.0
 20
0.0
 30
0.0
210
0.0
220
0.0
230
1.0
  2
SOLID
 70
1
 71
0
 91
1
 92
3
 72
0
 73
1
 93
6
 10
3520.0
 20
8638.0
 10
3520.0
 20
8868.0
 10
4485.0
 20
8868.0
 10
4485.0
 20
8638.0
 10
3750.0
 20
8638.0
 10
3520.0
 20
8638.0
 97
0
 75
0
 76
1
 98
0
  0
LWPOLYLINE
  5
DF
330
17
100
AcDbEntity
  8
A-WALL
100
AcDbPolyline
 90
5
 70
1
 10
6720.0
 20
8868.0
 10
6720.0
 20
8638.0
 10
5985.0
 20
8638.0
 10
5985.0
 20
8868.0
 10
6720.0
 20
8868.0
1001
FLOORFORGE
1000
floor:0
1000
preliminary
  0
HATCH
  5
E0
330
17
100
AcDbEntity
  8
A-WALL
 62
7
100
AcDbHatch
 10
0.0
 20
0.0
 30
0.0
210
0.0
220
0.0
230
1.0
  2
SOLID
 70
1
 71
0
 91
1
 92
3
 72
0
 73
1
 93
5
 10
6720.0
 20
8868.0
 10
6720.0
 20
8638.0
 10
5985.0
 20
8638.0
 10
5985.0
 20
8868.0
 10
6720.0
 20
8868.0
 97
0
 75
0
 76
1
 98
0
  0
LWPOLYLINE
  5
E1
330
17
100
AcDbEntity
  8
A-WALL
100
AcDbPolyline
 90
6
 70
1
 10
6720.0
 20
3680.0
 10
6720.0
 20
2775.0
 10
6490.0
 20
2775.0
 10
6490.0
 20
3450.0
 10
6490.0
 20
3680.0
 10
6720.0
 20
3680.0
1001
FLOORFORGE
1000
floor:0
1000
preliminary
  0
HATCH
  5
E2
330
17
100
AcDbEntity
  8
A-WALL
 62
7
100
AcDbHatch
 10
0.0
 20
0.0
 30
0.0
210
0.0
220
0.0
230
1.0
  2
SOLID
 70
1
 71
0
 91
1
 92
3
 72
0
 73
1
 93
6
 10
6720.0
 20
3680.0
 10
6720.0
 20
2775.0
 10
6490.0
 20
2775.0
 10
6490.0
 20
3450.0
 10
6490.0
 20
3680.0
 10
6720.0
 20
3680.0
 97
0
 75
0
 76
1
 98
0
  0
LWPOLYLINE
  5
E3
330
17
100
AcDbEntity
  8
A-WALL
100
AcDbPolyline
 90
5
 70
1
 10
6720.0
 20
0.0
 10
6490.0
 20
0.0
 10
6490.0
 20
675.0
 10
6720.0
 20
675.0
 10
6720.0
 20
0.0
1001
FLOORFORGE
1000
floor:0
1000
preliminary
  0
HATCH
  5
E4
330
17
100
AcDbEntity
  8
A-WALL
 62
7
100
AcDbHatch
 10
0.0
 20
0.0
 30
0.0
210
0.0
220
0.0
230
1.0
  2
SOLID
 70
1
 71
0
 91
1
 92
3
 72
0
 73
1
 93
5
 10
6720.0
 20
0.0
 10
6490.0
 20
0.0
 10
6490.0
 20
675.0
 10
6720.0
 20
675.0
 10
6720.0
 20
0.0
 97
0
 75
0
 76
1
 98
0
  0
LWPOLYLINE
  5
E5
330
17
100
AcDbEntity
  8
A-WALL
100
AcDbPolyline
 90
6
 70
1
 10
6490.0
 20
5180.0
 10
6720.0
 20
5180.0
 10
6720.0
 20
3220.0
 10
6490.0
 20
3220.0
 10
6490.0
 20
4950.0
 10
6490.0
 20
5180.0
1001
FLOORFORGE
1000
floor:0
1000
preliminary
  0
HATCH
  5
E6
330
17
100
AcDbEntity
  8
A-WALL
 62
7
100
AcDbHatch
 10
0.0
 20
0.0
 30
0.0
210
0.0
220
0.0
230
1.0
  2
SOLID
 70
1
 71
0
 91
1
 92
3
 72
0
 73
1
 93
6
 10
6490.0
 20
5180.0
 10
6720.0
 20
5180.0
 10
6720.0
 20
3220.0
 10
6490.0
 20
3220.0
 10
6490.0
 20
4950.0
 10
6490.0
 20
5180.0
 97
0
 75
0
 76
1
 98
0
  0
LWPOLYLINE
  5
E7
330
17
100
AcDbEntity
  8
A-WALL
100
AcDbPolyline
 90
5
 70
1
 10
6490.0
 20
5859.0
 10
6720.0
 20
5859.0
 10
6720.0
 20
4720.0
 10
6490.0
 20
4720.0
 10
6490.0
 20
5859.0
1001
FLOORFORGE
1000
floor:0
1000
preliminary
  0
HATCH
  5
E8
330
17
100
AcDbEntity
  8
A-WALL
 62
7
100
AcDbHatch
 10
0.0
 20
0.0
 30
0.0
210
0.0
220
0.0
230
1.0
  2
SOLID
 70
1
 71
0
 91
1
 92
3
 72
0
 73
1
 93
5
 10
6490.0
 20
5859.0
 10
6720.0
 20
5859.0
 10
6720.0
 20
4720.0
 10
6490.0
 20
4720.0
 10
6490.0
 20
5859.0
 97
0
 75
0
 76
1
 98
0
  0
LWPOLYLINE
  5
E9
330
17
100
AcDbEntity
  8
A-WALL
100
AcDbPolyline
 90
5
 70
1
 10
6490.0
 20
8868.0
 10
6720.0
 20
8868.0
 10
6720.0
 20
7959.0
 10
6490.0
 20
7959.0
 10
6490.0
 20
8868.0
1001
FLOORFORGE
1000
floor:0
1000
preliminary
  0
HATCH
  5
EA
330
17
100
AcDbEntity
  8
A-WALL
 62
7
100
AcDbHatch
 10
0.0
 20
0.0
 30
0.0
210
0.0
220
0.0
230
1.0
  2
SOLID
 70
1
 71
0
 91
1
 92
3
 72
0
 73
1
 93
5
 10
6490.0
 20
8868.0
 10
6720.0
 20
8868.0
 10
6720.0
 20
7959.0
 10
6490.0
 20
7959.0
 10
6490.0
 20
8868.0
 97
0
 75
0
 76
1
 98
0
  0
LINE
  5
EB
330
17
100
AcDbEntity
  8
A-DOOR
100
AcDbLine
 10
3675.0
 20
7159.0
 30
0.0
 11
2925.0
 21
7159.0
 31
0.0
1001
FLOORFORGE
1000
floor:0
1000
preliminary
  0
LWPOLYLINE
  5
EC
330
17
100
AcDbEntity
  8
A-DOOR
100
AcDbPolyline
 90
18
 70
0
 10
3675.0
 20
7909.0
 10
3605.7987304025237
 20
7905.800632221276
 10
3537.187861637572
 20
7896.229824762926
 10
3469.7527574459377
 20
7880.369232379614
 10
3404.0687503596355
 20
7858.354172053267
 10
3340.6962331675963
 20
7830.372468516297
 10
3280.175877841983
 20
7796.66285179721
 10
3223.0240227155577
 20
7757.51292046018
 10
3169.728267265082
 20
7713.256687915495
 10
3120.7433120845058
 20
7664.271732734918
 10
3076.48707953982
 20
7610.975977284443
 10
3037.3371482027896
 20
7553.8241221580165
 10
3003.627531483703
 20
7493.303766832404
 10
2975.6458279467333
 20
7429.9312496403645
 10
2953.630767620386
 20
7364.247242554062
 10
2937.7701752370735
 20
7296.8121383624275
 10
2928.199367778724
 20
7228.201269597476
 10
2925.0
 20
7159.0
1001
FLOORFORGE
1000
floor:0
1000
preliminary
  0
TEXT
  5
ED
330
17
100
AcDbEntity
  8
A-TAGS
100
AcDbText
 10
4075.0
 20
7474.0
 30
0.0
 40
150.0
  1
D1
 72
1
 11
4075.0
 21
7474.0
 31
0.0
100
AcDbText
 73
1
1001
FLOORFORGE
1000
floor:0
1000
preliminary
  0
LINE
  5
EE
330
17
100
AcDbEntity
  8
A-DOOR
100
AcDbLine
 10
3825.0
 20
5100.0
 30
0.0
 11
4725.0
 21
5100.0
 31
0.0
1001
FLOORFORGE
1000
floor:0
1000
preliminary
  0
LWPOLYLINE
  5
EF
330
17
100
AcDbEntity
  8
A-DOOR
100
AcDbPolyline
 90
18
 70
0
 10
3825.0
 20
6000.0
 10
3908.0415235169717
 20
5996.160758665531
 10
3990.374566034913
 20
5984.675789715511
 10
4071.2966910648747
 20
5965.643078855537
 10
4150.117499568438
 20
5939.22500646392
 10
4226.164520198884
 20
5905.646962219556
 10
4298.7889465896205
 20
5865.195422156653
 10
4367.371172741331
 20
5818.215504552216
 10
4431.326079281902
 20
5765.108025498594
 10
4490.108025498594
 20
5706.326079281902
 10
4543.215504552216
 20
5642.371172741331
 10
4590.195422156653
 20
5573.7889465896205
 10
4630.646962219556
 20
5501.164520198885
 10
4664.22500646392
 20
5425.117499568438
 10
4690.643078855537
 20
5346.296691064875
 10
4709.675789715511
 20
5265.374566034913
 10
4721.160758665531
 20
5183.041523516972
 10
4725.0
 20
5100.0
1001
FLOORFORGE
1000
floor:0
1000
preliminary
  0
TEXT
  5
F0
330
17
100
AcDbEntity
  8
A-TAGS
100
AcDbText
 10
3425.0
 20
5490.0
 30
0.0
 40
150.0
  1
D2
 72
1
 11
3425.0
 21
5490.0
 31
0.0
100
AcDbText
 73
1
1001
FLOORFORGE
1000
floor:0
1000
preliminary
  0
LINE
  5
F1
330
17
100
AcDbEntity
  8
A-DOOR
100
AcDbLine
 10
3825.0
 20
3600.0
 30
0.0
 11
4575.0
 21
3600.0
 31
0.0
1001
FLOORFORGE
1000
floor:0
1000
preliminary
  0
LWPOLYLINE
  5
F2
330
17
100
AcDbEntity
  8
A-DOOR
100
AcDbPolyline
 90
18
 70
0
 10
3825.0
 20
4350.0
 10
3894.2012695974763
 20
4346.800632221276
 10
3962.812138362428
 20
4337.229824762926
 10
4030.2472425540623
 20
4321.369232379614
 10
4095.9312496403645
 20
4299.354172053267
 10
4159.303766832404
 20
4271.372468516297
 10
4219.8241221580165
 20
4237.66285179721
 10
4276.975977284443
 20
4198.51292046018
 10
4330.271732734918
 20
4154.256687915495
 10
4379.256687915495
 20
4105.271732734918
 10
4423.51292046018
 20
4051.9759772844423
 10
4462.66285179721
 20
3994.824122158017
 10
4496.372468516297
 20
3934.3037668324037
 10
4524.354172053267
 20
3870.931249640365
 10
4546.369232379614
 20
3805.2472425540623
 10
4562.229824762926
 20
3737.8121383624275
 10
4571.800632221276
 20
3669.2012695974763
 10
4575.0
 20
3600.0
1001
FLOORFORGE
1000
floor:0
1000
preliminary
  0
TEXT
  5
F3
330
17
100
AcDbEntity
  8
A-TAGS
100
AcDbText
 10
3425.0
 20
3915.0
 30
0.0
 40
150.0
  1
D1
 72
1
 11
3425.0
 21
3915.0
 31
0.0
100
AcDbText
 73
1
1001
FLOORFORGE
1000
floor:0
1000
preliminary
  0
LINE
  5
F4
330
17
100
AcDbEntity
  8
A-DOOR
100
AcDbLine
 10
450.0
 20
3375.0
 30
0.0
 11
1950.0
 21
3375.0
 31
0.0
1001
FLOORFORGE
1000
floor:0
1000
preliminary
  0
LINE
  5
F5
330
17
100
AcDbEntity
  8
A-DOOR
100
AcDbLine
 10
450.0
 20
3525.0
 30
0.0
 11
1950.0
 21
3525.0
 31
0.0
1001
FLOORFORGE
1000
floor:0
1000
preliminary
  0
TEXT
  5
F6
330
17
100
AcDbEntity
  8
A-TAGS
100
AcDbText
 10
1200.0
 20
3065.0
 30
0.0
 40
150.0
  1
O1
 72
1
 11
1200.0
 21
3065.0
 31
0.0
100
AcDbText
 73
1
1001
FLOORFORGE
1000
floor:0
1000
preliminary
  0
LINE
  5
F7
330
17
100
AcDbEntity
  8
A-DOOR
100
AcDbLine
 10
2250.0
 20
7443.0
 30
0.0
 11
2250.0
 21
8193.0
 31
0.0
1001
FLOORFORGE
1000
floor:0
1000
preliminary
  0
LWPOLYLINE
  5
F8
330
17
100
AcDbEntity
  8
A-DOOR
100
AcDbPolyline
 90
18
 70
0
 10
1500.0
 20
7443.0
 10
1503.199367778724
 20
7512.201269597476
 10
1512.7701752370735
 20
7580.8121383624275
 10
1528.6307676203858
 20
7648.247242554062
 10
1550.645827946733
 20
7713.9312496403645
 10
1578.6275314837033
 20
7777.303766832404
 10
1612.3371482027892
 20
7837.8241221580165
 10
1651.4870795398203
 20
7894.975977284443
 10
1695.7433120845058
 20
7948.271732734918
 10
1744.7282672650822
 20
7997.256687915495
 10
1798.0240227155577
 20
8041.51292046018
 10
1855.175877841983
 20
8080.66285179721
 10
1915.6962331675963
 20
8114.372468516297
 10
1979.0687503596353
 20
8142.354172053267
 10
2044.752757445938
 20
8164.369232379614
 10
2112.1878616375725
 20
8180.229824762926
 10
2180.7987304025237
 20
8189.800632221276
 10
2250.0
 20
8193.0
1001
FLOORFORGE
1000
floor:0
1000
preliminary
  0
TEXT
  5
F9
330
17
100
AcDbEntity
  8
A-TAGS
100
AcDbText
 10
1875.0
 20
6983.0
 30
0.0
 40
150.0
  1
D1
 72
1
 11
1875.0
 21
6983.0
 31
0.0
100
AcDbText
 73
1
1001
FLOORFORGE
1000
floor:0
1000
preliminary
  0
LINE
  5
FA
330
17
100
AcDbEntity
  8
A-WIND
100
AcDbLine
 10
0.0
 20
675.0
 30
0.0
 11
0.0
 21
2775.0
 31
0.0
1001
FLOORFORGE
1000
floor:0
1000
preliminary
  0
LINE
  5
FB
330
17
100
AcDbEntity
  8
A-WIND
100
AcDbLine
 10
230.0
 20
675.0
 30
0.0
 11
230.0
 21
2775.0
 31
0.0
1001
FLOORFORGE
1000
floor:0
1000
preliminary
  0
LINE
  5
FC
330
17
100
AcDbEntity
  8
A-WIND
100
AcDbLine
 10
97.0
 20
675.0
 30
0.0
 11
97.0
 21
2775.0
 31
0.0
1001
FLOORFORGE
1000
floor:0
1000
preliminary
  0
LINE
  5
FD
330
17
100
AcDbEntity
  8
A-WIND
100
AcDbLine
 10
133.0
 20
675.0
 30
0.0
 11
133.0
 21
2775.0
 31
0.0
1001
FLOORFORGE
1000
floor:0
1000
preliminary
  0
LINE
  5
FE
330
17
100
AcDbEntity
  8
A-WIND
100
AcDbLine
 10
0.0
 20
675.0
 30
0.0
 11
230.0
 21
675.0
 31
0.0
1001
FLOORFORGE
1000
floor:0
1000
preliminary
  0
LINE
  5
FF
330
17
100
AcDbEntity
  8
A-WIND
100
AcDbLine
 10
0.0
 20
2775.0
 30
0.0
 11
230.0
 21
2775.0
 31
0.0
1001
FLOORFORGE
1000
floor:0
1000
preliminary
  0
TEXT
  5
100
330
17
100
AcDbEntity
  8
A-TAGS
100
AcDbText
 10
-380.0
 20
1665.0
 30
0.0
 40
150.0
  1
W1
 72
1
 11
-380.0
 21
1665.0
 31
0.0
100
AcDbText
 73
1
1001
FLOORFORGE
1000
floor:0
1000
preliminary
  0
LINE
  5
101
330
17
100
AcDbEntity
  8
A-DOOR
100
AcDbLine
 10
700.0
 20
230.0
 30
0.0
 11
700.0
 21
1430.0
 31
0.0
1001
FLOORFORGE
1000
floor:0
1000
preliminary
  0
LWPOLYLINE
  5
102
330
17
100
AcDbEntity
  8
A-DOOR
100
AcDbPolyline
 90
18
 70
0
 10
1900.0
 20
230.0
 10
1894.8810115540414
 20
340.7220313559624
 10
1879.567719620682
 20
450.49942137988444
 10
1854.1907718073828
 20
558.3955880864994
 10
1818.966675285227
 20
663.4899994245835
 10
1774.1959496260747
 20
764.8860269318459
 10
1720.260562875537
 20
861.7185954528269
 10
1657.6206727362874
 20
953.1615636551077
 10
1586.810700664791
 20
1038.4347723758688
 10
1508.4347723758688
 20
1116.810700664791
 10
1423.1615636551078
 20
1187.6206727362874
 10
1331.718595452827
 20
1250.2605628755368
 10
1234.8860269318461
 20
1304.1959496260747
 10
1133.4899994245836
 20
1348.966675285227
 10
1028.3955880864994
 20
1384.1907718073828
 10
920.4994213798843
 20
1409.567719620682
 10
810.7220313559624
 20
1424.8810115540414
 10
700.0000000000001
 20
1430.0
1001
FLOORFORGE
1000
floor:0
1000
preliminary
  0
TEXT
  5
103
330
17
100
AcDbEntity
  8
A-TAGS
100
AcDbText
 10
1300.0
 20
-310.0
 30
0.0
 40
150.0
  1
D3
 72
1
 11
1300.0
 21
-310.0
 31
0.0
100
AcDbText
 73
1
1001
FLOORFORGE
1000
floor:0
1000
preliminary
  0
LINE
  5
104
330
17
100
AcDbEntity
  8
A-WIND
100
AcDbLine
 10
2010.0
 20
0.0
 30
0.0
 11
4710.0
 21
0.0
 31
0.0
1001
FLOORFORGE
1000
floor:0
1000
preliminary
  0
LINE
  5
105
330
17
100
AcDbEntity
  8
A-WIND
100
AcDbLine
 10
2010.0
 20
230.0
 30
0.0
 11
4710.0
 21
230.0
 31
0.0
1001
FLOORFORGE
1000
floor:0
1000
preliminary
  0
LINE
  5
106
330
17
100
AcDbEntity
  8
A-WIND
100
AcDbLine
 10
2010.0
 20
97.0
 30
0.0
 11
4710.0
 21
97.0
 31
0.0
1001
FLOORFORGE
1000
floor:0
1000
preliminary
  0
LINE
  5
107
330
17
100
AcDbEntity
  8
A-WIND
100
AcDbLine
 10
2010.0
 20
133.0
 30
0.0
 11
4710.0
 21
133.0
 31
0.0
1001
FLOORFORGE
1000
floor:0
1000
preliminary
  0
LINE
  5
108
330
17
100
AcDbEntity
  8
A-WIND
100
AcDbLine
 10
2010.0
 20
0.0
 30
0.0
 11
2010.0
 21
230.0
 31
0.0
1001
FLOORFORGE
1000
floor:0
1000
preliminary
  0
LINE
  5
109
330
17
100
AcDbEntity
  8
A-WIND
100
AcDbLine
 10
4710.0
 20
0.0
 30
0.0
 11
4710.0
 21
230.0
 31
0.0
1001
FLOORFORGE
1000
floor:0
1000
preliminary
  0
TEXT
  5
10A
330
17
100
AcDbEntity
  8
A-TAGS
100
AcDbText
 10
3360.0
 20
-440.0
 30
0.0
 40
150.0
  1
W2
 72
1
 11
3360.0
 21
-440.0
 31
0.0
100
AcDbText
 73
1
1001
FLOORFORGE
1000
floor:0
1000
preliminary
  0
LINE
  5
10B
330
17
100
AcDbEntity
  8
A-WIND
100
AcDbLine
 10
0.0
 20
4359.0
 30
0.0
 11
0.0
 21
6459.0
 31
0.0
1001
FLOORFORGE
1000
floor:0
1000
preliminary
  0
LINE
  5
10C
330
17
100
AcDbEntity
  8
A-WIND
100
AcDbLine
 10
230.0
 20
4359.0
 30
0.0
 11
230.0
 21
6459.0
 31
0.0
1001
FLOORFORGE
1000
floor:0
1000
preliminary
  0
LINE
  5
10D
330
17
100
AcDbEntity
  8
A-WIND
100
AcDbLine
 10
97.0
 20
4359.0
 30
0.0
 11
97.0
 21
6459.0
 31
0.0
1001
FLOORFORGE
1000
floor:0
1000
preliminary
  0
LINE
  5
10E
330
17
100
AcDbEntity
  8
A-WIND
100
AcDbLine
 10
133.0
 20
4359.0
 30
0.0
 11
133.0
 21
6459.0
 31
0.0
1001
FLOORFORGE
1000
floor:0
1000
preliminary
  0
LINE
  5
10F
330
17
100
AcDbEntity
  8
A-WIND
100
AcDbLine
 10
0.0
 20
4359.0
 30
0.0
 11
230.0
 21
4359.0
 31
0.0
1001
FLOORFORGE
1000
floor:0
1000
preliminary
  0
LINE
  5
110
330
17
100
AcDbEntity
  8
A-WIND
100
AcDbLine
 10
0.0
 20
6459.0
 30
0.0
 11
230.0
 21
6459.0
 31
0.0
1001
FLOORFORGE
1000
floor:0
1000
preliminary
  0
TEXT
  5
111
330
17
100
AcDbEntity
  8
A-TAGS
100
AcDbText
 10
-380.0
 20
5349.0
 30
0.0
 40
150.0
  1
W3
 72
1
 11
-380.0
 21
5349.0
 31
0.0
100
AcDbText
 73
1
1001
FLOORFORGE
1000
floor:0
1000
preliminary
  0
LINE
  5
112
330
17
100
AcDbEntity
  8
A-WIND
100
AcDbLine
 10
0.0
 20
7668.0
 30
0.0
 11
0.0
 21
8568.0
 31
0.0
1001
FLOORFORGE
1000
floor:0
1000
preliminary
  0
LINE
  5
113
330
17
100
AcDbEntity
  8
A-WIND
100
AcDbLine
 10
230.0
 20
7668.0
 30
0.0
 11
230.0
 21
8568.0
 31
0.0
1001
FLOORFORGE
1000
floor:0
1000
preliminary
  0
LINE
  5
114
330
17
100
AcDbEntity
  8
A-WIND
100
AcDbLine
 10
97.0
 20
7668.0
 30
0.0
 11
97.0
 21
8568.0
 31
0.0
1001
FLOORFORGE
1000
floor:0
1000
preliminary
  0
LINE
  5
115
330
17
100
AcDbEntity
  8
A-WIND
100
AcDbLine
 10
133.0
 20
7668.0
 30
0.0
 11
133.0
 21
8568.0
 31
0.0
1001
FLOORFORGE
1000
floor:0
1000
preliminary
  0
LINE
  5
116
330
17
100
AcDbEntity
  8
A-WIND
100
AcDbLine
 10
0.0
 20
7668.0
 30
0.0
 11
230.0
 21
7668.0
 31
0.0
1001
FLOORFORGE
1000
floor:0
1000
preliminary
  0
LINE
  5
117
330
17
100
AcDbEntity
  8
A-WIND
100
AcDbLine
 10
0.0
 20
8568.0
 30
0.0
 11
230.0
 21
8568.0
 31
0.0
1001
FLOORFORGE
1000
floor:0
1000
preliminary
  0
TEXT
  5
118
330
17
100
AcDbEntity
  8
A-TAGS
100
AcDbText
 10
-380.0
 20
8058.0
 30
0.0
 40
150.0
  1
W4
 72
1
 11
-380.0
 21
8058.0
 31
0.0
100
AcDbText
 73
1
1001
FLOORFORGE
1000
floor:0
1000
preliminary
  0
LINE
  5
119
330
17
100
AcDbEntity
  8
A-WIND
100
AcDbLine
 10
600.0
 20
8868.0
 30
0.0
 11
1800.0
 21
8868.0
 31
0.0
1001
FLOORFORGE
1000
floor:0
1000
preliminary
  0
LINE
  5
11A
330
17
100
AcDbEntity
  8
A-WIND
100
AcDbLine
 10
600.0
 20
8638.0
 30
0.0
 11
1800.0
 21
8638.0
 31
0.0
1001
FLOORFORGE
1000
floor:0
1000
preliminary
  0
LINE
  5
11B
330
17
100
AcDbEntity
  8
A-WIND
100
AcDbLine
 10
600.0
 20
8771.0
 30
0.0
 11
1800.0
 21
8771.0
 31
0.0
1001
FLOORFORGE
1000
floor:0
1000
preliminary
  0
LINE
  5
11C
330
17
100
AcDbEntity
  8
A-WIND
100
AcDbLine
 10
600.0
 20
8735.0
 30
0.0
 11
1800.0
 21
8735.0
 31
0.0
1001
FLOORFORGE
1000
floor:0
1000
preliminary
  0
LINE
  5
11D
330
17
100
AcDbEntity
  8
A-WIND
100
AcDbLine
 10
600.0
 20
8868.0
 30
0.0
 11
600.0
 21
8638.0
 31
0.0
1001
FLOORFORGE
1000
floor:0
1000
preliminary
  0
LINE
  5
11E
330
17
100
AcDbEntity
  8
A-WIND
100
AcDbLine
 10
1800.0
 20
8868.0
 30
0.0
 11
1800.0
 21
8638.0
 31
0.0
1001
FLOORFORGE
1000
floor:0
1000
preliminary
  0
TEXT
  5
11F
330
17
100
AcDbEntity
  8
A-TAGS
100
AcDbText
 10
1200.0
 20
9188.0
 30
0.0
 40
150.0
  1
W5
 72
1
 11
1200.0
 21
9188.0
 31
0.0
100
AcDbText
 73
1
1001
FLOORFORGE
1000
floor:0
1000
preliminary
  0
LINE
  5
120
330
17
100
AcDbEntity
  8
A-WIND
100
AcDbLine
 10
2775.0
 20
8868.0
 30
0.0
 11
3375.0
 21
8868.0
 31
0.0
1001
FLOORFORGE
1000
floor:0
1000
preliminary
  0
LINE
  5
121
330
17
100
AcDbEntity
  8
A-WIND
100
AcDbLine
 10
2775.0
 20
8638.0
 30
0.0
 11
3375.0
 21
8638.0
 31
0.0
1001
FLOORFORGE
1000
floor:0
1000
preliminary
  0
LINE
  5
122
330
17
100
AcDbEntity
  8
A-WIND
100
AcDbLine
 10
2775.0
 20
8771.0
 30
0.0
 11
3375.0
 21
8771.0
 31
0.0
1001
FLOORFORGE
1000
floor:0
1000
preliminary
  0
LINE
  5
123
330
17
100
AcDbEntity
  8
A-WIND
100
AcDbLine
 10
2775.0
 20
8735.0
 30
0.0
 11
3375.0
 21
8735.0
 31
0.0
1001
FLOORFORGE
1000
floor:0
1000
preliminary
  0
LINE
  5
124
330
17
100
AcDbEntity
  8
A-WIND
100
AcDbLine
 10
2775.0
 20
8868.0
 30
0.0
 11
2775.0
 21
8638.0
 31
0.0
1001
FLOORFORGE
1000
floor:0
1000
preliminary
  0
LINE
  5
125
330
17
100
AcDbEntity
  8
A-WIND
100
AcDbLine
 10
3375.0
 20
8868.0
 30
0.0
 11
3375.0
 21
8638.0
 31
0.0
1001
FLOORFORGE
1000
floor:0
1000
preliminary
  0
TEXT
  5
126
330
17
100
AcDbEntity
  8
A-TAGS
100
AcDbText
 10
3075.0
 20
9188.0
 30
0.0
 40
150.0
  1
V1
 72
1
 11
3075.0
 21
9188.0
 31
0.0
100
AcDbText
 73
1
1001
FLOORFORGE
1000
floor:0
1000
preliminary
  0
LINE
  5
127
330
17
100
AcDbEntity
  8
A-WIND
100
AcDbLine
 10
4485.0
 20
8868.0
 30
0.0
 11
5985.0
 21
8868.0
 31
0.0
1001
FLOORFORGE
1000
floor:0
1000
preliminary
  0
LINE
  5
128
330
17
100
AcDbEntity
  8
A-WIND
100
AcDbLine
 10
4485.0
 20
8638.0
 30
0.0
 11
5985.0
 21
8638.0
 31
0.0
1001
FLOORFORGE
1000
floor:0
1000
preliminary
  0
LINE
  5
129
330
17
100
AcDbEntity
  8
A-WIND
100
AcDbLine
 10
4485.0
 20
8771.0
 30
0.0
 11
5985.0
 21
8771.0
 31
0.0
1001
FLOORFORGE
1000
floor:0
1000
preliminary
  0
LINE
  5
12A
330
17
100
AcDbEntity
  8
A-WIND
100
AcDbLine
 10
4485.0
 20
8735.0
 30
0.0
 11
5985.0
 21
8735.0
 31
0.0
1001
FLOORFORGE
1000
floor:0
1000
preliminary
  0
LINE
  5
12B
330
17
100
AcDbEntity
  8
A-WIND
100
AcDbLine
 10
4485.0
 20
8868.0
 30
0.0
 11
4485.0
 21
8638.0
 31
0.0
1001
FLOORFORGE
1000
floor:0
1000
preliminary
  0
LINE
  5
12C
330
17
100
AcDbEntity
  8
A-WIND
100
AcDbLine
 10
5985.0
 20
8868.0
 30
0.0
 11
5985.0
 21
8638.0
 31
0.0
1001
FLOORFORGE
1000
floor:0
1000
preliminary
  0
TEXT
  5
12D
330
17
100
AcDbEntity
  8
A-TAGS
100
AcDbText
 10
5235.0
 20
9188.0
 30
0.0
 40
150.0
  1
W6
 72
1
 11
5235.0
 21
9188.0
 31
0.0
100
AcDbText
 73
1
1001
FLOORFORGE
1000
floor:0
1000
preliminary
  0
LINE
  5
12E
330
17
100
AcDbEntity
  8
A-WIND
100
AcDbLine
 10
6720.0
 20
675.0
 30
0.0
 11
6720.0
 21
2775.0
 31
0.0
1001
FLOORFORGE
1000
floor:0
1000
preliminary
  0
LINE
  5
12F
330
17
100
AcDbEntity
  8
A-WIND
100
AcDbLine
 10
6490.0
 20
675.0
 30
0.0
 11
6490.0
 21
2775.0
 31
0.0
1001
FLOORFORGE
1000
floor:0
1000
preliminary
  0
LINE
  5
130
330
17
100
AcDbEntity
  8
A-WIND
100
AcDbLine
 10
6623.0
 20
675.0
 30
0.0
 11
6623.0
 21
2775.0
 31
0.0
1001
FLOORFORGE
1000
floor:0
1000
preliminary
  0
LINE
  5
131
330
17
100
AcDbEntity
  8
A-WIND
100
AcDbLine
 10
6587.0
 20
675.0
 30
0.0
 11
6587.0
 21
2775.0
 31
0.0
1001
FLOORFORGE
1000
floor:0
1000
preliminary
  0
LINE
  5
132
330
17
100
AcDbEntity
  8
A-WIND
100
AcDbLine
 10
6720.0
 20
675.0
 30
0.0
 11
6490.0
 21
675.0
 31
0.0
1001
FLOORFORGE
1000
floor:0
1000
preliminary
  0
LINE
  5
133
330
17
100
AcDbEntity
  8
A-WIND
100
AcDbLine
 10
6720.0
 20
2775.0
 30
0.0
 11
6490.0
 21
2775.0
 31
0.0
1001
FLOORFORGE
1000
floor:0
1000
preliminary
  0
TEXT
  5
134
330
17
100
AcDbEntity
  8
A-TAGS
100
AcDbText
 10
7100.0
 20
1665.0
 30
0.0
 40
150.0
  1
W1
 72
1
 11
7100.0
 21
1665.0
 31
0.0
100
AcDbText
 73
1
1001
FLOORFORGE
1000
floor:0
1000
preliminary
  0
LINE
  5
135
330
17
100
AcDbEntity
  8
A-WIND
100
AcDbLine
 10
6720.0
 20
3825.0
 30
0.0
 11
6720.0
 21
4575.0
 31
0.0
1001
FLOORFORGE
1000
floor:0
1000
preliminary
  0
LINE
  5
136
330
17
100
AcDbEntity
  8
A-WIND
100
AcDbLine
 10
6490.0
 20
3825.0
 30
0.0
 11
6490.0
 21
4575.0
 31
0.0
1001
FLOORFORGE
1000
floor:0
1000
preliminary
  0
LINE
  5
137
330
17
100
AcDbEntity
  8
A-WIND
100
AcDbLine
 10
6623.0
 20
3825.0
 30
0.0
 11
6623.0
 21
4575.0
 31
0.0
1001
FLOORFORGE
1000
floor:0
1000
preliminary
  0
LINE
  5
138
330
17
100
AcDbEntity
  8
A-WIND
100
AcDbLine
 10
6587.0
 20
3825.0
 30
0.0
 11
6587.0
 21
4575.0
 31
0.0
1001
FLOORFORGE
1000
floor:0
1000
preliminary
  0
LINE
  5
139
330
17
100
AcDbEntity
  8
A-WIND
100
AcDbLine
 10
6720.0
 20
3825.0
 30
0.0
 11
6490.0
 21
3825.0
 31
0.0
1001
FLOORFORGE
1000
floor:0
1000
preliminary
  0
LINE
  5
13A
330
17
100
AcDbEntity
  8
A-WIND
100
AcDbLine
 10
6720.0
 20
4575.0
 30
0.0
 11
6490.0
 21
4575.0
 31
0.0
1001
FLOORFORGE
1000
floor:0
1000
preliminary
  0
TEXT
  5
13B
330
17
100
AcDbEntity
  8
A-TAGS
100
AcDbText
 10
7100.0
 20
4140.0
 30
0.0
 40
150.0
  1
V2
 72
1
 11
7100.0
 21
4140.0
 31
0.0
100
AcDbText
 73
1
1001
FLOORFORGE
1000
floor:0
1000
preliminary
  0
LINE
  5
13C
330
17
100
AcDbEntity
  8
A-WIND
100
AcDbLine
 10
6720.0
 20
5859.0
 30
0.0
 11
6720.0
 21
7959.0
 31
0.0
1001
FLOORFORGE
1000
floor:0
1000
preliminary
  0
LINE
  5
13D
330
17
100
AcDbEntity
  8
A-WIND
100
AcDbLine
 10
6490.0
 20
5859.0
 30
0.0
 11
6490.0
 21
7959.0
 31
0.0
1001
FLOORFORGE
1000
floor:0
1000
preliminary
  0
LINE
  5
13E
330
17
100
AcDbEntity
  8
A-WIND
100
AcDbLine
 10
6623.0
 20
5859.0
 30
0.0
 11
6623.0
 21
7959.0
 31
0.0
1001
FLOORFORGE
1000
floor:0
1000
preliminary
  0
LINE
  5
13F
330
17
100
AcDbEntity
  8
A-WIND
100
AcDbLine
 10
6587.0
 20
5859.0
 30
0.0
 11
6587.0
 21
7959.0
 31
0.0
1001
FLOORFORGE
1000
floor:0
1000
preliminary
  0
LINE
  5
140
330
17
100
AcDbEntity
  8
A-WIND
100
AcDbLine
 10
6720.0
 20
5859.0
 30
0.0
 11
6490.0
 21
5859.0
 31
0.0
1001
FLOORFORGE
1000
floor:0
1000
preliminary
  0
LINE
  5
141
330
17
100
AcDbEntity
  8
A-WIND
100
AcDbLine
 10
6720.0
 20
7959.0
 30
0.0
 11
6490.0
 21
7959.0
 31
0.0
1001
FLOORFORGE
1000
floor:0
1000
preliminary
  0
TEXT
  5
142
330
17
100
AcDbEntity
  8
A-TAGS
100
AcDbText
 10
7100.0
 20
6849.0
 30
0.0
 40
150.0
  1
W7
 72
1
 11
7100.0
 21
6849.0
 31
0.0
100
AcDbText
 73
1
1001
FLOORFORGE
1000
floor:0
1000
preliminary
  0
LWPOLYLINE
  5
143
330
17
100
AcDbEntity
  8
A-FURN
100
AcDbPolyline
 90
4
 70
1
 10
5975.000000000001
 20
2195.0000000000005
 10
5975.000000000001
 20
3175.0
 10
4375.000000000001
 20
3175.0
 10
4375.000000000001
 20
2195.0000000000005
1001
FLOORFORGE
1000
floor:0
1000
preliminary
  0
LWPOLYLINE
  5
144
330
17
100
AcDbEntity
  8
A-FURN
100
AcDbPolyline
 90
4
 70
1
 10
5725.000000000001
 20
1100.0
 10
5725.000000000001
 20
1850.0
 10
4625.000000000001
 20
1850.0
 10
4625.000000000001
 20
1100.0
1001
FLOORFORGE
1000
floor:0
1000
preliminary
  0
LWPOLYLINE
  5
145
330
17
100
AcDbEntity
  8
A-FURN
100
AcDbPolyline
 90
4
 70
1
 10
6355.0
 20
2495.0
 10
6355.0
 20
2855.0
 10
5995.000000000001
 20
2855.0
 10
5995.000000000001
 20
2495.0
1001
FLOORFORGE
1000
floor:0
1000
preliminary
  0
LWPOLYLINE
  5
146
330
17
100
AcDbEntity
  8
A-FURN
100
AcDbPolyline
 90
4
 70
1
 10
3975.0000000000005
 20
1125.0
 10
3975.0000000000005
 20
1825.0
 10
3275.000000000001
 20
1825.0
 10
3275.000000000001
 20
1125.0
1001
FLOORFORGE
1000
floor:0
1000
preliminary
  0
LWPOLYLINE
  5
147
330
17
100
AcDbEntity
  8
A-FURN
100
AcDbPolyline
 90
4
 70
1
 10
3000.0000000000005
 20
1080.0000000000005
 10
3000.0000000000005
 20
2480.0000000000005
 10
1160.0000000000007
 20
2480.0000000000005
 10
1160.0000000000007
 20
1080.0000000000005
1001
FLOORFORGE
1000
floor:0
1000
preliminary
  0
LWPOLYLINE
  5
148
330
17
100
AcDbEntity
  8
A-FURN
100
AcDbPolyline
 90
4
 70
1
 10
890.0
 20
4135.000000000001
 10
890.0
 20
6995.000000000002
 10
235.00000000000003
 20
6995.000000000002
 10
235.00000000000003
 20
4135.000000000001
1001
FLOORFORGE
1000
floor:0
1000
preliminary
  0
LWPOLYLINE
  5
149
330
17
100
AcDbEntity
  8
A-FURN
100
AcDbPolyline
 90
4
 70
1
 10
850.0
 20
7643.0
 10
850.0
 20
8343.0
 10
250.0
 20
8343.0
 10
250.0
 20
7643.0
1001
FLOORFORGE
1000
floor:0
1000
preliminary
  0
LWPOLYLINE
  5
14A
330
17
100
AcDbEntity
  8
A-FURN
100
AcDbPolyline
 90
4
 70
1
 10
5405.0
 20
4135.0
 10
5405.0
 20
4855.0
 10
4944.999999999999
 20
4855.0
 10
4944.999999999999
 20
4135.0
1001
FLOORFORGE
1000
floor:0
1000
preliminary
  0
LWPOLYLINE
  5
14B
330
17
100
AcDbEntity
  8
A-FURN
100
AcDbPolyline
 90
4
 70
1
 10
4525.0
 20
4455.0
 10
4525.0
 20
4855.0
 10
4025.0000000000005
 20
4855.0
 10
4025.0000000000005
 20
4455.0
1001
FLOORFORGE
1000
floor:0
1000
preliminary
  0
LWPOLYLINE
  5
14C
330
17
100
AcDbEntity
  8
A-FURN
100
AcDbPolyline
 90
4
 70
1
 10
6490.0
 20
5045.0
 10
6490.0
 20
7215.0
 10
4890.000000000001
 20
7215.0
 10
4890.000000000001
 20
5045.0
1001
FLOORFORGE
1000
floor:0
1000
preliminary
  0
LWPOLYLINE
  5
14D
330
17
100
AcDbEntity
  8
A-FURN
100
AcDbPolyline
 90
4
 70
1
 10
5775.0
 20
8138.0
 10
5775.0
 20
8618.0
 10
4575.000000000001
 20
8618.0
 10
4575.000000000001
 20
8138.0
1001
FLOORFORGE
1000
floor:0
1000
preliminary
  0
LWPOLYLINE
  5
14E
330
17
100
AcDbEntity
  8
A-FURN
100
AcDbPolyline
 90
4
 70
1
 10
3105.0
 20
6295.0
 10
3105.0
 20
7015.000000000001
 10
2645.0
 20
7015.000000000001
 10
2645.0
 20
6295.0
1001
FLOORFORGE
1000
floor:0
1000
preliminary
  0
LWPOLYLINE
  5
14F
330
17
100
AcDbEntity
  8
A-FURN
100
AcDbPolyline
 90
4
 70
1
 10
3675.0000000000005
 20
8118.0
 10
3675.0000000000005
 20
8618.0
 10
2675.0000000000005
 20
8618.0
 10
2675.0000000000005
 20
8118.0
1001
FLOORFORGE
1000
floor:0
1000
preliminary
  0
LWPOLYLINE
  5
150
330
17
100
AcDbEntity
  8
A-EXT
100
AcDbPolyline
 90
4
 70
1
 10
0.0
 20
-950.0
 10
5376.0
 20
-950.0
 10
5376.0
 20
0.0
 10
0.0
 20
0.0
1001
FLOORFORGE
1000
floor:0
1000
preliminary
  0
TEXT
  5
151
330
17
100
AcDbEntity
  8
A-EXT
100
AcDbText
 10
2688.0
 20
-830.0
 30
0.0
 40
130.0
  1
PORCH
 72
1
 11
2688.0
 21
-830.0
 31
0.0
100
AcDbText
 73
1
1001
FLOORFORGE
1000
floor:0
1000
preliminary
  0
LWPOLYLINE
  5
152
330
17
100
AcDbEntity
  8
A-EXT
100
AcDbPolyline
 90
4
 70
1
 10
180.0
 20
-140.0
 10
440.0
 20
-140.0
 10
440.0
 20
-20.0
 10
180.0
 20
-20.0
1001
FLOORFORGE
1000
floor:0
1000
preliminary
  0
TEXT
  5
153
330
17
100
AcDbEntity
  8
A-EXT
100
AcDbText
 10
310.0
 20
-390.0
 30
0.0
 40
130.0
  1
ACCENT
 72
1
 11
310.0
 21
-390.0
 31
0.0
100
AcDbText
 73
1
1001
FLOORFORGE
1000
floor:0
1000
preliminary
  0
TEXT
  5
154
330
17
100
AcDbEntity
  8
A-ANNO
100
AcDbText
 10
3194.94140625
 20
1910.88671875
 30
0.0
 40
220.0
  1
LIVING & DINING
 72
1
 11
3194.94140625
 21
1910.88671875
 31
0.0
100
AcDbText
 73
1
1001
FLOORFORGE
1000
floor:0
1000
preliminary
  0
TEXT
  5
155
330
17
100
AcDbEntity
  8
A-ANNO
100
AcDbText
 10
3194.94140625
 20
1631.38671875
 30
0.0
 40
150.0
  1
6.26 x 3.15*
 72
1
 11
3194.94140625
 21
1631.38671875
 31
0.0
100
AcDbText
 73
1
1001
FLOORFORGE
1000
floor:0
1000
preliminary
  0
TEXT
  5
156
330
17
100
AcDbEntity
  8
A-ANNO
100
AcDbText
 10
3194.94140625
 20
1421.38671875
 30
0.0
 40
150.0
  1
19.8 m2
 72
1
 11
3194.94140625
 21
1421.38671875
 31
0.0
100
AcDbText
 73
1
1001
FLOORFORGE
1000
floor:0
1000
preliminary
  0
TEXT
  5
157
330
17
100
AcDbEntity
  8
A-ANNO
100
AcDbText
 10
3075.0
 20
4259.5
 30
0.0
 40
170.0
  1
HALL
 72
1
 11
3075.0
 21
4259.5
 31
0.0
100
AcDbText
 73
1
1001
FLOORFORGE
1000
floor:0
1000
preliminary
  0
TEXT
  5
158
330
17
100
AcDbEntity
  8
A-ANNO
100
AcDbText
 10
1277.5
 20
4979.5
 30
0.0
 40
220.0
  1
KITCHEN
 72
1
 11
1277.5
 21
4979.5
 31
0.0
100
AcDbText
 73
1
1001
FLOORFORGE
1000
floor:0
1000
preliminary
  0
TEXT
  5
159
330
17
100
AcDbEntity
  8
A-ANNO
100
AcDbText
 10
1277.5
 20
4700.0
 30
0.0
 40
150.0
  1
2.10 x 3.77
 72
1
 11
1277.5
 21
4700.0
 31
0.0
100
AcDbText
 73
1
1001
FLOORFORGE
1000
floor:0
1000
preliminary
  0
TEXT
  5
15A
330
17
100
AcDbEntity
  8
A-ANNO
100
AcDbText
 10
1277.5
 20
4490.0
 30
0.0
 40
150.0
  1
7.9 m2
 72
1
 11
1277.5
 21
4490.0
 31
0.0
100
AcDbText
 73
1
1001
FLOORFORGE
1000
floor:0
1000
preliminary
  0
TEXT
  5
15B
330
17
100
AcDbEntity
  8
A-ANNO
100
AcDbText
 10
1277.5
 20
8100.0
 30
0.0
 40
170.0
  1
UTILITY
 72
1
 11
1277.5
 21
8100.0
 31
0.0
100
AcDbText
 73
1
1001
FLOORFORGE
1000
floor:0
1000
preliminary
  0
TEXT
  5
15C
330
17
100
AcDbEntity
  8
A-ANNO
100
AcDbText
 10
1277.5
 20
7865.0
 30
0.0
 40
130.0
  1
2.10 x 1.20
 72
1
 11
1277.5
 21
7865.0
 31
0.0
100
AcDbText
 73
1
1001
FLOORFORGE
1000
floor:0
1000
preliminary
  0
TEXT
  5
15D
330
17
100
AcDbEntity
  8
A-ANNO
100
AcDbText
 10
1277.5
 20
7683.0
 30
0.0
 40
130.0
  1
2.5 m2
 72
1
 11
1277.5
 21
7683.0
 31
0.0
100
AcDbText
 73
1
1001
FLOORFORGE
1000
floor:0
1000
preliminary
  0
TEXT
  5
15E
330
17
100
AcDbEntity
  8
A-ANNO
100
AcDbText
 10
5157.5
 20
4259.5
 30
0.0
 40
170.0
  1
COMMON BATH
 72
1
 11
5157.5
 21
4259.5
 31
0.0
100
AcDbText
 73
1
1001
FLOORFORGE
1000
floor:0
1000
preliminary
  0
TEXT
  5
15F
330
17
100
AcDbEntity
  8
A-ANNO
100
AcDbText
 10
5157.5
 20
4024.5
 30
0.0
 40
130.0
  1
2.67 x 1.35
 72
1
 11
5157.5
 21
4024.5
 31
0.0
100
AcDbText
 73
1
1001
FLOORFORGE
1000
floor:0
1000
preliminary
  0
TEXT
  5
160
330
17
100
AcDbEntity
  8
A-ANNO
100
AcDbText
 10
5157.5
 20
3842.5
 30
0.0
 40
130.0
  1
3.6 m2
 72
1
 11
5157.5
 21
3842.5
 31
0.0
100
AcDbText
 73
1
1001
FLOORFORGE
1000
floor:0
1000
preliminary
  0
TEXT
  5
161
330
17
100
AcDbEntity
  8
A-ANNO
100
AcDbText
 10
5157.5
 20
6908.5
 30
0.0
 40
220.0
  1
MASTER BEDROOM
 72
1
 11
5157.5
 21
6908.5
 31
0.0
100
AcDbText
 73
1
1001
FLOORFORGE
1000
floor:0
1000
preliminary
  0
TEXT
  5
162
330
17
100
AcDbEntity
  8
A-ANNO
100
AcDbText
 10
5157.5
 20
6629.0
 30
0.0
 40
150.0
  1
2.67 x 3.61
 72
1
 11
5157.5
 21
6629.0
 31
0.0
100
AcDbText
 73
1
1001
FLOORFORGE
1000
floor:0
1000
preliminary
  0
TEXT
  5
163
330
17
100
AcDbEntity
  8
A-ANNO
100
AcDbText
 10
5157.5
 20
6419.0
 30
0.0
 40
150.0
  1
9.6 m2
 72
1
 11
5157.5
 21
6419.0
 31
0.0
100
AcDbText
 73
1
1001
FLOORFORGE
1000
floor:0
1000
preliminary
  0
TEXT
  5
164
330
17
100
AcDbEntity
  8
A-ANNO
100
AcDbText
 10
3075.0
 20
7516.0
 30
0.0
 40
170.0
  1
MASTER BATH
 72
1
 11
3075.0
 21
7516.0
 31
0.0
100
AcDbText
 73
1
1001
FLOORFORGE
1000
floor:0
1000
preliminary
  0
TEXT
  5
165
330
17
100
AcDbEntity
  8
A-ANNO
100
AcDbText
 10
3075.0
 20
7281.0
 30
0.0
 40
130.0
  1
1.20 x 2.36
 72
1
 11
3075.0
 21
7281.0
 31
0.0
100
AcDbText
 73
1
1001
FLOORFORGE
1000
floor:0
1000
preliminary
  0
TEXT
  5
166
330
17
100
AcDbEntity
  8
A-ANNO
100
AcDbText
 10
3075.0
 20
7099.0
 30
0.0
 40
130.0
  1
2.8 m2
 72
1
 11
3075.0
 21
7099.0
 31
0.0
100
AcDbText
 73
1
1001
FLOORFORGE
1000
floor:0
1000
preliminary
  0
DIMENSION
  5
167
330
17
100
AcDbEntity
  8
A-DIMS
100
AcDbDimension
280
0
  2
*D1
  3
FF-ARCH
 10
0.0
 20
-1500.0
 30
0.0
 11
350.0
 21
-1350.0
 31
0.0
 70
32
 71
5
  1
<>
100
AcDbAlignedDimension
 13
0.0
 23
0.0
 33
0.0
 14
700.0
 24
0.0
 34
0.0
 50
0.0
100
AcDbRotatedDimension
1001
FLOORFORGE
1000
floor:0
1000
preliminary
  0
DIMENSION
  5
17A
330
17
100
AcDbEntity
  8
A-DIMS
100
AcDbDimension
280
0
  2
*D2
  3
FF-ARCH
 10
700.0
 20
-1500.0
 30
0.0
 11
1300.0
 21
-1350.0
 31
0.0
 70
32
 71
5
  1
<>
100
AcDbAlignedDimension
 13
700.0
 23
0.0
 33
0.0
 14
1900.0
 24
0.0
 34
0.0
 50
0.0
100
AcDbRotatedDimension
1001
FLOORFORGE
1000
floor:0
1000
preliminary
  0
DIMENSION
  5
189
330
17
100
AcDbEntity
  8
A-DIMS
100
AcDbDimension
280
0
  2
*D3
  3
FF-ARCH
 10
1900.0
 20
-1500.0
 30
0.0
 11
1955.0
 21
-1230.0
 31
0.0
 70
32
 71
5
  1
<>
100
AcDbAlignedDimension
 13
1900.0
 23
0.0
 33
0.0
 14
2010.0
 24
0.0
 34
0.0
 50
0.0
100
AcDbRotatedDimension
1001
FLOORFORGE
1000
floor:0
1000
preliminary
  0
DIMENSION
  5
198
330
17
100
AcDbEntity
  8
A-DIMS
100
AcDbDimension
280
0
  2
*D4
  3
FF-ARCH
 10
2010.0
 20
-1500.0
 30
0.0
 11
3360.0
 21
-1350.0
 31
0.0
 70
32
 71
5
  1
<>
100
AcDbAlignedDimension
 13
2010.0
 23
0.0
 33
0.0
 14
4710.0
 24
0.0
 34
0.0
 50
0.0
100
AcDbRotatedDimension
1001
FLOORFORGE
1000
floor:0
1000
preliminary
  0
DIMENSION
  5
1A7
330
17
100
AcDbEntity
  8
A-DIMS
100
AcDbDimension
280
0
  2
*D5
  3
FF-ARCH
 10
4710.0
 20
-1500.0
 30
0.0
 11
5715.0
 21
-1350.0
 31
0.0
 70
32
 71
5
  1
<>
100
AcDbAlignedDimension
 13
4710.0
 23
0.0
 33
0.0
 14
6720.0
 24
0.0
 34
0.0
 50
0.0
100
AcDbRotatedDimension
1001
FLOORFORGE
1000
floor:0
1000
preliminary
  0
DIMENSION
  5
1B6
330
17
100
AcDbEntity
  8
A-DIMS
100
AcDbDimension
280
0
  2
*D6
  3
FF-ARCH
 10
0.0
 20
-1950.0
 30
0.0
 11
3360.0
 21
-1800.0
 31
0.0
 70
32
 71
5
  1
<>
100
AcDbAlignedDimension
 13
0.0
 23
0.0
 33
0.0
 14
6720.0
 24
0.0
 34
0.0
 50
0.0
100
AcDbRotatedDimension
1001
FLOORFORGE
1000
floor:0
1000
preliminary
  0
DIMENSION
  5
1C5
330
17
100
AcDbEntity
  8
A-DIMS
100
AcDbDimension
280
0
  2
*D7
  3
FF-ARCH
 10
0.0
 20
9418.0
 30
0.0
 11
300.0
 21
9568.0
 31
0.0
 70
32
 71
5
  1
<>
100
AcDbAlignedDimension
 13
0.0
 23
8868.0
 33
0.0
 14
600.0
 24
8868.0
 34
0.0
 50
0.0
100
AcDbRotatedDimension
1001
FLOORFORGE
1000
floor:0
1000
preliminary
  0
DIMENSION
  5
1D4
330
17
100
AcDbEntity
  8
A-DIMS
100
AcDbDimension
280
0
  2
*D8
  3
FF-ARCH
 10
600.0
 20
9418.0
 30
0.0
 11
1200.0
 21
9568.0
 31
0.0
 70
32
 71
5
  1
<>
100
AcDbAlignedDimension
 13
600.0
 23
8868.0
 33
0.0
 14
1800.0
 24
8868.0
 34
0.0
 50
0.0
100
AcDbRotatedDimension
1001
FLOORFORGE
1000
floor:0
1000
preliminary
  0
DIMENSION
  5
1E3
330
17
100
AcDbEntity
  8
A-DIMS
100
AcDbDimension
280
0
  2
*D9
  3
FF-ARCH
 10
1800.0
 20
9418.0
 30
0.0
 11
2287.5
 21
9568.0
 31
0.0
 70
32
 71
5
  1
<>
100
AcDbAlignedDimension
 13
1800.0
 23
8868.0
 33
0.0
 14
2775.0
 24
8868.0
 34
0.0
 50
0.0
100
AcDbRotatedDimension
1001
FLOORFORGE
1000
floor:0
1000
preliminary
  0
DIMENSION
  5
1F2
330
17
100
AcDbEntity
  8
A-DIMS
100
AcDbDimension
280
0
  2
*D10
  3
FF-ARCH
 10
2775.0
 20
9418.0
 30
0.0
 11
3075.0
 21
9568.0
 31
0.0
 70
32
 71
5
  1
<>
100
AcDbAlignedDimension
 13
2775.0
 23
8868.0
 33
0.0
 14
3375.0
 24
8868.0
 34
0.0
 50
0.0
100
AcDbRotatedDimension
1001
FLOORFORGE
1000
floor:0
1000
preliminary
  0
DIMENSION
  5
201
330
17
100
AcDbEntity
  8
A-DIMS
100
AcDbDimension
280
0
  2
*D11
  3
FF-ARCH
 10
3375.0
 20
9418.0
 30
0.0
 11
3930.0
 21
9568.0
 31
0.0
 70
32
 71
5
  1
<>
100
AcDbAlignedDimension
 13
3375.0
 23
8868.0
 33
0.0
 14
4485.0
 24
8868.0
 34
0.0
 50
0.0
100
AcDbRotatedDimension
1001
FLOORFORGE
1000
floor:0
1000
preliminary
  0
DIMENSION
  5
210
330
17
100
AcDbEntity
  8
A-DIMS
100
AcDbDimension
280
0
  2
*D12
  3
FF-ARCH
 10
4485.0
 20
9418.0
 30
0.0
 11
5235.0
 21
9568.0
 31
0.0
 70
32
 71
5
  1
<>
100
AcDbAlignedDimension
 13
4485.0
 23
8868.0
 33
0.0
 14
5985.0
 24
8868.0
 34
0.0
 50
0.0
100
AcDbRotatedDimension
1001
FLOORFORGE
1000
floor:0
1000
preliminary
  0
DIMENSION
  5
21F
330
17
100
AcDbEntity
  8
A-DIMS
100
AcDbDimension
280
0
  2
*D13
  3
FF-ARCH
 10
5985.0
 20
9418.0
 30
0.0
 11
6352.5
 21
9568.0
 31
0.0
 70
32
 71
5
  1
<>
100
AcDbAlignedDimension
 13
5985.0
 23
8868.0
 33
0.0
 14
6720.0
 24
8868.0
 34
0.0
 50
0.0
100
AcDbRotatedDimension
1001
FLOORFORGE
1000
floor:0
1000
preliminary
  0
DIMENSION
  5
22E
330
17
100
AcDbEntity
  8
A-DIMS
100
AcDbDimension
280
0
  2
*D14
  3
FF-ARCH
 10
0.0
 20
9868.0
 30
0.0
 11
1200.0
 21
10018.0
 31
0.0
 70
32
 71
5
  1
<>
100
AcDbAlignedDimension
 13
0.0
 23
8868.0
 33
0.0
 14
2400.0
 24
8868.0
 34
0.0
 50
0.0
100
AcDbRotatedDimension
1001
FLOORFORGE
1000
floor:0
1000
preliminary
  0
DIMENSION
  5
23D
330
17
100
AcDbEntity
  8
A-DIMS
100
AcDbDimension
280
0
  2
*D15
  3
FF-ARCH
 10
2400.0
 20
9868.0
 30
0.0
 11
3075.0
 21
10018.0
 31
0.0
 70
32
 71
5
  1
<>
100
AcDbAlignedDimension
 13
2400.0
 23
8868.0
 33
0.0
 14
3750.0
 24
8868.0
 34
0.0
 50
0.0
100
AcDbRotatedDimension
1001
FLOORFORGE
1000
floor:0
1000
preliminary
  0
DIMENSION
  5
24C
330
17
100
AcDbEntity
  8
A-DIMS
100
AcDbDimension
280
0
  2
*D16
  3
FF-ARCH
 10
3750.0
 20
9868.0
 30
0.0
 11
5235.0
 21
10018.0
 31
0.0
 70
32
 71
5
  1
<>
100
AcDbAlignedDimension
 13
3750.0
 23
8868.0
 33
0.0
 14
6720.0
 24
8868.0
 34
0.0
 50
0.0
100
AcDbRotatedDimension
1001
FLOORFORGE
1000
floor:0
1000
preliminary
  0
DIMENSION
  5
25B
330
17
100
AcDbEntity
  8
A-DIMS
100
AcDbDimension
280
0
  2
*D17
  3
FF-ARCH
 10
0.0
 20
10318.0
 30
0.0
 11
3360.0
 21
10468.0
 31
0.0
 70
32
 71
5
  1
<>
100
AcDbAlignedDimension
 13
0.0
 23
8868.0
 33
0.0
 14
6720.0
 24
8868.0
 34
0.0
 50
0.0
100
AcDbRotatedDimension
1001
FLOORFORGE
1000
floor:0
1000
preliminary
  0
DIMENSION
  5
26A
330
17
100
AcDbEntity
  8
A-DIMS
100
AcDbDimension
280
0
  2
*D18
  3
FF-ARCH
 10
-550.0
 20
0.0
 30
0.0
 11
-700.0
 21
337.5
 31
0.0
 70
32
 71
5
  1
<>
100
AcDbAlignedDimension
 13
0.0
 23
0.0
 33
0.0
 14
0.0
 24
675.0
 34
0.0
 50
90.0
100
AcDbRotatedDimension
1001
FLOORFORGE
1000
floor:0
1000
preliminary
  0
DIMENSION
  5
279
330
17
100
AcDbEntity
  8
A-DIMS
100
AcDbDimension
280
0
  2
*D19
  3
FF-ARCH
 10
-550.0
 20
675.0
 30
0.0
 11
-700.0
 21
1725.0
 31
0.0
 70
32
 71
5
  1
<>
100
AcDbAlignedDimension
 13
0.0
 23
675.0
 33
0.0
 14
0.0
 24
2775.0
 34
0.0
 50
90.0
100
AcDbRotatedDimension
1001
FLOORFORGE
1000
floor:0
1000
preliminary
  0
DIMENSION
  5
288
330
17
100
AcDbEntity
  8
A-DIMS
100
AcDbDimension
280
0
  2
*D20
  3
FF-ARCH
 10
-550.0
 20
2775.0
 30
0.0
 11
-700.0
 21
3567.0
 31
0.0
 70
32
 71
5
  1
<>
100
AcDbAlignedDimension
 13
0.0
 23
2775.0
 33
0.0
 14
0.0
 24
4359.0
 34
0.0
 50
90.0
100
AcDbRotatedDimension
1001
FLOORFORGE
1000
floor:0
1000
preliminary
  0
DIMENSION
  5
297
330
17
100
AcDbEntity
  8
A-DIMS
100
AcDbDimension
280
0
  2
*D21
  3
FF-ARCH
 10
-550.0
 20
4359.0
 30
0.0
 11
-700.0
 21
5409.0
 31
0.0
 70
32
 71
5
  1
<>
100
AcDbAlignedDimension
 13
0.0
 23
4359.0
 33
0.0
 14
0.0
 24
6459.0
 34
0.0
 50
90.0
100
AcDbRotatedDimension
1001
FLOORFORGE
1000
floor:0
1000
preliminary
  0
DIMENSION
  5
2A6
330
17
100
AcDbEntity
  8
A-DIMS
100
AcDbDimension
280
0
  2
*D22
  3
FF-ARCH
 10
-550.0
 20
6459.0
 30
0.0
 11
-700.0
 21
7063.5
 31
0.0
 70
32
 71
5
  1
<>
100
AcDbAlignedDimension
 13
0.0
 23
6459.0
 33
0.0
 14
0.0
 24
7668.0
 34
0.0
 50
90.0
100
AcDbRotatedDimension
1001
FLOORFORGE
1000
floor:0
1000
preliminary
  0
DIMENSION
  5
2B5
330
17
100
AcDbEntity
  8
A-DIMS
100
AcDbDimension
280
0
  2
*D23
  3
FF-ARCH
 10
-550.0
 20
7668.0
 30
0.0
 11
-700.0
 21
8118.0
 31
0.0
 70
32
 71
5
  1
<>
100
AcDbAlignedDimension
 13
0.0
 23
7668.0
 33
0.0
 14
0.0
 24
8568.0
 34
0.0
 50
90.0
100
AcDbRotatedDimension
1001
FLOORFORGE
1000
floor:0
1000
preliminary
  0
DIMENSION
  5
2C4
330
17
100
AcDbEntity
  8
A-DIMS
100
AcDbDimension
280
0
  2
*D24
  3
FF-ARCH
 10
-550.0
 20
8568.0
 30
0.0
 11
-820.0
 21
8718.0
 31
0.0
 70
32
 71
5
  1
<>
100
AcDbAlignedDimension
 13
0.0
 23
8568.0
 33
0.0
 14
0.0
 24
8868.0
 34
0.0
 50
90.0
100
AcDbRotatedDimension
1001
FLOORFORGE
1000
floor:0
1000
preliminary
  0
DIMENSION
  5
2D3
330
17
100
AcDbEntity
  8
A-DIMS
100
AcDbDimension
280
0
  2
*D25
  3
FF-ARCH
 10
-1000.0
 20
0.0
 30
0.0
 11
-1150.0
 21
1725.0
 31
0.0
 70
32
 71
5
  1
<>
100
AcDbAlignedDimension
 13
0.0
 23
0.0
 33
0.0
 14
0.0
 24
3450.0
 34
0.0
 50
90.0
100
AcDbRotatedDimension
1001
FLOORFORGE
1000
floor:0
1000
preliminary
  0
DIMENSION
  5
2E2
330
17
100
AcDbEntity
  8
A-DIMS
100
AcDbDimension
280
0
  2
*D26
  3
FF-ARCH
 10
-1000.0
 20
3450.0
 30
0.0
 11
-1150.0
 21
5409.0
 31
0.0
 70
32
 71
5
  1
<>
100
AcDbAlignedDimension
 13
0.0
 23
3450.0
 33
0.0
 14
0.0
 24
7368.0
 34
0.0
 50
90.0
100
AcDbRotatedDimension
1001
FLOORFORGE
1000
floor:0
1000
preliminary
  0
DIMENSION
  5
2F1
330
17
100
AcDbEntity
  8
A-DIMS
100
AcDbDimension
280
0
  2
*D27
  3
FF-ARCH
 10
-1000.0
 20
7368.0
 30
0.0
 11
-1150.0
 21
8118.0
 31
0.0
 70
32
 71
5
  1
<>
100
AcDbAlignedDimension
 13
0.0
 23
7368.0
 33
0.0
 14
0.0
 24
8868.0
 34
0.0
 50
90.0
100
AcDbRotatedDimension
1001
FLOORFORGE
1000
floor:0
1000
preliminary
  0
DIMENSION
  5
300
330
17
100
AcDbEntity
  8
A-DIMS
100
AcDbDimension
280
0
  2
*D28
  3
FF-ARCH
 10
-1450.0
 20
0.0
 30
0.0
 11
-1600.0
 21
4434.0
 31
0.0
 70
32
 71
5
  1
<>
100
AcDbAlignedDimension
 13
0.0
 23
0.0
 33
0.0
 14
0.0
 24
8868.0
 34
0.0
 50
90.0
100
AcDbRotatedDimension
1001
FLOORFORGE
1000
floor:0
1000
preliminary
  0
DIMENSION
  5
30F
330
17
100
AcDbEntity
  8
A-DIMS
100
AcDbDimension
280
0
  2
*D29
  3
FF-ARCH
 10
7270.0
 20
0.0
 30
0.0
 11
7120.0
 21
337.5
 31
0.0
 70
32
 71
5
  1
<>
100
AcDbAlignedDimension
 13
6720.0
 23
0.0
 33
0.0
 14
6720.0
 24
675.0
 34
0.0
 50
90.0
100
AcDbRotatedDimension
1001
FLOORFORGE
1000
floor:0
1000
preliminary
  0
DIMENSION
  5
31E
330
17
100
AcDbEntity
  8
A-DIMS
100
AcDbDimension
280
0
  2
*D30
  3
FF-ARCH
 10
7270.0
 20
675.0
 30
0.0
 11
7120.0
 21
1725.0
 31
0.0
 70
32
 71
5
  1
<>
100
AcDbAlignedDimension
 13
6720.0
 23
675.0
 33
0.0
 14
6720.0
 24
2775.0
 34
0.0
 50
90.0
100
AcDbRotatedDimension
1001
FLOORFORGE
1000
floor:0
1000
preliminary
  0
DIMENSION
  5
32D
330
17
100
AcDbEntity
  8
A-DIMS
100
AcDbDimension
280
0
  2
*D31
  3
FF-ARCH
 10
7270.0
 20
2775.0
 30
0.0
 11
7120.0
 21
3300.0
 31
0.0
 70
32
 71
5
  1
<>
100
AcDbAlignedDimension
 13
6720.0
 23
2775.0
 33
0.0
 14
6720.0
 24
3825.0
 34
0.0
 50
90.0
100
AcDbRotatedDimension
1001
FLOORFORGE
1000
floor:0
1000
preliminary
  0
DIMENSION
  5
33C
330
17
100
AcDbEntity
  8
A-DIMS
100
AcDbDimension
280
0
  2
*D32
  3
FF-ARCH
 10
7270.0
 20
3825.0
 30
0.0
 11
7120.0
 21
4200.0
 31
0.0
 70
32
 71
5
  1
<>
100
AcDbAlignedDimension
 13
6720.0
 23
3825.0
 33
0.0
 14
6720.0
 24
4575.0
 34
0.0
 50
90.0
100
AcDbRotatedDimension
1001
FLOORFORGE
1000
floor:0
1000
preliminary
  0
DIMENSION
  5
34B
330
17
100
AcDbEntity
  8
A-DIMS
100
AcDbDimension
280
0
  2
*D33
  3
FF-ARCH
 10
7270.0
 20
4575.0
 30
0.0
 11
7120.0
 21
5217.0
 31
0.0
 70
32
 71
5
  1
<>
100
AcDbAlignedDimension
 13
6720.0
 23
4575.0
 33
0.0
 14
6720.0
 24
5859.0
 34
0.0
 50
90.0
100
AcDbRotatedDimension
1001
FLOORFORGE
1000
floor:0
1000
preliminary
  0
DIMENSION
  5
35A
330
17
100
AcDbEntity
  8
A-DIMS
100
AcDbDimension
280
0
  2
*D34
  3
FF-ARCH
 10
7270.0
 20
5859.0
 30
0.0
 11
7120.0
 21
6909.0
 31
0.0
 70
32
 71
5
  1
<>
100
AcDbAlignedDimension
 13
6720.0
 23
5859.0
 33
0.0
 14
6720.0
 24
7959.0
 34
0.0
 50
90.0
100
AcDbRotatedDimension
1001
FLOORFORGE
1000
floor:0
1000
preliminary
  0
DIMENSION
  5
369
330
17
100
AcDbEntity
  8
A-DIMS
100
AcDbDimension
280
0
  2
*D35
  3
FF-ARCH
 10
7270.0
 20
7959.0
 30
0.0
 11
7120.0
 21
8413.5
 31
0.0
 70
32
 71
5
  1
<>
100
AcDbAlignedDimension
 13
6720.0
 23
7959.0
 33
0.0
 14
6720.0
 24
8868.0
 34
0.0
 50
90.0
100
AcDbRotatedDimension
1001
FLOORFORGE
1000
floor:0
1000
preliminary
  0
DIMENSION
  5
378
330
17
100
AcDbEntity
  8
A-DIMS
100
AcDbDimension
280
0
  2
*D36
  3
FF-ARCH
 10
7720.0
 20
0.0
 30
0.0
 11
7570.0
 21
1725.0
 31
0.0
 70
32
 71
5
  1
<>
100
AcDbAlignedDimension
 13
6720.0
 23
0.0
 33
0.0
 14
6720.0
 24
3450.0
 34
0.0
 50
90.0
100
AcDbRotatedDimension
1001
FLOORFORGE
1000
floor:0
1000
preliminary
  0
DIMENSION
  5
387
330
17
100
AcDbEntity
  8
A-DIMS
100
AcDbDimension
280
0
  2
*D37
  3
FF-ARCH
 10
7720.0
 20
3450.0
 30
0.0
 11
7570.0
 21
4200.0
 31
0.0
 70
32
 71
5
  1
<>
100
AcDbAlignedDimension
 13
6720.0
 23
3450.0
 33
0.0
 14
6720.0
 24
4950.0
 34
0.0
 50
90.0
100
AcDbRotatedDimension
1001
FLOORFORGE
1000
floor:0
1000
preliminary
  0
DIMENSION
  5
396
330
17
100
AcDbEntity
  8
A-DIMS
100
AcDbDimension
280
0
  2
*D38
  3
FF-ARCH
 10
7720.0
 20
4950.0
 30
0.0
 11
7570.0
 21
6909.0
 31
0.0
 70
32
 71
5
  1
<>
100
AcDbAlignedDimension
 13
6720.0
 23
4950.0
 33
0.0
 14
6720.0
 24
8868.0
 34
0.0
 50
90.0
100
AcDbRotatedDimension
1001
FLOORFORGE
1000
floor:0
1000
preliminary
  0
DIMENSION
  5
3A5
330
17
100
AcDbEntity
  8
A-DIMS
100
AcDbDimension
280
0
  2
*D39
  3
FF-ARCH
 10
8170.0
 20
0.0
 30
0.0
 11
8020.0
 21
4434.0
 31
0.0
 70
32
 71
5
  1
<>
100
AcDbAlignedDimension
 13
6720.0
 23
0.0
 33
0.0
 14
6720.0
 24
8868.0
 34
0.0
 50
90.0
100
AcDbRotatedDimension
1001
FLOORFORGE
1000
floor:0
1000
preliminary
  0
LINE
  5
3B4
330
17
100
AcDbEntity
  8
A-GRID
100
AcDbLine
 10
115.0
 20
-1150.0
 30
0.0
 11
115.0
 21
10668.0
 31
0.0
1001
FLOORFORGE
1000
floor:0
1000
preliminary
  0
CIRCLE
  5
3B5
330
17
100
AcDbEntity
  8
A-GRID
100
AcDbCircle
 10
115.0
 20
10968.0
 30
0.0
 40
300.0
1001
FLOORFORGE
1000
floor:0
1000
preliminary
  0
TEXT
  5
3B6
330
17
100
AcDbEntity
  8
A-GRID
100
AcDbText
 10
115.0
 20
10878.0
 30
0.0
 40
220.0
  1
A
 72
1
 11
115.0
 21
10878.0
 31
0.0
100
AcDbText
 73
1
1001
FLOORFORGE
1000
floor:0
1000
preliminary
  0
LINE
  5
3B7
330
17
100
AcDbEntity
  8
A-GRID
100
AcDbLine
 10
2400.0
 20
-1150.0
 30
0.0
 11
2400.0
 21
10668.0
 31
0.0
1001
FLOORFORGE
1000
floor:0
1000
preliminary
  0
CIRCLE
  5
3B8
330
17
100
AcDbEntity
  8
A-GRID
100
AcDbCircle
 10
2400.0
 20
10968.0
 30
0.0
 40
300.0
1001
FLOORFORGE
1000
floor:0
1000
preliminary
  0
TEXT
  5
3B9
330
17
100
AcDbEntity
  8
A-GRID
100
AcDbText
 10
2400.0
 20
10878.0
 30
0.0
 40
220.0
  1
B
 72
1
 11
2400.0
 21
10878.0
 31
0.0
100
AcDbText
 73
1
1001
FLOORFORGE
1000
floor:0
1000
preliminary
  0
LINE
  5
3BA
330
17
100
AcDbEntity
  8
A-GRID
100
AcDbLine
 10
3750.0
 20
-1150.0
 30
0.0
 11
3750.0
 21
10668.0
 31
0.0
1001
FLOORFORGE
1000
floor:0
1000
preliminary
  0
CIRCLE
  5
3BB
330
17
100
AcDbEntity
  8
A-GRID
100
AcDbCircle
 10
3750.0
 20
10968.0
 30
0.0
 40
300.0
1001
FLOORFORGE
1000
floor:0
1000
preliminary
  0
TEXT
  5
3BC
330
17
100
AcDbEntity
  8
A-GRID
100
AcDbText
 10
3750.0
 20
10878.0
 30
0.0
 40
220.0
  1
C
 72
1
 11
3750.0
 21
10878.0
 31
0.0
100
AcDbText
 73
1
1001
FLOORFORGE
1000
floor:0
1000
preliminary
  0
LINE
  5
3BD
330
17
100
AcDbEntity
  8
A-GRID
100
AcDbLine
 10
6605.0
 20
-1150.0
 30
0.0
 11
6605.0
 21
10668.0
 31
0.0
1001
FLOORFORGE
1000
floor:0
1000
preliminary
  0
CIRCLE
  5
3BE
330
17
100
AcDbEntity
  8
A-GRID
100
AcDbCircle
 10
6605.0
 20
10968.0
 30
0.0
 40
300.0
1001
FLOORFORGE
1000
floor:0
1000
preliminary
  0
TEXT
  5
3BF
330
17
100
AcDbEntity
  8
A-GRID
100
AcDbText
 10
6605.0
 20
10878.0
 30
0.0
 40
220.0
  1
D
 72
1
 11
6605.0
 21
10878.0
 31
0.0
100
AcDbText
 73
1
1001
FLOORFORGE
1000
floor:0
1000
preliminary
  0
LINE
  5
3C0
330
17
100
AcDbEntity
  8
A-GRID
100
AcDbLine
 10
-1800.0
 20
115.0
 30
0.0
 11
6920.0
 21
115.0
 31
0.0
1001
FLOORFORGE
1000
floor:0
1000
preliminary
  0
CIRCLE
  5
3C1
330
17
100
AcDbEntity
  8
A-GRID
100
AcDbCircle
 10
-2100.0
 20
115.0
 30
0.0
 40
300.0
1001
FLOORFORGE
1000
floor:0
1000
preliminary
  0
TEXT
  5
3C2
330
17
100
AcDbEntity
  8
A-GRID
100
AcDbText
 10
-2100.0
 20
25.0
 30
0.0
 40
220.0
  1
1
 72
1
 11
-2100.0
 21
25.0
 31
0.0
100
AcDbText
 73
1
1001
FLOORFORGE
1000
floor:0
1000
preliminary
  0
LINE
  5
3C3
330
17
100
AcDbEntity
  8
A-GRID
100
AcDbLine
 10
-1800.0
 20
3450.0
 30
0.0
 11
6920.0
 21
3450.0
 31
0.0
1001
FLOORFORGE
1000
floor:0
1000
preliminary
  0
CIRCLE
  5
3C4
330
17
100
AcDbEntity
  8
A-GRID
100
AcDbCircle
 10
-2100.0
 20
3450.0
 30
0.0
 40
300.0
1001
FLOORFORGE
1000
floor:0
1000
preliminary
  0
TEXT
  5
3C5
330
17
100
AcDbEntity
  8
A-GRID
100
AcDbText
 10
-2100.0
 20
3360.0
 30
0.0
 40
220.0
  1
2
 72
1
 11
-2100.0
 21
3360.0
 31
0.0
100
AcDbText
 73
1
1001
FLOORFORGE
1000
floor:0
1000
preliminary
  0
LINE
  5
3C6
330
17
100
AcDbEntity
  8
A-GRID
100
AcDbLine
 10
-1800.0
 20
4950.0
 30
0.0
 11
6920.0
 21
4950.0
 31
0.0
1001
FLOORFORGE
1000
floor:0
1000
preliminary
  0
CIRCLE
  5
3C7
330
17
100
AcDbEntity
  8
A-GRID
100
AcDbCircle
 10
-2100.0
 20
4950.0
 30
0.0
 40
300.0
1001
FLOORFORGE
1000
floor:0
1000
preliminary
  0
TEXT
  5
3C8
330
17
100
AcDbEntity
  8
A-GRID
100
AcDbText
 10
-2100.0
 20
4860.0
 30
0.0
 40
220.0
  1
3
 72
1
 11
-2100.0
 21
4860.0
 31
0.0
100
AcDbText
 73
1
1001
FLOORFORGE
1000
floor:0
1000
preliminary
  0
LINE
  5
3C9
330
17
100
AcDbEntity
  8
A-GRID
100
AcDbLine
 10
-1800.0
 20
7368.0
 30
0.0
 11
6920.0
 21
7368.0
 31
0.0
1001
FLOORFORGE
1000
floor:0
1000
preliminary
  0
CIRCLE
  5
3CA
330
17
100
AcDbEntity
  8
A-GRID
100
AcDbCircle
 10
-2100.0
 20
7368.0
 30
0.0
 40
300.0
1001
FLOORFORGE
1000
floor:0
1000
preliminary
  0
TEXT
  5
3CB
330
17
100
AcDbEntity
  8
A-GRID
100
AcDbText
 10
-2100.0
 20
7278.0
 30
0.0
 40
220.0
  1
4
 72
1
 11
-2100.0
 21
7278.0
 31
0.0
100
AcDbText
 73
1
1001
FLOORFORGE
1000
floor:0
1000
preliminary
  0
LINE
  5
3CC
330
17
100
AcDbEntity
  8
A-GRID
100
AcDbLine
 10
-1800.0
 20
8753.0
 30
0.0
 11
6920.0
 21
8753.0
 31
0.0
1001
FLOORFORGE
1000
floor:0
1000
preliminary
  0
CIRCLE
  5
3CD
330
17
100
AcDbEntity
  8
A-GRID
100
AcDbCircle
 10
-2100.0
 20
8753.0
 30
0.0
 40
300.0
1001
FLOORFORGE
1000
floor:0
1000
preliminary
  0
TEXT
  5
3CE
330
17
100
AcDbEntity
  8
A-GRID
100
AcDbText
 10
-2100.0
 20
8663.0
 30
0.0
 40
220.0
  1
5
 72
1
 11
-2100.0
 21
8663.0
 31
0.0
100
AcDbText
 73
1
1001
FLOORFORGE
1000
floor:0
1000
preliminary
  0
LWPOLYLINE
  5
3CF
330
17
100
AcDbEntity
  8
A-LEVL
100
AcDbPolyline
 90
3
 70
1
 10
4384.94140625
 20
1123.88671875
 10
4604.94140625
 20
1123.88671875
 10
4494.94140625
 20
933.88671875
1001
FLOORFORGE
1000
floor:0
1000
preliminary
  0
HATCH
  5
3D0
330
17
100
AcDbEntity
  8
A-LEVL
 62
7
100
AcDbHatch
 10
0.0
 20
0.0
 30
0.0
210
0.0
220
0.0
230
1.0
  2
SOLID
 70
1
 71
0
 91
1
 92
3
 72
0
 73
1
 93
3
 10
4384.94140625
 20
1123.88671875
 10
4604.94140625
 20
1123.88671875
 10
4494.94140625
 20
933.88671875
 97
0
 75
0
 76
1
 98
0
  0
LINE
  5
3D1
330
17
100
AcDbEntity
  8
A-LEVL
100
AcDbLine
 10
4114.94140625
 20
933.88671875
 30
0.0
 11
4874.94140625
 21
933.88671875
 31
0.0
1001
FLOORFORGE
1000
floor:0
1000
preliminary
  0
TEXT
  5
3D2
330
17
100
AcDbEntity
  8
A-LEVL
100
AcDbText
 10
4664.94140625
 20
993.88671875
 30
0.0
 40
160.0
  1
FFL +0.450
 11
4664.94140625
 21
993.88671875
 31
0.0
100
AcDbText
1001
FLOORFORGE
1000
floor:0
1000
preliminary
  0
LINE
  5
3D3
330
17
100
AcDbEntity
  8
A-SECT
100
AcDbLine
 10
2660.0
 20
-1050.0
 30
0.0
 11
2660.0
 21
-2520.0
 31
0.0
1001
FLOORFORGE
1000
floor:0
1000
preliminary
  0
LINE
  5
3D4
330
17
100
AcDbEntity
  8
A-SECT
100
AcDbLine
 10
2660.0
 20
-2520.0
 30
0.0
 11
2660.0
 21
-2820.0
 31
0.0
1001
FLOORFORGE
1000
floor:0
1000
preliminary
  0
CIRCLE
  5
3D5
330
17
100
AcDbEntity
  8
A-SECT
100
AcDbCircle
 10
2660.0
 20
-3100.0
 30
0.0
 40
280.0
1001
FLOORFORGE
1000
floor:0
1000
preliminary
  0
TEXT
  5
3D6
330
17
100
AcDbEntity
  8
A-SECT
100
AcDbText
 10
2660.0
 20
-3185.0
 30
0.0
 40
220.0
  1
A
 72
1
 11
2660.0
 21
-3185.0
 31
0.0
100
AcDbText
 73
1
1001
FLOORFORGE
1000
floor:0
1000
preliminary
  0
LWPOLYLINE
  5
3D7
330
17
100
AcDbEntity
  8
A-SECT
100
AcDbPolyline
 90
3
 70
1
 10
2380.0
 20
-3220.0
 10
2040.0
 20
-3100.0
 10
2380.0
 20
-2980.0
1001
FLOORFORGE
1000
floor:0
1000
preliminary
  0
HATCH
  5
3D8
330
17
100
AcDbEntity
  8
A-SECT
 62
7
100
AcDbHatch
 10
0.0
 20
0.0
 30
0.0
210
0.0
220
0.0
230
1.0
  2
SOLID
 70
1
 71
0
 91
1
 92
3
 72
0
 73
1
 93
3
 10
2380.0
 20
-3220.0
 10
2040.0
 20
-3100.0
 10
2380.0
 20
-2980.0
 97
0
 75
0
 76
1
 98
0
  0
LINE
  5
3D9
330
17
100
AcDbEntity
  8
A-SECT
100
AcDbLine
 10
2660.0
 20
8968.0
 30
0.0
 11
2660.0
 21
11038.0
 31
0.0
1001
FLOORFORGE
1000
floor:0
1000
preliminary
  0
LINE
  5
3DA
330
17
100
AcDbEntity
  8
A-SECT
100
AcDbLine
 10
2660.0
 20
11038.0
 30
0.0
 11
2660.0
 21
11338.0
 31
0.0
1001
FLOORFORGE
1000
floor:0
1000
preliminary
  0
CIRCLE
  5
3DB
330
17
100
AcDbEntity
  8
A-SECT
100
AcDbCircle
 10
2660.0
 20
11618.0
 30
0.0
 40
280.0
1001
FLOORFORGE
1000
floor:0
1000
preliminary
  0
TEXT
  5
3DC
330
17
100
AcDbEntity
  8
A-SECT
100
AcDbText
 10
2660.0
 20
11533.0
 30
0.0
 40
220.0
  1
A
 72
1
 11
2660.0
 21
11533.0
 31
0.0
100
AcDbText
 73
1
1001
FLOORFORGE
1000
floor:0
1000
preliminary
  0
LWPOLYLINE
  5
3DD
330
17
100
AcDbEntity
  8
A-SECT
100
AcDbPolyline
 90
3
 70
1
 10
2380.0
 20
11738.0
 10
2040.0
 20
11618.0
 10
2380.0
 20
11498.0
1001
FLOORFORGE
1000
floor:0
1000
preliminary
  0
HATCH
  5
3DE
330
17
100
AcDbEntity
  8
A-SECT
 62
7
100
AcDbHatch
 10
0.0
 20
0.0
 30
0.0
210
0.0
220
0.0
230
1.0
  2
SOLID
 70
1
 71
0
 91
1
 92
3
 72
0
 73
1
 93
3
 10
2380.0
 20
11738.0
 10
2040.0
 20
11618.0
 10
2380.0
 20
11498.0
 97
0
 75
0
 76
1
 98
0
  0
CIRCLE
  5
3DF
330
17
100
AcDbEntity
  8
A-ANNO
100
AcDbCircle
 10
-3600.0
 20
10268.0
 30
0.0
 40
550.0
1001
FLOORFORGE
1000
floor:0
1000
preliminary
  0
LWPOLYLINE
  5
3E0
330
17
100
AcDbEntity
  8
A-WALL
100
AcDbPolyline
 90
3
 70
1
 10
-3600.0
 20
10774.0
 10
-3754.0
 20
9965.5
 10
-3600.0
 20
10158.0
1001
FLOORFORGE
1000
floor:0
1000
preliminary
  0
HATCH
  5
3E1
330
17
100
AcDbEntity
  8
A-WALL
 62
7
100
AcDbHatch
 10
0.0
 20
0.0
 30
0.0
210
0.0
220
0.0
230
1.0
  2
SOLID
 70
1
 71
0
 91
1
 92
3
 72
0
 73
1
 93
3
 10
-3600.0
 20
10774.0
 10
-3754.0
 20
9965.5
 10
-3600.0
 20
10158.0
 97
0
 75
0
 76
1
 98
0
  0
LWPOLYLINE
  5
3E2
330
17
100
AcDbEntity
  8
A-WALL
100
AcDbPolyline
 90
3
 70
1
 10
-3600.0
 20
10774.0
 10
-3446.0
 20
9965.5
 10
-3600.0
 20
10158.0
1001
FLOORFORGE
1000
floor:0
1000
preliminary
  0
TEXT
  5
3E3
330
17
100
AcDbEntity
  8
A-ANNO
100
AcDbText
 10
-3600.0
 20
10988.0
 30
0.0
 40
260.0
  1
N
 72
1
 11
-3600.0
 21
10988.0
 31
0.0
100
AcDbText
 73
1
1001
FLOORFORGE
1000
floor:0
1000
preliminary
  0
TEXT
  5
3E4
330
17
100
AcDbEntity
  8
A-ANNO
100
AcDbText
 10
0.0
 20
-5200.0
 30
0.0
 40
190.0
  1
PRELIMINARY - ENGINEER TO REVIEW - NOT FOR CONSTRUCTION
 11
0.0
 21
-5200.0
 31
0.0
100
AcDbText
  0
TEXT
  5
3E5
330
17
100
AcDbEntity
  8
A-ANNO
100
AcDbText
 10
0.0
 20
13668.0
 30
0.0
 40
210.0
  1
FLOOR 0 / TRUE MILLIMETRES / NO STRUCTURAL CERTIFICATION
 11
0.0
 21
13668.0
 31
0.0
100
AcDbText
  0
ENDSEC
  0
SECTION
  2
OBJECTS
  0
DICTIONARY
  5
A
330
0
100
AcDbDictionary
281
1
  3
ACAD_COLOR
350
B
  3
ACAD_GROUP
350
C
  3
ACAD_LAYOUT
350
D
  3
ACAD_MATERIAL
350
E
  3
ACAD_MLEADERSTYLE
350
F
  3
ACAD_MLINESTYLE
350
10
  3
ACAD_PLOTSETTINGS
350
11
  3
ACAD_PLOTSTYLENAME
350
12
  3
ACAD_SCALELIST
350
14
  3
ACAD_TABLESTYLE
350
15
  3
ACAD_VISUALSTYLE
350
16
  3
EZDXF_META
350
2D
  0
DICTIONARY
  5
B
330
A
100
AcDbDictionary
281
1
  0
DICTIONARY
  5
C
330
A
100
AcDbDictionary
281
1
  0
DICTIONARY
  5
D
330
A
100
AcDbDictionary
281
1
  3
Model
350
1A
  3
Layout1
350
1E
  3
GROUND
350
3E9
  0
DICTIONARY
  5
E
330
A
100
AcDbDictionary
281
1
  3
ByBlock
350
1F
  3
ByLayer
350
20
  3
Global
350
21
  0
DICTIONARY
  5
F
330
A
100
AcDbDictionary
281
1
  3
Standard
350
2C
  0
DICTIONARY
  5
10
330
A
100
AcDbDictionary
281
1
  3
Standard
350
22
  0
DICTIONARY
  5
11
330
A
100
AcDbDictionary
281
1
  0
ACDBDICTIONARYWDFLT
  5
12
330
A
100
AcDbDictionary
281
1
  3
Normal
350
13
100
AcDbDictionaryWithDefault
340
13
  0
ACDBPLACEHOLDER
  5
13
330
12
  0
DICTIONARY
  5
14
330
A
100
AcDbDictionary
281
1
  0
DICTIONARY
  5
15
330
A
100
AcDbDictionary
281
1
  0
DICTIONARY
  5
16
330
A
100
AcDbDictionary
281
1
  3
2dWireframe
350
5A
  3
Basic
350
5B
  3
Brighten
350
5C
  3
ColorChange
350
5D
  3
Conceptual
350
5E
  3
Dim
350
5F
  3
EdgeColorOff
350
60
  3
Facepattern
350
61
  3
Flat
350
62
  3
FlatWithEdges
350
63
  3
Gouraud
350
64
  3
GouraudWithEdges
350
65
  3
Hidden
350
66
  3
JitterOff
350
67
  3
Linepattern
350
68
  3
Modeling
350
69
  3
OverhangOff
350
6A
  3
Realistic
350
6B
  3
Shaded
350
6C
  3
Shaded with edges
350
6D
  3
Shades of Gray
350
6E
  3
Sketchy
350
6F
  3
Thicken
350
70
  3
Wireframe
350
71
  3
X-Ray
350
72
  0
LAYOUT
  5
1A
330
D
100
AcDbPlotSettings
  1

  4
A3
  6

 40
7.5
 41
20.0
 42
7.5
 43
20.0
 44
420.0
 45
297.0
 46
0.0
 47
0.0
 48
0.0
 49
0.0
140
0.0
141
0.0
142
1.0
143
1.0
 70
1024
 72
1
 73
0
 74
5
  7

 75
16
 76
0
 77
2
 78
300
147
1.0
148
0.0
149
0.0
100
AcDbLayout
  1
Model
 70
1
 71
0
 10
0.0
 20
0.0
 11
420.0
 21
297.0
 12
0.0
 22
0.0
 32
0.0
 14
1e+20
 24
1e+20
 34
1e+20
 15
-1e+20
 25
-1e+20
 35
-1e+20
146
0.0
 13
0.0
 23
0.0
 33
0.0
 16
1.0
 26
0.0
 36
0.0
 17
0.0
 27
1.0
 37
0.0
 76
1
330
17
  0
LAYOUT
  5
1E
330
D
100
AcDbPlotSettings
  1

  4
A3
  6

 40
7.5
 41
20.0
 42
7.5
 43
20.0
 44
420.0
 45
297.0
 46
0.0
 47
0.0
 48
0.0
 49
0.0
140
0.0
141
0.0
142
1.0
143
1.0
 70
0
 72
1
 73
0
 74
5
  7

 75
16
 76
0
 77
2
 78
300
147
1.0
148
0.0
149
0.0
100
AcDbLayout
  1
Layout1
 70
1
 71
1
 10
0.0
 20
0.0
 11
420.0
 21
297.0
 12
0.0
 22
0.0
 32
0.0
 14
1e+20
 24
1e+20
 34
1e+20
 15
-1e+20
 25
-1e+20
 35
-1e+20
146
0.0
 13
0.0
 23
0.0
 33
0.0
 16
1.0
 26
0.0
 36
0.0
 17
0.0
 27
1.0
 37
0.0
 76
1
330
1B
  0
MATERIAL
  5
1F
102
{ACAD_REACTORS
330
E
102
}
330
E
100
AcDbMaterial
  1
ByBlock
  2

 70
0
 40
1.0
 71
1
 41
1.0
 91
-1023410177
 42
1.0
 72
1
  3

 73
1
 74
1
 75
1
 44
0.5
 73
0
 45
1.0
 46
1.0
 77
1
  4

 78
1
 79
1
170
1
 48
1.0
171
1
  6

172
1
173
1
174
1
140
1.0
141
1.0
175
1
  7

176
1
177
1
178
1
143
1.0
179
1
  8

270
1
271
1
272
1
145
1.0
146
1.0
273
1
  9

274
1
275
1
276
1
 42
1.0
 72
1
  3

 73
1
 74
1
 75
1
 94
63
  0
MATERIAL
  5
20
102
{ACAD_REACTORS
330
E
102
}
330
E
100
AcDbMaterial
  1
ByLayer
  2

 70
0
 40
1.0
 71
1
 41
1.0
 91
-1023410177
 42
1.0
 72
1
  3

 73
1
 74
1
 75
1
 44
0.5
 73
0
 45
1.0
 46
1.0
 77
1
  4

 78
1
 79
1
170
1
 48
1.0
171
1
  6

172
1
173
1
174
1
140
1.0
141
1.0
175
1
  7

176
1
177
1
178
1
143
1.0
179
1
  8

270
1
271
1
272
1
145
1.0
146
1.0
273
1
  9

274
1
275
1
276
1
 42
1.0
 72
1
  3

 73
1
 74
1
 75
1
 94
63
  0
MATERIAL
  5
21
102
{ACAD_REACTORS
330
E
102
}
330
E
100
AcDbMaterial
  1
Global
  2

 70
0
 40
1.0
 71
1
 41
1.0
 91
-1023410177
 42
1.0
 72
1
  3

 73
1
 74
1
 75
1
 44
0.5
 73
0
 45
1.0
 46
1.0
 77
1
  4

 78
1
 79
1
170
1
 48
1.0
171
1
  6

172
1
173
1
174
1
140
1.0
141
1.0
175
1
  7

176
1
177
1
178
1
143
1.0
179
1
  8

270
1
271
1
272
1
145
1.0
146
1.0
273
1
  9

274
1
275
1
276
1
 42
1.0
 72
1
  3

 73
1
 74
1
 75
1
 94
63
  0
MLINESTYLE
  5
22
102
{ACAD_REACTORS
330
10
102
}
330
10
100
AcDbMlineStyle
  2
Standard
 70
0
  3

 62
256
 51
90.0
 52
90.0
 71
2
 49
0.5
 62
256
  6
BYLAYER
 49
-0.5
 62
256
  6
BYLAYER
  0
MLEADERSTYLE
  5
2C
102
{ACAD_REACTORS
330
F
102
}
330
F
100
AcDbMLeaderStyle
179
2
170
2
171
1
172
0
 90
2
 40
0.0
 41
0.0
173
1
 91
-1056964608
 92
-2
290
1
 42
2.0
291
1
 43
8.0
  3
Standard
 44
4.0
300

342
29
174
1
175
1
176
0
178
1
 93
-1056964608
 45
4.0
292
0
297
0
 46
4.0
 94
-1056964608
 47
1.0
 49
1.0
140
1.0
294
1
141
0.0
177
0
142
1.0
295
0
296
0
143
3.75
271
0
272
9
273
9
  0
DICTIONARY
  5
2D
330
A
100
AcDbDictionary
280
1
281
1
  3
CREATED_BY_EZDXF
350
2E
  3
PLAN_HASH
350
8A
  3
WRITTEN_BY_EZDXF
350
3EF
  0
DICTIONARYVAR
  5
2E
330
2D
100
DictionaryVariables
280
0
  1
ezdxf 1.4.4 / FloorForge deterministic export
  0
VISUALSTYLE
  5
5A
102
{ACAD_REACTORS
330
16
102
}
330
16
100
AcDbVisualStyle
  2
2dWireframe
 70
4
177
3
291
0
 70
58
 90
2
176
1
 90
2
176
1
 90
0
176
1
 90
0
176
1
 40
0.6
176
1
 40
30.0
176
1
 62
7
420
16777215
176
1
 90
1
176
1
 90
4
176
1
 62
7
176
1
 62
257
176
1
 90
1
176
1
 90
1
176
1
 40
1.0
176
1
 90
8
176
1
 62
7
176
1
 40
1.0
176
1
 90
1
176
1
 90
6
176
1
 90
2
176
1
 62
7
176
1
 90
5
176
1
 90
0
176
1
 90
0
176
1
290
0
176
1
 90
1
176
1
 40
0.0
176
1
 90
0
176
1
290
1
176
1
290
1
176
1
290
0
176
1
290
0
176
1
290
0
176
1
290
0
176
1
290
0
176
1
290
0
176
1
290
0
176
1
 90
50
176
1
 40
0.0
176
1
 40
1.0
176
1
 90
0
176
1
 62
18
420
0
176
1
 90
50
176
1
 90
3
176
1
 62
5
420
255
176
1
290
0
176
1
 90
50
176
1
 90
50
176
1
 90
50
176
1
290
0
176
1
 90
50
176
1
 62
256
176
0
 40
1.0
176
0
 90
2
176
1
  1
strokes_ogs.tif
176
1
290
0
176
1
 40
1.0
176
1
 40
1.0
176
1
  0
VISUALSTYLE
  5
5B
102
{ACAD_REACTORS
330
16
102
}
330
16
100
AcDbVisualStyle
  2
Basic
 70
7
177
3
291
1
 70
58
 90
2
176
1
 90
2
176
1
 90
0
176
1
 90
1
176
1
 40
0.6
176
1
 40
30.0
176
1
 62
7
420
16777215
176
1
 90
1
176
1
 90
4
176
1
 62
7
176
1
 62
257
176
1
 90
1
176
1
 90
1
176
1
 40
1.0
176
1
 90
8
176
1
 62
7
176
1
 40
1.0
176
1
 90
1
176
1
 90
6
176
1
 90
2
176
1
 62
7
176
1
 90
5
176
1
 90
0
176
1
 90
0
176
1
290
0
176
1
 90
1
176
1
 40
0.0
176
1
 90
0
176
1
290
0
176
1
290
1
176
1
290
1
176
1
290
0
176
1
290
0
176
1
290
0
176
1
290
0
176
1
290
0
176
1
290
0
176
1
 90
50
176
1
 40
0.0
176
1
 40
1.0
176
1
 90
0
176
1
 62
18
420
0
176
1
 90
50
176
1
 90
3
176
1
 62
5
420
255
176
1
290
0
176
1
 90
50
176
1
 90
50
176
1
 90
50
176
1
290
0
176
1
 90
50
176
1
 62
256
176
0
 40
1.0
176
0
 90
2
176
1
  1
strokes_ogs.tif
176
1
290
0
176
1
 40
1.0
176
1
 40
1.0
176
1
  0
VISUALSTYLE
  5
5C
102
{ACAD_REACTORS
330
16
102
}
330
16
100
AcDbVisualStyle
  2
Brighten
 70
12
177
3
291
1
 70
58
 90
2
176
1
 90
2
176
1
 90
0
176
1
 90
2
176
1
 40
0.6
176
1
 40
30.0
176
1
 62
7
420
16777215
176
1
 90
1
176
1
 90
4
176
1
 62
7
176
1
 62
257
176
1
 90
1
176
1
 90
1
176
1
 40
1.0
176
1
 90
8
176
1
 62
7
176
1
 40
1.0
176
1
 90
1
176
1
 90
6
176
1
 90
2
176
1
 62
7
176
1
 90
5
176
1
 90
0
176
1
 90
0
176
1
290
0
176
1
 90
1
176
1
 40
0.0
176
1
 90
0
176
1
290
0
176
1
290
1
176
1
290
1
176
1
290
0
176
1
290
0
176
1
290
0
176
1
290
0
176
1
290
0
176
1
290
0
176
1
 90
50
176
1
 40
0.0
176
1
 40
1.0
176
1
 90
0
176
1
 62
18
420
0
176
1
 90
50
176
1
 90
3
176
1
 62
5
420
255
176
1
290
0
176
1
 90
50
176
1
 90
50
176
1
 90
50
176
1
290
0
176
1
 90
50
176
1
 62
256
176
0
 40
1.0
176
0
 90
2
176
1
  1
strokes_ogs.tif
176
1
290
0
176
1
 40
1.0
176
1
 40
1.0
176
1
  0
VISUALSTYLE
  5
5D
102
{ACAD_REACTORS
330
16
102
}
330
16
100
AcDbVisualStyle
  2
ColorChange
 70
16
177
3
291
1
 70
58
 90
2
176
1
 90
2
176
1
 90
0
176
1
 90
2
176
1
 40
0.6
176
1
 40
30.0
176
1
 62
7
420
16777215
176
1
 90
1
176
1
 90
4
176
1
 62
7
176
1
 62
257
176
1
 90
1
176
1
 90
1
176
1
 40
1.0
176
1
 90
8
176
1
 62
7
176
1
 40
1.0
176
1
 90
1
176
1
 90
6
176
1
 90
2
176
1
 62
7
176
1
 90
5
176
1
 90
0
176
1
 90
0
176
1
290
0
176
1
 90
1
176
1
 40
0.0
176
1
 90
0
176
1
290
0
176
1
290
1
176
1
290
1
176
1
290
0
176
1
290
0
176
1
290
0
176
1
290
0
176
1
290
0
176
1
290
0
176
1
 90
50
176
1
 40
0.0
176
1
 40
1.0
176
1
 90
0
176
1
 62
18
420
0
176
1
 90
50
176
1
 90
3
176
1
 62
5
420
255
176
1
290
0
176
1
 90
50
176
1
 90
50
176
1
 90
50
176
1
290
0
176
1
 90
50
176
1
 62
256
176
0
 40
1.0
176
0
 90
2
176
1
  1
strokes_ogs.tif
176
1
290
0
176
1
 40
1.0
176
1
 40
1.0
176
1
  0
VISUALSTYLE
  5
5E
102
{ACAD_REACTORS
330
16
102
}
330
16
100
AcDbVisualStyle
  2
Conceptual
 70
9
177
3
291
0
 70
58
 90
2
176
1
 90
2
176
1
 90
0
176
1
 90
3
176
1
 40
0.6
176
1
 40
30.0
176
1
 62
7
420
16777215
176
1
 90
1
176
1
 90
4
176
1
 62
7
176
1
 62
257
176
1
 90
1
176
1
 90
1
176
1
 40
1.0
176
1
 90
8
176
1
 62
7
176
1
 40
1.0
176
1
 90
1
176
1
 90
6
176
1
 90
2
176
1
 62
7
176
1
 90
5
176
1
 90
0
176
1
 90
0
176
1
290
0
176
1
 90
1
176
1
 40
0.0
176
1
 90
0
176
1
290
0
176
1
290
1
176
1
290
1
176
1
290
0
176
1
290
0
176
1
290
0
176
1
290
0
176
1
290
0
176
1
290
0
176
1
 90
50
176
1
 40
0.0
176
1
 40
1.0
176
1
 90
0
176
1
 62
18
420
0
176
1
 90
50
176
1
 90
3
176
1
 62
5
420
255
176
1
290
0
176
1
 90
50
176
1
 90
50
176
1
 90
50
176
1
290
0
176
1
 90
50
176
1
 62
256
176
0
 40
1.0
176
0
 90
2
176
1
  1
strokes_ogs.tif
176
1
290
0
176
1
 40
1.0
176
1
 40
1.0
176
1
  0
VISUALSTYLE
  5
5F
102
{ACAD_REACTORS
330
16
102
}
330
16
100
AcDbVisualStyle
  2
Dim
 70
11
177
3
291
1
 70
58
 90
2
176
1
 90
2
176
1
 90
0
176
1
 90
2
176
1
 40
0.6
176
1
 40
30.0
176
1
 62
7
420
16777215
176
1
 90
1
176
1
 90
4
176
1
 62
7
176
1
 62
257
176
1
 90
1
176
1
 90
1
176
1
 40
1.0
176
1
 90
8
176
1
 62
7
176
1
 40
1.0
176
1
 90
1
176
1
 90
6
176
1
 90
2
176
1
 62
7
176
1
 90
5
176
1
 90
0
176
1
 90
0
176
1
290
0
176
1
 90
1
176
1
 40
0.0
176
1
 90
0
176
1
290
0
176
1
290
1
176
1
290
1
176
1
290
0
176
1
290
0
176
1
290
0
176
1
290
0
176
1
290
0
176
1
290
0
176
1
 90
50
176
1
 40
0.0
176
1
 40
1.0
176
1
 90
0
176
1
 62
18
420
0
176
1
 90
50
176
1
 90
3
176
1
 62
5
420
255
176
1
290
0
176
1
 90
50
176
1
 90
50
176
1
 90
50
176
1
290
0
176
1
 90
50
176
1
 62
256
176
0
 40
1.0
176
0
 90
2
176
1
  1
strokes_ogs.tif
176
1
290
0
176
1
 40
1.0
176
1
 40
1.0
176
1
  0
VISUALSTYLE
  5
60
102
{ACAD_REACTORS
330
16
102
}
330
16
100
AcDbVisualStyle
  2
EdgeColorOff
 70
22
177
3
291
1
 70
58
 90
2
176
1
 90
2
176
1
 90
0
176
1
 90
2
176
1
 40
0.6
176
1
 40
30.0
176
1
 62
7
420
16777215
176
1
 90
1
176
1
 90
4
176
1
 62
7
176
1
 62
257
176
1
 90
1
176
1
 90
1
176
1
 40
1.0
176
1
 90
8
176
1
 62
7
176
1
 40
1.0
176
1
 90
1
176
1
 90
6
176
1
 90
2
176
1
 62
7
176
1
 90
5
176
1
 90
0
176
1
 90
0
176
1
290
0
176
1
 90
1
176
1
 40
0.0
176
1
 90
0
176
1
290
0
176
1
290
1
176
1
290
1
176
1
290
0
176
1
290
0
176
1
290
0
176
1
290
0
176
1
290
0
176
1
290
0
176
1
 90
50
176
1
 40
0.0
176
1
 40
1.0
176
1
 90
0
176
1
 62
18
420
0
176
1
 90
50
176
1
 90
3
176
1
 62
5
420
255
176
1
290
0
176
1
 90
50
176
1
 90
50
176
1
 90
50
176
1
290
0
176
1
 90
50
176
1
 62
256
176
0
 40
1.0
176
0
 90
2
176
1
  1
strokes_ogs.tif
176
1
290
0
176
1
 40
1.0
176
1
 40
1.0
176
1
  0
VISUALSTYLE
  5
61
102
{ACAD_REACTORS
330
16
102
}
330
16
100
AcDbVisualStyle
  2
Facepattern
 70
15
177
3
291
1
 70
58
 90
2
176
1
 90
2
176
1
 90
0
176
1
 90
2
176
1
 40
0.6
176
1
 40
30.0
176
1
 62
7
420
16777215
176
1
 90
1
176
1
 90
4
176
1
 62
7
176
1
 62
257
176
1
 90
1
176
1
 90
1
176
1
 40
1.0
176
1
 90
8
176
1
 62
7
176
1
 40
1.0
176
1
 90
1
176
1
 90
6
176
1
 90
2
176
1
 62
7
176
1
 90
5
176
1
 90
0
176
1
 90
0
176
1
290
0
176
1
 90
1
176
1
 40
0.0
176
1
 90
0
176
1
290
0
176
1
290
1
176
1
290
1
176
1
290
0
176
1
290
0
176
1
290
0
176
1
290
0
176
1
290
0
176
1
290
0
176
1
 90
50
176
1
 40
0.0
176
1
 40
1.0
176
1
 90
0
176
1
 62
18
420
0
176
1
 90
50
176
1
 90
3
176
1
 62
5
420
255
176
1
290
0
176
1
 90
50
176
1
 90
50
176
1
 90
50
176
1
290
0
176
1
 90
50
176
1
 62
256
176
0
 40
1.0
176
0
 90
2
176
1
  1
strokes_ogs.tif
176
1
290
0
176
1
 40
1.0
176
1
 40
1.0
176
1
  0
VISUALSTYLE
  5
62
102
{ACAD_REACTORS
330
16
102
}
330
16
100
AcDbVisualStyle
  2
Flat
 70
0
177
3
291
1
 70
58
 90
2
176
1
 90
2
176
1
 90
0
176
1
 90
2
176
1
 40
0.6
176
1
 40
30.0
176
1
 62
7
420
16777215
176
1
 90
1
176
1
 90
4
176
1
 62
7
176
1
 62
257
176
1
 90
1
176
1
 90
1
176
1
 40
1.0
176
1
 90
8
176
1
 62
7
176
1
 40
1.0
176
1
 90
1
176
1
 90
6
176
1
 90
2
176
1
 62
7
176
1
 90
5
176
1
 90
0
176
1
 90
0
176
1
290
0
176
1
 90
1
176
1
 40
0.0
176
1
 90
0
176
1
290
0
176
1
290
1
176
1
290
1
176
1
290
0
176
1
290
0
176
1
290
0
176
1
290
0
176
1
290
0
176
1
290
0
176
1
 90
50
176
1
 40
0.0
176
1
 40
1.0
176
1
 90
0
176
1
 62
18
420
0
176
1
 90
50
176
1
 90
3
176
1
 62
5
420
255
176
1
290
0
176
1
 90
50
176
1
 90
50
176
1
 90
50
176
1
290
0
176
1
 90
50
176
1
 62
256
176
0
 40
1.0
176
0
 90
2
176
1
  1
strokes_ogs.tif
176
1
290
0
176
1
 40
1.0
176
1
 40
1.0
176
1
  0
VISUALSTYLE
  5
63
102
{ACAD_REACTORS
330
16
102
}
330
16
100
AcDbVisualStyle
  2
FlatWithEdges
 70
1
177
3
291
1
 70
58
 90
2
176
1
 90
2
176
1
 90
0
176
1
 90
2
176
1
 40
0.6
176
1
 40
30.0
176
1
 62
7
420
16777215
176
1
 90
1
176
1
 90
4
176
1
 62
7
176
1
 62
257
176
1
 90
1
176
1
 90
1
176
1
 40
1.0
176
1
 90
8
176
1
 62
7
176
1
 40
1.0
176
1
 90
1
176
1
 90
6
176
1
 90
2
176
1
 62
7
176
1
 90
5
176
1
 90
0
176
1
 90
0
176
1
290
0
176
1
 90
1
176
1
 40
0.0
176
1
 90
0
176
1
290
0
176
1
290
1
176
1
290
1
176
1
290
0
176
1
290
0
176
1
290
0
176
1
290
0
176
1
290
0
176
1
290
0
176
1
 90
50
176
1
 40
0.0
176
1
 40
1.0
176
1
 90
0
176
1
 62
18
420
0
176
1
 90
50
176
1
 90
3
176
1
 62
5
420
255
176
1
290
0
176
1
 90
50
176
1
 90
50
176
1
 90
50
176
1
290
0
176
1
 90
50
176
1
 62
256
176
0
 40
1.0
176
0
 90
2
176
1
  1
strokes_ogs.tif
176
1
290
0
176
1
 40
1.0
176
1
 40
1.0
176
1
  0
VISUALSTYLE
  5
64
102
{ACAD_REACTORS
330
16
102
}
330
16
100
AcDbVisualStyle
  2
Gouraud
 70
2
177
3
291
1
 70
58
 90
2
176
1
 90
2
176
1
 90
0
176
1
 90
2
176
1
 40
0.6
176
1
 40
30.0
176
1
 62
7
420
16777215
176
1
 90
1
176
1
 90
4
176
1
 62
7
176
1
 62
257
176
1
 90
1
176
1
 90
1
176
1
 40
1.0
176
1
 90
8
176
1
 62
7
176
1
 40
1.0
176
1
 90
1
176
1
 90
6
176
1
 90
2
176
1
 62
7
176
1
 90
5
176
1
 90
0
176
1
 90
0
176
1
290
0
176
1
 90
1
176
1
 40
0.0
176
1
 90
0
176
1
290
0
176
1
290
1
176
1
290
1
176
1
290
0
176
1
290
0
176
1
290
0
176
1
290
0
176
1
290
0
176
1
290
0
176
1
 90
50
176
1
 40
0.0
176
1
 40
1.0
176
1
 90
0
176
1
 62
18
420
0
176
1
 90
50
176
1
 90
3
176
1
 62
5
420
255
176
1
290
0
176
1
 90
50
176
1
 90
50
176
1
 90
50
176
1
290
0
176
1
 90
50
176
1
 62
256
176
0
 40
1.0
176
0
 90
2
176
1
  1
strokes_ogs.tif
176
1
290
0
176
1
 40
1.0
176
1
 40
1.0
176
1
  0
VISUALSTYLE
  5
65
102
{ACAD_REACTORS
330
16
102
}
330
16
100
AcDbVisualStyle
  2
GouraudWithEdges
 70
3
177
3
291
1
 70
58
 90
2
176
1
 90
2
176
1
 90
0
176
1
 90
2
176
1
 40
0.6
176
1
 40
30.0
176
1
 62
7
420
16777215
176
1
 90
1
176
1
 90
4
176
1
 62
7
176
1
 62
257
176
1
 90
1
176
1
 90
1
176
1
 40
1.0
176
1
 90
8
176
1
 62
7
176
1
 40
1.0
176
1
 90
1
176
1
 90
6
176
1
 90
2
176
1
 62
7
176
1
 90
5
176
1
 90
0
176
1
 90
0
176
1
290
0
176
1
 90
1
176
1
 40
0.0
176
1
 90
0
176
1
290
0
176
1
290
1
176
1
290
1
176
1
290
0
176
1
290
0
176
1
290
0
176
1
290
0
176
1
290
0
176
1
290
0
176
1
 90
50
176
1
 40
0.0
176
1
 40
1.0
176
1
 90
0
176
1
 62
18
420
0
176
1
 90
50
176
1
 90
3
176
1
 62
5
420
255
176
1
290
0
176
1
 90
50
176
1
 90
50
176
1
 90
50
176
1
290
0
176
1
 90
50
176
1
 62
256
176
0
 40
1.0
176
0
 90
2
176
1
  1
strokes_ogs.tif
176
1
290
0
176
1
 40
1.0
176
1
 40
1.0
176
1
  0
VISUALSTYLE
  5
66
102
{ACAD_REACTORS
330
16
102
}
330
16
100
AcDbVisualStyle
  2
Hidden
 70
6
177
3
291
0
 70
58
 90
2
176
1
 90
2
176
1
 90
0
176
1
 90
1
176
1
 40
0.6
176
1
 40
30.0
176
1
 62
7
420
16777215
176
1
 90
1
176
1
 90
4
176
1
 62
7
176
1
 62
257
176
1
 90
1
176
1
 90
1
176
1
 40
1.0
176
1
 90
8
176
1
 62
7
176
1
 40
1.0
176
1
 90
1
176
1
 90
6
176
1
 90
2
176
1
 62
7
176
1
 90
5
176
1
 90
0
176
1
 90
0
176
1
290
0
176
1
 90
1
176
1
 40
0.0
176
1
 90
0
176
1
290
0
176
1
290
1
176
1
290
1
176
1
290
0
176
1
290
0
176
1
290
0
176
1
290
0
176
1
290
0
176
1
290
0
176
1
 90
50
176
1
 40
0.0
176
1
 40
1.0
176
1
 90
0
176
1
 62
18
420
0
176
1
 90
50
176
1
 90
3
176
1
 62
5
420
255
176
1
290
0
176
1
 90
50
176
1
 90
50
176
1
 90
50
176
1
290
0
176
1
 90
50
176
1
 62
256
176
0
 40
1.0
176
0
 90
2
176
1
  1
strokes_ogs.tif
176
1
290
0
176
1
 40
1.0
176
1
 40
1.0
176
1
  0
VISUALSTYLE
  5
67
102
{ACAD_REACTORS
330
16
102
}
330
16
100
AcDbVisualStyle
  2
JitterOff
 70
20
177
3
291
1
 70
58
 90
2
176
1
 90
2
176
1
 90
0
176
1
 90
2
176
1
 40
0.6
176
1
 40
30.0
176
1
 62
7
420
16777215
176
1
 90
1
176
1
 90
4
176
1
 62
7
176
1
 62
257
176
1
 90
1
176
1
 90
1
176
1
 40
1.0
176
1
 90
8
176
1
 62
7
176
1
 40
1.0
176
1
 90
1
176
1
 90
6
176
1
 90
2
176
1
 62
7
176
1
 90
5
176
1
 90
0
176
1
 90
0
176
1
290
0
176
1
 90
1
176
1
 40
0.0
176
1
 90
0
176
1
290
0
176
1
290
1
176
1
290
1
176
1
290
0
176
1
290
0
176
1
290
0
176
1
290
0
176
1
290
0
176
1
290
0
176
1
 90
50
176
1
 40
0.0
176
1
 40
1.0
176
1
 90
0
176
1
 62
18
420
0
176
1
 90
50
176
1
 90
3
176
1
 62
5
420
255
176
1
290
0
176
1
 90
50
176
1
 90
50
176
1
 90
50
176
1
290
0
176
1
 90
50
176
1
 62
256
176
0
 40
1.0
176
0
 90
2
176
1
  1
strokes_ogs.tif
176
1
290
0
176
1
 40
1.0
176
1
 40
1.0
176
1
  0
VISUALSTYLE
  5
68
102
{ACAD_REACTORS
330
16
102
}
330
16
100
AcDbVisualStyle
  2
Linepattern
 70
14
177
3
291
1
 70
58
 90
2
176
1
 90
2
176
1
 90
0
176
1
 90
2
176
1
 40
0.6
176
1
 40
30.0
176
1
 62
7
420
16777215
176
1
 90
1
176
1
 90
4
176
1
 62
7
176
1
 62
257
176
1
 90
1
176
1
 90
1
176
1
 40
1.0
176
1
 90
8
176
1
 62
7
176
1
 40
1.0
176
1
 90
1
176
1
 90
6
176
1
 90
2
176
1
 62
7
176
1
 90
5
176
1
 90
0
176
1
 90
0
176
1
290
0
176
1
 90
1
176
1
 40
0.0
176
1
 90
0
176
1
290
0
176
1
290
1
176
1
290
1
176
1
290
0
176
1
290
0
176
1
290
0
176
1
290
0
176
1
290
0
176
1
290
0
176
1
 90
50
176
1
 40
0.0
176
1
 40
1.0
176
1
 90
0
176
1
 62
18
420
0
176
1
 90
50
176
1
 90
3
176
1
 62
5
420
255
176
1
290
0
176
1
 90
50
176
1
 90
50
176
1
 90
50
176
1
290
0
176
1
 90
50
176
1
 62
256
176
0
 40
1.0
176
0
 90
2
176
1
  1
strokes_ogs.tif
176
1
290
0
176
1
 40
1.0
176
1
 40
1.0
176
1
  0
VISUALSTYLE
  5
69
102
{ACAD_REACTORS
330
16
102
}
330
16
100
AcDbVisualStyle
  2
Modeling
 70
10
177
3
291
0
 70
58
 90
2
176
1
 90
2
176
1
 90
0
176
1
 90
2
176
1
 40
0.6
176
1
 40
30.0
176
1
 62
7
420
16777215
176
1
 90
1
176
1
 90
4
176
1
 62
7
176
1
 62
257
176
1
 90
1
176
1
 90
1
176
1
 40
1.0
176
1
 90
8
176
1
 62
7
176
1
 40
1.0
176
1
 90
1
176
1
 90
6
176
1
 90
2
176
1
 62
7
176
1
 90
5
176
1
 90
0
176
1
 90
0
176
1
290
0
176
1
 90
1
176
1
 40
0.0
176
1
 90
0
176
1
290
0
176
1
290
1
176
1
290
1
176
1
290
0
176
1
290
0
176
1
290
0
176
1
290
0
176
1
290
0
176
1
290
0
176
1
 90
50
176
1
 40
0.0
176
1
 40
1.0
176
1
 90
0
176
1
 62
18
420
0
176
1
 90
50
176
1
 90
3
176
1
 62
5
420
255
176
1
290
0
176
1
 90
50
176
1
 90
50
176
1
 90
50
176
1
290
0
176
1
 90
50
176
1
 62
256
176
0
 40
1.0
176
0
 90
2
176
1
  1
strokes_ogs.tif
176
1
290
0
176
1
 40
1.0
176
1
 40
1.0
176
1
  0
VISUALSTYLE
  5
6A
102
{ACAD_REACTORS
330
16
102
}
330
16
100
AcDbVisualStyle
  2
OverhangOff
 70
21
177
3
291
1
 70
58
 90
2
176
1
 90
2
176
1
 90
0
176
1
 90
2
176
1
 40
0.6
176
1
 40
30.0
176
1
 62
7
420
16777215
176
1
 90
1
176
1
 90
4
176
1
 62
7
176
1
 62
257
176
1
 90
1
176
1
 90
1
176
1
 40
1.0
176
1
 90
8
176
1
 62
7
176
1
 40
1.0
176
1
 90
1
176
1
 90
6
176
1
 90
2
176
1
 62
7
176
1
 90
5
176
1
 90
0
176
1
 90
0
176
1
290
0
176
1
 90
1
176
1
 40
0.0
176
1
 90
0
176
1
290
0
176
1
290
1
176
1
290
1
176
1
290
0
176
1
290
0
176
1
290
0
176
1
290
0
176
1
290
0
176
1
290
0
176
1
 90
50
176
1
 40
0.0
176
1
 40
1.0
176
1
 90
0
176
1
 62
18
420
0
176
1
 90
50
176
1
 90
3
176
1
 62
5
420
255
176
1
290
0
176
1
 90
50
176
1
 90
50
176
1
 90
50
176
1
290
0
176
1
 90
50
176
1
 62
256
176
0
 40
1.0
176
0
 90
2
176
1
  1
strokes_ogs.tif
176
1
290
0
176
1
 40
1.0
176
1
 40
1.0
176
1
  0
VISUALSTYLE
  5
6B
102
{ACAD_REACTORS
330
16
102
}
330
16
100
AcDbVisualStyle
  2
Realistic
 70
8
177
3
291
0
 70
58
 90
2
176
1
 90
2
176
1
 90
0
176
1
 90
2
176
1
 40
0.6
176
1
 40
30.0
176
1
 62
7
420
16777215
176
1
 90
1
176
1
 90
4
176
1
 62
7
176
1
 62
257
176
1
 90
1
176
1
 90
1
176
1
 40
1.0
176
1
 90
8
176
1
 62
7
176
1
 40
1.0
176
1
 90
1
176
1
 90
6
176
1
 90
2
176
1
 62
7
176
1
 90
5
176
1
 90
0
176
1
 90
0
176
1
290
0
176
1
 90
1
176
1
 40
0.0
176
1
 90
0
176
1
290
0
176
1
290
1
176
1
290
1
176
1
290
0
176
1
290
0
176
1
290
0
176
1
290
0
176
1
290
0
176
1
290
0
176
1
 90
50
176
1
 40
0.0
176
1
 40
1.0
176
1
 90
0
176
1
 62
18
420
0
176
1
 90
50
176
1
 90
3
176
1
 62
5
420
255
176
1
290
0
176
1
 90
50
176
1
 90
50
176
1
 90
50
176
1
290
0
176
1
 90
50
176
1
 62
256
176
0
 40
1.0
176
0
 90
2
176
1
  1
strokes_ogs.tif
176
1
290
0
176
1
 40
1.0
176
1
 40
1.0
176
1
  0
VISUALSTYLE
  5
6C
102
{ACAD_REACTORS
330
16
102
}
330
16
100
AcDbVisualStyle
  2
Shaded
 70
27
177
3
291
0
 70
58
 90
2
176
1
 90
2
176
1
 90
0
176
1
 90
2
176
1
 40
0.6
176
1
 40
30.0
176
1
 62
7
420
16777215
176
1
 90
1
176
1
 90
4
176
1
 62
7
176
1
 62
257
176
1
 90
1
176
1
 90
1
176
1
 40
1.0
176
1
 90
8
176
1
 62
7
176
1
 40
1.0
176
1
 90
1
176
1
 90
6
176
1
 90
2
176
1
 62
7
176
1
 90
5
176
1
 90
0
176
1
 90
0
176
1
290
0
176
1
 90
1
176
1
 40
0.0
176
1
 90
0
176
1
290
0
176
1
290
1
176
1
290
1
176
1
290
0
176
1
290
0
176
1
290
0
176
1
290
0
176
1
290
0
176
1
290
0
176
1
 90
50
176
1
 40
0.0
176
1
 40
1.0
176
1
 90
0
176
1
 62
18
420
0
176
1
 90
50
176
1
 90
3
176
1
 62
5
420
255
176
1
290
0
176
1
 90
50
176
1
 90
50
176
1
 90
50
176
1
290
0
176
1
 90
50
176
1
 62
256
176
0
 40
1.0
176
0
 90
2
176
1
  1
strokes_ogs.tif
176
1
290
0
176
1
 40
1.0
176
1
 40
1.0
176
1
  0
VISUALSTYLE
  5
6D
102
{ACAD_REACTORS
330
16
102
}
330
16
100
AcDbVisualStyle
  2
Shaded with edges
 70
26
177
3
291
0
 70
58
 90
2
176
1
 90
2
176
1
 90
0
176
1
 90
2
176
1
 40
0.6
176
1
 40
30.0
176
1
 62
7
420
16777215
176
1
 90
1
176
1
 90
4
176
1
 62
7
176
1
 62
257
176
1
 90
1
176
1
 90
1
176
1
 40
1.0
176
1
 90
8
176
1
 62
7
176
1
 40
1.0
176
1
 90
1
176
1
 90
6
176
1
 90
2
176
1
 62
7
176
1
 90
5
176
1
 90
0
176
1
 90
0
176
1
290
0
176
1
 90
1
176
1
 40
0.0
176
1
 90
0
176
1
290
0
176
1
290
1
176
1
290
1
176
1
290
0
176
1
290
0
176
1
290
0
176
1
290
0
176
1
290
0
176
1
290
0
176
1
 90
50
176
1
 40
0.0
176
1
 40
1.0
176
1
 90
0
176
1
 62
18
420
0
176
1
 90
50
176
1
 90
3
176
1
 62
5
420
255
176
1
290
0
176
1
 90
50
176
1
 90
50
176
1
 90
50
176
1
290
0
176
1
 90
50
176
1
 62
256
176
0
 40
1.0
176
0
 90
2
176
1
  1
strokes_ogs.tif
176
1
290
0
176
1
 40
1.0
176
1
 40
1.0
176
1
  0
VISUALSTYLE
  5
6E
102
{ACAD_REACTORS
330
16
102
}
330
16
100
AcDbVisualStyle
  2
Shades of Gray
 70
23
177
3
291
0
 70
58
 90
2
176
1
 90
2
176
1
 90
0
176
1
 90
2
176
1
 40
0.6
176
1
 40
30.0
176
1
 62
7
420
16777215
176
1
 90
1
176
1
 90
4
176
1
 62
7
176
1
 62
257
176
1
 90
1
176
1
 90
1
176
1
 40
1.0
176
1
 90
8
176
1
 62
7
176
1
 40
1.0
176
1
 90
1
176
1
 90
6
176
1
 90
2
176
1
 62
7
176
1
 90
5
176
1
 90
0
176
1
 90
0
176
1
290
0
176
1
 90
1
176
1
 40
0.0
176
1
 90
0
176
1
290
0
176
1
290
1
176
1
290
1
176
1
290
0
176
1
290
0
176
1
290
0
176
1
290
0
176
1
290
0
176
1
290
0
176
1
 90
50
176
1
 40
0.0
176
1
 40
1.0
176
1
 90
0
176
1
 62
18
420
0
176
1
 90
50
176
1
 90
3
176
1
 62
5
420
255
176
1
290
0
176
1
 90
50
176
1
 90
50
176
1
 90
50
176
1
290
0
176
1
 90
50
176
1
 62
256
176
0
 40
1.0
176
0
 90
2
176
1
  1
strokes_ogs.tif
176
1
290
0
176
1
 40
1.0
176
1
 40
1.0
176
1
  0
VISUALSTYLE
  5
6F
102
{ACAD_REACTORS
330
16
102
}
330
16
100
AcDbVisualStyle
  2
Sketchy
 70
24
177
3
291
0
 70
58
 90
2
176
1
 90
2
176
1
 90
0
176
1
 90
1
176
1
 40
0.6
176
1
 40
30.0
176
1
 62
7
420
16777215
176
1
 90
1
176
1
 90
4
176
1
 62
7
176
1
 62
257
176
1
 90
1
176
1
 90
1
176
1
 40
1.0
176
1
 90
8
176
1
 62
7
176
1
 40
1.0
176
1
 90
1
176
1
 90
6
176
1
 90
2
176
1
 62
7
176
1
 90
5
176
1
 90
0
176
1
 90
0
176
1
290
0
176
1
 90
1
176
1
 40
0.0
176
1
 90
0
176
1
290
0
176
1
290
1
176
1
290
1
176
1
290
0
176
1
290
0
176
1
290
0
176
1
290
0
176
1
290
0
176
1
290
0
176
1
 90
50
176
1
 40
0.0
176
1
 40
1.0
176
1
 90
0
176
1
 62
18
420
0
176
1
 90
50
176
1
 90
3
176
1
 62
5
420
255
176
1
290
0
176
1
 90
50
176
1
 90
50
176
1
 90
50
176
1
290
0
176
1
 90
50
176
1
 62
256
176
0
 40
1.0
176
0
 90
2
176
1
  1
strokes_ogs.tif
176
1
290
0
176
1
 40
1.0
176
1
 40
1.0
176
1
  0
VISUALSTYLE
  5
70
102
{ACAD_REACTORS
330
16
102
}
330
16
100
AcDbVisualStyle
  2
Thicken
 70
13
177
3
291
1
 70
58
 90
2
176
1
 90
2
176
1
 90
0
176
1
 90
2
176
1
 40
0.6
176
1
 40
30.0
176
1
 62
7
420
16777215
176
1
 90
1
176
1
 90
4
176
1
 62
7
176
1
 62
257
176
1
 90
1
176
1
 90
1
176
1
 40
1.0
176
1
 90
8
176
1
 62
7
176
1
 40
1.0
176
1
 90
1
176
1
 90
6
176
1
 90
2
176
1
 62
7
176
1
 90
5
176
1
 90
0
176
1
 90
0
176
1
290
0
176
1
 90
1
176
1
 40
0.0
176
1
 90
0
176
1
290
0
176
1
290
1
176
1
290
1
176
1
290
0
176
1
290
0
176
1
290
0
176
1
290
0
176
1
290
0
176
1
290
0
176
1
 90
50
176
1
 40
0.0
176
1
 40
1.0
176
1
 90
0
176
1
 62
18
420
0
176
1
 90
50
176
1
 90
3
176
1
 62
5
420
255
176
1
290
0
176
1
 90
50
176
1
 90
50
176
1
 90
50
176
1
290
0
176
1
 90
50
176
1
 62
256
176
0
 40
1.0
176
0
 90
2
176
1
  1
strokes_ogs.tif
176
1
290
0
176
1
 40
1.0
176
1
 40
1.0
176
1
  0
VISUALSTYLE
  5
71
102
{ACAD_REACTORS
330
16
102
}
330
16
100
AcDbVisualStyle
  2
Wireframe
 70
5
177
3
291
0
 70
58
 90
2
176
1
 90
2
176
1
 90
0
176
1
 90
0
176
1
 40
0.6
176
1
 40
30.0
176
1
 62
7
420
16777215
176
1
 90
1
176
1
 90
4
176
1
 62
7
176
1
 62
257
176
1
 90
1
176
1
 90
1
176
1
 40
1.0
176
1
 90
8
176
1
 62
7
176
1
 40
1.0
176
1
 90
1
176
1
 90
6
176
1
 90
2
176
1
 62
7
176
1
 90
5
176
1
 90
0
176
1
 90
0
176
1
290
0
176
1
 90
1
176
1
 40
0.0
176
1
 90
0
176
1
290
0
176
1
290
1
176
1
290
1
176
1
290
0
176
1
290
0
176
1
290
0
176
1
290
0
176
1
290
0
176
1
290
0
176
1
 90
50
176
1
 40
0.0
176
1
 40
1.0
176
1
 90
0
176
1
 62
18
420
0
176
1
 90
50
176
1
 90
3
176
1
 62
5
420
255
176
1
290
0
176
1
 90
50
176
1
 90
50
176
1
 90
50
176
1
290
0
176
1
 90
50
176
1
 62
256
176
0
 40
1.0
176
0
 90
2
176
1
  1
strokes_ogs.tif
176
1
290
0
176
1
 40
1.0
176
1
 40
1.0
176
1
  0
VISUALSTYLE
  5
72
102
{ACAD_REACTORS
330
16
102
}
330
16
100
AcDbVisualStyle
  2
X-Ray
 70
25
177
3
291
0
 70
58
 90
2
176
1
 90
2
176
1
 90
0
176
1
 90
2
176
1
 40
0.5
176
1
 40
30.0
176
1
 62
7
420
16777215
176
1
 90
1
176
1
 90
4
176
1
 62
7
176
1
 62
257
176
1
 90
1
176
1
 90
1
176
1
 40
1.0
176
1
 90
8
176
1
 62
7
176
1
 40
1.0
176
1
 90
1
176
1
 90
6
176
1
 90
2
176
1
 62
7
176
1
 90
5
176
1
 90
0
176
1
 90
0
176
1
290
0
176
1
 90
1
176
1
 40
0.0
176
1
 90
0
176
1
290
0
176
1
290
1
176
1
290
1
176
1
290
0
176
1
290
0
176
1
290
0
176
1
290
0
176
1
290
0
176
1
290
0
176
1
 90
50
176
1
 40
0.0
176
1
 40
1.0
176
1
 90
0
176
1
 62
18
420
0
176
1
 90
50
176
1
 90
3
176
1
 62
5
420
255
176
1
290
0
176
1
 90
50
176
1
 90
50
176
1
 90
50
176
1
290
0
176
1
 90
50
176
1
 62
256
176
0
 40
1.0
176
0
 90
2
176
1
  1
strokes_ogs.tif
176
1
290
0
176
1
 40
1.0
176
1
 40
1.0
176
1
  0
DICTIONARYVAR
  5
8A
330
2D
100
DictionaryVariables
280
0
  1
9bdd75bf2ea4a15314ae6a886c801c8d1d01f7572e2e002ab2ad73d238ef7a80
  0
LAYOUT
  5
3E9
330
D
100
AcDbPlotSettings
  1

  2
DWG to PDF.pc3
  4
ezdxf_(420.00_x_297.00_MM)
  6

 40
10.0
 41
10.0
 42
10.0
 43
10.0
 44
420.0
 45
297.0
 46
0.0
 47
0.0
 48
0.0
 49
0.0
140
0.0
141
0.0
142
1.0
143
1.0
 70
672
 72
1
 73
0
 74
5
  7

 75
16
 76
0
 77
2
 78
300
147
1.0
148
0.0
149
0.0
100
AcDbLayout
  1
GROUND
 70
1
 71
3
 10
-10.0
 20
-10.0
 11
410.0
 21
287.0
 12
0.0
 22
0.0
 32
0.0
 14
1e+20
 24
1e+20
 34
1e+20
 15
-1e+20
 25
-1e+20
 35
-1e+20
146
0.0
 13
0.0
 23
0.0
 33
0.0
 16
1.0
 26
0.0
 36
0.0
 17
0.0
 27
1.0
 37
0.0
 76
1
330
3E6
331
3EA
  0
DICTIONARYVAR
  5
3EF
330
2D
100
DictionaryVariables
280
0
  1
0.0 @ 2000-01-01T00:00:00.000000+00:00
  0
ENDSEC
  0
EOF
